<?xml version="1.0" standalone="no"?>
<!DOCTYPE svg PUBLIC "-//W3C//DTD SVG 20010904//EN"
 "http://www.w3.org/TR/2001/REC-SVG-20010904/DTD/svg10.dtd">
<svg version="1.0" xmlns="http://www.w3.org/2000/svg"
 width="1254.000000pt" height="400.000000pt" viewBox="0 0 1254.000000 400.000000"
 preserveAspectRatio="xMidYMid meet">

<g transform="translate(0.000000,400.000000) scale(0.100000,-0.100000)"
fill="#000000" stroke="none">
<path d="M5194 3791 c-61 -38 -66 -139 -9 -177 42 -28 145 -15 145 18 0 6 -8
4 -18 -5 -27 -25 -78 -22 -96 5 -28 40 -17 137 18 160 24 17 55 7 80 -24 l26
-33 0 35 0 35 -58 3 c-42 2 -65 -3 -88 -17z"/>
<path d="M6438 3798 c17 -17 16 -185 0 -191 -7 -3 10 -5 37 -5 28 0 44 2 38 5
-9 3 -13 33 -13 98 0 65 4 95 13 98 6 3 -10 6 -37 6 -39 1 -47 -2 -38 -11z"/>
<path d="M7405 3705 l0 -105 35 1 c19 0 29 3 23 6 -9 3 -13 34 -13 104 0 96
-1 99 -22 99 -22 0 -23 -3 -23 -105z"/>
<path d="M6744 3761 c-17 -22 -19 -35 -15 -91 5 -59 8 -65 30 -68 13 -2 28 1
34 7 8 8 6 11 -6 11 -14 0 -17 10 -17 49 0 42 3 50 23 56 l22 8 -22 4 c-13 3
-23 13 -25 27 l-3 23 -21 -26z"/>
<path d="M5381 3726 c-7 -8 -14 -29 -17 -48 -11 -65 58 -106 106 -63 26 24 27
86 2 108 -23 21 -75 22 -91 3z m64 -56 c0 -44 -3 -55 -17 -58 -16 -3 -18 5
-18 58 0 53 2 61 18 58 14 -3 17 -14 17 -58z"/>
<path d="M5525 3669 c0 -67 1 -69 25 -69 24 0 25 3 25 57 0 48 3 58 18 61 17
3 19 -2 15 -57 l-3 -61 30 0 30 0 -3 60 c-3 51 -1 60 13 60 14 0 16 -9 13 -60
l-3 -60 30 0 31 0 -6 58 c-3 31 -9 63 -13 70 -10 15 -53 16 -62 2 -4 -7 -11
-8 -18 -2 -7 5 -37 10 -67 10 l-55 0 0 -69z"/>
<path d="M5785 3669 c0 -67 1 -69 25 -69 24 0 25 3 25 57 0 48 3 58 18 61 17
3 19 -2 15 -57 l-3 -61 30 0 30 0 -3 60 c-3 51 -1 60 13 60 14 0 16 -9 13 -60
l-3 -60 30 0 31 0 -6 58 c-3 31 -9 63 -13 70 -10 15 -53 16 -62 2 -4 -7 -11
-8 -18 -2 -7 5 -37 10 -67 10 l-55 0 0 -69z"/>
<path d="M6051 3726 c-7 -8 -14 -29 -17 -48 -11 -65 58 -106 106 -63 26 24 27
86 2 108 -23 21 -75 22 -91 3z m64 -56 c0 -44 -3 -55 -17 -58 -16 -3 -18 5
-18 58 0 53 2 61 18 58 14 -3 17 -14 17 -58z"/>
<path d="M6189 3727 c15 -15 14 -100 -1 -115 -9 -9 -4 -12 23 -12 l34 0 0 57
c0 38 4 58 13 61 11 3 13 -9 10 -57 l-3 -61 30 0 30 0 -3 57 c-2 32 -8 63 -14
70 -5 6 -36 12 -70 12 -46 0 -58 -3 -49 -12z"/>
<path d="M6555 3669 c0 -67 1 -69 25 -69 24 0 25 3 25 57 0 48 3 58 18 61 17
3 19 -2 15 -57 -3 -59 -2 -61 22 -61 25 0 25 1 20 67 l-5 68 -60 2 -60 2 0
-70z"/>
<path d="M6836 3718 c-20 -29 -21 -82 0 -102 19 -20 68 -21 83 -2 10 12 8 13
-10 9 -15 -4 -26 0 -35 12 -23 32 -16 44 26 47 39 3 39 4 27 28 -17 35 -69 40
-91 8z m62 -11 c2 -12 -3 -17 -17 -17 -12 0 -21 6 -21 13 0 31 32 34 38 4z"/>
<path d="M6972 3728 c-29 -29 1 -88 44 -88 34 0 66 30 61 56 -2 13 0 24 4 24
5 0 9 5 9 10 0 14 -104 12 -118 -2z m66 -26 c4 -25 -15 -55 -29 -46 -5 3 -9
21 -9 40 0 28 4 35 18 32 9 -2 18 -14 20 -26z"/>
<path d="M7115 3670 l0 -70 30 0 c30 0 30 1 30 52 0 50 2 53 25 53 15 0 26 6
28 18 4 20 -27 24 -46 5 -9 -9 -12 -9 -12 0 0 7 -12 12 -27 12 -28 0 -28 0
-28 -70z"/>
<path d="M7260 3725 c-15 -17 -5 -49 13 -42 6 2 12 14 11 26 0 14 5 21 18 21
31 0 21 -42 -15 -65 -18 -11 -33 -30 -35 -42 -3 -19 1 -21 56 -20 l58 0 -4 56
c-2 31 -5 62 -7 69 -6 17 -80 15 -95 -3z m60 -80 c0 -16 -6 -25 -15 -25 -18 0
-20 21 -3 38 17 17 18 16 18 -13z"/>
<path d="M7497 3733 c-18 -17 -6 -60 23 -81 17 -13 30 -27 30 -32 0 -17 -38
-11 -49 8 -9 15 -10 15 -11 -5 0 -20 5 -23 39 -23 59 0 72 54 21 90 -31 22
-39 40 -18 40 6 0 19 -7 29 -16 16 -15 17 -14 12 5 -4 16 -13 21 -37 21 -18 0
-36 -3 -39 -7z"/>
<path d="M6969 3633 c-1 -5 -3 -27 -4 -50 -3 -41 -2 -43 33 -49 47 -9 87 12
87 46 0 22 -5 25 -43 28 -26 2 -45 9 -49 18 -5 15 -22 19 -24 7z m79 -59 c18
-5 20 -9 11 -20 -13 -16 -47 -18 -69 -4 -13 9 -13 11 0 20 17 11 27 12 58 4z"/>
<path d="M313 3454 c-16 -25 -18 -51 -18 -216 l1 -187 -23 5 c-19 5 -23 2 -23
-15 0 -16 6 -21 25 -21 44 0 50 28 49 232 -1 184 0 187 20 185 15 -1 21 4 21
18 0 31 -31 30 -52 -1z"/>
<path d="M4876 3465 c-22 -23 -29 -90 -24 -260 l4 -153 -26 1 c-31 2 -35 -27
-3 -31 45 -6 53 29 54 216 0 94 -2 176 -3 184 -2 8 5 12 20 11 26 -3 42 25 21
38 -19 12 -25 11 -43 -6z"/>
<path d="M8783 3454 c-16 -25 -18 -51 -18 -216 l1 -187 -23 5 c-19 5 -23 2
-23 -15 0 -16 6 -21 25 -21 44 0 50 28 49 232 -1 184 0 187 20 185 15 -1 21 4
21 18 0 31 -31 30 -52 -1z"/>
<path d="M10444 3245 c0 -104 2 -146 3 -92 2 54 2 139 0 190 -1 51 -3 7 -3
-98z"/>
<path d="M11084 3245 c0 -104 2 -146 3 -92 2 54 2 139 0 190 -1 51 -3 7 -3
-98z"/>
<path d="M6396 3383 c-11 -11 -6 -23 9 -23 8 0 15 4 15 9 0 13 -16 22 -24 14z"/>
<path d="M10176 3377 c-13 -10 -15 -16 -8 -21 16 -10 16 -158 0 -174 -9 -9 -4
-12 23 -12 20 0 29 4 22 8 -8 5 -13 44 -15 110 -3 99 -4 102 -22 89z"/>
<path d="M475 3370 c4 -6 -5 -51 -20 -101 -14 -50 -24 -93 -21 -96 9 -9 26 8
26 26 0 10 6 24 14 30 11 9 15 5 20 -24 7 -37 25 -45 46 -20 11 13 10 14 -3 9
-12 -4 -17 3 -23 30 -5 30 -2 39 17 56 15 12 19 19 10 20 -7 0 -22 -11 -33
-25 -32 -41 -37 -29 -17 38 10 34 19 63 19 65 0 1 -9 2 -21 2 -11 0 -17 -5
-14 -10z"/>
<path d="M749 3371 c24 -15 0 -64 -32 -65 -41 -2 -79 -46 -81 -92 -1 -45 23
-57 55 -28 17 16 19 16 19 1 0 -20 21 -22 38 -5 9 9 12 9 12 0 0 -20 38 -14
50 8 14 26 26 25 33 -1 6 -22 37 -23 45 -1 2 7 -2 10 -11 6 -10 -3 -16 4 -21
27 -7 36 7 59 35 59 21 0 25 15 7 26 -6 4 -19 -2 -29 -14 -20 -26 -29 -28 -29
-8 0 19 -14 28 -33 20 -13 -5 -13 -8 4 -25 23 -23 24 -38 3 -67 -11 -16 -24
-22 -45 -20 -35 3 -35 2 0 121 l20 67 -27 0 c-19 0 -23 -3 -13 -9z m-19 -97
c0 -31 -35 -84 -56 -84 -21 0 -17 53 7 84 27 34 49 34 49 0z"/>
<path d="M1276 3366 c5 -12 -24 -134 -43 -183 -3 -7 2 -13 11 -13 9 0 16 8 16
18 0 10 7 27 15 38 13 18 14 17 21 -14 8 -37 18 -46 41 -38 15 6 15 8 0 19 -9
6 -19 24 -22 38 -5 21 -1 31 21 48 15 11 22 21 16 21 -6 0 -23 -11 -38 -25
-15 -14 -29 -23 -31 -21 -3 2 3 28 11 57 20 67 20 69 -4 69 -13 0 -17 -5 -14
-14z"/>
<path d="M5748 3372 c9 -6 10 -16 2 -39 -9 -24 -16 -29 -33 -26 -26 5 -74 -37
-83 -73 -14 -54 19 -82 57 -48 17 16 19 16 19 1 0 -21 23 -22 40 -2 11 13 10
14 -3 9 -14 -5 -14 3 4 63 35 119 35 123 8 123 -16 0 -20 -3 -11 -8z m-20 -95
c5 -26 -37 -87 -59 -87 -21 0 -25 21 -8 53 28 54 60 70 67 34z"/>
<path d="M9645 3370 c4 -6 4 -24 0 -41 -5 -24 -11 -29 -26 -24 -43 14 -109
-68 -94 -116 8 -24 42 -25 67 -2 18 16 18 16 12 0 -4 -13 -1 -17 14 -17 23 0
39 16 22 22 -6 2 -1 36 15 88 30 103 30 100 4 100 -11 0 -17 -5 -14 -10z m-17
-91 c4 -21 -40 -83 -61 -87 -22 -4 -23 28 -2 68 21 40 57 51 63 19z"/>
<path d="M8916 3321 c-11 -12 -14 -21 -8 -21 8 0 12 -21 12 -60 0 -66 17 -87
47 -57 14 14 14 15 -3 14 -16 -2 -20 6 -22 46 -3 41 0 48 20 56 23 10 23 10 1
10 -12 1 -23 8 -25 17 -3 14 -6 13 -22 -5z"/>
<path d="M1710 3295 c0 -33 -2 -35 -35 -35 -19 0 -35 -4 -35 -10 0 -5 16 -10
35 -10 33 0 35 -2 35 -35 0 -19 5 -35 10 -35 6 0 10 16 10 35 0 33 2 35 36 35
21 0 33 4 29 10 -3 6 -19 10 -36 10 -27 0 -29 3 -29 35 0 19 -4 35 -10 35 -5
0 -10 -16 -10 -35z"/>
<path d="M6930 3295 c0 -32 -2 -35 -29 -35 -17 0 -33 -4 -36 -10 -4 -6 8 -10
29 -10 34 0 36 -2 36 -35 0 -19 5 -35 10 -35 6 0 10 16 10 35 0 33 2 35 35 35
19 0 35 5 35 10 0 6 -16 10 -35 10 -33 0 -35 2 -35 35 0 19 -4 35 -10 35 -5 0
-10 -16 -10 -35z"/>
<path d="M11230 3295 c0 -32 -2 -35 -29 -35 -17 0 -33 -4 -36 -10 -4 -6 8 -10
29 -10 34 0 36 -2 36 -35 0 -19 5 -35 10 -35 6 0 10 16 10 35 0 33 2 35 35 35
19 0 35 5 35 10 0 6 -16 10 -35 10 -33 0 -35 2 -35 35 0 19 -4 35 -10 35 -5 0
-10 -16 -10 -35z"/>
<path d="M1470 3300 c-10 -7 -11 -10 -2 -10 7 0 17 -11 24 -25 9 -19 8 -29 -6
-50 -9 -14 -25 -25 -36 -25 -11 0 -20 -4 -20 -10 0 -18 39 -10 50 10 14 26 26
25 33 -1 6 -22 37 -23 45 -1 2 7 -2 10 -11 6 -10 -3 -16 4 -21 27 -7 36 7 59
35 59 21 0 25 15 7 26 -6 4 -19 -2 -29 -14 -21 -27 -25 -27 -32 -2 -6 22 -15
25 -37 10z"/>
<path d="M1902 3285 c-35 -29 -50 -78 -32 -100 19 -22 64 -18 86 7 14 17 15
19 2 10 -52 -41 -92 25 -44 73 28 28 59 34 50 10 -6 -15 7 -21 19 -8 10 10
-13 33 -33 33 -10 0 -32 -11 -48 -25z"/>
<path d="M5009 3292 c-48 -40 -13 -133 45 -118 14 3 30 16 36 27 11 20 11 20
-12 5 -22 -14 -26 -14 -47 0 -16 12 -21 24 -19 46 4 39 34 61 49 36 11 -19 39
-25 39 -8 0 11 -33 30 -53 30 -8 0 -25 -8 -38 -18z"/>
<path d="M5145 3285 c-30 -29 -32 -64 -5 -93 43 -46 110 -13 110 52 0 62 -61
86 -105 41z m63 3 c7 -7 12 -31 12 -55 0 -53 -23 -68 -52 -34 -30 38 -19 101
17 101 6 0 16 -5 23 -12z"/>
<path d="M5293 3303 c-27 -10 -14 -53 22 -75 20 -11 34 -26 32 -32 -6 -19 -40
-19 -54 0 -12 17 -13 16 -13 -4 0 -18 6 -22 33 -22 62 0 78 49 25 76 -36 18
-49 33 -42 46 9 14 43 8 53 -9 10 -17 10 -16 11 2 0 16 -7 21 -27 22 -16 1
-34 -1 -40 -4z"/>
<path d="M5439 3293 c-12 -14 -12 -16 0 -8 11 6 13 2 8 -23 -4 -18 -10 -45
-13 -62 -5 -25 -3 -30 12 -30 10 0 28 10 41 22 l23 21 0 -21 c0 -26 22 -29 41
-4 13 15 12 16 -3 3 -20 -15 -23 -5 -9 31 29 80 16 109 -17 36 -19 -45 -48
-75 -59 -64 -3 3 -1 23 5 45 7 21 12 46 12 55 0 21 -24 21 -41 -1z"/>
<path d="M5799 3293 c-12 -14 -12 -16 0 -8 11 6 13 3 8 -16 -4 -13 -10 -41
-13 -61 -6 -33 -4 -38 13 -38 11 0 28 10 39 21 19 22 19 22 -3 8 -31 -19 -34
-10 -18 45 19 63 5 88 -26 49z"/>
<path d="M6273 3303 c-27 -10 -14 -53 22 -75 20 -11 34 -26 32 -32 -6 -19 -40
-19 -54 0 -12 17 -13 16 -13 -4 0 -18 6 -22 33 -22 62 0 78 49 25 76 -36 18
-49 33 -42 46 9 14 43 8 53 -9 10 -17 10 -16 11 2 0 16 -7 21 -27 22 -16 1
-34 -1 -40 -4z"/>
<path d="M6395 3304 c-6 -2 -8 -29 -6 -60 2 -40 -1 -59 -10 -65 -9 -6 0 -8 26
-8 22 0 34 3 28 6 -9 3 -13 27 -13 69 0 61 -3 68 -25 58z"/>
<path d="M6466 3300 c-14 -4 -16 -9 -8 -14 16 -10 16 -103 0 -109 -7 -3 3 -6
22 -6 26 -1 31 2 22 11 -17 17 -15 83 3 98 8 7 22 10 30 6 19 -7 21 -102 3
-109 -7 -3 1 -6 18 -6 l30 -1 -7 59 c-3 32 -10 64 -13 70 -9 15 -39 14 -54 -1
-9 -9 -15 -10 -20 -2 -4 6 -16 8 -26 4z"/>
<path d="M6671 3301 c-8 -5 -9 -10 -3 -12 7 -3 6 -21 -3 -54 -7 -27 -9 -54 -5
-58 13 -15 42 -3 58 23 l16 25 -28 -25 -29 -25 7 30 c22 100 20 116 -13 96z"/>
<path d="M7119 3281 c-25 -25 -30 -37 -27 -68 2 -31 7 -39 27 -41 27 -4 71 16
71 32 0 6 -5 5 -12 -2 -17 -17 -58 -15 -64 3 -8 21 15 74 37 85 26 15 42 12
35 -5 -3 -9 0 -15 10 -15 28 0 11 35 -19 38 -20 2 -36 -5 -58 -27z"/>
<path d="M9012 3298 c-14 -14 -16 -38 -3 -38 5 0 11 9 14 20 3 11 12 20 20 20
16 0 34 -33 20 -37 -27 -10 -73 -45 -73 -57 0 -25 28 -40 55 -28 17 8 25 8 27
0 3 -7 11 -9 24 -4 12 6 15 10 7 13 -8 3 -13 24 -13 58 0 39 -4 54 -16 59 -25
9 -49 7 -62 -6z m56 -75 c-4 -35 -48 -48 -48 -14 0 18 23 40 43 41 5 0 7 -12
5 -27z"/>
<path d="M9135 3300 c-11 -5 -14 -9 -7 -9 8 -1 12 -19 12 -55 0 -34 -5 -56
-12 -59 -7 -3 5 -5 27 -5 22 0 34 2 28 5 -20 7 -17 99 3 107 9 3 20 4 25 0 14
-8 11 -102 -3 -107 -7 -3 5 -5 27 -5 22 0 34 2 28 5 -8 3 -13 25 -13 58 0 63
-17 84 -55 67 -15 -7 -25 -8 -25 -2 0 12 -8 12 -35 0z"/>
<path d="M9339 3293 c-12 -14 -12 -16 0 -8 11 6 13 3 8 -16 -4 -13 -10 -41
-13 -61 -6 -33 -4 -38 13 -38 11 0 28 10 39 21 19 22 19 22 -3 8 -31 -19 -34
-10 -18 45 19 63 5 88 -26 49z"/>
<path d="M9701 3301 c-8 -5 -9 -10 -3 -12 7 -3 6 -21 -3 -54 -7 -27 -9 -54 -5
-58 13 -15 42 -3 58 23 l16 25 -28 -25 -29 -25 7 30 c22 100 20 116 -13 96z"/>
<path d="M10246 3300 c-14 -4 -16 -9 -8 -14 16 -10 16 -103 0 -109 -7 -3 3 -6
22 -6 26 -1 31 2 22 11 -17 17 -15 83 3 98 8 7 22 10 30 6 19 -7 21 -102 3
-109 -7 -3 1 -6 18 -6 l30 -1 -7 59 c-3 32 -10 64 -13 70 -9 15 -39 14 -54 -1
-9 -9 -15 -10 -20 -2 -4 6 -16 8 -26 4z"/>
<path d="M10491 3296 c-18 -22 -5 -52 29 -66 18 -8 30 -20 30 -31 0 -24 -27
-25 -52 -2 -17 15 -18 15 -18 -5 0 -18 6 -22 34 -22 36 0 70 24 63 44 -2 6
-19 21 -38 34 -19 13 -35 27 -37 33 -7 18 29 21 48 4 19 -17 20 -17 20 1 0 15
-8 20 -34 22 -19 2 -38 -4 -45 -12z"/>
<path d="M10620 3290 c-26 -26 -26 -81 -2 -103 23 -21 56 -22 76 -1 22 21 20
27 -4 14 -31 -17 -70 12 -70 51 0 5 20 9 45 9 49 0 62 20 26 40 -29 15 -49 12
-71 -10z m58 -7 c2 -9 -7 -13 -28 -13 -28 0 -31 2 -20 15 15 18 41 16 48 -2z"/>
<path d="M10759 3292 c-48 -40 -13 -133 45 -118 14 3 30 16 36 27 11 20 11 20
-12 5 -22 -14 -26 -14 -47 0 -16 12 -21 24 -19 46 4 39 34 61 49 36 11 -19 39
-25 39 -8 0 11 -33 30 -53 30 -8 0 -25 -8 -38 -18z"/>
<path d="M10921 3301 c-8 -5 -9 -10 -3 -12 7 -3 6 -21 -3 -54 -7 -27 -9 -54
-5 -58 13 -15 42 -3 58 23 l16 25 -28 -25 -29 -25 7 30 c22 100 20 116 -13 96z"/>
<path d="M11422 3285 c-35 -29 -50 -78 -32 -100 19 -22 64 -18 86 7 14 17 15
19 2 10 -52 -41 -92 25 -44 73 28 28 59 34 50 10 -6 -15 7 -21 19 -8 10 10
-13 33 -33 33 -10 0 -32 -11 -48 -25z"/>
<path d="M5880 3263 c-21 -60 -21 -93 1 -93 10 0 21 5 25 12 4 7 3 8 -4 4 -16
-9 -15 9 3 67 18 59 -3 68 -25 10z"/>
<path d="M6750 3268 c-20 -57 -24 -98 -7 -98 8 0 21 8 28 17 12 14 12 16 0 8
-14 -8 -14 6 5 79 9 38 -12 33 -26 -6z"/>
<path d="M9420 3263 c-21 -60 -21 -93 1 -93 10 0 21 5 25 12 4 7 3 8 -4 4 -16
-9 -15 9 3 67 18 59 -3 68 -25 10z"/>
<path d="M9780 3268 c-20 -57 -24 -98 -7 -98 8 0 21 8 28 17 12 14 12 16 0 8
-14 -8 -14 6 5 79 9 38 -12 33 -26 -6z"/>
<path d="M11000 3268 c-20 -57 -24 -98 -7 -98 8 0 21 8 28 17 12 14 12 16 0 8
-14 -8 -14 6 5 79 9 38 -12 33 -26 -6z"/>
<path d="M995 3280 c-4 -6 23 -10 75 -10 52 0 79 4 75 10 -3 6 -37 10 -75 10
-38 0 -72 -4 -75 -10z"/>
<path d="M6020 3280 c0 -6 32 -10 75 -10 43 0 75 4 75 10 0 6 -32 10 -75 10
-43 0 -75 -4 -75 -10z"/>
<path d="M9915 3280 c-4 -6 23 -10 75 -10 52 0 79 4 75 10 -3 6 -37 10 -75 10
-38 0 -72 -4 -75 -10z"/>
<path d="M990 3220 c0 -6 33 -10 80 -10 47 0 80 4 80 10 0 6 -33 10 -80 10
-47 0 -80 -4 -80 -10z"/>
<path d="M6020 3220 c0 -6 32 -10 75 -10 43 0 75 4 75 10 0 6 -32 10 -75 10
-43 0 -75 -4 -75 -10z"/>
<path d="M9910 3220 c0 -6 33 -10 80 -10 47 0 80 4 80 10 0 6 -33 10 -80 10
-47 0 -80 -4 -80 -10z"/>
<path d="M313 2894 c-16 -25 -18 -51 -18 -216 l1 -187 -23 5 c-19 5 -23 2 -23
-15 0 -16 6 -21 25 -21 44 0 50 28 49 232 -1 184 0 187 20 185 15 -1 21 4 21
18 0 31 -31 30 -52 -1z"/>
<path d="M4876 2905 c-22 -23 -29 -90 -24 -260 l4 -153 -26 1 c-31 2 -35 -27
-3 -31 45 -6 53 29 54 216 0 94 -2 176 -3 184 -2 8 5 12 20 11 26 -3 42 25 21
38 -19 12 -25 11 -43 -6z"/>
<path d="M8783 2894 c-16 -25 -18 -51 -18 -216 l1 -187 -23 5 c-19 5 -23 2
-23 -15 0 -16 6 -21 25 -21 44 0 50 28 49 232 -1 184 0 187 20 185 15 -1 21 4
21 18 0 31 -31 30 -52 -1z"/>
<path d="M10434 2685 c0 -104 2 -146 3 -92 2 54 2 139 0 190 -1 51 -3 7 -3
-98z"/>
<path d="M11930 2685 c0 -117 4 -185 10 -185 6 0 10 68 10 185 0 117 -4 185
-10 185 -6 0 -10 -68 -10 -185z"/>
<path d="M1540 2795 c0 -45 4 -65 13 -65 9 0 11 18 9 65 -5 84 -22 84 -22 0z"/>
<path d="M2195 2795 c0 -30 5 -55 10 -55 6 0 9 23 7 55 -5 71 -17 71 -17 0z"/>
<path d="M613 2810 c-19 -48 -24 -70 -16 -70 4 0 15 15 23 32 21 45 42 49 29
6 -11 -40 -11 -38 0 -38 11 0 26 78 17 87 -3 3 -12 1 -20 -6 -11 -9 -15 -9
-19 1 -3 8 -8 3 -14 -12z"/>
<path d="M1983 2810 c-19 -48 -24 -70 -16 -70 4 0 15 15 23 32 21 45 42 49 29
6 -11 -40 -11 -38 0 -38 11 0 26 78 17 87 -3 3 -12 1 -20 -6 -11 -9 -15 -9
-19 1 -3 8 -8 3 -14 -12z"/>
<path d="M5126 2823 c-11 -11 -6 -23 9 -23 8 0 15 4 15 9 0 13 -16 22 -24 14z"/>
<path d="M889 2811 c24 -15 0 -64 -32 -65 -41 -2 -79 -46 -81 -92 -1 -45 23
-57 55 -28 17 16 19 16 19 1 0 -22 24 -22 41 0 12 14 12 16 0 8 -16 -10 -14
10 18 118 l20 67 -27 0 c-19 0 -23 -3 -13 -9z m-19 -97 c0 -31 -35 -84 -56
-84 -21 0 -17 53 7 84 27 34 49 34 49 0z"/>
<path d="M2111 2808 c0 -9 -11 -19 -23 -21 -23 -4 -23 -4 -1 -6 14 -1 23 -9
26 -23 4 -23 4 -23 6 -1 0 12 9 24 19 26 15 4 15 5 0 6 -9 0 -19 9 -21 19 -4
15 -5 15 -6 0z"/>
<path d="M3484 2805 c-11 -8 -14 -15 -6 -15 8 0 12 -24 12 -84 0 -58 -4 -86
-12 -89 -7 -3 5 -5 27 -5 22 0 34 2 28 5 -9 3 -13 34 -13 104 0 54 -4 99 -8
99 -5 0 -17 -7 -28 -15z"/>
<path d="M5705 2810 c4 -6 4 -24 0 -41 -5 -24 -11 -29 -26 -24 -43 14 -109
-68 -94 -116 8 -24 42 -25 67 -2 18 16 18 16 12 0 -4 -13 -1 -17 14 -17 23 0
39 16 22 22 -6 2 -1 36 15 88 30 103 30 100 4 100 -11 0 -17 -5 -14 -10z m-17
-91 c4 -21 -40 -83 -61 -87 -22 -4 -23 28 -2 68 21 40 57 51 63 19z"/>
<path d="M9638 2812 c9 -6 10 -16 2 -39 -9 -24 -16 -29 -33 -26 -26 5 -74 -37
-83 -73 -14 -54 19 -82 57 -48 17 16 19 16 19 1 0 -21 23 -22 40 -2 11 13 10
14 -3 9 -14 -5 -14 3 4 63 35 119 35 123 8 123 -16 0 -20 -3 -11 -8z m-20 -95
c5 -26 -37 -87 -59 -87 -21 0 -25 21 -8 53 28 54 60 70 67 34z"/>
<path d="M10155 2715 l0 -105 30 1 c17 0 24 3 18 6 -9 3 -13 34 -13 104 0 88
-2 99 -17 99 -16 0 -18 -12 -18 -105z"/>
<path d="M11353 2765 c-12 -14 -17 -25 -12 -25 5 0 9 -27 9 -59 0 -33 5 -63
10 -66 13 -8 50 3 50 15 0 5 -7 7 -15 4 -12 -5 -15 4 -15 49 0 44 3 56 18 60
15 4 15 5 0 6 -9 0 -18 10 -20 21 -3 18 -4 18 -25 -5z"/>
<path d="M2390 2735 c0 -32 -2 -35 -29 -35 -17 0 -33 -4 -36 -10 -4 -6 8 -10
29 -10 34 0 36 -2 36 -35 0 -19 5 -35 10 -35 6 0 10 16 10 35 0 33 2 35 35 35
19 0 35 5 35 10 0 6 -16 10 -35 10 -33 0 -35 2 -35 35 0 19 -4 35 -10 35 -5 0
-10 -16 -10 -35z"/>
<path d="M3128 2750 c-10 -15 -24 -20 -55 -20 -23 0 -45 -4 -48 -10 -4 -6 10
-10 35 -10 34 0 41 -3 36 -16 -3 -9 -6 -18 -6 -20 0 -2 -16 -4 -35 -4 -19 0
-35 -4 -35 -10 0 -5 11 -10 25 -10 23 0 24 -2 15 -20 -6 -11 -7 -20 -3 -20 5
0 14 9 21 20 9 15 23 20 57 20 25 0 45 5 45 10 0 6 -18 10 -40 10 -37 0 -40 2
-30 19 6 12 24 21 43 24 29 4 30 5 9 12 -16 5 -21 13 -17 26 8 25 -2 24 -17
-1z"/>
<path d="M7152 2738 c-2 -36 -4 -38 -37 -38 -19 0 -35 -4 -35 -10 0 -5 15 -10
34 -10 33 0 35 -2 39 -37 l4 -38 1 38 c2 35 4 37 37 37 19 0 35 5 35 10 0 6
-15 10 -34 10 -33 0 -35 2 -39 38 l-4 37 -1 -37z"/>
<path d="M11170 2735 c0 -32 -2 -35 -29 -35 -17 0 -33 -4 -36 -10 -4 -6 8 -10
29 -10 34 0 36 -2 36 -35 0 -19 5 -35 10 -35 6 0 10 16 10 35 0 33 2 35 35 35
19 0 35 5 35 10 0 6 -16 10 -35 10 -33 0 -35 2 -35 35 0 19 -4 35 -10 35 -5 0
-10 -16 -10 -35z"/>
<path d="M12092 2738 c-2 -36 -4 -38 -37 -38 -19 0 -35 -4 -35 -10 0 -5 15
-10 34 -10 33 0 35 -2 39 -37 l4 -38 1 38 c2 35 4 37 37 37 19 0 35 5 35 10 0
6 -15 10 -34 10 -33 0 -35 2 -39 38 l-4 37 -1 -37z"/>
<path d="M460 2740 c-10 -7 -11 -10 -2 -10 7 0 17 -11 24 -25 9 -19 8 -29 -6
-50 -9 -14 -25 -25 -36 -25 -11 0 -20 -4 -20 -10 0 -18 39 -10 50 10 14 26 26
25 33 -1 6 -22 37 -23 45 -1 2 7 -2 10 -11 6 -10 -3 -16 4 -21 27 -7 36 7 59
35 59 21 0 25 15 7 26 -6 4 -19 -2 -29 -14 -21 -27 -25 -27 -32 -2 -6 22 -15
25 -37 10z"/>
<path d="M942 2743 c-10 -4 -8 -9 7 -20 35 -24 18 -93 -23 -93 -9 0 -16 -4
-16 -10 0 -20 29 -10 48 17 l19 26 7 -26 c7 -29 27 -35 45 -13 9 11 8 14 -5
12 -21 -1 -35 41 -22 67 5 9 18 17 28 17 11 0 20 7 20 15 0 21 -16 19 -39 -6
l-19 -21 -11 21 c-12 22 -16 23 -39 14z"/>
<path d="M1830 2740 c-10 -7 -11 -10 -2 -10 7 0 17 -11 24 -25 9 -19 8 -29 -6
-50 -9 -14 -25 -25 -36 -25 -11 0 -20 -4 -20 -10 0 -18 39 -10 50 10 14 26 26
25 33 -1 6 -22 37 -23 45 -1 2 7 -2 10 -11 6 -10 -3 -16 4 -21 27 -7 36 7 59
35 59 21 0 25 15 7 26 -6 4 -19 -2 -29 -14 -21 -27 -25 -27 -32 -2 -6 22 -15
25 -37 10z"/>
<path d="M2579 2721 c-25 -25 -30 -37 -27 -68 2 -31 7 -39 27 -41 27 -4 71 16
71 32 0 6 -5 5 -12 -2 -17 -17 -58 -15 -64 3 -8 21 15 74 37 85 26 15 42 12
35 -5 -3 -9 0 -15 10 -15 28 0 11 35 -19 38 -20 2 -36 -5 -58 -27z"/>
<path d="M2832 2743 c-6 -2 -10 -9 -7 -14 3 -5 -1 -32 -10 -61 -18 -61 -18
-58 -5 -58 5 0 17 17 25 37 18 42 54 85 65 78 5 -3 2 -26 -6 -52 -8 -25 -14
-50 -14 -55 0 -14 27 -9 41 9 12 14 12 15 0 9 -10 -7 -12 -2 -5 25 19 84 2
110 -42 62 l-26 -28 7 28 c7 26 3 30 -23 20z"/>
<path d="M5003 2743 c-27 -10 -14 -53 22 -75 20 -11 34 -26 32 -32 -6 -19 -40
-19 -54 0 -12 17 -13 16 -13 -4 0 -18 6 -22 33 -22 62 0 78 49 25 76 -36 18
-49 33 -42 46 9 14 43 8 53 -9 10 -17 10 -16 11 2 0 16 -7 21 -27 22 -16 1
-34 -1 -40 -4z"/>
<path d="M5125 2744 c-6 -2 -8 -29 -6 -60 2 -40 -1 -59 -10 -65 -9 -6 0 -8 26
-8 22 0 34 3 28 6 -9 3 -13 27 -13 69 0 61 -3 68 -25 58z"/>
<path d="M5196 2740 c-14 -4 -16 -9 -8 -14 16 -10 16 -103 0 -109 -7 -3 3 -6
22 -6 26 -1 31 2 22 11 -17 17 -15 83 3 98 8 7 22 10 30 6 19 -7 21 -102 3
-109 -7 -3 1 -6 18 -6 l30 -1 -7 59 c-3 32 -10 64 -13 70 -9 15 -39 14 -54 -1
-9 -9 -15 -10 -20 -2 -4 6 -16 8 -26 4z"/>
<path d="M5399 2733 c-12 -14 -12 -16 0 -8 11 6 13 3 8 -16 -4 -13 -10 -41
-13 -61 -6 -33 -4 -38 13 -38 11 0 28 10 39 21 19 22 19 22 -3 8 -31 -19 -34
-10 -18 45 19 63 5 88 -26 49z"/>
<path d="M5761 2741 c-8 -5 -9 -10 -3 -12 7 -3 6 -21 -3 -54 -7 -27 -9 -54 -5
-58 13 -15 42 -3 58 23 l16 25 -28 -25 -29 -25 7 30 c22 100 20 116 -13 96z"/>
<path d="M6442 2727 c-27 -29 -28 -71 -2 -97 24 -24 53 -26 74 -4 22 22 20 25
-9 14 -18 -7 -28 -5 -40 6 -20 20 -19 68 1 85 14 11 18 11 29 -4 13 -17 35
-23 35 -9 0 15 -24 32 -45 32 -12 0 -31 -10 -43 -23z"/>
<path d="M6580 2730 c-41 -41 -12 -120 45 -120 14 0 34 9 45 20 41 41 12 120
-45 120 -14 0 -34 -9 -45 -20z m65 -6 c21 -22 16 -83 -8 -98 -15 -9 -21 -7
-33 8 -17 24 -19 92 -1 99 20 9 25 8 42 -9z"/>
<path d="M6733 2743 c-27 -10 -14 -53 22 -75 20 -11 34 -26 32 -32 -6 -19 -40
-19 -54 0 -12 17 -13 16 -13 -4 0 -18 6 -22 33 -22 62 0 78 49 25 76 -36 18
-49 33 -42 46 9 14 43 8 53 -9 10 -17 10 -16 11 2 0 16 -7 21 -27 22 -16 1
-34 -1 -40 -4z"/>
<path d="M6879 2733 c-12 -14 -12 -16 0 -8 11 6 13 3 8 -16 -4 -13 -10 -41
-13 -61 -6 -33 -4 -38 13 -38 11 0 28 10 39 21 19 22 19 22 -3 8 -31 -19 -34
-10 -18 45 19 63 5 88 -26 49z"/>
<path d="M7329 2721 c-25 -25 -30 -37 -27 -68 2 -31 7 -39 27 -41 27 -4 71 16
71 32 0 6 -5 5 -12 -2 -17 -17 -58 -15 -64 3 -8 21 15 74 37 85 26 15 42 12
35 -5 -3 -9 0 -15 10 -15 28 0 11 35 -19 38 -20 2 -36 -5 -58 -27z"/>
<path d="M8912 2738 c-21 -21 -13 -46 23 -67 19 -11 35 -25 35 -31 0 -20 -31
-23 -50 -5 -19 17 -20 17 -20 -3 0 -18 6 -22 33 -22 64 0 78 49 22 81 -19 12
-35 27 -35 35 0 20 37 17 49 -3 10 -17 10 -16 11 2 0 16 -7 21 -28 23 -15 1
-33 -3 -40 -10z"/>
<path d="M9041 2732 c-44 -35 -19 -122 34 -122 12 0 29 8 38 18 24 26 21 35
-6 17 -21 -13 -25 -13 -45 1 -12 8 -22 24 -22 35 0 16 7 19 45 19 49 0 62 20
26 40 -28 14 -46 13 -70 -8z m49 -7 c11 -13 8 -15 -20 -15 -28 0 -31 2 -20 15
7 8 16 15 20 15 4 0 13 -7 20 -15z"/>
<path d="M9169 2732 c-48 -40 -13 -133 45 -118 14 3 30 16 36 27 11 20 11 20
-12 5 -22 -14 -26 -14 -47 0 -16 12 -21 24 -19 46 4 39 34 61 49 36 11 -19 39
-25 39 -8 0 11 -33 30 -53 30 -8 0 -25 -8 -38 -18z"/>
<path d="M9329 2733 c-12 -14 -12 -16 0 -8 11 6 13 3 8 -16 -4 -13 -10 -41
-13 -61 -6 -33 -4 -38 13 -38 11 0 28 10 39 21 19 22 19 22 -3 8 -31 -19 -34
-10 -18 45 19 63 5 88 -26 49z"/>
<path d="M9691 2741 c-8 -5 -9 -10 -3 -12 7 -3 6 -21 -3 -54 -7 -27 -9 -54 -5
-58 13 -15 42 -3 58 23 l16 25 -28 -25 -29 -25 7 30 c22 100 20 116 -13 96z"/>
<path d="M10236 2740 c-14 -4 -16 -9 -8 -14 16 -10 16 -103 0 -109 -7 -3 3 -6
22 -6 26 -1 31 2 22 11 -17 17 -15 83 3 98 8 7 22 10 30 6 19 -7 21 -102 3
-109 -7 -3 1 -6 18 -6 l30 -1 -7 59 c-3 32 -10 64 -13 70 -9 15 -39 14 -54 -1
-9 -9 -15 -10 -20 -2 -4 6 -16 8 -26 4z"/>
<path d="M10493 2743 c-27 -10 -14 -53 22 -75 20 -11 34 -26 32 -32 -6 -19
-40 -19 -54 0 -12 17 -13 16 -13 -4 0 -18 6 -22 33 -22 62 0 78 49 25 76 -36
18 -49 33 -42 46 9 14 43 8 53 -9 10 -17 10 -16 11 2 0 16 -7 21 -27 22 -16 1
-34 -1 -40 -4z"/>
<path d="M10610 2730 c-26 -26 -26 -81 -2 -103 23 -21 56 -22 76 -1 22 21 20
27 -4 14 -31 -17 -70 12 -70 51 0 5 20 9 45 9 49 0 62 20 26 40 -29 15 -49 12
-71 -10z m58 -7 c2 -9 -7 -13 -28 -13 -28 0 -31 2 -20 15 15 18 41 16 48 -2z"/>
<path d="M10749 2732 c-48 -40 -13 -133 45 -118 14 3 30 16 36 27 11 20 11 20
-12 5 -22 -14 -26 -14 -47 0 -16 12 -21 24 -19 46 4 39 34 61 49 36 11 -19 39
-25 39 -8 0 11 -33 30 -53 30 -8 0 -25 -8 -38 -18z"/>
<path d="M10909 2733 c-12 -14 -12 -16 0 -8 11 6 13 3 8 -16 -4 -13 -10 -41
-13 -61 -6 -33 -4 -38 13 -38 11 0 28 10 39 21 19 22 19 22 -3 8 -31 -19 -34
-10 -18 45 19 63 5 88 -26 49z"/>
<path d="M11448 2739 c-20 -11 -24 -39 -7 -39 6 0 13 9 16 20 6 24 36 23 41
-1 2 -10 -9 -21 -28 -29 -37 -15 -52 -39 -39 -63 11 -19 44 -23 54 -7 5 8 11
7 21 -1 12 -10 18 -9 32 6 9 10 11 15 5 11 -10 -5 -13 5 -13 41 0 27 -5 54
-12 61 -15 15 -47 15 -70 1z m52 -74 c0 -29 -25 -44 -43 -26 -9 10 -7 17 12
32 30 24 31 24 31 -6z"/>
<path d="M11575 2742 c-5 -4 -10 -35 -10 -70 l0 -62 30 0 c20 0 26 3 17 9 -20
12 -12 91 11 105 14 8 20 8 27 -4 14 -21 12 -84 -2 -98 -9 -9 -4 -12 23 -11
18 0 28 3 22 6 -8 3 -13 25 -13 58 0 63 -17 84 -55 67 -15 -7 -25 -8 -25 -2 0
12 -11 13 -25 2z"/>
<path d="M11769 2733 c-12 -14 -12 -16 0 -8 11 6 13 3 8 -16 -4 -13 -10 -41
-13 -61 -6 -33 -4 -38 13 -38 11 0 28 10 39 21 19 22 19 22 -3 8 -31 -19 -34
-10 -18 45 19 63 5 88 -26 49z"/>
<path d="M12269 2721 c-25 -25 -30 -37 -27 -68 2 -31 7 -39 27 -41 27 -4 71
16 71 32 0 6 -5 5 -12 -2 -17 -17 -58 -15 -64 3 -8 21 15 74 37 85 26 15 42
12 35 -5 -3 -9 0 -15 10 -15 28 0 11 35 -19 38 -20 2 -36 -5 -58 -27z"/>
<path d="M5480 2703 c-21 -60 -21 -93 1 -93 10 0 21 5 25 12 4 7 3 8 -4 4 -16
-9 -15 9 3 67 18 59 -3 68 -25 10z"/>
<path d="M5840 2708 c-20 -57 -24 -98 -7 -98 8 0 21 8 28 17 12 14 12 16 0 8
-14 -8 -14 6 5 79 9 38 -12 33 -26 -6z"/>
<path d="M6960 2703 c-21 -60 -21 -93 1 -93 10 0 21 5 25 12 4 7 3 8 -4 4 -16
-9 -15 9 3 67 18 59 -3 68 -25 10z"/>
<path d="M9410 2703 c-21 -60 -21 -93 1 -93 10 0 21 5 25 12 4 7 3 8 -4 4 -16
-9 -15 9 3 67 18 59 -3 68 -25 10z"/>
<path d="M9770 2708 c-20 -57 -24 -98 -7 -98 8 0 21 8 28 17 12 14 12 16 0 8
-14 -8 -14 6 5 79 9 38 -12 33 -26 -6z"/>
<path d="M10990 2703 c-21 -60 -21 -93 1 -93 10 0 21 5 25 12 4 7 3 8 -4 4
-16 -9 -15 9 3 67 18 59 -3 68 -25 10z"/>
<path d="M11850 2703 c-21 -60 -21 -93 1 -93 10 0 21 5 25 12 4 7 3 8 -4 4
-16 -9 -15 9 3 67 18 59 -3 68 -25 10z"/>
<path d="M1135 2720 c-4 -6 23 -10 75 -10 52 0 79 4 75 10 -3 6 -37 10 -75 10
-38 0 -72 -4 -75 -10z"/>
<path d="M5975 2720 c-4 -6 23 -10 75 -10 52 0 79 4 75 10 -3 6 -37 10 -75 10
-38 0 -72 -4 -75 -10z"/>
<path d="M9910 2720 c0 -6 32 -10 75 -10 43 0 75 4 75 10 0 6 -32 10 -75 10
-43 0 -75 -4 -75 -10z"/>
<path d="M3270 2690 c0 -6 32 -10 75 -10 43 0 75 4 75 10 0 6 -32 10 -75 10
-43 0 -75 -4 -75 -10z"/>
<path d="M6215 2690 c-4 -6 23 -10 74 -10 47 0 81 4 81 10 0 6 -31 10 -74 10
-41 0 -78 -4 -81 -10z"/>
<path d="M1463 2683 c54 -2 139 -2 190 0 51 1 7 3 -98 3 -104 0 -146 -2 -92
-3z"/>
<path d="M1130 2660 c0 -6 33 -10 80 -10 47 0 80 4 80 10 0 6 -33 10 -80 10
-47 0 -80 -4 -80 -10z"/>
<path d="M5970 2660 c0 -6 33 -10 80 -10 47 0 80 4 80 10 0 6 -33 10 -80 10
-47 0 -80 -4 -80 -10z"/>
<path d="M9910 2660 c0 -6 32 -10 75 -10 43 0 75 4 75 10 0 6 -32 10 -75 10
-43 0 -75 -4 -75 -10z"/>
<path d="M2690 2625 c0 -8 7 -15 15 -15 20 0 19 -9 -2 -32 -16 -18 -16 -18 1
-12 20 8 36 42 29 62 -7 17 -43 15 -43 -3z"/>
<path d="M1672 2623 c-10 -4 -10 -8 -1 -19 6 -8 9 -37 7 -69 -2 -44 0 -55 12
-55 12 0 14 13 12 67 -4 71 -9 84 -30 76z"/>
<path d="M1571 2568 c-1 -21 -7 -28 -28 -31 l-28 -4 27 -2 c21 -1 28 -7 31
-28 l4 -28 2 27 c1 21 7 28 29 31 l27 4 -27 2 c-21 1 -28 7 -31 29 l-4 27 -2
-27z"/>
<path d="M1416 2553 c-3 -16 -8 -38 -12 -50 -4 -13 -2 -23 4 -23 5 0 13 10 16
23 14 45 17 77 8 77 -5 0 -12 -12 -16 -27z"/>
<path d="M1460 2570 c-10 -7 -11 -10 -2 -10 9 0 10 -11 6 -40 -4 -23 -3 -40 3
-40 5 0 10 6 10 13 0 6 4 29 8 50 7 38 2 44 -25 27z"/>
<path d="M313 2334 c-16 -25 -18 -51 -18 -216 l1 -187 -23 5 c-19 5 -23 2 -23
-15 0 -16 6 -21 25 -21 44 0 50 28 49 232 -1 184 0 187 20 185 15 -1 21 4 21
18 0 31 -31 30 -52 -1z"/>
<path d="M1514 2346 c-18 -13 -19 -28 -19 -215 l0 -201 -25 3 c-31 3 -35 -27
-4 -31 44 -6 49 18 49 225 0 166 2 193 15 191 26 -4 43 12 29 28 -14 18 -20
18 -45 0z"/>
<path d="M4876 2345 c-22 -23 -29 -90 -24 -260 l4 -153 -26 1 c-31 2 -35 -27
-3 -31 45 -6 53 29 54 216 0 94 -2 176 -3 184 -2 8 5 12 20 11 26 -3 42 25 21
38 -19 12 -25 11 -43 -6z"/>
<path d="M8783 2334 c-16 -25 -18 -51 -18 -216 l1 -187 -23 5 c-19 5 -23 2
-23 -15 0 -16 6 -21 25 -21 44 0 50 28 49 232 -1 184 0 187 20 185 15 -1 21 4
21 18 0 31 -31 30 -52 -1z"/>
<path d="M2717 2303 c-11 -11 -8 -363 3 -363 6 0 10 68 10 185 0 102 -1 185
-3 185 -2 0 -7 -3 -10 -7z"/>
<path d="M2944 2125 c0 -104 2 -146 3 -92 2 54 2 139 0 190 -1 51 -3 7 -3 -98z"/>
<path d="M10995 2245 c0 -30 5 -55 10 -55 6 0 9 23 7 55 -5 71 -17 71 -17 0z"/>
<path d="M11167 2282 c-9 -10 -26 -40 -38 -67 -17 -39 -21 -61 -17 -115 5 -71
39 -149 68 -158 12 -4 12 -1 -2 14 -45 51 -51 239 -10 308 24 40 23 45 -1 18z"/>
<path d="M11438 2275 c45 -62 51 -224 12 -301 -15 -29 -16 -33 -3 -22 32 26
57 100 56 168 0 71 -23 129 -64 165 l-22 20 21 -30z"/>
<path d="M715 2235 c0 -30 5 -55 10 -55 6 0 9 23 7 55 -5 71 -17 71 -17 0z"/>
<path d="M5385 2281 c-4 -7 0 -8 10 -4 23 8 36 -16 23 -41 -10 -19 -10 -20 6
-7 23 19 17 55 -11 59 -11 2 -24 -2 -28 -7z"/>
<path d="M9225 2225 c0 -30 5 -55 10 -55 6 0 9 23 7 55 -5 71 -17 71 -17 0z"/>
<path d="M11269 2278 c0 -2 -2 -24 -5 -50 -4 -38 -1 -48 10 -48 8 0 18 4 21
10 3 6 -1 7 -10 4 -13 -5 -14 -2 -5 21 13 34 13 65 0 65 -5 0 -10 -1 -11 -2z"/>
<path d="M2456 2257 c-13 -10 -15 -16 -8 -21 16 -10 16 -158 0 -174 -9 -9 -4
-12 23 -12 20 0 29 4 22 8 -8 5 -13 44 -15 110 -3 99 -4 102 -22 89z"/>
<path d="M10325 2215 c0 -30 5 -55 10 -55 6 0 9 23 7 55 -5 71 -17 71 -17 0z"/>
<path d="M11322 2245 c-14 -30 -16 -65 -4 -65 5 0 13 20 19 45 11 49 3 60 -15
20z"/>
<path d="M958 2252 c9 -6 10 -16 2 -39 -9 -24 -16 -29 -33 -26 -26 5 -74 -37
-83 -73 -14 -54 19 -82 57 -48 17 16 19 16 19 1 0 -20 21 -22 38 -5 9 9 12 9
12 0 0 -20 38 -14 50 8 14 26 26 25 33 -1 6 -22 37 -23 45 -1 2 7 -2 10 -11 6
-10 -3 -16 4 -21 27 -7 36 7 59 35 59 21 0 25 15 7 26 -6 4 -19 -2 -29 -14
-20 -26 -29 -28 -29 -8 0 19 -14 28 -33 20 -13 -5 -13 -8 4 -25 23 -23 24 -38
4 -66 -11 -16 -25 -22 -49 -21 l-34 1 20 66 c33 116 34 121 7 121 -16 0 -20
-3 -11 -8z m-20 -95 c5 -26 -37 -87 -59 -87 -21 0 -25 21 -8 53 28 54 60 70
67 34z"/>
<path d="M1685 2205 c0 -30 5 -55 10 -55 6 0 9 23 7 55 -5 71 -17 71 -17 0z"/>
<path d="M1948 2252 c9 -6 10 -16 2 -39 -9 -24 -16 -29 -33 -26 -26 5 -74 -37
-83 -73 -14 -54 19 -82 57 -48 17 16 19 16 19 1 0 -20 21 -22 38 -5 9 9 12 9
12 0 0 -20 38 -14 50 8 14 26 26 25 33 -1 6 -22 37 -23 45 -1 2 7 -2 10 -11 6
-10 -3 -16 4 -21 27 -7 36 7 59 35 59 21 0 25 15 7 26 -6 4 -19 -2 -29 -14
-20 -26 -29 -28 -29 -8 0 19 -14 28 -33 20 -13 -5 -13 -8 4 -25 23 -23 24 -38
4 -66 -11 -16 -25 -22 -49 -21 l-34 1 20 66 c33 116 34 121 7 121 -16 0 -20
-3 -11 -8z m-20 -95 c5 -26 -37 -87 -59 -87 -21 0 -25 21 -8 53 28 54 60 70
67 34z"/>
<path d="M5855 2250 c4 -6 4 -24 0 -41 -5 -24 -11 -29 -26 -24 -43 14 -109
-68 -94 -116 8 -24 42 -25 67 -2 18 16 18 16 12 0 -4 -13 -1 -17 14 -17 23 0
39 16 22 22 -6 2 -1 36 15 88 30 103 30 100 4 100 -11 0 -17 -5 -14 -10z m-17
-91 c4 -21 -40 -83 -61 -87 -22 -4 -23 28 -2 68 21 40 57 51 63 19z"/>
<path d="M9749 2251 c24 -15 0 -64 -32 -65 -41 -2 -79 -46 -81 -92 -1 -45 23
-57 55 -28 17 16 19 16 19 1 0 -22 24 -22 41 0 12 14 12 16 0 8 -16 -10 -14
10 18 118 l20 67 -27 0 c-19 0 -23 -3 -13 -9z m-19 -97 c0 -31 -35 -84 -56
-84 -21 0 -17 53 7 84 27 34 49 34 49 0z"/>
<path d="M10888 2233 c12 -2 32 -2 45 0 12 2 2 4 -23 4 -25 0 -35 -2 -22 -4z"/>
<path d="M608 2223 c12 -2 32 -2 45 0 12 2 2 4 -23 4 -25 0 -35 -2 -22 -4z"/>
<path d="M6390 2207 c-11 -16 -14 -37 -10 -79 6 -64 19 -85 47 -73 17 8 17 8
1 12 -14 4 -18 15 -18 58 0 43 4 54 18 58 15 4 15 5 0 6 -9 0 -18 10 -20 20
-3 18 -4 18 -18 -2z"/>
<path d="M10500 2207 c-11 -16 -14 -37 -10 -79 6 -64 19 -85 47 -73 17 8 17 8
1 12 -14 4 -18 15 -18 58 0 43 4 54 18 58 15 4 15 5 0 6 -9 0 -18 10 -20 20
-3 18 -4 18 -18 -2z"/>
<path d="M3090 2175 c0 -32 -2 -35 -29 -35 -17 0 -33 -4 -36 -10 -4 -6 8 -10
29 -10 34 0 36 -2 36 -35 0 -19 5 -35 10 -35 6 0 10 16 10 35 0 33 2 35 35 35
19 0 35 5 35 10 0 6 -16 10 -35 10 -33 0 -35 2 -35 35 0 19 -4 35 -10 35 -5 0
-10 -16 -10 -35z"/>
<path d="M7070 2175 c0 -33 -2 -35 -35 -35 -19 0 -35 -4 -35 -10 0 -5 16 -10
35 -10 33 0 35 -2 35 -35 0 -19 5 -35 10 -35 6 0 10 16 10 35 0 33 2 35 36 35
21 0 33 4 29 10 -3 6 -19 10 -36 10 -27 0 -29 3 -29 35 0 19 -4 35 -10 35 -5
0 -10 -16 -10 -35z"/>
<path d="M11640 2175 c0 -33 -2 -35 -35 -35 -19 0 -35 -4 -35 -10 0 -5 16 -10
35 -10 33 0 35 -2 35 -35 0 -19 5 -35 10 -35 6 0 10 16 10 35 0 33 2 35 36 35
21 0 33 4 29 10 -3 6 -19 10 -36 10 -27 0 -29 3 -29 35 0 19 -4 35 -10 35 -5
0 -10 -16 -10 -35z"/>
<path d="M5384 2189 c-3 -5 9 -9 25 -9 17 0 31 2 31 4 0 8 -51 13 -56 5z"/>
<path d="M460 2180 c-10 -7 -11 -10 -2 -10 7 0 17 -11 24 -25 9 -19 8 -29 -6
-50 -9 -14 -25 -25 -36 -25 -11 0 -20 -4 -20 -10 0 -18 39 -10 50 10 14 26 26
25 33 -1 6 -22 37 -23 45 -1 2 7 -2 10 -11 6 -10 -3 -16 4 -21 27 -7 36 7 59
35 59 21 0 25 15 7 26 -6 4 -19 -2 -29 -14 -21 -27 -25 -27 -32 -2 -6 22 -15
25 -37 10z"/>
<path d="M2526 2180 c-14 -4 -16 -9 -8 -14 16 -10 16 -103 0 -109 -7 -3 3 -6
22 -6 26 -1 31 2 22 11 -17 17 -15 83 3 98 8 7 22 10 30 6 19 -7 21 -102 3
-109 -7 -3 1 -6 18 -6 l30 -1 -7 59 c-3 32 -10 64 -13 70 -9 15 -39 14 -54 -1
-9 -9 -15 -10 -20 -2 -4 6 -16 8 -26 4z"/>
<path d="M2800 2180 c-10 -7 -11 -10 -2 -10 7 0 17 -11 24 -25 9 -19 8 -29 -6
-50 -9 -14 -25 -25 -36 -25 -11 0 -20 -4 -20 -10 0 -18 39 -10 50 10 14 26 26
25 33 -1 6 -22 37 -23 45 -1 2 7 -2 10 -11 6 -10 -3 -16 4 -21 27 -7 36 7 59
35 59 21 0 25 15 7 26 -6 4 -19 -2 -29 -14 -21 -27 -25 -27 -32 -2 -6 22 -15
25 -37 10z"/>
<path d="M3282 2165 c-35 -29 -50 -78 -32 -100 19 -22 64 -18 86 7 14 17 15
19 2 10 -52 -41 -92 25 -44 73 28 28 59 34 50 10 -6 -15 7 -21 19 -8 10 10
-13 33 -33 33 -10 0 -32 -11 -48 -25z"/>
<path d="M5003 2183 c-27 -10 -14 -53 22 -75 20 -11 34 -26 32 -32 -6 -19 -40
-19 -54 0 -12 17 -13 16 -13 -4 0 -18 6 -22 33 -22 62 0 78 49 25 76 -36 18
-49 33 -42 46 9 14 43 8 53 -9 10 -17 10 -16 11 2 0 16 -7 21 -27 22 -16 1
-34 -1 -40 -4z"/>
<path d="M5121 2164 c-27 -34 -27 -68 0 -95 26 -26 67 -22 88 10 l16 25 -27
-18 c-27 -17 -28 -17 -53 8 -33 33 -25 46 31 46 48 0 54 8 26 33 -27 24 -58
21 -81 -9z m59 1 c11 -13 8 -15 -19 -15 -31 0 -42 14 -18 23 20 9 24 8 37 -8z"/>
<path d="M5259 2172 c-48 -40 -13 -133 45 -118 14 3 30 16 36 27 11 20 11 20
-12 5 -22 -14 -26 -14 -47 0 -16 12 -21 24 -19 46 4 39 34 61 49 36 11 -19 39
-25 39 -8 0 11 -33 30 -53 30 -8 0 -25 -8 -38 -18z"/>
<path d="M5551 2181 c-8 -5 -9 -10 -3 -12 7 -3 6 -21 -3 -54 -7 -27 -9 -54 -5
-58 13 -15 42 -3 58 23 l16 25 -28 -25 -29 -25 7 30 c22 100 20 116 -13 96z"/>
<path d="M5899 2173 c-12 -14 -12 -16 0 -8 11 6 13 2 8 -23 -4 -18 -10 -45
-13 -62 -5 -25 -3 -30 12 -30 10 0 28 10 41 22 l23 21 0 -21 c0 -26 22 -29 41
-4 13 15 12 16 -3 3 -20 -15 -23 -5 -9 31 29 80 16 109 -17 36 -19 -45 -48
-75 -59 -64 -3 3 -1 23 5 45 7 21 12 46 12 55 0 21 -24 21 -41 -1z"/>
<path d="M6476 2174 c-9 -8 -14 -20 -11 -25 10 -15 22 -10 28 12 6 24 30 21
35 -4 2 -10 -6 -20 -20 -26 -31 -12 -50 -36 -46 -58 3 -16 16 -18 98 -20 52 0
89 1 83 4 -20 7 -17 99 3 107 9 3 20 4 25 0 14 -8 11 -102 -3 -107 -7 -3 5 -5
27 -5 22 0 34 2 28 5 -8 3 -13 25 -13 58 0 63 -17 84 -55 67 -15 -7 -25 -7
-27 -1 -2 7 -12 7 -28 0 -14 -5 -19 -10 -12 -10 8 -1 12 -19 12 -57 0 -47 -3
-55 -16 -50 -9 3 -18 6 -20 6 -2 0 -4 22 -4 48 0 26 -5 53 -12 60 -17 17 -54
15 -72 -4z m54 -69 c0 -29 -27 -45 -41 -24 -6 10 -2 19 12 32 27 22 29 22 29
-8z"/>
<path d="M6799 2173 c-12 -14 -12 -16 0 -8 11 6 13 3 8 -16 -4 -13 -10 -41
-13 -61 -6 -33 -4 -38 13 -38 11 0 28 10 39 21 19 22 19 22 -3 8 -31 -19 -34
-10 -18 45 19 63 5 88 -26 49z"/>
<path d="M7249 2161 c-25 -25 -30 -37 -27 -68 2 -31 7 -39 27 -41 27 -4 71 16
71 32 0 6 -5 5 -12 -2 -17 -17 -58 -15 -64 3 -8 21 15 74 37 85 26 15 42 12
35 -5 -3 -9 0 -15 10 -15 28 0 11 35 -19 38 -20 2 -36 -5 -58 -27z"/>
<path d="M9799 2173 c-12 -14 -12 -16 0 -8 11 6 13 3 8 -16 -4 -13 -10 -41
-13 -61 -6 -33 -4 -38 13 -38 11 0 28 10 39 21 19 22 19 22 -3 8 -31 -19 -34
-10 -18 45 19 63 5 88 -26 49z"/>
<path d="M10588 2179 c-20 -11 -24 -39 -7 -39 6 0 13 9 16 20 6 24 36 23 41
-1 2 -10 -9 -21 -28 -29 -37 -15 -52 -39 -39 -63 11 -19 44 -23 54 -7 5 8 11
7 21 -1 12 -10 18 -9 32 6 9 10 11 15 5 11 -10 -5 -13 5 -13 41 0 27 -5 54
-12 61 -15 15 -47 15 -70 1z m52 -74 c0 -29 -25 -44 -43 -26 -9 10 -7 17 12
32 30 24 31 24 31 -6z"/>
<path d="M10715 2182 c-5 -4 -10 -35 -10 -70 l0 -62 30 0 c20 0 26 3 17 9 -20
12 -12 91 11 105 14 8 20 8 27 -4 14 -21 12 -84 -2 -98 -9 -9 -4 -12 23 -11
18 0 28 3 22 6 -8 3 -13 25 -13 58 0 63 -17 84 -55 67 -15 -7 -25 -8 -25 -2 0
12 -11 13 -25 2z"/>
<path d="M11832 2165 c-35 -29 -50 -78 -32 -100 19 -22 64 -18 86 7 14 17 15
19 2 10 -52 -41 -92 25 -44 73 28 28 59 34 50 10 -6 -15 7 -21 19 -8 10 10
-13 33 -33 33 -10 0 -32 -11 -48 -25z"/>
<path d="M5630 2148 c-20 -57 -24 -98 -7 -98 8 0 21 8 28 17 12 14 12 16 0 8
-14 -8 -14 6 5 79 9 38 -12 33 -26 -6z"/>
<path d="M6880 2143 c-21 -60 -21 -93 1 -93 10 0 21 5 25 12 4 7 3 8 -4 4 -16
-9 -15 9 3 67 18 59 -3 68 -25 10z"/>
<path d="M9880 2143 c-21 -60 -21 -93 1 -93 10 0 21 5 25 12 4 7 3 8 -4 4 -16
-9 -15 9 3 67 18 59 -3 68 -25 10z"/>
<path d="M1205 2160 c-4 -6 23 -10 75 -10 52 0 79 4 75 10 -3 6 -37 10 -75 10
-38 0 -72 -4 -75 -10z"/>
<path d="M2195 2160 c-4 -6 23 -10 75 -10 52 0 79 4 75 10 -3 6 -37 10 -75 10
-38 0 -72 -4 -75 -10z"/>
<path d="M6125 2160 c-4 -6 23 -10 75 -10 52 0 79 4 75 10 -3 6 -37 10 -75 10
-38 0 -72 -4 -75 -10z"/>
<path d="M10025 2160 c-4 -6 23 -10 75 -10 52 0 79 4 75 10 -3 6 -37 10 -75
10 -38 0 -72 -4 -75 -10z"/>
<path d="M1620 2120 c0 -6 31 -10 74 -10 41 0 78 5 81 10 4 6 -23 10 -74 10
-47 0 -81 -4 -81 -10z"/>
<path d="M9057 2123 c94 -2 252 -2 350 0 98 1 21 2 -172 2 -192 1 -273 -1
-178 -2z"/>
<path d="M10293 2123 c26 -2 67 -2 90 0 23 2 2 3 -48 3 -49 0 -68 -1 -42 -3z"/>
<path d="M11268 2123 c23 -2 61 -2 85 0 23 2 4 4 -43 4 -47 0 -66 -2 -42 -4z"/>
<path d="M1200 2100 c0 -6 33 -10 80 -10 47 0 80 4 80 10 0 6 -33 10 -80 10
-47 0 -80 -4 -80 -10z"/>
<path d="M2190 2100 c0 -6 33 -10 80 -10 47 0 80 4 80 10 0 6 -33 10 -80 10
-47 0 -80 -4 -80 -10z"/>
<path d="M6120 2100 c0 -6 33 -10 80 -10 47 0 80 4 80 10 0 6 -33 10 -80 10
-47 0 -80 -4 -80 -10z"/>
<path d="M10020 2100 c0 -6 33 -10 80 -10 47 0 80 4 80 10 0 6 -33 10 -80 10
-47 0 -80 -4 -80 -10z"/>
<path d="M9056 2071 c-4 -5 3 -7 14 -4 25 7 38 -22 21 -48 -17 -29 -4 -23 15
6 13 20 14 28 4 40 -14 17 -46 20 -54 6z"/>
<path d="M9466 2071 c-4 -5 3 -7 14 -4 25 7 38 -22 21 -48 -17 -29 -4 -23 15
6 13 20 14 28 4 40 -14 17 -46 20 -54 6z"/>
<path d="M1666 2051 c-3 -5 1 -12 10 -15 10 -4 14 -14 11 -26 -3 -11 -1 -20 4
-20 5 0 9 -7 9 -15 0 -8 4 -15 9 -15 6 0 7 16 4 36 -5 30 -3 36 15 41 12 3 19
10 16 15 -3 5 -14 2 -24 -7 -16 -14 -18 -14 -23 0 -7 17 -23 20 -31 6z"/>
<path d="M10318 2049 c-24 -13 -43 -68 -29 -82 9 -9 16 -9 31 1 12 7 20 8 20
2 0 -24 18 -7 23 23 3 17 8 39 11 47 7 17 -31 23 -56 9z m32 -21 c0 -22 -26
-58 -42 -58 -13 0 -9 34 8 58 19 28 34 28 34 0z"/>
<path d="M11318 2053 c6 -3 12 -12 12 -22 0 -20 -27 -61 -41 -61 -12 0 -12 47
1 55 6 3 10 12 10 18 -1 23 -40 -35 -40 -59 0 -26 27 -33 48 -12 9 9 12 9 12
0 0 -16 17 -16 17 1 0 6 4 28 7 47 7 32 5 36 -16 37 -13 0 -17 -1 -10 -4z"/>
<path d="M9211 1968 c-1 -21 -7 -28 -28 -31 l-28 -4 27 -2 c21 -1 28 -7 31
-28 l4 -28 2 27 c1 21 7 28 29 31 l27 4 -27 2 c-21 1 -28 7 -31 29 l-4 27 -2
-27z"/>
<path d="M1644 1968 c-3 -4 2 -8 10 -8 8 0 17 4 20 8 3 5 -2 9 -10 9 -8 0 -17
-4 -20 -9z"/>
<path d="M8958 1969 c-24 -13 -43 -68 -29 -82 9 -9 16 -9 31 1 12 7 20 8 20 2
0 -24 18 -7 23 23 3 17 8 39 11 47 7 17 -31 23 -56 9z m32 -21 c0 -22 -26 -58
-42 -58 -13 0 -9 34 8 58 19 28 34 28 34 0z"/>
<path d="M9053 1968 c-2 -5 12 -8 31 -8 20 0 36 3 36 8 0 4 -14 7 -31 7 -17 0
-33 -3 -36 -7z"/>
<path d="M9349 1978 c0 -2 -2 -15 -4 -30 -2 -16 -6 -37 -10 -48 -4 -13 -2 -20
7 -20 8 0 14 8 14 18 0 9 4 32 8 50 5 21 4 32 -3 32 -6 0 -11 -1 -12 -2z"/>
<path d="M9463 1968 c-2 -5 12 -8 31 -8 20 0 36 3 36 8 0 4 -14 7 -31 7 -17 0
-33 -3 -36 -7z"/>
<path d="M9400 1946 c-13 -35 -13 -66 0 -66 6 0 9 3 8 8 -1 4 2 22 6 40 10 42
0 54 -14 18z"/>
<path d="M313 1764 c-16 -25 -18 -51 -18 -216 l1 -187 -23 5 c-19 5 -23 2 -23
-15 0 -16 6 -21 25 -21 44 0 50 28 49 232 -1 184 0 187 20 185 15 -1 21 4 21
18 0 31 -31 30 -52 -1z"/>
<path d="M4876 1775 c-22 -23 -29 -90 -24 -260 l4 -153 -26 1 c-31 2 -35 -27
-3 -31 45 -6 53 29 54 216 0 94 -2 176 -3 184 -2 8 5 12 20 11 26 -3 42 25 21
38 -19 12 -25 11 -43 -6z"/>
<path d="M2170 1565 c0 -117 4 -185 10 -185 6 0 10 68 10 185 0 117 -4 185
-10 185 -6 0 -10 -68 -10 -185z"/>
<path d="M2950 1565 c0 -117 4 -185 10 -185 6 0 10 68 10 185 0 117 -4 185
-10 185 -6 0 -10 -68 -10 -185z"/>
<path d="M8783 1714 c-16 -25 -18 -51 -18 -216 l1 -187 -23 5 c-19 5 -23 2
-23 -15 0 -16 6 -21 25 -21 44 0 50 28 49 232 -1 184 0 187 20 185 15 -1 21 4
21 18 0 31 -31 30 -52 -1z"/>
<path d="M9295 1712 c-5 -4 -10 -40 -10 -80 0 -70 1 -72 25 -72 15 0 20 3 13
8 -7 4 -13 37 -15 79 -2 46 -7 70 -13 65z"/>
<path d="M705 1645 c0 -30 5 -55 10 -55 6 0 9 23 7 55 -5 71 -17 71 -17 0z"/>
<path d="M1745 1645 c0 -30 5 -55 10 -55 6 0 9 23 7 55 -5 71 -17 71 -17 0z"/>
<path d="M1195 1680 c4 -6 4 -24 0 -41 -5 -24 -11 -29 -26 -24 -43 14 -109
-68 -94 -116 8 -24 42 -25 67 -2 18 16 18 16 12 0 -4 -13 -1 -17 14 -17 23 0
39 16 22 22 -6 2 -1 36 15 88 30 103 30 100 4 100 -11 0 -17 -5 -14 -10z m-17
-91 c4 -21 -40 -83 -61 -87 -22 -4 -23 28 -2 68 21 40 57 51 63 19z"/>
<path d="M1895 1680 c-3 -5 -1 -10 4 -10 16 0 15 -177 -1 -183 -7 -3 3 -6 22
-6 26 -1 31 2 22 11 -8 8 -12 46 -12 105 0 74 -3 93 -14 93 -8 0 -18 -4 -21
-10z"/>
<path d="M2825 1677 c3 -6 -6 -50 -19 -97 -27 -92 -25 -100 27 -100 48 0 100
72 83 115 -8 23 -36 30 -59 16 -18 -12 -19 -11 -13 16 4 15 9 36 12 46 4 12 0
17 -15 17 -12 0 -18 -5 -16 -13z m63 -110 c5 -39 -22 -77 -54 -77 -24 0 -26 3
-20 32 14 73 67 105 74 45z"/>
<path d="M6349 1681 c24 -15 0 -64 -32 -65 -41 -2 -79 -46 -81 -92 -1 -45 23
-57 55 -28 17 16 19 16 19 1 0 -22 24 -22 41 0 12 14 12 16 0 8 -16 -10 -14
10 18 118 l20 67 -27 0 c-19 0 -23 -3 -13 -9z m-19 -97 c0 -31 -35 -84 -56
-84 -21 0 -17 53 7 84 27 34 49 34 49 0z"/>
<path d="M11328 1665 c45 -62 51 -224 12 -301 -15 -29 -16 -33 -3 -22 32 26
57 100 56 168 0 71 -23 129 -64 165 l-22 20 21 -30z"/>
<path d="M10885 1625 c0 -30 5 -55 10 -55 6 0 9 23 7 55 -5 71 -17 71 -17 0z"/>
<path d="M11040 1646 c-52 -86 -48 -225 11 -289 l28 -32 -22 45 c-32 65 -32
218 0 273 28 47 12 49 -17 3z"/>
<path d="M5630 1637 c-11 -16 -14 -37 -10 -79 6 -64 19 -85 47 -73 17 8 17 8
1 12 -14 4 -18 15 -18 58 0 43 4 54 18 58 15 4 15 5 0 6 -9 0 -18 10 -20 20
-3 18 -4 18 -18 -2z"/>
<path d="M11155 1614 c-8 -53 -2 -63 25 -46 12 7 20 8 20 2 0 -14 27 -13 36 2
5 7 3 8 -6 3 -10 -6 -12 -4 -6 11 15 39 19 77 8 70 -6 -4 -14 -23 -18 -42 -3
-19 -9 -33 -12 -30 -3 3 -12 0 -19 -6 -13 -10 -14 -5 -8 35 5 29 4 47 -3 47
-5 0 -13 -21 -17 -46z"/>
<path d="M9879 1641 c24 -15 0 -64 -32 -65 -41 -2 -79 -46 -81 -92 -1 -45 23
-57 55 -28 17 16 19 16 19 1 0 -22 24 -22 41 0 12 14 12 16 0 8 -16 -10 -14
10 18 118 l20 67 -27 0 c-19 0 -23 -3 -13 -9z m-19 -97 c0 -31 -35 -84 -56
-84 -21 0 -17 53 7 84 27 34 49 34 49 0z"/>
<path d="M10520 1640 c0 -5 7 -10 15 -10 8 0 15 5 15 10 0 6 -7 10 -15 10 -8
0 -15 -4 -15 -10z"/>
<path d="M2630 1605 c0 -32 -2 -35 -29 -35 -17 0 -33 -4 -36 -10 -4 -6 8 -10
29 -10 34 0 36 -2 36 -35 0 -19 5 -35 10 -35 6 0 10 16 10 35 0 33 2 35 35 35
19 0 35 5 35 10 0 6 -16 10 -35 10 -33 0 -35 2 -35 35 0 19 -4 35 -10 35 -5 0
-10 -16 -10 -35z"/>
<path d="M3112 1608 c-2 -36 -4 -38 -37 -38 -19 0 -35 -4 -35 -10 0 -5 15 -10
34 -10 33 0 35 -2 39 -37 l4 -38 1 38 c2 35 4 37 37 37 19 0 35 5 35 10 0 6
-15 10 -34 10 -33 0 -35 2 -39 38 l-4 37 -1 -37z"/>
<path d="M7562 1608 c-2 -36 -4 -38 -37 -38 -19 0 -35 -4 -35 -10 0 -5 15 -10
34 -10 33 0 35 -2 39 -37 l4 -38 1 38 c2 35 4 37 37 37 19 0 35 5 35 10 0 6
-15 10 -34 10 -33 0 -35 2 -39 38 l-4 37 -1 -37z"/>
<path d="M1246 1611 c-19 -7 -19 -8 1 -13 42 -11 26 -98 -18 -98 -11 0 -19 -4
-19 -10 0 -19 29 -10 49 16 l20 26 7 -26 c7 -29 25 -34 44 -11 11 13 10 14 -2
10 -11 -4 -18 2 -22 20 -9 36 1 65 24 65 23 0 35 16 19 25 -6 4 -21 -3 -34
-15 l-23 -22 -7 21 c-7 23 -10 24 -39 12z"/>
<path d="M1985 1612 c-5 -4 -10 -35 -10 -70 l0 -62 30 0 c20 0 26 3 17 9 -20
12 -12 91 11 105 14 8 20 8 27 -4 14 -21 12 -84 -2 -98 -9 -9 -4 -12 23 -11
18 0 28 3 22 6 -8 3 -13 25 -13 58 0 63 -17 84 -55 67 -15 -7 -25 -8 -25 -2 0
12 -11 13 -25 2z"/>
<path d="M2271 1603 c-12 -8 -28 -27 -36 -43 -30 -59 -10 -95 41 -72 16 8 24
8 24 1 0 -16 43 -6 47 11 4 13 3 13 -6 0 -10 -13 -11 -13 -11 0 0 8 6 38 14
66 l13 50 -33 1 c-18 1 -42 -6 -53 -14z m49 -22 c0 -32 -34 -81 -56 -81 -21 0
-17 53 7 84 27 35 49 34 49 -3z"/>
<path d="M2392 1613 c-10 -4 -8 -9 7 -20 35 -24 18 -93 -23 -93 -9 0 -16 -4
-16 -10 0 -20 29 -10 48 17 l19 26 7 -26 c7 -29 27 -35 45 -13 9 11 8 14 -5
12 -21 -1 -35 41 -22 67 5 9 18 17 28 17 11 0 20 7 20 15 0 21 -16 19 -39 -6
l-19 -21 -11 21 c-12 22 -16 23 -39 14z"/>
<path d="M3309 1605 c-32 -17 -54 -66 -45 -100 5 -20 12 -25 40 -25 20 0 40 8
51 20 19 21 19 21 -9 6 -16 -8 -35 -12 -42 -9 -23 9 -17 67 9 91 27 25 52 29
43 7 -3 -9 0 -15 10 -15 23 0 13 35 -11 37 -11 2 -32 -4 -46 -12z"/>
<path d="M5003 1613 c-27 -10 -14 -53 22 -75 20 -11 34 -26 32 -32 -6 -19 -40
-19 -54 0 -12 17 -13 16 -13 -4 0 -18 6 -22 33 -22 62 0 78 49 25 76 -36 18
-49 33 -42 46 9 14 43 8 53 -9 10 -17 10 -16 11 2 0 16 -7 21 -27 22 -16 1
-34 -1 -40 -4z"/>
<path d="M5121 1594 c-27 -34 -27 -68 0 -95 26 -26 67 -22 88 10 l16 25 -27
-18 c-27 -17 -28 -17 -53 8 -33 33 -25 46 31 46 48 0 54 8 26 33 -27 24 -58
21 -81 -9z m59 1 c11 -13 8 -15 -19 -15 -31 0 -42 14 -18 23 20 9 24 8 37 -8z"/>
<path d="M5252 1597 c-27 -29 -28 -71 -2 -97 24 -24 53 -26 74 -4 22 22 20 25
-9 14 -18 -7 -28 -5 -40 6 -20 20 -19 68 1 85 14 11 18 11 29 -4 13 -17 35
-23 35 -9 0 15 -24 32 -45 32 -12 0 -31 -10 -43 -23z"/>
<path d="M5421 1611 c-8 -5 -9 -10 -3 -12 7 -3 6 -21 -3 -54 -7 -27 -9 -54 -5
-58 13 -15 42 -3 58 23 l16 25 -28 -25 -29 -25 7 30 c22 100 20 116 -13 96z"/>
<path d="M5716 1604 c-9 -8 -14 -20 -11 -25 10 -15 22 -10 28 12 6 24 30 21
35 -4 2 -10 -6 -20 -20 -26 -31 -12 -50 -36 -46 -58 3 -14 14 -18 56 -19 29
-1 55 3 58 7 3 5 0 9 -5 9 -6 0 -11 21 -11 48 0 26 -5 53 -12 60 -17 17 -54
15 -72 -4z m54 -69 c0 -29 -27 -45 -41 -24 -6 10 -2 19 12 32 27 22 29 22 29
-8z"/>
<path d="M5846 1610 c-14 -4 -16 -9 -8 -14 16 -10 16 -103 0 -109 -7 -3 3 -6
22 -6 26 -1 31 2 22 11 -17 17 -15 83 3 98 8 7 22 10 30 6 19 -7 21 -102 3
-109 -7 -3 1 -6 18 -6 l30 -1 -7 59 c-3 32 -10 64 -13 70 -9 15 -39 14 -54 -1
-9 -9 -15 -10 -20 -2 -4 6 -16 8 -26 4z"/>
<path d="M6051 1611 c-8 -5 -9 -10 -3 -12 7 -3 6 -21 -3 -54 -7 -27 -9 -54 -5
-58 13 -15 42 -3 58 23 l16 25 -28 -25 -29 -25 7 30 c22 100 20 116 -13 96z"/>
<path d="M6399 1603 c-12 -14 -12 -16 0 -8 11 6 13 2 8 -23 -4 -18 -10 -45
-13 -62 -5 -25 -3 -30 12 -30 10 0 28 10 41 22 l23 21 0 -21 c0 -26 22 -29 41
-4 13 15 12 16 -3 3 -20 -15 -23 -5 -9 31 29 80 16 109 -17 36 -19 -45 -48
-75 -59 -64 -3 3 -1 23 5 45 7 21 12 46 12 55 0 21 -24 21 -41 -1z"/>
<path d="M6872 1608 c-21 -21 -13 -46 23 -67 19 -11 35 -25 35 -31 0 -20 -31
-23 -50 -5 -19 17 -20 17 -20 -3 0 -18 6 -22 33 -22 64 0 78 49 22 81 -19 12
-35 27 -35 35 0 20 37 17 49 -3 10 -17 10 -16 11 2 0 16 -7 21 -28 23 -15 1
-33 -3 -40 -10z"/>
<path d="M7001 1602 c-44 -35 -19 -122 34 -122 12 0 29 8 38 18 24 26 21 35
-6 17 -21 -13 -25 -13 -45 1 -12 8 -22 24 -22 35 0 16 7 19 45 19 49 0 62 20
26 40 -28 14 -46 13 -70 -8z m49 -7 c11 -13 8 -15 -20 -15 -28 0 -31 2 -20 15
7 8 16 15 20 15 4 0 13 -7 20 -15z"/>
<path d="M7130 1600 c-12 -12 -20 -33 -20 -53 0 -58 58 -88 93 -49 25 27 21
35 -7 17 -23 -15 -26 -15 -45 4 -23 23 -26 43 -11 72 13 23 38 25 46 4 6 -15
34 -21 34 -7 0 34 -60 42 -90 12z"/>
<path d="M7289 1603 c-12 -14 -12 -16 0 -8 11 6 13 3 8 -16 -4 -13 -10 -41
-13 -61 -6 -33 -4 -38 13 -38 11 0 28 10 39 21 19 22 19 22 -3 8 -31 -19 -34
-10 -18 45 19 63 5 88 -26 49z"/>
<path d="M7739 1591 c-25 -25 -30 -37 -27 -68 2 -31 7 -39 27 -41 27 -4 71 16
71 32 0 6 -5 5 -12 -2 -17 -17 -58 -15 -64 3 -8 21 15 74 37 85 26 15 42 12
35 -5 -3 -9 0 -15 10 -15 28 0 11 35 -19 38 -20 2 -36 -5 -58 -27z"/>
<path d="M10778 1613 c12 -2 32 -2 45 0 12 2 2 4 -23 4 -25 0 -35 -2 -22 -4z"/>
<path d="M5500 1578 c-20 -57 -24 -98 -7 -98 8 0 21 8 28 17 12 14 12 16 0 8
-14 -8 -14 6 5 79 9 38 -12 33 -26 -6z"/>
<path d="M6130 1578 c-20 -57 -24 -98 -7 -98 8 0 21 8 28 17 12 14 12 16 0 8
-14 -8 -14 6 5 79 9 38 -12 33 -26 -6z"/>
<path d="M7370 1573 c-21 -60 -21 -93 1 -93 10 0 21 5 25 12 4 7 3 8 -4 4 -16
-9 -15 9 3 67 18 59 -3 68 -25 10z"/>
<path d="M1440 1590 c0 -6 32 -10 75 -10 43 0 75 4 75 10 0 6 -32 10 -75 10
-43 0 -75 -4 -75 -10z"/>
<path d="M6625 1590 c-4 -6 23 -10 75 -10 52 0 79 4 75 10 -3 6 -37 10 -75 10
-38 0 -72 -4 -75 -10z"/>
<path d="M11530 1565 c0 -32 -2 -35 -29 -35 -17 0 -33 -4 -36 -10 -4 -6 8 -10
29 -10 34 0 36 -2 36 -35 0 -19 5 -35 10 -35 6 0 10 16 10 35 0 33 2 35 35 35
19 0 35 5 35 10 0 6 -16 10 -35 10 -33 0 -35 2 -35 35 0 19 -4 35 -10 35 -5 0
-10 -16 -10 -35z"/>
<path d="M9929 1563 c-12 -14 -12 -16 0 -8 11 6 13 2 8 -23 -4 -18 -10 -45
-13 -62 -5 -25 -3 -30 12 -30 10 0 28 10 41 22 l23 21 0 -21 c0 -26 22 -29 41
-4 13 15 12 16 -3 3 -20 -15 -23 -5 -9 31 29 80 16 109 -17 36 -19 -45 -48
-75 -59 -64 -3 3 -1 23 5 45 7 21 12 46 12 55 0 21 -24 21 -41 -1z"/>
<path d="M10402 1568 c-21 -21 -13 -46 23 -67 19 -11 35 -25 35 -31 0 -20 -31
-23 -50 -5 -19 17 -20 17 -20 -3 0 -18 6 -22 33 -22 64 0 78 49 22 81 -19 12
-35 27 -35 35 0 20 37 17 49 -3 10 -17 10 -16 11 2 0 16 -7 21 -28 23 -15 1
-33 -3 -40 -10z"/>
<path d="M10523 1572 c-8 -5 -9 -13 -3 -22 14 -21 12 -84 -2 -98 -9 -9 -4 -12
23 -11 18 0 28 3 22 6 -9 3 -13 27 -13 69 0 63 -4 71 -27 56z"/>
<path d="M10605 1572 c-5 -4 -10 -35 -10 -70 l0 -62 30 0 c20 0 26 3 17 9 -20
12 -12 91 11 105 14 8 20 8 27 -4 14 -21 12 -84 -2 -98 -9 -9 -4 -12 23 -11
18 0 28 3 22 6 -8 3 -13 25 -13 58 0 63 -17 84 -55 67 -15 -7 -25 -8 -25 -2 0
12 -11 13 -25 2z"/>
<path d="M11719 1551 c-25 -25 -30 -37 -27 -68 2 -31 7 -39 27 -41 27 -4 71
16 71 32 0 6 -5 5 -12 -2 -17 -17 -58 -15 -64 3 -8 21 15 74 37 85 26 15 42
12 35 -5 -3 -9 0 -15 10 -15 28 0 11 35 -19 38 -20 2 -36 -5 -58 -27z"/>
<path d="M420 1560 c0 -6 107 -10 300 -10 193 0 300 4 300 10 0 6 -107 10
-300 10 -193 0 -300 -4 -300 -10z"/>
<path d="M1670 1560 c0 -6 33 -10 80 -10 47 0 80 4 80 10 0 6 -33 10 -80 10
-47 0 -80 -4 -80 -10z"/>
<path d="M10155 1550 c-4 -6 23 -10 75 -10 52 0 79 4 75 10 -3 6 -37 10 -75
10 -38 0 -72 -4 -75 -10z"/>
<path d="M1440 1530 c0 -6 32 -10 75 -10 43 0 75 4 75 10 0 6 -32 10 -75 10
-43 0 -75 -4 -75 -10z"/>
<path d="M6620 1530 c0 -6 33 -10 80 -10 47 0 80 4 80 10 0 6 -33 10 -80 10
-47 0 -80 -4 -80 -10z"/>
<path d="M8895 1510 c4 -6 150 -10 405 -10 255 0 401 4 405 10 4 7 -133 10
-405 10 -272 0 -409 -3 -405 -10z"/>
<path d="M11120 1510 c0 -6 33 -10 80 -10 47 0 80 4 80 10 0 6 -33 10 -80 10
-47 0 -80 -4 -80 -10z"/>
<path d="M1738 1489 c-24 -13 -43 -68 -29 -82 9 -9 16 -9 31 1 12 7 20 8 20 2
0 -24 18 -7 23 23 3 17 8 39 11 47 7 17 -31 23 -56 9z m32 -21 c0 -22 -26 -58
-42 -58 -13 0 -9 34 8 58 19 28 34 28 34 0z"/>
<path d="M10150 1490 c0 -6 33 -10 80 -10 47 0 80 4 80 10 0 6 -33 10 -80 10
-47 0 -80 -4 -80 -10z"/>
<path d="M9025 1478 c-2 -7 -11 -60 -20 -118 -21 -138 -24 -143 -42 -97 -16
38 -27 45 -39 25 -4 -6 -3 -8 3 -5 7 4 18 -14 29 -43 10 -28 21 -50 26 -50 8
0 10 10 36 170 l18 105 322 3 c203 1 322 6 322 12 0 16 -650 13 -655 -2z"/>
<path d="M910 1418 c-18 -79 -18 -80 -2 -86 7 -2 10 2 7 10 -10 26 13 68 36
68 18 0 20 -4 15 -27 -4 -16 -14 -34 -23 -40 -9 -7 -12 -13 -6 -13 12 0 38 29
47 54 8 24 -12 48 -35 41 -22 -7 -22 -5 -9 29 7 20 6 26 -3 26 -8 0 -19 -26
-27 -62z"/>
<path d="M790 1416 c0 -19 -6 -26 -27 -29 l-28 -4 28 -2 c22 -1 27 -6 27 -26
0 -14 5 -25 10 -25 6 0 10 11 10 24 0 19 6 26 28 29 l27 4 -27 2 c-23 1 -28 6
-28 26 0 14 -4 25 -10 25 -5 0 -10 -11 -10 -24z"/>
<path d="M488 1419 c-24 -13 -43 -68 -29 -82 9 -9 16 -9 31 1 12 7 20 8 20 2
0 -24 18 -7 23 23 3 17 8 39 11 47 7 17 -31 23 -56 9z m32 -21 c0 -22 -26 -58
-42 -58 -13 0 -9 34 8 58 19 28 34 28 34 0z"/>
<path d="M618 1424 c-4 -3 -1 -15 5 -25 13 -21 -2 -56 -22 -51 -6 1 -11 -2
-11 -8 0 -15 11 -12 32 7 17 15 18 15 18 0 0 -10 7 -17 15 -17 12 0 13 4 5 19
-16 30 -12 52 10 58 11 3 20 9 20 14 0 14 -16 11 -30 -6 -11 -14 -14 -14 -24
0 -6 9 -15 13 -18 9z"/>
<path d="M11166 1408 c-23 -32 -21 -78 2 -78 10 0 23 5 30 12 9 9 12 9 12 0 0
-7 4 -12 8 -12 4 0 13 22 18 49 9 44 8 49 -6 48 -11 -1 -15 -7 -12 -19 5 -19
-22 -68 -38 -68 -15 0 -12 43 6 68 8 12 11 22 5 22 -5 0 -17 -10 -25 -22z"/>
<path d="M9184 1409 c-4 -8 -3 -9 5 -5 12 8 41 -10 41 -25 0 -5 -14 -24 -31
-44 l-31 -35 35 0 c20 0 38 4 41 9 3 4 -6 6 -19 3 -30 -5 -31 1 -4 37 12 16
19 37 17 47 -4 22 -42 31 -54 13z"/>
<path d="M9590 1412 c0 -5 8 -9 17 -8 29 2 27 -38 -2 -73 l-27 -31 36 0 c20 0
36 4 36 9 0 4 -12 6 -27 3 l-26 -5 27 36 c34 44 31 71 -7 75 -15 2 -27 -1 -27
-6z"/>
<path d="M9077 1303 c-25 -29 -32 -72 -12 -79 9 -4 22 -1 28 6 9 10 9 11 -1 6
-23 -13 -25 25 -3 55 23 31 14 40 -12 12z"/>
<path d="M9123 1298 c-1 -13 -4 -35 -8 -50 -6 -22 -4 -28 8 -28 9 0 19 5 23
12 5 7 3 8 -6 3 -10 -6 -12 -4 -6 11 17 43 19 74 5 74 -8 0 -15 -10 -16 -22z"/>
<path d="M9465 1274 c-8 -53 -2 -63 25 -46 12 7 20 8 20 2 0 -14 27 -13 36 2
5 7 3 8 -6 3 -10 -6 -12 -4 -6 11 15 39 19 77 8 70 -6 -4 -14 -23 -18 -42 -3
-19 -9 -33 -12 -30 -3 3 -12 0 -19 -6 -13 -10 -14 -5 -8 35 5 29 4 47 -3 47
-5 0 -13 -21 -17 -46z"/>
<path d="M9295 1280 c-4 -6 15 -10 49 -10 31 0 56 5 56 10 0 6 -22 10 -49 10
-28 0 -53 -4 -56 -10z"/>
<path d="M4876 1215 c-22 -23 -29 -90 -24 -260 l4 -153 -26 1 c-31 2 -35 -27
-3 -31 45 -6 53 29 54 216 0 94 -2 176 -3 184 -2 8 5 12 20 11 26 -3 42 25 21
38 -19 12 -25 11 -43 -6z"/>
<path d="M313 1154 c-16 -25 -18 -51 -18 -216 l1 -187 -23 5 c-19 5 -23 2 -23
-15 0 -16 6 -21 25 -21 44 0 50 28 49 232 -1 184 0 187 20 185 15 -1 21 4 21
18 0 31 -31 30 -52 -1z"/>
<path d="M6295 1120 c4 -6 4 -24 0 -41 -5 -24 -11 -29 -26 -24 -43 14 -109
-68 -94 -116 8 -24 42 -25 67 -2 18 16 18 16 12 0 -4 -13 -1 -17 14 -17 23 0
39 16 22 22 -6 2 -1 36 15 88 30 103 30 100 4 100 -11 0 -17 -5 -14 -10z m-17
-91 c4 -21 -40 -83 -61 -87 -22 -4 -23 28 -2 68 21 40 57 51 63 19z"/>
<path d="M2068 1103 c-70 -80 -73 -227 -8 -304 l29 -34 -22 45 c-32 65 -32
207 0 268 25 46 25 52 1 25z"/>
<path d="M2329 1088 c40 -67 39 -244 -2 -299 -7 -8 0 -3 15 13 68 69 57 248
-18 309 -14 11 -13 6 5 -23z"/>
<path d="M5906 1071 c-11 -12 -14 -21 -8 -21 8 0 12 -21 12 -60 0 -66 17 -87
47 -57 14 14 14 15 -3 14 -16 -2 -20 6 -22 46 -3 41 0 48 20 56 23 10 23 10 1
10 -12 1 -23 8 -25 17 -3 14 -6 13 -22 -5z"/>
<path d="M435 1070 c-3 -5 -1 -10 4 -10 16 0 15 -177 -1 -183 -7 -3 3 -6 22
-6 26 -1 31 2 22 11 -8 8 -12 46 -12 105 0 74 -3 93 -14 93 -8 0 -18 -4 -21
-10z"/>
<path d="M1028 1072 c9 -6 10 -16 2 -39 -9 -24 -16 -29 -33 -26 -26 5 -74 -37
-83 -73 -14 -54 19 -82 57 -48 17 16 19 16 19 1 0 -21 23 -22 40 -2 11 13 10
14 -3 9 -14 -5 -14 3 4 63 35 119 35 123 8 123 -16 0 -20 -3 -11 -8z m-20 -95
c5 -26 -37 -87 -59 -87 -21 0 -25 21 -8 53 28 54 60 70 67 34z"/>
<path d="M1745 975 l0 -105 30 1 c17 0 24 3 18 6 -9 3 -13 34 -13 104 0 88 -2
99 -17 99 -16 0 -18 -12 -18 -105z"/>
<path d="M7722 1048 c-2 -36 -4 -38 -37 -38 -19 0 -35 -4 -35 -10 0 -5 15 -10
34 -10 33 0 35 -2 39 -37 l4 -38 1 38 c2 35 4 37 37 37 19 0 35 5 35 10 0 6
-15 10 -34 10 -33 0 -35 2 -39 38 l-4 37 -1 -37z"/>
<path d="M5009 1042 c-48 -40 -13 -133 45 -118 14 3 30 16 36 27 11 20 11 20
-12 5 -22 -14 -26 -14 -47 0 -16 12 -21 24 -19 46 4 39 34 61 49 36 11 -19 39
-25 39 -8 0 11 -33 30 -53 30 -8 0 -25 -8 -38 -18z"/>
<path d="M5143 1053 c-27 -10 -14 -53 22 -75 20 -11 34 -26 32 -32 -6 -19 -40
-19 -54 0 -12 17 -13 16 -13 -4 0 -18 6 -22 33 -22 62 0 78 49 25 76 -36 18
-49 33 -42 46 9 14 43 8 53 -9 10 -17 10 -16 11 2 0 16 -7 21 -27 22 -16 1
-34 -1 -40 -4z"/>
<path d="M5260 1040 c-12 -12 -20 -33 -20 -53 0 -58 58 -88 93 -49 25 27 21
35 -7 17 -23 -15 -26 -15 -45 4 -23 23 -26 43 -11 72 13 23 38 25 46 4 6 -15
34 -21 34 -7 0 34 -60 42 -90 12z"/>
<path d="M5419 1043 c-12 -14 -12 -16 0 -8 11 6 13 2 8 -23 -4 -18 -10 -45
-13 -62 -5 -25 -3 -30 12 -30 10 0 28 10 41 22 l23 21 0 -21 c0 -26 22 -29 41
-4 13 15 12 16 -3 3 -20 -15 -23 -5 -9 31 29 80 16 109 -17 36 -19 -45 -48
-75 -59 -64 -3 3 -1 23 5 45 7 21 12 46 12 55 0 21 -24 21 -41 -1z"/>
<path d="M5630 1040 c-12 -12 -20 -33 -20 -53 0 -58 58 -88 93 -49 25 27 21
35 -7 17 -23 -15 -26 -15 -45 4 -23 23 -26 43 -11 72 13 23 38 25 46 4 6 -15
34 -21 34 -7 0 34 -60 42 -90 12z"/>
<path d="M5765 1035 c-30 -29 -32 -64 -5 -93 43 -46 110 -13 110 52 0 62 -61
86 -105 41z m63 3 c7 -7 12 -31 12 -55 0 -53 -23 -68 -52 -34 -30 38 -19 101
17 101 6 0 16 -5 23 -12z"/>
<path d="M6039 1043 c-12 -14 -12 -16 0 -8 11 6 13 3 8 -16 -4 -13 -10 -41
-13 -61 -6 -33 -4 -38 13 -38 11 0 28 10 39 21 19 22 19 22 -3 8 -31 -19 -34
-10 -18 45 19 63 5 88 -26 49z"/>
<path d="M6351 1051 c-8 -5 -9 -10 -3 -12 7 -3 6 -21 -3 -54 -7 -27 -9 -54 -5
-58 13 -15 42 -3 58 23 l16 25 -28 -25 -29 -25 7 30 c22 100 20 116 -13 96z"/>
<path d="M7032 1037 c-27 -29 -28 -71 -2 -97 24 -24 53 -26 74 -4 22 22 20 25
-9 14 -18 -7 -28 -5 -40 6 -20 20 -19 68 1 85 14 11 18 11 29 -4 13 -17 35
-23 35 -9 0 15 -24 32 -45 32 -12 0 -31 -10 -43 -23z"/>
<path d="M7161 1046 c-18 -22 -5 -52 29 -66 18 -8 30 -20 30 -31 0 -24 -27
-25 -52 -2 -17 15 -18 15 -18 -5 0 -18 6 -22 34 -22 36 0 70 24 63 44 -2 6
-19 21 -38 34 -19 13 -35 27 -37 33 -7 18 29 21 48 4 19 -17 20 -17 20 1 0 15
-8 20 -34 22 -19 2 -38 -4 -45 -12z"/>
<path d="M7289 1042 c-48 -40 -13 -133 45 -118 14 3 30 16 36 27 11 20 11 20
-12 5 -22 -14 -26 -14 -47 0 -16 12 -21 24 -19 46 4 39 34 61 49 36 11 -19 39
-25 39 -8 0 11 -33 30 -53 30 -8 0 -25 -8 -38 -18z"/>
<path d="M7449 1043 c-12 -14 -12 -16 0 -8 11 6 13 3 8 -16 -4 -13 -10 -41
-13 -61 -6 -33 -4 -38 13 -38 11 0 28 10 39 21 19 22 19 22 -3 8 -31 -19 -34
-10 -18 45 19 63 5 88 -26 49z"/>
<path d="M7899 1031 c-25 -25 -30 -37 -27 -68 2 -31 7 -39 27 -41 27 -4 71 16
71 32 0 6 -5 5 -12 -2 -17 -17 -58 -15 -64 3 -8 21 15 74 37 85 26 15 42 12
35 -5 -3 -9 0 -15 10 -15 28 0 11 35 -19 38 -20 2 -36 -5 -58 -27z"/>
<path d="M6120 1013 c-21 -60 -21 -93 1 -93 10 0 21 5 25 12 4 7 3 8 -4 4 -16
-9 -15 9 3 67 18 59 -3 68 -25 10z"/>
<path d="M6430 1018 c-20 -57 -24 -98 -7 -98 8 0 21 8 28 17 12 14 12 16 0 8
-14 -8 -14 6 5 79 9 38 -12 33 -26 -6z"/>
<path d="M7530 1013 c-21 -60 -21 -93 1 -93 10 0 21 5 25 12 4 7 3 8 -4 4 -16
-9 -15 9 3 67 18 59 -3 68 -25 10z"/>
<path d="M6565 1030 c-4 -6 23 -10 75 -10 52 0 79 4 75 10 -3 6 -37 10 -75 10
-38 0 -72 -4 -75 -10z"/>
<path d="M2950 995 c0 -33 -2 -35 -35 -35 -19 0 -35 -4 -35 -10 0 -5 16 -10
35 -10 33 0 35 -2 35 -35 0 -19 5 -35 10 -35 6 0 10 16 10 35 0 33 2 35 36 35
21 0 33 4 29 10 -3 6 -19 10 -36 10 -27 0 -29 3 -29 35 0 19 -4 35 -10 35 -5
0 -10 -16 -10 -35z"/>
<path d="M525 1002 c-5 -4 -10 -35 -10 -70 l0 -62 30 0 c20 0 26 3 17 9 -20
12 -12 91 11 105 14 8 20 8 27 -4 14 -21 12 -84 -2 -98 -9 -9 -4 -12 22 -11
19 0 29 3 23 6 -8 3 -13 25 -13 58 0 63 -17 84 -55 67 -15 -7 -25 -8 -25 -2 0
12 -11 13 -25 2z"/>
<path d="M719 993 c-12 -14 -12 -16 0 -8 11 6 13 2 8 -23 -4 -18 -10 -45 -13
-62 -5 -25 -3 -30 12 -30 10 0 28 10 41 22 l23 21 0 -21 c0 -26 22 -29 41 -4
13 15 12 16 -3 3 -20 -15 -23 -5 -9 31 29 80 16 109 -17 36 -19 -45 -48 -75
-59 -64 -3 3 -1 23 5 45 7 21 12 46 12 55 0 21 -24 21 -41 -1z"/>
<path d="M1079 993 c-12 -14 -12 -16 0 -8 11 6 13 3 8 -16 -4 -13 -10 -41 -13
-61 -6 -33 -4 -38 13 -38 11 0 28 10 39 21 19 22 19 22 -3 8 -31 -19 -34 -10
-18 45 19 63 5 88 -26 49z"/>
<path d="M1539 993 c-12 -14 -12 -16 0 -8 11 6 13 2 8 -23 -4 -18 -10 -45 -13
-62 -5 -25 -3 -30 12 -30 10 0 28 10 41 22 l23 21 0 -21 c0 -26 22 -29 41 -4
13 15 12 16 -3 3 -20 -15 -23 -5 -9 31 29 80 16 109 -17 36 -19 -45 -48 -75
-59 -64 -3 3 -1 23 5 45 7 21 12 46 12 55 0 21 -24 21 -41 -1z"/>
<path d="M1826 1000 c-14 -4 -16 -9 -8 -14 16 -10 16 -103 0 -109 -7 -3 3 -6
22 -6 26 -1 31 2 22 11 -17 17 -15 83 3 98 8 7 22 10 30 6 19 -7 21 -102 3
-109 -7 -3 1 -6 18 -6 l30 -1 -7 59 c-3 32 -10 64 -13 70 -9 15 -39 14 -54 -1
-9 -9 -15 -10 -20 -2 -4 6 -16 8 -26 4z"/>
<path d="M2139 993 c-12 -14 -12 -16 0 -8 11 6 13 3 8 -16 -4 -13 -10 -41 -13
-61 -6 -33 -4 -38 13 -38 11 0 28 10 39 21 19 22 19 22 -3 8 -31 -19 -34 -10
-18 45 19 63 5 88 -26 49z"/>
<path d="M2679 993 c-12 -14 -12 -16 0 -8 11 6 13 2 8 -23 -4 -18 -10 -45 -13
-62 -5 -25 -3 -30 12 -30 10 0 28 10 41 22 l23 21 0 -21 c0 -26 22 -29 41 -4
13 15 12 16 -3 3 -20 -15 -23 -5 -9 31 29 80 16 109 -17 36 -19 -45 -48 -75
-59 -64 -3 3 -1 23 5 45 7 21 12 46 12 55 0 21 -24 21 -41 -1z"/>
<path d="M3142 985 c-35 -29 -50 -78 -32 -100 19 -22 64 -18 86 7 14 17 15 19
2 10 -52 -41 -92 25 -44 73 28 28 59 34 50 10 -6 -15 7 -21 19 -8 10 10 -13
33 -33 33 -10 0 -32 -11 -48 -25z"/>
<path d="M6805 1000 c-4 -6 23 -10 74 -10 47 0 81 4 81 10 0 6 -31 10 -74 10
-41 0 -78 -4 -81 -10z"/>
<path d="M1160 963 c-21 -60 -21 -93 1 -93 10 0 21 5 25 12 4 7 3 8 -4 4 -16
-9 -15 9 3 67 18 59 -3 68 -25 10z"/>
<path d="M2220 963 c-21 -60 -21 -93 1 -93 10 0 21 5 25 12 4 7 3 8 -4 4 -16
-9 -15 9 3 67 18 59 -3 68 -25 10z"/>
<path d="M1295 980 c-4 -6 23 -10 75 -10 52 0 79 4 75 10 -3 6 -37 10 -75 10
-38 0 -72 -4 -75 -10z"/>
<path d="M6560 970 c0 -6 33 -10 80 -10 47 0 80 4 80 10 0 6 -33 10 -80 10
-47 0 -80 -4 -80 -10z"/>
<path d="M2455 950 c-4 -6 23 -10 74 -10 47 0 81 4 81 10 0 6 -31 10 -74 10
-41 0 -78 -4 -81 -10z"/>
<path d="M1290 920 c0 -6 33 -10 80 -10 47 0 80 4 80 10 0 6 -33 10 -80 10
-47 0 -80 -4 -80 -10z"/>
<path d="M4876 655 c-22 -23 -29 -90 -24 -260 l4 -153 -26 1 c-31 2 -35 -27
-3 -31 45 -6 53 29 54 216 0 94 -2 176 -3 184 -2 8 5 12 20 11 26 -3 42 25 21
38 -19 12 -25 11 -43 -6z"/>
<path d="M313 594 c-16 -25 -18 -51 -18 -216 l1 -187 -23 5 c-19 5 -23 2 -23
-15 0 -16 6 -21 25 -21 44 0 50 28 49 232 -1 184 0 187 20 185 15 -1 21 4 21
18 0 31 -31 30 -52 -1z"/>
<path d="M5390 601 c0 -5 8 -8 17 -7 29 2 27 -34 -3 -65 l-28 -29 37 0 c20 0
37 4 37 9 0 4 -12 6 -27 3 l-28 -5 21 24 c30 34 35 45 28 63 -6 17 -54 23 -54
7z"/>
<path d="M5858 562 c9 -6 10 -16 2 -39 -9 -24 -16 -29 -33 -26 -26 5 -74 -37
-83 -73 -14 -54 19 -82 57 -48 17 16 19 16 19 1 0 -21 23 -22 40 -2 11 13 10
14 -3 9 -14 -5 -14 3 4 63 35 119 35 123 8 123 -16 0 -20 -3 -11 -8z m-20 -95
c5 -26 -37 -87 -59 -87 -21 0 -25 21 -8 53 28 54 60 70 67 34z"/>
<path d="M6876 511 c-11 -12 -14 -21 -8 -21 8 0 12 -21 12 -60 0 -66 17 -87
47 -57 14 14 14 15 -3 14 -16 -2 -20 6 -22 46 -3 41 0 48 20 56 23 10 23 10 1
10 -12 1 -23 8 -25 17 -3 14 -6 13 -22 -5z"/>
<path d="M849 511 c24 -15 0 -64 -32 -65 -41 -2 -79 -46 -81 -92 -1 -45 23
-57 55 -28 17 16 19 16 19 1 0 -22 24 -22 41 0 12 14 12 16 0 8 -16 -10 -14
10 18 118 l20 67 -27 0 c-19 0 -23 -3 -13 -9z m-19 -97 c0 -31 -35 -84 -56
-84 -21 0 -17 53 7 84 27 34 49 34 49 0z"/>
<path d="M7270 485 c0 -32 -2 -35 -29 -35 -17 0 -33 -4 -36 -10 -4 -6 8 -10
29 -10 34 0 36 -2 36 -35 0 -19 5 -35 10 -35 6 0 10 16 10 35 0 33 2 35 35 35
19 0 35 5 35 10 0 6 -16 10 -35 10 -33 0 -35 2 -35 35 0 19 -4 35 -10 35 -5 0
-10 -16 -10 -35z"/>
<path d="M570 498 c0 -7 -3 -23 -6 -35 -4 -16 -2 -23 7 -23 9 0 14 13 15 35 0
19 -3 35 -8 35 -4 0 -8 -6 -8 -12z"/>
<path d="M610 486 c-12 -33 -13 -46 -1 -46 9 0 22 61 15 69 -2 2 -8 -8 -14
-23z"/>
<path d="M1502 504 c4 -3 2 -19 -2 -35 -6 -20 -5 -29 3 -29 7 0 13 16 14 35 1
20 -3 35 -9 35 -6 0 -9 -3 -6 -6z"/>
<path d="M1547 497 c-4 -10 -7 -28 -6 -40 0 -21 1 -21 10 2 5 14 8 32 7 40 -3
13 -5 13 -11 -2z"/>
<path d="M5009 482 c-48 -40 -13 -133 45 -118 14 3 30 16 36 27 11 20 11 20
-12 5 -22 -14 -26 -14 -47 0 -16 12 -21 24 -19 46 4 39 34 61 49 36 11 -19 39
-25 39 -8 0 11 -33 30 -53 30 -8 0 -25 -8 -38 -18z"/>
<path d="M5143 493 c-27 -10 -14 -53 22 -75 20 -11 34 -26 32 -32 -6 -19 -40
-19 -54 0 -12 17 -13 16 -13 -4 0 -18 6 -22 33 -22 62 0 78 49 25 76 -36 18
-49 33 -42 46 9 14 43 8 53 -9 10 -17 10 -16 11 2 0 16 -7 21 -27 22 -16 1
-34 -1 -40 -4z"/>
<path d="M5260 480 c-12 -12 -20 -33 -20 -53 0 -58 58 -88 93 -49 25 27 21 35
-7 17 -23 -15 -26 -15 -45 4 -23 23 -26 43 -11 72 13 23 38 25 46 4 6 -15 34
-21 34 -7 0 34 -60 42 -90 12z"/>
<path d="M5549 483 c-12 -14 -12 -16 0 -8 11 6 13 2 8 -23 -4 -18 -10 -45 -13
-62 -5 -25 -3 -30 12 -30 10 0 28 10 41 22 l23 21 0 -21 c0 -26 22 -29 41 -4
13 15 12 16 -3 3 -20 -15 -23 -5 -9 31 29 80 16 109 -17 36 -19 -45 -48 -75
-59 -64 -3 3 -1 23 5 45 7 21 12 46 12 55 0 21 -24 21 -41 -1z"/>
<path d="M5909 483 c-12 -14 -12 -16 0 -8 11 6 13 3 8 -16 -4 -13 -10 -41 -13
-61 -6 -33 -4 -38 13 -38 11 0 28 10 39 21 19 22 19 22 -3 8 -31 -19 -34 -10
-18 45 19 63 5 88 -26 49z"/>
<path d="M6600 480 c-12 -12 -20 -33 -20 -53 0 -58 58 -88 93 -49 25 27 21 35
-7 17 -23 -15 -26 -15 -45 4 -23 23 -26 43 -11 72 13 23 38 25 46 4 6 -15 34
-21 34 -7 0 34 -60 42 -90 12z"/>
<path d="M6739 482 c-46 -38 -17 -122 42 -122 31 0 69 40 69 72 0 25 -44 68
-68 68 -11 0 -30 -8 -43 -18z m65 -14 c20 -29 20 -72 0 -89 -34 -28 -77 39
-55 87 13 30 35 31 55 2z"/>
<path d="M7011 491 c-8 -5 -9 -10 -3 -12 7 -3 6 -21 -3 -54 -7 -27 -9 -54 -5
-58 13 -15 42 -3 58 23 l16 25 -28 -25 -29 -25 7 30 c22 100 20 116 -13 96z"/>
<path d="M7459 471 c-25 -25 -30 -37 -27 -68 2 -31 7 -39 27 -41 27 -4 71 16
71 32 0 6 -5 5 -12 -2 -17 -17 -58 -15 -64 3 -8 21 15 74 37 85 26 15 42 12
35 -5 -3 -9 0 -15 10 -15 28 0 11 35 -19 38 -20 2 -36 -5 -58 -27z"/>
<path d="M5990 453 c-21 -60 -21 -93 1 -93 10 0 21 5 25 12 4 7 3 8 -4 4 -16
-9 -15 9 3 67 18 59 -3 68 -25 10z"/>
<path d="M7090 458 c-20 -57 -24 -98 -7 -98 8 0 21 8 28 17 12 14 12 16 0 8
-14 -8 -14 6 5 79 9 38 -12 33 -26 -6z"/>
<path d="M6130 470 c0 -6 32 -10 75 -10 43 0 75 4 75 10 0 6 -32 10 -75 10
-43 0 -75 -4 -75 -10z"/>
<path d="M1740 435 c0 -33 -2 -35 -35 -35 -19 0 -35 -4 -35 -10 0 -5 16 -10
35 -10 33 0 35 -2 35 -35 0 -19 5 -35 10 -35 6 0 10 16 10 35 0 33 2 35 36 35
21 0 33 4 29 10 -3 6 -19 10 -36 10 -27 0 -29 3 -29 35 0 19 -4 35 -10 35 -5
0 -10 -16 -10 -35z"/>
<path d="M447 432 c-21 -24 -22 -95 -2 -112 21 -17 64 -16 82 3 13 13 12 14
-12 9 -29 -5 -45 9 -45 41 0 13 8 17 35 17 37 0 42 9 25 41 -14 25 -61 25 -83
1z m56 -12 c4 -15 0 -20 -14 -20 -12 0 -19 7 -19 20 0 11 6 20 14 20 7 0 16
-9 19 -20z"/>
<path d="M899 433 c-12 -14 -12 -16 0 -8 11 6 13 2 8 -23 -4 -18 -10 -45 -13
-62 -5 -25 -3 -30 12 -30 10 0 28 10 41 22 l23 21 0 -21 c0 -26 22 -29 41 -4
13 15 12 16 -3 3 -20 -15 -23 -5 -9 31 29 80 16 109 -17 36 -19 -45 -48 -75
-59 -64 -3 3 -1 23 5 45 7 21 12 46 12 55 0 21 -24 21 -41 -1z"/>
<path d="M1378 439 c-26 -15 -34 -74 -14 -104 19 -29 75 -35 96 -10 11 13 8
14 -19 9 -26 -6 -32 -3 -40 17 -12 32 -6 39 35 39 38 0 45 17 16 43 -21 19
-49 21 -74 6z m52 -19 c0 -13 -7 -20 -20 -20 -22 0 -23 1 -14 24 9 23 34 20
34 -4z"/>
<path d="M1939 435 c-32 -17 -54 -66 -45 -100 5 -20 12 -25 40 -25 20 0 40 8
51 20 19 21 19 21 -9 6 -16 -8 -35 -12 -42 -9 -23 9 -17 67 9 91 27 25 52 29
43 7 -3 -9 0 -15 10 -15 23 0 13 35 -11 37 -11 2 -32 -4 -46 -12z"/>
<path d="M6370 440 c0 -6 32 -10 75 -10 43 0 75 4 75 10 0 6 -32 10 -75 10
-43 0 -75 -4 -75 -10z"/>
<path d="M1125 420 c-4 -6 23 -10 75 -10 52 0 79 4 75 10 -3 6 -37 10 -75 10
-38 0 -72 -4 -75 -10z"/>
<path d="M6130 410 c0 -6 32 -10 75 -10 43 0 75 4 75 10 0 6 -32 10 -75 10
-43 0 -75 -4 -75 -10z"/>
<path d="M1120 360 c0 -6 33 -10 80 -10 47 0 80 4 80 10 0 6 -33 10 -80 10
-47 0 -80 -4 -80 -10z"/>
</g>
</svg>
