<svg xmlns="http://www.w3.org/2000/svg" xmlns:xlink="http://www.w3.org/1999/xlink" width="268.01" height="37.22" viewBox="-0.24 -0.23 201.01 27.92"><defs><path id="l" d="M7.878-2.75c.204 0 .419 0 .419-.239s-.215-.239-.419-.239H1.411c-.204 0-.419 0-.419.24s.215.238.419.238z"/><path id="k" d="M3.288-5.105c.012-.167.012-.454-.3-.454-.19 0-.346.155-.31.31v.156l.167 1.853-1.53-1.112c-.108-.06-.131-.083-.215-.083-.167 0-.323.167-.323.334 0 .192.12.24.24.3l1.697.812-1.65.801c-.191.096-.287.144-.287.323s.156.335.323.335c.084 0 .107 0 .406-.227l1.34-.969-.18 2.009c0 .25.215.31.31.31.144 0 .324-.083.324-.31l-.18-2.009 1.53 1.112c.108.06.132.084.216.084.167 0 .323-.168.323-.335 0-.18-.108-.24-.252-.31-.717-.36-.74-.36-1.685-.802l1.65-.8c.19-.096.287-.144.287-.324s-.156-.334-.323-.334c-.084 0-.108 0-.407.227L3.12-3.24z"/><path id="f" d="M3.885 2.905c0-.036 0-.06-.203-.263-1.195-1.207-1.865-3.18-1.865-5.619 0-2.32.562-4.316 1.949-5.726.12-.108.12-.132.12-.168 0-.071-.06-.095-.108-.095-.156 0-1.136.86-1.722 2.032-.61 1.207-.884 2.487-.884 3.957 0 1.064.167 2.487.789 3.766.705 1.435 1.685 2.212 1.817 2.212.048 0 .107-.024.107-.096"/><path id="i" d="M3.371-2.977c0-.908-.12-2.39-.789-3.778C1.877-8.189.897-8.966.765-8.966c-.048 0-.107.024-.107.095 0 .036 0 .06.203.263 1.195 1.208 1.865 3.18 1.865 5.62 0 2.319-.562 4.315-1.949 5.726-.12.107-.12.131-.12.167 0 .072.06.096.108.096C.921 3 1.901 2.14 2.487.968c.61-1.22.884-2.51.884-3.945"/><path id="j" d="M8.07-3.873c.167 0 .382 0 .382-.216 0-.227-.203-.227-.382-.227H1.028c-.167 0-.382 0-.382.215 0 .228.203.228.382.228zm0 2.223c.167 0 .382 0 .382-.215 0-.227-.203-.227-.382-.227H1.028c-.167 0-.382 0-.382.215 0 .227.203.227.382.227z"/><path id="g" d="M4.674-4.495c-.227 0-.334 0-.502.143a.64.64 0 0 0-.203.43c0 .24.18.383.407.383.287 0 .61-.239.61-.717 0-.574-.55-1.016-1.376-1.016-1.566 0-3.132 1.71-3.132 3.407C.478-.825 1.124.12 2.343.12c1.626 0 2.654-1.268 2.654-1.423 0-.072-.071-.132-.12-.132-.035 0-.047.012-.155.12C3.957-.3 2.822-.12 2.367-.12c-.825 0-1.088-.717-1.088-1.315 0-.418.203-1.578.634-2.39.31-.563.956-1.208 1.71-1.208.155 0 .812.024 1.051.538"/><path id="a" d="M6.013-7.998c.012-.048.036-.12.036-.18 0-.119-.12-.119-.143-.119-.012 0-.598.048-.658.06-.203.012-.382.036-.597.048-.3.024-.383.036-.383.25 0 .12.096.12.263.12.586 0 .598.108.598.227a.8.8 0 0 1-.036.204l-.73 2.905c-.13-.311-.454-.79-1.075-.79-1.351 0-2.81 1.746-2.81 3.516C.478-.574 1.172.12 1.985.12c.657 0 1.219-.515 1.554-.909.12.705.681.909 1.04.909s.645-.216.86-.646c.192-.407.36-1.136.36-1.184 0-.06-.049-.107-.12-.107-.108 0-.12.06-.168.239-.179.705-.406 1.458-.896 1.458-.347 0-.37-.31-.37-.55 0-.047 0-.298.083-.633zM3.6-1.423c-.06.204-.06.227-.228.455-.263.334-.789.848-1.35.848-.49 0-.766-.442-.766-1.147 0-.658.37-1.997.598-2.499.407-.837.968-1.267 1.435-1.267.789 0 .944.98.944 1.076 0 .012-.036.167-.048.191z"/><path id="d" d="M3.383-1.71c0-.06-.048-.107-.12-.107-.107 0-.119.036-.179.239C2.774-.49 2.284-.12 1.89-.12c-.144 0-.31-.035-.31-.394 0-.323.143-.682.274-1.04l.837-2.224c.036-.095.12-.31.12-.538 0-.502-.36-.956-.945-.956-1.1 0-1.542 1.733-1.542 1.829 0 .048.048.108.131.108.108 0 .12-.048.168-.216.287-1.004.74-1.482 1.207-1.482.108 0 .311.012.311.394 0 .311-.155.706-.251.969l-.837 2.223C.98-1.255.91-1.064.91-.849c0 .538.37.969.944.969 1.1 0 1.53-1.746 1.53-1.83m-.095-5.75a.4.4 0 0 0-.407-.395c-.275 0-.586.263-.586.574 0 .3.251.395.395.395.323 0 .598-.311.598-.574"/><path id="e" d="M2.463-3.503c.024-.072.323-.67.765-1.052.31-.287.717-.478 1.183-.478.479 0 .646.359.646.837 0 .681-.49 2.044-.73 2.69-.107.287-.167.442-.167.657 0 .538.371.969.945.969 1.112 0 1.53-1.758 1.53-1.83 0-.06-.048-.107-.12-.107-.107 0-.119.036-.179.239-.275.98-.729 1.458-1.195 1.458-.12 0-.311-.012-.311-.394 0-.299.131-.658.203-.825.24-.658.741-1.996.741-2.678 0-.717-.418-1.255-1.327-1.255-1.064 0-1.626.753-1.84 1.052-.037-.682-.527-1.052-1.053-1.052-.382 0-.645.227-.849.633C.49-4.209.323-3.49.323-3.443s.048.108.131.108c.096 0 .108-.012.18-.287.19-.73.406-1.411.884-1.411.275 0 .37.191.37.55 0 .263-.119.73-.202 1.1l-.335 1.29c-.048.228-.18.766-.24.981-.083.311-.214.873-.214.933 0 .167.131.299.31.299a.46.46 0 0 0 .407-.252c.024-.06.131-.478.191-.717l.263-1.076z"/><path id="h" d="M5.452-3.288c0-1.135-.742-1.984-1.83-1.984C2.044-5.272.49-3.551.49-1.865.49-.729 1.231.12 2.32.12c1.59 0 3.132-1.722 3.132-3.408M2.332-.12c-.599 0-1.04-.478-1.04-1.315 0-.55.286-1.769.62-2.367.539-.92 1.208-1.231 1.698-1.231.586 0 1.04.478 1.04 1.315 0 .478-.25 1.757-.705 2.487-.49.8-1.147 1.111-1.614 1.111"/><path id="c" d="M2.726-2.391c.203.036.526.108.598.12.155.047.693.239.693.812 0 .371-.335 1.34-1.722 1.34-.25 0-1.147-.036-1.386-.694.478.06.717-.31.717-.574 0-.25-.167-.382-.407-.382-.263 0-.61.203-.61.74C.61-.322 1.328.12 2.284.12 4.101.12 4.64-1.22 4.64-1.841c0-.18 0-.514-.383-.897-.299-.287-.586-.346-1.231-.478-.323-.072-.837-.18-.837-.717 0-.24.215-1.1 1.35-1.1.503 0 .993.191 1.113.622a.5.5 0 0 0-.55.466c0 .25.227.323.334.323.168 0 .502-.132.502-.634s-.454-1.016-1.386-1.016c-1.566 0-1.985 1.231-1.985 1.721 0 .909.885 1.1 1.16 1.16"/><path id="b" d="M5.667-4.878c-.383.072-.526.359-.526.586 0 .287.227.383.394.383.359 0 .61-.311.61-.634 0-.502-.574-.73-1.076-.73-.73 0-1.136.718-1.243.945-.275-.896-1.017-.944-1.232-.944C1.374-5.272.73-3.706.73-3.443c0 .048.048.108.132.108.095 0 .12-.072.143-.12.407-1.327 1.208-1.578 1.554-1.578.538 0 .646.502.646.789 0 .263-.072.538-.215 1.112l-.407 1.638C2.403-.777 2.056-.12 1.422-.12c-.06 0-.358 0-.609-.155a.62.62 0 0 0 .526-.586c0-.239-.18-.382-.406-.382a.623.623 0 0 0-.598.633c0 .502.562.73 1.076.73.574 0 .98-.455 1.231-.945.191.705.79.945 1.231.945 1.22 0 1.865-1.567 1.865-1.83 0-.06-.047-.107-.12-.107-.107 0-.119.06-.154.155C5.14-.61 4.447-.12 3.909-.12c-.418 0-.645-.31-.645-.8 0-.264.048-.455.239-1.244L3.92-3.79c.18-.717.586-1.243 1.136-1.243.024 0 .359 0 .61.155"/></defs><g transform="translate(-65.342 -61.026)scale(1.13)"><use xlink:href="#a" x="60.93" y="62.1"/><path d="M57.61 66.96h12.73v.48H57.61z"/><use xlink:href="#a" x="57.61" y="78.39"/><use xlink:href="#b" x="63.69" y="78.39"/><use xlink:href="#c" x="71.54" y="70.19"/><use xlink:href="#d" x="77.05" y="70.19"/><use xlink:href="#e" x="81.05" y="70.19"/><use xlink:href="#f" x="88.03" y="70.19"/><use xlink:href="#g" x="92.59" y="70.19"/><use xlink:href="#h" x="97.62" y="70.19"/><use xlink:href="#c" x="103.25" y="70.19"/><use xlink:href="#b" x="108.77" y="70.19"/><use xlink:href="#i" x="115.42" y="70.19"/><use xlink:href="#j" x="123.29" y="70.19"/><use xlink:href="#g" x="135.72" y="70.19"/><use xlink:href="#h" x="140.75" y="70.19"/><use xlink:href="#c" x="146.38" y="70.19"/><use xlink:href="#f" x="151.9" y="70.19"/><use xlink:href="#g" x="156.45" y="70.19"/><use xlink:href="#h" x="161.49" y="70.19"/><use xlink:href="#c" x="167.11" y="70.19"/><use xlink:href="#b" x="172.63" y="70.19"/><use xlink:href="#i" x="179.28" y="70.19"/><use xlink:href="#k" x="186.49" y="70.19"/><use xlink:href="#f" x="195.12" y="70.19"/><use xlink:href="#l" x="199.68" y="70.19"/><use xlink:href="#c" x="208.97" y="70.19"/><use xlink:href="#d" x="214.49" y="70.19"/><use xlink:href="#e" x="218.48" y="70.19"/><use xlink:href="#b" x="225.47" y="70.19"/><use xlink:href="#i" x="232.12" y="70.19"/></g></svg>