<svg xmlns="http://www.w3.org/2000/svg" width="400" height="225" version="1.0" viewBox="0 0 300 168.75"><defs><clipPath id="a"><path d="M.223 0h299.554v168.5H.223Zm0 0"/></clipPath><clipPath id="b"><path d="M13 51.86h286v65.152H13Zm0 0"/></clipPath><clipPath id="c"><path d="M47 51.86h185V99H47Zm0 0"/></clipPath><clipPath id="d"><path d="M54 51.86h233V96H54Zm0 0"/></clipPath></defs><g fill="#fff" clip-path="url(#a)"><path d="M.223 0h299.554v168.5H.223Zm0 0"/><path d="M.223 0h299.554v168.5H.223Zm0 0"/></g><g clip-path="url(#b)"><path fill="#060606" fill-rule="evenodd" d="M26.73-.59c-.277.313-.265.422.047.422.614 0 .918.559.809 1.484-.055.48-.164.875-.234.875-.075 0-.16.23-.188.512l-.055.512-1.78.035c-1.415.027-1.845.094-2.067.32a1.9 1.9 0 0 1-.578.383c-.317.102-1.223 1.29-1.223 1.594 0 .101-.07.183-.152.183-.086 0-.207.235-.27.516a4.5 4.5 0 0 1-.352.969c-.687 1.32-.242 4.234.77 5.043.703.562 2.793.168 3.54-.668.23-.254.491-.465.581-.465.094 0 .074.09-.035.203-.676.676-.27.977 1.312.977 1.641 0 2.067-.325 1.098-.844-.527-.281-.547-.809-.094-2.54.18-.687.38-1.651.442-2.136.062-.488.172-.887.242-.887s.223-.718.344-1.601c.12-.879.273-1.602.34-1.602.062 0 .168-.394.23-.879.066-.484.18-.96.254-1.054s.184-.496.242-.89l.11-.716-1.56.008c-1.132.004-1.62.07-1.773.246m-.886 4.805c0 .09.105.168.234.168s.285.203.348.449c.129.512-.055 2.586-.227 2.586-.062 0-.207.344-.32.766-.223.824-.25.867-1.356 2.039-1.039 1.105-1.87 1.043-1.878-.141 0-.25-.086-.504-.188-.566-.129-.082-.129-.164 0-.297.102-.102.184-.43.184-.727 0-.734.363-2.254.535-2.254.078 0 .14-.086.14-.183 0-.41.95-1.496 1.391-1.594.254-.059.465-.176.465-.262s.152-.152.336-.152c.183 0 .336.074.336.168m15.511 16.601V36.41h4.887v-.422c0-.414-.015-.422-1.433-.422h-1.434V6.238h2.867V5.227h-4.887zM110.133 5.73v.508h2.695v29.328h-1.348c-1.324 0-1.347.008-1.347.422v.422h4.887V5.227h-4.887zm12.644 13.57v.927h11.125v-1.852h-11.125zM13.875 20.48v.925h22.422v-1.851H13.875zm224.316-.617c-.156.168-.28.395-.28.504 0 .11-.075.2-.169.2s-.168.3-.168.671.074.676.168.676.168.11.168.238c0 .133.242.364.531.508.579.285 1.493.36 1.493.117 0-.082.152-.191.336-.238.187-.047.34-.21.34-.355 0-.149.074-.27.167-.27.36 0 .184-1.484-.23-1.93-.508-.547-1.906-.62-2.356-.12M122.777 22.84v.93h11.125v-1.856h-11.125zM22.516 25.875c-.278.316-.266.422.05.422.61 0 .918.558.809 1.484-.059.48-.164.875-.238.875-.075 0-.16.23-.188.512l-.054.512-1.782.039c-1.414.027-1.843.093-2.066.316-.156.156-.414.328-.578.383-.313.105-1.223 1.289-1.223 1.594 0 .101-.066.183-.152.183s-.207.235-.27.52a4.6 4.6 0 0 1-.351.969c-.684 1.316-.239 4.23.773 5.039.715.574 2.774.168 3.578-.7.254-.273.512-.445.578-.378.063.062.028.113-.082.113-.105 0-.195.23-.195.508v.504h1.516c1.656 0 2.066-.325 1.078-.852-.453-.242-.504-2.074-.07-2.594.078-.097.238-.804.355-1.57.117-.762.262-1.39.324-1.39.059 0 .211-.72.336-1.598.125-.883.281-1.602.348-1.602.062 0 .168-.398.234-.883.063-.484.176-.957.25-1.054.074-.094.184-.493.242-.887l.11-.719-1.559.008c-1.133.004-1.621.074-1.773.246m3.836 4.3c0 .184.093.34.21.34.254.008 1.137 1.137 1.137 1.458 0 .12.07.222.153.222s.242.383.351.844c.113.465.274.844.356.844.378 0 .02.449-1.805 2.246-2.465 2.434-2.473 2.539-.192 2.605 1.723.051 2.133-.187 1.391-.804-.422-.352-.289-.809.457-1.606.871-.922.918-.926 1.059-.082.062.371.172.676.242.676s.219.418.336.926l.207.926h1.418c1.656 0 1.957-.368.836-1.028-.426-.254-.613-.504-.692-.922-.058-.316-.168-.578-.238-.578-.074 0-.183-.207-.25-.465a6.5 6.5 0 0 0-.371-1.004l-.254-.539 1.8-1.78c2.372-2.34 2.376-2.618.063-2.618h-1.535l.125.465c.274 1.031.168 1.539-.433 2.078l-.578.516-.153-.684c-.082-.379-.207-.688-.273-.688-.07 0-.176-.265-.239-.59-.062-.324-.183-.59-.27-.59-.089 0-.163-.113-.163-.253 0-.203-.262-.254-1.348-.254-1.234 0-1.347.027-1.347.34m-4.72.504c0 .093.106.168.24.168.132 0 .292.16.355.351.128.414-.07 2.684-.243 2.684-.062 0-.207.344-.32.765-.219.825-.25.868-1.355 2.04-1.04 1.105-1.872 1.042-1.88-.141 0-.25-.081-.504-.183-.567-.133-.082-.133-.164 0-.296.102-.102.184-.426.184-.727 0-.73.36-2.254.53-2.254.08 0 .142-.082.142-.183 0-.41.949-1.493 1.39-1.594.258-.059.465-.176.465-.262 0-.082.152-.152.336-.152.187 0 .34.074.34.168m22.363 33.996c-.254.254-.082.523.387.62.543.106.86.778.547 1.165-.09.113-.22.594-.282 1.059-.125.933-.394 1.492-.539 1.132-.105-.261-2.754-.3-2.754-.043 0 .094-.148.168-.328.168a.96.96 0 0 0-.578.254c-.136.137-.324.254-.414.254-.086 0-.34.23-.558.52a23 23 0 0 1-.57.715c-.262.304-.587 1.105-.587 1.453 0 .175-.093.347-.21.386-.153.051-.212.637-.212 2.164v2.094l1.18 1.297 1.168-.066c.711-.04 1.195-.145 1.238-.27.036-.113.168-.203.297-.203a.49.49 0 0 0 .364-.21c.39-.61.656-.626.59-.036l-.067.582h1.535c1.512 0 1.535-.004 1.535-.406 0-.317-.113-.434-.508-.52-.496-.11-.82-1.433-.351-1.433.086 0 .21-.493.273-1.098.067-.602.18-1.094.254-1.094s.23-.683.348-1.515c.121-.836.27-1.52.336-1.52s.172-.453.238-1.012c.063-.554.176-1.047.25-1.093s.23-.73.352-1.524c.117-.793.273-1.48.351-1.531a.32.32 0 0 0 .14-.242c0-.18-3.25-.223-3.425-.047m-.293 5.047c.176.18.043 2.836-.144 2.898-.098.035-.184.203-.184.375 0 .75-1.75 3.2-2.285 3.2a.33.33 0 0 0-.285.206c-.051.153-.145.137-.348-.066-.152-.156-.363-.309-.469-.344-.234-.078-.242-2.773-.008-3.055.09-.109.215-.48.282-.824.062-.347.261-.793.433-.996.18-.203.32-.465.32-.582s.231-.312.508-.437c.278-.121.504-.274.504-.336 0-.282 1.407-.313 1.676-.04m85.309 5.548c0 .402.039.418 1.097.418h1.094v21.41h-1.094c-.984 0-1.097.035-1.097.336 0 .316.113.34 1.855.34h1.856V74.847h-3.711zM58.21 87.996v11.461h3.71v-1.012h-2.19v-21.07h1.093c1.059 0 1.098-.016 1.098-.422v-.422H58.21zm83.445-3.625v.926h11.293V83.44h-11.293zM31.238 85.887v.93H53.66V84.96H31.238zm110.418 2.023v.926h11.293v-1.852h-11.293zM39.781 91.14c-.254.255-.082.528.387.622.562.113.824.707.543 1.23-.09.172-.219.66-.281 1.086-.133.871-.395 1.383-.535 1.04-.102-.247-2.754-.305-2.754-.063 0 .082-.223.191-.493.246-.941.187-2.543 2.168-2.543 3.14 0 .172-.093.348-.21.383-.153.051-.211.645-.211 2.18v2.11l.617.616c.601.606 2.5.957 2.5.465 0-.082.21-.199.465-.265.254-.063.668-.336.918-.606l.453-.492-.098.59-.094.586h1.54c1.652 0 2.304-.477 1.03-.758-.495-.11-.82-1.434-.347-1.434.082 0 .207-.492.27-1.093.066-.602.175-1.098.246-1.098.066 0 .222-.68.347-1.516s.278-1.515.344-1.515.172-.457.238-1.012c.063-.559.18-1.05.254-1.098.078-.046.235-.77.356-1.601.117-.836.273-1.516.347-1.516.078 0 .137-.078.137-.168 0-.187-3.242-.242-3.426-.058m3.934 4.441c0 .184.07.336.16.336.254 0 .805.656 1.121 1.328.156.336.336.649.395.695.058.047.207.41.324.813.25.86.39.64-1.875 2.918-2.18 2.2-2.18 2.336.043 2.336 1.676 0 2.383-.371 1.41-.742-.434-.168-.164-.989.578-1.77.824-.863.781-.875 1.04.281.116.532.269 1.043.339 1.137s.176.379.238.633c.11.46.117.46 1.54.46 1.59 0 2.015-.39.921-.843-.297-.121-.55-.375-.61-.61-.054-.218-.16-.398-.23-.398-.074 0-.18-.265-.242-.586-.058-.32-.21-.687-.336-.808-.734-.735-.55-1.153 1.328-3.032 2.344-2.343 2.336-2.488-.175-2.488-1.414 0-2.036.403-1.145.746.43.164.16 1.047-.523 1.73-.528.528-.594.555-.594.239 0-.195-.067-.355-.145-.355-.082 0-.199-.313-.261-.7-.227-1.433-.5-1.66-1.989-1.66-1.203 0-1.312.031-1.312.34m-4.227.606c.176.18.047 2.84-.144 2.902-.098.031-.18.2-.18.37 0 .755-1.777 3.2-2.32 3.2-.102 0-.215.094-.25.211-.051.152-.149.133-.348-.07-.156-.153-.367-.309-.469-.34-.238-.082-.246-2.777-.011-3.059.09-.109.214-.48.28-.824.063-.344.263-.793.438-.996.176-.203.317-.465.317-.582 0-.113.23-.312.508-.434.277-.125.504-.277.504-.34 0-.28 1.406-.312 1.675-.038m208.54 35.792v3.047h.847l-.043-2.992c-.047-2.96-.05-2.992-.426-3.047l-.379-.054zm16.97-2.91c-.142.14-.15 5.325-.013 5.692.235.605.743.3.746-.45 0-.78.286-1.406.45-.992.05.125.234.348.41.5.172.149.316.352.316.45 0 .496 1.067.968 1.239.546.066-.168.085-.168.097 0 .016.246 2.203.309 2.203.063 0-.082.153-.188.34-.238.883-.23.211-2.141-.754-2.141-.144 0-.258-.07-.258-.152s-.191-.2-.421-.254c-.985-.25-.48-.66.671-.555 1.082.102 1.098.098 1.098-.312 0-.297-.094-.415-.328-.415-.18 0-.375-.074-.43-.167-.316-.508-2.039.113-2.215.8-.23.883.149 1.293 1.75 1.899 1.024.386.352.789-1.058.629-.457-.051-.762-.012-.8.101-.036.102-.208-.039-.384-.316-.176-.274-.36-.54-.41-.586-.566-.543-.55-.66.16-1.344.668-.64.832-1.16.41-1.3-.101-.036-.593.327-1.093.808l-.91.867-.051-1.621c-.047-1.61-.258-2.02-.766-1.512m6.629 2.922v3.035h.422c.418 0 .422-.011.422-1.492 0-1.687.238-2.12 1.125-2.02l.476.055.047 1.739.051 1.738.457-.05.457-.056.05-1.597c.055-1.793-.089-2.23-.862-2.617-.575-.286-1.297-.332-1.297-.082 0 .093-.114.167-.25.167-.196 0-.254-.214-.254-.925 0-.88-.024-.93-.422-.93h-.422zm-30.562-2.426c-1.77.957-1.907 5.125-.172 5.125.125 0 .222.075.222.168 0 .301 2.309.207 2.426-.097.254-.657.137-.746-.984-.746-1.926 0-2.868-2.028-1.52-3.278.477-.441.578-.468 2.016-.5.597-.011.851-.086.887-.27.117-.613-1.954-.902-2.875-.402m4.097 1.079c0 .093-.14.167-.316.167a.75.75 0 0 0-.508.231c-.332.398.156.617 1.133.5.808-.098.87-.078.87.258 0 .285-.1.36-.495.36-.274 0-.535.07-.586.151-.055.083-.305.2-.559.266-.8.2-1.11 1.871-.383 2.063.188.05.34.156.34.238 0 .223 1.418.18 1.649-.055.16-.156.203-.156.203 0 0 .113.152.203.34.203.359 0 .523-3.316.191-3.847-.332-.524-1.879-.965-1.879-.535m5.266.136c-.301.145-.547.328-.547.41s-.113.266-.25.403c-.16.16-.254.574-.25 1.129 0 1.238.133 1.59.687 1.832.27.12.489.273.489.343 0 .27 1.812.141 1.922-.136.265-.7-.493-1.098-1.047-.543-.157.156-.2.156-.2 0 0-.114-.105-.203-.226-.203-.715 0-1.059-1.532-.496-2.192.476-.554 2.07-.492 2.07.086 0 .23.063.418.14.418.075 0 .231.504.345 1.117.285 1.559 1.082 2.211 1.308 1.075.059-.278.168-.504.25-.504s.149-.094.149-.211c.003-1.211.625-1.688.66-.508.039 1.16 1.363 2.523 1.363 1.402 0-.18.062-.367.144-.414.079-.05.239-.66.36-1.36.117-.698.281-1.269.363-1.269.078 0 .145-.238.145-.527 0-.461-.047-.512-.38-.422a4 4 0 0 1-.491.106c-.059 0-.16.375-.227.835-.156 1.149-.52 1.43-.672.52-.062-.375-.183-.68-.27-.68-.085 0-.152-.152-.152-.34 0-.246-.113-.335-.422-.335-.261 0-.421.093-.421.253 0 .137-.07.25-.157.25-.086 0-.25.418-.363.93-.258 1.149-.418 1.172-.562.082-.06-.46-.184-.84-.274-.84s-.164-.152-.164-.34c0-.316-.078-.355-.867-.402-.156-.008-.34-.074-.41-.144-.196-.196-.942-.11-1.547.18m8.726-.157c0 .082-.191.2-.422.258s-.421.21-.421.34c0 .129-.094.27-.211.308-.684.227-.075 3.16.66 3.16.125 0 .226.075.226.168s.34.168.758.168.758-.058.758-.129c0-.07.172-.203.379-.293 1.14-.503.851-3.773-.336-3.789-.117-.004-.211-.078-.211-.171s-.266-.168-.59-.168-.59.066-.59.148m4.215.008c0 .097-.265.18-.59.18h-.59v2.105c0 1.996.016 2.11.336 2.11.305 0 .336-.114.336-1.145 0-.633.07-1.219.157-1.309.086-.09.18-.351.21-.582.047-.355.157-.43.7-.472.586-.051.637-.094.59-.508-.055-.461-1.149-.82-1.149-.38m13.653-.003c0 .086-.223.207-.493.266-.37.082-.523.23-.605.605-.059.27-.18.492-.262.492-.57 0 .098 2.496.711 2.656.172.043.313.149.313.23 0 .083.378.15.843.15.461 0 .84-.071.84-.157s.137-.2.301-.254c.793-.25 1.047-2.094.43-3.137-.426-.718-2.078-1.394-2.078-.851m4.214.016c0 .093-.265.167-.59.167h-.59v5.922l.38-.05c.324-.047.386-.172.43-.856l.054-.8h.832c.457 0 .832-.075.832-.169 0-.093.11-.168.242-.168.633 0 1.078-1.84.684-2.824-.383-.953-2.274-1.972-2.274-1.222m5.45.148c-1.36.695-1.465 3.898-.125 3.898.132 0 .238.075.238.168s.41.168.91.168c.914 0 1.113-.136 1.113-.773 0-.3-.949-.324-1.07-.027-.055.136-.133.152-.223.043a2 2 0 0 0-.476-.356c-.246-.137-.352-.394-.387-.965-.082-1.203.137-1.46 1.234-1.46.766 0 .922-.052.922-.298-.004-.644-1.21-.867-2.136-.398m3.652-.148c0 .093-.082.167-.184.167-.297 0-.988.731-.992 1.043 0 .157-.078.333-.172.391-.21.129-.222 1.043-.011 1.172.086.05.203.32.265.594.059.277.25.539.434.597.18.055.324.176.324.262s.379.156.844.156.844-.066.844-.148.136-.188.304-.23c.84-.22 1.149-2.555.438-3.262-.782-.774-2.094-1.239-2.094-.742m4.215 0c0 .093-.266.167-.59.167h-.59v4.215h.422c.422 0 .422 0 .422-1.675 0-1.829.129-2.04 1.11-1.793.398.101.41.144.41 1.785 0 1.683 0 1.683.417 1.683.422 0 .422 0 .422-1.675 0-1.829.13-2.04 1.11-1.793.398.101.41.144.41 1.785 0 1.57.02 1.683.336 1.683s.336-.113.336-1.925v-1.93l-.489-.348c-.492-.351-1.367-.476-1.367-.199 0 .281-.746.344-1.125.098-.43-.282-1.234-.332-1.234-.078m-34.305.972c.945.692.598 2.442-.484 2.442-1 0-1.524-1.418-.825-2.235.286-.336.985-.445 1.31-.207m17.73-.027c.707.187.668 2.27-.04 2.402-.18.035-.382.149-.449.254-.09.137-.125.133-.129-.02 0-.117-.113-.21-.25-.21-.351 0-.593-.543-.593-1.325 0-1.011.472-1.367 1.46-1.101m4.653.558c.195.754.016 1.688-.348 1.82-.16.06-.34.18-.398.274-.067.102-.215.059-.375-.101-.149-.145-.352-.293-.457-.328-.27-.09-.223-2.008.05-2.188.551-.36 1.372-.078 1.528.523m9.164.07c.258.747-.047 1.798-.52 1.798-.144 0-.261.07-.261.16 0 .426-1.016-.453-1.114-.961-.316-1.676 1.356-2.559 1.895-.996m-45.453 1.273c0 .348-.711.676-1.223.563-.336-.075-.398-.645-.082-.77.563-.23 1.305-.11 1.305.207m37.793.559c-.387.387-.008.976.629.976.289 0 .351-.105.351-.59 0-.632-.527-.84-.98-.386"/></g><g clip-path="url(#c)"><path fill="#00f" fill-rule="evenodd" d="M228.133 5.11c-.41.19-.637.343-1.067.726a1.9 1.9 0 0 1-.562.297c-.195.062-.512.254-.711.422-.856.742.027 1.34 1.05.71.313-.195.622-.355.68-.355s.106 1.332.106 2.961c0 3.281-.02 3.34-1.07 3.535-.543.102-.618.176-.618.606v.492l2.575-.047 2.566-.047.055-.437c.047-.414-.008-.45-.801-.555-.586-.078-.852-.191-.852-.36 0-.136-.078-.245-.172-.245-.105 0-.167-1.434-.167-3.965 0-4.352.035-4.23-1.012-3.739m-126.43 1.36c0 .129.164.277.363.328.371.098.36 2.23-.015 2.469-.074.05-.196.582-.262 1.183-.07.606-.184 1.137-.25 1.18-.07.047-.18.445-.242.887l-.121.8h.836c.886 0 1.039-.136 1.039-.941 0-.227.07-.543.156-.703.086-.164.238-.746.34-1.297.101-.55.238-1.043.308-1.094.067-.054.23-.304.364-.558s.281-.465.336-.465.312-.184.578-.41c.765-.66 1.015-.418.894.879-.054.597-.168 1.175-.254 1.28-.085.106-.25.759-.37 1.454-.122.695-.294 1.312-.38 1.375-.418.281.168.48 1.41.48 1.079 0 1.34-.05 1.34-.254a.25.25 0 0 0-.242-.25c-.484 0-.535-2.246-.066-2.82.34-.41.383-2.855.062-3.347-.324-.493-2.593-.579-2.75-.106-.152.457-.668.555-.586.113.079-.414.07-.414-1.203-.414-.98 0-1.285.055-1.285.23m105.024.02c0 .14.113.254.257.254.141 0 .301.117.356.258.12.316-.29 3.45-.453 3.45-.063 0-.164.433-.227.96-.062.527-.195 1.055-.297 1.176-.347.422-.027.73.762.73.809 0 .95-.152.95-1.023 0-.273.066-.492.144-.492.082 0 .199-.457.261-1.012.063-.559.18-1.012.258-1.012s.196-.207.258-.46c.36-1.442 2.281-2.258 2.281-.973 0 .418-.07.758-.156.758s-.21.418-.273.93c-.063.507-.176.925-.246.925s-.18.36-.247.8c-.062.442-.156.97-.203 1.18-.09.372-.058.38 1.274.38 1.105 0 1.367-.047 1.367-.255 0-.136-.11-.25-.242-.25-.488 0-.531-2.425-.047-2.726.305-.191.262-3.488-.047-3.684-.781-.496-2.656-.062-3.246.754-.07.098-.078-.07-.02-.37l.106-.548h-1.285c-1.032 0-1.285.047-1.285.25m8.257 3.625v.844h8.094V9.27h-8.094zM54.672 9.59c0 .082-.266.2-.59.262-.324.058-.59.171-.59.25 0 .074-.21.18-.465.23-.257.05-.648.25-.87.445-.223.192-.458.348-.524.348-.23 0-1.637 1.453-1.75 1.805-.063.195-.223.398-.36.449a.41.41 0 0 0-.246.355c0 .141-.062.258-.136.258s-.235.281-.36.633c-.125.344-.285.668-.355.715s-.23.578-.352 1.18c-.12.601-.297 1.148-.394 1.214-.239.168-.235 7.184.004 7.348.097.066.265.605.375 1.203.109.594.27 1.125.355 1.18.09.055.219.324.285.601.067.282.262.688.434.907.172.222.312.48.312.574s.227.387.508.652c.277.266.504.543.504.617 0 .075.246.317.547.536.3.218.605.492.676.609.07.113.355.258.633.32.277.063.503.176.503.254 0 .082.172.2.38.262.21.066.421.183.472.266.05.078.441.19.867.25 1.246.171 1.442-1.465.207-1.7-.328-.058-.637-.218-.687-.351-.051-.137-.196-.246-.317-.246-.304 0-1.715-1.473-1.976-2.055-.114-.262-.258-.473-.317-.473-.062 0-.203-.379-.312-.843-.113-.465-.266-.844-.34-.844s-.191-.399-.258-.883c-.066-.488-.203-.938-.308-1.004-.274-.176-.266-6.844.011-7.016.11-.066.25-.52.313-1.003.066-.485.176-.88.246-.88s.207-.331.312-.738c.102-.402.301-.828.442-.945.14-.117.254-.32.254-.453 0-.129.113-.281.254-.332.136-.055.254-.172.254-.266 0-.226.71-.969.93-.972.097-.004.3-.137.452-.297.512-.547.797-.727 1.309-.828.535-.106.644-.473.402-1.368-.093-.359-.734-.558-.734-.226m36.625.101c-.492.555-.344 1.317.293 1.5.324.094.687.27.812.391.121.117.274.219.34.219.238 0 2.203 2.043 2.313 2.406.062.203.257.61.43.898.175.29.32.688.32.887 0 .195.066.36.148.36.192 0 .524 2.253.524 3.546 0 .555.074 1.004.168 1.004.093 0 .171.227.171.504 0 .282-.078.508-.171.508-.09 0-.168.434-.168.969 0 1.215-.344 3.75-.512 3.75-.067 0-.176.265-.235.59-.062.324-.171.59-.246.59s-.234.304-.355.675-.29.676-.371.676c-.078 0-.192.133-.254.293-.09.258-.914 1.105-1.598 1.648-.12.098-.488.286-.812.418-1.008.407-1.36 1.184-.762 1.68.266.223 1.606.086 1.606-.164 0-.078.226-.191.503-.254.282-.058.508-.16.508-.222 0-.063.242-.223.54-.352.511-.23 2.495-2.106 2.495-2.367 0-.067.153-.301.336-.512.184-.215.336-.492.336-.617s.07-.227.153-.227c.086 0 .242-.379.355-.843.11-.465.262-.844.336-.844.078 0 .191-.399.258-.883.066-.488.199-.988.3-1.113.25-.305.262-6.403.012-6.567-.097-.066-.23-.492-.293-.953-.062-.457-.172-.875-.25-.926-.074-.05-.234-.453-.355-.894-.121-.442-.277-.8-.348-.8s-.18-.196-.238-.435c-.11-.43-.234-.625-.813-1.261-.164-.18-.296-.387-.296-.465s-.348-.438-.774-.8c-.43-.364-.867-.747-.976-.849-.11-.105-.48-.289-.825-.414-.347-.125-.629-.285-.629-.355s-.265-.176-.59-.238c-.328-.059-.632-.176-.683-.258-.137-.219-.465-.172-.703.101m68.226-.101c0 .082-.265.2-.593.262-1.274.238-4.293 2.496-4.293 3.203 0 .125-.114.27-.254.324a.41.41 0 0 0-.254.355c0 .141-.063.258-.14.258-.079 0-.243.301-.364.672-.125.371-.277.676-.348.676-.066 0-.175.285-.238.633-.066.347-.18.707-.258.8-.625.758-.625 8.625 0 9.438.07.094.184.418.246.719.067.3.18.547.254.547s.184.257.242.566c.059.316.258.742.442.957.183.21.332.457.332.55 0 .09.23.384.508.65.277.265.504.546.504.628 0 .078.199.285.445.461.242.176.562.445.715.598.152.156.484.336.738.398.254.063.465.18.465.258 0 .074.168.191.379.254.207.066.422.183.472.266.309.48 1.641.355 1.754-.168.168-.758-.015-1.149-.59-1.266-.855-.168-2.535-1.59-3.027-2.559-.14-.273-.293-.535-.34-.582-.218-.215-.882-2.097-.968-2.738-.051-.395-.176-.773-.278-.836-.262-.172-.258-6.844.004-7.012.106-.066.242-.46.305-.879.066-.414.234-1.023.383-1.347.652-1.45.992-2.067 1.187-2.145.117-.043.211-.156.211-.25 0-.226.711-.969.934-.972.093-.004.297-.137.449-.297.516-.547.8-.727 1.312-.828.532-.106.641-.473.403-1.368-.098-.359-.739-.558-.739-.226m36.625.101c-.472.536-.34 1.317.25 1.489.305.09.551.226.551.308 0 .078.102.14.227.14.387 0 2.3 1.77 2.3 2.13 0 .11.106.238.239.289.129.05.285.324.347.605.063.286.172.52.243.52.07 0 .23.433.355.969.13.53.309 1.023.406 1.09.262.175.243 7.874-.02 8.406-.108.226-.284.804-.394 1.293-.109.484-.25.883-.316.883-.063 0-.219.28-.34.617-.125.34-.406.785-.625.988-.219.207-.402.445-.402.535 0 .203-.785.895-1.016.895-.094 0-.21.105-.262.23-.046.125-.386.328-.754.45-.363.117-.664.28-.664.359s-.113.14-.25.14c-.289 0-.168 1 .149 1.23.226.161 1.488-.007 1.617-.21.047-.082.297-.2.55-.266.255-.062.462-.164.462-.222 0-.063.242-.215.531-.348.676-.297 2.227-1.852 2.527-2.531.125-.285.278-.516.34-.516.172 0 .762-1.219.903-1.863.07-.32.187-.621.261-.672.188-.117.492-2.07.496-3.156 0-.489.075-.883.168-.883.098 0 .168-.508.168-1.184 0-.672-.07-1.18-.168-1.18-.093 0-.168-.359-.168-.8-.004-.992-.312-2.953-.484-3.07-.074-.051-.23-.45-.352-.891-.12-.442-.277-.8-.347-.8s-.18-.196-.238-.435c-.106-.43-.231-.625-.813-1.261-.16-.18-.293-.387-.293-.465 0-.074-.312-.395-.691-.715a43 43 0 0 1-.996-.86c-.168-.152-.575-.374-.91-.495-.333-.121-.606-.278-.606-.348s-.266-.176-.594-.238c-.324-.059-.633-.176-.683-.258-.137-.219-.465-.172-.704.101m-49.562 8.012c-.207.086-.379.23-.379.328 0 .094-.09.176-.195.176-.11 0-.34.125-.508.277-.297.27-.305.258-.203-.257l.11-.543-1.497.05c-1.66.055-2.059.348-1.066.79.52.226.64 1.902.16 2.21-.074.047-.188.559-.254 1.137-.066.582-.172 1.055-.234 1.055-.11 0-.528 2.3-.528 2.91 0 .242.156.293.91.293h.91l.188-1.07c.102-.586.184-1.23.184-1.43 0-.203.066-.367.144-.367.082 0 .192-.39.25-.871.055-.48.168-.918.242-.97.078-.054.243-.343.364-.644.12-.304.289-.55.37-.55.079 0 .15-.082.15-.18 0-.504 1.3-1.406 1.769-1.227.394.149.136 4.274-.27 4.274-.07 0-.18.418-.246.926-.062.511-.184.93-.262.93-.086 0-.152.265-.152.59v.589h1.52c1.667 0 2.039-.324 1.085-.95-.425-.277-.472-1.652-.062-1.921.07-.047.223-.746.336-1.559.117-.808.273-1.472.351-1.472.079 0 .141-.34.141-.758s-.066-.758-.152-.758-.203-.219-.262-.488c-.148-.668-1.809-.961-2.914-.52m-27.242 56.985c-.168.843-.133 1 .23 1 .184 0 .336.07.336.156s.227.207.504.265c.281.063.508.184.508.274 0 .086.133.207.293.265.347.125 1.562 1.344 1.562 1.567 0 .086.102.215.227.289s.32.418.433.766c.114.347.262.632.329.632.066 0 .218.477.34 1.055.12.578.292 1.145.382 1.254.246.3.371 5.168.168 6.543-.203 1.344-.703 3.328-.875 3.457-.062.043-.219.367-.344.715-.12.347-.285.633-.359.633s-.137.093-.137.21c0 .286-1.886 2.083-2.336 2.227-.195.063-.359.176-.359.258 0 .078-.234.195-.523.258-.477.105-.512.16-.422.625.058.281.101.586.101.68 0 .265 1.34.046 2.235-.364.441-.2.8-.43.8-.508 0-.082.184-.195.41-.25.454-.113 1.95-1.472 1.95-1.77 0-.1.066-.187.148-.187s.243-.226.36-.508c.113-.277.273-.503.351-.503.082 0 .196-.192.254-.422.059-.23.168-.422.242-.422.078 0 .23-.418.348-.926.113-.512.266-.93.336-.93s.18-.492.246-1.097c.063-.602.184-1.137.266-1.188.191-.12.195-5.082.004-5.199-.079-.047-.196-.559-.254-1.133-.059-.57-.172-1.12-.25-1.226-.078-.102-.239-.543-.36-.98-.117-.442-.32-.888-.445-.993-.129-.106-.234-.297-.234-.426 0-.125-.055-.23-.125-.23s-.23-.235-.36-.52c-.226-.512-2.129-2.515-2.386-2.515-.079 0-.243-.102-.368-.23-.336-.333-1.675-.895-2.449-1.028-.652-.11-.672-.098-.777.425m100.363-.28c0 .148-.078.269-.172.269-.09 0-.168.23-.168.508 0 .39.074.504.34.504.184 0 .336.07.336.156s.223.203.492.261c.27.063.531.22.586.352.05.133.188.242.309.242.12 0 .48.309.804.688.325.375.715.824.868.996.152.168.335.48.402.695.066.215.219.484.332.598.117.117.262.554.328.976.063.422.172.77.246.77.188 0 .52 2.941.52 4.633 0 1.648-.328 4.636-.508 4.636-.067 0-.172.313-.23.692-.122.742-.727 2.004-1.075 2.226a.5.5 0 0 0-.207.371c0 .29-.863 1.133-1.773 1.739-.371.246-.711.5-.758.562s-.293.168-.547.23c-.523.134-.613.626-.21 1.157.253.336 2.276.11 2.276-.258 0-.078.098-.144.215-.144.223 0 .746-.348 1.32-.883.176-.164.376-.297.446-.301.172-.004.883-.766.883-.953 0-.082.133-.27.297-.418.476-.441.89-1.043.992-1.45.054-.206.16-.378.234-.378s.188-.23.25-.516c.063-.285.219-.719.344-.96.125-.247.281-.962.344-1.59.062-.633.18-1.149.257-1.149.083 0 .149-1.098.149-2.441 0-1.52-.066-2.446-.168-2.446-.094 0-.168-.254-.168-.562 0-.805-.36-2.473-.531-2.473-.078 0-.145-.183-.145-.41 0-.223-.101-.512-.226-.637s-.32-.504-.43-.84c-.113-.34-.313-.707-.45-.816-.132-.113-.241-.266-.241-.344 0-.289-2.012-2.168-2.434-2.273-.238-.063-.434-.176-.434-.254 0-.188-1.37-.79-2.113-.93-.469-.086-.582-.055-.582.164m-137.8.25c-.052.086-.356.203-.684.262-.325.062-.59.18-.59.262 0 .078-.23.195-.508.257-.281.06-.586.254-.68.434-.097.176-.254.324-.351.324-.23 0-1.496 1.246-1.496 1.473 0 .098-.098.215-.215.258-.254.097-1.406 2.347-1.574 3.074-.067.277-.184.547-.262.598-.633.418-.586 9.77.047 9.77.082 0 .148.132.148.292 0 .406.86 2.403 1.04 2.403.077 0 .14.109.14.238 0 .133.285.547.633.922.347.37.754.816.898.98.426.484 1.223 1.063 1.457 1.063.117 0 .215.074.215.168 0 .09.21.21.465.27.254.058.625.206.816.327.856.531 1.528.492 1.645-.097.203-1.016.16-1.098-.719-1.32-.457-.118-.871-.321-.922-.454-.05-.133-.191-.246-.308-.254-.317-.015-1.817-1.785-1.82-2.136 0-.118-.067-.211-.153-.211s-.207-.227-.266-.508c-.062-.278-.172-.504-.246-.504-.07 0-.23-.477-.351-1.055s-.301-1.11-.403-1.172c-.254-.168-.25-7.41.004-7.734.102-.133.281-.711.403-1.293.12-.578.277-1.05.347-1.05.074 0 .184-.231.246-.509.059-.277.176-.504.254-.504.082 0 .246-.175.367-.39.61-1.074.926-1.457 1.274-1.547.207-.05.379-.164.379-.246s.453-.367 1.008-.629c1.058-.5 1.238-.84.84-1.582-.176-.332-.907-.453-1.079-.18m100.133 0c-.047.086-.355.203-.684.262-.324.062-.59.168-.59.238s-.265.223-.59.34c-.323.117-.59.285-.59.371 0 .09-.085.16-.187.16-.16 0-1.32 1.133-1.964 1.922-.336.41-1.051 1.813-1.051 2.063 0 .125-.07.23-.156.23s-.254.434-.372.969c-.117.531-.292 1.023-.39 1.09-.258.172-.246 8.191.012 8.355.101.067.273.516.375.996.363 1.711 3.015 5.446 3.863 5.446.09 0 .262.113.375.254.113.136.523.34.906.453s.734.257.781.324c.371.523 1.301.324 1.407-.3.164-.99.148-1.024-.457-1.138-.313-.058-.743-.257-.954-.441-.214-.184-.449-.332-.527-.332-.23 0-1.48-1.39-1.707-1.898-.113-.254-.254-.461-.312-.461-.055 0-.2-.344-.317-.766-.117-.418-.273-.797-.344-.84-.074-.047-.187-.406-.25-.797-.066-.394-.207-.773-.312-.836-.266-.172-.266-7.406.004-7.734.105-.133.242-.559.308-.953.063-.395.176-.754.25-.797.07-.043.227-.426.344-.844.117-.422.278-.762.36-.762s.148-.113.148-.253c0-.137.148-.344.336-.461.184-.118.336-.293.336-.395 0-.238.722-.914.98-.914.11 0 .2-.074.2-.16 0-.09.46-.375 1.023-.633 1.031-.473 1.227-.96.723-1.777-.11-.176-.864-.16-.977.02m-10.953 3.542c-.063.567-.176 1.031-.25 1.031-.07 0-.23.645-.356 1.43-.12.79-.285 1.434-.363 1.434s-.14.265-.14.59c0 1.16 1.496.648 1.773-.602.059-.27.16-.492.227-.492.148 0 .527-1.012.527-1.403 0-.156.074-.285.164-.285.094 0 .215-.187.273-.422.059-.23.164-.418.235-.418.14 0 .597-1.488.488-1.593-.035-.035-.601-.117-1.262-.184l-1.199-.117zm-100.637.668c-.054.086-.293.203-.531.266-.508.125-1.422 1.008-1.422 1.367 0 .137-.078.246-.172.246s-.258.34-.37.758c-.114.418-.263.758-.337.758s-.133.113-.133.254c0 .136-.265.421-.59.632-.726.47-.761.801-.085.801.449 0 .504.055.504.504 0 .281-.06.508-.133.508-.075 0-.239.684-.364 1.516-.12.835-.277 1.52-.347 1.52-.067 0-.172.452-.235 1.003-.062.555-.18 1.047-.254 1.094-.078.047-.187.484-.25.972-.128 1.067-.746 2.442-1.156 2.582-.16.055-.293.172-.293.258 0 .239-.804.188-.886-.05-.106-.325-.633.277-.633.722 0 1.031 3.437.172 4.074-1.02.125-.234.27-.46.324-.507.164-.137.512-1.512.793-3.117.145-.836.313-1.555.375-1.602.063-.047.215-.785.34-1.644.125-.856.289-1.56.363-1.56.078 0 .137-.265.137-.589v-.59h1.012c.785 0 1.011-.058 1.011-.254 0-.136.079-.254.168-.254.094 0 .168-.148.168-.336 0-.296-.109-.335-.945-.335h-.95l.106-.528c.059-.289.106-.66.106-.82 0-.344 1.129-1.688 1.414-1.688.226 0 .777.598.777.844 0 .254.832.203 1.102-.066.129-.133.258-.567.285-.973l.047-.73-1.461-.051c-.805-.028-1.508.023-1.559.11m95.438.308c-.16.043-.293.129-.293.191 0 .067-.211.211-.465.324-.5.227-1.145 1.106-1.316 1.801-.063.238-.168.434-.243.434s-.18.27-.242.597c-.082.442-.23.645-.562.77-.825.312-.95.824-.207.824.449 0 .504.055.504.508 0 .277-.067.504-.149.504s-.2.492-.266 1.098c-.062.601-.18 1.093-.257 1.093-.075 0-.23.684-.348 1.516-.113.836-.262 1.52-.328 1.52-.07 0-.176.453-.238 1.011-.063.555-.18 1.012-.262 1.012s-.195.23-.258.512c-.176.796-.867 1.394-1.5 1.296-.746-.113-.945.004-.945.563v.492h1.18c.675 0 1.183-.07 1.183-.168 0-.094.148-.168.328-.168.828 0 1.957-1.777 2.145-3.37.054-.466.152-.845.214-.845.067 0 .22-.718.344-1.601.125-.88.285-1.602.356-1.602.066 0 .175-.492.242-1.093.062-.602.184-1.098.266-1.098s.148-.266.148-.59v-.59h.984c.895 0 1.004-.039 1.184-.433.281-.618.125-.746-.914-.746-.805 0-.918-.04-.918-.336 0-.188.066-.34.148-.34s.192-.27.243-.594c.093-.582 1.058-1.766 1.433-1.766.094 0 .274.23.399.508.457 1.035 1.527.645 1.738-.633l.117-.715-1.574.02c-.867.008-1.707.05-1.871.094"/></g><g clip-path="url(#d)"><path fill="#c40404" fill-rule="evenodd" d="M258.984 13.113c0 .168-.07.375-.152.465-.086.09-.25.996-.371 2.016-.117 1.02-.266 1.89-.328 1.937-.059.047-.153.407-.203.801l-.094.715h.555c.59 0 1.05-.602 1.332-1.746.066-.266.23-.594.363-.73.137-.134.246-.423.246-.641 0-.22.11-.508.242-.64.137-.138.301-.466.363-.731.067-.266.184-.528.262-.579s.188-.332.246-.628l.11-.54h-1.285c-1.125 0-1.286.036-1.286.301m-186.02.41c-.276.102-.605.286-.73.41-.12.126-.296.227-.386.227-.297 0-1.977 1.727-2.078 2.133-.055.215-.176.395-.266.395-.094 0-.168.082-.168.18s-.16.53-.36.964c-.195.438-.398 1.266-.445 1.848-.047.578-.148 1.054-.226 1.054-.192 0-.192 2.649-.004 2.766.078.047.191.59.25 1.203.054.613.219 1.352.36 1.633.14.285.257.621.257.75s.11.273.238.324c.13.05.29.29.348.527.144.575 1.695 2.094 2.45 2.399.323.133.632.305.687.383.21.304 1.336.36 1.336.066 0-.152.074-.273.168-.273.433 0 .148-.688-.325-.782-.273-.054-.539-.207-.586-.332-.05-.128-.175-.234-.28-.234-.31 0-1.474-1.195-1.583-1.625-.055-.219-.164-.398-.246-.398s-.242-.399-.36-.887c-.113-.488-.288-.992-.394-1.121-.246-.309-.262-5.88-.016-6.051.094-.062.27-.496.387-.957.121-.46.281-.879.356-.926.074-.05.187-.242.246-.426.215-.652 1.828-2.109 2.336-2.109.566 0 .812-.687.394-1.105-.281-.282-.652-.29-1.36-.036m11.505-.109c-.352.352-.121 1.043.418 1.262.304.125.586.265.633.316.046.051.273.195.507.317.418.222 1.348 1.406 1.348 1.718 0 .09.07.168.156.168s.25.434.364.97c.117.53.293 1.073.394 1.202.23.301.23 5.387 0 5.551-.09.062-.254.55-.363 1.086-.11.539-.297 1.078-.418 1.203a5 5 0 0 0-.469.61c-.473.71-1.094 1.261-1.898 1.68-.829.433-.868.495-.692 1.16.11.394 1.305.433 1.57.046.051-.07.329-.223.614-.34.64-.258 2.09-1.597 2.09-1.933 0-.133.113-.285.254-.34.136-.055.253-.211.253-.356 0-.14.063-.257.141-.257s.242-.32.367-.715.297-.809.38-.922c.085-.113.19-.836.234-1.602.046-.77.164-1.566.261-1.77.125-.253.13-.445.012-.59-.094-.12-.215-.937-.27-1.815-.054-.88-.175-1.625-.273-1.657-.098-.035-.18-.195-.18-.36 0-1.835-4.445-5.624-5.433-4.632m93.304.113c-.3.098-.55.239-.55.32 0 .079-.106.145-.239.145-.316 0-2.289 1.848-2.289 2.14 0 .126-.11.27-.246.325-.137.05-.297.352-.355.668-.063.316-.172.574-.246.574-.18 0-.5 1.524-.5 2.367 0 .368-.075.668-.168.668-.102 0-.168.59-.168 1.434 0 .84.066 1.43.168 1.43.093 0 .168.257.168.57 0 .84.32 2.375.507 2.437.094.032.168.192.168.356 0 .168.149.496.336.73.184.235.336.485.336.551 0 .274 2.075 2.106 2.496 2.211.25.059.5.176.555.258.2.309 1.332.371 1.332.074 0-.152.078-.273.168-.273.434 0 .149-.688-.324-.782-.274-.054-.535-.207-.586-.332-.05-.128-.176-.234-.277-.234-.262 0-1.508-1.203-1.508-1.457 0-.113-.102-.309-.227-.434-1.39-1.39-1.383-8.91.016-10.386.117-.121.21-.282.21-.356 0-.351 1.817-1.867 2.243-1.867.469 0 .7-.473.453-.934-.242-.445-.574-.492-1.473-.203m11.493.008c-.203.54.004 1.016.52 1.184.276.09.542.21.589.265.043.059.29.211.543.34.254.133.559.453.676.715.117.266.261.48.324.48.191 0 .828 1.454.934 2.137.058.356.183.7.285.766.265.172.23 5.398-.04 5.488-.105.035-.195.238-.195.453 0 .383-.699 2.117-1.007 2.5-.657.813-1.211 1.282-1.91 1.617-1.176.563-1.15 1.473.035 1.418.41-.02.789-.101.843-.18.055-.077.336-.238.621-.355.641-.258 2.094-1.597 2.094-1.933 0-.133.113-.285.25-.34a.41.41 0 0 0 .254-.356c0-.14.063-.257.14-.257.079 0 .247-.32.368-.715.125-.395.308-.825.406-.953.277-.364.246-7.301-.027-7.395-.117-.035-.211-.203-.211-.367 0-1.91-4.934-5.965-5.492-4.512m77.808.324c-.324.207-.613.434-.644.508-.032.07-.145.133-.254.133-.29.004-1.574 1.367-1.707 1.809-.063.207-.176.378-.25.378s-.235.36-.356.801c-.12.442-.3.856-.398.922-.121.078-.184 1.305-.184 3.586 0 2.285.063 3.512.184 3.59.098.066.277.48.398.922.121.441.285.8.367.8s.149.11.149.243.137.344.305.465c.168.12.355.355.418.52.062.167.34.433.62.589.278.16.508.344.508.414 0 .203 1.56.844 2.106.867.766.032.77-1.047.004-1.297-.277-.09-.567-.27-.64-.394-.075-.125-.227-.227-.337-.227-.113 0-.336-.21-.496-.465-.601-.964-.722-1.14-.832-1.222-.062-.047-.21-.465-.324-.93-.113-.46-.29-.894-.39-.957-.122-.082-.184-1.113-.184-3s.062-2.918.183-3c.102-.066.274-.488.387-.937.11-.454.293-.922.406-1.047.114-.121.39-.492.625-.82.23-.329.63-.692.883-.81.258-.116.465-.26.465-.32 0-.062.195-.16.434-.218.367-.094.421-.188.378-.649-.07-.715-.918-.832-1.824-.254m13.094-.015c-.18.672-.133.773.418.886.293.06.64.258.77.442.128.183.312.336.406.336.199 0 .652.422.652.605 0 .067.191.371.422.676.23.3.422.668.422.816 0 .145.066.262.152.262.258 0 .524 2.047.524 4.047 0 1.938-.266 4.047-.508 4.047-.07 0-.18.258-.238.574-.06.313-.22.613-.356.668-.137.05-.25.192-.25.313 0 .12-.234.406-.523.636-.286.23-.61.504-.72.606-.105.097-.421.258-.698.351-.461.16-.676 1.032-.336 1.371.12.122 1.773-.335 1.773-.492 0-.082.117-.152.258-.152.14 0 .3-.113.355-.254.055-.137.192-.25.305-.25.3 0 1.395-1.105 1.535-1.547.067-.207.223-.48.352-.61.125-.124.23-.343.23-.48 0-.14.106-.363.239-.492.132-.133.293-.734.355-1.34.066-.601.188-1.093.266-1.093.086 0 .152-.797.152-1.77 0-1.07-.066-1.773-.168-1.773-.094 0-.172-.22-.172-.493 0-.664-.363-2.203-.52-2.203-.07 0-.175-.226-.238-.508-.062-.277-.18-.503-.265-.503s-.157-.094-.157-.211c0-.422-2.015-2.317-2.464-2.317a.3.3 0 0 1-.266-.187c-.14-.422-1.594-.39-1.707.039m-218.457.937c-.164.043-.297.149-.297.235s-.09.156-.2.156c-.276 0-1.148.855-1.148 1.125 0 .121-.07.223-.152.223-.086 0-.25.378-.371.843-.117.461-.277.844-.352.844s-.136.113-.136.258c0 .14-.133.305-.297.363-.301.106-.883.637-.883.805 0 .047.254.09.566.09.57 0 .7.515.278 1.093-.07.094-.219.797-.336 1.563s-.27 1.39-.34 1.39c-.066 0-.176.461-.242 1.028-.063.57-.184 1.156-.262 1.308-.082.153-.227.727-.328 1.278-.098.55-.242 1.043-.316 1.094-.075.054-.235.34-.356.64-.219.54-1.082.914-1.504.653-.332-.207-.7.105-.7.59v.488h1.18c.672 0 1.18-.07 1.18-.168 0-.094.145-.168.325-.168.644 0 1.722-1.313 1.949-2.364.066-.324.183-.664.254-.757.07-.09.222-.832.336-1.641.113-.812.261-1.477.328-1.477.07 0 .226-.757.347-1.683.121-.93.286-1.688.364-1.688s.14-.265.14-.59v-.59h.953c.707 0 1.008-.074 1.172-.296.43-.563.285-.715-.691-.715-1.035 0-1.047-.023-.754-1.305.145-.617 1.098-1.898 1.414-1.898.164 0 .773.664.773.844 0 .191.836.222 1.114.039.105-.067.242-.485.308-.926l.118-.8-1.57.019c-.864.011-1.704.054-1.864.097m104.852 0c-.165.043-.297.149-.297.235s-.09.156-.2.156c-.277 0-1.148.855-1.148 1.125 0 .121-.055.223-.125.223s-.316.503-.547 1.117c-.23.613-.535 1.156-.676 1.207-.265.093-.843.633-.843.789 0 .047.253.09.562.09.527 0 .555.03.484.504-.039.28-.125.507-.191.507-.062 0-.21.684-.332 1.516-.117.836-.273 1.52-.348 1.52s-.187.492-.254 1.093c-.062.602-.168 1.098-.234 1.098s-.203.539-.309 1.2c-.101.663-.261 1.25-.351 1.308-.086.058-.215.277-.281.488-.164.531-.84.938-1.391.832-.66-.125-.894.023-.894.57v.489h1.18c.675 0 1.179-.07 1.179-.168 0-.094.148-.168.328-.168.95 0 2.2-2.153 2.2-3.785 0-.235.066-.43.148-.43s.199-.453.261-1.008c.063-.55.176-1.043.25-1.09.078-.047.239-.808.36-1.691.12-.883.285-1.606.36-1.606.077 0 .14-.265.14-.59v-.59h.949c.707 0 1.008-.074 1.176-.296.43-.563.281-.715-.692-.715-.773 0-.925-.05-.925-.297.027-1.773 1.539-3.55 2.046-2.398.176.398.329.504.73.5.727-.004.868-.153 1-1.051l.118-.8-1.57.019c-.863.011-1.7.054-1.863.097m86.46.137c-.14.14-.316.254-.394.254-.352 0-1.223 1.027-1.414 1.664-.113.383-.262.695-.332.695-.067 0-.172.262-.23.582-.071.364-.231.617-.442.684-.816.258-1.082.926-.367.926h.469l-.247 1.558c-.136.86-.304 1.586-.379 1.614-.07.03-.18.503-.242 1.054s-.168 1-.238 1c-.066 0-.215.684-.328 1.516-.113.836-.274 1.52-.348 1.52-.078 0-.191.218-.25.488-.191.87-.683 1.27-1.57 1.273-.77.008-.793.024-.844.555l-.054.547h1.19c.68 0 1.192-.07 1.192-.168 0-.094.133-.168.297-.168.606 0 1.727-1.297 1.727-2 0-.184.074-.36.172-.39.093-.032.218-.454.273-.942.059-.485.156-.883.223-.883.062 0 .215-.723.343-1.602.125-.883.282-1.601.348-1.601.063 0 .215-.758.332-1.688l.215-1.683h1.05c.805 0 1.075-.063 1.153-.266.246-.64.129-.746-.824-.746-.875 0-.926-.023-.926-.422 0-.23.067-.422.145-.422.082 0 .195-.289.254-.644.21-1.332 1.96-2.145 1.96-.91 0 .57 1.262.16 1.317-.426.031-.301.125-.547.21-.547.087 0 .161-.152.161-.336 0-.45-3.168-.524-3.602-.086m-177.28 4.215c0 .289.093.422.3.422.406 0 .824.523 1.043 1.297.098.351.293.789.43.968.136.18.25.465.25.633 0 .164.062.305.14.305s-.73.87-1.8 1.933c-2.477 2.47-2.477 2.786.003 2.786h1.489v-.512c0-.297-.106-.55-.254-.606-.34-.132-.32-.601.043-.93.16-.144.433-.46.605-.699.399-.558.723-.425.867.356.067.34.172.695.243.789.066.094.214.492.328.887l.203.715h1.344c.738 0 1.34-.07 1.34-.157 0-.082.046-.273.101-.418.07-.175-.082-.367-.465-.593-.308-.184-.703-.622-.871-.973a96 96 0 0 0-.633-1.266c-.535-1.035-.453-1.215 1.371-3.027 2.145-2.125 2.145-2.246-.011-2.246-1.5 0-1.602.02-1.649.355-.035.243.059.387.281.446.457.117.297.695-.363 1.324-.535.512-.797.5-.797-.031 0-.18-.066-.325-.152-.325s-.207-.32-.274-.707c-.171-1.027-.367-1.148-1.835-1.148-1.25 0-1.278.008-1.278.422m104.856 0c0 .312.09.422.34.422.187 0 .394.133.457.293.058.164.21.394.328.52a.82.82 0 0 1 .222.503c0 .156.153.512.336.79.184.276.336.64.336.8 0 .164.063.297.14.297.079 0-.718.851-1.769 1.894-2.515 2.5-2.52 2.825-.02 2.825 1.47 0 1.481-.004 1.481-.422 0-.23-.074-.422-.164-.422-.32 0-.394-.844-.105-1.145.152-.156.43-.492.617-.742.426-.574.77-.457.914.32.062.329.18.723.266.872.085.152.218.539.293.863l.14.59 1.38.05c1.276.047 1.382.024 1.382-.28 0-.548-.188-.864-.512-.864-.285 0-1.008-1.18-1.008-1.645 0-.101-.117-.304-.261-.449-.774-.773-.563-1.316 1.168-3.05 2.214-2.212 2.218-2.442.023-2.442-1.578 0-1.602.008-1.602.402 0 .266.118.434.352.492.352.094.352.102.043.625-.852 1.45-1.27 1.434-1.586-.054-.293-1.387-.394-1.465-1.918-1.465-1.246 0-1.273.008-1.273.422m90.64-.149c-.191.196-.133.739.078.739.254 0 1.153 1.007 1.153 1.293 0 .125.074.222.168.222.093 0 .168.137.168.301 0 .168.152.602.336.961l.336.66-.375.41a74 74 0 0 1-1.7 1.696c-2.207 2.144-2.191 2.718.075 2.718h1.496v-.593c0-.41-.075-.59-.25-.59-.29 0-.332-.254-.09-.555 1.246-1.543 1.68-1.738 1.687-.762.004.16.075.328.157.383.086.051.207.399.27.766.062.37.179.676.265.676s.156.152.156.336c0 .308.11.34 1.348.34 1.214 0 1.347-.032 1.347-.325 0-.484-.18-.86-.406-.86-.21 0-.941-.882-.941-1.136 0-.078-.153-.437-.34-.8-.184-.364-.336-.79-.336-.95 0-.156-.09-.316-.2-.355-.109-.036.583-.844 1.536-1.793 1.433-1.426 1.738-1.82 1.762-2.266l.019-.535-1.559-.05c-1.687-.052-1.87.077-1.378.991.226.43.101.813-.493 1.473-.605.68-.644.672-.78-.14-.063-.372-.177-.673-.25-.673-.075 0-.204-.363-.282-.8l-.149-.801-1.351-.05c-.746-.024-1.41.007-1.477.07m-29.492 58.331c-.05.079-.14.54-.207 1.028s-.18.886-.25.886c-.074 0-.184.395-.246.88-.066.484-.188.964-.27 1.066-.085.097-.207.613-.265 1.14l-.113.957h.601c.453 0 .629-.082.707-.335.059-.184.172-.336.254-.336.078 0 .191-.227.254-.508.059-.278.172-.504.25-.504s.238-.38.355-.844c.118-.465.274-.844.344-.844.074 0 .223-.3.336-.672.11-.37.258-.675.328-.675.133 0 .403-.993.297-1.09-.148-.14-2.3-.278-2.375-.149m-141.055.883c0 .082-.261.2-.586.258-.707.137-3.039 2.324-3.214 3.023-.063.247-.168.446-.235.446-.07 0-.226.437-.351.969-.125.535-.309 1.023-.407 1.09-.25.167-.234 5.843.016 6 .102.066.285.554.402 1.09.118.534.317 1.054.442 1.155.125.106.226.286.226.403 0 .3 1.852 2.273 2.13 2.273.124 0 .23.07.23.153 0 .086.379.25.844.37.46.118.843.278.843.352 0 .406.656.09.758-.363.121-.57.008-.848-.348-.848-.132 0-.242-.07-.242-.152s-.191-.2-.426-.258c-.543-.137-1.527-1.172-1.89-1.992-.153-.348-.328-.633-.387-.633-.062 0-.203-.55-.32-1.222-.114-.672-.278-1.356-.364-1.516-.187-.36-.207-3.668-.019-3.668.074 0 .223-.621.336-1.379.11-.758.262-1.422.332-1.477.074-.05.285-.332.469-.62.582-.923 1.418-1.766 1.933-1.946.278-.094.504-.242.504-.324 0-.086.113-.153.254-.153.27 0 .305-.199.145-.8-.102-.38-1.075-.586-1.075-.23m11.2.257c-.16.637.054 1.059.593 1.168.504.098 1.711 1.16 1.907 1.672.062.16.183.293.265.293s.25.36.371.8c.121.438.285.844.368.9.082.054.19.64.25 1.308.054.664.164 1.207.242 1.207.082 0 .144.492.144 1.093 0 .602-.062 1.098-.144 1.098-.078 0-.196.547-.258 1.215-.063.668-.18 1.254-.262 1.305-.078.05-.199.379-.265.734-.067.352-.207.73-.313.84-.105.113-.398.527-.656.918-.254.394-.543.719-.64.719-.157 0-.305.101-.88.597-.113.098-.336.23-.5.29-.52.198-.324 1.304.23 1.304.173 0 .317-.063.317-.137s.375-.23.828-.351c.457-.114.871-.32.922-.453.055-.13.172-.239.27-.239.18 0 1.52-1.277 1.52-1.449 0-.055.152-.289.335-.523.18-.23.38-.68.438-.996.058-.313.172-.57.254-.57.078 0 .191-.384.253-.845.063-.464.18-.843.258-.843.082 0 .149-1.137.149-2.528 0-1.39-.067-2.53-.145-2.53-.082 0-.191-.391-.25-.872-.055-.48-.168-.914-.25-.969s-.242-.375-.351-.715c-.11-.34-.313-.71-.446-.824-.132-.11-.246-.265-.246-.347 0-.497-2.476-2.34-3.14-2.34-.125 0-.23-.078-.23-.168 0-.387-.837-.172-.938.238m88.933-.242a7 7 0 0 1-.797.344c-.297.109-.726.37-.949.578-.223.21-.531.425-.683.484-.149.059-.43.371-.625.7-.192.327-.41.593-.485.593-.07 0-.183.211-.25.465-.062.254-.21.578-.332.715-.121.14-.273.558-.34.93-.066.367-.207.726-.316.792-.266.164-.274 5.993-.008 6.164.102.067.238.461.3.872.11.707.684 1.878.981 2.003.075.032.133.137.133.23 0 .25 1.559 1.813 1.813 1.817.117 0 .21.075.21.157 0 .086.38.25.844.37.461.118.84.278.84.352 0 .422.645.086.738-.386.122-.598.028-.825-.335-.825-.141 0-.356-.097-.477-.21a8 8 0 0 0-.691-.547c-.657-.473-1.086-.954-1.086-1.215 0-.121-.067-.22-.141-.22-.078 0-.242-.304-.367-.675-.121-.371-.278-.676-.348-.676s-.183-.492-.246-1.093c-.066-.602-.184-1.098-.266-1.098-.195 0-.199-3.828-.004-3.945.079-.051.2-.489.262-.977.067-.484.176-.96.25-1.055.07-.097.23-.441.356-.765.277-.715 1.703-2.156 2.57-2.598.652-.332.695-.426.523-1.066-.105-.399-.59-.493-1.074-.215m11.2.242c-.16.64.058 1.074.609 1.195.531.118 1.722 1.149 1.898 1.641.059.164.18.297.266.297.09 0 .215.246.281.547.067.3.188.59.27.644.183.117.476 1.836.48 2.813 0 .394.074.715.168.715s.168.265.168.59-.074.59-.168.59-.168.355-.168.788c0 1.004-.332 2.922-.504 2.922-.074 0-.183.196-.242.434-.11.43-.234.625-.812 1.262-.165.18-.297.398-.297.484s-.145.203-.32.258-.364.215-.419.347a.41.41 0 0 1-.351.246c-.14 0-.258.07-.258.149 0 .086-.152.191-.336.238-.562.149-.394 1.301.188 1.301.171 0 .316-.063.316-.137s.375-.23.832-.351c.453-.114.871-.32.922-.453.05-.13.172-.239.27-.239.292 0 1.503-1.324 1.613-1.761.058-.223.21-.446.34-.497a.39.39 0 0 0 .238-.335c0-.133.074-.27.16-.301.09-.031.258-.567.375-1.196.121-.625.273-1.136.348-1.136.07 0 .129-1.137.129-2.528 0-1.39-.06-2.53-.13-2.53-.074 0-.226-.509-.347-1.134-.117-.62-.27-1.172-.336-1.218-.066-.051-.219-.282-.336-.512-.719-1.418-1.586-2.266-3.043-2.988-1.34-.665-1.668-.688-1.805-.145m39.207-.246c0 .086-.273.21-.605.273s-.645.22-.691.344c-.051.129-.176.234-.286.234-.265 0-1.62 1.336-1.62 1.602 0 .117-.114.258-.255.313a.41.41 0 0 0-.253.355c0 .14-.067.258-.145.258-.082 0-.246.36-.367.8-.121.438-.305.856-.403.922-.12.079-.18 1.329-.18 3.672s.06 3.594.18 3.672c.098.067.282.48.403.922.12.438.285.8.367.8.078 0 .145.11.145.243 0 .137.093.305.21.379.118.074.31.324.434.559.117.23.48.609.8.84.325.234.747.554.942.714.196.16.61.34.922.399s.57.172.57.258c0 .082.149.148.336.148s.336-.113.336-.254c0-.137.078-.254.168-.254.317 0 .172-.648-.168-.758-.183-.058-.336-.175-.336-.261s-.109-.16-.242-.16c-.129 0-.34-.102-.465-.227a3.2 3.2 0 0 0-.601-.426c-.207-.11-.38-.3-.38-.422 0-.12-.148-.36-.335-.527-.184-.168-.336-.406-.336-.531s-.066-.227-.14-.227c-.079 0-.247-.433-.372-.969-.125-.53-.304-1.023-.398-1.086-.235-.156-.235-5.507 0-5.668.094-.062.265-.55.383-1.085.117-.532.277-.97.351-.97.078 0 .184-.183.242-.406.16-.648 1.762-2.12 2.305-2.12.274 0 .664-.446.664-.758 0-.153-.11-.387-.242-.52-.27-.27-.938-.328-.938-.078m11.293.09c0 .14-.074.254-.168.254-.093 0-.168.152-.168.336 0 .187.11.34.25.34s.254.066.254.148.2.2.446.262c.402.101 1.914 1.468 1.914 1.73 0 .059.101.227.222.371.125.149.325.61.442 1.028.12.418.305.94.41 1.164.27.574.262 5.882-.012 6.054-.113.067-.254.45-.316.848-.067.398-.203.812-.305.922s-.297.414-.433.676c-.38.73-1.192 1.5-2.079 1.964-.714.375-1.109 1.012-.625 1.012.094 0 .168.117.168.254 0 .14.149.254.336.254s.34-.059.34-.133.34-.226.758-.336c.418-.113.758-.281.758-.375s.113-.168.254-.168c.351 0 1.918-1.633 2.043-2.125.054-.222.156-.402.226-.402s.23-.363.352-.8c.12-.442.289-.849.375-.907s.2-.61.246-1.223c.05-.613.156-1.117.234-1.117.082 0 .149-.605.149-1.348 0-.742-.067-1.351-.145-1.351-.082 0-.191-.543-.246-1.207-.058-.664-.176-1.25-.265-1.309-.09-.055-.254-.457-.364-.898-.113-.438-.265-.797-.34-.797-.074 0-.183-.152-.242-.336-.133-.422-1.738-2.023-2.023-2.023-.121 0-.258-.114-.313-.247-.05-.132-.363-.293-.691-.355-.328-.063-.598-.18-.598-.262s-.191-.148-.422-.148c-.261 0-.422.094-.422.25M87.797 83.242c-.871.492-2.234 1.985-2.367 2.59-.067.309-.207.617-.309.684-.332.207-.254 4.222.09 4.562.152.156.312.379.352.496.101.305 2.785.297 2.972-.008.328-.53 1.031-.718 1.031-.273 0 .227-.066.41-.148.41-.086 0-.2.266-.262.59s-.183.59-.273.59c-.086 0-.16.105-.16.23 0 .34-1.02 1.117-1.465 1.117-.215 0-.387.079-.387.168 0 .094-.191.172-.422.172-.234 0-.422-.066-.422-.148s-.226-.192-.504-.246c-.62-.125-.863-.809-.445-1.27.492-.547-.066-1.324-.816-1.136-1.278.32-1.625 2.015-.625 3.015l.543.543h2.191c1.43 0 2.238-.066 2.317-.187.066-.106.273-.239.457-.301.898-.297 1.707-1.508 1.894-2.84.047-.348.145-.633.215-.633s.215-.55.32-1.222c.11-.672.305-1.715.438-2.317.136-.605.246-1.305.25-1.562 0-.254.066-.461.148-.461.078 0 .188-.325.242-.72.055-.394.153-1.038.215-1.433.113-.715.113-.715-.414-.715-.289 0-.527.086-.527.188q0 .187-.633.07c-1.457-.265-2.98-.246-3.496.047m100.047-.043c-2.348 1.281-3.535 4.164-2.969 7.2.242 1.292 2.895 2.097 3.68 1.117.27-.336.808-.536.808-.301 0 .422-.394 1.668-.527 1.668-.082 0-.149.101-.149.222 0 .332-.789.957-1.355 1.07-.273.055-.5.165-.5.247s-.187.148-.422.148c-.23 0-.418-.078-.418-.172 0-.09-.191-.168-.426-.168-.586 0-.902-.675-.586-1.261.36-.672-.02-1.336-.683-1.203-1.375.273-1.738 2.07-.64 3.168.464.464 4.843.625 4.988.183.039-.117.18-.21.308-.21.356 0 1.59-1.298 1.59-1.673 0-.175.078-.347.172-.379.094-.03.219-.363.277-.73.059-.371.168-.715.242-.766.075-.046.227-.804.344-1.683.113-.88.258-1.633.32-1.68.063-.047.207-.73.32-1.52.114-.785.27-1.507.348-1.601.739-.89.012-2.32-.867-1.703-.32.223-.422.223-.836.012-.59-.309-2.445-.297-3.02.015m45.262.043c-.445.254-1.476 1.227-2.058 1.942-.11.14-.254.468-.32.73-.063.266-.2.535-.301.602-.324.21-.242 4.226.094 4.562.156.156.312.379.351.496.09.266 2.777.301 2.957.04.39-.56 1.05-.77 1.05-.337 0 .235-.062.426-.136.426-.078 0-.234.36-.347.8-.223.84-1.11 1.727-1.727 1.727-.164 0-.348.079-.402.168-.13.211-.93.227-.93.024 0-.082-.223-.192-.5-.246-.617-.125-.899-.883-.45-1.211.59-.43-.058-1.383-.812-1.195-1.277.32-1.629 2.015-.625 3.015l.54.543h2.28c1.34 0 2.329-.07 2.399-.172.066-.094.402-.36.75-.59s.633-.511.633-.62c0-.11.097-.262.219-.337.242-.148.625-1.308.625-1.882 0-.2.07-.36.156-.36s.207-.437.273-.969c.063-.535.172-1.046.242-1.14.07-.09.227-.906.348-1.813.121-.902.274-1.64.34-1.64s.172-.438.238-.973c.067-.531.196-1.062.293-1.176.285-.351.012-.719-.535-.719-.281 0-.512.086-.512.188q0 .187-.633.07c-1.457-.265-2.98-.246-3.5.047m-130.054.688c0 .394.086.5.472.578.438.086 1.383 1.66 1.383 2.305a.17.17 0 0 0 .168.171c.625 0 .043.922-1.62 2.586-2.349 2.352-2.356 2.64-.06 2.64h1.512v-.507c0-.336-.082-.504-.254-.504-.289 0-.336-.422-.082-.726.094-.11.387-.461.653-.774.492-.586.863-.597.863-.023 0 .172.066.34.144.37.079.032.25.513.387 1.067l.242 1.012 1.383.047 1.383.05v-.511c0-.313-.086-.512-.223-.512-.355 0-.941-.726-1.058-1.316-.059-.297-.164-.54-.227-.54-.07 0-.215-.284-.328-.632a20 20 0 0 0-.289-.828c-.047-.11.68-.957 1.613-1.887 1.27-1.266 1.696-1.793 1.696-2.117v-.438h-3.204v.508c0 .278.082.504.188.504.32 0 .016 1.024-.434 1.473-.46.457-.765.39-.77-.176 0-.203-.105-.57-.234-.82a4.6 4.6 0 0 1-.351-.97l-.113-.519h-2.84zm100.133.02c0 .421.07.503.41.503.336 0 .496.195.937 1.14.293.626.602 1.27.688 1.43.3.559.148.797-1.614 2.555-1.332 1.328-1.77 1.871-1.77 2.195v.438h3.204v-.508c0-.277-.086-.504-.191-.504-.356 0 .02-1.078.543-1.558q.827-.751.828.05c0 .18.07.329.156.329.082 0 .203.3.266.671.062.371.183.676.27.676.081 0 .151.188.151.422 0 .414.024.422 1.348.422h1.348v-.488c0-.38-.09-.512-.418-.594-.235-.059-.422-.219-.422-.356s-.07-.25-.156-.25-.207-.226-.266-.503c-.062-.282-.172-.508-.25-.508-.074 0-.184-.262-.246-.586-.059-.32-.223-.696-.36-.836-.226-.223-.05-.45 1.544-2.02 2.363-2.328 2.37-2.629.066-2.629h-1.512v.508q-.001.504.25.504c.14 0 .254.106.254.234 0 .13-.113.329-.254.442-.136.117-.25.277-.25.355 0 .938-.945.84-1.09-.113-.062-.41-.175-.746-.25-.746-.078 0-.191-.266-.25-.59l-.113-.594h-2.851zm50.406 0c0 .387.074.504.324.504.348 0 1.024.738 1.024 1.121 0 .125.066.23.152.23.082 0 .242.38.351.84.114.465.29.844.395.844s-.414.598-1.156 1.325c-3.172 3.124-3.23 3.398-.75 3.398h1.511v-.508q.001-.504-.25-.504c-.433 0-.28-.426.434-1.242.84-.953.938-.965 1.082-.11.063.372.184.676.27.676.082 0 .152.094.152.211 0 .118.082.496.176.844l.175.633h2.852v-.508c0-.387-.078-.504-.324-.504-.348 0-1.024-.738-1.024-1.12 0-.126-.07-.231-.152-.231-.086 0-.242-.38-.355-.84-.11-.465-.27-.844-.352-.844-.297 0-.148-.602.207-.848.55-.382 2-1.812 2-1.972 0-.082.223-.332.5-.559.324-.27.5-.574.504-.879l.008-.465h-1.446c-1.718 0-2.242.278-1.593.84.457.399.355.805-.383 1.547l-.535.535-.16-.574c-.09-.316-.215-.613-.278-.66-.062-.047-.172-.344-.242-.664-.195-.899-.418-1.024-1.844-1.024h-1.273zm-163.313.395c.07.105.13.328.13.488 0 .164.077.297.171.297q.168.001.008.297c-.086.16-.207.73-.266 1.261-.058.536-.164.97-.234.97s-.219.304-.332.675c-.11.367-.375.844-.586 1.059-.215.21-.457.5-.543.636-.508.825-1.652.684-1.852-.226-.128-.59.079-2.817.262-2.817.074 0 .18-.257.242-.574a2.8 2.8 0 0 1 .438-.996c.183-.23.332-.5.332-.594 0-.097.152-.222.34-.28.183-.06.336-.173.336-.25 0-.372 1.316-.325 1.554.054m99.547-.29c.63.169.82 3.216.223 3.602-.074.047-.192.274-.262.508-.074.23-.18.457-.234.504-.102.082-.18.2-.82 1.207-.372.582-1.22.855-1.66.531-.36-.265-.446-3.047-.106-3.465.094-.117.265-.535.383-.925.117-.395.277-.72.359-.72s.219-.187.309-.421c.086-.23.273-.422.414-.422.144 0 .257-.07.257-.156 0-.129.208-.23.676-.324.043-.012.254.027.461.082m45.766.289c.066.105.125.328.129.488 0 .164.078.297.172.297.105 0 .113.11.015.297-.082.16-.23.816-.324 1.457-.098.64-.25 1.207-.336 1.265-.086.055-.215.29-.285.52-.074.234-.274.523-.445.644-.172.122-.313.297-.313.391 0 .535-1.195 1.09-1.687.781-.516-.324-.672-3.5-.168-3.5.07 0 .18-.265.242-.59s.168-.59.242-.59c.07 0 .23-.265.36-.59.124-.323.382-.636.57-.694.187-.063.449-.22.582-.352.27-.27 1.031-.16 1.246.176"/></g></svg>