<svg xmlns="http://www.w3.org/2000/svg" width="400" height="225" version="1.0" viewBox="0 0 300 168.75"><defs><clipPath id="a"><path d="M.223 0h299.554v168.5H.223Zm0 0"/></clipPath><clipPath id="b"><path d="M38 22h261v140.352H38Zm0 0"/></clipPath></defs><g fill="#fff" clip-path="url(#a)"><path d="M.223 0h299.554v168.5H.223Zm0 0"/><path d="M.223 0h299.554v168.5H.223Zm0 0"/></g><path fill="#040efc" fill-rule="evenodd" d="M84.676 52.445c-.203.52-.301.59-.824.59-.875 0-1.368.633-1.364 1.754.004 1.223.098 1.305 1.364 1.246l1.078-.05.058-.59c.028-.325.114-.665.188-.758.074-.094.183-.547.246-1.012.062-.465.152-1.05.203-1.305.148-.761-.64-.656-.95.125m5.638 0c-.06.325-.208.59-.329.59-.148 0-.21.25-.199.8.035 1.47-.191 2.376-.605 2.435-.594.085-.516.878.09.949.257.031.464-.02.464-.106 0-.09.153-.203.336-.25.246-.062.34-.23.34-.61 0-.284.067-.523.145-.523.082 0 .199-.453.261-1.007.18-1.575.723-1.477.704.125l-.016 1.136 1.117.051c1.281.055 1.211.149 1.418-1.863l.117-1.137h-.441c-.403 0-.442.059-.442.676 0 .371-.054.672-.125.672-.07 0-.23.226-.351.508-.3.675-.535.636-.535-.086 0-.325.078-.59.172-.59.09 0 .168-.266.168-.59 0-.586-.004-.59-.758-.59-.86 0-1.024-.293-.254-.445.922-.188.672-.735-.332-.735-.82 0-.836.008-.945.59m11.898-.168c0 .336.082.422.418.422.34 0 .422-.086.422-.422 0-.34-.082-.422-.422-.422-.336 0-.418.083-.418.422m-27.14.336c0 .325-.071.59-.157.59s-.207.492-.273 1.098c-.063.601-.184 1.094-.266 1.094s-.148.152-.148.335c0 .262.113.34.484.34.516 0 .687-.3.691-1.207.004-.25.07-.476.157-.508.082-.03.207-.566.273-1.195l.121-1.137h-.441c-.395 0-.442.067-.442.59m6.743-.097c0 .27-.075.515-.16.547-.157.054-.512 1.874-.512 2.628-.004.293.093.38.418.38.355 0 .421-.079.421-.508 0-.278.067-.504.149-.504.078 0 .2-.473.266-1.055.062-.578.16-1.262.21-1.516.082-.41.043-.465-.351-.465-.375 0-.442.075-.442.493m18.458.183c-.09.29-.254.336-1.18.336-1.145 0-1.602.246-1.602.856 0 .18-.074.324-.168.324-.257 0-.199 1.344.075 1.613.144.145.574.242 1.074.242.84 0 1.043-.152 1.043-.773 0-.297-.782-.324-.899-.027-.16.39-.465-.266-.367-.79.121-.656.152-.68 1.024-.683l.75-.004-.043 1.098-.043 1.093 1.199.051 1.199.047.11-.531a6 6 0 0 0 .105-.934c0-.222.074-.402.168-.402s.168-.266.168-.59v-.59h-.844c-.73 0-.84-.043-.84-.336 0-.246-.113-.34-.41-.34-.262 0-.45.125-.52.34m-24.082 1.317c-.374 1.336-.367 2.054.028 2.054.37 0 .707-.316.71-.668 0-.539.352-1.496.583-1.582.195-.078.219.106.14 1.055l-.093 1.145 1.484.027c1.66.031 1.754-.027 1.758-1.047.004-.5-.07-.668-.324-.734-.637-.164-.57-.582.078-.461.547.105.586.082.586-.328 0-.59-1.418-.664-1.899-.102-.46.535-.136 1.516.504 1.516.117 0 .215.113.215.25 0 .308-.52.336-.828.043-.18-.168-.242-.168-.3 0-.044.117-.15.21-.235.21-.207 0-.196-.628.015-.757.094-.059.168-.395.168-.75 0-.758-.156-.852-1.425-.852h-.891zm9.695-.515c-.313.383-.367.637-.328 1.473l.05 1.011 2.274.102v-.516c0-.398-.07-.511-.336-.511-.184 0-.336.074-.336.168 0 .253-.496.203-.785-.086-.223-.223-.207-.25.16-.25.773 0 1.465-.211 1.465-.446 0-.125.078-.23.172-.23.09 0 .168-.153.168-.336 0-.188-.078-.336-.168-.336-.094 0-.172-.117-.172-.254 0-.504-1.723-.336-2.164.211m8.656.547c-.066.558-.187 1.055-.27 1.105-.402.25-.152.918.344.918.461 0 .504-.058.614-.773.066-.453.277-.953.515-1.203l.399-.434v.7c0 .382-.075.699-.168.699s-.168.226-.168.504c0 .445.058.507.48.507.528 0 .7-.562.7-2.3v-.735h-2.329zm9.063-.899a.36.36 0 0 0-.211.309.34.34 0 0 1-.204.293c-.308.102-.28 1.953.032 2.156.828.52 2.344.059 2.355-.722.012-.579.344-.282.344.308 0 .848.73.797.812-.054.028-.301.114-.547.188-.547.078 0 .18-.22.234-.485.223-1.117.606-.742.5.492-.093 1.114-.078 1.172.262 1.172.434 0 .582-.484.602-1.937l.015-1.012-1.054-.05c-.86-.044-1.055-.005-1.055.21 0 .14-.07.262-.156.262s-.188.281-.227.629l-.066.633-.028-.633c-.015-.348-.105-.629-.195-.629-.094 0-.168-.117-.168-.254 0-.254-1.453-.355-1.98-.14m-19.375 1.117c-.016.234-.188.59-.38.78l-.35.349v-.516c0-.633.292-1.215.558-1.121.113.039.187.27.172.508m17.527.074c-.117.765-.324 1.055-.746 1.055-.34 0-.45-.57-.149-.758.094-.059.172-.29.172-.516 0-.324.086-.41.41-.41.38 0 .403.047.313.629m3.121-.086c.07.598-.578 1.226-.918.89-.2-.199-.18-.324.125-.84.402-.683.715-.702.793-.05m-16.613 3.781c-.242.098-.282.586-.07.824.081.09.246.653.363 1.258.12.602.273 1.168.34 1.262.308.441.3.93-.02.93-.176 0-.32.07-.32.156s-.168.18-.38.21c-.554.079-.538.485.052 1.15 2.64 2.991 2.843 3.085 2.855 1.32 0-.247.074-.477.16-.504.301-.11.43-3.008.133-3.008-.145 0-.29.062-.32.14-.032.079-.297.192-.59.247l-.535.105-.196-1.172c-.109-.648-.257-1.176-.332-1.176-.074 0-.187-.359-.254-.8-.14-.93-.355-1.157-.886-.942m71.43 9.16c0 .094-.106.168-.235.168-.223 0-.437.344-.437.696 0 .09.277.14.613.113.742-.059.957.297.328.535-.512.195-.586.68-.11.68.41 0 .567.246.43.675-.105.34-.59.477-.59.168 0-.093-.148-.168-.336-.168-.261 0-.335.114-.335.504 0 .477.035.508.671.508.371 0 .676-.078.676-.172 0-.09.121-.168.27-.168.148 0 .308-.152.355-.336.047-.187.156-.335.238-.335.083 0 .149-.192.149-.422 0-.235-.074-.422-.168-.422s-.172-.36-.176-.801c0-.441-.105-.934-.226-1.098-.239-.312-1.118-.41-1.118-.125m19.024.164c-.64.707-.469 1.532.195.934.2-.18.442-.246.664-.176.348.113.496.594.18.594-.094 0-.168.09-.168.195 0 .11-.305.492-.676.856-1.043 1.023-.937 1.312.488 1.312 1.215 0 1.368-.097 1.368-.867 0-.289-.078-.316-.633-.215l-.633.11.547-.575c.73-.77.8-1.925.129-2.093-.235-.059-.422-.172-.422-.258 0-.266-.75-.13-1.04.183m58.86-.175c0 .086-.152.207-.336.265-.215.067-.34.254-.34.508 0 .5.332.723.54.36.257-.465.98-.36.98.144 0 .23-.07.422-.16.422-.086 0-.2.133-.25.293-.055.164-.324.539-.602.836-.82.87-.699 1.062.672 1.062.832 0 1.184-.062 1.184-.21 0-.118.05-.395.113-.618.102-.379.074-.398-.43-.3-.496.1-.523.081-.36-.223.102-.184.25-.336.337-.336.215 0 .398-1.086.27-1.602-.06-.23-.22-.422-.356-.422-.137 0-.25-.074-.25-.168 0-.093-.227-.168-.508-.168-.277 0-.504.07-.504.157m-171.996.285c-.273.273-.129.945.176.82.73-.3.887-.293.887.04 0 .187-.18.413-.422.523-.54.242-.543.535-.012.535.492 0 .66.218.516.675-.078.25-.254.336-.684.336-.465 0-.578.067-.578.336 0 .282.113.34.68.34 1.144 0 1.351-.34 1.3-2.12l-.043-1.505-.847-.05c-.469-.028-.906.003-.973.07m19.195.219c-.562.62-.02 1.144.606.582.238-.22.355-.235.543-.079.36.297.14.805-.695 1.633-1.012.992-.899 1.25.543 1.25.863 0 1.101-.054 1.101-.254 0-.14.074-.254.168-.254.09 0 .168-.16.168-.355 0-.367-.852-.34-.984.031-.059.168-.535.223-.535.063 0-.051.246-.317.542-.586.473-.434.54-.606.547-1.383l.008-.887-.851-.05c-.68-.04-.914.019-1.16.288m-26.344 1.32c-.121.321-.68 1.161-1.02 1.524-.117.125-.258.414-.312.637-.059.227-.168.41-.246.41-.254 0-.696 1.149-.582 1.508.097.305.246.348 1.195.348h1.082v.671c0 .637.031.676.508.676.476 0 .504-.039.504-.676 0-.605.043-.671.421-.671.356 0 .422-.079.422-.508 0-.426-.066-.504-.422-.504h-.421V68.71h-.512c-.332 0-.547.105-.617.297m18.578.21c-.063.278-.164.505-.227.505-.062 0-.21.312-.328.695-.254.812-.055 1.059.996 1.23.938.149 1.414 1.153.914 1.922-.328.508-1.101.766-1.101.371 0-.27-.825-.398-1.098-.168-.742.614.203 1.297 1.512 1.102 2.379-.355 2.726-3.633.457-4.34-.95-.297-.738-.644.39-.644.778 0 .903-.043.993-.38.207-.769.164-.8-1.145-.8h-1.254zm20.821-.38c-.473.184-1.492 1.31-1.61 1.774-.062.25-.183.461-.265.461s-.148.567-.148 1.262.054 1.266.125 1.266c.07 0 .222.214.34.48.503 1.14 2.605 1.148 3.105.012.121-.27.277-.492.348-.492s.125-.418.125-.926c0-.512-.075-.93-.168-.93s-.168-.121-.168-.27c0-.144-.153-.304-.336-.355-.188-.047-.336-.156-.336-.238s-.305-.149-.672-.149c-1.113 0-.434-1.02.922-1.382 1.07-.286 1-.641-.125-.625-.488.007-1 .058-1.137.113m14.926.027c-.524.848-.203 2.031.367 1.363.215-.253.496-.34 1.113-.34h.825l-.118.633c-.066.348-.187.672-.265.723s-.196.41-.258.8c-.063.391-.168.712-.234.712-.118 0-.512 1.504-.512 1.953 0 .144.168.238.422.238.308 0 .422-.09.422-.336 0-.187.066-.336.144-.336.082 0 .242-.457.36-1.011.12-.559.273-1.012.347-1.012.07 0 .184-.324.25-.719.063-.394.215-.906.336-1.14.121-.239.274-.711.336-1.055l.117-.63h-1.777c-.98 0-1.824.071-1.875.157m39.523.098c0 .14-.078.254-.175.254-.094 0-.243.187-.332.422-.086.23-.239.421-.333.421-.093 0-.171.07-.171.16 0 .204-.805 1.4-1.04 1.544-.097.058-.218.457-.265.886l-.09.782h2.406v.671c0 .66.012.676.59.676.574 0 .59-.015.59-.676 0-.558.055-.671.336-.671.262 0 .336-.114.336-.508 0-.39-.074-.504-.336-.504-.316 0-.336-.113-.336-1.856v-1.855h-.59c-.414 0-.59.078-.59.254m18.61-.125c-.102.07-.285.426-.407.797-.12.367-.32.77-.445.894-.305.305-.289.711.024.711.14 0 .254.067.254.145 0 .082.28.191.62.25 1.192.191 1.743 1.304 1.024 2.066-.437.457-.836.512-1.137.152-.422-.507-1.011-.32-1.011.325 0 .504.062.59.507.687 1.063.235 2.696-.41 2.696-1.058 0-.114.074-.207.168-.207.093 0 .168-.418.168-.926 0-.512-.075-.93-.168-.93s-.172-.094-.172-.21c-.004-.345-.766-.962-1.328-1.075-.88-.176-.653-.57.332-.57.925 0 1.336-.254 1.336-.829 0-.363-1.98-.539-2.461-.222m20.605.125c-.137.14-.32.254-.406.254-.324 0-1.234 1.043-1.328 1.523-.055.274-.168.5-.25.5-.227 0-.172 1.93.066 2.387 1.012 1.941 3.598 1.691 3.797-.371.121-1.27-.07-1.996-.562-2.117-.227-.059-.414-.172-.414-.254s-.31-.153-.684-.153h-.688l.645-.652c.355-.36.89-.707 1.191-.773.305-.067.547-.223.547-.356 0-.34-1.57-.328-1.914.012m15.067-.012c0 .129-.079.262-.176.293-.094.035-.219.344-.274.692-.117.726.176.859.66.292.227-.265.497-.335 1.262-.335.531.003.883.058.774.128-.106.067-.25.426-.317.797-.066.371-.18.75-.25.844-.074.09-.222.508-.336.926-.109.418-.265.8-.343.847-.383.239-.383 1.512 0 1.512.523 0 .793-.332.93-1.148.066-.387.179-.707.25-.707.073 0 .23-.453.347-1.008.117-.559.273-1.012.348-1.012s.187-.344.25-.761c.062-.415.18-.758.261-.758.086 0 .153-.188.153-.422v-.422h-1.77c-1.418 0-1.77.05-1.77.242m18.5-.125c-.163.043-.296.14-.296.215s-.153.176-.336.223c-.496.132-.43.625.086.625h.418v2.125c0 1.98-.02 2.129-.336 2.21-.926.243-.32.567.969.52 1.218-.047 1.792-.316.925-.441-.375-.051-.379-.078-.379-2.825 0-3.043.043-2.937-1.05-2.652m3.09.453c-.458.739-.465 1.285-.016 1.285.187 0 .34-.109.34-.242s.148-.289.336-.347c.183-.059.336-.176.336-.266 0-.086.113-.156.253-.156s.254.078.254.168c0 .093.106.168.239.168 1.074 0 .34 1.93-1.375 3.625-1.25 1.23-1.22 1.265 1.05 1.265 1.61 0 1.938-.043 1.938-.254 0-.136.078-.25.172-.25.09 0 .168-.199.168-.441 0-.398-.047-.43-.465-.324a11 11 0 0 1-1.223.203l-.758.086.715-.739c.395-.406.719-.804.719-.882s.117-.23.266-.336c.515-.38.527-2.184.015-2.696-.726-.726-2.484-.648-2.965.133m20.66-.316c-.14.14-.335.254-.433.254s-.18.152-.18.336q.001.337.336.336c.32 0 .336.113.336 2.195 0 2.078-.015 2.191-.336 2.191-.187 0-.336.11-.336.25 0 .203.254.254 1.262.254 1.254 0 1.8-.328.93-.554-.32-.082-.34-.23-.34-2.801V68.71h-.492c-.27 0-.606.117-.746.254m4.078-.078c-.903.527-1.461 4.047-.754 4.754.129.125.281.386.344.582.386 1.215 2.804.746 3.07-.598.058-.293.172-.531.254-.531s.148-.606.148-1.348c0-.785-.07-1.348-.168-1.348-.094 0-.168-.144-.168-.32 0-1-1.75-1.762-2.726-1.191m16.886.601c-2.035 1.903-1.543 5.38.758 5.38 1.465 0 2.211-1.192 1.875-2.99-.129-.687-.988-1.226-1.781-1.108-.285.043-.516.011-.516-.063 0-.078.075-.14.168-.14s.168-.094.168-.204c0-.336.848-.96 1.457-1.074.961-.184.711-.578-.367-.578-.879 0-.984.047-1.762.777m-15.414.489c.059.324.176.59.262.59.082 0 .149.53.149 1.18 0 .648-.067 1.179-.149 1.179-.086 0-.203.265-.262.59-.125.656-.558.796-.96.312-.313-.375-.333-3.789-.02-3.894a.35.35 0 0 0 .21-.309c0-.543.657-.242.77.352M91.422 70.988v.926H89.23v1.012h2.192v.93c0 .812.039.925.336.925s.336-.113.336-.926v-.93h2.023v-1.01h-2.023v-.927c0-.812-.04-.925-.336-.925s-.336.113-.336.925m93.558 0v.926h-2.023v1.012h2.023v.93c0 .917.004.925.504.925s.508-.008.508-.926v-.93h.926c.918 0 .926-.003.926-.503s-.008-.508-.926-.508h-.926v-.926c0-.918-.008-.925-.508-.925s-.504.007-.504.925m79.06 0v.926h-2.024v1.012h2.023v.93c0 .812.043.925.34.925s.336-.113.336-.926v-.93h2.191v-1.01h-2.191v-.927c0-.812-.04-.925-.336-.925s-.34.113-.34.925m-205.547 1.38c-.043.042-.36.05-.699.023l-.625-.055.352-.422.488-.59c.074-.09.207-.32.293-.504.12-.265.168-.144.21.567.032.496.02.937-.019.98m3.219-1.68c-.61.094-.68.836-.086.922a.48.48 0 0 1 .434.434c.027.207.125.379.21.379.086 0 .157.113.157.254 0 .136-.074.25-.168.25s-.168.113-.168.25c0 .293-.512.594-1.012.594-.305 0-.351.085-.308.546.07.72.601.813 1.238.223.465-.43.754-.437.754-.012 0 .547 1.39.473 1.691-.09.39-.734.11-1.261-.402-.753-.223.222-.266.191-.367-.293-.067-.301-.192-.594-.282-.653-.316-.199.641-.992 1.203-.992.508 0 .536-.031.485-.547-.078-.812-.824-.867-1.5-.11-.352.395-.488.47-.488.266 0-.156-.079-.28-.168-.28-.094 0-.172-.118-.172-.255 0-.25-.149-.27-1.051-.132m19.176.027c-.645.137-.707.715-.098.86 1.129.265.695 2.195-.496 2.195-.3 0-.348.085-.305.546.07.739.645.832 1.223.207.414-.445.77-.441.77.012 0 .34.738.485 1.207.235.496-.262.64-.477.644-.957.004-.41-.113-.461-.488-.223-.29.183-.586-.078-.735-.649-.148-.57.461-1.187 1.184-1.191.426-.004.547-.074.547-.324 0-1.008-.82-1.184-1.563-.336-.316.36-.46.437-.46.254 0-.149-.075-.27-.169-.27-.093 0-.168-.117-.168-.254 0-.265-.246-.289-1.093-.105m20.183-.028c-.664.086-.84.891-.195.891.21 0 .39.137.441.336.051.188.157.34.239.34.28 0 .148.672-.22 1.094-.23.265-.546.422-.843.422-.601 0-.719.91-.137 1.097.442.137 1.012-.047 1.012-.332 0-.207.348-.43.676-.43.078 0 .168.172.195.38.047.312.153.374.61.355.644-.031 1.476-.754 1.324-1.153-.133-.343-.559-.324-.762.04-.219.394-.305.27-.441-.645-.137-.922.156-1.336.949-1.336.469 0 .5-.039.453-.547-.078-.777-.746-.844-1.445-.14l-.508.507-.102-.5c-.101-.515-.109-.52-1.246-.379m51.207.81v.925h-.59c-.703 0-.738-.195-.171-.942.234-.304.422-.636.422-.734s.078-.18.167-.18c.094 0 .172.418.172.93m3.075-.808c-.75.093-.801.796-.063.945.473.094.688.457.691 1.168.004.386-.554.863-1.136.969-.324.062-.477.203-.516.488-.11.758.774.933 1.352.27.453-.524.77-.54.84-.044.046.313.152.375.609.356.644-.031 1.476-.754 1.324-1.153-.133-.343-.558-.324-.762.04-.222.394-.304.27-.441-.645-.14-.945.156-1.336 1.023-1.336.489 0 .579-.058.579-.387 0-.898-.891-1.054-1.657-.293l-.496.5-.101-.5c-.102-.515-.11-.52-1.246-.379m19.132 0c-.593.09-.691.891-.109.891.21 0 .387.137.441.336.047.188.157.34.235.34.086 0 .152.187.152.422 0 .23-.062.418-.14.418s-.235.176-.352.39c-.16.309-.316.375-.7.32-.562-.081-.773.88-.241 1.087.378.144 1.093-.082 1.093-.348 0-.215.344-.438.676-.438.082 0 .168.172.2.38.109.757 1.976.12 1.988-.676.003-.356-.493-.438-.825-.137-.297.27-.316.246-.425-.477-.157-1.039.085-1.449.847-1.449.57 0 .594-.023.543-.547-.074-.789-.742-.844-1.465-.12-.441.437-.527.472-.527.21 0-.176-.09-.41-.203-.52-.203-.203-.328-.21-1.188-.082m20.274.028c-.801.14-.938.77-.2.918 1.145.226.817 2.027-.398 2.164-.672.078-.836.914-.207 1.07.461.117 1.309-.164 1.309-.43 0-.101.113-.3.254-.437.222-.227.254-.207.254.172 0 .426.402.777.89.777.348 0 1.13-.832 1.13-1.203 0-.398-.595-.422-.747-.031-.156.41-.398.082-.523-.719-.137-.848.19-1.25 1.03-1.25.528 0 .579-.043.579-.504 0-.691-.668-.867-1.356-.36-.605.446-.773.45-.886.02-.09-.347-.153-.359-1.13-.187m38.477-.028c-.738.094-.773.711-.062 1.024.875.387.601 2.059-.336 2.059q-.822.001-.824.605c0 .84 1.574.652 1.793-.215.129-.512.398-.504.398.012 0 .851 1.219 1.008 1.77.223.523-.747.191-1.266-.442-.692-.277.25-.308.223-.476-.406-.282-1.043.004-1.543.886-1.547.434-.004.47-.05.422-.55-.07-.716-.582-.805-1.27-.227l-.503.425-.192-.414c-.101-.23-.285-.406-.402-.39-.117.015-.46.058-.762.094m23.938 0c-.668.085-.844.89-.195.89.21 0 .386.137.441.336.047.188.152.34.238.34.281 0 .145.672-.219 1.094-.23.265-.546.422-.843.422-.543 0-.727.925-.223 1.12.379.145 1.094-.081 1.094-.347 0-.215.344-.438.676-.438.078 0 .168.172.199.38.043.312.152.374.605.355.649-.031 1.48-.754 1.328-1.153-.128-.328-.597-.328-.722-.003-.176.46-.36.265-.473-.496-.156-1.032.086-1.442.848-1.442.57 0 .594-.023.543-.547-.074-.777-.742-.844-1.446-.14l-.507.507-.098-.5c-.106-.515-.11-.52-1.246-.379m-65.02 1.77c.207.95-.043 1.648-.593 1.648-.403 0-.504-.085-.594-.503-.063-.278-.184-.508-.27-.508-.082 0-.152-.254-.152-.563 0-1.07 1.375-1.133 1.61-.074M98.3 72.211c.031.207.125.379.21.379.266 0 .173.82-.132 1.18-.606.707-1.395.085-1.395-1.094 0-1.02 1.18-1.434 1.317-.465m172.887.34c.195.922-.063 1.554-.625 1.554-.485 0-.79-.582-.79-1.496 0-1.222 1.16-1.27 1.414-.058m-201.511-.13v.505h4.886v-1.012h-4.886zm36.242 0v.504h4.89v-1.012h-4.89zm57.316 0v.504h4.887v-1.012h-4.887zm36.243 0v.504h4.886v-1.012h-4.886zm41.976 0v.504h5.055v-1.012h-5.055z"/><g clip-path="url(#b)"><path fill="#242424" fill-rule="evenodd" d="M44.852 22.477c-.47.07-.672.625-.278.753.227.079-.113 1.485-.36 1.485a.166.166 0 0 1-.163-.168c0-.094-.192-.168-.422-.168s-.422.066-.422.148-.184.2-.414.254c-.461.117-1.27.801-1.27 1.078 0 .098-.109.29-.246.426-.433.434-.511 1.824-.129 2.266.407.465 1.438.52 1.86.094.265-.262.289-.262.34 0 .082.437.945.359 1.472-.133.457-.426.47-.93.02-.93-.16 0-.211-.137-.156-.422.043-.234.14-.422.21-.422s.18-.34.243-.754c.062-.418.175-.793.254-.843.078-.047.23-.578.347-1.184.114-.605.274-1.14.356-1.191.535-.332-.055-.47-1.242-.29m4.425 9.57v9.696h3.203v-1.18h-2.359V23.2h1.18c1.144 0 1.18-.012 1.18-.422 0-.422-.008-.422-1.602-.422h-1.602zm76.532-9.27c0 .41.027.422 1.265.422h1.266v17.364h-2.531v1.18h3.539V22.354h-3.54zm-5.605 1.38c-.36.093-.394.726-.039.726.2 0 .25.242.25 1.18s-.05 1.18-.25 1.18a.253.253 0 0 0-.254.253c0 .192.207.254.844.254s.84-.062.84-.254a.253.253 0 0 0-.25-.254c-.207 0-.254-.289-.254-1.601 0-1.707-.004-1.715-.887-1.485m2.234.223c-.39.39-.48 2.2-.14 2.941.383.84 1.973.477 1.988-.457.004-.16.082-.293.176-.293s.168-.304.168-.675-.074-.676-.168-.676-.168-.172-.168-.387c0-.816-1.195-1.113-1.856-.453m-67.425.547c-.707.832-.852 1.078-.946 1.582-.058.312-.171.566-.25.566s-.195.285-.257.633c-.063.348-.2.688-.301.754-.266.168-.258 6.566.004 6.89.105.13.246.56.308.954.067.394.184.715.258.715.078 0 .192.234.254.52.066.284.223.558.352.605.129.05.238.187.238.3 0 .29.558.766.898.766.168 0 .282-.133.282-.336 0-.184-.063-.336-.137-.336s-.242-.266-.371-.59c-.125-.324-.285-.59-.356-.59-.07 0-.18-.363-.246-.8-.066-.442-.203-.856-.304-.922-.262-.168-.262-7.07 0-7.399.105-.129.246-.535.308-.906.07-.367.27-.871.445-1.121.176-.25.325-.535.325-.637s.074-.183.168-.183c.09 0 .168-.153.168-.34 0-.383-.551-.469-.84-.125m62.031.21c0 .231.07.423.152.423s.2.207.266.46c.062.254.191.508.281.567.09.055.246.625.34 1.266.098.636.246 1.293.328 1.453.211.414.195 5.523-.02 5.523-.09 0-.167.223-.167.492 0 .696-.368 2.207-.535 2.207-.075 0-.137.106-.137.23 0 .13-.114.329-.254.442-.313.262-.336 1.012-.031 1.012.273 0 .957-.7.957-.98 0-.11.07-.2.152-.2s.2-.199.262-.441c.058-.242.21-.543.336-.668.125-.125.28-.684.347-1.246.063-.559.184-1.016.27-1.016.082 0 .152-1.172.152-2.613 0-1.629-.066-2.613-.168-2.613-.094 0-.172-.207-.172-.461 0-.922-.617-2.657-1.136-3.215-.118-.121-.211-.29-.211-.367 0-.23-.508-.676-.77-.676-.144 0-.242.168-.242.422m6.5.168c.152.797-.043 1.77-.356 1.77-.253 0-.374-2.005-.132-2.247.238-.234.382-.094.488.477m-79.566.097c.386.63-1.055 2.7-1.711 2.45-.305-.118-.184-1.024.195-1.399.121-.125.266-.363.32-.535.153-.48.992-.844 1.196-.516m21.691 1.672c-.383.613-.27.832.383.727.715-.117.863.379.168.554-.54.133-.547.536-.012.672.45.11.645.438.492.828-.105.282-.566.352-.566.086 0-.27-.844-.195-.95.086-.288.75 1.09 1.028 1.852.375.55-.476.61-2.855.078-3.382-.39-.391-1.183-.364-1.445.054m19.137.078c-.508.7-.25 1.418.308.86 1.04-1.04 1.176.215.145 1.308-.426.446-.738.899-.703 1.012.11.328 2.316.363 2.316.04 0-.145.074-.263.168-.263.09 0 .168-.12.168-.273 0-.219-.113-.25-.605-.156l-.602.113.363-.492c.512-.692.637-1.801.25-2.23-.441-.489-1.425-.442-1.808.081m-26.438 1.653c-.12.3-.32.605-.441.68a.49.49 0 0 0-.219.363c0 .125-.113.27-.254.324a.4.4 0 0 0-.254.344.51.51 0 0 1-.219.386c-.261.16-.792 1.254-.792 1.633 0 .223.21.27 1.18.27h1.179v.843c0 .825.012.844.508.844s.504-.02.504-.844c0-.785.03-.843.421-.843.34 0 .422-.082.422-.418 0-.34-.082-.422-.422-.422h-.421v-3.711h-.485c-.39 0-.527.11-.707.55m18.719-.116c-.09.238-.164.503-.164.59a.153.153 0 0 1-.152.156c-.157 0-.52.898-.52 1.293 0 .128.18.226.422.226.23 0 .418.067.418.149 0 .078.219.187.484.242 1.457.293 1.317 2.515-.144 2.308-.14-.02-.278-.101-.309-.187-.082-.223-.77-.188-1.008.05-1.027 1.028 1.817 1.422 2.918.403 1.082-1.004.59-3.3-.797-3.734-.375-.118-.629-.368-.632-.622-.004-.07.406-.128.902-.128.926 0 1.105-.153 1.113-.97.004-.472-2.344-.269-2.531.224m20.656-.192c-.617.281-1.34 1.047-1.515 1.613-.075.23-.215.477-.32.543-.27.172-.25 2.528.023 2.618.117.039.21.164.21.277 0 .937 2.255 1.355 3.005.555.203-.215.367-.52.367-.676 0-.153.074-.281.168-.281.093 0 .168-.38.168-.844 0-.465-.075-.844-.168-.844s-.168-.11-.168-.246c0-.375-.559-.598-1.504-.598-.828 0-1.125-.195-.602-.394.137-.055.25-.176.25-.274 0-.293.64-.832 1.137-.953.445-.11.71-.336.719-.61 0-.21-1.23-.128-1.77.114m14.914.192c-.09.238-.164.539-.164.675 0 .133-.074.242-.168.242s-.168.114-.168.25c0 .36.453.313.88-.082.26-.242.597-.34 1.19-.34h.833l-.118.633c-.066.348-.183.672-.257.72-.075.046-.192.366-.258.714-.063.348-.172.633-.242.633-.121 0-.512 1.64-.512 2.137 0 .125.183.222.422.222.308 0 .422-.09.422-.336 0-.187.066-.34.148-.34.086 0 .25-.492.371-1.093.117-.606.266-1.098.328-1.098.059 0 .203-.414.317-.922s.277-.969.363-1.023c.086-.051.156-.395.156-.762v-.664h-1.687c-1.66 0-1.696.008-1.856.433m-21.234 1.926v1.012h-1.098c-1.054 0-1.094.016-1.094.422s.04.422 1.094.422h1.098v1.011c0 .899.035 1.012.336 1.012.3 0 .336-.113.336-1.012V32.47h1.011c.97 0 1.012-.02 1.012-.422s-.043-.422-1.012-.422h-1.011v-1.012c0-.898-.035-1.008-.336-1.008s-.336.11-.336 1.008m-32.875.422v.93h-.59c-.61 0-.832-.375-.336-.567a.42.42 0 0 0 .254-.355c0-.145.07-.258.156-.258s.207-.152.266-.34c.176-.558.25-.383.25.59m3.164-.805c-.586.086-.602.48-.043.922.23.18.422.47.422.641s.094.348.21.398q.212.083.036.223c-.098.078-.344.406-.547.73-.203.325-.371.493-.371.38-.004-.34-.578-.243-.816.14-.305.484.011.828.765.828.438 0 .606-.082.668-.324.137-.512.54-.566.66-.09.22.871 1.922.297 1.922-.648 0-.274-.082-.313-.508-.227-.379.074-.504.04-.504-.148 0-.14-.085-.39-.19-.559-.313-.504.25-1.207.968-1.207.52 0 .57-.047.57-.488 0-.742-.691-.926-1.348-.356-.214.188-.48.34-.597.34-.113 0-.246-.152-.293-.34-.05-.183-.192-.324-.317-.312-.125.015-.433.058-.687.097m19.176.028c-.512.11-.832.695-.38.695.31 0 .723.48.848.985.102.414-.171 1.207-.414 1.207-.078 0-.148.132-.156.292-.004.176-.047.211-.097.086-.188-.464-1.067-.035-1.067.516 0 .598 1.453.637 1.68.047.234-.621.472-.66.594-.102.207.946 1.94.43 1.94-.574 0-.258-.093-.285-.589-.191-.558.101-.594.082-.621-.364-.09-1.32.066-1.558 1-1.562.492-.004.547-.05.547-.508 0-.691-.668-.87-1.356-.36-.601.446-.773.45-.882.02-.094-.347-.204-.37-1.047-.187m20.101-.028c-.566.086-.675.723-.125.723.246 0 .371.14.446.504.054.277.168.508.246.508.082 0 .148.152.148.336 0 .183-.078.336-.176.336s-.257.23-.355.508c-.168.476-.48.699-.48.335 0-.093-.153-.167-.337-.167-.273 0-.34.113-.34.59 0 .761.919.878 1.438.183.34-.45.758-.402.758.086 0 .5.953.43 1.453-.11.219-.238.398-.539.398-.675 0-.34-.453-.305-.652.05-.222.395-.367.208-.48-.617-.051-.379-.157-.687-.235-.687-.082 0 .02-.192.22-.422.257-.293.538-.422.937-.422.543 0 .566-.027.52-.547-.075-.75-.716-.836-1.411-.187l-.5.46-.156-.453c-.164-.46-.282-.488-1.317-.332m-2.86 1.262c.114.11.204.371.204.578 0 .211.074.426.164.48.102.063.11.212.012.391a4 4 0 0 0-.242.582c-.098.317-.543.383-.926.141-.25-.156-.465-1.68-.297-2.113.117-.309.8-.348 1.086-.059m-59.809.473v.504h9.946v-1.012H38.32zm31.356 0v.504h4.886v-1.012h-4.886zm35.965-.254c-.262.687-.012.758 2.632.758h2.536v-1.012h-2.536c-2.097 0-2.55.043-2.632.254m-61.758 2.95c0 .093-.305.167-.676.167-.559 0-.672.059-.672.34 0 .234.113.336.38.34.222 0 .3.05.187.125-.102.066-.243.37-.309.672-.113.527-.148.547-.934.547-.933 0-2.066.859-2.28 1.726-.063.258-.184.465-.267.465-.378 0-.156 1.676.258 1.945.485.32 1.582.188 1.91-.226.192-.239.211-.239.211.015 0 .364.766.563 1.098.29.2-.169.3-.169.5 0 .332.273 1.043.085 1.27-.34.23-.434.671-.434.671 0 0 .425.672.609 1.208.328.496-.262.64-.477.644-.957.004-.407-.113-.461-.488-.223-.367.234-.688-.215-.688-.969 0-.734.219-.922 1.094-.945.45-.012.508-.074.508-.52 0-.66-.91-.824-1.5-.27-.363.34-.367.34-.574.013-.149-.243-.391-.332-.899-.332h-.691l.117-.633c.066-.348.187-.657.273-.688.27-.097.18-1.039-.097-1.039-.14 0-.254.074-.254.168m-1.73 3.528c-.048.367-.192.785-.317.937q-1.102 1.323-1.348 1.168c-.226-.14-.074-1.469.18-1.555a.27.27 0 0 0 .18-.238c0-.29.73-.937 1.078-.957.273-.016.304.074.226.645m2.102-.368c.867 1.004.234 2.434-.945 2.14-.399-.1-.637-.577-.29-.577.079 0 .196-.32.258-.711.176-1.09.512-1.387.977-.852m5.023 34.602v17.363h3.203v-1.012h-2.359V56.07h2.36v-1.01h-3.204zm76.532-16.86v.508h2.53v32.703h-2.53v1.012h3.539V55.06h-3.54zM45.064 62.98c0 .094-.227.168-.504.168-.575 0-.727.48-.2.622.793.207.203 1.312-.73 1.367-.465.027-.918.148-1.012.27-.094.124-.336.277-.539.34-.203.066-.418.265-.473.444a1.7 1.7 0 0 1-.355.579c-.45.449-.5 1.843-.086 2.257.43.43 1.496.5 1.648.106.051-.137.168-.25.258-.25s.278.113.414.25c.364.363.88.312 1.34-.125.453-.426.535-.969.156-.969q-.255.001-.253-.508c0-.277.066-.504.148-.504s.203-.273.266-.613c.062-.332.18-.73.257-.883.586-1.097.633-2.719.086-2.719-.234 0-.422.079-.422.168m177.63 2.532c-.16.187-.29.383-.29.437 0 .055-.144.281-.316.504-.176.219-.371.688-.438 1.035-.066.348-.195.68-.285.739-.093.054-.21.57-.261 1.14-.055.574-.16 1.082-.239 1.13-.191.116-.191 3.608 0 3.608.082 0 .2.532.262 1.184.066.648.176 1.18.242 1.18.067 0 .215.34.324.758.114.418.282.757.375.757.09 0 .168.102.168.227s.153.402.336.617c.188.211.34.453.34.531s.16.141.356.141c.367 0 .367-.93.004-1.168-.079-.055-.235-.375-.348-.715-.11-.344-.274-.648-.363-.676-.09-.03-.211-.832-.27-1.78-.059-.95-.172-1.727-.25-1.727s-.14-.532-.14-1.18c0-.649.062-1.18.144-1.18.078 0 .184-.734.238-1.629.055-.894.168-1.672.258-1.726.086-.055.211-.344.274-.637.062-.293.261-.703.44-.91.18-.207.329-.516.329-.688 0-.418-.523-.402-.89.028m50.28-.024c0 .172.153.508.34.742.184.235.336.504.336.598s.07.195.16.227c.208.074.512 1.98.512 3.218.004.532.078.97.172.97.098 0 .168.503.168 1.179 0 .672-.07 1.18-.168 1.18-.094 0-.168.398-.172.882 0 1.055-.3 3.036-.48 3.16-.242.168-.867 1.31-.867 1.583 0 .699 1.078-.012 1.289-.852.054-.215.152-.39.215-.39.257 0 .851-1.72.96-2.77.063-.61.176-1.11.258-1.11s.145-.832.145-1.851c0-1.125-.067-1.856-.168-1.856-.094 0-.168-.257-.168-.578 0-.718-.356-2.289-.516-2.289-.066 0-.172-.258-.23-.574-.059-.312-.219-.613-.356-.668-.136-.05-.246-.195-.246-.316 0-.282-.601-.801-.93-.801-.14 0-.253.14-.253.316m-229.047.57c.094.266-.125 1.051-.367 1.34-1.04 1.223-1.246 1.352-1.422.891-.13-.332.058-1.262.254-1.262.086 0 .203-.132.261-.297.254-.71 1.106-1.16 1.274-.671m87.277 5.52c0 .32.113.335 2.445.335s2.446-.016 2.446-.336-.114-.336-2.446-.336-2.445.016-2.445.336m87.195.281c-.304.125-.261 1.012.055 1.133.535.207.926.098 1.113-.312.313-.692-.343-1.153-1.168-.82m-180.078.476v.422h9.946v-.844H38.32zm92.883.93c0 .32.113.336 2.445.336s2.446-.016 2.446-.336c0-.325-.114-.34-2.446-.34s-2.445.015-2.445.34m-88.375 1.918c-.336.254-.383.55-.105.644.125.043.152.293.078.73-.114.669-.114.669-.922.68-.445.008-.918.102-1.047.211-.129.114-.39.336-.582.496-1.074.91-1.46 2.82-.672 3.336.473.313 1.332.203 1.817-.222.273-.239.296-.23.296.101 0 .41.782.528 1.137.168.149-.148.258-.144.45.016.355.293 1.222.074 1.331-.336.11-.426.621-.426.621 0 0 .707 1.172.62 1.81-.137.55-.656.257-1.078-.474-.687-.27.144-.324.117-.324-.172 0-.188-.074-.344-.168-.344-.27 0-.195-.64.121-1.008.184-.215.5-.34.856-.34.531 0 .558-.027.508-.547-.07-.746-.797-.859-1.438-.218l-.434.433-.195-.379c-.164-.324-.312-.375-.926-.336l-.726.047.113-.722c.063-.395.188-.793.274-.88.625-.624-.645-1.105-1.399-.534m-.66 3.109c.105.723-1.379 2.648-1.688 2.191-.214-.32-.027-1.359.278-1.53.144-.079.258-.224.258-.325 0-.645 1.058-.95 1.152-.336m2.39.289c.376 1.133-.171 1.898-1.19 1.676-.442-.098-.727-.59-.345-.59.086 0 .207-.379.27-.84.152-1.117.93-1.27 1.266-.246m-1.91 26.992c-.235.23-.102.563.222.563.188 0 .336.074.336.168 0 .093-.066.168-.148.168s-.196.254-.254.562c-.098.516-.149.555-.637.48-.91-.132-2.379.864-2.605 1.77-.055.215-.168.39-.25.39-.317 0-.165 1.673.187 2.024.32.32 1.348.48 1.348.211.004-.336.816-.504.898-.187.113.433.684.394 1.2-.086.476-.442.57-.95.179-.95a.253.253 0 0 1-.254-.253c0-.137.066-.25.145-.25.082 0 .21-.399.297-.887.136-.817.183-.879.57-.828.55.078.496-.078.617 1.777.121 1.856-.125 2.348-1.191 2.371-.868.016-.891 1.106-.028 1.106.332 0 .602-.078.602-.168 0-.094.11-.168.246-.168.137 0 .336-.172.45-.383.108-.207.358-.531.55-.719.621-.594 1.789-2.058 1.789-2.246 0-.098.125-.25.277-.336.778-.433.446-2.351-.37-2.148-.415.105-.63.941-.247.941.094 0 .172.152.172.336 0 .188-.066.34-.145.34s-.23.168-.343.379c-.703 1.316-.688 1.316-.692.031-.004-1.816-.687-2.676-1.5-1.887-.175.172-.191.051-.093-.632.066-.461.187-.868.265-.899.082-.031.145-.203.145-.379 0-.328-1.45-.504-1.739-.21m145.747 1.632c-.743.73-.352 2.3.574 2.3.36 0-.149.61-.64.766-.173.055-.313.207-.313.34 0 .328.91.32 1.238-.008.137-.14.332-.253.434-.253.097 0 .18-.086.18-.192 0-.11.132-.289.292-.406.465-.34.41-2.145-.078-2.598-.477-.445-1.21-.426-1.687.051m.968.531c0 .137.075.254.168.254s.168.156.168.348c0 .242-.09.332-.293.293-.328-.063-.539-1.149-.222-1.149.097 0 .18.114.18.254m-121.821.39c-.285.263-.613.755-.723 1.095-.113.34-.27.656-.347.703-.078.05-.196.41-.262.804-.063.395-.203.77-.309.836-.27.172-.265 6.336.004 6.504.11.067.25.48.317.918.066.442.187.801.27.801.081 0 .148.102.148.219 0 .312.394 1.129.546 1.129.07.004.126.097.126.218 0 .278.605.797.93.797.26 0 .366-.77.12-.87-.3-.13-.898-1.415-.996-2.145-.058-.426-.183-.828-.273-.89-.235-.153-.235-6.708 0-6.856.09-.063.215-.403.27-.758.12-.75.753-2.137.976-2.137.086 0 .156-.187.156-.422 0-.55-.308-.531-.953.055m50.402.156c.055.348.207.707.336.8.13.099.293.438.36.763.07.324.214.695.32.824.27.336.266 8.41-.004 8.578-.11.066-.25.402-.316.75-.063.348-.172.633-.239.633-.175 0-.515.793-.515 1.199 0 .434.48.367.742-.102.101-.187.27-.394.375-.46.105-.07.242-.325.305-.57.062-.243.21-.544.332-.665.12-.12.277-.625.34-1.113.066-.492.203-.945.304-1.008.274-.172.278-5.746 0-5.836-.113-.039-.207-.258-.207-.488 0-.598-.351-1.914-.512-1.914-.074 0-.187-.23-.25-.516-.062-.285-.218-.558-.351-.61-.13-.05-.235-.195-.235-.32 0-.21-.492-.578-.77-.578-.065 0-.073.285-.015.633m5.094-.176c-.523.524-1.223 1.918-1.383 2.758-.058.32-.191.684-.297.817-.261.332-.257 6.222.008 6.386.11.067.25.48.317.918.066.442.187.801.27.801.081 0 .148.102.148.219 0 .312.394 1.129.546 1.129.07.004.13.097.13.218 0 .278.6.797.925.797.262 0 .367-.77.121-.87-.3-.13-.898-1.415-.996-2.145-.058-.426-.18-.828-.277-.89-.23-.153-.23-6.708 0-6.856.094-.063.219-.403.273-.758.117-.75.754-2.137.977-2.137.086 0 .156-.187.156-.422 0-.55-.344-.539-.918.035m62.11-.054c0 .222.113.449.253.504.137.05.25.21.25.355 0 .14.067.258.149.258.172 0 .527 1.293.527 1.914 0 .23.09.445.2.48.25.086.28 6.848.03 7.016-.093.063-.261.55-.378 1.082-.118.535-.274.969-.352.969-.074 0-.18.133-.234.297a2.7 2.7 0 0 1-.313.586c-.168.23-.168.332 0 .5.266.261.719.02.961-.512.09-.2.219-.363.285-.363.192 0 .805-1.504.926-2.262.059-.379.188-.742.29-.809.26-.172.257-6.34-.005-6.504-.105-.066-.285-.554-.406-1.09-.117-.53-.277-.968-.355-.968-.079 0-.145-.098-.145-.219 0-.223-.348-.742-.883-1.32-.414-.446-.8-.403-.8.086m-142.954.625c0 .789-1.078 2.343-1.625 2.343-.582 0 0-1.867.778-2.48.418-.328.847-.262.847.137m40.121 1.12c-.343.13-.5.391-.504.845 0 .386.395.527.59.21.059-.09.25-.168.43-.168.668 0 .352.958-.64 1.942-.754.742-.528 1.094.706 1.094 1.16 0 1.168-.004 1.344-.739.113-.48.113-.48-.527-.363l-.64.117.382-.402c.207-.223.379-.496.379-.606s.074-.199.168-.199.168-.265.168-.59-.074-.59-.168-.59-.168-.105-.168-.234c0-.355-.918-.547-1.52-.316m51.711-.008c-.164.043-.297.129-.297.191 0 .063-.05.293-.109.516-.101.383-.078.398.496.29.875-.165.996.233.207.675-.43.238-.383.46.113.578.711.168.508.762-.242.703-.601-.047-.632-.027-.632.461s.035.516.675.516c.371 0 .676-.078.676-.168 0-.094.113-.168.254-.168.41 0 .578-.727.469-2.028-.13-1.562-.446-1.87-1.61-1.566m19.203.129c-.152.156-.28.394-.28.523 0 .133-.075.243-.169.243a.17.17 0 0 0-.168.167c0 .235.61.211 1.008-.035 1.004-.629.805.52-.273 1.598-1.028 1.027-.93 1.305.453 1.305 1.11 0 1.508-.223 1.508-.84 0-.317-.067-.344-.59-.246-.703.133-.715.09-.168-.5 1.11-1.196-.18-3.352-1.32-2.215M58.38 111.16c0 .074-.266.23-.59.348-.453.164-.59.308-.59.625q.002.675.473.207c.156-.156.203.328.203 2.191 0 2.281-.016 2.395-.34 2.395-.187 0-.336.113-.336.254 0 .199.254.25 1.266.25s1.265-.051 1.265-.25c0-.14-.152-.254-.34-.254-.324 0-.335-.114-.335-2.95 0-2.84-.012-2.953-.336-2.953-.188 0-.34.063-.34.137m4.047.016c0 .082-.176.195-.39.246-.216.055-.5.308-.634.566-.132.258-.312.52-.398.582-.25.184-.223 3.555.031 3.637.117.04.211.16.211.27 0 .109.23.414.512.68.98.925 2.531.363 2.789-1.012.058-.313.176-.567.258-.567s.148-.531.148-1.183c0-.649-.066-1.18-.144-1.18-.082 0-.2-.242-.258-.54-.117-.585-.703-1.312-1.059-1.312-.125 0-.222-.078-.222-.168 0-.093-.192-.172-.422-.172s-.422.07-.422.153m7.898-.028c-.031.079-.355.254-.719.391-.726.273-.855.45-.601.836.148.223.183.223.332 0 .344-.512.504.23.504 2.332.004 1.941-.02 2.086-.336 2.168-.84.223-.332.555.844.555s1.687-.332.847-.551c-.312-.082-.336-.262-.379-2.914-.043-2.547-.207-3.5-.492-2.817m3.735.024c0 .082-.215.191-.477.242-.785.156-1.277 1.8-.535 1.8.183 0 .336-.097.336-.214 0-.285.61-.797.953-.797.805 0 1.21 1.828.492 2.23-.144.083-.266.223-.266.313 0 .094-.492.656-1.093 1.258-1.446 1.433-1.45 1.426.906 1.426 2.191 0 2.203-.004 2.21-1.137 0-.441-.144-.477-.597-.133-.183.137-.664.25-1.07.254l-.742.004.476-.438c.555-.515 1.18-1.402 1.336-1.906.063-.191.184-.351.274-.351.086 0 .156-.344.156-.758 0-.418-.066-.762-.148-.762s-.192-.148-.239-.336a.68.68 0 0 0-.398-.433 4 4 0 0 1-.602-.254c-.37-.196-.972-.203-.972-.008m19.648.254c-.738.41-.844.582-.586.949.137.188.2.2.266.04.265-.653.394.046.394 2.151v2.36h-.437c-.274 0-.41.078-.364.21.114.34 2.657.387 2.657.048 0-.145-.149-.258-.336-.258-.317 0-.336-.14-.38-2.906-.05-3.258-.042-3.247-1.214-2.594m4.457-.23c0 .09-.102.167-.223.167-.445 0-.996.809-1.082 1.59-.05.422-.152.77-.234.77s-.148.34-.148.757c0 .418.066.758.148.758.078 0 .188.313.238.692.223 1.652 2.602 2.355 3.172.937.121-.293.297-.586.395-.652.246-.168.238-3.48-.012-3.637-.102-.066-.238-.285-.3-.488-.196-.63-1.954-1.438-1.954-.895m18.035-.023c0 .082-.234.195-.523.254-.633.125-1.77 1.215-1.926 1.844-.062.25-.184.453-.266.453s-.148.57-.148 1.261c0 .735.07 1.266.168 1.266.094 0 .168.117.168.262 0 .582.785 1.086 1.687 1.086.864 0 1.024-.094 1.813-1.07.238-.298.289-2.133.058-2.133-.082 0-.187-.149-.234-.336-.05-.184-.21-.336-.36-.336-.148 0-.265-.078-.265-.168 0-.094-.305-.168-.676-.168-.402 0-.675.078-.675.195 0 .11-.043.152-.094.102-.203-.204.894-1.649 1.254-1.649.105 0 .191-.074.191-.168s.227-.168.504-.168c.395 0 .504-.074.504-.336 0-.273-.11-.34-.586-.34-.328 0-.594.067-.594.149m10.606.156a2.1 2.1 0 0 0-.371.582c-.059.16-.188.293-.282.293-.097 0-.175.074-.175.164 0 .156-.59 1.113-1.094 1.77-.14.18-.254.425-.254.547 0 .12-.074.218-.168.218s-.168.227-.168.504v.508h2.36v.758c0 .754.003.758.59.758.585 0 .589-.004.589-.758 0-.645.05-.758.336-.758.25 0 .34-.113.34-.422 0-.308-.09-.422-.34-.422-.316 0-.336-.113-.336-2.023 0-2.168-.234-2.563-1.027-1.719m39.968-.152c0 .082-.253.195-.566.254-1.965.367-3.055 3.953-1.664 5.472.934 1.024 3.074.856 3.074-.242 0-.133.074-.242.168-.242s.168-.45.168-1.012c0-.554-.066-1.011-.148-1.011s-.188-.149-.239-.336c-.046-.184-.207-.336-.355-.336-.149 0-.27-.07-.27-.16 0-.086-.308-.18-.691-.211l-.687-.051.351-.406c.195-.223.352-.461.352-.528 0-.07.191-.172.422-.23.234-.059.421-.18.421-.274 0-.09.192-.164.422-.164.309 0 .422-.09.422-.336 0-.273-.113-.34-.59-.34-.324 0-.59.07-.59.153m-21.582.617c-.09.238-.164.504-.164.59 0 .09-.07.16-.156.16s-.246.273-.355.61c-.23.699-.07.898.722.906.254 0 .465.078.465.168 0 .093.113.168.254.168.14 0 .344.19.45.421.105.235.257.422.331.422.23 0 .164.442-.152.996-.324.57-1.106.735-1.281.27-.168-.438-.93-.313-1.051.172-.211.844 1.488 1.367 2.184.672.136-.141.328-.254.417-.254 1.297 0 .989-3.836-.312-3.88-.273-.01-.84-.39-.84-.566 0-.058.406-.105.906-.105.926 0 1.106-.156 1.114-.969.004-.476-2.344-.27-2.532.219m35.59.102c-.386 1.113-.234 1.535.36.984.265-.246.593-.336 1.234-.336h.871l-.172.758c-.097.418-.23.758-.297.758s-.172.343-.234.757c-.063.418-.172.762-.242.762-.113 0-.524 1.457-.524 1.863 0 .086.188.157.422.157.262 0 .422-.094.422-.25 0-.141.063-.254.145-.254.078 0 .242-.457.359-1.012s.27-1.012.336-1.012c.07 0 .223-.472.344-1.054.12-.579.28-1.094.351-1.141.074-.05.184-.41.246-.8l.114-.712h-3.551zm-117.511.378c0 .133.09.27.199.309.277.09.27 3.54-.008 3.633-.106.035-.191.172-.191.3 0 .368-.637.286-.758-.097-.063-.184-.18-.336-.266-.336s-.156-.754-.156-1.687c0-.926.066-1.684.148-1.684s.188-.152.239-.336c.097-.387.793-.473.793-.102m36.02.395c.51 2.52-.337 5.336-1.099 3.66-.238-.523-.261-3.258-.03-3.86.273-.718.964-.597 1.128.2m9.664.887v1.011h-2.215l.055.461c.05.446.094.465 1.105.516l1.055.05v.919c0 .804.04.918.336.918s.336-.114.336-.926v-.926h1c.852 0 1.02-.05 1.11-.336.171-.543-.047-.676-1.106-.676h-1.004v-1.011c0-.903-.035-1.012-.336-1.012-.3 0-.336.11-.336 1.012m50.57 0v1.011h-2.21l.05.461c.051.446.098.465 1.11.516l1.05.05v.919c0 .867.024.918.422.918.399 0 .422-.051.422-.926v-.926h.926c.918 0 .93-.008.93-.508s-.012-.504-.93-.504h-.926v-1.011c0-.97-.02-1.012-.422-1.012s-.422.043-.422 1.012m-82.003-.114c-.383.282-.207.618.32.618.578 0 .8 1.058.406 1.93-.156.34-.32.429-.77.429-.546 0-.57.027-.523.55.098.993 1.434.7 1.879-.413.047-.121.094-.051.102.16.007.207.09.379.18.379.093 0 .167.113.167.254 0 .398.715.293 1.156-.172.22-.23.465-.418.551-.418.082 0 .149-.153.149-.34 0-.356-.563-.48-.758-.168-.192.313-.422.172-.422-.254 0-.23-.074-.418-.168-.418-.297 0-.18-.613.184-.941.215-.196.539-.297.843-.266.461.047.489.012.489-.55 0-.727-.856-.891-1.395-.266-.332.39-.629.437-.629.101 0-.465-1.219-.61-1.761-.215m24.14-.109c-.472.125-.37.727.121.727.34 0 .446.12.598.675.262.977-.14 1.676-.969 1.684-.324 0-.379.094-.379.59 0 .453.067.59.293.59.598-.004 1.024-.207 1.106-.52.105-.402.43-.418.574-.027.242.664.965.73 1.523.14.586-.613.5-1.34-.113-.953-.355.223-.691-.21-.719-.922-.027-.703.203-.914.996-.918.555-.003.914-.562.641-1.003-.187-.305-1.246-.207-1.547.144-.297.348-.734.293-.734-.09 0-.23-.719-.293-1.39-.117m24.991.813v.925h-.59c-.613 0-.835-.375-.335-.566a.42.42 0 0 0 .25-.356c0-.14.074-.257.16-.257s.203-.153.261-.336c.18-.563.254-.387.254.59m2.907-.817c-.325.133-.254.73.086.73.164 0 .43.235.59.52.32.563.382 1 .144 1-.082 0-.2.188-.258.418-.086.352-.203.422-.691.422-.559 0-.586.031-.586.59 0 .773.918.879 1.449.172.379-.504.574-.54.574-.106 0 .707 1.004.696 1.676-.023.672-.715.477-1.246-.297-.813-.465.258-.766-1.031-.394-1.683.277-.493.53-.649.53-.328 0 .277.63.191.743-.098.379-.988-.652-1.324-1.492-.484-.39.39-.43.398-.43.101 0-.465-.933-.703-1.644-.418m19.109.11c-.363.265-.234.62.227.62.507 0 .777.891.511 1.696-.195.598-.277.664-.781.664-.531 0-.562.035-.562.59 0 .777 1.042.906 1.378.172.223-.496.645-.563.645-.106 0 .711.95.692 1.652-.031.711-.73.508-1.23-.316-.785-.274.144-.328.117-.328-.172 0-.188-.074-.34-.168-.34-.254 0-.2-.836.07-1.105.133-.133.281-.336.336-.454.082-.167.121-.167.2-.003.265.57.913.109.913-.645 0-.488-1.074-.445-1.586.066-.382.387-.386.387-.539.04-.187-.426-1.183-.551-1.652-.207m20.254-.106c-.477.125-.371.727.125.727.266 0 .422.097.422.254 0 .14.078.253.172.253.09 0 .168.266.168.59s-.07.59-.16.59c-.087 0-.204.152-.262.336-.082.254-.254.336-.696.336-.808 0-.824 1.059-.015 1.152.488.055 1.293-.527 1.297-.941.007-.453.308-.176.414.379.18.972 1.949.37 1.949-.66 0-.344-.606-.348-.738-.004-.168.433-.395.129-.52-.692-.14-.941.074-1.257.856-1.257.539 0 .57-.032.57-.59 0-.707-.781-.86-1.305-.25-.156.183-.375.336-.484.336-.106 0-.235-.153-.281-.336-.09-.336-.72-.43-1.512-.223m-118.8.895c0 .324.108.34 2.526.34s2.528-.016 2.528-.34c0-.32-.11-.336-2.528-.336s-2.527.015-2.527.336m65.734.328c.16.101.247.465.254 1.078.008 1.015 0 1.031-.52 1.191-.679.211-1.523-2.05-.862-2.316.343-.14.867-.117 1.128.047m50.532.18c.05.183.156.335.238.335s.148.266.148.59-.074.59-.168.59c-.093 0-.167.117-.167.258 0 .949-1.114.156-1.282-.914-.18-1.117.957-1.91 1.23-.86m-128.066.168c0 .328.114.336 4.973.336 4.86 0 4.973-.008 4.973-.336s-.114-.336-4.973-.336c-4.86 0-4.973.008-4.973.336m47.875.168v.508h5.227v-1.012h-5.227zm51.582 0v.508h5.059v-1.012h-5.059zm36.246 0v.508h4.887v-1.012h-4.887zm-123.902.848c0 .492 4.93.445 5.024-.047.05-.27-.157-.293-2.485-.293-2.437 0-2.539.012-2.539.34m-7.293 1.918q-.58.438.043.437c.188 0 .336.075.336.168a.167.167 0 0 1-.168.168c-.094 0-.168.172-.172.38-.004.593-.191.745-1.031.84-.91.097-1.875.753-2.2 1.491-.12.274-.277.493-.347.493-.266 0-.129 1.68.164 2.023.406.473 1.438.457 1.895-.031l.343-.368v.368c0 .422.942.539 1.317.168.156-.16.199-.16.199 0 0 .414 1.172.234 1.375-.211.266-.586.648-.692.648-.184 0 .774 1.27.781 1.684.008.125-.23.293-.422.367-.422.078 0 .14-.078.14-.172 0-.262-.62-.195-.913.098-.242.242-.266.226-.266-.168 0-.238-.074-.434-.168-.434-.289 0-.187-1.043.125-1.281.164-.125.547-.227.856-.23.527-.004.554-.036.504-.555-.07-.746-.871-.863-1.477-.219l-.398.426-.196-.375c-.16-.313-.316-.375-.918-.344l-.722.031.117-.62c.062-.344.183-.7.27-.786.671-.695-.587-1.324-1.407-.7m-.676 3.4c-.058.527-.199.85-.441 1.023-.195.137-.356.36-.356.492a.25.25 0 0 1-.253.242c-.141 0-.254.078-.254.172 0 .09-.121.168-.274.168-.34 0-.246-1.32.125-1.762 1.164-1.386 1.586-1.484 1.453-.336m2.38-.171c.558 1.226-.087 2.144-1.282 1.824-.371-.098-.543-.567-.21-.567.093 0 .167-.097.167-.21.008-1.278.898-1.981 1.324-1.047m-1.996 19.449c0 .175.082.351.184.383.656.218-.063 1.316-.864 1.316-.93 0-2.062.86-2.277 1.726-.062.258-.183.465-.266.465-.296 0-.167 1.72.145 1.957.352.266 1.04.297 1.629.075.27-.106.46-.106.523 0 .176.28 1.016.171 1.399-.184.422-.39.492-1.004.117-1.004-.14 0-.254-.152-.254-.34 0-.183.074-.336.168-.336s.168-.172.172-.379c.004-.836.164-1.078.66-1.007.465.07.473.09.586 1.597.137 1.801-.238 2.504-1.25 2.356-.48-.07-.504-.047-.504.535 0 1.043.781.871 2.125-.465.594-.586 1.078-1.121 1.078-1.187 0-.063.18-.313.407-.551a5 5 0 0 0 .628-.88c.125-.241.301-.491.387-.554.477-.344.188-1.738-.367-1.793-.527-.05-.55-.027-.55.547 0 .332.077.602.167.602.266 0 .2.46-.082.566-.14.055-.254.176-.254.273 0 .094-.152.325-.336.508l-.34.34v-.93c0-.507-.074-.925-.168-.925-.09 0-.168-.235-.168-.524 0-.512-.011-.52-.726-.465l-.73.063.152-.844c.086-.465.222-.871.308-.898.457-.168.036-.368-.773-.368-.8 0-.926.043-.926.325m137.73 1.394c-.648.7-.359 2.16.426 2.16.371 0 .399.04.243.336-.098.188-.32.336-.496.336-.258 0-.516.301-.516.606 0 .5 1.844-.332 2.074-.938.106-.281.25-.508.324-.508.07 0 .13-.343.13-.761 0-.414-.063-.758-.141-.758-.079 0-.227-.188-.332-.422-.258-.562-1.211-.59-1.711-.05m1.144.964c.043.453 0 .54-.254.492-.324-.066-.48-.508-.32-.922.16-.425.516-.16.574.43m-113.168-.066c-.187.234-.43.527-.539.652-.113.129-.254.43-.316.672-.059.242-.164.441-.23.441-.165 0-.516 1.567-.516 2.29 0 .316-.075.577-.168.577-.106 0-.168.872-.168 2.274 0 1.406.062 2.277.168 2.277.093 0 .168.184.168.41 0 .665.39 2.184.625 2.426.12.121.218.332.218.465s.075.238.168.238c.09 0 .168.106.168.23 0 .298.82 1.118 1.118 1.118.304 0 .3-.777-.004-.895-.133-.05-.29-.324-.352-.609s-.18-.516-.254-.516c-.183 0-.508-1.511-.508-2.359 0-.36-.078-.703-.168-.762-.215-.132-.222-3.675-.011-4.37.086-.286.242-1.122.34-1.86.117-.86.273-1.395.433-1.484.137-.079.25-.239.25-.364s.113-.32.254-.433c.348-.293.32-.844-.043-.84-.164 0-.45.191-.633.422m41.383-.012c0 .227.098.473.21.547.513.328.985 1.59 1.087 2.918.055.742.168 1.347.246 1.347s.144.95.144 2.106c0 1.293-.066 2.11-.167 2.11-.094 0-.168.288-.168.644 0 .87-.352 2.558-.532 2.558-.078 0-.144.114-.144.254s-.153.383-.336.543c-.383.328-.457 1.055-.11 1.055.293 0 1.122-.816 1.122-1.102 0-.12.054-.242.125-.273.355-.156 1.05-2.172 1.05-3.047.004-.258.078-.465.172-.465.102 0 .168-.87.168-2.277 0-1.25-.066-2.274-.144-2.274-.082 0-.203-.472-.27-1.05-.062-.575-.262-1.367-.441-1.758-.18-.395-.325-.758-.325-.813 0-.113-.12-.27-.73-.972-.512-.586-.957-.61-.957-.051m5.563-.262c0 .082-.188.328-.418.547s-.418.492-.418.61c-.004.113-.075.21-.157.21s-.246.395-.363.883c-.113.489-.293.938-.394 1.008-.258.164-.258 7.234 0 7.563.101.132.277.605.386 1.05.188.786.293.977.875 1.598.149.156.317.418.375.582.059.164.223.293.364.293.32 0 .355-.887.042-1.207-.312-.332-.628-1.113-.628-1.566 0-.22-.094-.43-.211-.47-.27-.089-.309-7.995-.04-8.183.094-.066.27-.5.391-.96.121-.466.328-.903.461-.977.332-.188.32-1.133-.012-1.133-.136 0-.254.066-.254.152m61.868.242c0 .22.152.575.34.786.183.214.335.472.335.574s.118.41.262.68c.145.28.301 1.183.36 2.074.058.863.168 1.613.246 1.66.187.117.187 2.262 0 2.262-.078 0-.188.73-.239 1.625-.054.894-.168 1.671-.25 1.726-.082.059-.25.461-.367.895-.12.433-.324.828-.453.879-.289.113-.309.941-.023.941.254 0 1.14-.902 1.14-1.164 0-.102.059-.184.133-.184.156 0 .54-.988.54-1.386 0-.149.07-.297.155-.325.621-.226.633-7.562.012-8.316-.074-.094-.191-.46-.258-.816-.066-.356-.218-.684-.336-.727-.12-.047-.265-.27-.32-.5-.227-.898-1.277-1.46-1.277-.684m-134.907.817c-.054.387-.214.77-.359.847-.148.083-.266.231-.266.333 0 .23-.796.98-1.043.98-.242 0-.066-1.566.184-1.652a.27.27 0 0 0 .184-.239c0-.289.73-.937 1.078-.957.273-.015.304.075.222.688m36.926.996c-.164.094-.297.281-.297.414 0 .137-.074.246-.168.246-.093 0-.168.113-.168.254 0 .344.668.324.926-.027.13-.176.317-.239.5-.168.457.175.192.86-.676 1.726-1.066 1.067-1.007 1.25.395 1.25.668 0 1.23-.086 1.348-.203.293-.293.257-.976-.047-.976-.14 0-.254.074-.254.168 0 .09-.153.167-.34.167-.45 0-.422-.218.082-.699 1.164-1.101.05-2.941-1.3-2.152m46.69.05c-.542.415-.374.81.297.684.696-.132.793.149.254.73-.187.2-.34.403-.34.454 0 .047.153.09.34.09.184 0 .336.11.336.238 0 .133.094.273.211.316.399.141-.058.36-.765.368-1.11.007-1.04.66.078.73 1.187.078 2.07-1.34 1.304-2.105-.132-.133-.132-.215 0-.297.102-.063.184-.324.184-.582 0-.739-1.215-1.14-1.898-.625m19.304.015c-.422.305-.527 1.098-.144 1.098.129 0 .277-.113.332-.25.05-.14.289-.254.523-.254.496 0 .64.895.172 1.07-.137.055-.25.18-.25.278 0 .097-.23.402-.508.676-.828.808-.695 1.011.676 1.011 1.055 0 1.18-.035 1.18-.328 0-.18.078-.375.172-.433.093-.06.125-.176.074-.262-.137-.223-.711-.196-.79.035a.203.203 0 0 1-.26.125c-.118-.04.01-.3.32-.656 1.18-1.344-.087-3.125-1.497-2.11m-86.828 1.203c-.566.25-1.043.887-1.043 1.391 0 .645.254.672.867.086.875-.84 1.825-.074 1.477 1.188-.168.597-.39.894-1.797 2.37-1.012 1.063-.976 1.098 1.156 1.098 1.727 0 1.875-.027 1.957-.336.051-.187.157-.34.239-.34s.148-.152.148-.335c0-.407-.531-.457-.902-.086-.239.238-1.457.37-1.457.16 0-.117.87-1.297 1.054-1.434.809-.597 1.032-2.637.364-3.304-.434-.434-1.551-.68-2.063-.458m4.711.008c-.312.133-.715.551-1.11 1.157-.402.609-.507 3.62-.132 3.746.113.039.21.172.21.293 0 .476.958 1.265 1.54 1.265.598 0 1.66-.804 1.66-1.258 0-.125.094-.261.203-.296.14-.047.203-.61.203-1.817s-.062-1.77-.203-1.812c-.11-.04-.203-.149-.203-.246 0-.583-1.523-1.31-2.168-1.032m9.125.008c-.21.04-.379.14-.379.23 0 .087-.097.157-.215.157-1.668.023-2.566 5.262-.968 5.68.187.05.34.156.34.238s.3.148.671.148.676-.074.676-.168.102-.168.223-.168c1.011 0 1.457-2.515.601-3.414-.343-.36-.597-.465-1.14-.465-.383 0-.696-.074-.696-.164 0-.336 1.172-1.36 1.672-1.457.36-.074.52-.203.52-.422 0-.32-.371-.375-1.305-.195m34.883-.004c-.5.2-1.043.875-1.043 1.293 0 .54.41.598.68.098.277-.516 1.238-.399 1.316.16.082.594-.289 1.168-.84 1.289-.652.14-.61.523.07.648.836.157 1.727 1.79.977 1.79-.086 0-.281.125-.437.28q-.281.281-.391.098c-.16-.257-.95-.43-1.363-.296-.399.125-.48.761-.098.761.14 0 .254.075.254.168s.379.168.844.168.843-.074.843-.168.137-.168.305-.168c.375 0 1.043-.597 1.043-.933 0-.137.074-.246.168-.246s.168-.34.168-.758-.066-.758-.148-.758-.188-.152-.239-.34c-.047-.183-.226-.34-.398-.344-.3-.004-.3-.011.004-.242 1.297-.98-.172-3.12-1.715-2.5m11.648.223c-.046.183-.144.336-.214.336s-.223.226-.34.504c-.114.28-.274.507-.356.507-.078 0-.191.188-.25.422-.058.23-.168.422-.242.422-.078 0-.187.14-.242.317-.055.175-.25.488-.434.699-.18.21-.332.598-.332.863v.48h2.364v.673c0 .66.011.675.59.675.574 0 .59-.015.59-.675 0-.56.054-.672.335-.672.262 0 .336-.114.336-.508 0-.39-.074-.504-.336-.504-.316 0-.336-.113-.336-1.941v-1.938h-.523c-.38 0-.543.094-.61.34m39.778-.215c-.301.035-.547.137-.547.223 0 .09-.102.16-.223.16-.273 0-1.129.867-1.129 1.144 0 .114-.066.203-.148.203-.195 0-.524 1.336-.524 2.141 0 1.129.297 1.86.848 2.102.274.125.5.28.5.351s.305.125.676.125c.37 0 .672-.074.672-.168s.11-.168.242-.168c.945 0 1.336-2.62.512-3.449-.332-.328-.602-.43-1.184-.43-.41 0-.75-.03-.75-.07 0-.254 1.465-1.476 1.867-1.559.336-.066.492-.199.492-.414 0-.324-.109-.34-1.304-.191m-67.555.383c-.059.183-.172.336-.254.336-.078 0-.191.226-.254.508-.058.277-.172.503-.246.503-.2 0-.355.73-.187.895.074.078.457.215.847.3 1.114.25 1.664.981 1.434 1.9-.145.562-.973.773-1.426.363-.656-.598-1.41.324-.836 1.019.223.27 1.68.344 1.68.09 0-.086.222-.207.5-.266.37-.082.55-.258.707-.687.113-.32.27-.578.344-.578s.132-.38.132-.844c0-.465-.062-.844-.14-.844s-.227-.187-.332-.422c-.106-.23-.309-.422-.45-.422-.14 0-.257-.066-.257-.152s-.227-.207-.504-.27c-.903-.195-.621-.585.422-.585.71 0 .925-.063.925-.254 0-.141.075-.254.168-.254s.168-.153.168-.336c0-.305-.109-.34-1.168-.34-1.02 0-1.183.043-1.273.34m46.441-.086c0 .14-.066.254-.14.254-.082 0-.235.304-.348.676-.11.367-.273.671-.363.671-.672 0 .008.918.793 1.067 1.164.219 1.824 1.523 1.125 2.226-.313.313-1.207.227-1.434-.132-.097-.157-.203-.164-.43-.024-.796.496-.175 1.414.958 1.414.375 0 .683-.066.683-.148s.196-.2.438-.262c.277-.07.507-.293.625-.61.105-.273.25-.495.32-.495.074 0 .133-.418.133-.926 0-1.07-.723-2.028-1.676-2.215-.754-.152-.348-.566.559-.57.855-.004 1.058-.125 1.207-.715l.113-.465h-1.281c-1.028 0-1.282.05-1.282.254m35.356.422c-.48 1.113-.082 1.722.55.844.262-.364 2.024-.512 2.024-.168 0 .09-.066.167-.148.167-.078 0-.239.454-.36 1.012-.117.555-.27 1.012-.34 1.012s-.18.285-.246.633c-.066.344-.18.707-.257.797-.465.57-.38 1.433.144 1.433.504 0 .863-.613.867-1.472 0-.118.063-.211.14-.211.079 0 .227-.325.329-.72.406-1.566.79-2.741.918-2.792.07-.031.133-.316.133-.633v-.578h-3.461zm-108.645.52c.305.534.446 3.527.168 3.527-.07 0-.226.226-.351.504-.121.277-.293.507-.383.507-.086 0-.203-.23-.258-.507-.058-.278-.168-.504-.25-.504s-.148-.723-.148-1.602c0-.883.07-1.601.152-1.601s.195-.192.254-.422c.145-.567.46-.532.816.097m37.383 1.082v1.098h-1.012c-.968 0-1.011.016-1.011.418s.043.422 1.011.422h1.012v.93c0 .875.024.925.422.925s.422-.05.422-.925v-.93h1.008c.969 0 1.011-.02 1.011-.422s-.043-.418-1.011-.418h-1.008v-1.098c0-1.054-.016-1.093-.422-1.093s-.422.039-.422 1.093m49.899 0v1.098h-.93c-.875 0-.926.02-.926.418s.05.422.926.422h.93v.93c0 .917.004.925.504.925s.507-.008.507-.925v-.93h.926c.875 0 .926-.024.926-.422 0-.399-.05-.418-.926-.418h-.926v-2.191h-1.011zm-76.536-.254c0 .094-.113.168-.25.168-.14 0-.253.153-.253.34 0 .246.113.336.425.336.602 0 .844.684.575 1.64-.188.665-.247.72-.77.72-.535 0-.566.03-.566.59 0 .538.043.59.476.59.48 0 1.04-.438 1.04-.813 0-.11.113-.2.253-.2.137 0 .25.122.25.266 0 .86.817.93 1.625.145.738-.711.477-1.512-.27-.836-.335.304-.343.3-.343-.051 0-.203-.074-.363-.168-.363s-.168-.23-.168-.508.07-.504.156-.504.18-.129.211-.29c.04-.198.23-.288.645-.292.539-.008.593-.055.644-.559.047-.523.028-.547-.55-.547-.329 0-.602.067-.602.149s-.149.191-.336.238c-.184.047-.336.207-.336.356 0 .464-.29.293-.395-.235-.101-.504-1.293-.816-1.293-.34m19.723 0c0 .094-.113.168-.25.168-.48 0-.285.63.23.73 1.141.227.63 2.306-.57 2.306-.367 0-.422.074-.422.59 0 .792.664.831 1.38.081l.488-.511.289.507c.476.84 1.89.25 1.89-.78 0-.442-.457-.544-.613-.141-.156.414-.363.293-.488-.293-.067-.301-.2-.598-.293-.66-.114-.07-.074-.211.105-.391.153-.152.278-.352.278-.438s.222-.156.492-.156c.98 0 1.32-.406.785-.937-.387-.391-1.043-.293-1.442.214-.363.461-.667.348-.675-.246 0-.129-.235-.21-.594-.21-.324 0-.59.078-.59.167m27.016.086c-.352.399-.246.73.254.79.984.113.644 2.328-.356 2.328-.738 0-1.012.468-.543.94.438.438 1.614-.081 1.614-.718 0-.12.078-.222.167-.222.094 0 .172.136.172.3 0 .633.852 1.063 1.27.64.133-.128.316-.26.406-.292.094-.031.219-.305.277-.606.122-.597-.078-.714-.492-.3-.312.308-.527.086-.703-.723-.148-.7.313-1.21 1.086-1.21.477 0 .516-.044.516-.59 0-.755-.813-.856-1.438-.18-.383.41-.754.32-.754-.192 0-.3-1.207-.273-1.476.035m19.219 0c-.348.395-.243.711.273.813.918.183.601 2.293-.344 2.3-.773.012-1.054.465-.574.946.426.426 1.613-.121 1.613-.75 0-.316.336-.215.344.105.012.735.781 1.13 1.266.645.132-.129.312-.262.406-.293s.215-.305.277-.606c.125-.62-.277-.789-.597-.253-.22.37-.438.093-.598-.762-.137-.715.258-1.219.95-1.219.437 0 .48-.055.48-.59 0-.761-.664-.832-1.301-.14-.418.449-.711.351-.719-.239-.004-.293-1.21-.261-1.476.043m20.117.012c-.188.492-.106.723.277.777.293.04.395.18.434.602.027.3.144.547.254.55.128 0 .136.048.027.126-.094.07-.305.332-.469.59-.187.293-.441.46-.703.46-.5 0-.656.231-.523.77.148.594.71.524 1.386-.172.422-.433.567-.508.567-.289 0 .16.152.422.336.582.375.32.843.387.843.121 0-.094.114-.168.254-.168.145 0 .332-.195.422-.433.324-.844.121-1.184-.39-.668-.297.293-.458.168-.458-.36 0-.214-.074-.394-.167-.394-.286 0-.188-.485.167-.84.188-.188.563-.34.844-.34.465 0 .508-.047.508-.59 0-.75-.785-.855-1.398-.187-.371.398-.793.277-.793-.227 0-.297-1.301-.21-1.418.09m-42.243.832c0 .75-.007.758-.574.758-.492 0-.562-.05-.488-.336.05-.188.156-.34.242-.34.082 0 .227-.187.313-.422.254-.66.507-.492.507.34m-68.44.082c0 .32.108.34 2.358.34 2.247 0 2.36-.02 2.36-.34s-.113-.336-2.36-.336c-2.25 0-2.359.016-2.359.336m108.39 1.352c0 1.379-1.023 1.656-1.284.343-.059-.28-.172-.515-.254-.515-.078 0-.145-.149-.145-.336s.074-.336.168-.336.168-.11.168-.242c0-.418.574-.395.969.043.25.277.379.633.379 1.043m-86.328-.606c.293 1.164-.258 2.18-.871 1.606-.72-.668-.579-2.352.199-2.352.43 0 .504.082.672.746m-33.864-.07c0 .328.114.336 4.973.336 4.86 0 4.973-.008 4.973-.336 0-.332-.114-.336-4.973-.336-4.86 0-4.973.004-4.973.336m44.84.082v.422h4.887v-.84H83.16zm46.528 0v.422h5.058v-.84h-5.059zm36.075 0v.422h5.226v-.84h-5.226zm-115.64.762c0 .32.108.336 2.358.336 2.247 0 2.36-.016 2.36-.336 0-.325-.113-.34-2.36-.34-2.25 0-2.359.015-2.359.34m-7.375 1.964c-.254.102-.281.512-.043.59.11.036.129.38.059.899-.063.465-.149.746-.188.633-.078-.239-1.219-.293-1.219-.059 0 .082-.21.203-.464.266-.555.136-.903.488-1.23 1.226-.134.301-.302.547-.372.547-.3 0-.125 1.688.211 2.024.406.406 1.27.44 1.645.066.25-.25.285-.25.468 0 .25.34 1.02.355 1.149.02.054-.141.175-.254.273-.254.094 0 .172.113.172.253 0 .364.895.325 1.238-.058.157-.168.282-.395.282-.504 0-.305.332-.234.457.098.308.808.91.925 1.504.285.496-.535.527-1.086.062-1.086-.187 0-.34.082-.34.18 0 .378-.45-.286-.558-.82-.079-.407-.043-.579.14-.65.137-.054.25-.202.25-.331 0-.153.196-.235.582-.235.668 0 .84-.187.696-.765-.106-.422-1.11-.64-1.11-.246 0 .093-.113.168-.258.168-.14 0-.324.171-.41.379-.117.292-.156.312-.164.085-.004-.16-.086-.293-.18-.293-.09 0-.168-.117-.168-.253 0-.157-.16-.254-.421-.254-.23 0-.422.078-.422.168 0 .093-.16.168-.352.168-.234 0-.328-.079-.27-.23.051-.126.145-.583.208-1.013.062-.425.183-.777.265-.777s.149-.078.149-.168c0-.172-1.254-.215-1.64-.059m-.638 2.907c.121.39-.058 1.195-.27 1.195-.081 0-.148.102-.148.223 0 .281-.875 1.125-1.168 1.125-.296 0-.152-1.395.176-1.746.13-.137.387-.442.57-.676.407-.512.7-.555.84-.121m1.606-.153c0 .094.152.168.344.168.62 0 .796 1.41.254 2.016-.325.355-.938.473-.938.176 0-.094-.113-.168-.25-.168-.14 0-.254-.149-.254-.336s.074-.34.164-.34.211-.379.274-.84c.093-.707.406-1.226.406-.676m204.312 13.98v3.048h.848l-.043-2.992c-.047-2.961-.05-2.997-.426-3.047l-.379-.055zm17.016-2.77c-.004.137-.004 1.426-.004 2.864s0 2.691.004 2.78c.031.72.684.087.684-.663 0-.781.312-1.348.472-.863.04.12.215.34.39.492.173.148.317.347.317.445 0 .496 1.067.969 1.239.55.066-.167.085-.167.097 0 .016.247 2.203.305 2.203.06 0-.079.153-.188.34-.235.824-.215.188-2.144-.707-2.144-.168 0-.305-.067-.305-.149s-.191-.2-.421-.258c-.985-.246-.48-.656.671-.55 1.082.101 1.098.097 1.098-.313 0-.3-.094-.414-.328-.414-.18 0-.375-.078-.43-.168-.258-.418-1.715-.02-2.148.586-.067.094-.125 0-.125-.207-.004-.621-.582-.461-1.473.406l-.805.785-.05-1.629c-.043-1.488-.075-1.629-.38-1.629-.183 0-.335.114-.339.254m6.695-.14c-.062.062-.113 1.425-.113 3.031v2.926h.422c.418 0 .422-.016.422-1.492 0-1.692.238-2.122 1.125-2.02l.476.055.047 1.738.051 1.738.457-.05.457-.055.047-1.727c.031-1.11-.012-1.73-.125-1.73-.098 0-.176-.106-.176-.238 0-.133-.238-.36-.531-.508-.598-.297-1.324-.352-1.324-.094 0 .09-.114.168-.25.168-.196 0-.254-.215-.254-.93 0-.898-.305-1.238-.73-.812m-30.676.496c-1.77.957-1.907 5.12-.172 5.12.125 0 .222.079.222.169 0 .305 2.309.21 2.426-.098.254-.656.137-.742-.984-.742-1.535 0-2.004-.434-1.993-1.84.016-1.527.754-2.082 2.543-1.91.774.074.875.047.875-.234-.003-.68-1.949-.993-2.917-.465m4.097 1.078c0 .09-.152.168-.336.168-.25 0-.34.113-.34.422 0 .414.024.422.93.312.867-.101.926-.086.926.254 0 .297-.098.36-.59.36-.324 0-.59.066-.59.148 0 .086-.207.203-.46.27-.802.199-1.11 1.87-.384 2.062.188.047.34.156.34.234 0 .082.301.153.672.153s.676-.078.676-.172c0-.09.113-.168.25-.168.14 0 .254.078.254.168 0 .094.152.172.34.172.359 0 .523-3.32.191-3.848-.332-.523-1.879-.965-1.879-.535m5.266.137c-.301.14-.547.328-.547.41s-.113.262-.25.402c-.16.16-.254.574-.25 1.125 0 1.238.133 1.59.687 1.836.27.117.489.274.489.344 0 .27 1.812.137 1.922-.14.265-.7-.493-1.095-1.047-.54-.157.156-.2.156-.2 0 0-.113-.105-.203-.226-.203-.715 0-1.059-1.531-.496-2.191.476-.555 2.07-.493 2.07.082 0 .23.063.422.14.422.075 0 .231.503.345 1.117.285 1.558 1.082 2.21 1.308 1.074.059-.277.168-.504.25-.504s.149-.098.149-.21c.003-1.216.625-1.688.66-.509.039 1.157 1.363 2.524 1.363 1.403 0-.18.062-.368.144-.418.079-.047.239-.66.36-1.356.117-.699.281-1.273.363-1.273.078 0 .145-.188.145-.418 0-.93-.961-.567-1.098.41-.156 1.152-.52 1.434-.672.523-.062-.375-.183-.683-.27-.683-.085 0-.152-.149-.152-.336 0-.246-.113-.336-.422-.336-.261 0-.421.094-.421.25 0 .14-.07.254-.157.254-.086 0-.25.418-.363.93-.258 1.148-.418 1.171-.562.082-.06-.461-.184-.844-.274-.844s-.164-.145-.164-.324c0-.356-.473-.582-.887-.426-.14.054-.308.02-.367-.078-.156-.25-.91-.192-1.57.125m8.43 0c-.301.14-.547.351-.547.468 0 .114-.094.239-.211.278-.684.23-.075 3.16.66 3.16.125 0 .226.078.226.168 0 .094.34.172.758.172s.758-.059.758-.13c0-.07.172-.202.379-.296 1.117-.488.824-3.77-.336-3.785-.117-.004-.211-.082-.211-.172 0-.246-.84-.168-1.477.137m4.512-.149c0 .098-.265.18-.59.18h-.59v2.105c0 1.996.016 2.11.336 2.11.309 0 .336-.114.336-1.352 0-.742.07-1.347.157-1.347.086 0 .183-.172.21-.38.044-.304.18-.39.7-.433.586-.047.637-.09.59-.504-.055-.46-1.149-.824-1.149-.379m13.653-.004c0 .086-.223.203-.493.266-.37.082-.523.23-.605.601-.059.274-.18.497-.262.497-.57 0 .098 2.496.711 2.652.172.047.313.152.313.23 0 .082.378.153.843.153.461 0 .84-.078.84-.172 0-.09.113-.168.246-.168.692 0 1.067-2.223.528-3.133-.461-.781-2.121-1.504-2.121-.926m4.214.016c0 .09-.265.168-.59.168h-.59v2.95c0 2.835.012 2.948.337 2.948.375 0 .39-.054.363-1.265-.008-.461.023-.746.078-.63.113.25 1.75.29 1.75.04 0-.09.113-.168.25-.168.766 0 1.094-2.172.48-3.207-.43-.73-2.078-1.395-2.078-.836m5.442.148c-.301.149-.547.36-.547.47a.32.32 0 0 1-.207.26c-.735.247-.149 3.165.637 3.165.132 0 .238.078.238.168 0 .094.41.172.91.172.914 0 1.113-.14 1.113-.774 0-.3-.949-.328-1.07-.027-.055.137-.133.148-.223.039a2.1 2.1 0 0 0-.476-.352c-.246-.136-.352-.394-.387-.964-.082-1.203.137-1.465 1.234-1.465.786 0 .922-.047.922-.309 0-.652-1.187-.863-2.144-.383m3.66-.148c0 .09-.082.168-.184.168-.297 0-.988.726-.992 1.043 0 .156-.078.332-.172.39-.207.125-.222.872-.02.997.083.05.2.355.262.675.067.371.23.621.438.688.184.058.332.176.332.262 0 .09.379.16.844.16s.844-.078.844-.172c0-.09.101-.168.226-.168.856 0 1.266-2.555.527-3.285-.793-.79-2.105-1.262-2.105-.758m4.215 0c0 .09-.266.168-.59.168h-.59v4.215h.422c.422 0 .422-.004.422-1.676 0-1.832.129-2.04 1.11-1.793.398.098.41.145.41 1.785 0 1.684 0 1.684.417 1.684.422 0 .422-.004.422-1.676 0-1.832.13-2.04 1.11-1.793.398.098.41.145.41 1.785 0 1.57.02 1.684.336 1.684s.336-.114.336-1.985v-1.98l-.52-.293c-.547-.313-1.336-.399-1.336-.149 0 .282-.746.348-1.125.102-.43-.281-1.234-.332-1.234-.078m-34.305.969c.79.582.649 2.402-.187 2.402-.13 0-.239.094-.247.211-.011.168-.03.168-.097 0-.047-.117-.168-.211-.27-.211-.73 0-1.082-1.52-.507-2.191.285-.336.984-.45 1.308-.211m7.844.254c.004.62.418.96 1.808 1.48 1.004.371.196.871-1.054.652-.406-.07-.715-.046-.781.055-.06.098-.247-.043-.422-.312a7.5 7.5 0 0 0-.602-.809c-.309-.34-.273-.469.277-1.066.45-.485.77-.485.774 0m9.887-.278c.707.188.668 2.266-.04 2.403-.18.035-.382.148-.449.254-.09.136-.125.128-.129-.02 0-.117-.113-.211-.25-.211-.351 0-.593-.543-.593-1.328 0-1.008.472-1.363 1.46-1.098m4.653.559c.195.75.016 1.687-.348 1.82-.16.059-.34.18-.398.27-.067.101-.215.062-.375-.098-.149-.144-.348-.293-.45-.324-.273-.09-.238-2.008.04-2.188.554-.363 1.375-.086 1.53.52m9.165.066c.258.75-.047 1.801-.52 1.801-.144 0-.261.07-.261.16 0 .426-1.016-.453-1.114-.96-.316-1.677 1.356-2.56 1.895-1m-45.453 1.277c0 .347-.711.671-1.223.562-.336-.074-.398-.644-.082-.773.563-.227 1.305-.11 1.305.21m37.793.555c-.387.387-.008.98.629.98.289 0 .351-.105.351-.593 0-.629-.527-.836-.98-.387"/></g><path fill="#fc0404" fill-rule="evenodd" d="M120.29 64.535c-.427.207-.513.637-.126.637.2 0 .25.242.25 1.16 0 .824-.07 1.219-.25 1.367-.441.367-.277.508.59.508.637 0 .84-.062.84-.254 0-.137-.074-.254-.168-.254-.102 0-.168-.672-.168-1.683 0-1.829-.059-1.918-.969-1.48m2.383-.04c-1.246.5-.625 3.703.719 3.707.879.004 1.78-2.336 1.07-2.777-.094-.059-.168-.254-.168-.438 0-.52-.887-.789-1.621-.492m91.43-.05c-.165.042-.297.187-.297.316 0 .133-.075.242-.168.242-.258 0-.2 1.34.07 1.613a.96.96 0 0 0 .594.242c.558 0 .402.477-.242.746-.844.352-.77.665.136.563.895-.102 1.43-.531 1.567-1.262.058-.304.172-.554.254-.554.207 0 .191-.797-.02-.926-.094-.059-.168-.254-.168-.438 0-.496-.863-.77-1.726-.543m-90.485 1.922c0 1.016-.07 1.192-.437 1.051-.297-.113-.328-1.918-.035-2.211.312-.309.468.074.472 1.16m91.434-1.097c.207.539.11.914-.235.914-.273 0-.336-.114-.336-.59 0-.621.375-.832.57-.324m-160.343.48c-.281.316-.559.809-.621 1.098-.066.285-.176.515-.254.515-.074 0-.187.285-.254.633-.062.348-.207.738-.312.867-.27.328-.274 6.446-.004 6.778.105.129.246.558.308.953.067.394.184.715.258.715.078 0 .192.234.254.52.066.284.223.558.352.605.129.05.238.18.238.289 0 .265.613.777.93.777.136 0 .25-.148.25-.336 0-.184-.07-.336-.157-.336-.09 0-.254-.266-.37-.59-.118-.324-.27-.59-.34-.59-.067 0-.176-.363-.243-.8-.066-.442-.203-.856-.304-.922-.266-.168-.258-7.07.003-7.399.106-.129.246-.558.309-.953.066-.394.188-.715.273-.715s.153-.101.153-.222.152-.383.34-.582c.183-.2.336-.48.336-.621 0-.454-.622-.282-1.145.316m62.336-.176c0 .219.113.496.254.61.14.117.254.316.254.441 0 .129.066.234.148.234.172 0 .524 1.297.524 1.926 0 .238.078.434.168.434.109 0 .171 1.152.171 3.117 0 1.969-.062 3.121-.171 3.121-.09 0-.168.191-.168.43 0 .633-.352 1.93-.524 1.93-.082 0-.148.105-.148.23 0 .129-.114.328-.254.441-.293.242-.344 1.012-.067 1.012.614 0 1.704-1.7 2.024-3.148.117-.54.289-1.032.383-1.094.238-.16.238-5.684 0-5.836-.102-.067-.227-.473-.285-.906-.106-.774-.657-2.036-1.079-2.473a3 3 0 0 1-.394-.547c-.254-.476-.836-.422-.836.078m31.492-.105c-.14.16-.3.426-.36.59-.058.16-.175.293-.26.293-.087 0-.25.398-.368.886-.113.485-.281.93-.367.989-.086.054-.2.566-.25 1.136-.051.57-.16 1.035-.243 1.035-.078 0-.144.836-.144 1.856s.066 1.851.148 1.851.2.532.262 1.184c.067.648.172 1.18.242 1.18.067 0 .215.34.325.758.113.418.28.757.37.757.094 0 .173.09.173.2 0 .382.757 1.316 1.074 1.316.328 0 .293-.953-.043-1.168-.078-.055-.203-.285-.274-.516-.07-.23-.207-.472-.3-.53-.223-.145-.434-1.477-.45-2.802-.004-.582-.086-1.05-.175-1.05-.098 0-.172-.508-.172-1.18 0-.676.074-1.18.172-1.18.09 0 .167-.43.167-.957 0-1.191.32-3.09.524-3.09.082 0 .148-.101.148-.226s.153-.403.34-.617c.184-.215.336-.528.336-.7 0-.402-.539-.41-.875-.015m62.3.246c.063.3.216.601.349.676.129.074.289.379.355.68.063.3.18.585.258.636.496.316.5 8.934.004 9.262-.074.047-.184.293-.246.539-.059.25-.223.566-.364.707-.449.45-.523 1.285-.117 1.285.2 0 .395-.14.457-.336.059-.184.168-.336.25-.336.078 0 .23-.266.34-.59.106-.324.262-.59.34-.59.082 0 .2-.265.258-.59.062-.324.172-.59.242-.59.586 0 .605-7.886.02-8.25-.086-.054-.211-.382-.274-.73-.066-.347-.168-.629-.227-.629-.062 0-.214-.238-.343-.53-.516-1.161-1.504-1.626-1.301-.614m-71.918 3.113c-.164.043-.297.149-.297.234s-.113.157-.254.157c-.14 0-.25.148-.25.336 0 .246.11.336.418.336h.422v4.386h-.422c-.262 0-.418.094-.418.25 0 .207.262.254 1.348.254s1.347-.047 1.347-.254c0-.156-.16-.25-.421-.25h-.422v-2.78c0-3.06.043-2.954-1.051-2.669m3.695.234c-.379.438-.62 1.067-.62 1.602 0 .223-.075.41-.169.41s-.168.34-.168.758.067.758.145.758c.082 0 .187.308.238.683.223 1.649 2.457 2.262 3.172.872.129-.254.312-.512.406-.579.258-.183.219-3.543-.043-3.632a.31.31 0 0 1-.21-.278c0-.886-2.11-1.344-2.75-.594m1.663.668c.45.5.446 3.54-.007 4.04-.743.816-1.098.16-1.098-2.024 0-2.187.355-2.84 1.105-2.016M53.152 81.273v1.77h72.153V79.48l-.465.051c-.453.055-.465.082-.512 1.278l-.05 1.222H54.163V79.5h-1.012zm31.02 2.782c0 .09-.121.168-.266.168-.18 0-.23.097-.164.312.164.52-.07.867-.59.867-.27 0-.574.133-.699.305-.496.688-.637.59-.539-.383.09-.879.074-.933-.273-.933-.32 0-.364.074-.301.504l.074.507-1.066.024c-.586.015-1.16.035-1.274.043-.117.008-.238-.192-.265-.446-.067-.574-.27-.585-.774-.043-.258.278-.574.422-.922.422-.347 0-.527.082-.527.246 0 .332-.363 1.102-.516 1.102-.07 0-.086-.305-.035-.676.094-.715-.426-.98-.933-.469-.157.157-.247.157-.403 0-.93-.93-2.719.426-2.41 1.825.238 1.082 2.441.414 2.441-.743 0-.257.094-.44.23-.44.173 0 .208.202.145.835l-.078.836.989-.012c.55-.008 1.046-.097 1.117-.203.09-.14.12-.137.125.016 0 .12.215.21.496.21.27 0 .527-.093.574-.21.067-.168.09-.168.098 0 .011.14.3.21.855.21.895 0 1.18-.347.965-1.183-.055-.207-.004-.332.137-.332a.37.37 0 0 0 .308-.21c.051-.118.047.226-.007.757-.098.965.515 1.5.859.758.082-.168.121-.168.2 0 .062.14.491.21 1.25.21.769 0 1.175-.07 1.23-.21.058-.168.12-.168.3 0 .344.328 1.29.258 1.672-.125.414-.418.426-.633.043-.711-.265-.051-.254-.094.082-.387.598-.516.508-1.094-.168-1.094-.785.004-1.304.172-1.304.422 0 .117-.118.262-.262.317-.219.082-.242-.004-.145-.532.063-.347.18-.656.262-.683.324-.13.152-1.043-.195-1.043-.184 0-.336.078-.336.172m7.418-.024c0 .086-.153.192-.336.239a.74.74 0 0 0-.457.398c-.149.394-.477.734-.711.734-.102 0-.184.153-.184.336 0 .188.078.336.168.336.211 0 .227.621.02.75-.082.051-.2.356-.258.684-.094.488-.187.59-.531.59-.512 0-.703.406-.352.754.29.293.785.347.785.09 0-.094.102-.169.223-.169.277 0 .895-1.214 1.05-2.074.173-.953.509-.68.442.367l-.054.871 1.496-.023 1.496-.02.875-1.546-.086.793c-.086.761-.074.789.351.789.246 0 .446-.075.446-.168s.113-.168.254-.168c.136 0 .25.074.25.168 0 .3 1.375.195 1.62-.125.216-.282.223-.282.231 0 .004.351 1.094.425 1.254.082.078-.168.117-.168.195 0 .141.297.72.261 1.043-.059.25-.25.285-.25.47 0 .202.278 1.76.403 1.76.14 0-.07.145-.214.321-.323.277-.176.309-.157.234.125-.07.261 0 .328.356.328.328 0 .441-.086.441-.336 0-.188.075-.336.164-.336s.211-.188.27-.41c.152-.618.531-.684.441-.078-.039.265-.14.488-.222.488s-.149.148-.149.336c0 .5.84.445 1.223-.078.18-.25.23-.45.125-.512-.219-.137-.219-.758 0-.758.094 0 .168-.183.168-.406 0-.403 0-.403-2.074-.41-2.371-.008-2.805.132-3.094.988-.195.574-.2.566-.145-.313.032-.492.102-.94.157-.996.277-.277.078-.718-.32-.718-.462 0-.583.445-.22.808.157.156.102.203-.253.203-.371 0-.457-.078-.457-.422 0-.23-.07-.421-.153-.421-.086 0-.308.191-.488.421-.285.36-.469.422-1.285.422-.785 0-1.024.07-1.367.414l-.414.414v-.84l-3.118.094-.296.59-.293.59.101-.629.102-.633h-.703c-.653 0-.696-.027-.586-.379.148-.492.27-.601.363-.34.11.31.723.262.723-.054 0-.145-.11-.371-.243-.504-.265-.266-.77-.324-.77-.094m-13.991 2.196c0 .293-.11.53-.274.593-.219.082-.25.028-.172-.277.059-.211.106-.477.106-.594s.078-.21.172-.21.168.218.168.488m1.347 0c0 .324-.097.511-.3.562-.25.066-.29-.012-.235-.484.086-.711.535-.778.535-.078m4.047.585c-.508.497-.531.504-.418.122.172-.575.82-1.223.899-.895.03.137-.184.484-.48.773m15.726-.269c-.078.61-.387 1.039-.387.543 0-.09-.152-.168-.336-.168-.187 0-.34.078-.34.168 0 .25-.5.207-.523-.04-.067-.702.242-1.042.715-.792.37.2.82.031.82-.309 0-.144.035-.23.074-.187.043.039.031.39-.023.785m1.332.113c-.059.504-.102.555-.305.352-.27-.27-.312-.762-.066-.762.093 0 .172-.133.172-.297.003-.207.043-.234.136-.086.07.114.102.473.063.793m2.894-.664c.114.297-.023.711-.375 1.121-.3.348-.554.254-.422-.156.391-1.223.602-1.477.797-.965m-28.886.32c0 .239-.7 1.114-.891 1.114-.29 0-.094-.899.258-1.18.394-.324.633-.297.633.067m30.004.015c0 .14-.075.254-.168.254s-.168-.113-.168-.254c0-.137.074-.254.168-.254.093 0 .168.117.168.254m-22.25.336c0 .14-.079.254-.168.254-.094 0-.172-.113-.172-.254 0-.137.078-.25.172-.25.09 0 .168.113.168.25"/></svg>