<svg xmlns="http://www.w3.org/2000/svg" xmlns:xlink="http://www.w3.org/1999/xlink" width="400" zoomAndPan="magnify" viewBox="0 0 300 168.749997" height="225" preserveAspectRatio="xMidYMid meet" version="1.0"><defs><clipPath id="948e5d9b3a"><path d="M 0.222656 0 L 299.777344 0 L 299.777344 168.5 L 0.222656 168.5 Z M 0.222656 0 " clip-rule="nonzero"/></clipPath><clipPath id="37398df3d8"><path d="M 10 66 L 299 66 L 299 146.78125 L 10 146.78125 Z M 10 66 " clip-rule="nonzero"/></clipPath></defs><g clip-path="url(#948e5d9b3a)"><path fill="#ffffff" d="M 0.222656 0 L 299.777344 0 L 299.777344 168.5 L 0.222656 168.5 Z M 0.222656 0 " fill-opacity="1" fill-rule="nonzero"/><path fill="#ffffff" d="M 0.222656 0 L 299.777344 0 L 299.777344 168.5 L 0.222656 168.5 Z M 0.222656 0 " fill-opacity="1" fill-rule="nonzero"/></g><path fill="#2d4cfa" d="M 18.882812 50.507812 C 18.621094 50.769531 18.785156 51.078125 19.1875 51.078125 C 19.566406 51.078125 19.609375 51.144531 19.609375 51.753906 C 19.609375 52.121094 19.542969 52.425781 19.457031 52.425781 C 19.378906 52.425781 19.253906 52.863281 19.1875 53.394531 C 19.121094 53.929688 18.96875 54.667969 18.847656 55.039062 C 18.730469 55.410156 18.578125 56.09375 18.511719 56.558594 C 18.449219 57.019531 18.335938 57.476562 18.261719 57.566406 C 18.144531 57.710938 17.753906 59.839844 17.753906 60.324219 C 17.753906 60.421875 18.621094 60.476562 19.910156 60.460938 L 22.066406 60.433594 L 22.734375 59.757812 C 23.640625 58.851562 23.960938 58.3125 24.09375 57.492188 C 24.152344 57.113281 24.269531 56.761719 24.351562 56.710938 C 24.554688 56.585938 24.535156 55.167969 24.328125 55.039062 C 24.234375 54.980469 24.160156 54.800781 24.160156 54.632812 C 24.160156 53.289062 21.832031 53.042969 20.835938 54.277344 C 20.660156 54.496094 20.628906 54.480469 20.625 54.15625 C 20.621094 53.945312 20.683594 53.773438 20.765625 53.773438 C 20.847656 53.773438 20.964844 53.378906 21.03125 52.894531 C 21.09375 52.410156 21.214844 51.929688 21.300781 51.828125 C 21.382812 51.726562 21.472656 51.382812 21.5 51.066406 L 21.546875 50.488281 L 20.273438 50.4375 C 19.574219 50.414062 18.949219 50.445312 18.882812 50.507812 M 22.402344 54.859375 C 22.664062 55.121094 22.742188 56.726562 22.496094 56.878906 C 22.414062 56.929688 22.300781 57.28125 22.238281 57.660156 C 21.914062 59.695312 19.582031 60.292969 19.851562 58.273438 C 19.914062 57.796875 20.027344 57.328125 20.101562 57.234375 C 20.175781 57.140625 20.285156 56.855469 20.34375 56.601562 C 20.582031 55.617188 21.976562 54.433594 22.402344 54.859375 M 159.691406 68.917969 C 159.691406 69.328125 159.777344 69.425781 160.199219 69.511719 C 160.707031 69.613281 160.957031 70.457031 160.558594 70.703125 C 160.476562 70.753906 160.3125 71.421875 160.199219 72.1875 C 160.082031 72.957031 159.929688 73.660156 159.859375 73.75 C 159.792969 73.84375 159.683594 74.300781 159.617188 74.761719 C 159.554688 75.226562 159.398438 75.910156 159.277344 76.28125 C 159.15625 76.652344 159 77.371094 158.933594 77.882812 C 158.867188 78.390625 158.738281 78.851562 158.65625 78.90625 C 158.570312 78.960938 158.484375 79.566406 158.464844 80.253906 L 158.429688 81.503906 L 158.925781 81.5625 C 159.238281 81.597656 159.496094 81.519531 159.621094 81.351562 C 159.796875 81.109375 159.867188 81.105469 160.300781 81.335938 C 162.660156 82.5625 166.019531 80.289062 166.382812 77.21875 C 166.4375 76.746094 166.546875 76.363281 166.628906 76.363281 C 166.832031 76.363281 166.808594 74.722656 166.605469 74.59375 C 166.511719 74.535156 166.4375 74.296875 166.4375 74.0625 C 166.4375 72.882812 164.011719 71.898438 163.171875 72.738281 C 163.035156 72.878906 162.839844 72.992188 162.738281 72.992188 C 162.640625 72.992188 162.398438 73.152344 162.203125 73.347656 C 161.886719 73.664062 161.859375 73.667969 161.941406 73.386719 C 161.988281 73.214844 162.082031 72.738281 162.144531 72.324219 C 162.210938 71.910156 162.328125 71.457031 162.402344 71.3125 C 162.570312 71.007812 162.90625 69.546875 162.949219 68.945312 C 162.980469 68.527344 162.972656 68.523438 161.335938 68.476562 L 159.691406 68.429688 L 159.691406 68.917969 M 164.089844 74.050781 C 164.597656 74.441406 164.59375 77.730469 164.089844 78.042969 C 164.003906 78.09375 163.882812 78.34375 163.820312 78.597656 C 163.546875 79.679688 162.324219 80.53125 161.351562 80.320312 L 160.824219 80.203125 L 160.929688 78.589844 C 160.988281 77.703125 161.09375 76.933594 161.164062 76.882812 C 161.238281 76.828125 161.484375 76.410156 161.714844 75.949219 C 162.085938 75.210938 162.355469 74.882812 163.265625 74.054688 C 163.546875 73.796875 163.757812 73.796875 164.089844 74.050781 M 214.648438 78.542969 C 214.648438 78.957031 214.730469 79.054688 215.171875 79.148438 C 215.703125 79.265625 215.804688 80.574219 215.332031 81.164062 C 215.253906 81.257812 215.136719 81.753906 215.070312 82.265625 C 215.003906 82.773438 214.890625 83.265625 214.816406 83.359375 C 214.746094 83.453125 214.585938 84.191406 214.464844 85.003906 C 214.339844 85.816406 214.191406 86.480469 214.128906 86.480469 C 214.066406 86.480469 213.964844 86.875 213.902344 87.359375 C 213.835938 87.84375 213.710938 88.328125 213.617188 88.4375 C 213.527344 88.546875 213.4375 89.195312 213.417969 89.875 L 213.382812 91.113281 L 213.882812 91.171875 C 214.203125 91.207031 214.453125 91.128906 214.585938 90.941406 C 214.777344 90.679688 214.824219 90.679688 215.179688 90.929688 C 215.683594 91.28125 217.761719 91.296875 218.355469 90.949219 C 218.589844 90.816406 218.882812 90.652344 219.015625 90.585938 C 219.804688 90.191406 221.222656 88.179688 221.222656 87.460938 C 221.222656 87.300781 221.289062 87.132812 221.371094 87.082031 C 222.046875 86.664062 221.726562 83.667969 220.910156 82.773438 C 220.21875 82.019531 218.316406 81.734375 218.082031 82.347656 C 218.027344 82.488281 217.890625 82.601562 217.78125 82.601562 C 217.667969 82.601562 217.40625 82.761719 217.199219 82.957031 L 216.816406 83.308594 L 216.933594 82.660156 C 217 82.304688 217.109375 81.933594 217.179688 81.84375 C 217.25 81.75 217.402344 81.121094 217.523438 80.445312 C 217.640625 79.769531 217.800781 79.175781 217.878906 79.128906 C 217.957031 79.082031 218.019531 78.820312 218.019531 78.546875 L 218.019531 78.050781 L 214.648438 78.050781 L 214.648438 78.542969 M 276.21875 81.710938 C 276.011719 81.75 275.839844 81.851562 275.839844 81.9375 C 275.839844 82.023438 275.742188 82.09375 275.625 82.09375 C 275.507812 82.09375 275.289062 82.226562 275.144531 82.390625 C 274.996094 82.554688 274.734375 82.808594 274.558594 82.957031 C 273.746094 83.644531 273.007812 85 272.863281 86.078125 C 272.804688 86.488281 272.695312 86.867188 272.613281 86.914062 C 272.410156 87.039062 272.433594 89.46875 272.636719 89.597656 C 272.730469 89.652344 272.804688 89.851562 272.804688 90.035156 C 272.804688 90.449219 273.464844 91.367188 273.765625 91.367188 C 273.886719 91.367188 273.984375 91.441406 273.984375 91.535156 C 273.984375 91.628906 274.4375 91.703125 275 91.703125 C 275.554688 91.703125 276.007812 91.636719 276.007812 91.554688 C 276.007812 91.472656 276.179688 91.359375 276.390625 91.304688 C 276.597656 91.25 277.023438 90.960938 277.339844 90.664062 L 277.914062 90.125 L 277.796875 90.75 L 277.675781 91.378906 L 279.414062 91.332031 C 281.023438 91.285156 281.152344 91.257812 281.152344 90.945312 C 281.152344 90.722656 281.019531 90.589844 280.773438 90.554688 C 280.175781 90.46875 280.03125 88.503906 280.550781 87.527344 C 280.691406 87.257812 280.976562 85.984375 281.4375 83.527344 C 281.539062 82.972656 281.699219 82.46875 281.785156 82.410156 C 281.875 82.355469 281.894531 82.144531 281.832031 81.949219 C 281.695312 81.511719 280.828125 81.453125 280.277344 81.839844 C 279.960938 82.0625 279.863281 82.0625 279.4375 81.839844 C 278.980469 81.605469 277.15625 81.527344 276.21875 81.710938 M 278.847656 83.023438 C 279.023438 83.203125 278.953125 85.421875 278.753906 85.84375 C 278.65625 86.054688 278.480469 86.546875 278.363281 86.941406 C 278.242188 87.335938 278.082031 87.660156 278.003906 87.660156 C 277.925781 87.660156 277.863281 87.738281 277.863281 87.839844 C 277.863281 88.023438 277.144531 89.039062 276.660156 89.53125 C 276.191406 90.007812 275.445312 90.082031 275.089844 89.6875 C 274.699219 89.257812 274.800781 86.546875 275.234375 85.71875 C 275.382812 85.441406 275.503906 85.042969 275.503906 84.835938 C 275.503906 84.625 275.570312 84.457031 275.652344 84.457031 C 275.734375 84.457031 275.886719 84.246094 275.992188 83.992188 C 276.371094 83.082031 278.265625 82.4375 278.847656 83.023438 M 218.964844 83.574219 C 219.375 83.847656 219.757812 84.964844 219.574219 85.347656 C 219.476562 85.554688 219.351562 86.132812 219.300781 86.632812 C 219.25 87.136719 219.140625 87.59375 219.058594 87.644531 C 218.976562 87.699219 218.824219 88.015625 218.714844 88.351562 C 218.359375 89.4375 217.214844 90.160156 216.238281 89.917969 C 215.550781 89.742188 215.957031 86.179688 216.761719 85.289062 C 216.898438 85.140625 217.007812 84.96875 217.007812 84.910156 C 217.007812 84.738281 218.074219 83.679688 218.359375 83.570312 C 218.707031 83.433594 218.753906 83.433594 218.964844 83.574219 M 161.671875 93.167969 C 161.511719 93.210938 161.378906 93.308594 161.378906 93.382812 C 161.378906 93.460938 161.1875 93.570312 160.953125 93.628906 C 160.152344 93.828125 158.941406 95.425781 158.257812 97.183594 C 157.878906 98.152344 157.773438 101.398438 158.109375 101.613281 C 158.214844 101.679688 158.351562 101.898438 158.414062 102.101562 C 158.476562 102.304688 158.753906 102.570312 159.027344 102.691406 C 159.300781 102.8125 159.523438 102.96875 159.523438 103.039062 C 159.523438 103.109375 159.941406 103.167969 160.453125 103.167969 C 160.960938 103.167969 161.378906 103.101562 161.378906 103.015625 C 161.378906 102.933594 161.566406 102.820312 161.792969 102.761719 C 162.019531 102.707031 162.4375 102.414062 162.71875 102.113281 L 163.230469 101.566406 L 163.230469 102.199219 L 163.234375 102.832031 L 164.835938 102.832031 C 166.417969 102.832031 166.4375 102.824219 166.4375 102.421875 C 166.4375 102.125 166.332031 101.996094 166.058594 101.957031 C 165.648438 101.898438 165.519531 99.539062 165.902344 99.066406 C 165.988281 98.957031 166.148438 98.300781 166.257812 97.605469 C 166.367188 96.910156 166.523438 96.1875 166.609375 96.003906 C 166.691406 95.816406 166.832031 95.246094 166.921875 94.734375 C 167.011719 94.222656 167.097656 93.730469 167.117188 93.640625 C 167.207031 93.183594 167.070312 93.050781 166.496094 93.050781 C 166.105469 93.050781 165.804688 93.160156 165.667969 93.347656 C 165.460938 93.628906 165.425781 93.628906 164.945312 93.347656 C 164.464844 93.066406 162.488281 92.957031 161.671875 93.167969 M 163.859375 94.335938 C 164.351562 94.46875 164.519531 95.34375 164.28125 96.492188 C 163.960938 98.003906 163.683594 98.953125 163.5625 98.953125 C 163.496094 98.953125 163.34375 99.191406 163.222656 99.480469 C 162.695312 100.753906 160.992188 101.828125 160.414062 101.246094 C 160.210938 101.042969 160.277344 97.425781 160.488281 97.296875 C 160.585938 97.234375 160.761719 96.863281 160.878906 96.476562 C 161.328125 94.960938 162.652344 94.015625 163.859375 94.335938 M 13.707031 109.554688 C 13.707031 109.636719 13.519531 109.753906 13.292969 109.808594 C 11.691406 110.210938 10.363281 113.613281 11.175781 115.230469 C 11.765625 116.402344 11.882812 116.484375 12.949219 116.484375 C 13.675781 116.484375 13.980469 116.410156 14.152344 116.191406 C 14.371094 115.910156 14.390625 115.910156 14.558594 116.191406 C 14.824219 116.628906 17.246094 116.628906 17.246094 116.1875 C 17.246094 116.023438 17.078125 115.816406 16.867188 115.722656 C 16.484375 115.554688 16.214844 114.628906 16.550781 114.628906 C 16.640625 114.628906 16.769531 114.136719 16.832031 113.535156 C 16.898438 112.933594 17.003906 112.4375 17.070312 112.4375 C 17.175781 112.4375 17.589844 110.175781 17.585938 109.613281 C 17.585938 109.492188 17.371094 109.40625 17.078125 109.40625 C 16.800781 109.40625 16.574219 109.480469 16.574219 109.574219 C 16.574219 109.667969 16.460938 109.742188 16.320312 109.742188 C 16.179688 109.742188 16.066406 109.667969 16.066406 109.574219 C 16.066406 109.476562 15.5625 109.40625 14.886719 109.40625 C 14.238281 109.40625 13.707031 109.472656 13.707031 109.554688 M 15.425781 111.589844 C 15.398438 112.191406 15.292969 112.777344 15.195312 112.898438 C 15.09375 113.015625 15.0625 113.113281 15.125 113.113281 C 15.34375 113.113281 14.65625 114.210938 14.101562 114.75 C 13.433594 115.398438 13.371094 115.414062 12.988281 114.964844 C 12.679688 114.609375 12.582031 113.308594 12.839844 113.019531 C 12.917969 112.933594 13.078125 112.519531 13.191406 112.101562 C 13.703125 110.226562 15.511719 109.8125 15.425781 111.589844 " fill-opacity="1" fill-rule="evenodd"/><g clip-path="url(#37398df3d8)"><path fill="#000000" d="M 21.292969 66.527344 C 21.15625 66.574219 20.890625 66.671875 20.703125 66.75 C 20.519531 66.828125 20.101562 66.988281 19.78125 67.113281 C 18.582031 67.566406 16.894531 69.710938 16.640625 71.105469 C 16.574219 71.449219 16.472656 71.765625 16.40625 71.8125 C 16.277344 71.902344 15.953125 73.949219 15.726562 76.109375 C 15.652344 76.851562 15.585938 81.941406 15.582031 87.417969 C 15.570312 97.820312 15.527344 99.007812 15.105469 99.945312 C 14.964844 100.261719 14.839844 100.695312 14.824219 100.914062 C 14.8125 101.132812 14.707031 101.347656 14.59375 101.390625 C 14.476562 101.433594 14.382812 101.570312 14.382812 101.691406 C 14.382812 102.507812 12.914062 102.796875 12.3125 102.101562 C 11.917969 101.636719 11.609375 101.574219 10.695312 101.753906 L 10.167969 101.859375 L 10.167969 104.308594 L 10.9375 104.425781 C 11.796875 104.554688 13.875 104.378906 13.875 104.179688 C 13.875 104.109375 14.09375 104.007812 14.355469 103.957031 C 15.019531 103.824219 15.996094 103.164062 16.265625 102.667969 C 16.390625 102.441406 16.691406 102.050781 16.9375 101.796875 C 17.183594 101.542969 17.4375 101.101562 17.5 100.816406 C 17.5625 100.535156 17.671875 100.300781 17.75 100.300781 C 17.824219 100.300781 17.9375 100.015625 18.003906 99.667969 C 18.066406 99.320312 18.183594 98.960938 18.257812 98.867188 C 18.429688 98.65625 18.765625 96.492188 18.765625 95.605469 C 18.765625 95.21875 18.855469 94.90625 18.976562 94.863281 C 19.140625 94.808594 19.1875 92.285156 19.1875 82.992188 C 19.1875 74.835938 19.242188 71.117188 19.367188 70.953125 C 19.46875 70.824219 19.640625 70.394531 19.753906 70 C 20.148438 68.621094 22.640625 67.402344 22.640625 68.589844 C 22.640625 68.914062 22.734375 68.945312 23.652344 68.945312 L 24.664062 68.945312 L 24.664062 68.207031 C 24.664062 67.804688 24.710938 67.234375 24.769531 66.945312 L 24.875 66.417969 L 23.210938 66.433594 C 22.296875 66.4375 21.433594 66.480469 21.292969 66.527344 M 153.625 85.296875 L 153.625 101.480469 L 154.953125 101.480469 C 156.011719 101.480469 156.304688 101.425781 156.386719 101.214844 C 156.574219 100.726562 156.503906 69.792969 156.316406 69.441406 C 156.167969 69.164062 155.953125 69.113281 154.882812 69.113281 L 153.625 69.113281 L 153.625 85.296875 M 128.5 76.496094 C 127.734375 76.867188 126.777344 77.546875 126.59375 77.847656 C 126.511719 77.976562 126.265625 78.242188 126.039062 78.4375 C 125.484375 78.921875 124.839844 80.105469 124.414062 81.421875 C 123.699219 83.636719 124.074219 89.199219 124.980469 89.851562 C 125.042969 89.894531 125.207031 90.199219 125.34375 90.523438 C 125.898438 91.847656 128.648438 93.847656 129.710938 93.699219 C 130.457031 93.59375 130.375 92.449219 129.613281 92.308594 C 129.28125 92.246094 129.011719 92.132812 129.011719 92.054688 C 129.011719 91.980469 128.75 91.738281 128.433594 91.519531 C 128.113281 91.300781 127.8125 91.003906 127.769531 90.863281 C 127.722656 90.722656 127.570312 90.417969 127.429688 90.1875 C 126.59375 88.804688 126.316406 87.484375 126.316406 84.910156 C 126.316406 82.953125 126.582031 80.914062 126.839844 80.914062 C 126.921875 80.914062 126.988281 80.820312 126.988281 80.703125 C 126.988281 79.949219 128.386719 78.128906 129.101562 77.949219 C 129.332031 77.890625 129.519531 77.777344 129.519531 77.695312 C 129.519531 77.613281 129.667969 77.542969 129.855469 77.542969 C 130.101562 77.542969 130.191406 77.429688 130.191406 77.136719 C 130.191406 76.144531 129.652344 75.9375 128.5 76.496094 M 141.589844 76.460938 C 141.390625 76.980469 141.488281 77.40625 141.824219 77.496094 C 142.007812 77.542969 142.160156 77.640625 142.160156 77.714844 C 142.160156 77.785156 142.347656 77.890625 142.578125 77.949219 C 143.296875 78.128906 144.691406 79.890625 144.691406 80.621094 C 144.691406 80.769531 144.761719 80.914062 144.847656 80.945312 C 145.484375 81.167969 145.503906 88.113281 144.871094 88.917969 C 144.796875 89.011719 144.644531 89.363281 144.539062 89.699219 C 144.273438 90.523438 142.652344 92.1875 141.988281 92.320312 C 141.296875 92.457031 141.28125 93.601562 141.96875 93.699219 C 142.992188 93.84375 145.777344 91.84375 146.3125 90.578125 C 146.4375 90.285156 146.609375 89.996094 146.699219 89.945312 C 146.785156 89.890625 146.90625 89.601562 146.972656 89.300781 C 147.035156 89 147.152344 88.675781 147.230469 88.578125 C 147.804688 87.859375 147.78125 82.863281 147.191406 81.335938 C 146.597656 79.800781 146.082031 78.8125 145.679688 78.445312 C 145.460938 78.246094 145.101562 77.886719 144.882812 77.644531 C 144.664062 77.402344 144.378906 77.207031 144.25 77.207031 C 144.121094 77.207031 144.015625 77.136719 144.015625 77.046875 C 144.015625 76.539062 141.769531 75.996094 141.589844 76.460938 M 210.152344 76.589844 C 209.765625 76.792969 209.304688 77.089844 209.128906 77.25 C 208.949219 77.414062 208.753906 77.542969 208.691406 77.542969 C 208.515625 77.542969 207.90625 78.199219 207.90625 78.390625 C 207.90625 78.488281 207.792969 78.609375 207.660156 78.660156 C 207.527344 78.710938 207.332031 79.011719 207.226562 79.328125 C 207.121094 79.644531 206.972656 79.90625 206.894531 79.90625 C 206.816406 79.90625 206.699219 80.152344 206.636719 80.453125 C 206.570312 80.753906 206.453125 81.082031 206.371094 81.179688 C 205.78125 81.917969 205.789062 88.457031 206.382812 88.835938 C 206.453125 88.882812 206.566406 89.167969 206.632812 89.46875 C 206.699219 89.773438 206.804688 90.019531 206.867188 90.019531 C 206.929688 90.019531 207.085938 90.261719 207.21875 90.554688 C 207.503906 91.207031 208.980469 92.703125 209.675781 93.050781 C 209.953125 93.191406 210.226562 93.367188 210.285156 93.445312 C 210.339844 93.519531 210.757812 93.597656 211.210938 93.613281 L 212.035156 93.644531 L 212.085938 93.03125 C 212.132812 92.449219 212.105469 92.414062 211.539062 92.308594 C 211.210938 92.246094 210.941406 92.121094 210.941406 92.035156 C 210.941406 91.945312 210.859375 91.875 210.757812 91.875 C 210.523438 91.875 209.589844 90.941406 209.589844 90.707031 C 209.589844 90.605469 209.535156 90.523438 209.464844 90.523438 C 209.3125 90.519531 208.917969 89.707031 208.917969 89.394531 C 208.917969 89.273438 208.847656 89.175781 208.765625 89.175781 C 208.683594 89.175781 208.5625 88.816406 208.5 88.375 C 208.433594 87.933594 208.308594 87.488281 208.222656 87.382812 C 208.015625 87.132812 208.015625 82.574219 208.21875 82.445312 C 208.308594 82.390625 208.433594 81.988281 208.5 81.546875 C 208.5625 81.105469 208.679688 80.703125 208.753906 80.660156 C 208.832031 80.613281 208.980469 80.304688 209.089844 79.976562 C 209.273438 79.417969 210.464844 78.050781 210.761719 78.050781 C 210.835938 78.050781 210.992188 77.9375 211.109375 77.796875 C 211.222656 77.65625 211.464844 77.542969 211.640625 77.542969 C 212.03125 77.542969 212.191406 77.179688 212.050781 76.617188 C 211.914062 76.074219 211.15625 76.0625 210.152344 76.589844 M 223.414062 76.871094 C 223.414062 77.429688 223.46875 77.542969 223.75 77.542969 C 223.9375 77.542969 224.089844 77.621094 224.089844 77.710938 C 224.089844 77.804688 224.171875 77.882812 224.273438 77.882812 C 224.539062 77.882812 226.109375 79.421875 226.109375 79.683594 C 226.109375 79.804688 226.179688 79.90625 226.265625 79.90625 C 226.351562 79.90625 226.476562 80.152344 226.539062 80.453125 C 226.605469 80.753906 226.726562 81.042969 226.808594 81.09375 C 227.390625 81.464844 227.375 88.464844 226.792969 88.835938 C 226.71875 88.882812 226.605469 89.167969 226.539062 89.46875 C 226.476562 89.773438 226.351562 90.019531 226.265625 90.019531 C 226.179688 90.019531 226.109375 90.125 226.109375 90.25 C 226.109375 90.539062 224.761719 91.875 224.46875 91.875 C 224.351562 91.875 224.257812 91.949219 224.257812 92.039062 C 224.257812 92.128906 224.066406 92.25 223.835938 92.308594 C 223.472656 92.398438 223.414062 92.511719 223.414062 93.09375 L 223.414062 93.769531 L 224.125 93.65625 C 224.515625 93.59375 224.878906 93.476562 224.929688 93.394531 C 224.976562 93.316406 225.234375 93.195312 225.496094 93.128906 C 225.753906 93.0625 226.011719 92.90625 226.058594 92.777344 C 226.109375 92.652344 226.242188 92.546875 226.359375 92.546875 C 226.542969 92.546875 227.746094 91.316406 228.101562 90.765625 C 228.578125 90.03125 228.953125 89.144531 229.0625 88.5 C 229.128906 88.085938 229.261719 87.695312 229.355469 87.636719 C 229.582031 87.492188 229.597656 82.695312 229.375 82.402344 C 229.277344 82.28125 229.109375 81.742188 228.992188 81.210938 C 228.878906 80.675781 228.71875 80.242188 228.640625 80.242188 C 228.5625 80.242188 228.449219 80.019531 228.390625 79.75 C 228.332031 79.480469 228.171875 79.214844 228.039062 79.164062 C 227.90625 79.113281 227.796875 78.988281 227.796875 78.882812 C 227.796875 78.621094 226.59375 77.375 226.335938 77.375 C 226.222656 77.375 226.066406 77.269531 225.992188 77.144531 C 225.785156 76.785156 224.496094 76.195312 223.925781 76.195312 C 223.441406 76.195312 223.414062 76.230469 223.414062 76.871094 M 270.277344 76.578125 C 268.972656 77.226562 267.410156 78.726562 267.410156 79.332031 C 267.410156 79.441406 267.308594 79.570312 267.179688 79.621094 C 267.054688 79.667969 266.898438 79.980469 266.835938 80.3125 C 266.773438 80.644531 266.65625 80.914062 266.574219 80.914062 C 266.492188 80.914062 266.371094 81.335938 266.308594 81.84375 C 266.246094 82.355469 266.125 82.816406 266.042969 82.867188 C 265.851562 82.984375 265.847656 86.984375 266.042969 86.984375 C 266.121094 86.984375 266.238281 87.441406 266.300781 87.996094 C 266.367188 88.550781 266.480469 89.007812 266.554688 89.007812 C 266.632812 89.007812 266.789062 89.347656 266.90625 89.765625 C 267.023438 90.183594 267.183594 90.523438 267.265625 90.523438 C 267.347656 90.523438 267.410156 90.640625 267.410156 90.78125 C 267.410156 90.925781 267.527344 91.085938 267.664062 91.136719 C 267.804688 91.191406 267.917969 91.320312 267.917969 91.425781 C 267.917969 91.660156 268.828125 92.546875 269.066406 92.546875 C 269.15625 92.546875 269.269531 92.652344 269.320312 92.777344 C 269.367188 92.90625 269.621094 93.0625 269.882812 93.128906 C 270.144531 93.195312 270.398438 93.316406 270.449219 93.394531 C 270.640625 93.703125 271.964844 93.792969 271.964844 93.496094 C 271.964844 93.34375 272.039062 93.222656 272.132812 93.222656 C 272.644531 93.222656 272.269531 92.410156 271.710938 92.304688 C 271.386719 92.246094 271.121094 92.121094 271.121094 92.035156 C 271.121094 91.945312 271.03125 91.875 270.925781 91.875 C 270.296875 91.875 269.035156 90.054688 268.753906 88.75 C 268.636719 88.195312 268.472656 87.671875 268.398438 87.582031 C 268.207031 87.371094 268.214844 82.308594 268.402344 82.195312 C 268.480469 82.144531 268.597656 81.78125 268.664062 81.382812 C 268.785156 80.609375 269.40625 79.230469 269.632812 79.230469 C 269.710938 79.230469 269.773438 79.117188 269.773438 78.984375 C 269.773438 78.847656 269.941406 78.644531 270.148438 78.535156 C 270.355469 78.425781 270.617188 78.25 270.730469 78.148438 C 271.257812 77.683594 271.414062 77.59375 271.84375 77.484375 C 272.34375 77.359375 272.429688 76.972656 272.066406 76.488281 C 271.765625 76.09375 271.191406 76.121094 270.277344 76.578125 M 283.59375 76.449219 C 283.59375 76.585938 283.519531 76.703125 283.425781 76.703125 C 282.914062 76.703125 283.324219 77.386719 284.054688 77.742188 C 284.84375 78.132812 286.125 79.253906 286.125 79.558594 C 286.125 79.648438 286.222656 79.78125 286.34375 79.851562 C 286.578125 80 286.96875 81.160156 286.96875 81.722656 C 286.96875 81.914062 287.054688 82.097656 287.167969 82.132812 C 287.421875 82.21875 287.449219 87.359375 287.195312 87.6875 C 287.097656 87.8125 286.929688 88.347656 286.8125 88.878906 C 286.699219 89.414062 286.539062 89.851562 286.460938 89.851562 C 286.378906 89.851562 286.269531 89.996094 286.210938 90.175781 C 286.074219 90.605469 284.90625 91.875 284.644531 91.875 C 284.53125 91.875 284.4375 91.945312 284.4375 92.035156 C 284.4375 92.121094 284.171875 92.246094 283.847656 92.304688 C 283.285156 92.410156 282.914062 93.222656 283.425781 93.222656 C 283.519531 93.222656 283.59375 93.34375 283.59375 93.496094 C 283.59375 93.777344 284.886719 93.714844 285.105469 93.425781 C 285.15625 93.359375 285.425781 93.191406 285.703125 93.054688 C 286.207031 92.804688 287.707031 91.375 288.101562 90.761719 C 288.5625 90.054688 289.15625 88.835938 289.15625 88.605469 C 289.15625 88.472656 289.253906 88.328125 289.367188 88.292969 C 290.007812 88.078125 289.660156 81.441406 288.980469 80.914062 C 288.921875 80.867188 288.824219 80.628906 288.761719 80.378906 C 288.703125 80.132812 288.546875 79.824219 288.421875 79.699219 C 288.292969 79.570312 288.140625 79.308594 288.078125 79.109375 C 288.015625 78.914062 287.855469 78.714844 287.71875 78.660156 C 287.582031 78.609375 287.472656 78.492188 287.472656 78.398438 C 287.472656 78.183594 286.742188 77.453125 286.394531 77.320312 C 286.246094 77.265625 286.125 77.140625 286.125 77.042969 C 286.125 76.949219 286.027344 76.871094 285.910156 76.871094 C 285.792969 76.871094 285.414062 76.71875 285.070312 76.53125 C 284.3125 76.128906 283.59375 76.085938 283.59375 76.449219 M 72.878906 77.628906 C 72.878906 77.898438 72.972656 78.050781 73.140625 78.050781 C 73.734375 78.050781 74.234375 79.503906 73.742188 79.804688 C 73.660156 79.855469 73.546875 80.257812 73.488281 80.703125 L 73.382812 81.507812 L 72.070312 81.449219 C 70.742188 81.386719 69.335938 81.636719 69.335938 81.933594 C 69.335938 82.023438 69.25 82.09375 69.140625 82.09375 C 68.5 82.09375 66.847656 84.601562 66.683594 85.820312 C 66.636719 86.1875 66.527344 86.527344 66.449219 86.578125 C 66.246094 86.703125 66.265625 88.964844 66.472656 89.089844 C 66.566406 89.148438 66.640625 89.363281 66.640625 89.570312 C 66.640625 90.484375 67.59375 91.113281 68.972656 91.113281 C 69.832031 91.113281 70.257812 91.046875 70.308594 90.902344 C 70.34375 90.789062 70.488281 90.691406 70.621094 90.691406 C 70.753906 90.691406 70.910156 90.578125 70.964844 90.433594 C 71.195312 89.832031 71.628906 89.84375 71.558594 90.453125 L 71.492188 91.03125 L 74.730469 91.03125 L 74.730469 90.523438 C 74.730469 90.234375 74.640625 90.015625 74.519531 90.015625 C 73.886719 90.007812 73.832031 89.777344 74.0625 88.097656 C 74.1875 87.207031 74.34375 86.480469 74.414062 86.480469 C 74.480469 86.480469 74.589844 86.042969 74.65625 85.507812 C 74.722656 84.976562 74.832031 84.464844 74.902344 84.371094 C 74.972656 84.277344 75.125 83.632812 75.238281 82.9375 C 75.351562 82.242188 75.503906 81.597656 75.574219 81.503906 C 75.644531 81.414062 75.796875 80.671875 75.910156 79.859375 C 76.023438 79.050781 76.183594 78.34375 76.265625 78.292969 C 76.351562 78.242188 76.417969 77.976562 76.417969 77.703125 L 76.417969 77.207031 L 72.878906 77.207031 L 72.878906 77.628906 M 113.335938 78.300781 C 113.335938 78.566406 113.429688 78.722656 113.589844 78.722656 C 113.726562 78.722656 113.839844 78.800781 113.839844 78.894531 C 113.839844 78.984375 113.953125 79.0625 114.09375 79.0625 C 114.234375 79.0625 114.347656 79.210938 114.347656 79.398438 C 114.347656 79.582031 114.285156 79.734375 114.207031 79.734375 C 114.132812 79.734375 113.96875 80.457031 113.847656 81.339844 C 113.726562 82.222656 113.566406 82.984375 113.492188 83.027344 C 113.417969 83.074219 113.304688 83.546875 113.242188 84.078125 C 113.179688 84.609375 113.066406 85.121094 112.996094 85.214844 C 112.925781 85.308594 112.78125 85.953125 112.671875 86.648438 C 112.5625 87.34375 112.40625 88.0625 112.324219 88.25 C 112.238281 88.433594 112.148438 88.730469 112.121094 88.90625 C 112.09375 89.082031 111.921875 89.308594 111.742188 89.410156 C 110.28125 90.234375 110.722656 90.542969 113.289062 90.488281 L 115.441406 90.441406 L 115.492188 90 C 115.535156 89.625 115.464844 89.542969 115.03125 89.457031 C 114.511719 89.351562 114.222656 88.027344 114.660156 87.757812 C 114.738281 87.707031 114.90625 86.984375 115.027344 86.144531 L 115.253906 84.625 L 117.335938 84.625 L 117.449219 85.46875 L 117.5625 86.308594 L 118.21875 86.308594 C 118.960938 86.308594 118.949219 86.328125 119.246094 84.539062 C 119.355469 83.890625 119.507812 83.289062 119.589844 83.199219 C 119.671875 83.113281 119.742188 82.828125 119.742188 82.566406 C 119.742188 81.769531 118.332031 81.859375 118.035156 82.671875 C 117.808594 83.304688 117.523438 83.4375 116.394531 83.441406 L 115.65625 83.445312 L 115.777344 82.644531 C 115.839844 82.203125 115.953125 81.765625 116.027344 81.675781 C 116.101562 81.582031 116.214844 81.050781 116.28125 80.496094 C 116.445312 79.125 116.523438 79.0625 118.003906 79.0625 C 119.691406 79.0625 119.910156 79.195312 119.910156 80.246094 L 119.910156 81.082031 L 121.578125 81.082031 L 121.695312 80.070312 C 121.757812 79.511719 121.875 79.011719 121.953125 78.964844 C 122.035156 78.914062 122.101562 78.648438 122.101562 78.378906 L 122.101562 77.882812 L 113.335938 77.882812 L 113.335938 78.300781 M 195.261719 78.300781 C 195.261719 78.535156 195.335938 78.722656 195.429688 78.722656 C 195.703125 78.722656 196.328125 79.429688 196.160156 79.542969 C 196.074219 79.601562 195.902344 80.371094 195.78125 81.253906 C 195.660156 82.132812 195.5 82.894531 195.425781 82.941406 C 195.351562 82.988281 195.234375 83.5 195.167969 84.078125 C 195.101562 84.65625 194.996094 85.128906 194.925781 85.128906 C 194.859375 85.128906 194.707031 85.8125 194.589844 86.648438 C 194.46875 87.480469 194.3125 88.164062 194.246094 88.164062 C 194.175781 88.164062 194.070312 88.429688 194.007812 88.753906 C 193.949219 89.078125 193.804688 89.34375 193.691406 89.34375 C 193.417969 89.34375 192.902344 89.953125 192.902344 90.273438 C 192.902344 90.644531 196.976562 90.644531 197.285156 90.273438 C 197.566406 89.933594 197.390625 89.550781 196.914062 89.484375 C 196.496094 89.425781 196.367188 87.230469 196.753906 86.757812 C 196.84375 86.648438 196.96875 86.125 197.035156 85.59375 L 197.15625 84.625 L 198.230469 84.625 C 199.292969 84.625 199.308594 84.628906 199.308594 85.085938 C 199.316406 86.441406 200.667969 86.980469 200.792969 85.675781 C 200.824219 85.375 200.910156 85.128906 200.988281 85.128906 C 201.066406 85.128906 201.183594 84.675781 201.246094 84.117188 C 201.3125 83.5625 201.433594 83.0625 201.515625 83.011719 C 201.597656 82.960938 201.667969 82.734375 201.667969 82.507812 C 201.667969 81.972656 200.21875 81.871094 200.035156 82.390625 C 199.78125 83.113281 199.273438 83.445312 198.414062 83.445312 L 197.578125 83.445312 L 197.695312 82.5625 C 197.757812 82.078125 197.878906 81.601562 197.960938 81.503906 C 198.042969 81.402344 198.164062 80.8125 198.226562 80.191406 L 198.34375 79.0625 L 199.824219 79.0625 C 201.585938 79.0625 201.835938 79.21875 201.835938 80.339844 L 201.835938 81.082031 L 203.464844 81.082031 L 203.664062 79.777344 C 203.773438 79.058594 203.859375 78.339844 203.859375 78.175781 C 203.859375 77.902344 203.542969 77.882812 199.5625 77.882812 L 195.261719 77.882812 L 195.261719 78.300781 M 255.441406 78.300781 C 255.441406 78.5625 255.539062 78.722656 255.691406 78.722656 C 256.15625 78.722656 256.234375 81.5625 255.78125 81.839844 C 255.703125 81.890625 255.546875 82.609375 255.433594 83.445312 C 255.320312 84.28125 255.171875 84.960938 255.101562 84.960938 C 255.03125 84.960938 254.921875 85.390625 254.855469 85.914062 C 254.792969 86.441406 254.675781 86.992188 254.597656 87.136719 C 254.523438 87.285156 254.371094 87.84375 254.265625 88.375 C 254.144531 88.984375 253.984375 89.34375 253.84375 89.34375 C 253.507812 89.34375 253.082031 89.824219 253.082031 90.203125 C 253.082031 90.515625 253.195312 90.53125 255.234375 90.488281 L 257.382812 90.441406 L 257.433594 89.988281 C 257.476562 89.628906 257.410156 89.527344 257.097656 89.484375 C 256.679688 89.425781 256.558594 87.046875 256.949219 86.578125 C 257.035156 86.472656 257.160156 85.988281 257.222656 85.503906 L 257.339844 84.625 L 258.148438 84.625 C 259.359375 84.625 259.488281 84.714844 259.488281 85.578125 L 259.488281 86.328125 L 260.203125 86.277344 C 260.871094 86.230469 260.925781 86.1875 261.035156 85.636719 C 261.101562 85.3125 261.269531 84.554688 261.410156 83.949219 C 261.820312 82.203125 261.800781 82.09375 261 82.09375 C 260.519531 82.09375 260.289062 82.179688 260.210938 82.378906 C 259.980469 82.980469 259.429688 83.332031 258.59375 83.410156 L 257.753906 83.492188 L 257.871094 82.597656 C 257.9375 82.101562 258.0625 81.566406 258.152344 81.398438 C 258.238281 81.234375 258.359375 80.640625 258.417969 80.082031 L 258.527344 79.0625 L 260 79.0625 C 261.671875 79.0625 262.015625 79.304688 262.015625 80.488281 C 262.015625 81.082031 262.019531 81.082031 262.777344 81.082031 C 263.429688 81.082031 263.535156 81.035156 263.535156 80.734375 C 263.535156 80.542969 263.609375 80.25 263.699219 80.078125 C 263.789062 79.910156 263.914062 79.34375 263.976562 78.824219 L 264.085938 77.882812 L 255.441406 77.882812 L 255.441406 78.300781 M 76.796875 81.839844 C 76.460938 82.222656 76.546875 82.394531 77.164062 82.621094 C 77.753906 82.832031 77.847656 82.96875 78.601562 84.707031 C 78.800781 85.171875 79.035156 85.679688 79.121094 85.839844 C 79.246094 86.070312 78.890625 86.511719 77.257812 88.132812 C 74.609375 90.765625 74.605469 91.03125 77.210938 91.03125 L 78.777344 91.03125 L 78.777344 90.542969 C 78.777344 90.265625 78.667969 90.011719 78.523438 89.957031 C 78.203125 89.835938 78.191406 89.027344 78.511719 88.90625 C 78.640625 88.855469 78.957031 88.515625 79.207031 88.152344 C 79.792969 87.308594 79.894531 87.320312 80.03125 88.246094 C 80.09375 88.660156 80.207031 89.035156 80.28125 89.082031 C 80.355469 89.128906 80.515625 89.527344 80.636719 89.972656 C 80.921875 91 80.964844 91.023438 82.527344 91.027344 L 83.835938 91.03125 L 83.835938 90.523438 C 83.835938 90.246094 83.761719 90.019531 83.675781 90.019531 C 83.355469 90.019531 82.699219 89.246094 82.496094 88.628906 C 82.382812 88.28125 82.230469 87.996094 82.152344 87.996094 C 82.078125 87.996094 81.96875 87.730469 81.90625 87.40625 C 81.847656 87.082031 81.730469 86.816406 81.648438 86.816406 C 81.0625 86.816406 81.558594 86.0625 83.214844 84.441406 C 84.808594 82.875 85.035156 82.585938 84.984375 82.160156 L 84.929688 81.675781 L 83.246094 81.675781 C 81.464844 81.675781 80.828125 82.074219 81.789062 82.589844 C 82.214844 82.816406 82.058594 83.5 81.417969 84.1875 C 80.960938 84.683594 80.632812 84.648438 80.632812 84.109375 C 80.632812 83.929688 80.570312 83.78125 80.496094 83.78125 C 80.417969 83.78125 80.257812 83.382812 80.136719 82.894531 C 80.015625 82.410156 79.839844 81.917969 79.746094 81.800781 C 79.503906 81.492188 77.074219 81.527344 76.796875 81.839844 M 132.382812 82.09375 C 132.382812 82.460938 132.464844 82.601562 132.679688 82.605469 C 133.148438 82.617188 133.496094 82.972656 133.734375 83.695312 C 133.855469 84.066406 134.132812 84.703125 134.347656 85.109375 L 134.742188 85.851562 L 132.804688 87.796875 C 130.761719 89.851562 130.726562 89.902344 131.109375 90.285156 C 131.46875 90.644531 134.164062 90.625 134.304688 90.257812 C 134.484375 89.789062 134.414062 89.554688 134.070312 89.464844 C 133.65625 89.355469 133.644531 89.164062 134.027344 88.699219 C 134.191406 88.503906 134.511719 88.078125 134.746094 87.753906 C 135.277344 87.007812 135.355469 87.011719 135.5 87.785156 C 135.5625 88.132812 135.675781 88.492188 135.75 88.585938 C 135.820312 88.679688 135.972656 89.152344 136.085938 89.640625 L 136.292969 90.523438 L 137.691406 90.523438 C 138.8125 90.523438 139.109375 90.472656 139.195312 90.257812 C 139.375 89.78125 139.300781 89.511719 138.984375 89.511719 C 138.566406 89.511719 138.253906 89.117188 137.707031 87.910156 C 137.453125 87.355469 137.144531 86.671875 137.015625 86.394531 C 136.792969 85.902344 136.804688 85.871094 137.457031 85.296875 C 139.523438 83.480469 140.308594 82.601562 140.308594 82.089844 L 140.308594 81.578125 L 138.664062 81.625 C 136.933594 81.675781 136.433594 81.984375 137.191406 82.539062 C 137.570312 82.816406 137.417969 83.453125 136.832031 84.039062 C 136.589844 84.28125 136.375 84.453125 136.347656 84.425781 C 136.167969 84.21875 135.597656 82.738281 135.5 82.222656 L 135.382812 81.589844 L 132.382812 81.589844 L 132.382812 82.09375 M 72.328125 82.707031 C 72.742188 82.816406 72.894531 84.449219 72.550781 85.089844 C 72.464844 85.25 72.3125 85.75 72.210938 86.195312 C 71.746094 88.21875 69.707031 90.109375 68.878906 89.28125 C 68.652344 89.054688 68.726562 86.066406 68.972656 85.535156 C 70.214844 82.863281 70.867188 82.316406 72.328125 82.707031 M 92.535156 83.035156 C 92.476562 83.183594 92.433594 83.753906 92.433594 84.300781 L 92.433594 85.296875 L 104.738281 85.296875 L 104.738281 82.769531 L 98.6875 82.769531 C 93.324219 82.769531 92.625 82.800781 92.535156 83.035156 M 174.261719 83 C 174.210938 83.125 174.195312 83.675781 174.222656 84.222656 L 174.273438 85.214844 L 186.664062 85.300781 L 186.664062 82.769531 L 180.507812 82.769531 C 175.464844 82.769531 174.332031 82.8125 174.261719 83 M 235.71875 85.464844 L 235.71875 86.480469 L 247.535156 86.480469 L 247.484375 85.507812 L 247.4375 84.539062 L 235.71875 84.453125 L 235.71875 85.464844 M 92.5 86.707031 C 92.453125 86.835938 92.4375 87.382812 92.464844 87.929688 L 92.515625 88.921875 L 98.625 88.96875 L 104.738281 89.011719 L 104.738281 86.480469 L 98.664062 86.480469 C 93.695312 86.480469 92.574219 86.519531 92.5 86.707031 M 174.371094 86.71875 C 174.253906 86.859375 174.195312 87.359375 174.222656 87.9375 L 174.273438 88.921875 L 180.46875 88.964844 L 186.664062 89.011719 L 186.664062 86.480469 L 180.617188 86.480469 C 175.605469 86.480469 174.535156 86.519531 174.371094 86.71875 M 248.027344 163.335938 L 248.027344 166.382812 L 248.875 166.382812 L 248.832031 163.390625 C 248.785156 160.433594 248.78125 160.398438 248.40625 160.34375 L 248.027344 160.289062 L 248.027344 163.335938 M 264.964844 160.691406 C 264.667969 161.898438 264.964844 166.296875 265.347656 166.351562 C 265.691406 166.402344 265.726562 166.335938 265.726562 165.65625 C 265.726562 164.816406 266.125 164.257812 266.308594 164.839844 C 266.367188 165.023438 266.523438 165.214844 266.660156 165.265625 C 266.796875 165.316406 266.90625 165.460938 266.90625 165.582031 C 266.90625 166.109375 267.519531 166.34375 268.992188 166.367188 C 269.792969 166.378906 270.445312 166.324219 270.445312 166.238281 C 270.445312 166.152344 270.597656 166.046875 270.785156 165.996094 C 271.667969 165.765625 270.996094 163.855469 270.03125 163.855469 C 269.886719 163.855469 269.773438 163.785156 269.773438 163.703125 C 269.773438 163.621094 269.582031 163.507812 269.351562 163.449219 C 268.367188 163.199219 268.871094 162.789062 270.023438 162.894531 C 271.105469 162.996094 271.121094 162.992188 271.121094 162.582031 C 271.121094 162.285156 271.027344 162.167969 270.792969 162.167969 C 270.613281 162.167969 270.417969 162.09375 270.363281 162 C 270.046875 161.492188 268.324219 162.113281 268.148438 162.800781 C 267.917969 163.683594 268.296875 164.09375 269.898438 164.699219 C 270.921875 165.085938 270.25 165.488281 268.839844 165.328125 C 268.382812 165.277344 268.078125 165.316406 268.039062 165.429688 C 268.003906 165.535156 267.832031 165.390625 267.652344 165.113281 C 267.476562 164.839844 267.199219 164.46875 267.042969 164.292969 C 266.699219 163.914062 266.816406 163.621094 267.570312 163.011719 C 267.855469 162.78125 268.085938 162.460938 268.085938 162.296875 C 268.085938 161.761719 267.449219 161.972656 266.617188 162.785156 L 265.8125 163.570312 L 265.761719 161.941406 C 265.71875 160.457031 265.683594 160.3125 265.386719 160.3125 C 265.1875 160.3125 265.019531 160.460938 264.964844 160.691406 M 271.625 163.347656 L 271.625 166.382812 L 272.046875 166.382812 C 272.464844 166.382812 272.46875 166.371094 272.46875 164.890625 C 272.46875 163.203125 272.707031 162.769531 273.59375 162.871094 L 274.070312 162.925781 L 274.117188 164.664062 L 274.167969 166.402344 L 274.625 166.351562 L 275.082031 166.296875 L 275.128906 164.65625 C 275.179688 162.957031 274.945312 162.167969 274.386719 162.167969 C 274.257812 162.167969 274.15625 162.09375 274.15625 162 C 274.15625 161.90625 273.890625 161.832031 273.566406 161.832031 C 273.242188 161.832031 272.972656 161.90625 272.972656 162 C 272.972656 162.09375 272.859375 162.167969 272.722656 162.167969 C 272.527344 162.167969 272.46875 161.953125 272.46875 161.242188 C 272.46875 160.363281 272.445312 160.3125 272.046875 160.3125 L 271.625 160.3125 L 271.625 163.347656 M 240.949219 160.957031 C 239.804688 161.738281 239.394531 162.886719 239.730469 164.351562 C 239.929688 165.214844 240.5 166.046875 240.890625 166.046875 C 241.015625 166.046875 241.113281 166.121094 241.113281 166.214844 C 241.113281 166.515625 243.421875 166.421875 243.539062 166.117188 C 243.792969 165.460938 243.675781 165.371094 242.554688 165.371094 C 241.019531 165.371094 240.550781 164.9375 240.5625 163.53125 C 240.578125 162.007812 241.316406 161.449219 243.105469 161.621094 C 243.878906 161.695312 243.980469 161.667969 243.980469 161.390625 C 243.976562 160.6875 241.796875 160.375 240.949219 160.957031 M 245.160156 162 C 245.160156 162.09375 244.964844 162.167969 244.726562 162.167969 C 244.375 162.167969 244.304688 162.238281 244.347656 162.546875 C 244.394531 162.886719 244.496094 162.925781 245.324219 162.925781 C 246.070312 162.925781 246.257812 162.984375 246.304688 163.222656 C 246.351562 163.457031 246.246094 163.515625 245.761719 163.515625 C 245.429688 163.515625 245.160156 163.585938 245.160156 163.667969 C 245.160156 163.75 244.953125 163.871094 244.699219 163.933594 C 243.898438 164.132812 243.589844 165.804688 244.316406 165.996094 C 244.503906 166.046875 244.65625 166.152344 244.65625 166.234375 C 244.65625 166.460938 245.90625 166.410156 246.160156 166.171875 C 246.335938 166.003906 246.398438 166.003906 246.460938 166.171875 C 246.503906 166.289062 246.683594 166.382812 246.859375 166.382812 C 247.207031 166.382812 247.363281 163.050781 247.039062 162.535156 C 246.707031 162.011719 245.160156 161.570312 245.160156 162 M 250.425781 162.136719 C 250.125 162.28125 249.878906 162.464844 249.878906 162.546875 C 249.878906 162.628906 249.765625 162.8125 249.628906 162.949219 C 249.46875 163.113281 249.375 163.523438 249.378906 164.078125 C 249.378906 165.316406 249.511719 165.667969 250.066406 165.914062 C 250.335938 166.03125 250.554688 166.183594 250.554688 166.253906 C 250.554688 166.523438 252.367188 166.394531 252.476562 166.117188 C 252.71875 165.480469 252.601562 165.363281 251.734375 165.394531 C 250.359375 165.445312 249.65625 164.175781 250.507812 163.183594 C 250.984375 162.625 252.578125 162.6875 252.578125 163.265625 C 252.578125 163.496094 252.640625 163.6875 252.71875 163.6875 C 252.792969 163.6875 252.949219 164.1875 253.0625 164.800781 C 253.347656 166.359375 254.144531 167.015625 254.371094 165.878906 C 254.429688 165.597656 254.535156 165.371094 254.605469 165.371094 C 254.679688 165.371094 254.789062 165.085938 254.847656 164.734375 C 255.023438 163.6875 255.222656 163.550781 255.359375 164.378906 C 255.566406 165.605469 255.972656 166.382812 256.410156 166.382812 C 256.675781 166.382812 256.792969 166.28125 256.792969 166.054688 C 256.792969 165.875 256.855469 165.6875 256.9375 165.640625 C 257.015625 165.589844 257.175781 164.980469 257.296875 164.28125 C 257.414062 163.582031 257.578125 163.011719 257.660156 163.011719 C 257.84375 163.011719 257.847656 162.214844 257.664062 162.101562 C 257.242188 161.84375 256.820312 162.222656 256.710938 162.964844 C 256.496094 164.386719 256.21875 164.613281 256.03125 163.515625 C 255.96875 163.144531 255.851562 162.84375 255.765625 162.84375 C 255.679688 162.84375 255.613281 162.691406 255.613281 162.503906 C 255.613281 161.335938 254.4375 162.472656 254.171875 163.894531 C 254.019531 164.730469 253.828125 164.699219 253.703125 163.8125 C 253.648438 163.417969 253.503906 162.886719 253.386719 162.632812 C 253.179688 162.199219 253.078125 162.144531 252.382812 162.101562 C 252.226562 162.09375 252.042969 162.027344 251.972656 161.957031 C 251.777344 161.761719 251.03125 161.847656 250.425781 162.136719 M 259.152344 161.980469 C 259.152344 162.0625 258.960938 162.179688 258.730469 162.238281 C 258.5 162.296875 258.308594 162.449219 258.308594 162.578125 C 258.308594 162.707031 258.21875 162.84375 258.113281 162.878906 C 257.460938 163.097656 257.867188 165.632812 258.605469 165.960938 C 258.8125 166.050781 258.984375 166.183594 258.984375 166.253906 C 258.984375 166.324219 259.324219 166.382812 259.742188 166.382812 C 260.160156 166.382812 260.5 166.324219 260.5 166.253906 C 260.5 166.183594 260.671875 166.050781 260.878906 165.960938 C 262.007812 165.464844 261.714844 162.1875 260.542969 162.171875 C 260.425781 162.167969 260.332031 162.09375 260.332031 162 C 260.332031 161.90625 260.066406 161.832031 259.742188 161.832031 C 259.417969 161.832031 259.152344 161.898438 259.152344 161.980469 M 263.367188 162 C 263.367188 162.09375 263.101562 162.167969 262.777344 162.167969 L 262.1875 162.167969 L 262.1875 164.273438 C 262.1875 166.269531 262.203125 166.382812 262.523438 166.382812 C 262.898438 166.382812 262.914062 166.324219 262.878906 165.117188 C 262.835938 163.722656 263.207031 162.9375 263.9375 162.875 C 264.855469 162.796875 264.871094 161.832031 263.957031 161.832031 C 263.632812 161.832031 263.367188 161.90625 263.367188 162 M 277.019531 161.988281 C 277.019531 162.070312 276.8125 162.1875 276.558594 162.246094 C 275.328125 162.527344 275.167969 165.6875 276.371094 166.003906 C 276.542969 166.046875 276.683594 166.152344 276.683594 166.234375 C 276.683594 166.316406 277.0625 166.382812 277.527344 166.382812 C 277.988281 166.382812 278.367188 166.308594 278.367188 166.214844 C 278.367188 166.121094 278.480469 166.046875 278.613281 166.046875 C 279.320312 166.046875 279.6875 163.835938 279.140625 162.910156 C 278.679688 162.128906 277.019531 161.410156 277.019531 161.988281 M 281.234375 162 C 281.234375 162.09375 280.96875 162.167969 280.644531 162.167969 L 280.054688 162.167969 L 280.054688 168.089844 L 280.433594 168.039062 C 280.757812 167.992188 280.820312 167.867188 280.863281 167.183594 L 280.917969 166.382812 L 281.75 166.382812 C 282.207031 166.382812 282.582031 166.308594 282.582031 166.214844 C 282.582031 166.121094 282.695312 166.046875 282.832031 166.046875 C 283.492188 166.046875 283.914062 164.234375 283.496094 163.191406 C 283.125 162.265625 281.234375 161.269531 281.234375 162 M 286.683594 162.148438 C 285.324219 162.84375 285.21875 166.046875 286.558594 166.046875 C 286.691406 166.046875 286.796875 166.121094 286.796875 166.214844 C 286.796875 166.511719 288.601562 166.421875 288.71875 166.117188 C 288.960938 165.484375 288.84375 165.371094 287.996094 165.40625 C 286.921875 165.453125 286.628906 165.203125 286.628906 164.242188 C 286.628906 163.058594 286.824219 162.84375 287.898438 162.84375 C 288.664062 162.84375 288.820312 162.792969 288.820312 162.546875 C 288.816406 161.902344 287.609375 161.679688 286.683594 162.148438 M 290.335938 162 C 290.335938 162.09375 290.242188 162.167969 290.121094 162.167969 C 289.429688 162.167969 288.429688 164.4375 288.976562 164.773438 C 289.0625 164.828125 289.179688 165.09375 289.242188 165.367188 C 289.300781 165.644531 289.492188 165.90625 289.675781 165.964844 C 289.855469 166.023438 290 166.140625 290 166.226562 C 290 166.3125 290.378906 166.382812 290.84375 166.382812 C 291.308594 166.382812 291.6875 166.316406 291.6875 166.234375 C 291.6875 166.152344 291.824219 166.046875 291.992188 166.003906 C 292.832031 165.785156 293.140625 163.453125 292.429688 162.742188 C 291.648438 161.972656 290.335938 161.503906 290.335938 162 M 294.550781 162 C 294.550781 162.09375 294.285156 162.167969 293.960938 162.167969 L 293.371094 162.167969 L 293.371094 166.382812 L 293.792969 166.382812 C 294.214844 166.382812 294.214844 166.382812 294.214844 164.707031 C 294.214844 162.878906 294.34375 162.667969 295.324219 162.914062 C 295.722656 163.015625 295.734375 163.058594 295.734375 164.699219 C 295.734375 166.382812 295.734375 166.382812 296.152344 166.382812 C 296.574219 166.382812 296.574219 166.382812 296.574219 164.707031 C 296.574219 162.878906 296.703125 162.667969 297.683594 162.914062 C 298.082031 163.015625 298.09375 163.058594 298.09375 164.699219 C 298.09375 166.269531 298.113281 166.382812 298.429688 166.382812 C 298.746094 166.382812 298.765625 166.269531 298.765625 164.457031 L 298.765625 162.527344 L 298.277344 162.179688 C 297.785156 161.828125 296.910156 161.703125 296.910156 161.980469 C 296.910156 162.261719 296.164062 162.324219 295.785156 162.078125 C 295.355469 161.796875 294.550781 161.746094 294.550781 162 M 260.246094 162.972656 C 261.191406 163.664062 260.84375 165.414062 259.761719 165.414062 C 258.769531 165.414062 258.296875 164.207031 258.917969 163.257812 C 259.1875 162.847656 259.875 162.699219 260.246094 162.972656 M 278.34375 163.097656 C 278.515625 163.269531 278.449219 165.023438 278.257812 165.210938 C 277.953125 165.519531 276.996094 165.457031 276.742188 165.113281 C 275.867188 163.914062 277.324219 162.078125 278.34375 163.097656 M 282.628906 163.507812 C 282.824219 164.257812 282.644531 165.191406 282.28125 165.324219 C 282.121094 165.382812 281.941406 165.503906 281.882812 165.597656 C 281.816406 165.699219 281.660156 165.652344 281.492188 165.484375 C 281.335938 165.328125 281.140625 165.203125 281.054688 165.203125 C 280.808594 165.203125 280.859375 163.054688 281.109375 162.949219 C 281.777344 162.667969 282.480469 162.925781 282.628906 163.507812 M 291.789062 163.558594 C 292.203125 164.761719 291.507812 165.695312 290.46875 165.332031 C 289.953125 165.152344 289.707031 164.371094 289.910156 163.5625 C 290.164062 162.558594 291.441406 162.554688 291.789062 163.558594 M 246.339844 164.847656 C 246.339844 165.195312 245.628906 165.523438 245.117188 165.410156 C 244.78125 165.335938 244.71875 164.765625 245.035156 164.640625 C 245.597656 164.414062 246.339844 164.53125 246.339844 164.847656 M 284.132812 165.40625 C 283.746094 165.792969 284.125 166.382812 284.761719 166.382812 C 285.050781 166.382812 285.113281 166.277344 285.113281 165.792969 C 285.113281 165.160156 284.585938 164.953125 284.132812 165.40625 " fill-opacity="1" fill-rule="evenodd"/></g><path fill="#c50805" d="M 45.988281 76.574219 C 45.527344 76.777344 45.121094 77 45.089844 77.074219 C 45.058594 77.148438 44.9375 77.207031 44.816406 77.207031 C 44.695312 77.207031 44.1875 77.660156 43.691406 78.210938 C 42.910156 79.078125 42.578125 79.59375 41.839844 81.117188 C 41.222656 82.386719 41.230469 88.601562 41.851562 88.808594 C 41.949219 88.839844 42.027344 88.976562 42.027344 89.105469 C 42.027344 90.03125 44.222656 92.691406 45.269531 93.039062 C 45.609375 93.148438 45.910156 93.316406 45.941406 93.410156 C 46.113281 93.925781 47.371094 93.769531 47.480469 93.21875 C 47.640625 92.421875 47.644531 92.425781 47 92.304688 C 46.675781 92.246094 46.410156 92.121094 46.410156 92.035156 C 46.410156 91.945312 46.328125 91.875 46.230469 91.875 C 45.992188 91.875 45.0625 90.941406 45.0625 90.707031 C 45.0625 90.605469 44.996094 90.523438 44.914062 90.523438 C 44.832031 90.523438 44.667969 90.277344 44.546875 89.976562 C 44.421875 89.675781 44.261719 89.386719 44.191406 89.335938 C 44.117188 89.285156 43.976562 88.640625 43.875 87.902344 C 43.773438 87.167969 43.621094 86.328125 43.535156 86.046875 C 43.335938 85.390625 43.332031 84.25 43.527344 83.746094 C 43.609375 83.535156 43.769531 82.761719 43.878906 82.027344 C 43.992188 81.292969 44.1875 80.585938 44.320312 80.453125 C 44.449219 80.324219 44.558594 80.121094 44.558594 80.003906 C 44.558594 79.882812 44.703125 79.617188 44.886719 79.410156 C 45.066406 79.199219 45.234375 78.980469 45.265625 78.917969 C 45.355469 78.722656 46.550781 77.882812 46.738281 77.882812 C 46.835938 77.882812 46.917969 77.804688 46.917969 77.710938 C 46.917969 77.621094 47.070312 77.542969 47.253906 77.542969 C 47.625 77.542969 47.675781 77.28125 47.425781 76.628906 C 47.226562 76.105469 47.078125 76.101562 45.988281 76.574219 M 58.511719 77.304688 C 58.25 77.878906 58.460938 78.191406 59.308594 78.480469 C 59.675781 78.609375 60.003906 78.796875 60.039062 78.898438 C 60.074219 79 60.289062 79.152344 60.515625 79.238281 C 60.742188 79.328125 60.882812 79.472656 60.824219 79.566406 C 60.765625 79.660156 60.832031 79.78125 60.972656 79.835938 C 61.109375 79.886719 61.273438 80.148438 61.332031 80.414062 C 61.386719 80.675781 61.535156 80.976562 61.660156 81.078125 C 61.78125 81.179688 61.9375 81.621094 62.003906 82.058594 C 62.066406 82.496094 62.195312 82.898438 62.285156 82.957031 C 62.503906 83.089844 62.515625 88.003906 62.300781 88.144531 C 62.210938 88.199219 62.089844 88.570312 62.027344 88.964844 C 61.96875 89.355469 61.765625 89.941406 61.585938 90.269531 C 61.402344 90.59375 61.292969 90.863281 61.347656 90.863281 C 61.617188 90.863281 60.277344 92.273438 59.867188 92.414062 C 59.605469 92.503906 59.390625 92.640625 59.390625 92.71875 C 59.390625 92.796875 59.164062 92.90625 58.886719 92.96875 C 58.363281 93.082031 58.3125 93.199219 58.492188 93.871094 C 58.609375 94.304688 60.226562 94.34375 60.367188 93.917969 C 60.402344 93.8125 60.523438 93.726562 60.636719 93.726562 C 61.007812 93.726562 63.101562 91.890625 63.101562 91.5625 C 63.101562 91.480469 63.242188 91.230469 63.414062 91.011719 C 63.589844 90.789062 63.785156 90.363281 63.851562 90.0625 C 63.914062 89.757812 64.03125 89.511719 64.105469 89.511719 C 64.714844 89.511719 64.738281 83.023438 64.128906 81.789062 C 64.050781 81.632812 63.785156 81.070312 63.53125 80.535156 C 63.28125 80.003906 63.003906 79.566406 62.917969 79.566406 C 62.832031 79.566406 62.761719 79.457031 62.761719 79.320312 C 62.761719 79.050781 61.855469 78.050781 61.609375 78.050781 C 61.523438 78.050781 61.359375 77.9375 61.246094 77.796875 C 61.132812 77.660156 60.742188 77.457031 60.382812 77.351562 C 60.023438 77.242188 59.730469 77.089844 59.730469 77.011719 C 59.730469 76.636719 58.703125 76.882812 58.511719 77.304688 M 35.960938 77.691406 C 35.960938 77.773438 35.722656 77.886719 35.4375 77.945312 C 34.425781 78.144531 32.925781 80.175781 32.925781 81.339844 C 32.925781 81.589844 32.851562 81.734375 32.757812 81.675781 C 32.664062 81.617188 32.589844 81.6875 32.589844 81.828125 C 32.589844 81.976562 32.359375 82.144531 32.039062 82.226562 C 31.289062 82.421875 31.238281 83.160156 31.972656 83.246094 C 32.414062 83.296875 32.449219 83.347656 32.355469 83.816406 C 32.296875 84.097656 32.25 84.515625 32.25 84.738281 C 32.25 84.964844 32.183594 85.109375 32.097656 85.054688 C 32.015625 85.003906 31.894531 85.492188 31.828125 86.140625 C 31.765625 86.789062 31.652344 87.285156 31.582031 87.238281 C 31.507812 87.195312 31.355469 87.878906 31.238281 88.757812 C 31.121094 89.636719 30.96875 90.355469 30.898438 90.355469 C 30.828125 90.355469 30.710938 90.714844 30.640625 91.15625 C 30.480469 92.117188 30.523438 91.96875 30.15625 92.835938 C 29.847656 93.574219 29.714844 93.640625 28.289062 93.765625 C 27.847656 93.804688 27.777344 93.882812 27.730469 94.382812 L 27.675781 94.949219 L 29.132812 94.875 C 29.9375 94.832031 30.644531 94.726562 30.707031 94.636719 C 30.769531 94.550781 31.03125 94.339844 31.292969 94.175781 C 31.558594 94.007812 31.847656 93.648438 31.945312 93.378906 C 32.039062 93.105469 32.179688 92.882812 32.253906 92.882812 C 32.332031 92.882812 32.445312 92.636719 32.507812 92.335938 C 32.574219 92.035156 32.6875 91.710938 32.757812 91.621094 C 32.832031 91.527344 32.984375 90.84375 33.09375 90.101562 C 33.203125 89.363281 33.355469 88.679688 33.429688 88.585938 C 33.507812 88.492188 33.621094 87.960938 33.6875 87.40625 C 33.753906 86.847656 33.871094 86.320312 33.941406 86.226562 C 34.015625 86.132812 34.167969 85.429688 34.277344 84.667969 L 34.480469 83.277344 L 35.539062 83.277344 C 36.6875 83.277344 36.800781 83.183594 36.800781 82.25 C 36.800781 81.765625 36.789062 81.757812 35.875 81.757812 C 34.941406 81.757812 34.65625 81.476562 35.089844 80.992188 C 35.171875 80.902344 35.332031 80.472656 35.449219 80.035156 C 35.585938 79.527344 35.777344 79.203125 35.980469 79.140625 C 36.15625 79.082031 36.296875 78.96875 36.296875 78.882812 C 36.296875 78.433594 37.152344 78.746094 37.25 79.230469 C 37.363281 79.804688 38.65625 80.035156 38.65625 79.484375 C 38.65625 79.34375 38.734375 79.230469 38.824219 79.230469 C 38.917969 79.230469 38.996094 78.851562 38.996094 78.386719 L 38.996094 77.542969 L 37.476562 77.542969 C 36.644531 77.542969 35.960938 77.609375 35.960938 77.691406 M 49.222656 82.714844 C 49.003906 82.929688 49.109375 83.445312 49.367188 83.445312 C 49.746094 83.445312 50.421875 84.179688 50.558594 84.734375 C 50.625 85 50.730469 85.253906 50.789062 85.296875 C 50.851562 85.34375 51.023438 85.75 51.167969 86.195312 L 51.429688 87.011719 L 49.511719 88.953125 C 48.453125 90.019531 47.589844 90.96875 47.589844 91.058594 C 47.589844 91.859375 50.867188 92.054688 51.066406 91.265625 C 51.171875 90.847656 51.046875 90.65625 50.542969 90.464844 C 50.449219 90.433594 50.542969 90.167969 50.75 89.882812 C 50.960938 89.59375 51.132812 89.3125 51.132812 89.253906 C 51.132812 89.195312 51.351562 88.929688 51.625 88.65625 L 52.117188 88.164062 L 52.3125 89.089844 C 52.417969 89.601562 52.566406 90.019531 52.644531 90.019531 C 52.722656 90.019531 52.839844 90.320312 52.902344 90.691406 C 52.964844 91.0625 53.089844 91.367188 53.179688 91.367188 C 53.269531 91.367188 53.296875 91.441406 53.238281 91.535156 C 53.171875 91.644531 53.660156 91.703125 54.578125 91.703125 L 56.019531 91.703125 L 56.019531 91.21875 C 56.019531 90.839844 55.925781 90.707031 55.609375 90.628906 C 55.34375 90.558594 55.097656 90.289062 54.902344 89.851562 C 54.742188 89.480469 54.550781 89.175781 54.484375 89.175781 C 54.417969 89.175781 54.269531 88.796875 54.148438 88.332031 C 54.03125 87.871094 53.871094 87.488281 53.796875 87.488281 C 53.308594 87.488281 53.894531 86.636719 55.429688 85.117188 C 57.742188 82.824219 57.738281 82.703125 55.386719 82.636719 L 53.660156 82.589844 L 53.660156 82.996094 C 53.660156 83.265625 53.777344 83.433594 54.003906 83.496094 C 54.492188 83.621094 54.289062 84.371094 53.570312 85.113281 L 53.011719 85.6875 L 52.894531 85.074219 C 52.832031 84.734375 52.71875 84.457031 52.648438 84.457031 C 52.574219 84.457031 52.464844 84.179688 52.402344 83.84375 C 52.1875 82.707031 52.039062 82.601562 50.613281 82.601562 C 49.910156 82.601562 49.28125 82.652344 49.222656 82.714844 " fill-opacity="1" fill-rule="evenodd"/></svg>