<svg xmlns="http://www.w3.org/2000/svg" xmlns:xlink="http://www.w3.org/1999/xlink" width="400" zoomAndPan="magnify" viewBox="0 0 300 168.749997" height="225" preserveAspectRatio="xMidYMid meet" version="1.0"><defs><clipPath id="dd95c98b0c"><path d="M 0.222656 0 L 299.777344 0 L 299.777344 168.5 L 0.222656 168.5 Z M 0.222656 0 " clip-rule="nonzero"/></clipPath><clipPath id="63aa7fd4c2"><path d="M 22 43 L 299 43 L 299 155.769531 L 22 155.769531 Z M 22 43 " clip-rule="nonzero"/></clipPath></defs><g clip-path="url(#dd95c98b0c)"><path fill="#ffffff" d="M 0.222656 0 L 299.777344 0 L 299.777344 168.5 L 0.222656 168.5 Z M 0.222656 0 " fill-opacity="1" fill-rule="nonzero"/><path fill="#ffffff" d="M 0.222656 0 L 299.777344 0 L 299.777344 168.5 L 0.222656 168.5 Z M 0.222656 0 " fill-opacity="1" fill-rule="nonzero"/></g><path fill="#c40404" d="M 272.003906 64.789062 C 271.796875 64.894531 271.625 65.039062 271.625 65.109375 C 271.625 65.179688 271.507812 65.238281 271.367188 65.238281 C 271.226562 65.238281 271.066406 65.347656 271.015625 65.480469 C 270.964844 65.613281 270.695312 65.773438 270.421875 65.832031 C 270.144531 65.894531 269.878906 66.046875 269.832031 66.171875 C 269.78125 66.296875 269.527344 66.445312 269.265625 66.503906 C 269.003906 66.558594 268.75 66.710938 268.703125 66.835938 C 268.652344 66.960938 268.386719 67.109375 268.113281 67.171875 C 267.835938 67.230469 267.566406 67.390625 267.515625 67.523438 C 267.464844 67.65625 267.324219 67.769531 267.207031 67.769531 C 266.71875 67.777344 266.179688 68.382812 266.292969 68.796875 C 266.511719 69.59375 267.039062 70.042969 267.386719 69.726562 C 267.554688 69.578125 267.78125 69.453125 267.890625 69.453125 C 267.996094 69.453125 268.085938 69.394531 268.085938 69.324219 C 268.085938 69.253906 268.332031 69.089844 268.632812 68.960938 C 268.933594 68.828125 269.230469 68.652344 269.285156 68.566406 C 269.34375 68.480469 269.644531 68.398438 269.960938 68.382812 L 270.53125 68.355469 L 270.53125 80.664062 L 270.132812 81.0625 C 269.792969 81.398438 269.511719 81.476562 268.320312 81.550781 L 266.90625 81.636719 L 266.90625 83.277344 L 277.1875 83.277344 L 277.1875 81.636719 L 275.769531 81.550781 C 273.457031 81.40625 273.660156 82.238281 273.609375 72.726562 L 273.566406 64.648438 L 272.972656 64.621094 C 272.648438 64.609375 272.214844 64.683594 272.003906 64.789062 M 109.597656 69.570312 C 108.789062 69.695312 108.730469 70.96875 109.53125 70.96875 C 110.273438 70.96875 110.589844 73.136719 109.964844 73.921875 C 109.890625 74.011719 109.738281 74.695312 109.625 75.4375 C 109.515625 76.179688 109.363281 76.863281 109.289062 76.953125 C 109.214844 77.046875 109.074219 77.578125 108.976562 78.132812 C 108.878906 78.691406 108.683594 79.636719 108.542969 80.242188 C 108.402344 80.84375 108.28125 81.621094 108.28125 81.96875 L 108.277344 82.601562 L 109.625 82.601562 C 110.953125 82.601562 110.976562 82.59375 110.976562 82.179688 C 110.976562 81.949219 111.039062 81.757812 111.117188 81.757812 C 111.195312 81.757812 111.339844 81.207031 111.441406 80.535156 C 111.679688 78.976562 112.210938 76.574219 112.441406 76.027344 C 112.539062 75.796875 112.671875 75.359375 112.738281 75.058594 C 112.800781 74.757812 112.929688 74.511719 113.015625 74.511719 C 113.105469 74.511719 113.226562 74.382812 113.285156 74.226562 C 113.398438 73.9375 113.476562 73.832031 114.394531 72.808594 C 115.890625 71.136719 117.886719 71.753906 117.164062 73.667969 C 117.113281 73.804688 116.976562 74.546875 116.859375 75.3125 C 116.742188 76.074219 116.597656 76.703125 116.535156 76.703125 C 116.472656 76.703125 116.324219 77.347656 116.199219 78.132812 C 116.078125 78.921875 115.917969 79.566406 115.847656 79.566406 C 115.777344 79.566406 115.667969 79.984375 115.601562 80.496094 C 115.539062 81.003906 115.414062 81.421875 115.328125 81.421875 C 115.242188 81.421875 115.191406 81.667969 115.222656 81.96875 L 115.273438 82.515625 L 117.589844 82.5625 L 119.910156 82.609375 L 119.910156 82.089844 C 119.910156 81.480469 119.625 81.136719 119.050781 81.058594 C 118.636719 81 118.496094 78.976562 118.890625 78.726562 C 118.964844 78.679688 119.125 78.03125 119.242188 77.292969 C 119.363281 76.550781 119.511719 75.90625 119.582031 75.859375 C 120.007812 75.566406 120.210938 71.613281 119.84375 70.738281 C 119.382812 69.632812 116.164062 68.859375 115.5625 69.707031 C 115.496094 69.800781 115.226562 69.984375 114.964844 70.121094 C 114.390625 70.414062 113.335938 71.386719 113.335938 71.613281 C 113.335938 71.703125 113.210938 71.824219 113.058594 71.882812 C 112.839844 71.96875 112.820312 71.941406 112.972656 71.757812 C 113.078125 71.628906 113.214844 71.058594 113.273438 70.488281 L 113.382812 69.453125 L 111.714844 69.476562 C 110.796875 69.492188 109.84375 69.535156 109.597656 69.570312 M 230.832031 69.578125 C 230.0625 69.71875 229.804688 70.96875 230.546875 70.96875 C 231.488281 70.96875 231.820312 73.578125 231.007812 74.589844 C 230.929688 74.683594 230.8125 75.179688 230.746094 75.691406 C 230.679688 76.199219 230.566406 76.691406 230.496094 76.785156 C 230.429688 76.878906 230.273438 77.597656 230.15625 78.386719 C 230.039062 79.175781 229.886719 79.894531 229.820312 79.988281 C 229.640625 80.226562 229.304688 82.28125 229.414062 82.457031 C 229.664062 82.863281 232.179688 82.613281 232.179688 82.179688 C 232.179688 81.949219 232.25 81.757812 232.332031 81.757812 C 232.414062 81.757812 232.535156 81.226562 232.601562 80.578125 C 232.667969 79.929688 232.773438 79.398438 232.839844 79.398438 C 232.90625 79.398438 233.0625 78.675781 233.183594 77.796875 C 233.304688 76.917969 233.46875 76.195312 233.550781 76.195312 C 233.628906 76.195312 233.695312 76.070312 233.695312 75.917969 C 233.695312 75.5625 234.566406 73.835938 234.742188 73.835938 C 234.816406 73.835938 234.878906 73.742188 234.878906 73.625 C 234.890625 72.792969 236.972656 71.625 237.988281 71.878906 C 238.433594 71.992188 238.675781 74.332031 238.265625 74.585938 C 238.179688 74.636719 238.058594 75.078125 237.992188 75.5625 C 237.925781 76.050781 237.8125 76.523438 237.738281 76.617188 C 237.664062 76.710938 237.519531 77.277344 237.414062 77.882812 C 237.3125 78.484375 237.15625 79.128906 237.074219 79.3125 C 236.84375 79.816406 236.53125 81.257812 236.503906 81.925781 L 236.480469 82.515625 L 241.03125 82.515625 L 241.085938 82.042969 C 241.152344 81.453125 240.886719 81.121094 240.300781 81.050781 C 239.847656 81 239.667969 79 240.089844 78.726562 C 240.167969 78.679688 240.332031 77.976562 240.453125 77.164062 C 240.578125 76.355469 240.734375 75.691406 240.804688 75.691406 C 240.871094 75.691406 240.980469 75.234375 241.042969 74.675781 C 241.105469 74.117188 241.222656 73.617188 241.304688 73.570312 C 241.507812 73.441406 241.488281 71.519531 241.28125 71.390625 C 241.191406 71.335938 241.113281 71.152344 241.113281 70.984375 C 241.113281 70.082031 240.113281 69.535156 238.453125 69.535156 C 237.484375 69.535156 236.839844 69.609375 236.765625 69.726562 C 236.703125 69.828125 236.480469 69.964844 236.277344 70.027344 C 236.070312 70.09375 235.507812 70.53125 235.023438 71.003906 C 234.542969 71.480469 234.195312 71.734375 234.257812 71.570312 C 234.320312 71.410156 234.421875 70.867188 234.480469 70.363281 L 234.585938 69.453125 L 232.917969 69.476562 C 232.003906 69.488281 231.0625 69.535156 230.832031 69.578125 M 246.542969 75.226562 L 246.59375 76.617188 L 254.050781 76.660156 L 261.511719 76.703125 L 261.511719 73.835938 L 246.496094 73.835938 L 246.542969 75.226562 M 188.734375 79.703125 C 188.484375 79.863281 188.246094 80.910156 188.457031 80.929688 C 189.132812 80.992188 189.632812 81.136719 189.75 81.304688 C 189.925781 81.558594 189.765625 84.253906 189.558594 84.515625 C 189.476562 84.621094 189.304688 85.351562 189.183594 86.140625 C 189.0625 86.929688 188.910156 87.613281 188.847656 87.660156 C 188.785156 87.703125 188.648438 88.234375 188.546875 88.839844 C 188.214844 90.808594 187.820312 92.625 187.667969 92.914062 C 187.585938 93.070312 187.46875 93.695312 187.40625 94.304688 L 187.292969 95.414062 L 188.917969 95.414062 C 190.25 95.414062 190.542969 95.367188 190.542969 95.160156 C 190.542969 95.019531 190.609375 94.90625 190.691406 94.90625 C 190.773438 94.90625 190.894531 94.394531 190.960938 93.769531 C 191.027344 93.144531 191.140625 92.554688 191.214844 92.464844 C 191.289062 92.371094 191.441406 91.6875 191.550781 90.945312 C 191.660156 90.203125 191.8125 89.445312 191.886719 89.261719 C 191.960938 89.074219 192.113281 88.480469 192.226562 87.941406 C 192.398438 87.089844 192.800781 86.074219 193.070312 85.804688 C 193.117188 85.757812 193.269531 85.496094 193.40625 85.21875 C 193.546875 84.945312 193.773438 84.589844 193.914062 84.433594 C 194.054688 84.28125 194.433594 83.835938 194.757812 83.449219 C 195.464844 82.605469 196.242188 82.09375 196.828125 82.09375 C 197.0625 82.09375 197.296875 82 197.34375 81.886719 C 197.410156 81.714844 197.429688 81.714844 197.441406 81.886719 C 197.449219 82 197.566406 82.09375 197.699219 82.09375 C 198.28125 82.09375 198.527344 84.488281 198.105469 86.058594 C 198.007812 86.429688 197.800781 87.300781 197.652344 87.996094 C 197.5 88.691406 197.332031 89.296875 197.277344 89.34375 C 197.222656 89.390625 197.09375 89.847656 196.984375 90.355469 C 196.46875 92.832031 196.179688 93.984375 196.0625 94.035156 C 195.992188 94.066406 195.9375 94.390625 195.9375 94.757812 L 195.9375 95.421875 L 198.761719 95.375 L 201.582031 95.328125 L 201.582031 94.738281 C 201.582031 94.207031 201.53125 94.144531 201.078125 94.09375 C 200.121094 93.984375 199.929688 93.636719 200.046875 92.210938 C 200.105469 91.515625 200.222656 90.921875 200.308594 90.894531 C 200.394531 90.863281 200.558594 90.164062 200.675781 89.335938 C 200.792969 88.503906 200.945312 87.828125 201.011719 87.828125 C 201.078125 87.828125 201.183594 87.429688 201.25 86.941406 C 201.316406 86.457031 201.441406 85.964844 201.535156 85.851562 C 202.214844 85.011719 201.855469 81.382812 201 80.433594 L 200.339844 79.699219 L 198.902344 79.609375 C 197.503906 79.523438 195.9375 79.773438 195.9375 80.082031 C 195.9375 80.15625 195.769531 80.269531 195.570312 80.335938 C 195.371094 80.398438 194.6875 80.964844 194.054688 81.59375 C 193.421875 82.222656 192.902344 82.632812 192.902344 82.503906 C 192.902344 82.371094 192.960938 82.265625 193.035156 82.265625 C 193.148438 82.265625 193.578125 80.261719 193.578125 79.730469 C 193.578125 79.535156 189.042969 79.507812 188.734375 79.703125 " fill-opacity="1" fill-rule="evenodd"/><g clip-path="url(#63aa7fd4c2)"><path fill="#242424" d="M 47.179688 43.816406 C 47.125 43.898438 47.035156 44.3125 46.976562 44.734375 L 46.875 45.496094 L 47.769531 45.546875 C 48.5625 45.59375 48.675781 45.648438 48.773438 46.019531 C 48.902344 46.507812 48.648438 49.214844 48.449219 49.472656 C 48.375 49.566406 48.214844 50.238281 48.097656 50.960938 C 47.914062 52.050781 47.832031 52.257812 47.609375 52.167969 C 47.460938 52.109375 47.09375 52.019531 46.789062 51.96875 C 46.488281 51.917969 46.242188 51.808594 46.242188 51.730469 C 46.242188 51.648438 45.410156 51.582031 44.386719 51.582031 C 43.265625 51.582031 42.535156 51.648438 42.535156 51.753906 C 42.535156 51.84375 42.355469 51.921875 42.136719 51.921875 C 41.609375 51.921875 40.679688 52.253906 40.679688 52.441406 C 40.679688 52.527344 40.582031 52.59375 40.460938 52.59375 C 39.890625 52.59375 37.148438 55.347656 37.140625 55.925781 C 37.140625 56.039062 37.070312 56.136719 36.980469 56.136719 C 36.894531 56.136719 36.726562 56.402344 36.609375 56.726562 C 36.492188 57.050781 36.34375 57.316406 36.277344 57.316406 C 36.210938 57.316406 36.101562 57.5625 36.035156 57.863281 C 35.972656 58.164062 35.847656 58.457031 35.757812 58.511719 C 35.671875 58.566406 35.523438 59.136719 35.425781 59.777344 C 35.328125 60.414062 35.179688 61.070312 35.097656 61.230469 C 34.886719 61.640625 34.90625 65.40625 35.117188 65.40625 C 35.210938 65.40625 35.285156 65.589844 35.285156 65.816406 C 35.285156 66.308594 35.542969 67.03125 35.832031 67.34375 C 35.949219 67.46875 36.21875 67.796875 36.429688 68.074219 C 37.332031 69.253906 41.027344 69.566406 42.125 68.550781 C 42.242188 68.445312 42.539062 68.207031 42.78125 68.019531 C 43.320312 67.609375 43.746094 67.191406 44.398438 66.429688 C 45.027344 65.699219 45.167969 65.839844 44.835938 66.871094 C 44.691406 67.316406 44.523438 67.96875 44.460938 68.320312 L 44.347656 68.953125 L 47.191406 68.910156 L 50.035156 68.863281 L 50.136719 67.261719 L 49.496094 67.253906 C 48.558594 67.25 48.265625 66.953125 48.265625 66.019531 C 48.265625 65.589844 48.332031 65.238281 48.410156 65.238281 C 48.488281 65.238281 48.648438 64.554688 48.761719 63.722656 C 48.875 62.886719 49.03125 62.167969 49.105469 62.121094 C 49.183594 62.074219 49.296875 61.582031 49.359375 61.023438 C 49.425781 60.46875 49.53125 60.011719 49.59375 60.011719 C 49.660156 60.011719 49.8125 59.347656 49.9375 58.535156 C 50.0625 57.726562 50.210938 57.023438 50.277344 56.976562 C 50.390625 56.894531 50.523438 56.273438 51.078125 53.269531 C 51.242188 52.386719 51.421875 51.628906 51.480469 51.582031 C 51.578125 51.507812 51.855469 50.234375 52.328125 47.707031 C 52.421875 47.195312 52.570312 46.628906 52.65625 46.441406 C 52.785156 46.160156 53.148438 44.21875 53.152344 43.785156 C 53.15625 43.601562 47.292969 43.632812 47.179688 43.816406 M 45.835938 53.875 C 46.507812 54.054688 47.230469 57.484375 46.597656 57.484375 C 46.515625 57.484375 46.398438 57.976562 46.332031 58.578125 C 46.269531 59.179688 46.160156 59.707031 46.089844 59.75 C 46.019531 59.792969 45.863281 60.25 45.738281 60.761719 C 45.613281 61.277344 45.457031 61.699219 45.390625 61.699219 C 45.324219 61.699219 45.21875 61.890625 45.160156 62.128906 C 45.058594 62.527344 44.136719 63.976562 43.605469 64.5625 C 42.714844 65.554688 42.285156 65.925781 41.929688 66.015625 C 41.707031 66.070312 41.523438 66.183594 41.523438 66.269531 C 41.523438 66.351562 41.132812 66.417969 40.65625 66.417969 C 39.675781 66.417969 38.996094 65.898438 38.996094 65.144531 C 38.996094 64.917969 38.917969 64.734375 38.824219 64.734375 C 38.617188 64.734375 38.59375 61.585938 38.804688 61.460938 C 38.882812 61.410156 39 60.914062 39.0625 60.359375 C 39.125 59.800781 39.242188 59.308594 39.320312 59.257812 C 39.402344 59.210938 39.554688 58.789062 39.667969 58.328125 C 39.777344 57.863281 39.933594 57.484375 40.007812 57.484375 C 40.085938 57.484375 40.195312 57.261719 40.253906 56.992188 C 40.316406 56.722656 40.550781 56.285156 40.78125 56.023438 C 41.011719 55.761719 41.320312 55.351562 41.464844 55.113281 C 41.609375 54.871094 41.929688 54.585938 42.171875 54.476562 C 42.417969 54.367188 42.808594 54.164062 43.039062 54.027344 C 43.460938 53.78125 45.144531 53.6875 45.835938 53.875 M 75.675781 68.539062 C 75.4375 69.160156 75.566406 103.457031 75.804688 103.65625 C 75.96875 103.789062 77.257812 103.835938 80.148438 103.800781 L 84.257812 103.757812 L 84.304688 102.703125 L 84.355469 101.648438 L 79.28125 101.648438 L 79.28125 70.296875 L 84.339844 70.296875 L 84.339844 68.273438 L 80.058594 68.273438 C 76.3125 68.273438 75.765625 68.304688 75.675781 68.539062 M 124.628906 69.28125 L 124.628906 70.296875 L 129.6875 70.296875 L 129.6875 101.640625 L 127.199219 101.6875 L 124.714844 101.734375 L 124.660156 102.644531 C 124.59375 103.875 124.445312 103.835938 129.21875 103.839844 L 133.390625 103.84375 L 133.480469 103.460938 C 133.53125 103.253906 133.550781 95.269531 133.527344 85.71875 L 133.480469 68.355469 L 129.054688 68.3125 L 124.628906 68.265625 L 124.628906 69.28125 M 88.890625 79.398438 C 88.890625 79.492188 88.777344 79.566406 88.640625 79.566406 C 88.027344 79.566406 88.328125 80.863281 88.964844 80.964844 C 89.648438 81.078125 90.320312 81.714844 90.683594 82.601562 C 90.742188 82.742188 90.925781 83.15625 91.09375 83.527344 C 91.261719 83.898438 91.449219 84.410156 91.511719 84.667969 C 91.574219 84.921875 91.683594 85.128906 91.753906 85.128906 C 91.824219 85.128906 91.976562 85.472656 92.09375 85.890625 C 92.210938 86.304688 92.359375 86.648438 92.425781 86.648438 C 92.492188 86.648438 92.628906 86.925781 92.734375 87.265625 L 92.925781 87.886719 L 89.222656 91.578125 C 85.460938 95.324219 85.273438 95.582031 85.835938 96.230469 C 86.132812 96.574219 86.296875 96.59375 88.78125 96.59375 L 91.414062 96.59375 L 91.515625 96.183594 C 91.671875 95.566406 91.542969 95.179688 91.125 94.992188 C 90.355469 94.65625 90.726562 93.085938 91.835938 91.984375 C 92.226562 91.601562 92.636719 91.113281 92.75 90.902344 C 92.859375 90.695312 93.027344 90.523438 93.125 90.523438 C 93.21875 90.523438 93.421875 90.398438 93.574219 90.246094 C 93.832031 89.992188 93.863281 90.011719 94 90.542969 C 94.082031 90.855469 94.207031 91.191406 94.28125 91.28125 C 94.355469 91.375 94.472656 91.714844 94.539062 92.042969 C 94.609375 92.367188 94.769531 92.78125 94.898438 92.964844 C 95.023438 93.148438 95.128906 93.449219 95.128906 93.636719 C 95.132812 93.828125 95.242188 94.191406 95.375 94.449219 C 95.511719 94.710938 95.671875 95.183594 95.730469 95.503906 C 95.792969 95.824219 95.910156 96.085938 95.992188 96.085938 C 96.074219 96.085938 96.140625 96.199219 96.140625 96.339844 C 96.140625 96.730469 100.945312 96.714844 101.09375 96.324219 C 101.289062 95.828125 101.207031 95.246094 100.945312 95.246094 C 100.804688 95.246094 100.691406 95.167969 100.691406 95.074219 C 100.691406 94.984375 100.546875 94.90625 100.367188 94.90625 C 99.957031 94.90625 98.890625 93.671875 98.75 93.03125 C 98.691406 92.765625 98.570312 92.546875 98.488281 92.546875 C 98.402344 92.546875 98.238281 92.207031 98.128906 91.789062 C 98.015625 91.371094 97.871094 91.03125 97.804688 91.03125 C 97.738281 91.03125 97.632812 90.800781 97.574219 90.523438 C 97.511719 90.246094 97.40625 90.019531 97.339844 90.019531 C 97.269531 90.019531 97.117188 89.640625 97 89.175781 C 96.882812 88.710938 96.714844 88.292969 96.632812 88.238281 C 96.191406 87.96875 97.574219 86.289062 99.398438 84.878906 C 99.636719 84.691406 99.835938 84.46875 99.839844 84.386719 C 99.847656 84.300781 100.511719 83.574219 101.324219 82.769531 C 103.550781 80.558594 103.46875 80.671875 103.222656 80.078125 C 103.105469 79.796875 102.90625 79.566406 102.777344 79.566406 C 102.652344 79.566406 102.546875 79.492188 102.546875 79.398438 C 102.546875 78.964844 97.765625 79.210938 97.4375 79.660156 C 97.054688 80.1875 97.125 80.808594 97.574219 80.886719 C 98.578125 81.066406 98.273438 83.074219 97.117188 83.917969 C 96.949219 84.039062 96.816406 84.207031 96.816406 84.292969 C 96.816406 84.378906 96.566406 84.707031 96.261719 85.019531 C 95.636719 85.660156 95.421875 85.578125 95.214844 84.609375 C 95.144531 84.292969 94.949219 83.714844 94.773438 83.328125 C 94.597656 82.9375 94.453125 82.5 94.453125 82.359375 C 94.453125 82.214844 94.390625 82.09375 94.3125 82.09375 C 94.234375 82.09375 94.074219 81.660156 93.957031 81.125 C 93.550781 79.308594 93.425781 79.230469 90.988281 79.230469 C 89.703125 79.230469 88.890625 79.292969 88.890625 79.398438 M 210.269531 79.554688 C 209.886719 80.277344 210.050781 80.863281 210.664062 80.964844 C 211.585938 81.113281 212 81.632812 212.972656 83.867188 C 213.171875 84.328125 213.480469 85.027344 213.65625 85.414062 C 213.832031 85.804688 213.972656 86.203125 213.972656 86.300781 C 213.972656 86.398438 214.035156 86.480469 214.105469 86.480469 C 214.179688 86.480469 214.320312 86.78125 214.421875 87.152344 L 214.601562 87.824219 L 211 91.441406 C 207.203125 95.253906 206.933594 95.648438 207.640625 96.351562 C 208.039062 96.75 213.296875 96.703125 213.300781 96.296875 C 213.304688 96.136719 213.347656 95.847656 213.398438 95.65625 C 213.46875 95.386719 213.355469 95.238281 212.890625 94.984375 C 211.84375 94.421875 212.238281 93.316406 214.203125 91.300781 C 215.648438 89.820312 215.609375 89.835938 215.753906 90.609375 C 215.816406 90.933594 215.925781 91.199219 215.996094 91.199219 C 216.070312 91.199219 216.179688 91.484375 216.246094 91.832031 C 216.308594 92.179688 216.464844 92.691406 216.585938 92.96875 C 216.710938 93.246094 216.863281 93.664062 216.921875 93.894531 C 216.980469 94.128906 217.101562 94.46875 217.1875 94.65625 C 217.277344 94.839844 217.445312 95.332031 217.566406 95.75 L 217.78125 96.507812 L 222.824219 96.507812 L 222.875 95.875 C 222.917969 95.394531 222.867188 95.246094 222.664062 95.246094 C 222.519531 95.246094 222.402344 95.167969 222.402344 95.074219 C 222.402344 94.984375 222.269531 94.90625 222.109375 94.902344 C 221.820312 94.898438 220.71875 94.011719 220.71875 93.789062 C 220.71875 93.660156 219.980469 92.011719 219.632812 91.367188 C 219.507812 91.136719 219.355469 90.699219 219.289062 90.398438 C 219.226562 90.097656 219.113281 89.851562 219.039062 89.851562 C 218.964844 89.851562 218.816406 89.511719 218.714844 89.101562 C 218.609375 88.691406 218.449219 88.304688 218.355469 88.25 C 217.984375 88.019531 219.054688 86.308594 219.570312 86.308594 C 219.703125 86.308594 222.226562 83.75 222.992188 82.839844 C 223.363281 82.402344 223.808594 81.921875 223.984375 81.773438 C 224.671875 81.1875 224.929688 80.835938 224.929688 80.476562 C 224.929688 79.925781 224.757812 79.566406 224.492188 79.566406 C 224.363281 79.566406 224.257812 79.492188 224.257812 79.398438 C 224.257812 79.292969 223.359375 79.230469 221.910156 79.230469 L 219.558594 79.230469 L 219.210938 79.71875 C 218.71875 80.410156 218.75 80.914062 219.277344 80.914062 C 220.121094 80.914062 220.226562 82.128906 219.472656 83.164062 C 218.089844 85.058594 217.007812 85.800781 217.007812 84.847656 C 217.007812 84.714844 216.863281 84.289062 216.6875 83.898438 C 216.507812 83.507812 216.3125 82.90625 216.246094 82.558594 C 216.179688 82.210938 216.058594 81.925781 215.976562 81.925781 C 215.894531 81.925781 215.828125 81.757812 215.824219 81.546875 C 215.820312 81.035156 215.214844 79.734375 214.855469 79.460938 C 214.335938 79.066406 210.488281 79.148438 210.269531 79.554688 M 150.085938 82.261719 L 150.085938 84.117188 L 161.273438 84.117188 C 174.191406 84.117188 172.875 84.351562 172.804688 82.070312 L 172.757812 80.496094 L 161.421875 80.449219 L 150.085938 80.40625 L 150.085938 82.261719 M 22.640625 84.625 L 22.640625 86.308594 L 65.628906 86.308594 L 65.628906 82.9375 L 22.640625 82.9375 L 22.640625 84.625 M 150.085938 89.511719 L 150.085938 91.371094 L 161.421875 91.328125 L 172.757812 91.28125 L 172.757812 87.742188 L 150.085938 87.65625 L 150.085938 89.511719 M 39.753906 94.867188 C 38.871094 95.515625 39.03125 96.496094 40.035156 96.558594 C 40.898438 96.613281 41.589844 97.265625 41.203125 97.65625 C 41.101562 97.757812 41.015625 98.101562 41.015625 98.425781 C 41.015625 99.183594 40.675781 101.179688 40.507812 101.398438 C 40.4375 101.492188 40.328125 101.964844 40.261719 102.453125 C 40.128906 103.433594 40.089844 103.464844 39.496094 103.039062 C 38.507812 102.34375 32.925781 102.71875 32.925781 103.484375 C 32.925781 103.542969 32.683594 103.699219 32.386719 103.828125 C 31.800781 104.089844 30.058594 105.71875 30.058594 106.007812 C 30.058594 106.105469 29.953125 106.246094 29.820312 106.320312 C 29.515625 106.492188 28.257812 108.710938 28.105469 109.34375 C 28.042969 109.609375 27.925781 109.910156 27.84375 110.011719 C 27.765625 110.113281 27.652344 110.667969 27.589844 111.238281 C 27.53125 111.8125 27.417969 112.320312 27.335938 112.371094 C 27.148438 112.488281 27.152344 116.269531 27.339844 116.386719 C 27.421875 116.4375 27.527344 116.742188 27.582031 117.070312 C 27.6875 117.726562 28.847656 119.515625 29.167969 119.515625 C 29.28125 119.519531 29.453125 119.671875 29.554688 119.855469 C 29.785156 120.289062 33.769531 120.386719 33.769531 119.957031 C 33.769531 119.828125 33.957031 119.675781 34.1875 119.621094 C 34.417969 119.5625 34.835938 119.289062 35.121094 119.011719 C 35.402344 118.734375 35.710938 118.507812 35.800781 118.507812 C 35.894531 118.507812 36.019531 118.375 36.078125 118.210938 C 36.171875 117.949219 37.101562 116.988281 37.261719 116.988281 C 37.359375 116.988281 37.109375 118.238281 36.972656 118.421875 C 36.78125 118.6875 36.632812 119.65625 36.742188 119.9375 C 36.929688 120.429688 42.082031 120.300781 42.351562 119.800781 C 42.769531 119.015625 42.535156 118.429688 41.777344 118.367188 C 40.757812 118.285156 39.929688 116.695312 40.667969 116.238281 C 40.753906 116.1875 40.875 115.707031 40.941406 115.175781 C 41.003906 114.644531 41.117188 114.132812 41.191406 114.039062 C 41.265625 113.949219 41.414062 113.246094 41.527344 112.480469 C 41.636719 111.714844 41.789062 111.089844 41.855469 111.089844 C 41.925781 111.089844 42.039062 110.617188 42.105469 110.039062 C 42.167969 109.460938 42.292969 108.902344 42.375 108.800781 C 42.457031 108.703125 42.617188 108.019531 42.722656 107.285156 C 42.832031 106.550781 42.96875 105.910156 43.03125 105.863281 C 43.089844 105.816406 43.226562 105.324219 43.332031 104.769531 C 43.839844 102.082031 44.070312 101.039062 44.207031 100.796875 C 44.285156 100.652344 44.449219 99.835938 44.570312 98.984375 C 44.691406 98.132812 44.847656 97.4375 44.917969 97.4375 C 44.988281 97.4375 45.097656 96.980469 45.160156 96.425781 C 45.222656 95.867188 45.339844 95.414062 45.421875 95.414062 C 45.503906 95.414062 45.566406 95.261719 45.566406 95.074219 C 45.566406 94.726562 40.207031 94.535156 39.753906 94.867188 M 46.609375 103.332031 C 46.261719 104.117188 46.402344 104.421875 47.132812 104.484375 C 48.109375 104.566406 48.445312 104.984375 49.601562 107.582031 C 49.792969 108.019531 49.953125 108.4375 49.957031 108.511719 C 49.960938 108.585938 50.109375 108.949219 50.289062 109.320312 C 50.46875 109.691406 50.617188 110.089844 50.621094 110.207031 C 50.621094 110.320312 50.691406 110.417969 50.773438 110.417969 C 50.855469 110.417969 50.960938 110.613281 51.007812 110.851562 C 51.082031 111.238281 50.660156 111.71875 47.488281 114.878906 C 43.691406 118.65625 43.621094 118.761719 44.078125 119.765625 L 44.273438 120.191406 L 49.621094 120.191406 L 49.789062 119.761719 C 50.125 118.871094 50.003906 118.339844 49.464844 118.339844 C 48.472656 118.339844 48.582031 117.027344 49.65625 116.011719 C 49.820312 115.859375 49.953125 115.667969 49.953125 115.585938 C 49.953125 115.421875 51.871094 113.449219 52.03125 113.449219 C 52.085938 113.449219 52.210938 113.773438 52.3125 114.167969 C 52.410156 114.5625 52.566406 115.035156 52.652344 115.21875 C 52.910156 115.777344 53.339844 117.027344 53.535156 117.792969 C 53.632812 118.183594 53.769531 118.507812 53.839844 118.507812 C 53.90625 118.507812 54.011719 118.792969 54.078125 119.140625 C 54.273438 120.179688 54.308594 120.191406 56.878906 120.191406 L 59.210938 120.191406 L 59.394531 119.5 C 59.636719 118.613281 59.519531 118.339844 58.910156 118.339844 C 58.3125 118.339844 57.4375 117.578125 57.179688 116.835938 C 57.078125 116.550781 56.9375 116.316406 56.859375 116.316406 C 56.785156 116.316406 56.671875 116.089844 56.609375 115.8125 C 56.550781 115.53125 56.441406 115.304688 56.375 115.304688 C 56.308594 115.304688 56.15625 114.925781 56.035156 114.460938 C 55.917969 114 55.765625 113.617188 55.703125 113.617188 C 55.636719 113.617188 55.503906 113.335938 55.402344 112.988281 C 55.304688 112.640625 55.101562 112.082031 54.953125 111.746094 L 54.6875 111.136719 L 55.734375 110.125 C 56.308594 109.570312 57.441406 108.484375 58.253906 107.710938 C 59.066406 106.941406 59.730469 106.25 59.730469 106.175781 C 59.730469 106.101562 60.160156 105.628906 60.6875 105.125 L 61.644531 104.210938 L 61.4375 103.519531 L 61.234375 102.832031 L 58.453125 102.832031 C 55.460938 102.832031 55.535156 102.804688 55.464844 103.769531 C 55.433594 104.195312 55.507812 104.285156 55.996094 104.429688 C 56.636719 104.617188 56.722656 105.863281 56.128906 106.453125 C 55.976562 106.605469 55.851562 106.785156 55.851562 106.847656 C 55.851562 106.972656 53.847656 109.066406 53.730469 109.066406 C 53.691406 109.066406 53.660156 108.894531 53.660156 108.683594 C 53.660156 108.472656 53.558594 108.148438 53.429688 107.96875 C 53.304688 107.785156 53.105469 107.21875 52.984375 106.707031 C 52.867188 106.195312 52.71875 105.742188 52.660156 105.695312 C 52.597656 105.648438 52.464844 105.347656 52.355469 105.019531 C 52.25 104.695312 52.035156 104.070312 51.878906 103.628906 L 51.597656 102.832031 L 46.832031 102.832031 L 46.609375 103.332031 M 37.808594 104.792969 C 38.652344 104.960938 38.992188 105.667969 38.992188 107.253906 C 38.992188 107.972656 38.933594 108.5625 38.863281 108.5625 C 38.789062 108.5625 38.632812 109.1875 38.511719 109.953125 C 38.394531 110.71875 38.226562 111.367188 38.140625 111.398438 C 38.054688 111.429688 37.984375 111.582031 37.984375 111.738281 C 37.988281 112.195312 36.664062 114.664062 36.035156 115.363281 C 35.714844 115.722656 35.453125 116.070312 35.453125 116.136719 C 35.453125 116.28125 34.136719 117.160156 33.921875 117.160156 C 33.835938 117.160156 33.769531 117.234375 33.769531 117.328125 C 33.769531 117.652344 32.109375 117.523438 31.757812 117.167969 C 30.941406 116.355469 30.820312 111.929688 31.574219 110.332031 C 31.660156 110.144531 31.8125 109.671875 31.914062 109.277344 C 32.015625 108.882812 32.160156 108.5625 32.246094 108.5625 C 32.324219 108.5625 32.441406 108.335938 32.503906 108.054688 C 32.566406 107.777344 32.667969 107.550781 32.730469 107.550781 C 32.792969 107.550781 32.949219 107.304688 33.082031 107.007812 C 33.320312 106.472656 34.03125 105.695312 34.285156 105.695312 C 34.359375 105.695312 34.550781 105.5625 34.710938 105.402344 C 35.269531 104.839844 36.664062 104.566406 37.808594 104.792969 M 248.027344 163.335938 L 248.027344 166.382812 L 248.875 166.382812 L 248.832031 163.390625 C 248.785156 160.433594 248.78125 160.398438 248.40625 160.34375 L 248.027344 160.289062 L 248.027344 163.335938 M 264.984375 160.582031 C 264.929688 160.726562 264.882812 161.972656 264.882812 163.347656 C 264.882812 166.089844 264.933594 166.382812 265.40625 166.382812 C 265.671875 166.382812 265.726562 166.257812 265.726562 165.644531 C 265.726562 164.8125 266.125 164.261719 266.308594 164.839844 C 266.367188 165.023438 266.523438 165.214844 266.660156 165.265625 C 266.796875 165.316406 266.90625 165.460938 266.90625 165.582031 C 266.90625 166.109375 267.519531 166.34375 268.992188 166.367188 C 269.792969 166.378906 270.445312 166.324219 270.445312 166.238281 C 270.445312 166.152344 270.597656 166.046875 270.785156 165.996094 C 271.667969 165.765625 270.996094 163.855469 270.03125 163.855469 C 269.886719 163.855469 269.773438 163.785156 269.773438 163.703125 C 269.773438 163.621094 269.582031 163.507812 269.351562 163.449219 C 268.367188 163.199219 268.871094 162.789062 270.023438 162.894531 C 271.105469 162.996094 271.121094 162.992188 271.121094 162.582031 C 271.121094 162.285156 271.027344 162.167969 270.792969 162.167969 C 270.613281 162.167969 270.417969 162.09375 270.363281 162 C 270.046875 161.492188 268.324219 162.113281 268.148438 162.800781 C 267.917969 163.683594 268.296875 164.09375 269.898438 164.699219 C 270.921875 165.085938 270.25 165.488281 268.839844 165.328125 C 268.382812 165.277344 268.078125 165.316406 268.039062 165.429688 C 268.003906 165.535156 267.832031 165.390625 267.652344 165.113281 C 267.476562 164.839844 267.199219 164.46875 267.042969 164.292969 C 266.699219 163.914062 266.816406 163.621094 267.570312 163.011719 C 267.855469 162.78125 268.085938 162.460938 268.085938 162.296875 C 268.085938 161.761719 267.449219 161.972656 266.617188 162.785156 L 265.8125 163.570312 L 265.761719 161.941406 C 265.714844 160.324219 265.335938 159.664062 264.984375 160.582031 M 271.625 163.347656 L 271.625 166.382812 L 272.046875 166.382812 C 272.464844 166.382812 272.46875 166.371094 272.46875 164.890625 C 272.46875 163.203125 272.707031 162.769531 273.59375 162.871094 L 274.070312 162.925781 L 274.117188 164.664062 L 274.167969 166.402344 L 274.625 166.351562 L 275.082031 166.296875 L 275.132812 164.699219 C 275.1875 162.90625 275.042969 162.46875 274.269531 162.082031 C 273.695312 161.796875 272.972656 161.75 272.972656 162 C 272.972656 162.09375 272.859375 162.167969 272.722656 162.167969 C 272.527344 162.167969 272.46875 161.953125 272.46875 161.242188 C 272.46875 160.363281 272.445312 160.3125 272.046875 160.3125 L 271.625 160.3125 L 271.625 163.347656 M 241.0625 160.921875 C 239.292969 161.878906 239.15625 166.046875 240.890625 166.046875 C 241.015625 166.046875 241.113281 166.121094 241.113281 166.214844 C 241.113281 166.515625 243.421875 166.421875 243.539062 166.117188 C 243.792969 165.460938 243.675781 165.371094 242.554688 165.371094 C 240.628906 165.371094 239.6875 163.34375 241.035156 162.09375 C 241.511719 161.652344 241.613281 161.625 243.050781 161.59375 C 243.648438 161.582031 243.902344 161.507812 243.9375 161.324219 C 244.054688 160.710938 241.984375 160.421875 241.0625 160.921875 M 245.160156 162 C 245.160156 162.09375 244.964844 162.167969 244.726562 162.167969 C 244.375 162.167969 244.304688 162.238281 244.347656 162.546875 C 244.394531 162.886719 244.496094 162.925781 245.324219 162.925781 C 246.070312 162.925781 246.257812 162.984375 246.304688 163.222656 C 246.351562 163.449219 246.25 163.515625 245.855469 163.515625 C 245.578125 163.515625 245.308594 163.585938 245.257812 163.667969 C 245.203125 163.75 244.953125 163.871094 244.699219 163.933594 C 243.898438 164.132812 243.589844 165.804688 244.316406 165.996094 C 244.503906 166.046875 244.65625 166.152344 244.65625 166.234375 C 244.65625 166.460938 245.90625 166.410156 246.160156 166.171875 C 246.335938 166.003906 246.398438 166.003906 246.460938 166.171875 C 246.503906 166.289062 246.683594 166.382812 246.859375 166.382812 C 247.207031 166.382812 247.363281 163.050781 247.039062 162.535156 C 246.707031 162.011719 245.160156 161.570312 245.160156 162 M 250.425781 162.136719 C 250.125 162.28125 249.878906 162.464844 249.878906 162.546875 C 249.878906 162.628906 249.765625 162.8125 249.628906 162.949219 C 249.46875 163.113281 249.375 163.523438 249.378906 164.078125 C 249.378906 165.316406 249.511719 165.667969 250.066406 165.914062 C 250.335938 166.03125 250.554688 166.183594 250.554688 166.253906 C 250.554688 166.523438 252.367188 166.394531 252.476562 166.117188 C 252.71875 165.480469 252.601562 165.363281 251.734375 165.394531 C 250.359375 165.445312 249.65625 164.175781 250.507812 163.183594 C 250.984375 162.625 252.578125 162.6875 252.578125 163.265625 C 252.578125 163.496094 252.640625 163.6875 252.71875 163.6875 C 252.792969 163.6875 252.949219 164.1875 253.0625 164.800781 C 253.347656 166.359375 254.144531 167.015625 254.371094 165.878906 C 254.429688 165.597656 254.535156 165.371094 254.605469 165.371094 C 254.679688 165.371094 254.789062 165.085938 254.847656 164.734375 C 255.023438 163.6875 255.222656 163.550781 255.359375 164.378906 C 255.566406 165.605469 255.972656 166.382812 256.410156 166.382812 C 256.675781 166.382812 256.792969 166.28125 256.792969 166.054688 C 256.792969 165.875 256.855469 165.6875 256.9375 165.640625 C 257.015625 165.589844 257.175781 164.980469 257.296875 164.28125 C 257.414062 163.582031 257.578125 163.011719 257.660156 163.011719 C 257.738281 163.011719 257.804688 162.773438 257.804688 162.484375 C 257.804688 162.023438 257.757812 161.972656 257.425781 162.0625 C 257.214844 162.117188 256.996094 162.164062 256.9375 162.167969 C 256.878906 162.167969 256.777344 162.519531 256.714844 162.949219 C 256.496094 164.386719 256.21875 164.617188 256.03125 163.515625 C 255.96875 163.144531 255.851562 162.84375 255.765625 162.84375 C 255.679688 162.84375 255.613281 162.691406 255.613281 162.503906 C 255.613281 161.335938 254.4375 162.472656 254.171875 163.894531 C 254.011719 164.769531 253.820312 164.6875 253.6875 163.6875 C 253.628906 163.222656 253.503906 162.84375 253.414062 162.84375 C 253.324219 162.84375 253.25 162.691406 253.25 162.503906 C 253.25 162.1875 253.171875 162.148438 252.382812 162.101562 C 252.226562 162.09375 252.042969 162.027344 251.972656 161.957031 C 251.777344 161.761719 251.03125 161.847656 250.425781 162.136719 M 259.152344 161.980469 C 259.152344 162.0625 258.960938 162.179688 258.730469 162.238281 C 258.5 162.296875 258.308594 162.449219 258.308594 162.578125 C 258.308594 162.707031 258.21875 162.84375 258.113281 162.878906 C 257.460938 163.097656 257.867188 165.632812 258.605469 165.960938 C 258.8125 166.050781 258.984375 166.183594 258.984375 166.253906 C 258.984375 166.324219 259.324219 166.382812 259.742188 166.382812 C 260.160156 166.382812 260.5 166.324219 260.5 166.253906 C 260.5 166.183594 260.671875 166.050781 260.878906 165.960938 C 262.007812 165.464844 261.714844 162.1875 260.542969 162.171875 C 260.425781 162.167969 260.332031 162.09375 260.332031 162 C 260.332031 161.90625 260.066406 161.832031 259.742188 161.832031 C 259.417969 161.832031 259.152344 161.898438 259.152344 161.980469 M 263.367188 161.988281 C 263.367188 162.085938 263.101562 162.167969 262.777344 162.167969 L 262.1875 162.167969 L 262.1875 164.273438 C 262.1875 166.269531 262.203125 166.382812 262.523438 166.382812 C 262.902344 166.382812 262.917969 166.320312 262.867188 165.070312 C 262.84375 164.582031 262.902344 164.089844 262.996094 163.976562 C 263.089844 163.863281 263.191406 163.582031 263.222656 163.347656 C 263.273438 162.996094 263.382812 162.917969 263.925781 162.875 C 264.511719 162.824219 264.5625 162.78125 264.515625 162.367188 C 264.460938 161.90625 263.367188 161.546875 263.367188 161.988281 M 277.019531 161.988281 C 277.019531 162.070312 276.8125 162.1875 276.558594 162.246094 C 275.328125 162.527344 275.167969 165.6875 276.371094 166.003906 C 276.542969 166.046875 276.683594 166.152344 276.683594 166.234375 C 276.683594 166.316406 277.0625 166.382812 277.527344 166.382812 C 277.988281 166.382812 278.367188 166.3125 278.367188 166.226562 C 278.367188 166.140625 278.503906 166.027344 278.664062 165.972656 C 279.394531 165.742188 279.691406 163.839844 279.140625 162.910156 C 278.679688 162.128906 277.019531 161.410156 277.019531 161.988281 M 281.234375 162 C 281.234375 162.09375 280.96875 162.167969 280.644531 162.167969 L 280.054688 162.167969 L 280.054688 168.089844 L 280.433594 168.039062 C 280.757812 167.992188 280.820312 167.867188 280.863281 167.183594 L 280.917969 166.382812 L 281.75 166.382812 C 282.207031 166.382812 282.582031 166.308594 282.582031 166.214844 C 282.582031 166.121094 282.695312 166.046875 282.832031 166.046875 C 283.492188 166.046875 283.914062 164.234375 283.496094 163.191406 C 283.125 162.265625 281.234375 161.269531 281.234375 162 M 286.683594 162.148438 C 285.324219 162.84375 285.21875 166.046875 286.558594 166.046875 C 286.691406 166.046875 286.796875 166.121094 286.796875 166.214844 C 286.796875 166.511719 288.601562 166.421875 288.71875 166.117188 C 288.960938 165.484375 288.84375 165.371094 287.996094 165.40625 C 286.921875 165.453125 286.628906 165.203125 286.628906 164.242188 C 286.628906 163.058594 286.824219 162.84375 287.898438 162.84375 C 288.683594 162.84375 288.820312 162.796875 288.820312 162.53125 C 288.820312 161.882812 287.628906 161.667969 286.683594 162.148438 M 290.335938 162 C 290.335938 162.09375 290.253906 162.167969 290.152344 162.167969 C 289.855469 162.167969 289.164062 162.898438 289.160156 163.210938 C 289.160156 163.367188 289.082031 163.542969 288.988281 163.601562 C 288.777344 163.730469 288.765625 164.644531 288.976562 164.773438 C 289.0625 164.828125 289.179688 165.09375 289.242188 165.367188 C 289.300781 165.644531 289.492188 165.90625 289.675781 165.964844 C 289.855469 166.023438 290 166.140625 290 166.226562 C 290 166.3125 290.378906 166.382812 290.84375 166.382812 C 291.308594 166.382812 291.6875 166.308594 291.6875 166.214844 C 291.6875 166.121094 291.789062 166.046875 291.914062 166.046875 C 292.769531 166.046875 293.179688 163.492188 292.441406 162.757812 C 291.648438 161.972656 290.335938 161.5 290.335938 162 M 294.550781 162 C 294.550781 162.09375 294.285156 162.167969 293.960938 162.167969 L 293.371094 162.167969 L 293.371094 166.382812 L 293.792969 166.382812 C 294.214844 166.382812 294.214844 166.382812 294.214844 164.707031 C 294.214844 162.878906 294.34375 162.667969 295.324219 162.914062 C 295.722656 163.015625 295.734375 163.058594 295.734375 164.699219 C 295.734375 166.382812 295.734375 166.382812 296.152344 166.382812 C 296.574219 166.382812 296.574219 166.382812 296.574219 164.707031 C 296.574219 162.878906 296.703125 162.667969 297.683594 162.914062 C 298.082031 163.015625 298.09375 163.058594 298.09375 164.699219 C 298.09375 166.269531 298.113281 166.382812 298.429688 166.382812 C 298.746094 166.382812 298.765625 166.269531 298.765625 164.457031 L 298.765625 162.527344 L 298.277344 162.179688 C 297.785156 161.828125 296.910156 161.703125 296.910156 161.980469 C 296.910156 162.261719 296.164062 162.324219 295.785156 162.078125 C 295.355469 161.796875 294.550781 161.746094 294.550781 162 M 260.246094 162.972656 C 261.191406 163.664062 260.84375 165.414062 259.761719 165.414062 C 258.769531 165.414062 258.296875 164.207031 258.917969 163.257812 C 259.1875 162.847656 259.875 162.699219 260.246094 162.972656 M 278.34375 163.097656 C 278.515625 163.269531 278.449219 165.023438 278.257812 165.210938 C 277.953125 165.519531 276.996094 165.457031 276.742188 165.113281 C 275.867188 163.914062 277.324219 162.078125 278.34375 163.097656 M 282.628906 163.507812 C 282.824219 164.257812 282.644531 165.191406 282.28125 165.324219 C 282.121094 165.382812 281.941406 165.503906 281.882812 165.597656 C 281.816406 165.699219 281.660156 165.652344 281.492188 165.484375 C 281.335938 165.328125 281.140625 165.203125 281.054688 165.203125 C 280.808594 165.203125 280.859375 163.054688 281.109375 162.949219 C 281.777344 162.667969 282.480469 162.925781 282.628906 163.507812 M 291.789062 163.558594 C 292.203125 164.761719 291.507812 165.695312 290.46875 165.332031 C 289.953125 165.152344 289.707031 164.371094 289.910156 163.5625 C 290.164062 162.558594 291.441406 162.554688 291.789062 163.558594 M 246.339844 164.847656 C 246.339844 165.195312 245.628906 165.523438 245.117188 165.410156 C 244.78125 165.335938 244.71875 164.765625 245.035156 164.640625 C 245.597656 164.414062 246.339844 164.53125 246.339844 164.847656 M 284.132812 165.40625 C 283.746094 165.792969 284.125 166.382812 284.761719 166.382812 C 285.050781 166.382812 285.113281 166.277344 285.113281 165.792969 C 285.113281 165.160156 284.585938 164.953125 284.132812 165.40625 " fill-opacity="1" fill-rule="evenodd"/></g></svg>