<svg xmlns="http://www.w3.org/2000/svg" width="400" height="225" version="1.0" viewBox="0 0 300 168.75"><defs><clipPath id="a"><path d="M.223 0h299.554v168.5H.223Zm0 0"/></clipPath><clipPath id="b"><path d="M22 43h277v112.77H22Zm0 0"/></clipPath></defs><g fill="#fff" clip-path="url(#a)"><path d="M.223 0h299.554v168.5H.223Zm0 0"/><path d="M.223 0h299.554v168.5H.223Zm0 0"/></g><path fill="#c40404" fill-rule="evenodd" d="M272.004 64.79c-.207.105-.379.25-.379.32s-.117.128-.258.128c-.14 0-.3.11-.351.242-.051.133-.32.293-.594.352-.277.063-.543.215-.59.34-.05.125-.305.273-.566.332-.262.055-.516.207-.563.332-.05.125-.316.273-.59.336-.277.058-.547.219-.597.351-.051.133-.192.247-.309.247-.488.007-1.027.613-.914 1.027.219.797.746 1.246 1.094.93.168-.149.394-.274.504-.274.105 0 .195-.058.195-.129 0-.07.246-.234.547-.363.3-.133.597-.309.652-.395.059-.086.36-.168.676-.183l.57-.028v12.31l-.398.397c-.34.336-.621.415-1.813.489l-1.414.086v1.64h10.281v-1.64l-1.417-.086c-2.313-.145-2.11.687-2.16-8.824l-.044-8.079-.593-.027c-.325-.012-.758.063-.97.168M109.599 69.57c-.809.125-.868 1.399-.067 1.399.742 0 1.059 2.168.434 2.953-.074.09-.227.773-.34 1.516-.11.742-.262 1.425-.336 1.515-.074.094-.215.625-.312 1.18a47 47 0 0 1-.434 2.11c-.14.6-.262 1.378-.262 1.726l-.004.633h1.348c1.328 0 1.352-.008 1.352-.422 0-.23.062-.422.14-.422s.223-.551.324-1.223c.239-1.558.77-3.96 1-4.508.098-.23.23-.668.297-.968.063-.301.192-.547.278-.547.09 0 .21-.13.27-.285.112-.29.19-.395 1.109-1.418 1.496-1.672 3.492-1.055 2.77.859-.052.137-.188.879-.306 1.644-.117.762-.261 1.391-.324 1.391-.062 0-.21.645-.336 1.43-.12.789-.281 1.433-.351 1.433s-.18.418-.246.93c-.063.508-.188.926-.274.926s-.137.246-.105.547l.05.547 2.317.046 2.32.047v-.52q.001-.913-.86-1.03c-.413-.059-.554-2.082-.16-2.332.075-.047.235-.696.352-1.434.121-.742.27-1.387.34-1.434.426-.293.629-4.246.262-5.12-.461-1.106-3.68-1.88-4.281-1.032-.067.094-.336.277-.598.414-.574.293-1.63 1.266-1.63 1.492 0 .09-.124.211-.276.27-.22.086-.239.058-.086-.125.105-.13.242-.7.3-1.27l.11-1.035-1.668.024c-.918.015-1.871.058-2.117.093m121.234.008c-.77.14-1.027 1.39-.285 1.39.941 0 1.273 2.61.46 3.622-.077.094-.195.59-.26 1.101-.067.508-.18 1-.25 1.094-.067.094-.224.813-.34 1.602-.118.789-.27 1.508-.337 1.601-.18.239-.515 2.293-.406 2.469.25.406 2.766.156 2.766-.277 0-.23.07-.422.152-.422s.203-.531.27-1.18c.066-.648.171-1.18.238-1.18s.222-.722.344-1.601c.12-.879.285-1.602.367-1.602.078 0 .144-.125.144-.277 0-.356.871-2.082 1.047-2.082.074 0 .137-.094.137-.211.012-.832 2.094-2 3.11-1.746.445.113.687 2.453.277 2.707-.086.05-.207.492-.274.977-.066.488-.18.96-.254 1.054s-.218.66-.324 1.266c-.101.601-.258 1.246-.34 1.43-.23.503-.543 1.945-.57 2.613l-.024.59h4.551l.055-.473c.066-.59-.2-.922-.785-.992-.453-.051-.633-2.051-.211-2.324.078-.047.242-.75.363-1.563.125-.809.281-1.473.352-1.473.066 0 .175-.457.238-1.015.062-.559.18-1.059.262-1.106.203-.129.183-2.05-.024-2.18-.09-.054-.168-.238-.168-.406 0-.902-1-1.449-2.66-1.449-.969 0-1.613.074-1.687.192-.063.101-.286.238-.489.3-.207.067-.77.504-1.254.977-.48.476-.828.73-.765.566.062-.16.164-.703.222-1.207l.106-.91-1.668.024c-.914.011-1.856.058-2.086.101m15.711 5.649.05 1.39 7.458.043 7.46.043v-2.867h-15.015zm-57.809 4.477c-.25.16-.488 1.207-.277 1.227.676.062 1.176.207 1.293.375.176.254.016 2.949-.191 3.21-.082.106-.254.837-.375 1.626s-.274 1.472-.336 1.52c-.063.042-.2.573-.301 1.179-.332 1.969-.727 3.785-.879 4.074-.082.156-.2.781-.262 1.39l-.113 1.11h1.625c1.332 0 1.625-.047 1.625-.254 0-.14.066-.254.148-.254s.204-.511.27-1.136.18-1.215.254-1.305c.074-.094.226-.778.336-1.52s.262-1.5.336-1.683c.074-.188.226-.782.34-1.32.171-.852.574-1.868.843-2.137.047-.047.2-.309.336-.586.14-.274.367-.63.508-.785.14-.153.52-.598.844-.985.707-.844 1.484-1.355 2.07-1.355.234 0 .469-.094.516-.207.066-.172.086-.172.097 0 .008.113.125.207.258.207.582 0 .828 2.394.406 3.965a53 53 0 0 0-.453 1.937c-.152.695-.32 1.3-.375 1.348-.054.047-.183.504-.293 1.011-.515 2.477-.804 3.63-.922 3.68-.07.031-.125.356-.125.723v.664l2.825-.047 2.82-.047v-.59c0-.531-.05-.593-.504-.644-.957-.11-1.148-.457-1.031-1.883.058-.695.176-1.29.262-1.316.086-.032.25-.73.367-1.56s.27-1.507.336-1.507.172-.398.238-.887c.066-.484.191-.976.285-1.09.68-.84.32-4.468-.535-5.417l-.66-.735-1.438-.09c-1.398-.086-2.964.164-2.964.473 0 .074-.168.188-.368.254-.199.062-.882.629-1.515 1.258s-1.153 1.039-1.153.91c0-.133.059-.238.133-.238.113 0 .543-2.004.543-2.536 0-.195-4.535-.222-4.844-.027"/><g clip-path="url(#b)"><path fill="#242424" fill-rule="evenodd" d="M47.18 43.816c-.055.082-.145.496-.203.918l-.102.762.895.05c.792.048.906.102 1.003.474.13.488-.125 3.195-.324 3.453-.074.093-.234.765-.351 1.488-.184 1.09-.266 1.297-.489 1.207a5 5 0 0 0-.82-.2c-.3-.05-.547-.16-.547-.238 0-.082-.832-.148-1.855-.148-1.121 0-1.852.066-1.852.172 0 .09-.18.168-.398.168-.528 0-1.457.332-1.457.52 0 .085-.098.152-.22.152-.57 0-3.312 2.754-3.32 3.332 0 .113-.07.21-.16.21-.085 0-.253.266-.37.59-.118.325-.266.59-.333.59-.066 0-.175.246-.242.547-.062.301-.187.594-.277.649-.086.054-.235.625-.332 1.265-.098.637-.246 1.293-.328 1.453-.211.41-.192 4.176.02 4.176.093 0 .167.184.167.41 0 .493.258 1.215.547 1.528.117.125.387.453.598.73.902 1.18 4.597 1.492 5.695.477.117-.106.414-.344.656-.531.54-.41.965-.829 1.617-1.59.63-.73.77-.59.438.441a13 13 0 0 0-.375 1.45l-.113.632 2.843-.043 2.844-.047.102-1.601-.64-.008c-.938-.004-1.231-.3-1.231-1.234 0-.43.066-.782.144-.782s.238-.683.352-1.515c.113-.836.27-1.555.343-1.602.079-.047.192-.539.254-1.098.067-.554.172-1.011.235-1.011.066 0 .218-.664.343-1.477.126-.808.274-1.512.34-1.558.114-.082.246-.704.801-3.707.164-.883.344-1.641.402-1.688.098-.074.375-1.348.848-3.875.094-.512.242-1.078.328-1.266.13-.28.492-2.222.496-2.656.004-.183-5.859-.152-5.972.031m-1.344 10.059c.672.18 1.394 3.61.762 3.61-.082 0-.2.492-.266 1.093-.062.602-.172 1.129-.242 1.172s-.227.5-.352 1.012c-.125.515-.281.937-.347.937-.067 0-.172.192-.23.43-.102.398-1.024 1.848-1.556 2.434-.89.992-1.32 1.363-1.675 1.453-.223.054-.407.168-.407.254 0 .082-.39.148-.867.148-.98 0-1.66-.52-1.66-1.273 0-.227-.078-.41-.172-.41-.207 0-.23-3.15-.02-3.274.079-.05.196-.547.258-1.102.063-.558.18-1.05.258-1.101.082-.047.235-.469.348-.93.11-.465.266-.844.34-.844.078 0 .187-.222.246-.492.062-.27.297-.707.527-.969.23-.261.54-.671.684-.91a1.87 1.87 0 0 1 .707-.636c.246-.11.637-.313.867-.45.422-.246 2.106-.34 2.797-.152m29.84 14.664c-.239.621-.11 34.918.129 35.117.164.133 1.453.18 4.343.145l4.11-.043.047-1.055.05-1.055h-5.074V70.297h5.059v-2.024h-4.281c-3.746 0-4.293.032-4.383.266m48.953.742v1.016h5.058v31.344l-2.488.046-2.484.047-.055.91c-.066 1.231-.215 1.192 4.559 1.196l4.172.004.09-.383c.05-.207.07-8.191.046-17.742l-.047-17.364-4.425-.043-4.426-.046zM88.89 79.398c0 .094-.114.168-.25.168-.614 0-.313 1.297.324 1.399.683.113 1.355.75 1.719 1.637.058.14.242.554.41.925s.355.883.418 1.141c.062.254.172.46.242.46s.223.345.34.763c.117.414.265.757.332.757.066 0 .203.278.308.618l.192.62-3.703 3.692c-3.762 3.746-3.95 4.004-3.387 4.652.297.344.46.364 2.945.364h2.633l.102-.41c.156-.618.027-1.004-.391-1.192-.77-.336-.398-1.906.71-3.008.392-.382.802-.87.915-1.082.11-.207.277-.379.375-.379.094 0 .297-.125.45-.277.257-.254.288-.234.425.297.082.312.207.648.281.738.074.094.192.434.258.762.07.324.23.738.36.922.124.183.23.484.23.672.004.191.113.554.246.812.137.262.297.735.355 1.055.063.32.18.582.262.582s.149.113.149.254c0 .39 4.804.375 4.953-.016.195-.496.113-1.078-.149-1.078-.14 0-.254-.078-.254-.172 0-.09-.144-.168-.324-.168-.41 0-1.476-1.234-1.617-1.875-.059-.265-.18-.484-.262-.484-.086 0-.25-.34-.36-.758-.112-.418-.257-.758-.323-.758-.067 0-.172-.23-.23-.508-.063-.277-.169-.503-.235-.503-.07 0-.223-.38-.34-.844-.117-.465-.285-.883-.367-.938-.442-.27.941-1.949 2.765-3.36.239-.187.438-.41.442-.491.008-.086.672-.813 1.484-1.617 2.227-2.211 2.145-2.098 1.899-2.692-.118-.281-.317-.512-.446-.512-.125 0-.23-.074-.23-.168 0-.433-4.781-.187-5.11.262-.382.528-.312 1.149.137 1.227 1.004.18.7 2.187-.457 3.031-.168.121-.3.289-.3.375s-.25.414-.555.727c-.625.64-.84.558-1.047-.41a8 8 0 0 0-.442-1.282c-.175-.39-.32-.828-.32-.969 0-.144-.062-.265-.14-.265s-.239-.434-.356-.969c-.406-1.816-.531-1.895-2.969-1.895-1.285 0-2.097.063-2.097.168m121.379.157c-.383.722-.22 1.308.394 1.41.922.148 1.336.668 2.309 2.902.199.461.507 1.16.683 1.547.176.39.317.79.317.887s.062.18.132.18c.075 0 .215.3.317.671l.18.672L211 91.441c-3.797 3.813-4.066 4.207-3.36 4.91.4.399 5.657.352 5.66-.054a3.5 3.5 0 0 1 .098-.64c.07-.27-.043-.419-.507-.673-1.047-.562-.653-1.668 1.312-3.683 1.445-1.48 1.406-1.465 1.55-.692.063.325.173.59.243.59.074 0 .184.285.25.633.063.348.219.86.34 1.137.125.277.277.695.336.926.058.234.18.574.266.761.09.184.257.676.378 1.094l.215.758h5.043l.051-.633c.043-.48-.008-.629-.21-.629-.145 0-.263-.078-.263-.172 0-.09-.132-.168-.293-.172-.289-.004-1.39-.89-1.39-1.113 0-.129-.739-1.777-1.086-2.422a4.5 4.5 0 0 1-.344-.969c-.062-.3-.176-.546-.25-.546s-.223-.34-.324-.75c-.106-.41-.266-.797-.36-.852-.37-.23.7-1.941 1.215-1.941.133 0 2.657-2.559 3.422-3.47.371-.437.817-.917.992-1.066.688-.585.946-.937.946-1.296 0-.551-.172-.91-.438-.91-.129 0-.234-.075-.234-.169 0-.105-.899-.168-2.348-.168h-2.351l-.348.489c-.492.691-.461 1.195.066 1.195.844 0 .95 1.215.196 2.25-1.383 1.895-2.465 2.637-2.465 1.684 0-.133-.145-.559-.32-.95a7 7 0 0 1-.442-1.34c-.066-.347-.187-.632-.27-.632-.081 0-.148-.168-.152-.38-.004-.51-.61-1.812-.969-2.085-.52-.395-4.367-.313-4.585.094m-60.184 2.707v1.855h11.187c12.918 0 11.602.235 11.532-2.047l-.047-1.574-11.336-.047-11.336-.043zM22.64 84.625v1.684h42.988v-3.371H22.64zm127.445 4.887v1.86l11.336-.044 11.336-.047v-3.539l-22.672-.086zM39.754 94.867c-.883.649-.723 1.63.281 1.692.863.054 1.555.707 1.168 1.097-.101.102-.187.446-.187.77 0 .758-.34 2.754-.508 2.972-.07.094-.18.567-.246 1.055-.133.98-.172 1.012-.766.586-.988-.695-6.57-.32-6.57.445 0 .059-.242.215-.54.344-.585.262-2.327 1.89-2.327 2.18 0 .097-.106.238-.239.312-.304.172-1.562 2.39-1.715 3.024-.062.265-.18.566-.261.668-.078.101-.192.656-.254 1.226-.059.575-.172 1.082-.254 1.133-.188.117-.184 3.899.004 4.016.082.05.187.355.242.683.105.657 1.266 2.446 1.586 2.446.113.004.285.156.387.34.23.433 4.215.53 4.215.101 0-.129.187-.281.417-.336.231-.058.649-.332.934-.61.281-.277.59-.503.68-.503.094 0 .219-.133.277-.297.094-.262 1.024-1.223 1.184-1.223.097 0-.153 1.25-.29 1.434-.19.266-.34 1.234-.23 1.516.188.492 5.34.363 5.61-.137.418-.785.183-1.371-.575-1.434-1.02-.082-1.847-1.672-1.109-2.129.086-.05.207-.531.273-1.062.063-.531.176-1.043.25-1.137.075-.09.223-.793.336-1.559.11-.765.262-1.39.328-1.39.07 0 .184-.473.25-1.05.063-.58.188-1.138.27-1.24.082-.097.242-.78.348-1.515.109-.734.246-1.375.308-1.422.059-.047.196-.539.301-1.093.508-2.688.738-3.73.875-3.973.078-.145.242-.961.363-1.813.121-.851.278-1.546.348-1.546s.18-.458.242-1.012c.063-.559.18-1.012.262-1.012s.144-.152.144-.34c0-.347-5.359-.539-5.812-.207m6.855 8.465c-.347.785-.207 1.09.524 1.152.976.082 1.312.5 2.469 3.098.191.438.351.856.355.93s.152.437.332.808.328.77.332.887c0 .113.07.211.152.211s.188.195.235.434c.074.386-.348.867-3.52 4.027-3.797 3.777-3.867 3.883-3.41 4.887l.195.425h5.348l.168-.43c.336-.89.215-1.421-.324-1.421-.992 0-.883-1.313.191-2.328.164-.153.297-.344.297-.426 0-.164 1.918-2.137 2.078-2.137.055 0 .18.324.282.719.097.394.253.867.34 1.05.257.56.687 1.81.882 2.575.098.39.235.715.305.715.066 0 .172.285.238.633.195 1.039.23 1.05 2.8 1.05h2.333l.184-.691c.242-.887.125-1.16-.485-1.16-.597 0-1.472-.762-1.73-1.504-.102-.285-.242-.52-.32-.52-.075 0-.188-.226-.25-.504-.06-.28-.169-.507-.235-.507s-.219-.38-.34-.844c-.117-.461-.27-.844-.332-.844-.066 0-.2-.281-.3-.629a11 11 0 0 0-.45-1.242l-.266-.61 1.047-1.011c.575-.555 1.707-1.64 2.52-2.414.812-.77 1.476-1.461 1.476-1.535s.43-.547.958-1.051l.957-.914-.208-.691-.203-.688h-2.78c-2.993 0-2.919-.027-2.99.938-.03.425.044.515.532.66.64.187.727 1.433.133 2.023-.152.152-.277.332-.277.395 0 .125-2.004 2.218-2.122 2.218-.039 0-.07-.171-.07-.382s-.101-.536-.23-.715c-.125-.184-.325-.75-.446-1.262-.117-.512-.265-.965-.324-1.012-.062-.047-.195-.347-.305-.675-.105-.325-.32-.95-.476-1.391l-.281-.797h-4.766zm-8.8 1.461c.843.168 1.183.875 1.183 2.46 0 .72-.058 1.31-.129 1.31-.074 0-.23.624-.351 1.39-.117.766-.285 1.414-.371 1.445s-.157.184-.157.34c.004.457-1.32 2.926-1.949 3.625-.32.36-.582.707-.582.774 0 .144-1.316 1.023-1.531 1.023-.086 0-.152.074-.152.168 0 .324-1.66.195-2.012-.16-.817-.813-.938-5.238-.184-6.836.086-.187.238-.66.34-1.055s.246-.715.332-.715c.078 0 .195-.226.258-.507.062-.278.164-.504.226-.504.063 0 .22-.246.352-.543.238-.535.95-1.313 1.203-1.313.074 0 .266-.132.426-.293.559-.562 1.953-.836 3.098-.609m210.218 58.543v3.047h.848l-.043-2.992c-.047-2.957-.05-2.993-.426-3.047l-.379-.055zm16.957-2.754c-.054.145-.101 1.39-.101 2.766 0 2.742.05 3.035.523 3.035.266 0 .32-.125.32-.738 0-.833.399-1.383.583-.805.058.183.214.375.351.426s.246.195.246.316c0 .527.614.762 2.086.785.801.012 1.453-.043 1.453-.129s.153-.191.34-.242c.883-.23.211-2.14-.754-2.14-.144 0-.258-.07-.258-.153s-.191-.195-.421-.254c-.985-.25-.48-.66.671-.554 1.082.101 1.098.097 1.098-.313 0-.297-.094-.414-.328-.414-.18 0-.375-.074-.43-.168-.316-.508-2.039.113-2.215.8-.23.884.149 1.294 1.75 1.9 1.024.386.352.788-1.058.628-.457-.05-.762-.012-.8.102-.036.105-.208-.04-.388-.317a8 8 0 0 0-.609-.82c-.344-.379-.227-.672.527-1.281.285-.23.516-.551.516-.715 0-.535-.637-.324-1.469.488l-.805.785-.05-1.629c-.047-1.617-.426-2.277-.778-1.359m6.641 2.766v3.035h.422c.418 0 .422-.012.422-1.492 0-1.688.238-2.121 1.125-2.02l.476.055.047 1.738.051 1.738.457-.05.457-.055.05-1.598c.055-1.793-.089-2.23-.862-2.617-.575-.285-1.297-.332-1.297-.082 0 .094-.114.168-.25.168-.196 0-.254-.215-.254-.926 0-.879-.024-.93-.422-.93h-.422zm-30.562-2.426c-1.77.957-1.907 5.125-.172 5.125.125 0 .222.074.222.168 0 .3 2.309.207 2.426-.098.254-.656.137-.746-.984-.746-1.926 0-2.868-2.027-1.52-3.277.477-.442.578-.469 2.016-.5.597-.012.851-.086.887-.27.117-.613-1.954-.902-2.875-.402M245.16 162c0 .094-.195.168-.433.168-.352 0-.422.07-.38.379.048.34.15.379.977.379.746 0 .934.058.98.297.048.226-.054.293-.449.293-.277 0-.546.07-.597.152-.055.082-.305.203-.559.266-.8.199-1.11 1.87-.383 2.062.188.05.34.156.34.238 0 .227 1.25.176 1.504-.062.176-.168.238-.168.3 0 .044.117.224.21.4.21.347 0 .503-3.331.18-3.847-.333-.523-1.88-.965-1.88-.535m5.266.137c-.301.144-.547.328-.547.41s-.113.266-.25.402c-.16.164-.254.574-.25 1.13 0 1.237.133 1.589.687 1.835.27.117.489.27.489.34 0 .27 1.812.14 1.922-.137.242-.637.125-.754-.743-.722-1.375.05-2.078-1.22-1.226-2.211.476-.559 2.07-.496 2.07.082 0 .23.063.422.14.422.075 0 .231.5.345 1.113.285 1.558 1.082 2.215 1.308 1.078.059-.281.164-.508.234-.508.075 0 .184-.285.243-.637.175-1.047.375-1.183.511-.355.207 1.226.614 2.004 1.051 2.004.266 0 .383-.102.383-.328 0-.18.062-.368.144-.414.079-.051.239-.66.36-1.36.117-.699.281-1.27.363-1.27.078 0 .145-.238.145-.527 0-.46-.047-.511-.38-.422-.21.055-.429.102-.488.106-.058 0-.16.352-.222.781-.219 1.438-.496 1.668-.684.567-.062-.371-.18-.672-.265-.672s-.153-.153-.153-.34c0-1.168-1.175-.031-1.441 1.39-.16.876-.352.793-.484-.207-.06-.464-.184-.843-.274-.843s-.164-.153-.164-.34c0-.316-.078-.356-.867-.402-.156-.008-.34-.075-.41-.145-.196-.195-.942-.11-1.547.18m8.726-.157c0 .083-.191.2-.422.258-.23.059-.421.211-.421.34s-.09.266-.196.3c-.652.22-.246 2.755.492 3.083.207.09.38.223.38.293s.34.129.757.129c.418 0 .758-.059.758-.13 0-.07.172-.202.379-.292 1.129-.496.836-3.774-.336-3.79-.117-.003-.211-.077-.211-.171s-.266-.168-.59-.168-.59.066-.59.148m4.215.008c0 .098-.265.18-.59.18h-.59v2.105c0 1.997.016 2.11.336 2.11.38 0 .395-.063.344-1.313-.023-.488.035-.98.13-1.093.093-.114.194-.395.226-.63.05-.35.16-.429.703-.472.586-.05.637-.094.59-.508-.055-.46-1.149-.82-1.149-.379m13.653 0c0 .082-.207.2-.461.258-1.23.281-1.391 3.441-.188 3.758.172.043.313.148.313.23s.378.149.843.149c.461 0 .84-.07.84-.156s.137-.2.297-.254c.73-.23 1.027-2.133.477-3.063-.461-.781-2.121-1.5-2.121-.922m4.214.012c0 .094-.265.168-.59.168h-.59v5.922l.38-.05c.324-.048.386-.173.43-.856l.054-.801h.832c.457 0 .832-.074.832-.168s.113-.168.25-.168c.66 0 1.082-1.813.664-2.856-.371-.925-2.262-1.921-2.262-1.191m5.45.148c-1.36.696-1.465 3.899-.125 3.899.132 0 .238.074.238.168 0 .297 1.805.207 1.922-.098.242-.633.125-.746-.723-.71-1.074.046-1.367-.204-1.367-1.165 0-1.183.195-1.398 1.27-1.398.785 0 .921-.047.921-.313 0-.648-1.191-.863-2.136-.383m3.652-.148c0 .094-.082.168-.184.168-.297 0-.988.73-.992 1.043 0 .156-.078.332-.172.39-.21.13-.222 1.044-.011 1.172.086.055.203.32.265.594.059.278.25.54.434.598.18.058.324.176.324.262 0 .085.379.156.844.156s.844-.074.844-.168.101-.168.226-.168c.856 0 1.266-2.555.527-3.29-.793-.784-2.105-1.257-2.105-.757m4.215 0c0 .094-.266.168-.59.168h-.59v4.215h.422c.422 0 .422 0 .422-1.676 0-1.828.129-2.039 1.11-1.793.398.102.41.145.41 1.785 0 1.684 0 1.684.417 1.684.422 0 .422 0 .422-1.676 0-1.828.13-2.039 1.11-1.793.398.102.41.145.41 1.785 0 1.57.02 1.684.336 1.684s.336-.113.336-1.926v-1.93l-.489-.347c-.492-.352-1.367-.477-1.367-.2 0 .282-.746.344-1.125.098-.43-.281-1.234-.332-1.234-.078m-34.305.973c.945.691.598 2.441-.484 2.441-.992 0-1.465-1.207-.844-2.156.27-.41.957-.559 1.328-.285m18.098.125c.172.172.105 1.925-.086 2.113-.305.309-1.262.246-1.516-.098-.875-1.199.582-3.035 1.602-2.015m4.285.41c.195.75.016 1.683-.348 1.816-.16.059-.34.18-.398.274-.067.101-.223.054-.39-.114-.157-.156-.352-.28-.438-.28-.246 0-.196-2.15.054-2.255.668-.281 1.371-.023 1.52.559m9.16.05c.414 1.204-.281 2.137-1.32 1.774-.516-.18-.762-.96-.559-1.77.254-1.003 1.531-1.007 1.88-.003m-45.45 1.289c0 .347-.711.675-1.223.562-.336-.074-.398-.644-.082-.77.563-.226 1.305-.109 1.305.208m37.793.558c-.387.387-.008.977.629.977.289 0 .351-.106.351-.59 0-.633-.527-.84-.98-.387"/></g></svg>