<svg xmlns="http://www.w3.org/2000/svg" xmlns:xlink="http://www.w3.org/1999/xlink" width="1280" zoomAndPan="magnify" viewBox="0 0 960 540.000001" height="720" preserveAspectRatio="xMidYMid meet" version="1.0"><defs><clipPath id="758d9b93f3"><path d="M 0.886719 0 L 959.113281 0 L 959.113281 539 L 0.886719 539 Z M 0.886719 0 " clip-rule="nonzero"/></clipPath></defs><g clip-path="url(#758d9b93f3)"><path fill="#ffffff" d="M 0.886719 0 L 959.113281 0 L 959.113281 539 L 0.886719 539 Z M 0.886719 0 " fill-opacity="1" fill-rule="nonzero"/><path fill="#ffffff" d="M 0.886719 0 L 959.113281 0 L 959.113281 539 L 0.886719 539 Z M 0.886719 0 " fill-opacity="1" fill-rule="nonzero"/></g><path fill="#000000" d="M 216.488281 228.328125 C 223.898438 228.328125 231.308594 228.328125 238.945312 228.328125 C 238.945312 229.808594 238.945312 231.292969 238.945312 232.820312 C 233.015625 232.820312 227.089844 232.820312 220.980469 232.820312 C 220.980469 261.476562 220.980469 290.132812 220.980469 319.65625 C 226.910156 319.65625 232.835938 319.65625 238.945312 319.65625 C 238.945312 321.140625 238.945312 322.621094 238.945312 324.148438 C 231.535156 324.148438 224.125 324.148438 216.488281 324.148438 C 216.488281 292.527344 216.488281 260.90625 216.488281 228.328125 Z M 216.488281 228.328125 " fill-opacity="1" fill-rule="nonzero"/><path fill="#000000" d="M 307.820312 228.328125 C 314.984375 228.328125 322.148438 228.328125 329.527344 228.328125 C 329.527344 259.949219 329.527344 291.570312 329.527344 324.148438 C 322.117188 324.148438 314.707031 324.148438 307.070312 324.148438 C 307.070312 322.667969 307.070312 321.183594 307.070312 319.65625 C 313 319.65625 318.929688 319.65625 325.035156 319.65625 C 325.035156 291 325.035156 262.34375 325.035156 232.820312 C 319.355469 232.820312 313.671875 232.820312 307.820312 232.820312 C 307.820312 231.335938 307.820312 229.855469 307.820312 228.328125 Z M 307.820312 228.328125 " fill-opacity="1" fill-rule="nonzero"/><path fill="#000000" d="M 191.785156 208.863281 C 189.878906 217.117188 187.371094 225.1875 184.90625 233.285156 C 184.082031 235.992188 183.261719 238.703125 182.441406 241.410156 C 182.25 242.03125 182.0625 242.648438 181.867188 243.285156 C 180.90625 246.234375 180.90625 246.234375 180.554688 249.289062 C 180.894531 248.792969 181.234375 248.300781 181.582031 247.792969 C 181.984375 247.296875 182.386719 246.804688 182.800781 246.292969 C 183.292969 246.292969 183.789062 246.292969 184.296875 246.292969 C 183.222656 250.050781 181.460938 251.636719 178.308594 253.78125 C 176.546875 253.683594 175.804688 253.523438 174.566406 252.28125 C 174.460938 250.285156 174.535156 248.296875 174.566406 246.292969 C 174.238281 246.644531 173.914062 247 173.578125 247.359375 C 170.242188 250.847656 167.453125 253.351562 162.539062 254.15625 C 159.5625 253.648438 158.5 252.316406 156.597656 250.035156 C 155.144531 247.128906 155.4375 243.90625 156.363281 240.871094 C 159.296875 233.84375 163.378906 229.019531 170.074219 225.332031 C 172.054688 224.671875 173.277344 224.464844 175.3125 224.445312 C 175.824219 224.433594 176.332031 224.421875 176.859375 224.410156 C 178.308594 224.585938 178.308594 224.585938 180.554688 226.082031 C 181.179688 224.117188 181.804688 222.152344 182.425781 220.1875 C 182.605469 219.628906 182.78125 219.070312 182.96875 218.492188 C 183.945312 215.605469 183.945312 215.605469 184.296875 212.605469 C 182.445312 212.234375 182.445312 212.234375 180.554688 211.859375 C 180.554688 211.363281 180.554688 210.871094 180.554688 210.359375 C 181.582031 210.105469 182.613281 209.855469 183.640625 209.613281 C 184.503906 209.402344 184.503906 209.402344 185.378906 209.191406 C 187.542969 208.820312 189.59375 208.84375 191.785156 208.863281 Z M 166.332031 232.070312 C 162.972656 237.207031 161.046875 241.636719 161.839844 247.792969 C 163.238281 249.484375 163.238281 249.484375 165.441406 249.617188 C 168.664062 249.171875 169.480469 248.003906 171.570312 245.546875 C 171.941406 245.15625 172.3125 244.765625 172.695312 244.367188 C 176.292969 240.5 178.699219 236.324219 179.386719 231.039062 C 179.183594 229.089844 179.183594 229.089844 178.214844 227.671875 C 173.226562 224.679688 169.511719 228.324219 166.332031 232.070312 Z M 166.332031 232.070312 " fill-opacity="1" fill-rule="nonzero"/><path fill="#000000" d="M 179.058594 296.449219 C 178.558594 300.941406 177.40625 305.089844 176.105469 309.410156 C 175.890625 310.132812 175.675781 310.855469 175.457031 311.601562 C 174.773438 313.898438 174.085938 316.191406 173.394531 318.488281 C 172.929688 320.050781 172.464844 321.613281 172 323.175781 C 170.863281 326.996094 169.722656 330.8125 168.578125 334.628906 C 168.824219 334.878906 169.070312 335.125 169.324219 335.378906 C 169.695312 334.636719 169.695312 334.636719 170.074219 333.882812 C 170.816406 334.128906 171.554688 334.375 172.320312 334.628906 C 168.976562 340.003906 168.976562 340.003906 166.332031 341.367188 C 164.273438 341.132812 164.273438 341.132812 162.585938 340.621094 C 162.339844 338.644531 162.09375 336.667969 161.839844 334.628906 C 161.378906 335.054688 160.917969 335.476562 160.445312 335.914062 C 159.839844 336.464844 159.234375 337.011719 158.609375 337.578125 C 158.011719 338.125 157.414062 338.671875 156.792969 339.234375 C 154.621094 341.011719 153.109375 341.339844 150.328125 341.648438 C 147.617188 341.367188 147.617188 341.367188 145.417969 340.058594 C 143.054688 336.335938 143.285156 332.929688 143.871094 328.640625 C 145.453125 323.007812 149.945312 317.871094 154.722656 314.65625 C 158.386719 312.683594 161.351562 311.578125 165.582031 312.171875 C 166.59375 312.644531 167.59375 313.140625 168.578125 313.667969 C 169.082031 311.984375 169.578125 310.300781 170.074219 308.617188 C 170.351562 307.679688 170.628906 306.738281 170.917969 305.773438 C 171.695312 303.148438 171.695312 303.148438 171.570312 300.195312 C 169.71875 299.824219 169.71875 299.824219 167.828125 299.445312 C 167.828125 298.953125 167.828125 298.457031 167.828125 297.949219 C 169.136719 297.695312 170.449219 297.445312 171.757812 297.199219 C 172.488281 297.0625 173.21875 296.921875 173.96875 296.777344 C 176.0625 296.449219 176.0625 296.449219 179.058594 296.449219 Z M 155.796875 317.996094 C 151.867188 322.515625 149.238281 326.953125 148.921875 333.027344 C 149 334.816406 149 334.816406 150.5625 336.59375 C 151.074219 336.933594 151.582031 337.273438 152.105469 337.625 C 157.378906 336.46875 160.300781 333.265625 163.144531 328.871094 C 166.542969 323.019531 166.542969 323.019531 166.707031 316.429688 C 165.570312 314.953125 165.570312 314.953125 163.242188 314.277344 C 159.589844 314.453125 158.351562 315.492188 155.796875 317.996094 Z M 162.585938 332.382812 C 163.335938 333.882812 163.335938 333.882812 163.335938 333.882812 Z M 162.585938 332.382812 " fill-opacity="1" fill-rule="nonzero"/><path fill="#000000" d="M 779.023438 252.09375 C 781.617188 254.371094 782.945312 255.84375 783.453125 259.332031 C 783.847656 266.734375 781.046875 271.621094 776.21875 277.035156 C 775.050781 278.269531 773.882812 279.5 772.707031 280.730469 C 771.566406 282.003906 770.425781 283.28125 769.292969 284.566406 C 768.550781 285.402344 768.550781 285.402344 767.792969 286.257812 C 767.4375 286.65625 767.085938 287.054688 766.71875 287.46875 C 768.902344 287.507812 771.085938 287.539062 773.269531 287.5625 C 774.195312 287.578125 774.195312 287.578125 775.140625 287.597656 C 775.738281 287.605469 776.335938 287.609375 776.953125 287.613281 C 777.777344 287.625 777.777344 287.625 778.617188 287.636719 C 780.449219 287.441406 781.628906 286.9375 783.1875 285.96875 C 783.558594 285.230469 783.558594 285.230469 783.9375 284.472656 C 784.679688 284.71875 785.417969 284.96875 786.183594 285.222656 C 785.195312 287.9375 784.207031 290.65625 783.1875 293.457031 C 774.789062 293.457031 766.390625 293.457031 757.734375 293.457031 C 758.601562 289.988281 760.054688 288.828125 762.648438 286.625 C 769.054688 280.960938 775.566406 274.390625 777.152344 265.664062 C 777.207031 262.394531 776.859375 260.917969 774.953125 258.273438 C 772.535156 256.605469 771.113281 256.011719 768.167969 256.074219 C 764.988281 257.085938 762.9375 258.554688 761.246094 261.453125 C 761.074219 261.886719 760.90625 262.316406 760.730469 262.761719 C 760.238281 262.761719 759.742188 262.761719 759.234375 262.761719 C 759.390625 258.3125 760.105469 255.828125 763.230469 252.59375 C 767.742188 248.75 774.050781 249.5625 779.023438 252.09375 Z M 779.023438 252.09375 " fill-opacity="1" fill-rule="nonzero"/><path fill="#000000" d="M 630.800781 252.09375 C 633.390625 254.371094 634.71875 255.84375 635.226562 259.332031 C 635.621094 266.734375 632.820312 271.621094 627.992188 277.035156 C 626.824219 278.269531 625.65625 279.5 624.484375 280.730469 C 623.339844 282.003906 622.199219 283.28125 621.066406 284.566406 C 620.324219 285.402344 620.324219 285.402344 619.566406 286.257812 C 619.214844 286.65625 618.859375 287.054688 618.492188 287.46875 C 620.675781 287.507812 622.859375 287.539062 625.042969 287.5625 C 625.96875 287.578125 625.96875 287.578125 626.914062 287.597656 C 627.515625 287.605469 628.113281 287.609375 628.730469 287.613281 C 629.550781 287.625 629.550781 287.625 630.390625 287.636719 C 632.222656 287.441406 633.402344 286.9375 634.964844 285.96875 C 635.332031 285.230469 635.332031 285.230469 635.710938 284.472656 C 636.453125 284.71875 637.195312 284.96875 637.957031 285.222656 C 636.96875 287.9375 635.980469 290.65625 634.964844 293.457031 C 626.5625 293.457031 618.164062 293.457031 609.511719 293.457031 C 610.378906 289.988281 611.828125 288.828125 614.421875 286.625 C 620.832031 280.960938 627.339844 274.390625 628.925781 265.664062 C 628.980469 262.394531 628.636719 260.917969 626.730469 258.273438 C 624.308594 256.605469 622.886719 256.011719 619.945312 256.074219 C 616.765625 257.085938 614.710938 258.554688 613.019531 261.453125 C 612.851562 261.886719 612.679688 262.316406 612.503906 262.761719 C 612.011719 262.761719 611.515625 262.761719 611.007812 262.761719 C 611.164062 258.3125 611.878906 255.828125 615.003906 252.59375 C 619.519531 248.75 625.824219 249.5625 630.800781 252.09375 Z M 630.800781 252.09375 " fill-opacity="1" fill-rule="nonzero"/><path fill="#ff0000" d="M 416.695312 252.09375 C 419.289062 254.371094 420.613281 255.84375 421.125 259.332031 C 421.519531 266.734375 418.71875 271.621094 413.886719 277.035156 C 412.722656 278.269531 411.550781 279.5 410.378906 280.730469 C 409.234375 282.003906 408.097656 283.28125 406.964844 284.566406 C 406.222656 285.402344 406.222656 285.402344 405.464844 286.257812 C 405.109375 286.65625 404.753906 287.054688 404.390625 287.46875 C 406.574219 287.507812 408.757812 287.539062 410.941406 287.5625 C 411.867188 287.578125 411.867188 287.578125 412.8125 287.597656 C 413.410156 287.605469 414.007812 287.609375 414.625 287.613281 C 415.449219 287.625 415.449219 287.625 416.289062 287.636719 C 418.121094 287.441406 419.300781 286.9375 420.859375 285.96875 C 421.230469 285.230469 421.230469 285.230469 421.609375 284.472656 C 422.347656 284.71875 423.089844 284.96875 423.855469 285.222656 C 422.867188 287.9375 421.878906 290.65625 420.859375 293.457031 C 412.460938 293.457031 404.0625 293.457031 395.40625 293.457031 C 396.273438 289.988281 397.726562 288.828125 400.320312 286.625 C 406.726562 280.960938 413.238281 274.390625 414.824219 265.664062 C 414.875 262.394531 414.53125 260.917969 412.625 258.273438 C 410.207031 256.605469 408.785156 256.011719 405.839844 256.074219 C 402.660156 257.085938 400.609375 258.554688 398.917969 261.453125 C 398.746094 261.886719 398.578125 262.316406 398.402344 262.761719 C 397.90625 262.761719 397.414062 262.761719 396.902344 262.761719 C 397.058594 258.3125 397.777344 255.828125 400.902344 252.59375 C 405.414062 248.75 411.722656 249.5625 416.695312 252.09375 Z M 416.695312 252.09375 " fill-opacity="1" fill-rule="nonzero"/><path fill="#000000" d="M 186.542969 312.921875 C 187.492188 314.46875 187.492188 314.46875 188.226562 316.335938 C 188.480469 316.953125 188.730469 317.574219 188.988281 318.210938 C 189.167969 318.6875 189.351562 319.164062 189.539062 319.65625 C 190.09375 318.941406 190.09375 318.941406 190.664062 318.210938 C 195.335938 312.527344 195.335938 312.527344 198.425781 312.03125 C 200.765625 312.171875 200.765625 312.171875 202.265625 313.667969 C 201.984375 315.632812 201.984375 315.632812 201.515625 317.414062 C 200.621094 317.304688 199.726562 317.195312 198.800781 317.085938 C 196.808594 317.089844 195.785156 317.246094 194.101562 318.34375 C 192.316406 320.164062 191.136719 321.652344 190.875 324.238281 C 191.046875 326.003906 191.378906 327.660156 191.785156 329.390625 C 192.050781 330.777344 192.3125 332.167969 192.578125 333.554688 C 192.808594 334.664062 193.042969 335.769531 193.28125 336.875 C 195.996094 335.480469 195.996094 335.480469 197.773438 333.132812 C 198.515625 333.132812 199.253906 333.132812 200.019531 333.132812 C 199.125 336.511719 197.285156 338.285156 194.8125 340.589844 C 193.28125 341.367188 193.28125 341.367188 188.789062 340.621094 C 187.800781 337.40625 186.8125 334.195312 185.792969 330.886719 C 185.132812 331.921875 184.46875 332.957031 183.78125 334.023438 C 181.925781 336.78125 180.214844 339.3125 177.558594 341.367188 C 175.175781 341.695312 175.175781 341.695312 173.070312 341.367188 C 172.574219 340.875 172.082031 340.378906 171.570312 339.871094 C 171.851562 337.90625 171.851562 337.90625 172.320312 336.128906 C 174.296875 336.375 176.273438 336.621094 178.308594 336.875 C 182.9375 331.148438 182.9375 331.148438 184.296875 324.148438 C 183.898438 321.679688 183.375 319.550781 182.050781 317.414062 C 180.230469 316.363281 178.941406 316.195312 176.8125 315.914062 C 176.8125 315.175781 176.8125 314.433594 176.8125 313.667969 C 177.871094 313.394531 178.929688 313.132812 179.992188 312.875 C 180.582031 312.726562 181.175781 312.578125 181.78125 312.425781 C 183.710938 312.148438 184.769531 312.109375 186.542969 312.921875 Z M 186.542969 312.921875 " fill-opacity="1" fill-rule="nonzero"/><path fill="#000000" d="M 259.160156 265.757812 C 260.398438 267.917969 261.308594 270.15625 262.152344 272.496094 C 262.453125 272.082031 262.75 271.664062 263.058594 271.238281 C 263.652344 270.425781 263.652344 270.425781 264.257812 269.59375 C 264.648438 269.054688 265.039062 268.515625 265.441406 267.960938 C 266.644531 266.507812 266.644531 266.507812 268.890625 265.007812 C 271.183594 264.820312 271.183594 264.820312 273.382812 265.007812 C 273.875 265.503906 274.371094 265.996094 274.878906 266.507812 C 274.480469 269.152344 274.480469 269.152344 273.382812 270.25 C 272.179688 270.15625 272.179688 270.15625 270.949219 270.0625 C 268.058594 269.988281 268.058594 269.988281 266.035156 271.933594 C 264.09375 274.28125 264.09375 274.28125 262.902344 276.988281 C 263.277344 279.128906 263.714844 281.085938 264.304688 283.164062 C 264.457031 283.722656 264.605469 284.277344 264.757812 284.851562 C 265.128906 286.226562 265.511719 287.597656 265.894531 288.964844 C 266.882812 288.964844 267.871094 288.964844 268.890625 288.964844 C 269.386719 287.976562 269.878906 286.988281 270.386719 285.96875 C 271.128906 286.21875 271.871094 286.464844 272.632812 286.71875 C 271.9375 287.6875 271.234375 288.65625 270.527344 289.621094 C 269.941406 290.425781 269.941406 290.425781 269.34375 291.25 C 268.140625 292.707031 268.140625 292.707031 265.894531 294.207031 C 264.414062 293.957031 262.933594 293.710938 261.40625 293.457031 C 260.417969 290.246094 259.429688 287.035156 258.410156 283.722656 C 257.484375 285.035156 256.558594 286.347656 255.601562 287.703125 C 253.761719 290.308594 252.171875 292.523438 249.425781 294.207031 C 247.460938 294.4375 247.460938 294.4375 245.683594 294.207031 C 245.191406 293.710938 244.695312 293.21875 244.1875 292.707031 C 244.46875 290.742188 244.46875 290.742188 244.933594 288.964844 C 247.25 288.21875 248.605469 288.308594 250.925781 288.964844 C 251.792969 287.816406 252.648438 286.664062 253.496094 285.503906 C 253.976562 284.859375 254.453125 284.21875 254.945312 283.554688 C 256.601562 280.734375 257.09375 278.398438 256.679688 275.152344 C 255.707031 271.777344 255.707031 271.777344 253.347656 269.320312 C 251.761719 268.609375 251.761719 268.609375 249.425781 268.003906 C 249.425781 267.507812 249.425781 267.015625 249.425781 266.507812 C 256.640625 264.429688 256.640625 264.429688 259.160156 265.757812 Z M 259.160156 265.757812 " fill-opacity="1" fill-rule="nonzero"/><path fill="#000000" d="M 804.148438 265.757812 C 806.097656 268.242188 806.394531 269.269531 806.394531 272.496094 C 806.921875 271.953125 807.445312 271.414062 807.988281 270.859375 C 808.699219 270.152344 809.417969 269.453125 810.136719 268.753906 C 810.5 268.394531 810.859375 268.039062 811.230469 267.671875 C 813.222656 265.832031 814.386719 265.035156 817.109375 264.730469 C 819.121094 265.007812 819.121094 265.007812 819.871094 265.757812 C 819.964844 267.628906 819.964844 267.628906 819.871094 269.5 C 819.625 269.746094 819.375 269.996094 819.121094 270.25 C 817.753906 270.109375 817.753906 270.109375 816.363281 269.96875 C 814.355469 269.945312 813.390625 270.078125 811.710938 271.203125 C 809.394531 273.609375 808.640625 274.886719 808.640625 278.296875 C 808.875 279.363281 809.125 280.421875 809.390625 281.480469 C 809.660156 282.976562 809.925781 284.472656 810.183594 285.96875 C 810.417969 287.21875 810.652344 288.464844 810.886719 289.714844 C 813.601562 288.316406 813.601562 288.316406 815.378906 285.96875 C 816.121094 285.96875 816.859375 285.96875 817.625 285.96875 C 816.605469 289.824219 814.199219 292.152344 810.886719 294.207031 C 808.828125 294.4375 808.828125 294.4375 807.144531 293.457031 C 805.878906 291.023438 805.878906 291.023438 804.898438 288.214844 C 804.402344 286.964844 803.90625 285.71875 803.402344 284.472656 C 803.066406 284.925781 802.730469 285.375 802.386719 285.839844 C 797.28125 292.589844 797.28125 292.589844 794.417969 294.207031 C 791.9375 294.019531 791.9375 294.019531 789.925781 293.457031 C 789.410156 292.101562 789.410156 292.101562 789.175781 290.460938 C 789.925781 289.105469 789.925781 289.105469 791.421875 288.214844 C 793.175781 288.421875 794.925781 288.667969 796.664062 288.964844 C 801.160156 283.832031 801.160156 283.832031 802.578125 277.4375 C 801.851562 274.640625 800.949219 272.082031 799.65625 269.5 C 797.925781 268.953125 796.179688 268.453125 794.417969 268.003906 C 794.417969 267.507812 794.417969 267.015625 794.417969 266.507812 C 801.28125 264.527344 801.28125 264.527344 804.148438 265.757812 Z M 804.148438 265.757812 " fill-opacity="1" fill-rule="nonzero"/><path fill="#000000" d="M 655.925781 265.757812 C 657.871094 268.242188 658.171875 269.269531 658.171875 272.496094 C 658.695312 271.953125 659.21875 271.414062 659.761719 270.859375 C 660.476562 270.152344 661.191406 269.453125 661.914062 268.753906 C 662.273438 268.394531 662.632812 268.039062 663.003906 267.671875 C 664.996094 265.832031 666.160156 265.035156 668.882812 264.730469 C 670.894531 265.007812 670.894531 265.007812 671.644531 265.757812 C 671.738281 267.628906 671.738281 267.628906 671.644531 269.5 C 671.398438 269.746094 671.152344 269.996094 670.894531 270.25 C 669.53125 270.109375 669.53125 270.109375 668.136719 269.96875 C 666.132812 269.945312 665.164062 270.078125 663.488281 271.203125 C 661.167969 273.609375 660.414062 274.886719 660.414062 278.296875 C 660.648438 279.363281 660.898438 280.421875 661.164062 281.480469 C 661.4375 282.976562 661.699219 284.472656 661.960938 285.96875 C 662.191406 287.21875 662.425781 288.464844 662.660156 289.714844 C 665.378906 288.316406 665.378906 288.316406 667.152344 285.96875 C 667.894531 285.96875 668.636719 285.96875 669.398438 285.96875 C 668.378906 289.824219 665.976562 292.152344 662.660156 294.207031 C 660.601562 294.4375 660.601562 294.4375 658.917969 293.457031 C 657.65625 291.023438 657.65625 291.023438 656.671875 288.214844 C 656.179688 286.964844 655.679688 285.71875 655.175781 284.472656 C 654.839844 284.925781 654.503906 285.375 654.160156 285.839844 C 649.054688 292.589844 649.054688 292.589844 646.191406 294.207031 C 643.710938 294.019531 643.710938 294.019531 641.699219 293.457031 C 641.1875 292.101562 641.1875 292.101562 640.953125 290.460938 C 641.699219 289.105469 641.699219 289.105469 643.199219 288.214844 C 644.949219 288.421875 646.699219 288.667969 648.4375 288.964844 C 652.9375 283.832031 652.9375 283.832031 654.351562 277.4375 C 653.625 274.640625 652.722656 272.082031 651.433594 269.5 C 649.699219 268.953125 647.953125 268.453125 646.191406 268.003906 C 646.191406 267.507812 646.191406 267.015625 646.191406 266.507812 C 653.054688 264.527344 653.054688 264.527344 655.925781 265.757812 Z M 655.925781 265.757812 " fill-opacity="1" fill-rule="nonzero"/><path fill="#000000" d="M 441.820312 265.757812 C 443.769531 268.242188 444.066406 269.269531 444.066406 272.496094 C 444.589844 271.953125 445.117188 271.414062 445.65625 270.859375 C 446.371094 270.152344 447.089844 269.453125 447.808594 268.753906 C 448.167969 268.394531 448.53125 268.039062 448.898438 267.671875 C 450.890625 265.832031 452.058594 265.035156 454.78125 264.730469 C 456.792969 265.007812 456.792969 265.007812 457.542969 265.757812 C 457.636719 267.628906 457.636719 267.628906 457.542969 269.5 C 457.292969 269.746094 457.046875 269.996094 456.792969 270.25 C 455.425781 270.109375 455.425781 270.109375 454.03125 269.96875 C 452.027344 269.945312 451.0625 270.078125 449.382812 271.203125 C 447.0625 273.609375 446.3125 274.886719 446.3125 278.296875 C 446.546875 279.363281 446.796875 280.421875 447.0625 281.480469 C 447.332031 282.976562 447.597656 284.472656 447.855469 285.96875 C 448.089844 287.21875 448.320312 288.464844 448.558594 289.714844 C 451.273438 288.316406 451.273438 288.316406 453.050781 285.96875 C 453.792969 285.96875 454.53125 285.96875 455.296875 285.96875 C 454.277344 289.824219 451.871094 292.152344 448.558594 294.207031 C 446.5 294.4375 446.5 294.4375 444.816406 293.457031 C 443.550781 291.023438 443.550781 291.023438 442.570312 288.214844 C 442.074219 286.964844 441.578125 285.71875 441.070312 284.472656 C 440.738281 284.925781 440.402344 285.375 440.058594 285.839844 C 434.953125 292.589844 434.953125 292.589844 432.089844 294.207031 C 429.609375 294.019531 429.609375 294.019531 427.597656 293.457031 C 427.082031 292.101562 427.082031 292.101562 426.847656 290.460938 C 427.597656 289.105469 427.597656 289.105469 429.09375 288.214844 C 430.847656 288.421875 432.59375 288.667969 434.335938 288.964844 C 438.832031 283.832031 438.832031 283.832031 440.246094 277.4375 C 439.523438 274.640625 438.621094 272.082031 437.328125 269.5 C 435.597656 268.953125 433.847656 268.453125 432.089844 268.003906 C 432.089844 267.507812 432.089844 267.015625 432.089844 266.507812 C 438.953125 264.527344 438.953125 264.527344 441.820312 265.757812 Z M 441.820312 265.757812 " fill-opacity="1" fill-rule="nonzero"/><path fill="#000000" d="M 137.136719 273.992188 C 160.109375 273.992188 183.085938 273.992188 206.757812 273.992188 C 206.757812 275.226562 206.757812 276.464844 206.757812 277.734375 C 183.78125 277.734375 160.804688 277.734375 137.136719 277.734375 C 137.136719 276.5 137.136719 275.265625 137.136719 273.992188 Z M 137.136719 273.992188 " fill-opacity="1" fill-rule="nonzero"/><path fill="#000000" d="M 528.660156 223.085938 C 532.996094 224.875 535.125 228.925781 536.90625 233.105469 C 540.980469 244.894531 540.359375 258.625 535.070312 269.875 C 533.734375 272.378906 532.457031 274.496094 530.15625 276.238281 C 529.664062 276.238281 529.167969 276.238281 528.660156 276.238281 C 528.988281 274.089844 529.566406 273.023438 530.859375 271.222656 C 536.722656 261.839844 535.738281 245.988281 533.679688 235.507812 C 532.664062 231.769531 531.429688 228.105469 528.660156 225.332031 C 528.660156 224.589844 528.660156 223.851562 528.660156 223.085938 Z M 528.660156 223.085938 " fill-opacity="1" fill-rule="nonzero"/><path fill="#000000" d="M 471.015625 223.085938 C 471.261719 223.828125 471.511719 224.570312 471.765625 225.332031 C 471.070312 226.652344 471.070312 226.652344 470.035156 228.09375 C 463.359375 238.261719 465.203125 253.613281 467.273438 265.007812 C 468.285156 268.386719 469.246094 271.472656 471.765625 273.992188 C 471.519531 274.734375 471.269531 275.476562 471.015625 276.238281 C 463.605469 268.785156 461.296875 260.183594 461.050781 249.851562 C 461.203125 241.007812 462.742188 232.625 468.023438 225.332031 C 469.664062 223.984375 469.664062 223.984375 471.015625 223.085938 Z M 471.015625 223.085938 " fill-opacity="1" fill-rule="nonzero"/><path fill="#ff0000" d="M 485.988281 235.066406 C 488.234375 236.5625 488.234375 236.5625 489.730469 238.808594 C 490.277344 242.632812 489.222656 245.566406 486.972656 248.632812 C 486.160156 249.613281 485.332031 250.578125 484.492188 251.535156 C 483.851562 252.296875 483.851562 252.296875 483.195312 253.074219 C 482.144531 254.316406 481.074219 255.546875 480 256.773438 C 481.449219 256.542969 482.902344 256.308594 484.351562 256.074219 C 485.160156 255.941406 485.964844 255.8125 486.800781 255.679688 C 489.019531 255.324219 489.019531 255.324219 491.230469 254.527344 C 490.734375 256.257812 490.242188 257.988281 489.730469 259.769531 C 484.792969 259.769531 479.851562 259.769531 474.757812 259.769531 C 476.058594 257.171875 476.714844 256.1875 478.738281 254.339844 C 482.074219 251.078125 484.941406 247.800781 485.566406 243.066406 C 485.355469 240.890625 485.355469 240.890625 483.742188 238.808594 C 480.765625 238.34375 479.59375 238.570312 477.097656 240.304688 C 476.574219 240.800781 476.050781 241.292969 475.507812 241.800781 C 475.964844 237.695312 475.964844 237.695312 477.285156 235.953125 C 480.191406 233.828125 482.644531 234.257812 485.988281 235.066406 Z M 485.988281 235.066406 " fill-opacity="1" fill-rule="nonzero"/><path fill="#000000" d="M 289.851562 240.304688 C 292.648438 241.792969 293.40625 242.71875 294.390625 245.734375 C 294.28125 252.382812 289.742188 256.671875 285.359375 261.265625 C 286.546875 261.285156 287.730469 261.300781 288.917969 261.3125 C 289.578125 261.320312 290.238281 261.332031 290.917969 261.339844 C 292.683594 261.273438 294.152344 261.019531 295.839844 260.515625 C 295.347656 262 294.851562 263.480469 294.34375 265.007812 C 289.402344 265.007812 284.460938 265.007812 279.371094 265.007812 C 280.738281 262.273438 281.597656 261.191406 283.769531 259.207031 C 286.566406 256.46875 288.742188 253.84375 289.851562 250.035156 C 289.746094 247.175781 289.632812 246.078125 287.605469 244.046875 C 285.363281 244.058594 285.363281 244.058594 283.113281 244.796875 C 281.800781 246.277344 281.800781 246.277344 280.867188 247.792969 C 280.375 247.792969 279.878906 247.792969 279.371094 247.792969 C 280.441406 243.058594 280.441406 243.058594 282.085938 241.101562 C 284.683594 239.9375 287.089844 239.824219 289.851562 240.304688 Z M 289.851562 240.304688 " fill-opacity="1" fill-rule="nonzero"/><path fill="#000000" d="M 707.578125 280.730469 C 718.449219 280.730469 729.316406 280.730469 740.515625 280.730469 C 740.515625 281.964844 740.515625 283.199219 740.515625 284.472656 C 729.648438 284.472656 718.777344 284.472656 707.578125 284.472656 C 707.578125 283.238281 707.578125 282.003906 707.578125 280.730469 Z M 707.578125 280.730469 " fill-opacity="1" fill-rule="nonzero"/><path fill="#000000" d="M 559.351562 280.730469 C 570.222656 280.730469 581.09375 280.730469 592.292969 280.730469 C 592.292969 281.964844 592.292969 283.199219 592.292969 284.472656 C 581.421875 284.472656 570.550781 284.472656 559.351562 284.472656 C 559.351562 283.238281 559.351562 282.003906 559.351562 280.730469 Z M 559.351562 280.730469 " fill-opacity="1" fill-rule="nonzero"/><path fill="#000000" d="M 345.25 280.730469 C 356.121094 280.730469 366.988281 280.730469 378.1875 280.730469 C 378.1875 281.964844 378.1875 283.199219 378.1875 284.472656 C 367.320312 284.472656 356.449219 284.472656 345.25 284.472656 C 345.25 283.238281 345.25 282.003906 345.25 280.730469 Z M 345.25 280.730469 " fill-opacity="1" fill-rule="nonzero"/><path fill="#000000" d="M 707.578125 269.5 C 718.449219 269.5 729.316406 269.5 740.515625 269.5 C 740.515625 270.734375 740.515625 271.972656 740.515625 273.242188 C 729.648438 273.242188 718.777344 273.242188 707.578125 273.242188 C 707.578125 272.007812 707.578125 270.773438 707.578125 269.5 Z M 707.578125 269.5 " fill-opacity="1" fill-rule="nonzero"/><path fill="#000000" d="M 559.351562 269.5 C 570.222656 269.5 581.09375 269.5 592.292969 269.5 C 592.292969 270.734375 592.292969 271.972656 592.292969 273.242188 C 581.421875 273.242188 570.550781 273.242188 559.351562 273.242188 C 559.351562 272.007812 559.351562 270.773438 559.351562 269.5 Z M 559.351562 269.5 " fill-opacity="1" fill-rule="nonzero"/><path fill="#000000" d="M 345.25 269.5 C 356.121094 269.5 366.988281 269.5 378.1875 269.5 C 378.1875 270.734375 378.1875 271.972656 378.1875 273.242188 C 367.320312 273.242188 356.449219 273.242188 345.25 273.242188 C 345.25 272.007812 345.25 270.773438 345.25 269.5 Z M 345.25 269.5 " fill-opacity="1" fill-rule="nonzero"/><path fill="#000000" d="M 683.621094 240.304688 C 683.632812 241 683.644531 241.695312 683.65625 242.410156 C 683.703125 244.988281 683.757812 247.5625 683.820312 250.136719 C 683.84375 251.253906 683.867188 252.367188 683.882812 253.484375 C 683.90625 255.085938 683.945312 256.6875 683.988281 258.289062 C 684.007812 259.253906 684.027344 260.21875 684.046875 261.210938 C 684.15625 261.972656 684.261719 262.730469 684.371094 263.511719 C 685.113281 264.007812 685.855469 264.5 686.617188 265.007812 C 683.40625 265.007812 680.195312 265.007812 676.886719 265.007812 C 677.625 264.515625 678.367188 264.019531 679.132812 263.511719 C 679.445312 261.480469 679.445312 261.480469 679.351562 259.109375 C 679.34375 258.234375 679.335938 257.363281 679.328125 256.460938 C 679.308594 255.546875 679.289062 254.628906 679.273438 253.6875 C 679.261719 252.765625 679.25 251.84375 679.242188 250.894531 C 679.214844 248.613281 679.175781 246.328125 679.132812 244.046875 C 678.390625 244.046875 677.648438 244.046875 676.886719 244.046875 C 676.886719 243.554688 676.886719 243.058594 676.886719 242.550781 C 681.097656 240.304688 681.097656 240.304688 683.621094 240.304688 Z M 683.621094 240.304688 " fill-opacity="1" fill-rule="nonzero"/><path fill="#0000ff" d="M 522.671875 234.316406 C 522.917969 242.222656 523.164062 250.125 523.417969 258.273438 C 524.160156 258.273438 524.902344 258.273438 525.664062 258.273438 C 525.664062 258.765625 525.664062 259.261719 525.664062 259.769531 C 522.699219 259.769531 519.738281 259.769531 516.683594 259.769531 C 516.683594 259.273438 516.683594 258.78125 516.683594 258.273438 C 517.421875 258.273438 518.164062 258.273438 518.929688 258.273438 C 518.929688 251.601562 518.929688 244.929688 518.929688 238.058594 C 517.941406 238.304688 516.953125 238.554688 515.933594 238.808594 C 516.179688 238.066406 516.425781 237.324219 516.683594 236.5625 C 521.339844 234.316406 521.339844 234.316406 522.671875 234.316406 Z M 522.671875 234.316406 " fill-opacity="1" fill-rule="nonzero"/><path fill="#0000ff" d="M 492.726562 248.539062 C 499.398438 248.539062 506.066406 248.539062 512.9375 248.539062 C 512.9375 249.527344 512.9375 250.515625 512.9375 251.535156 C 506.269531 251.535156 499.597656 251.535156 492.726562 251.535156 C 492.726562 250.546875 492.726562 249.558594 492.726562 248.539062 Z M 492.726562 248.539062 " fill-opacity="1" fill-rule="nonzero"/></svg>