<svg xmlns="http://www.w3.org/2000/svg" width="1280" height="720" version="1.0" viewBox="0 0 960 540"><defs><clipPath id="a"><path d="M.887 0h958.226v539H.887Zm0 0"/></clipPath></defs><g fill="#fff" clip-path="url(#a)"><path d="M.887 0h958.226v539H.887Zm0 0"/><path d="M.887 0h958.226v539H.887Zm0 0"/></g><path d="M216.488 228.328h22.457v4.492H220.98v86.836h17.965v4.492h-22.457zm91.332 0h21.707v95.82H307.07v-4.492h17.965V232.82H307.82zm-116.035-19.465c-1.906 8.254-4.414 16.325-6.879 24.422-.824 2.707-1.644 5.418-2.465 8.125l-.574 1.875c-.96 2.95-.96 2.95-1.312 6.004.34-.496.68-.988 1.027-1.496.402-.496.805-.988 1.219-1.5h1.496c-1.074 3.758-2.836 5.344-5.988 7.488-1.762-.097-2.504-.258-3.743-1.5-.105-1.996-.03-3.984 0-5.988-.328.352-.652.707-.988 1.066-3.336 3.489-6.125 5.993-11.039 6.797-2.976-.508-4.039-1.84-5.941-4.12-1.453-2.907-1.16-6.13-.235-9.165 2.934-7.027 7.016-11.851 13.711-15.539 1.98-.66 3.203-.867 5.238-.887l1.547-.035c1.45.176 1.45.176 3.696 1.672q.939-2.948 1.87-5.894c.18-.56.356-1.118.544-1.696.976-2.887.976-2.887 1.328-5.887l-3.742-.746v-1.5q1.542-.382 3.086-.746l1.738-.422c2.164-.37 4.215-.347 6.406-.328m-25.453 23.207c-3.36 5.137-5.285 9.567-4.492 15.723 1.398 1.691 1.398 1.691 3.601 1.824 3.223-.445 4.04-1.613 6.13-4.07.37-.39.742-.781 1.124-1.18 3.598-3.867 6.004-8.043 6.692-13.328-.203-1.95-.203-1.95-1.172-3.367-4.988-2.992-8.703.652-11.883 4.398m12.727 64.38c-.5 4.491-1.653 8.64-2.954 12.96-.214.723-.43 1.445-.648 2.192q-1.026 3.443-2.062 6.886L172 323.176q-1.705 5.73-3.422 11.453c.246.25.492.496.746.75l.75-1.496 2.246.746c-3.343 5.375-3.343 5.375-5.988 6.738-2.059-.234-2.059-.234-3.746-.746l-.746-5.992-1.395 1.285c-.605.55-1.21 1.098-1.836 1.664-.597.547-1.195 1.094-1.816 1.656-2.172 1.778-3.684 2.106-6.465 2.414-2.71-.28-2.71-.28-4.91-1.59-2.363-3.722-2.133-7.128-1.547-11.417 1.582-5.633 6.074-10.77 10.852-13.985 3.664-1.972 6.629-3.078 10.859-2.484 1.012.473 2.012.969 2.996 1.496q.754-2.526 1.496-5.05c.278-.938.555-1.88.844-2.845.777-2.625.777-2.625.652-5.578l-3.742-.75v-1.496q1.965-.381 3.93-.75c.73-.137 1.46-.277 2.21-.422 2.095-.328 2.095-.328 5.09-.328m-23.262 21.546c-3.93 4.52-6.559 8.957-6.875 15.031.078 1.79.078 1.79 1.64 3.567.512.34 1.02.68 1.543 1.031 5.274-1.156 8.196-4.36 11.04-8.754 3.398-5.851 3.398-5.851 3.562-12.441-1.137-1.477-1.137-1.477-3.465-2.153-3.652.176-4.89 1.215-7.445 3.72m6.789 14.387.75 1.5Zm616.438-80.289c2.594 2.277 3.922 3.75 4.43 7.238.395 7.402-2.406 12.29-7.234 17.703a1037 1037 0 0 1-3.512 3.695 645 645 0 0 0-3.414 3.836l-1.5 1.692c-.356.398-.707.797-1.074 1.21q3.275.06 6.55.094c.926.016.926.016 1.872.036.597.007 1.195.011 1.812.015l1.664.024c1.832-.196 3.012-.7 4.57-1.668.372-.739.372-.739.75-1.496.743.246 1.481.496 2.247.75-.989 2.714-1.977 5.433-2.996 8.234h-25.454c.868-3.469 2.32-4.629 4.914-6.832 6.407-5.664 12.918-12.234 14.504-20.96.055-3.27-.293-4.747-2.199-7.392-2.418-1.668-3.84-2.261-6.785-2.199-3.18 1.012-5.23 2.48-6.922 5.38-.172.433-.34.862-.516 1.308h-1.496c.157-4.45.871-6.934 3.996-10.168 4.512-3.844 10.82-3.031 15.793-.5m-148.223 0c2.59 2.277 3.919 3.75 4.427 7.238.394 7.402-2.407 12.29-7.235 17.703a1567 1567 0 0 1-3.508 3.695 532 532 0 0 0-3.418 3.836l-1.5 1.692c-.351.398-.707.797-1.074 1.21q3.275.06 6.551.094c.926.016.926.016 1.871.036.602.007 1.2.011 1.816.015l1.66.024c1.833-.196 3.012-.7 4.575-1.668.367-.739.367-.739.746-1.496.742.246 1.484.496 2.246.75a5900 5900 0 0 0-2.992 8.234h-25.453c.867-3.469 2.316-4.629 4.91-6.832 6.41-5.664 12.918-12.234 14.504-20.96.054-3.27-.29-4.747-2.196-7.392-2.421-1.668-3.843-2.261-6.785-2.199-3.18 1.012-5.234 2.48-6.925 5.38-.168.433-.34.862-.516 1.308h-1.496c.156-4.45.87-6.934 3.996-10.168 4.516-3.844 10.82-3.031 15.797-.5m0 0"/><path fill="red" d="M416.695 252.094c2.594 2.277 3.918 3.75 4.43 7.238.395 7.402-2.406 12.29-7.238 17.703-1.164 1.235-2.336 2.465-3.508 3.695a531 531 0 0 0-3.414 3.836l-1.5 1.692c-.356.398-.711.797-1.074 1.21q3.275.06 6.55.094c.926.016.926.016 1.872.036.597.007 1.195.011 1.812.015l1.664.024c1.832-.196 3.012-.7 4.57-1.668l.75-1.496c.739.246 1.48.496 2.246.75l-2.996 8.234h-25.453c.867-3.469 2.32-4.629 4.914-6.832 6.407-5.664 12.918-12.234 14.504-20.96.051-3.27-.293-4.747-2.199-7.392-2.418-1.668-3.84-2.261-6.785-2.199-3.18 1.012-5.23 2.48-6.922 5.38-.172.433-.34.862-.516 1.308h-1.5c.157-4.45.875-6.934 4-10.168 4.512-3.844 10.82-3.031 15.793-.5m0 0"/><path d="M186.543 312.922c.95 1.547.95 1.547 1.684 3.414.253.617.503 1.238.761 1.875.18.476.364.953.551 1.445.555-.715.555-.715 1.125-1.445 4.672-5.684 4.672-5.684 7.762-6.18 2.34.14 2.34.14 3.84 1.637-.282 1.965-.282 1.965-.75 3.746-.895-.11-1.79-.219-2.715-.328-1.992.004-3.016.16-4.7 1.258-1.785 1.82-2.964 3.308-3.226 5.894.172 1.766.504 3.422.91 5.153.266 1.386.528 2.777.793 4.164q.345 1.664.703 3.32c2.715-1.395 2.715-1.395 4.492-3.742h2.247c-.895 3.379-2.735 5.152-5.208 7.457-1.53.777-1.53.777-6.023.031-.988-3.215-1.976-6.426-2.996-9.734a753 753 0 0 1-2.012 3.136c-1.855 2.758-3.566 5.29-6.222 7.344-2.383.328-2.383.328-4.489 0-.496-.492-.988-.988-1.5-1.496.282-1.965.282-1.965.75-3.742l5.989.746c4.629-5.727 4.629-5.727 5.988-12.727-.399-2.468-.922-4.597-2.246-6.734-1.82-1.05-3.11-1.219-5.238-1.5v-2.246q1.586-.408 3.18-.793l1.788-.45c1.93-.277 2.989-.316 4.762.497m72.617-47.164c1.238 2.16 2.149 4.398 2.992 6.738.301-.414.598-.832.907-1.258l1.199-1.644 1.183-1.633c1.204-1.453 1.204-1.453 3.45-2.953 2.293-.188 2.293-.188 4.492 0 .492.496.988.988 1.496 1.5-.399 2.644-.399 2.644-1.496 3.742-1.203-.094-1.203-.094-2.434-.187-2.89-.075-2.89-.075-4.914 1.87-1.941 2.348-1.941 2.348-3.133 5.055.375 2.14.813 4.098 1.403 6.176a414 414 0 0 0 1.59 5.801h2.996c.496-.988.988-1.977 1.496-2.996.742.25 1.484.496 2.246.75q-1.044 1.454-2.106 2.902c-.586.805-.586.805-1.183 1.629-1.203 1.457-1.203 1.457-3.45 2.957-1.48-.25-2.96-.496-4.488-.75l-2.996-9.734-2.808 3.98c-1.84 2.606-3.43 4.82-6.176 6.504-1.965.23-1.965.23-3.742 0-.493-.496-.989-.988-1.496-1.5.28-1.965.28-1.965.746-3.742 2.316-.746 3.671-.656 5.992 0a273 273 0 0 0 2.57-3.461c.48-.645.957-1.285 1.45-1.95 1.656-2.82 2.148-5.156 1.734-8.402-.973-3.375-.973-3.375-3.332-5.832-1.586-.71-1.586-.71-3.922-1.316v-1.496c7.215-2.078 7.215-2.078 9.734-.75m544.988 0c1.95 2.484 2.247 3.512 2.247 6.738.527-.543 1.05-1.082 1.593-1.637q1.068-1.058 2.149-2.105l1.093-1.082c1.993-1.84 3.157-2.637 5.88-2.942 2.011.278 2.011.278 2.761 1.028.094 1.87.094 1.87 0 3.742l-.75.75-2.758-.281c-2.008-.024-2.972.11-4.652 1.234-2.316 2.406-3.07 3.684-3.07 7.094q.351 1.597.75 3.183.405 2.245.793 4.489l.703 3.746c2.715-1.399 2.715-1.399 4.492-3.746h2.246c-1.02 3.855-3.426 6.183-6.738 8.238-2.059.23-2.059.23-3.742-.75-1.266-2.434-1.266-2.434-2.247-5.242a622 622 0 0 0-1.496-3.742c-.336.453-.672.902-1.015 1.367-5.106 6.75-5.106 6.75-7.969 8.367-2.48-.187-2.48-.187-4.492-.75-.516-1.355-.516-1.355-.75-2.996.75-1.356.75-1.356 2.246-2.246 1.754.207 3.504.453 5.242.75 4.496-5.133 4.496-5.133 5.914-11.527-.726-2.797-1.629-5.356-2.922-7.938a97 97 0 0 0-5.238-1.496v-1.496c6.863-1.98 6.863-1.98 9.73-.75m-148.222 0c1.945 2.484 2.246 3.512 2.246 6.738.523-.543 1.047-1.082 1.59-1.637q1.07-1.058 2.152-2.105c.36-.36.719-.715 1.09-1.082 1.992-1.84 3.156-2.637 5.879-2.942 2.012.278 2.012.278 2.762 1.028.093 1.87.093 1.87 0 3.742-.247.246-.493.496-.75.75-1.364-.14-1.364-.14-2.758-.281-2.004-.024-2.973.11-4.649 1.234-2.32 2.406-3.074 3.684-3.074 7.094q.351 1.597.75 3.183c.274 1.497.535 2.993.797 4.489.23 1.25.465 2.496.7 3.746 2.718-1.399 2.718-1.399 4.491-3.746h2.246c-1.02 3.855-3.421 6.183-6.738 8.238-2.058.23-2.058.23-3.742-.75-1.262-2.434-1.262-2.434-2.246-5.242q-.739-1.874-1.496-3.742c-.336.453-.672.902-1.016 1.367-5.105 6.75-5.105 6.75-7.969 8.367-2.48-.187-2.48-.187-4.492-.75-.511-1.355-.511-1.355-.746-2.996.746-1.356.746-1.356 2.246-2.246 1.75.207 3.5.453 5.239.75 4.5-5.133 4.5-5.133 5.914-11.527-.727-2.797-1.63-5.356-2.918-7.938a98 98 0 0 0-5.243-1.496v-1.496c6.864-1.98 6.864-1.98 9.735-.75m-214.106 0c1.95 2.484 2.246 3.512 2.246 6.738.524-.543 1.051-1.082 1.59-1.637q1.074-1.058 2.153-2.105c.359-.36.722-.715 1.09-1.082 1.992-1.84 3.16-2.637 5.882-2.942 2.012.278 2.012.278 2.762 1.028.094 1.87.094 1.87 0 3.742-.25.246-.496.496-.75.75l-2.762-.281c-2.004-.024-2.969.11-4.648 1.234-2.32 2.406-3.07 3.684-3.07 7.094q.351 1.597.75 3.183.405 2.245.792 4.489c.235 1.25.465 2.496.704 3.746 2.714-1.399 2.714-1.399 4.492-3.746h2.246c-1.02 3.855-3.426 6.183-6.738 8.238-2.059.23-2.059.23-3.743-.75-1.265-2.434-1.265-2.434-2.246-5.242a439 439 0 0 0-1.5-3.742c-.332.453-.668.902-1.011 1.367-5.106 6.75-5.106 6.75-7.97 8.367-2.48-.187-2.48-.187-4.491-.75-.516-1.355-.516-1.355-.75-2.996.75-1.356.75-1.356 2.246-2.246 1.754.207 3.5.453 5.242.75 4.496-5.133 4.496-5.133 5.91-11.527-.723-2.797-1.625-5.356-2.918-7.938a98 98 0 0 0-5.238-1.496v-1.496c6.863-1.98 6.863-1.98 9.73-.75m-304.683 8.234h69.62v3.742h-69.62zm391.523-50.906c4.336 1.789 6.465 5.84 8.246 10.02 4.074 11.789 3.453 25.519-1.836 36.769-1.336 2.504-2.613 4.621-4.914 6.363h-1.496c.328-2.148.906-3.215 2.2-5.015 5.863-9.383 4.878-25.235 2.82-35.715-1.016-3.738-2.25-7.403-5.02-10.176zm-57.644 0c.246.742.496 1.484.75 2.246-.696 1.32-.696 1.32-1.73 2.762-6.677 10.168-4.833 25.52-2.763 36.914 1.012 3.379 1.973 6.465 4.493 8.984-.246.742-.496 1.485-.75 2.246-7.41-7.453-9.72-16.054-9.965-26.386.152-8.844 1.691-17.227 6.972-24.52 1.641-1.348 1.641-1.348 2.993-2.246m0 0"/><path fill="red" d="M485.988 235.066c2.246 1.496 2.246 1.496 3.742 3.743.547 3.824-.507 6.757-2.757 9.824q-1.22 1.468-2.48 2.902l-1.298 1.54a285 285 0 0 1-3.195 3.698q2.176-.346 4.352-.699c.808-.133 1.613-.262 2.449-.394 2.219-.356 2.219-.356 4.43-1.153-.497 1.73-.989 3.461-1.5 5.243h-14.973c1.3-2.598 1.957-3.582 3.98-5.43 3.336-3.262 6.203-6.54 6.828-11.274-.21-2.175-.21-2.175-1.824-4.257-2.976-.465-4.148-.239-6.644 1.496-.524.496-1.047.988-1.59 1.496.457-4.106.457-4.106 1.777-5.848 2.906-2.125 5.36-1.695 8.703-.887m0 0"/><path d="M289.852 240.305c2.796 1.488 3.554 2.414 4.539 5.43-.11 6.648-4.649 10.937-9.032 15.53 1.188.02 2.371.036 3.559.048.66.007 1.32.019 2 .027 1.766-.067 3.234-.32 4.922-.824-.492 1.484-.988 2.964-1.496 4.492H279.37c1.367-2.735 2.227-3.817 4.399-5.801 2.796-2.738 4.972-5.363 6.082-9.172-.106-2.86-.22-3.957-2.247-5.988-2.242.012-2.242.012-4.492.75-1.312 1.48-1.312 1.48-2.246 2.996h-1.496c1.07-4.734 1.07-4.734 2.715-6.691 2.598-1.165 5.004-1.278 7.766-.797m417.727 40.425h32.938v3.743h-32.938zm-148.226 0h32.941v3.743h-32.941zm-214.102 0h32.938v3.743H345.25zm362.328-11.23h32.938v3.742h-32.938zm-148.226 0h32.941v3.742h-32.941zm-214.102 0h32.938v3.742H345.25zm338.371-29.195.035 2.105q.07 3.867.164 7.727.038 1.673.063 3.347c.023 1.602.062 3.203.105 4.805.02.965.04 1.93.059 2.922.11.762.215 1.52.324 2.3.742.497 1.484.989 2.246 1.497h-9.73c.738-.492 1.48-.988 2.246-1.496.312-2.032.312-2.032.219-4.403l-.024-2.648c-.02-.914-.039-1.832-.055-2.774-.011-.921-.023-1.843-.03-2.792q-.044-3.425-.11-6.848h-2.246v-1.496c4.21-2.246 4.21-2.246 6.734-2.246m0 0"/><path fill="#00f" d="m522.672 234.316.746 23.957h2.246v1.497h-8.98v-1.497h2.246V238.06c-.989.246-1.977.496-2.996.75.246-.743.492-1.485.75-2.246 4.656-2.247 4.656-2.247 5.988-2.247m-29.945 14.223h20.21v2.995h-20.21zm0 0"/></svg>