<svg xmlns="http://www.w3.org/2000/svg" width="400" height="225" version="1.0" viewBox="0 0 300 168.75"><defs><clipPath id="a"><path d="M.223 0h299.554v168.5H.223Zm0 0"/></clipPath><clipPath id="b"><path d="M17 66h282v83.777H17Zm0 0"/></clipPath></defs><g fill="#fff" clip-path="url(#a)"><path d="M.223 0h299.554v168.5H.223Zm0 0"/><path d="M.223 0h299.554v168.5H.223Zm0 0"/></g><g clip-path="url(#b)"><path fill="#101010" fill-rule="evenodd" d="M28.375 67.266c0 .203.16.402.402.496.48.18.68.445.446.59-.09.058-.215.48-.278.941l-.11.832h-3.007l-.816.82c-1.34 1.34-1.758 2.43-1.657 4.336.114 2.18.614 2.766 2.372 2.766.449.004.617-.086 1.289-.692.285-.257.328-.253.597.063.309.36 2.137.336 2.508-.035.188-.192-.16-.68-.484-.68-.352 0-.61-.418-.39-.637.105-.105.253-.52.327-.914a77 77 0 0 1 1.328-5.851c.11-.406.254-1.11.325-1.559l.132-.816h-1.492c-1.387 0-1.492.023-1.492.34m-.3 4.632c.468 1.618-1.083 4.606-2.294 4.434-.472-.07-.64-2.797-.195-3.164.14-.121.258-.316.258-.441 0-1.02 1.965-1.75 2.23-.829m12.774 13v7.692l1.855-.074c2.004-.082 2.203-.149 1.79-.563-.15-.148-.274-.344-.274-.43 0-.085-.34-.156-.758-.156h-.758V78.555h2.024v-1.348h-3.88zm66.419-7.289c0 .489.273.61 1.363.61h.828v12.98h-2.191v1.348h3.71v-15.34h-1.855c-1.844 0-1.855.004-1.855.402m99.797 3.727v2.11h-2.09c-2.434 0-2.399-.036-2.141 1.894.008.07.965.129 2.125.129h2.106v4.21h1.855v-4.21h4.21v-2.024h-4.21V79.23h-1.856zm-90.12 1.027c.054.145.101.524.101.844v.574h10.453v-.574c0-.32.047-.7.102-.844.093-.242-.446-.27-5.328-.27s-5.418.028-5.329.27m-98.93 1.63c-.054.175-.034.612.063 1.347.008.07 4.188.129 9.29.129h9.269V83.78h-9.278c-7.273 0-9.289.047-9.343.211m99.144 1.25c-.062.063-.113.48-.113.926v.816h1.812c.997 0 3.348.051 5.227.114l3.414.109v-2.078h-5.113c-2.813 0-5.164.05-5.227.113m-91.984 4.02c0 .254.094.418.242.418.398 0 .473.308.356 1.43l-.118 1.062-1.562.066c-2.602.114-4.156 2.051-4.14 5.168.007 2.203 2.019 3.324 3.714 2.07.363-.269.496-.3.496-.128 0 .363 1.738.609 2.43.347.281-.11.375-.742.11-.742-.52 0-.919-1.2-.536-1.61.145-.156.5-1.667.953-4.081.125-.676.274-1.297.328-1.387.258-.414.559-2.617.39-2.824-.378-.457-2.663-.278-2.663.21m3.035 3.41c.004.165.188.474.414.684 1.469 1.395 1.563 2.508.305 3.637-2.528 2.266-2.559 2.637-.211 2.637 1.238 0 1.539-.18 1.11-.656-.372-.41-.345-.563.21-1.094l.48-.457.278.422c.152.234.277.484.277.554.012 1.266.422 1.52 2.098 1.29 1.062-.145 1.09-.348.184-1.293-.418-.438-.762-.942-.762-1.118 0-.18-.117-.437-.254-.574-.426-.426-.3-.66 1.023-1.969 1.996-1.972 2.028-2.359.176-2.351-1.336 0-1.605.156-1.289.746.207.39.2.484-.101.887-.45.601-.684.652-.82.183-.063-.21-.231-.71-.376-1.105l-.262-.715h-1.242c-1.07 0-1.238.039-1.238.293m-3.375.969c.793.957-1.34 4.992-2.52 4.77-.433-.083-.62-1.673-.28-2.384.148-.32.273-.683.273-.808.008-1.047 1.957-2.266 2.527-1.578m223.234 66.957c-.132.328-.16 3.148-.046 4.906.058.96.101 1.059.417 1.012.5-.07.551-6.07.051-6.168-.168-.036-.351.074-.422.25m16.93-.172c-.23.23-.125 5.539.113 5.867.282.383.618.203.618-.332 0-.219.082-.613.18-.875l.183-.473.402.504c.863 1.09 1.13 1.285 1.63 1.176.288-.066.472-.035.472.074 0 .434 1.902.067 2.289-.441.445-.594.062-1.903-.563-1.903-.402 0-1.406-.683-1.285-.878.07-.11.48-.137 1.098-.075.941.098.988.086.988-.273-.004-.836-1.433-1.203-2.414-.625-.504.297-.594.308-.68.086-.164-.426-.52-.301-1.386.488-.457.41-.844.73-.864.711s-.05-.738-.066-1.59c-.027-1.531-.227-1.93-.715-1.441m6.629 3.008v3.14l.379-.054c.355-.051.387-.153.465-1.625.101-1.91.543-2.47 1.437-1.82.281.206.313.429.27 1.866l-.047 1.633.476-.05.477-.055.047-1.754.05-1.754-.616-.563c-.598-.546-1.59-.796-1.59-.398 0 .695-.493.04-.536-.715-.046-.773-.101-.894-.433-.941l-.379-.055zm-30.566-2.454c-1.43.918-1.86 3.098-.895 4.555.297.45.555.672.707.613.145-.054.242.008.242.153 0 .183.196.242.719.23 1.836-.043 2.34-1.035.574-1.125-1.64-.086-2.351-1.332-1.613-2.816.379-.75 1.43-1.2 2-.848.363.227 1.187-.086 1.187-.449 0-.223-.082-.309-.238-.25a.257.257 0 0 1-.332-.148c-.14-.36-1.75-.301-2.351.085m4.101 1.008c0 .082-.226.203-.504.266-.281.059-.508.215-.508.34 0 .375.504.55 1.157.402.375-.082.683-.066.816.043.293.242.113.477-.36.477-.214 0-.488.113-.6.254-.118.14-.302.253-.415.253-.348 0-.766.59-.766 1.079 0 .593.282 1.113.598 1.113.137 0 .395.09.57.2.254.155.426.155.778-.005.355-.16.504-.16.699 0 .434.36.563-.172.516-2.12l-.043-1.84-.504-.298c-.543-.316-1.434-.422-1.434-.164m5.137.387c-.953.773-.95.762-.86 2.125.098 1.457.208 1.578 1.692 1.86.957.18 1.047.167 1.312-.153.551-.66-.214-1.144-1.02-.644-.55.343-1.202-.41-1.202-1.395 0-.969.242-1.156 1.504-1.156.8 0 .855.027.855.422 0 .23.07.421.152.421.086 0 .208.313.274.7.273 1.632.754 2.246 1.207 1.539.164-.258.344-.508.402-.555.063-.047.16-.445.227-.883.16-1.074.351-1.011.586.188.383 1.953 1.484 1.965 1.77.023.171-1.172.312-1.687.456-1.687.184 0 .203-.961.024-1.067-.219-.129-.903.211-.863.434.046.289-.2 1.176-.403 1.433-.195.25-.797-.82-.797-1.425 0-1.137-1.113-.106-1.449 1.343-.168.727-.355.692-.457-.085-.055-.391-.176-.739-.277-.77-.098-.031-.18-.164-.18-.285 0-.367-.512-.778-.844-.672-.168.05-.355.016-.414-.078-.215-.348-1.027-.172-1.695.367m8.75-.348c-.106.102-.43.407-.719.68-1.316 1.25-.09 4.145 1.559 3.684.383-.11.746-.172.808-.145.211.102.809-.59.813-.941.004-.196.05-.68.105-1.078.114-.786-.386-1.793-.988-1.985-.16-.054-.293-.168-.293-.254 0-.215-1.05-.183-1.285.04m4.277.015c-.039.113-.293.21-.562.21-.594 0-.782.79-.625 2.614.175 2.028.722 2.348.722.418 0-.726.07-1.262.168-1.262.094 0 .172-.183.172-.406 0-.426.278-.605.938-.605.355 0 .41-.078.41-.59 0-.613-1.035-.938-1.223-.379m13.164.43c-1.75 1.777-1.175 3.785 1.153 4.027.437.043.726.004.726-.102 0-.093.266-.437.59-.761.95-.946.695-2.649-.504-3.426-.808-.524-1.246-.465-1.965.262m4.746-.473c0 .094-.265.168-.59.168-.562 0-.59.027-.617.633-.047 1.023.043 5.34.11 5.406.23.23.761-.215.761-.64 0-.813.157-1.016.786-1.016 2.05 0 2.777-3.301.96-4.375-.617-.363-1.41-.461-1.41-.176m5.735.082c-.117.14-.309.254-.43.254-.785 0-1.184 2.148-.582 3.125.73 1.18 2.73 1.504 2.832.457.055-.57-.844-.871-1.023-.336-.047.152-.145.129-.352-.074a1.75 1.75 0 0 0-.594-.383c-.316-.102-.32-.133-.105-1.48l.098-.633h.921c.825 0 .918-.035.918-.36 0-.707-1.226-1.12-1.683-.57m3.43-.137c.062.063-.122.215-.41.336a1.34 1.34 0 0 0-.712.727c-.105.281-.254.508-.324.508-.168 0-.176 1.304-.008 1.379.07.03.27.332.446.675.414.817 1.086 1.106 1.832.793.3-.125.629-.21.73-.187 1.211.27 1.055-2.969-.187-3.914-.48-.367-1.704-.649-1.368-.317m4.11.098c-.035.113-.285.21-.547.21-.629 0-.836.72-.684 2.36.059.649.106 1.352.106 1.559-.004.293.09.379.414.379.414 0 .418-.012.418-1.508 0-1.363.039-1.55.418-1.98.226-.258.418-.38.418-.262.004.117.12.21.262.21.171 0 .257.188.273.59.012.325.039.665.062.758.024.094.051.63.063 1.192.02.96.043 1.02.402.969.356-.051.383-.149.461-1.704.09-1.746.207-1.984.918-1.847.406.078.602.988.602 2.847 0 .63.047.735.347.735q.344 0 .309-.293c-.023-.164.016-.715.086-1.223.23-1.73-.434-3.195-1.461-3.203-.254 0-.465.055-.465.125 0 .418-.719.566-1.082.223-.41-.383-1.207-.47-1.32-.137m-34.43 1.043c.711.297.879.832.527 1.672-.503 1.199-2.062.652-1.914-.672.133-1.203.418-1.406 1.387-1m8.008.305c0 .484.09.593.8.945.442.215.91.45 1.044.516.695.347.36.543-.856.5-1.496-.051-1.664-.098-1.664-.485 0-.164-.113-.39-.25-.508-.344-.28-.32-.453.125-1.015.512-.649.8-.633.8.047m14.231-.446c.477.184.368 1.942-.152 2.39-.707.618-1.266.118-1.266-1.132 0-1.004.63-1.562 1.418-1.258m-4.113.371c.692.563.008 2.567-.781 2.286-.79-.282-1.32-1.95-.797-2.477.227-.227 1.21-.105 1.578.191m13.344-.027c.5.457.297 2.082-.262 2.082-.137 0-.273.086-.308.195-.102.309-.926-.316-1.047-.793-.32-1.27.761-2.257 1.617-1.484m-45.242 1.723c-.082.445-1.313.484-1.313.047 0-.36.356-.5.977-.391.246.047.37.172.336.344m37.828.394c-.426.426-.106 1.145.512 1.145.378 0 .539-.367.398-.926-.113-.453-.566-.562-.91-.219"/></g><path fill="#001eff" fill-rule="evenodd" d="M227.5 76.7c-.234.374-.762 3.55-.785 4.722-.016.8.597 1.137.926.504.937-1.805 2.011-4.535 2.011-5.117 0-.598-1.789-.692-2.152-.11M57.41 77.863c-4.187 3.313-3.719 11.512.77 13.528 1.215.546 1.55.464 1.55-.38 0-.386-.125-.542-.656-.816-1.722-.879-2.261-2.199-2.336-5.738-.078-3.516.34-4.543 2.36-5.836.496-.32.632-.512.632-.91 0-.816-1.195-.734-2.32.152m11.887-.558c-.281.285-.129 1.058.226 1.172 3.235 1.027 3.797 8.59.836 11.23-.507.45-.98.816-1.054.816-.246 0-.149 1.188.101 1.286.512.191 3.309-1.743 3.649-2.524.09-.2.23-.476.312-.613 1.153-1.883 1.137-6.332-.031-8.586-.965-1.863-3.336-3.496-4.04-2.781m77.145.02c-2.582.507-4.347 5.878-3.277 9.987.274 1.051 1.156 2.653 1.707 3.094.992.797 1.242.961 1.461.961.121 0 .395.113.606.25.34.223.425.223.753-.008.614-.433.457-.851-.562-1.5-.512-.328-1.016-.785-1.121-1.02-.106-.23-.25-.417-.324-.417-.254 0-.844-2.285-.942-3.645-.21-2.976.856-5.547 2.696-6.496 1.41-.722.734-1.547-.997-1.207m10.922.406c.043.473.176.637.785.97 3.211 1.765 3.207 9.054-.003 11.343-.668.473-.797.656-.805 1.117-.031 2.184 4.207-1.234 4.71-3.797.106-.535.274-1.37.38-1.863.136-.66.136-1.168-.004-1.937a50 50 0 0 1-.293-1.868c-.274-2.129-2.196-4.238-4.047-4.445l-.777-.09zm76.672-.085c-3.566 2.027-4.281 9.105-1.25 12.355.953 1.02 2.555 1.992 3 1.82.477-.183.352-1.175-.191-1.504-3.606-2.183-3.813-9.504-.328-11.574 1.855-1.101.656-2.176-1.23-1.097m11.37-.258c-.21.343.09.96.574 1.16 1.79.742 2.97 3.828 2.602 6.797-.195 1.554-.602 3.144-.848 3.304-.09.059-.254.282-.367.497-.113.21-.617.648-1.12.972-1.005.64-1.161 1.063-.548 1.492.328.23.414.23.754.008.211-.137.492-.25.629-.25.133 0 .344-.094.469-.21.12-.118.508-.423.855-.684.348-.258.63-.547.63-.641 0-.098.202-.434.444-.758 1.282-1.676 1.364-6.906.145-9.117-1.07-1.937-3.64-3.504-4.219-2.57M50.036 78.44c-.544.297-.794.61-1.282 1.606-.332.68-.809 1.422-1.055 1.648-.535.496-.547.594-.11.993.403.363.415.55.099 1.578-.325 1.046-.598 2.218-.864 3.671-.12.665-.293 1.348-.383 1.516-.09.172-.246.524-.351.785q-.188.476-.938.805c-.824.367-.968.504-.797.77.688 1.054 2.98.277 3.602-1.22.363-.878.813-2.398.813-2.75 0-.156.12-.734.265-1.288.149-.551.332-1.344.414-1.762.383-1.988.344-1.93 1.266-2.023 1.183-.118 1.433-1.18.277-1.18-.695 0-1.062-.383-.71-.735.097-.097.175-.316.175-.488s.184-.496.41-.719l.41-.41.782.348c.992.437 1.433.164 1.433-.887v-.648l-1.39.011c-1.09.012-1.54.094-2.067.38m88.84-.223c-.059.094-.234.172-.39.172-.583.015-1.887 1.71-1.887 2.46 0 .122-.278.5-.618.844l-.62.618.382.308c.418.34.406.813-.07 2.594a54 54 0 0 0-.832 3.555c-.242 1.226-.735 1.972-1.485 2.253-1.238.457-1.492.891-.695 1.196 1.906.722 3.586-.797 4.2-3.801.132-.648.32-1.523.421-1.938.102-.418.266-1.101.364-1.52.101-.417.226-1.062.285-1.433.101-.668.11-.675.945-.757 1.2-.122 1.441-1.18.266-1.18-.676 0-.68-.004-.582-.547.27-1.496 1-2.07 1.754-1.387.636.574 1.343.078 1.343-.945v-.66h-1.34c-.734 0-1.386.074-1.441.168m83.613.125c-.91.46-1.941 1.875-1.941 2.656 0 .125-.172.367-.387.535-.562.445-.668.848-.293 1.11.27.187.293.32.164.89-.32 1.406-.687 3.055-.82 3.703-.606 2.946-.91 3.532-1.992 3.848-1.301.379-1.176 1.023.21 1.082 1.712.074 2.91-.957 3.196-2.738.059-.371.21-1.055.34-1.52.375-1.367.758-3.137.894-4.129l.125-.926.84-.085c1.043-.106 1.465-1.18.465-1.18-.95 0-1-.86-.121-1.965l.383-.48.515.378c.875.649 1.707.215 1.707-.89v-.582l-1.39.015c-.88.012-1.574.114-1.895.278M61.528 81.87c-.25.25-.102.879.23.984.39.125 1.086 1.153 1.39 2.051l.204.602-1.567 1.601c-1.668 1.707-1.805 2.043-.918 2.293 1.399.403 2.555-.168 2.172-1.07-.062-.144.063-.465.293-.754.5-.621.82-.43 1.094.652.215.852.398 1.032 1.215 1.18 1.46.262 2.093-.285 1.25-1.078-.5-.469-1.262-2.008-1.262-2.539 0-.234.473-.871 1.266-1.695 1-1.047 1.261-1.43 1.261-1.832v-.508h-1.242c-1.457 0-1.824.234-1.453.926.184.347.172.472-.07.847-.383.582-.637.465-.895-.422-.332-1.144-.605-1.351-1.816-1.351-.57 0-1.09.05-1.153.113m88.254.09c-.316.316-.242.547.309.957 1.117.824 1.656 2.883.867 3.293-.621.32-2.39 2.394-2.39 2.8 0 .391 1.265.622 2.175.4.59-.145.606-.173.606-.946 0-.594.093-.89.37-1.168l.372-.371.195.492c.817 2.035 1.035 2.227 2.383 2.043 1.023-.137 1.137-.356.523-1-.523-.555-1.402-2.234-1.394-2.672 0-.133.605-.883 1.344-1.672 1.882-2.012 1.793-2.36-.61-2.36-.867 0-1.441.805-.738 1.04.09.031.012.308-.176.617-.535.879-.676.719-1.273-1.445-.078-.281-2.281-.29-2.563-.008m88.13.293q-.002.494.308.59c.289.094 1.043 1.351 1.043 1.742 0 .098.082.207.191.242.379.125-.07.836-1.469 2.34-1.773 1.898-1.773 2.344 0 2.344 1.453 0 1.856-.29 1.407-1.008-.172-.274-.145-.406.144-.797.453-.605.836-.68.957-.184.051.215.223.758.387 1.211l.289.825 1.18-.102c1.554-.129 1.664-.27.882-1.137-.347-.382-.746-.976-.886-1.312s-.336-.664-.438-.727c-.281-.176.02-.66 1.203-1.937 1.637-1.77 1.715-1.86 1.715-2.067 0-.418-2.14-.722-2.937-.418-.297.114-.36.664-.098.829.274.167.191.683-.16 1-.445.406-.598.257-.95-.918l-.304-1.012h-2.465z"/><path fill="#f20505" fill-rule="evenodd" d="M174.629 76.633c-.055.144-.102.527-.102.851 0 .325-.082.743-.183.934-.149.273-.656 2.879-.66 3.375 0 .434.738.484 1.113.078.371-.398.504-.68 1.086-2.305.312-.87.324-.89.586-1.347.136-.23.246-.746.246-1.137l.004-.719h-.992c-.75 0-1.02.067-1.098.27m-84.313.644c-1.472.672-2.578 1.864-3.367 3.633-.293.66-.332 1.125-.332 3.797v3.047l.664 1.312c.82 1.618 2.32 3.04 3.414 3.246 1.383.258 1.633-.652.399-1.445-2.028-1.3-2.453-2.402-2.453-6.324 0-3.668.511-4.914 2.43-5.945 1.644-.883.952-2.098-.755-1.32m10.067.023c-.242.527-.028 1.011.52 1.176.617.187 1.636 1.277 2.12 2.27.657 1.347.688 6.491.047 7.823-.433.907-1.875 2.461-2.28 2.461-.392 0-.653.606-.435 1.012.63 1.172 3.536-.762 4.56-3.035.753-1.676 1.003-7.215.362-8.082-.203-.278-.37-.567-.37-.649 0-.66-2.067-2.632-3.298-3.148-.843-.352-1-.328-1.226.172m82.277-.164c-1.34.586-3.242 2.46-3.242 3.191 0 .078-.137.285-.297.465-.812.898-.223 8.887.652 8.887.082 0 .149.097.149.218 0 .582 2.473 2.48 3.23 2.48.832 0 1.168-1.054.426-1.335-1.367-.52-2.55-2.285-2.812-4.2-.106-.773-.262-1.597-.348-1.827-.09-.23-.11-.504-.047-.606.066-.105.25-.976.41-1.941.324-1.957.817-2.754 2.36-3.84 1.367-.961.988-2.133-.48-1.492m9.937-.067c-.371.375-.227.942.347 1.332 2.305 1.578 2.739 2.582 2.735 6.305-.008 3.645-.985 5.785-2.918 6.398-.434.137-.532 1.172-.121 1.332.375.145 1.55-.257 2.191-.746 1.078-.828 1.625-1.48 2.207-2.625l.668-1.316-.004-3.035v-3.04l-.558-1.14c-1.047-2.137-3.786-4.222-4.547-3.465m73.996.184c-1.27.484-2.395 1.64-3.18 3.266l-.637 1.324v5.73l.621 1.29c.696 1.437 2.258 3.179 2.86 3.179.133 0 .394.11.574.246.426.32.664.32.988-.008.508-.504.325-.965-.582-1.465-3.539-1.949-3.445-10.671.125-12.18.59-.245.895-.952.61-1.402-.23-.367-.368-.367-1.38.02m10.126-.184c-.45.45-.235 1.047.496 1.399 3.629 1.738 3.73 10.11.152 12.316-1.074.66-1.125.742-.847 1.27.562 1.047 3.582-.801 4.539-2.778 1.343-2.78 1.109-7.91-.457-9.867-.97-1.21-1.477-1.683-2.102-1.941a17 17 0 0 1-1.012-.45c-.39-.199-.527-.187-.77.051m-197.37 4.516c-2.004.809-3.262 5.469-1.922 7.121.453.559 2.27.559 3.023 0 .59-.437.63-.348.25.574-.383.934-.844 1.364-1.793 1.68-1.355.45-2.105-.211-1.445-1.27.39-.62-.645-1.152-1.363-.699-1.293.82-.707 2.844.933 3.23 2.754.653 5.239-.831 5.563-3.327.058-.45.18-.957.27-1.133.09-.172.226-.703.304-1.18.074-.473.305-1.582.504-2.465.523-2.281.52-2.414-.09-2.547-.746-.164-3.82-.148-4.234.016m88.32.004c-1.879.758-3.234 4.687-2.297 6.656.453.945 1.945 1.164 3.297.48.555-.28.582-.12.125.754-.848 1.625-2.586 2.215-3.309 1.118-.238-.368-.238-.426.016-.68.477-.477.27-.988-.422-1.047-1.516-.125-1.918 2.246-.52 3.063 2.032 1.18 5.653-.164 6.028-2.239.059-.332.18-.695.27-.804.085-.114.218-.606.296-1.098.075-.492.34-1.805.59-2.914a94 94 0 0 0 .582-2.742l.125-.715-2.207.012c-1.21.004-2.37.078-2.574.156m87.945.082a49 49 0 0 1-.804.445c-1.215.645-2.153 4.535-1.465 6.063.457 1.011 1.926 1.254 3.32.547.555-.282.582-.122.125.753-.848 1.625-2.59 2.215-3.305 1.118-.242-.368-.242-.426.012-.68.48-.48.27-.988-.437-1.047-1.84-.152-1.844 2.742-.004 3.277 3.113.907 6.086-1.277 6.097-4.476 0-.223.114-.79.25-1.262.235-.816.645-2.715.918-4.273l.125-.715-2.207.004c-1.613 0-2.316.066-2.625.246m-162.91.18c-.09.242.434.937.836 1.105.09.035.367.469.621.965.574 1.121.477 1.36-1.34 3.266-1.664 1.75-1.504 2.316.664 2.324h.97v-.578c0-.32-.079-.63-.173-.688-.101-.062.043-.379.356-.773.535-.676.972-.606.992.152.027 1.074.828 1.887 1.86 1.887 1.156 0 1.792-.961.84-1.266-.364-.113-1.028-1.285-1.31-2.305-.171-.62-.171-.625 1.157-2.023.996-1.047 1.332-1.516 1.336-1.863v-.465H96.8l.039.754c.023.488-.055.86-.223 1.05-.144.168-.3.418-.344.555-.043.14-.214-.203-.375-.758-.421-1.457-.601-1.601-1.957-1.601-.87 0-1.16.062-1.238.262m92.277.222c0 .336.133.574.426.77.375.246 1.258 1.879 1.258 2.328 0 .094-.61.793-1.351 1.555-1.254 1.28-1.829 2.242-1.583 2.64.047.082.73.145 1.512.145h1.422v-.578c0-.32-.074-.63-.168-.684-.266-.168-.203-.32.367-.906l.532-.547.199.473c.11.261.25.753.316 1.101.192 1.031 1.14 1.406 2.426.961.816-.285.848-.742.082-1.148-.207-.106-.57-.63-.813-1.16a36 36 0 0 0-.574-1.235c-.11-.2.203-.633 1.274-1.758 1.902-2.004 1.886-2.437-.102-2.437-1.305 0-2.031.5-1.348.922.293.183.184.687-.23 1.078l-.402.375-.114-.473a14 14 0 0 0-.379-1.191l-.27-.715h-2.48zm84.153-.281c-.32.32-.238.629.215.84.457.207.972.969 1.16 1.703.062.25.187.457.277.457.41 0 .07.52-1.176 1.809-2.347 2.425-2.359 2.73-.125 2.87l1.254.083-.082-.844c-.086-.887.656-2.477.88-1.883.05.133.265.77.484 1.422l.394 1.18 1.207.047 1.207.05v-.492q.001-.492-.59-1.137c-.324-.351-.59-.765-.59-.914 0-.152-.109-.421-.246-.601-.504-.664-.32-1.07 1.184-2.633 1.844-1.91 1.836-2.059-.137-2.125l-1.476-.047v.5c0 .277.074.547.164.602.168.105-.438 1.27-.66 1.27-.07 0-.262-.434-.418-.97l-.356-1.18c-.086-.28-2.293-.288-2.57-.007m-187.63.969c1 .93-1.273 5.754-2.304 4.894-.87-.719.281-4.886 1.348-4.886.14 0 .254-.075.254-.168 0-.27.32-.196.703.16m88.055-.219c.488.187.75 1.039.48 1.559-.125.238-.23.57-.23.734-.004 1.078-2.032 3.332-2.465 2.738-.817-1.117.367-4.804 1.543-4.804.136 0 .246-.075.246-.168 0-.2.047-.204.426-.059m88.199.27c.441.472.488.753.242 1.359-.11.262-.195.586-.195.726 0 1.133-2.121 3.364-2.504 2.637-.707-1.347.426-4.765 1.582-4.765.137 0 .246-.075.246-.168 0-.278.258-.192.629.21"/></svg>