<svg xmlns="http://www.w3.org/2000/svg" width="400" height="225" version="1.0" viewBox="0 0 300 168.75"><defs><clipPath id="a"><path d="M.223 0h299.554v168.5H.223Zm0 0"/></clipPath><clipPath id="b"><path d="M76 26h223v125.277H76Zm0 0"/></clipPath></defs><g fill="#fff" clip-path="url(#a)"><path d="M.223 0h299.554v168.5H.223Zm0 0"/><path d="M.223 0h299.554v168.5H.223Zm0 0"/></g><path fill="#fc0000" fill-rule="evenodd" d="M169.3 30.68c0 .093-.113.168-.257.168-.14 0-.309.129-.367.285a2.2 2.2 0 0 1-.375.574c-.586.656-.688.84-.887 1.578-.113.422-.262.766-.328.766s-.176.363-.242.8c-.063.442-.2.856-.297.919-.258.164-.246 5.851.012 6.007.105.067.246.516.308 1 .067.489.18.883.258.883.074 0 .188.274.25.606.063.332.21.64.332.683.117.047.262.274.32.504.243.961 1.782 1.887 1.782 1.074 0-.187-.059-.34-.13-.34-.07 0-.35-.433-.632-.968-.277-.532-.55-1.004-.606-1.051-.632-.523-.613-10.79.02-10.79.07 0 .18-.194.238-.437.11-.43.235-.62.813-1.261.367-.403.394-1.168.043-1.168-.14 0-.254.074-.254.168m22.758.265c0 .403.257 1.059.488 1.254.371.309.75 1.48.894 2.781.094.833.239 1.649.32 1.81.212.41.196 4.343-.015 4.343-.094 0-.172.27-.172.597 0 .875-.363 2.942-.515 2.942-.075 0-.188.164-.25.367-.067.2-.258.52-.434.707-.43.457-.422 1.117.012 1.117.328 0 1.187-.957 1.187-1.32 0-.11.059-.195.133-.195.207 0 .684-1.024.902-1.942.11-.46.286-.894.387-.96.262-.173.25-7.016-.012-7.176-.109-.067-.25-.485-.316-.93s-.223-.91-.344-1.035c-.125-.121-.273-.418-.332-.653-.062-.238-.215-.472-.347-.52-.13-.05-.239-.194-.239-.323 0-.211-1.054-1.297-1.258-1.297-.05 0-.09.195-.09.433m-2.867 3.262c0 .086-.093.262-.21.387-.387.418-.97 1.297-.97 1.465 0 .093-.093.23-.21.304-.113.075-.324.36-.461.637-.14.281-.348.566-.465.64a.5.5 0 0 0-.21.383c0 .133-.063.243-.142.243-.203 0-.53.789-.53 1.273 0 .406.015.414 1.515.414h1.515v2.024h1.348v-2.024h.52c.738 0 .691-1.066-.055-1.148l-.465-.055v-4.7h-.59c-.324 0-.59.071-.59.157m-8.597 2.957v1.258l-1.305.047c-1.285.05-1.309.058-1.36.515l-.054.461h2.719v1.266c0 1.234.011 1.266.422 1.266.414 0 .422-.032.422-1.266v-1.266h2.53v-1.011h-2.53v-1.262c0-1.238-.008-1.266-.422-1.266-.41 0-.422.028-.422 1.258m8.43.43v1.18h-.84c-.961 0-1.012-.094-.422-.778.23-.27.418-.574.422-.68 0-.105.113-.238.25-.293.14-.05.254-.21.254-.351 0-.145.074-.262.167-.262.098 0 .168.508.168 1.184m-17.109-.844c-.059.09-.289.168-.516.168-.296 0-.41.094-.41.336 0 .219.114.34.325.34.64 0 .84.199.964.98.227 1.414-.363 2.371-1.382 2.25-.598-.066-.606-.062-.551.5.097 1.031 2.16.578 2.16-.476 0-.446.316-.207.43.328.277 1.27 1.91 1.02 2.347-.364.13-.41-.363-.507-.726-.144-.258.258-.528-.086-.532-.672 0-.21-.078-.383-.171-.383-.09 0-.168-.187-.168-.422 0-.23.066-.418.148-.418s.188-.148.234-.328c.067-.246.262-.34.805-.379.89-.066 1.176-.425.84-1.054-.328-.617-.906-.555-1.656.175-.5.489-.633.551-.68.32-.137-.671-1.18-1.214-1.46-.757m.937 31.648c-.977 1.11-1.36 1.766-1.36 2.34 0 .14-.113.371-.254.508-.136.14-.25.469-.25.734 0 .262-.097.512-.21.551-.286.09-.305 6.989-.024 7.168.101.067.234.39.293.719.062.332.262.898.45 1.258.183.363.331.758.331.875 0 .12.078.219.172.219.09 0 .168.097.168.218 0 .262 1.402 1.637 1.668 1.637.101 0 .187-.191.187-.422s-.07-.422-.156-.422c-.082 0-.23-.226-.324-.504-.098-.28-.254-.507-.344-.507s-.215-.247-.281-.547-.18-.59-.258-.637c-.2-.129-.492-2.098-.492-3.324 0-.59-.074-1.055-.168-1.055-.098 0-.172-.504-.172-1.18s.074-1.18.172-1.18c.09 0 .168-.437.168-.968 0-1.16.3-3.117.492-3.242.078-.047.192-.336.258-.637.066-.3.18-.547.254-.547s.226-.226.344-.508c.117-.277.277-.504.359-.504s.148-.191.148-.421c0-.637-.382-.516-1.171.378m24.265-.378c0 .23.059.421.137.421.074 0 .238.266.367.59s.285.59.352.59c.062 0 .172.207.234.461s.18.504.262.55c.203.13.5 2.079.5 3.329 0 .59.074 1.055.168 1.055.097 0 .172.504.172 1.18s-.075 1.179-.172 1.179c-.09 0-.168.414-.168.922 0 1.18-.336 3.46-.512 3.46-.074 0-.184.227-.246.509-.059.277-.18.504-.266.504s-.156.101-.156.222-.152.383-.336.582c-.36.387-.457 1.051-.152 1.051.265 0 1.668-1.375 1.668-1.637 0-.12.078-.218.168-.218.093 0 .172-.098.172-.211 0-.121.144-.489.324-.82a5.2 5.2 0 0 0 .445-1.262c.067-.364.203-.711.309-.778.261-.168.258-7.008-.004-7.176-.106-.066-.246-.386-.313-.71-.125-.586-.726-2.122-.957-2.446-1.066-1.476-1.996-2.105-1.996-1.347m-47.37 3.41a1 1 0 0 0-.337.199c-.047.058-.3.2-.562.316-.59.258-.5.625.156.633l.492.004v3.031c0 3.012-.004 3.028-.383 3.082-1.156.164-.312.535 1.223.535s2.383-.37 1.223-.535c-.38-.054-.38-.062-.426-3.722l-.043-3.664-.547.011c-.297.008-.656.055-.797.11m44.59.007c-.227.165-.84 1.063-.977 1.43-.062.16-.187.293-.285.293a.18.18 0 0 0-.172.18c0 .16-.765 1.285-1.023 1.508-.055.047-.207.328-.34.632-.129.301-.293.547-.363.547s-.13.305-.13.676v.672h3.036v1.855h1.516v-.93c0-.874.023-.925.422-.925.37 0 .421-.074.421-.59 0-.515-.05-.59-.421-.59h-.422V71.31h-.547c-.301.004-.625.058-.715.129m-9.188 2.902v1.351h-2.699v1.012h2.7v2.527h1.011v-2.527h2.528v-1.012h-2.528v-2.699h-1.012zm8.934.59v1.265h-.91c-.914 0-1.23-.465-.508-.742a.4.4 0 0 0 .238-.348c0-.14.063-.257.141-.257.074 0 .246-.211.379-.465.203-.399.469-.703.617-.715.024 0 .043.566.043 1.262m-17.7-.926c0 .094-.23.168-.507.168-.395 0-.504.074-.504.34 0 .254.11.336.473.336.57 0 .875.273.875.78 0 .208.074.427.168.481.215.133.222.762.011.762-.085 0-.203.14-.257.317-.153.484-.98 1.316-1.059 1.07-.129-.383-.707-.23-.816.215-.13.511.004.898.347 1.03.328.126 1.438-.39 1.438-.663 0-.238.59-.79.844-.79.09 0 .167.216.167.481 0 1.344 1.872 1.094 2.235-.297.168-.64-.164-.793-.625-.296l-.43.468v-.504c0-.273-.078-.527-.176-.558-.875-.29.047-2.043 1.086-2.067.899-.015.836-1.441-.062-1.441-.5 0-1.356.625-1.356.988 0 .399-.277.168-.48-.398-.211-.578-1.371-.934-1.371-.422m-5.73 11.21c0 .325.066.59.148.59s.199.266.258.59c.062.325.171.59.246.59s.312.153.523.336c.215.188.563.34.777.34.211 0 .43.074.489.168.066.106 1.922.168 5.004.168 4.597 0 6.207.133 6.207.508 0 .062.152.289.336.504.187.21.34.527.34.699s.085.313.19.313c.106 0 .005.175-.23.39-.23.219-.515.672-.625 1.012-.113.336-.27.656-.347.703-.082.05-.2.508-.262 1.016-.11.879-.14.921-.602.921-.27 0-.488-.074-.488-.167 0-.375-1.648-.184-2.113.246-.418.386-.441.484-.336 1.39.098.848.066 1.028-.234 1.352-.957 1.023-.211 1.707 1.668 1.527 1.718-.164 1.933-1.664.277-1.93-.68-.113-.656-.394.027-.394.465 0 1.219-.695 1.219-1.121a.23.23 0 0 1 .23-.227c.176 0 .254.375.317 1.477.105 1.933 1.039 3.918 1.84 3.918.222 0 .047-1.031-.203-1.184-.227-.14-.5-1.129-.5-1.808 0-.301-.075-.547-.168-.547-.098 0-.168-.617-.168-1.52 0-.898.07-1.515.168-1.515.093 0 .168-.207.172-.465 0-.656.324-1.739.601-2.02.133-.129.238-.414.238-.629s.106-.43.23-.48c.13-.047.282-.285.345-.528.332-1.32.898-1.44 6.789-1.44 2.707 0 4.964-.067 5.015-.15.047-.077.313-.19.582-.245.633-.125 1.356-.844 1.48-1.477.055-.27.165-.488.247-.488s.148-.235.148-.52c0-.68-.629-.633-1.008.078-.375.707-.93 1.285-1.234 1.285-.148 0-.316.075-.371.168-.066.106-1.945.168-5.078.168-4.574 0-6.469.141-6.469.485 0 .058-.176.308-.39.558-.395.461-.649.442-.836-.066-.309-.836-.68-.89-6.352-.945-3.05-.028-5.387-.118-5.477-.211a.72.72 0 0 0-.433-.157c-.324 0-1.012-.738-1.297-1.394-.313-.715-.89-.633-.89.129m18.773 5.047c-.086.226 0 .383.57 1.015.895.996.715 7.055-.238 7.934-.461.43-.446.922.035.922 1.934 0 2.617-7.336.855-9.2a12 12 0 0 1-.484-.558c-.344-.418-.605-.457-.738-.113m-36.024 2.648c-.472.516-1.125 1.836-1.125 2.274 0 .218-.078.398-.172.398-.09 0-.167.215-.167.48v.477l-1.442-.016c-1.348-.015-1.46.012-1.766.407-.351.457-.433 1.097-.164 1.265.336.207.196 1.22-.18 1.317-.288.074-.34.199-.292.734l.05.645 1.22.05c1.46.059 1.902-.129 1.902-.8 0-.7-.16-1.02-.512-1.02-.422 0-.84-.176-.84-.355 0-.082.16-.149.348-.149q.821-.002 1.168-.836c.347-.836.507-.594.507.75 0 .696.067 1.266.153 1.266.082 0 .195.324.254.719.176 1.148 1.785 2.78 1.785 1.808 0-.183-.055-.336-.125-.34-.149 0-.547-.812-.547-1.113 0-.113-.094-.234-.207-.273-.281-.094-.305-5.477-.027-5.653.105-.07.242-.367.308-.668.067-.3.235-.613.375-.691.274-.152.254-.902-.027-.969-.094-.023-.309.11-.477.293m4.72-.25c-.177.176-.134.899.054.899.094 0 .168.109.168.246 0 .132.11.304.238.379.598.336.703 6.418.117 6.78-.086.056-.21.31-.277.563-.063.254-.184.461-.266.461s-.148.153-.148.336.097.336.222.336c.266 0 .958-.7.958-.965a.27.27 0 0 1 .167-.242c.09-.031.262-.453.375-.941.118-.485.27-.883.34-.883s.13-.836.13-1.856-.067-1.855-.15-1.855c-.077 0-.195-.371-.253-.824-.063-.453-.262-1.016-.445-1.246-.184-.235-.332-.473-.332-.528 0-.101-.633-.773-.73-.773-.032 0-.11.05-.169.113m28.207 1.403c0 .187.082.34.18.34.27 0 .664.44.664.742 0 .343-.516.94-.809.94-.347 0-.754.485-.648.767.125.32.902.32 1.226-.004.141-.141.325-.254.41-.254.087 0 .157.113.157.254 0 .316.941.343 1.254.03.527-.526.508-1.019-.035-.91-.446.09-.52.052-.59-.32-.098-.515.258-.91.816-.91.41 0 .504-.226.305-.746-.13-.34-.801-.344-1.086 0-.2.238-.23.238-.367 0-.235-.426-1.477-.363-1.477.07m-4.414.801c-.043.367-.152.477-.516.52-.535.058-.593-.164-.171-.63.445-.483.75-.437.687.11m-27.059 1.844c-.074.188.016.367.258.527.649.43.426 1.383-.324 1.383-.523 0-.875.692-.527 1.04.234.234 1.218.003 1.218-.286 0-.433.336-.437.5-.008.211.555.696.559 1.282.012.5-.46.32-1.027-.27-.844-.21.07-.312-.02-.37-.316-.114-.602.148-.95.73-.95.433 0 .503-.054.457-.378-.07-.48-.875-.614-1.313-.215-.27.242-.312.246-.402.012-.137-.36-1.098-.344-1.239.023m-4.433.645c0 .425-.684 1.011-.86.738-.226-.36-.18-.621.141-.809.43-.25.719-.219.719.07m31.473.196c.085.254-.801.402-1.18.2-.23-.122-.262-.224-.13-.384.212-.254 1.212-.113 1.31.184m-31.704 2.5c.227.226.227.254-.011.254-.145 0-.266.078-.266.168 0 .094-.117.172-.262.172-.304 0-.746-.395-.746-.664 0-.274.996-.22 1.285.07m-9.336 23.02c-.3.285-.546.581-.546.663s-.098.25-.211.372c-.348.37-.778 1.347-.993 2.246-.109.46-.285.894-.386.96-.121.083-.184 1.372-.184 3.926s.063 3.844.184 3.926c.101.067.277.5.386.965.215.898.645 1.871.993 2.242.113.125.21.285.21.356 0 .074.227.37.505.664.585.61 1.18.707 1.18.191 0-.183-.075-.336-.169-.336s-.168-.11-.168-.246a.5.5 0 0 0-.23-.379c-.125-.074-.324-.437-.446-.808-.117-.371-.28-.715-.359-.766-.078-.055-.191-.469-.254-.93-.062-.457-.195-.886-.297-.953-.254-.168-.25-8.023.004-8.191.102-.063.235-.399.301-.742.063-.344.223-.836.36-1.094.132-.262.245-.567.245-.68 0-.117.227-.414.508-.664.567-.504.692-1.234.211-1.234-.164 0-.543.23-.844.511m8.555-.02c0 .27.113.606.25.743.438.438 1.098 1.832 1.098 2.316 0 .254.097.497.21.536.294.097.305 8.652.012 9.246-.109.222-.285.804-.394 1.289-.11.488-.266.887-.352.887-.082 0-.148.109-.148.246 0 .136-.152.328-.34.43-.41.218-.48 1.179-.086 1.179.32 0 .93-.52.93-.79 0-.112.105-.265.23-.339.297-.176 1.118-1.73 1.118-2.117 0-.16.07-.297.152-.297.168 0 .523-1.82.523-2.668 0-.293.075-.535.168-.535.102 0 .168-.758.168-1.938s-.066-1.937-.168-1.937c-.094 0-.168-.242-.168-.535 0-.817-.355-2.668-.508-2.668-.078 0-.195-.246-.257-.547a3.3 3.3 0 0 0-.438-.996c-.172-.246-.316-.492-.316-.543 0-.184-1.301-1.453-1.489-1.453-.109 0-.195.218-.195.492m-16.816 6.101c-.301.086-.547.22-.547.29 0 .074-.164.308-.367.527-.528.566-.532 1.805-.008 2.328.383.383.297 1.05-.137 1.05-.09 0-.16.227-.16.505 0 .304-.09.504-.223.504-.816 0-1.226 1.59-.582 2.234.453.45 4.16.598 4.301.168a.33.33 0 0 1 .297-.207c.27 0 .758-.922.75-1.418-.008-.59-.602-1.137-1.34-1.234-.371-.051-.676-.157-.676-.239 0-.078-.191-.144-.422-.144-.878 0-.394-.594.586-.723.414-.055.782-.18.817-.277.031-.102.16-.18.285-.18.355 0 .926-.926.926-1.504 0-.441.062-.52.422-.52.363 0 .422-.074.422-.566v-.566l-1.391-.106c-1.738-.136-2.262-.12-2.953.078m11.379-.066c-.852.09-.918.672-.082.75.453.047.574.148.707.602.09.3.222.55.297.55s.132.262.132.586c0 .328-.07.59-.156.59s-.203.145-.258.32c-.187.594-.664.946-1.273.946-.895 0-.914 1.148-.024 1.234.594.059 1.375-.469 1.375-.926 0-.125.079-.222.172-.222.098 0 .242-.172.328-.38.137-.343.153-.327.164.169.004.3.079.547.165.547.085 0 .183.172.21.379.141.988 2.137.203 2.426-.954.137-.55-.27-.597-.773-.093-.485.48-.774.144-.926-1.075-.152-1.207.277-1.789 1.32-1.792.637-.004.641-.008.59-.637-.086-1.016-2.16-.625-2.16.41 0 .46-.305.2-.406-.352-.11-.574-.383-.8-.914-.746zm-9.536.832c.325.293.426 1.07.137 1.07-.09 0-.168.098-.168.223 0 .809-1.527 1.211-1.765.465-.121-.379.054-1.195.257-1.195.075 0 .184-.149.243-.329.09-.289.332-.433.832-.496.086-.011.293.106.464.262m-1.21 4.945c0 .094.207.172.464.172 1.618.02 1.211 1.149-.468 1.301-1.34.121-2.106-.469-1.57-1.207.316-.434 1.574-.645 1.574-.266"/><path fill="#01f" fill-rule="evenodd" d="M131.156 30.219c-.297.3-.695.851-.879 1.218-.187.372-.394.72-.464.774-.075.05-.223.543-.336 1.094-.11.55-.258 1.043-.329 1.093-.117.082-.296 1.383-.582 4.184-.05.5-.015 1.07.079 1.266.097.195.218 1 .277 1.785.058.785.164 1.469.242 1.515.074.051.18.38.234.727.102.648.778 2.184 1.004 2.285.07.031.13.153.13.27 0 .25 1.12 1.445 1.355 1.445.39 0-.367-2.14-.899-2.54-.074-.058-.222-.757-.336-1.562-.109-.804-.254-1.46-.328-1.46-.199 0-.164-7.043.04-7.165.09-.058.167-.363.167-.675 0-1.317.594-3.032 1.301-3.762.258-.266.29-1.043.04-1.043-.095 0-.419.246-.716.55m26.684-.152c0 .223.152.594.336.829.183.234.336.503.336.597s.07.195.156.227c.086.031.254.55.375 1.152.117.606.297 1.152.39 1.219.274.187.239 9.27-.035 9.36-.117.038-.21.257-.21.487 0 .602-.352 1.915-.516 1.915-.074 0-.188.168-.254.37a1.8 1.8 0 0 1-.348.602c-.293.293-.3 1.051-.011 1.051.12 0 .402-.23.629-.512.23-.281.496-.601.593-.715.317-.363 1.086-2.113 1.086-2.472 0-.192.067-.348.149-.348.664 0 .683-9.351.023-10.2-.074-.089-.187-.413-.25-.714-.066-.3-.187-.547-.273-.547-.082 0-.157-.101-.157-.219 0-.312-.394-1.128-.547-1.128-.066 0-.125-.102-.125-.223 0-.274-.87-1.129-1.148-1.129-.11 0-.2.18-.2.398m-3.921 2.239c-.16.047-.34.27-.395.496-.058.222-.171.406-.253.406-.083 0-.153.152-.153.34q0 .335.34.336c.184 0 .336-.106.336-.235 0-.261.582-.464.941-.324.61.23.215 1.278-.875 2.34-1.117 1.086-1.027 1.254.676 1.254 1.488 0 1.617-.07 1.617-.867 0-.352-.625-.305-.863.062-.055.086-.27.133-.476.102-.368-.055-.364-.07.14-.563.285-.277.52-.601.52-.718.004-.121.12-.262.257-.317.336-.129.348-1.676.02-2.004-.258-.258-1.36-.441-1.832-.308m-20.133 2.125c-.867.617-1.34 1.812-.719 1.812.176 0 .618-.437.707-.707.07-.215 1.364-.305 1.559-.11.598.598.082 1.84-.902 2.184-.63.22-.707.657-.118.657.625 0 1.614 1.015 1.614 1.664 0 .289-.07.527-.16.527-.086 0-.203.152-.262.34-.113.348-1.266.512-1.266.18 0-.215-.93-.399-1.343-.266-.188.059-.344.25-.344.422 0 1.52 4.02.969 4.312-.594.059-.324.176-.586.258-.586.086 0 .152-.266.152-.59s-.078-.59-.168-.59c-.093 0-.167-.156-.167-.347 0-.188-.184-.512-.407-.719-.398-.371-.402-.379-.082-.77 1.36-1.675-.875-3.777-2.664-2.507m14.95 2.32c0 .09-.227.168-.505.168-.695 0-.73.625-.042.703.359.043.5.18.625.602.09.3.222.55.296.55.07 0 .133.227.133.504 0 .278-.058.508-.129.508-.066 0-.254.227-.41.504-.246.43-.39.508-.969.508-.668 0-.683.012-.683.59 0 1.058 1.36.824 2.144-.375l.27-.41.312.687c.496 1.082 1.157.969 2.29-.394.113-.141.21-.297.21-.344 0-.164-.984-.098-1.039.07-.152.434-.508-.219-.597-1.09-.121-1.152.109-1.433 1.16-1.433.668 0 .855-.434.539-1.25-.106-.285-1.074-.383-1.074-.11 0 .086-.145.203-.32.258a.68.68 0 0 0-.407.434c-.113.441-.402.422-.55-.04-.212-.667-1.255-1.199-1.255-.64m-9.777 2.105v.59h6.238v-1.18h-6.238zm-35.758 28.41c-.336.352-.715.872-.84 1.16-.129.286-.289.52-.359.52s-.129.121-.129.262c0 .145-.144.586-.324.977-.176.39-.375 1.183-.442 1.761-.066.575-.183 1.047-.265 1.047s-.149 1.367-.149 3.035.067 3.035.145 3.035c.082 0 .191.442.25.981.105 1.016.734 2.894.965 2.894.074 0 .183.239.246.528.11.492 1.504 2.172 1.8 2.172.25 0 .141-1.02-.117-1.121-.14-.055-.253-.184-.253-.29 0-.109-.188-.55-.422-.988-.23-.433-.422-.976-.422-1.207 0-.226-.07-.437-.156-.469-.594-.214-.614-10.882-.024-11.261.078-.051.195-.356.266-.68.07-.324.27-.793.441-1.039.176-.246.317-.52.317-.613 0-.09.113-.211.253-.262.31-.121.348-1.129.043-1.102-.117.012-.488.31-.824.66m28.004-.097c0 .32.106.64.23.715.126.074.325.441.446.812s.281.715.355.762c.078.05.227.66.332 1.352.106.691.258 1.386.34 1.55.203.391.196 6.961-.008 7.618-.085.285-.246 1.066-.351 1.738-.106.672-.254 1.222-.328 1.222s-.188.211-.25.465c-.067.254-.262.598-.442.766-.293.273-.48 1.469-.23 1.469.172 0 1.2-1.094 1.308-1.39.06-.165.184-.298.278-.298a.175.175 0 0 0 .176-.176c0-.097.144-.496.316-.886.176-.39.375-.973.445-1.297.067-.324.188-.63.266-.68.074-.05.191-.715.254-1.476.062-.762.18-1.383.262-1.383.078 0 .144-.875.144-1.942s-.066-1.937-.144-1.937c-.082 0-.2-.621-.262-1.383-.063-.762-.176-1.426-.254-1.477-.074-.05-.23-.488-.344-.976-.117-.484-.281-.883-.363-.883s-.152-.148-.152-.324a.9.9 0 0 0-.23-.559c-.126-.125-.349-.453-.49-.726-.234-.453-1.015-1.258-1.222-1.258-.043 0-.082.262-.082.582m-4.312 2.414c-.254.168-.575.8-.575 1.125 0 .383.633.324.758-.074.137-.434.555-.43.934.004.32.375.262 1-.117 1.226-.125.075-.227.219-.227.32s-.305.477-.676.829c-1.113 1.062-.96 1.328.766 1.328 1.387 0 1.441-.012 1.601-.43.278-.73.215-.972-.214-.836-1.047.336-1.586.317-1.223-.043 1.215-1.207 1.586-2.09 1.176-2.793-.406-.699-.543-.781-1.344-.781-.371 0-.758.055-.86.125m-21.148 2.234a28 28 0 0 1-.625.75c-.547.614.137.832.801.258.668-.578 1.777-.39 1.937.324.125.579-.16 1.364-.5 1.364-.14 0-.257.066-.257.152s-.227.207-.504.266c-.692.152-.645.55.082.687.324.059.59.168.59.238 0 .075.152.172.34.22.183.05.335.21.335.359 0 .144.075.27.168.27.34 0 .168.995-.25 1.444-.43.465-1.597.512-1.742.075-.168-.5-1.21-.176-1.21.375 0 .914.94 1.152 2.78.707 1.672-.407 2.524-3.13 1.329-4.239-.465-.433-.496-.652-.149-1 .414-.414.336-1.867-.125-2.351-.625-.66-2.433-.598-3 .101m113.309-.39c-.41.164-.852.703-.969 1.183-.059.258-.184.559-.27.672-.09.11-.109.281-.05.38.16.26.761.21.761-.063 0-.13.235-.434.52-.676 1.34-1.125 2.71.277 1.93 1.973-.407.882-.614 1.148-1.985 2.52-1.82 1.827-1.832 1.815 1.203 1.815h2.508l.188-.75c.105-.41.187-.828.187-.925 0-.305-.582-.2-.887.156-.23.27-.496.34-1.312.34-1.059 0-1.16-.14-.465-.64.168-.126.305-.306.305-.411 0-.102.226-.387.504-.633.59-.527 1.515-2.265 1.52-2.855 0-.547-.52-1.7-.774-1.7-.11 0-.246-.113-.297-.253-.098-.254-2.063-.352-2.617-.133m-97.453 2.578c0 .094-.153.168-.34.168q-.335 0-.336.34c0 .226.113.336.348.336.832 0 1.355 2.136.62 2.547-.163.09-.292.242-.292.34 0 .3-.555.761-.633.523-.172-.512-1.055-.012-1.055.594 0 1.082 1.668.656 2.34-.594.285-.535.469-.469.578.215.113.71.512 1.152.918 1.023.445-.14 1.332-1 1.465-1.418.148-.469-.375-.73-.61-.308-.242.433-.644.343-.644-.141 0-.234-.078-.422-.172-.422-.305 0-.176-1.004.207-1.582.301-.46.426-.535.649-.395.5.313.832.028.832-.714 0-.938-.707-.973-1.598-.086-.324.328-.598.5-.598.379-.02-.653-1.68-1.45-1.68-.805m103.669 0c0 .094-.23.168-.516.168-.672 0-.637.562.04.64.91.11 1.468 1.622.866 2.36l-.633.777c-.257.32-.382.364-.613.223-.586-.367-1.101.64-.586 1.156.344.344 1.613-.008 1.613-.45 0-.206.63-.827.84-.827.094 0 .172.21.172.469 0 .562.567 1.105 1.008.964.453-.144 1.352-1.113 1.352-1.457 0-.504-.317-.523-.758-.047l-.422.457v-.519c0-.281-.082-.543-.176-.574-.098-.031-.187-.36-.203-.73-.031-.833.617-1.669 1.07-1.38.606.383 1.043-.3.723-1.132-.223-.575-1.41-.176-1.86.628-.148.266-.206.235-.492-.296-.312-.586-1.425-.918-1.425-.43m-113.953 2.105v.594h6.574V75.52h-6.574zm99.964 0v.593h6.407V75.52h-6.407zm-110.586 9.695a.17.17 0 0 0 .172.168c.09 0 .168.183.168.41 0 .797.66 1.949 1.117 1.949.11 0 .235.094.274.211.05.164 1.613.23 6.73.297l6.664.082.489.578c.265.32.578.793.687 1.055.113.261.297.476.41.476.118 0 .047.168-.16.39-.203.216-.367.474-.367.579 0 .102-.113.3-.258.441-1.097 1.098-.703 6.684.57 8.07.774.844 1.247.317.532-.593-.188-.234-.336-.543-.336-.684 0-.14-.098-.285-.211-.324-.285-.094-.305-5.472-.024-5.652.106-.067.243-.36.305-.656.067-.293.215-.57.336-.618.125-.046.258-.457.3-.93.071-.702.196-.96.724-1.492l.64-.64 6.508-.047c5.164-.035 6.543-.094 6.676-.27.093-.125.328-.273.523-.335.192-.063.457-.317.586-.57.133-.255.285-.5.344-.548.402-.32.332-1.515-.09-1.515-.324 0-.437.086-.437.336 0 .187-.055.336-.13.336-.07 0-.203.164-.292.363-.426.933-.82.988-7.371.988-3.907 0-6.028.059-6.028.168 0 .09-.219.168-.484.168-.457 0-1.371.688-1.371 1.035 0 .305-.387.121-.938-.445-.355-.367-.734-.59-.996-.59-.234 0-.426-.078-.426-.168 0-.11-2.152-.168-6.109-.172-5.559 0-6.152-.027-6.563-.297-.574-.379-1.152-1.109-1.152-1.457 0-.183-.152-.265-.504-.265-.277 0-.508.074-.508.168m21.47 5.855c.054.348.214.715.355.817.16.12.293.62.363 1.398.062.668.18 1.25.258 1.3.191.118.187 1.923 0 1.923-.082 0-.188.504-.235 1.117-.05.617-.172 1.168-.265 1.226-.098.059-.258.32-.356.579-.625 1.644.461 1.039 1.313-.73.511-1.063.699-5.704.234-5.856-.113-.04-.21-.23-.21-.43 0-.336-.74-1.582-1.095-1.844-.351-.262-.46-.11-.363.5m-7.918 1.79c-.195.198-.41.534-.476.75-.079.245-.297.421-.614.484-.57.113-.715.73-.168.73.336 0 .336.371-.004 1.094-.085.187-.25.719-.367 1.18-.199.816-.222.843-.754.789-.511-.051-.546-.02-.546.464 0 1.04 1.671.547 1.953-.574.058-.234.171-.426.25-.426.074 0 .23-.457.34-1.011.109-.555.265-1.012.343-1.012.082 0 .149-.113.149-.254 0-.137.113-.25.254-.25.14 0 .25-.152.25-.34 0-.183-.075-.336-.168-.336-.274 0-.196-.312.168-.675.187-.184.34-.258.34-.168 0 .093.152.168.335.168.262 0 .336-.11.336-.504 0-.649-1.023-.715-1.62-.11m109.523 1.078c-.192.254-.422.551-.508.657s-.215.48-.281.836c-.106.57-.137.601-.258.27-.285-.77-2.34-.114-2.34.745 0 .106-.227.285-.508.403-.535.222-.71.84-.238.84.281 0 .195 1.324-.098 1.519-.07.047-.18.406-.246.8-.113.68-.148.716-.695.716-.5 0-.574.054-.574.421 0 .375.07.422.636.422.934 0 1.711-1.14 1.961-2.883.086-.605.207-.82.528-.968.44-.2.554-.625.203-.743-.516-.175.195-.902.812-.832.563.067.953 1.211.41 1.211-.093 0-.168.418-.168.926 0 .512.067.93.145.93s.187.433.238.969c.14 1.527.988 3.078 1.676 3.078.398 0 .383-.438-.035-.969-.188-.234-.34-.523-.34-.645a.32.32 0 0 0-.211-.285c-.156-.054-.21-.804-.21-2.992s.054-2.937.21-2.992c.117-.04.21-.215.21-.395s.153-.453.34-.613c.184-.16.337-.426.337-.59 0-.46-.602-.363-.996.164m4.703-.293c0 .09.07.168.152.168s.195.184.254.41c.055.223.234.54.395.704.804.8.222 7.82-.645 7.82-.086 0-.156.113-.156.254 0 .863 1.394-.227 1.726-1.352.11-.367.278-.726.375-.793.27-.183.235-4.886-.035-4.976-.117-.04-.21-.239-.21-.438 0-.414-.571-1.441-.973-1.758-.325-.25-.883-.277-.883-.039m-109.528.618c-.3.12-.261.343.125.73.602.598.332 1.586-.433 1.594-.574.008-.77.566-.328.933.316.258 1.101-.058 1.101-.449 0-.125.114-.222.25-.222.14 0 .254.078.254.18 0 .218.422.66.633.66.46 0 1.066-1.02.777-1.31-.207-.206-.308-.23-.355-.077-.121.355-.336.23-.43-.254-.113-.57.278-1.055.844-1.055.328 0 .398-.074.355-.379-.082-.562-1.046-.633-1.332-.101l-.207.382-.136-.37c-.133-.364-.602-.473-1.118-.262m106.79 2.804c-.563.223-.594.485-.086.711.472.203.558.61.27 1.262-.24.539-.407.633-.52.293-.118-.348-.657.207-.598.617.074.52.863.57 1.21.074l.266-.379.356.38c.55.59 1.328.241 1.332-.606.004-.406-.234-.508-.434-.184-.175.278-.441-.496-.312-.902.058-.18.316-.363.594-.418.382-.078.492-.192.492-.504 0-.523-.399-.672-.906-.34-.348.227-.446.23-.715.024-.364-.274-.336-.27-.95-.028M112.418 123.27c-.977 1.136-1.324 1.789-1.633 3.078-.11.46-.285.894-.383.96-.261.172-.257 7.688.004 7.852.106.067.29.559.406 1.09.122.535.274.969.344.969s.18.226.242.508c.059.277.176.503.254.503s.192.153.25.34c.285.89 1.77 1.739 1.77 1.008 0-.183-.074-.336-.168-.336s-.168-.117-.168-.258c0-.14-.113-.3-.254-.355-.137-.055-.254-.188-.254-.297 0-.11-.148-.492-.328-.848-.762-1.496-1.258-6.609-.86-8.875.09-.504.247-1.386.348-1.964.102-.575.293-1.258.426-1.516.137-.258.246-.563.246-.676 0-.117.23-.414.508-.664.582-.516.691-1.234.187-1.234-.175 0-.597.32-.937.715m8.672-.29c0 .368.52 1.325.867 1.598.059.043.2.422.313.84s.293.941.398 1.164c.27.57.266 8.75-.008 9.305-.11.222-.285.804-.394 1.289-.11.488-.266.887-.348.887-.086 0-.152.109-.152.246 0 .136-.153.328-.34.43-.41.218-.48 1.179-.082 1.179.277 0 .926-.582.926-.836 0-.09.105-.219.23-.293.297-.176 1.117-1.73 1.117-2.117 0-.16.07-.297.153-.297.168 0 .523-1.82.523-2.668 0-.293.074-.535.168-.535.102 0 .168-.758.168-1.938 0-1.066-.063-1.937-.145-1.937-.078 0-.195-.54-.254-1.195-.062-.657-.261-1.528-.445-1.93-.183-.402-.336-.832-.34-.953 0-.121-.152-.41-.332-.64-.18-.235-.332-.481-.332-.552-.008-.191-1.328-1.472-1.523-1.472-.094 0-.168.191-.168.425m-14.145 3.13c-.355.14-.539.312-1.156 1.078-.074.093-.238.417-.36.718-.124.301-.292.547-.374.547s-.149.106-.149.234c0 .133-.25.282-.59.344-.793.149-.859.77-.082.77.563 0 .61.144.274.808-.13.254-.285.817-.348 1.258-.062.442-.176.801-.246.801-.074 0-.227.531-.344 1.18s-.28 1.18-.363 1.18c-.086 0-.156.14-.156.308s-.188.484-.418.703c-.395.367-.422.375-.422.07 0-.18-.145-.414-.32-.523-.5-.313-.903.074-.832.797.132 1.418 2.714.578 3.199-1.04.11-.359.254-.652.324-.652s.184-.246.25-.546c.063-.305.18-.59.258-.641.074-.047.234-.598.351-1.219.121-.625.27-1.133.332-1.133.063 0 .168-.304.23-.675.102-.606.165-.676.606-.676.375 0 .489-.074.489-.336 0-.227-.114-.336-.348-.336-.254 0-.324-.082-.262-.297a14 14 0 0 0 .203-.773c.2-.836 1.082-1.614 1.082-.954 0 .274.114.336.59.336.547 0 .59-.035.59-.527 0-.871-.922-1.238-2.008-.805m8.707 2.973c-.851.09-.914.672-.082.75.453.047.575.148.707.602.09.3.223.55.297.55s.133.262.133.586c0 .328-.07.59-.156.59s-.203.145-.258.32c-.195.614-.664.965-1.273.954-.895-.012-.918 1.14-.024 1.226.594.059 1.375-.469 1.375-.926 0-.125.078-.222.172-.222.098 0 .242-.172.328-.38l.152-.378.012.379c.004.21.078.515.164.676.086.16.2.425.25.586.242.792 2.461-.364 2.461-1.286 0-.379-.437-.34-.847.07-.485.481-.774.145-.926-1.074-.153-1.207.277-1.789 1.32-1.792.637-.004.64-.008.59-.637-.086-1.016-2.16-.625-2.16.41 0 .46-.305.2-.407-.352-.109-.574-.386-.8-.914-.746z"/><g clip-path="url(#b)"><path fill="#242424" fill-rule="evenodd" d="M118.813 26.75c-.973.121-1.262.23-1.262.477 0 .14.152.25.351.25.29 0 .332.078.258.464-.05.254-.14.739-.2 1.079l-.105.613-1.207.062c-1.296.07-2.644 1.043-2.91 2.102-.058.219-.168.402-.254.402-.082 0-.148.414-.148.922 0 .941.328 1.606.797 1.606.117 0 .215.074.215.168 0 .093.152.167.336.167.187 0 .336-.074.336-.167s.136-.168.3-.168.45-.172.63-.38c.292-.335.331-.347.386-.085.031.164.129.297.215.297s.156.113.156.254c0 .136.148.25.336.25.187 0 .34-.075.34-.168s.086-.168.191-.168c.266 0 .989-.809.989-1.106 0-.133-.141-.242-.313-.242-.285 0-.3-.074-.148-.844.093-.465.226-.844.296-.844.075 0 .184-.378.247-.843.066-.461.171-.84.238-.84s.219-.496.34-1.098c.12-.605.285-1.14.367-1.191.238-.145.183-1.086-.059-1.059-.117.016-.437.055-.719.09m5.145 11.938v9.355h4.215v-.844h-3.375V30.344h3.375v-1.012h-4.215zm71.98-8.852v.508h3.032v16.855h-1.516c-1.508 0-1.516.004-1.516.422v.422h4.211V29.332h-4.21zm-78.739.664c.2.125.196.238-.043.738-.156.325-.281.63-.281.684 0 .281-1.371 1.96-1.602 1.96-.218 0-.78-.726-.632-.82.09-.058.214-.386.277-.734.066-.344.207-.687.32-.758s.313-.336.442-.586c.297-.578 1.011-.808 1.52-.484m45.933 7.824c-.278.73-.008 1.207.691 1.207h.672v-.676c0-.73-1.117-1.167-1.363-.53m-53 .448v.504h12.305v-1.011h-12.305zm5.687 3.657c-.36.093-.394.554-.039.554.176 0 .25.18.25.594 0 .324-.066.59-.144.59-.082 0-.192.207-.242.46-.086.446-.13.462-.95.407-.488-.035-.855.012-.855.11 0 .09-.168.207-.38.261-.452.114-1.644 1.235-1.644 1.547 0 .121-.09.25-.203.29-.261.085-.383 2.468-.144 2.823.293.438 2.02.344 2.332-.125.136-.21.312-.379.386-.379s.16.168.192.38c.074.535 1.039.632 1.348.136.273-.437.41-.441.523-.012.16.618.984.438 1.734-.375.61-.66.664-.683.715-.34.031.208.117.38.192.38.074 0 .175.152.226.335.219.84 1.973-.093 1.973-1.046 0-.551-.332-.618-.637-.133-.324.52-.496.406-.617-.422-.063-.418-.188-.758-.273-.758s-.157-.113-.157-.254c0-.137.067-.254.145-.254.082 0 .242-.226.36-.504.198-.484.503-.687.503-.336 0 .258.668.2.953-.086.137-.136.227-.46.2-.714-.087-.72-.981-.746-1.672-.055-.485.484-.829.55-.829.156 0-.332-.488-.652-1-.652-.285 0-.515.078-.515.168 0 .094-.153.172-.34.172q-.335 0-.336.336c0 .257.113.336.488.336.95 0 1.094 2.43.184 3-.207.128-.5.128-1.027-.004-.934-.227-.887-.16-.598-.844a7.4 7.4 0 0 0 .36-1.281c.066-.387.171-.703.241-.703.067 0 .223-.512.344-1.137.125-.625.281-1.176.348-1.223.07-.047.18-.406.246-.8l.117-.715-.73.019c-.403.012-.864.055-1.028.098m-.894 4.332c-.008.578-.094.86-.297.972-.152.086-.281.23-.281.325 0 .629-1.586 1.457-1.79.93-.109-.298.231-1.602.497-1.876a6 6 0 0 0 .449-.582c.652-.972 1.437-.843 1.422.23M84.508 63.704c-.73.129-.867.77-.168.785q.422.013.36.254l-.263.996-.199.75-1.074.016c-.68.008-1.102.09-1.144.219-.036.109-.145.203-.243.203-.25 0-1.648 1.383-1.648 1.625 0 .113-.125.328-.277.48-.422.422-.41 2.082.02 2.57.526.606 1.753.536 2.526-.144l.594-.523v.523c0 .703.844.758 1.457.094.434-.469.54-1.254.168-1.254q-.23 0-.148-.422c.043-.234.144-.422.219-.422.078 0 .19-.36.257-.8.063-.442.176-.84.246-.887.075-.047.23-.579.352-1.18.121-.602.281-1.14.355-1.191.075-.055.184-.489.243-.97l.101-.874-.57.023a10 10 0 0 0-1.164.13m-.887 4.35c-.05.438-.172.825-.273.86s-.188.129-.188.215c0 .289-.93 1.46-1.347 1.7-.66.374-1.231-.29-.856-1 .082-.161.246-.54.356-.84.113-.302.269-.548.351-.548s.148-.117.148-.257.192-.34.422-.446c.23-.11.422-.258.422-.336s.239-.14.528-.14h.527zm59.55 8.14v7.922h4.384v-1.18h-3.371V69.114h3.37v-.84h-4.382zm9.777-7.5c0 .418.008.418 1.602.418h1.601v13.825h-3.203v1.18h4.215V68.272h-4.215zm53.27 7.5v7.922h4.215v-1.18h-3.204V69.114h1.602c1.594 0 1.602 0 1.602-.418v-.422h-4.215zm23.937-7.5c0 .418.004.418 1.602.418h1.601v13.825h-3.203v1.18h4.383V68.272h-4.383zm-65.238 5.645v1.351h-2.863v1.012h2.863v1.262c0 1.238.012 1.265.422 1.265.414 0 .422-.027.422-1.265v-1.262h2.527v-1.012h-2.527V74.34c0-1.324-.008-1.348-.422-1.348s-.422.024-.422 1.348m-72.992.676v.504h6.07v-1.008h-6.07zm44.87.484c-.132.086-.202.367-.167.715.078.808 1.363.894 1.457.097.09-.792-.617-1.238-1.29-.812m66.009.086c-.793.602-.09 1.48.968 1.215.59-.149.622-1.188.043-1.344-.535-.14-.675-.125-1.011.129m-126.633.25c-.277.883-.402.867 6.586.867h6.472V75.52h-6.48c-6.164 0-6.484.015-6.578.316m15.754 1.539v.508h6.07V76.87h-6.07zm-9.184 2.344c-.894.11-1.387.691-.582.691.399 0 .387 1.524-.012 1.656-.093.032-.168.188-.168.348 0 .23-.117.273-.59.219-2.574-.301-5.265 3.383-3.699 5.07.618.668 1.602.649 2.293-.043.278-.281.532-.508.563-.508s.11.227.172.508c.136.633.847.703 1.336.133l.316-.367.137.367c.238.64 2 .215 2-.484 0-.16.613-.829.762-.829.046 0 .082.184.082.41 0 1.7 1.878 1.536 2.437-.214.14-.446-.402-.52-.812-.114-.364.364-.446.317-.446-.253 0-.278-.066-.504-.148-.504-.348 0-.285-.977.094-1.45.312-.394.492-.472.976-.43.594.052.598.048.598-.636 0-.676-.012-.687-.598-.687-.59 0-1.426.59-1.426 1.003 0 .383-.32.149-.367-.27-.074-.62-.45-.8-1.375-.663-.887.133-1.203.773-.379.773.317 0 .434.114.52.504.058.278.18.547.265.598.2.125.204 1.09.008 1.09-.082 0-.246.246-.37.547-.333.828-1.173.988-1.813.347-.23-.23-.016-1.719.308-2.16.07-.094.18-.473.246-.844.067-.37.192-.757.282-.867.085-.105.238-.652.34-1.219.097-.566.246-1.03.331-1.03.082 0 .149-.192.149-.423 0-.453.047-.445-1.43-.27m-1.336 3.794c.114.293-.226 1.593-.492 1.886a11 11 0 0 0-.617.817c-1.336 1.902-2.11.137-.805-1.828.66-.992 1.688-1.465 1.914-.875m61.766 2.222c0 1.141.039 1.293.34 1.371.183.047.336.153.336.235s1.043.152 2.316.152c2.828.004 3.04.051 3.215.735.215.832 1.125.867 1.281.05.137-.746.29-.78 3.176-.785 1.273 0 2.316-.07 2.316-.152s.153-.188.336-.235c.188-.05.34-.21.34-.359 0-.148.074-.266.168-.266s.168-.453.168-1.011v-1.012h-.504c-.46 0-.508.05-.508.555 0 .902-.168.96-2.73.96-1.438 0-2.328.063-2.328.169 0 .093-.094.168-.215.168-.117 0-.344.152-.5.336-.3.351-.711.308-.867-.094a.4.4 0 0 0-.348-.242c-.144 0-.258-.075-.258-.164 0-.094-.992-.18-2.402-.211l-2.402-.043-.055-.72c-.043-.632-.098-.714-.461-.714-.402 0-.414.035-.414 1.277m63.047-.437c0 .371.066.676.148.676.086 0 .2.191.258.425.102.403.652 1.09.875 1.09.055 0 .34.114.633.25.418.196 1.558.258 5.433.293l4.899.047.605.508c.332.277.653.715.715.969.176.715 1.27.558 1.27-.184 0-1.094 1.347-1.375 6.59-1.375 4.875 0 5.05-.027 6.101-1.012.656-.609.887-2.359.313-2.359-.25 0-.364.105-.364.336 0 .187-.054.336-.125.336-.07 0-.222.21-.336.465-.441.988-.804 1.054-5.683 1.054-5.621 0-6.324.13-6.961 1.27-.153.266-.227.238-.75-.3-.867-.895-1.371-.97-6.582-.97-3.008 0-4.68-.062-4.68-.168 0-.093-.101-.168-.226-.168-.368 0-.899-.554-1.18-1.226-.383-.918-.953-.89-.953.043m-61.528 5.566c0 .184.075.336.168.336.09 0 .168.117.168.266 0 .312-.398.746-.683.746-1.211 0-2.184 1.05-2.184 2.355 0 .825.488 1.16 1.29.895.308-.102.636-.098.945.02.64.242 1.578-.633 1.07-1.004-.297-.215-.238-1.426.07-1.426.074 0 .188-.38.25-.84.067-.465.184-.844.27-.844.082 0 .152-.191.152-.422 0-.386-.062-.422-.758-.422-.648 0-.758.051-.758.34m69.899.953c-.203.207-.113.563.14.563.473 0 .29.66-.21.766-1.614.347-2.403 1.199-2.403 2.59q0 1.405 1.406.87c.317-.12.45-.117.45.012 0 .254 1.02.04 1.343-.285.204-.203.215-.312.043-.582-.265-.43-.261-.7.036-1.266.128-.257.289-.832.351-1.285.063-.453.184-.82.266-.82s.152-.152.152-.336c0-.34-1.277-.523-1.574-.227m-70.07 1.41c0 .188-.114.387-.25.438-.141.055-.254.188-.254.297 0 .234-.668.84-.79.719-.046-.047-.035-.32.032-.61.195-.906 1.262-1.613 1.262-.843m69.863 1.21a1.8 1.8 0 0 1-.305.567c-.105.11-.3.36-.437.558-.496.715-.727.043-.301-.87.312-.665 1.246-.895 1.043-.254m-74.242 3.167c0 .329.109.336 3.789.336 3.683 0 3.793-.007 3.793-.336 0-.328-.11-.34-3.793-.34-3.68 0-3.79.012-3.79.34m69.958 1.18c0 .328.109.336 3.789.336 3.683 0 3.797-.008 3.797-.336s-.114-.336-3.797-.336c-3.68 0-3.79.008-3.79.336m-66.378.961c-.418.082-.528.555-.125.555.14 0 .254.113.254.254 0 .14-.075.254-.168.254s-.168.101-.168.23c0 .137-.262.273-.653.336-1.168.188-2.047 1.23-2.047 2.434 0 .882.887 1.32 1.59.785.258-.192.36-.2.461-.035.25.406 1.7.3 2.121-.157.211-.226.38-.324.38-.218 0 .59.66.796 1.269.398.508-.336.562-.91.082-.91-.211 0-.371-.149-.438-.41-.132-.535.024-.77.512-.77.379 0 .598-.277.598-.77 0-.386-.809-.492-1.184-.152-.308.278-.332.278-.437.004-.09-.23-.235-.265-.692-.18l-.586.11.121-.559c.067-.308.188-.586.27-.617.082-.027.148-.2.148-.379 0-.328-.363-.383-1.308-.203m69.875 1.176c-.36.098-.395.558-.043.558.14 0 .254.079.254.168a.173.173 0 0 1-.168.172c-.094 0-.168.188-.168.414 0 .29-.074.387-.235.329-.277-.11-1.62.226-1.62.402 0 .066-.192.34-.423.61-.464.538-.593 1.823-.21 2.066.593.37 3.703.203 4.097-.223l.387-.418.055.39c.074.516.628.587 1.113.137.492-.46.472-.675-.059-.675-.394 0-.426-.051-.379-.63.043-.5.118-.624.352-.581.348.058.797-.336.797-.704 0-.359-.645-.519-1.11-.269-.308.164-.449.168-.636.012-.141-.118-.43-.157-.684-.09l-.441.11.109-.946c.121-1.016.023-1.094-.988-.832m-68.91 1.234c.425 0 .632.844.27 1.11-.145.105-.263.277-.263.382 0 .22-.328.25-.609.063-.137-.09-.137-.395 0-1.121.102-.55.211-.875.242-.719.028.156.192.285.36.285m-1.512.254c0 .23-.074.422-.164.422s-.211.184-.27.406c-.101.41-.488.68-.746.52-.125-.078-.058-.387.27-1.297.09-.25.316-.383.785-.453.07-.012.125.168.125.402m69.957 1.094c0 .187-.074.34-.168.34s-.168.097-.168.219c0 .308-.637.957-.934.957a.25.25 0 0 1-.246-.25c0-.141.067-.254.149-.254.086 0 .199-.184.254-.41.203-.81 1.113-1.301 1.113-.602m1.855.336c0 .637-.437 1.168-.87 1.055-.598-.157-.098-1.56.554-1.56.238 0 .316.126.316.505M90.746 118.492c-.902.121-1.273.86-.433.86.32 0 .433.085.433.335 0 .188-.066.336-.152.336-.082 0-.203.383-.27.844-.094.707-.422 1.223-.422.676 0-.094-.34-.168-.757-.168-.418 0-.758.074-.758.168s-.153.168-.336.168c-.188 0-.477.137-.645.309-.172.168-.437.355-.59.414-.156.058-.285.191-.285.289 0 .101-.18.351-.398.554-.836.774-.98 3.66-.184 3.66.137 0 .246.075.246.168s.227.168.508.168c.277 0 .504-.074.504-.168 0-.093.098-.168.219-.168.351 0 1.125-.406 1.133-.59.004-.093.125.079.273.38.254.511.902.785.902.378 0-.093.102-.168.227-.168.34 0 .953-.738.953-1.148 0-.215-.105-.371-.25-.371-.273 0-.355-.59-.105-.746.082-.05.242-.586.355-1.192.117-.601.266-1.097.34-1.097.07 0 .18-.336.242-.75.063-.414.223-.969.356-1.238.132-.27.293-.84.351-1.274.121-.879.188-.848-1.457-.629m8.387 3.453c-.16.125-.293.301-.293.395s-.11.262-.238.367c-.207.172-.88 1.45-1.293 2.461-.243.582-.493 1.668-.493 2.133 0 .246-.09.48-.195.515-.266.09-.297 6.672-.035 6.84.102.067.238.574.305 1.13.12 1.019 1.308 3.792 1.625 3.792.086 0 .156.113.156.246 0 .336.668.934 1.043.934.41 0 .39-.52-.035-1.008-.184-.215-.336-.488-.336-.605 0-.118-.117-.333-.262-.477-.144-.145-.309-.55-.363-.898-.055-.348-.164-.676-.242-.727-.235-.156-.477-3.121-.477-5.809 0-2.687.242-5.652.477-5.804.078-.051.187-.38.242-.73.054-.348.219-.75.363-.895.145-.145.262-.375.262-.508s.152-.371.336-.531c.738-.63.218-1.403-.547-.82m54.324.105c0 .32.3.996.523 1.176.06.046.165.273.235.507.07.23.2.465.285.524.086.055.246.62.352 1.262.105.64.273 1.218.367 1.285.246.168.242 8.867-.004 9.03-.098.067-.262.669-.363 1.337-.102.672-.305 1.34-.454 1.488-.148.149-.27.344-.27.434s-.151.324-.335.523c-.434.465-.453 1.14-.031 1.14.332 0 .925-.57 1.097-1.05.055-.164.176-.297.266-.297.086 0 .207-.222.266-.492.058-.273.214-.582.343-.688.13-.109.286-.53.344-.94.063-.411.172-.743.242-.743.254 0 .508-2.598.508-5.227 0-2.632-.254-5.226-.508-5.226-.07 0-.183-.278-.246-.614a5.2 5.2 0 0 0-.437-1.218c-.18-.336-.328-.668-.328-.742 0-.278-1.422-1.81-1.68-1.81-.094 0-.172.153-.172.34m-64 .31c.27.292.238 1.374-.039 1.374-.059 0-.2.207-.316.461-.633 1.399-2.082 2.34-2.297 1.493-.11-.438.039-1.45.215-1.45.058 0 .203-.218.32-.488a3.6 3.6 0 0 1 .62-.883c.962-.949 1.067-.984 1.497-.508m97.977 2.422c-.555.79-.27 1.633.328.977.36-.403.804-.434 1.152-.09.262.262.195.86-.133 1.207-.097.11-.476.543-.84.973-.363.425-.761.773-.886.773-.121 0-.223.152-.223.336 0 .316.113.34 1.668.34h1.668l.113-.61c.145-.777.02-.886-.605-.527-1.098.633-1.438.344-.567-.48.328-.305.641-.79.7-1.07.054-.286.168-.516.25-.516.347 0 .109-.82-.36-1.239-.672-.597-1.87-.636-2.265-.074M177 126.203c-.574.164-1.293 1.082-1.293 1.649 0 .382.633.328.883-.07.156-.25.39-.34.918-.34.558 0 .726.07.812.34.059.183.176.335.266.335.086 0 .156.188.156.422 0 .23-.07.418-.156.418-.09 0-.207.148-.262.328-.058.184-.32.375-.601.434-.274.062-.5.18-.5.265s-.118.157-.262.157c-.566 0-.156.574.508.71 1.031.215 1.574.993 1.367 1.946-.129.57-1.035 1.152-1.367.875-.535-.442-2.098-.41-2.098.043 0 .644.492.976 1.445.972 1.657-.007 2.082-.214 3.145-1.5.457-.558.258-2.457-.316-2.992-.532-.496-.532-.496-.215-.91 1.273-1.656-.328-3.687-2.43-3.082m26.648.004c-.253.043-.464.145-.464.223 0 .082-.153.195-.344.254-.203.066-.383.312-.442.601-.054.274-.164.496-.246.496-.351 0 .051 1.543.528 2.02.48.484.523.66.222.96-1.785 1.802-.914 3.844 1.637 3.844 2.613 0 3.387-2.101 1.469-3.996-.492-.488-.594-.808-.258-.808.79 0 1.398-2.75.664-2.996-.11-.035-.305-.172-.43-.297-.25-.25-1.601-.426-2.336-.301m22.082-.008c-.16.047-.292.156-.292.242s-.118.157-.258.157-.344.191-.45.422c-.105.234-.253.421-.332.421-.078 0-.14.153-.14.34 0 .45.566.442 1.027-.02.469-.468 1.41-.5 1.746-.058.52.692.172 1.848-.605 2.02-.266.058-.485.175-.485.261s-.113.157-.254.157c-.14 0-.25.148-.25.336 0 .273.11.335.583.335 1.468 0 2.19 1.895 1.02 2.657-.665.43-.872.469-.97.176-.129-.383-1.89-.274-1.941.12-.09.708.195.84 1.785.837l1.496-.004.742-.754.739-.754v-1.266c0-1.27-.246-1.824-.918-2.047q-.198-.065.148-.468c.191-.22.348-.504.348-.63 0-.124.078-.226.168-.226.093 0 .172-.226.172-.504 0-.281-.07-.508-.153-.508s-.195-.187-.254-.421c-.058-.23-.214-.422-.343-.422s-.262-.075-.293-.172c-.063-.192-1.578-.36-2.036-.227m-20.558 1.016c.601.601.203 2.055-.574 2.074-.336.012-1.075-.871-1.075-1.281 0-.961 1-1.442 1.649-.793m13.016 2.25v1.347h-2.696v1.18h2.696v2.531h1.011v-2.53h2.696v-1.18h-2.696v-2.696h-1.012zm-36.285-.383c-.761.078-.957.719-.218.719.441 0 .933.554.933 1.05 0 .165.078.301.172.301.09 0 .168.188.168.418 0 .235-.07.422-.16.422-.086 0-.207.16-.27.356-.238.757-.746 1.144-1.37 1.039l-.583-.094.051.656c.082.996 1.992.813 1.992-.191 0-.094.153-.262.34-.375.3-.192.336-.172.336.21 0 .231.066.423.148.423s.188.152.239.336c.175.68 1.972.132 1.972-.602 0-.129.078-.238.168-.238.094 0 .172-.153.172-.34 0-.445-.605-.45-.84-.004-.324.602-.648.21-.77-.922-.152-1.426.169-1.926 1.24-1.934l.726-.003-.051-.633c-.086-1.047-2.16-.738-2.16.316 0 .344-.313.11-.418-.316-.063-.254-.203-.516-.313-.586-.199-.125-.36-.13-1.504-.008m26.887 0c-.684.082-.812.719-.144.719.953 0 1.359 1.629.69 2.77-.472.808-.503.824-1.39.777-.52-.032-.547 0-.547.558 0 1.203 1.532.992 2.29-.316.312-.54.527-.453.64.25.219 1.375 2.11.984 2.406-.496.125-.621-.507-.766-.668-.153-.168.637-.507.239-.73-.863-.191-.926-.188-1.113.027-1.351.137-.149.25-.364.25-.473 0-.125.313-.195.852-.195h.855l-.054-.633c-.078-.953-1.032-1.012-1.899-.121q-.597.613-.597.347c0-.148-.067-.27-.149-.27s-.187-.152-.238-.335c-.09-.348-.305-.375-1.594-.215m-49.266 1.227v.504h6.239V129.8h-6.239zm-32.863.41c-.351.426-.152 1.351.305 1.414.8.113 1.207-.106 1.207-.66 0-.875-.996-1.371-1.512-.754m-44.847.515v.422H95.13v-.844H81.812zm86.813.168v.59h6.746v-1.18h-6.746zm24.613 0v.59h6.742v-1.18h-6.742zm11.563.29c.41.386.742.796.742.91s.098.238.21.277c.153.05.134.144-.07.348-.152.152-.304.363-.34.464-.218.657-1.8.036-1.816-.714-.004-.153-.101-.325-.214-.38-.172-.077-.172-.117 0-.195a.4.4 0 0 0 .21-.328c0-1.129.38-1.242 1.278-.383m-45.278.723v.422h6.239v-.844h-6.239zm-71.601 2.727c-.352.14-.25.73.129.73.347 0 .484.563.183.75-.086.05-.207.399-.27.766-.097.593-.589 1.011-.589.508 0-.094-.223-.168-.496-.168-.274 0-.543.074-.598.168-.058.09-.254.167-.437.167-.184 0-.38.114-.43.254-.055.137-.203.25-.336.25-.312 0-1.36 1.086-1.508 1.567-.066.203-.191.422-.28.48-.333.211-.235 2.219.12 2.633.516.59 1.723.531 2.469-.121l.57-.5.082.457c.11.574.965.734 1.43.27.273-.274.305-.274.453-.008.39.695 2.469-.32 2.516-1.227.011-.226.023-.23.097-.008.043.137.145.403.223.59.078.184.184.469.234.633.121.379 1.25.414 1.395.04.05-.138.172-.25.262-.25.25 0 .796-.72.804-1.056.008-.418-.53-.37-.922.082-.32.372-.332.372-.394.043-.035-.183-.14-.382-.234-.441-.81-.512.007-2.594.937-2.402.871.175 1.395-.68.785-1.286-.355-.355-.844-.453-.844-.167 0 .09-.093.167-.21.167-.114 0-.458.266-.754.59l-.543.594-.114-.465c-.132-.558-.765-1.23-.867-.922-.039.118-.379.203-.812.203-.926 0-1.106.56-.235.735.399.078.532.21.614.61.054.28.168.511.246.511.207 0 .187 1.148-.024 1.394-.094.114-.344.415-.554.672-.375.457-1.465.536-1.465.102 0-.078-.114-.145-.254-.145s-.25-.152-.25-.34c0-.183.062-.335.14-.335s.239-.532.352-1.18c.117-.649.27-1.18.344-1.18.07 0 .18-.308.242-.683.058-.375.176-.809.262-.97.156-.288.511-1.718.511-2.046 0-.18-1.57-.234-1.98-.066m-.578 3.964c.062.34-.77 2.16-.992 2.16-.086 0-.157.083-.157.188 0 .258-.71.984-.968.988-.118.004-.211.082-.211.18s-.164.024-.36-.16c-.414-.387-.363-1.34.098-1.8.144-.145.262-.337.262-.427 0-.879 2.171-1.937 2.328-1.129m160.68 24.23v3.048h.851l-.047-2.992c-.043-2.957-.05-2.993-.426-3.047l-.379-.055zm17.02-2.77c-.004.141-.008 1.43-.008 2.868s.004 2.687.008 2.78c.031.72.68.083.68-.663 0-.781.312-1.352.476-.863.04.117.215.34.39.488.173.148.317.351.317.449 0 .496 1.067.969 1.235.547.07-.168.09-.168.097 0 .016.246 2.207.308 2.207.062 0-.082.153-.187.336-.238.824-.215.192-2.14-.707-2.14-.168 0-.304-.07-.304-.153s-.188-.195-.422-.254c-.985-.25-.48-.66.675-.554 1.079.101 1.094.097 1.094-.313 0-.297-.09-.414-.324-.414-.18 0-.375-.074-.434-.168-.254-.414-1.71-.016-2.144.586-.07.094-.125 0-.13-.207-.003-.617-.581-.457-1.468.406l-.808.785-.047-1.629c-.047-1.488-.078-1.629-.38-1.629-.183 0-.335.118-.339.254m6.695-.14c-.062.062-.113 1.43-.113 3.035v2.922h.422c.418 0 .422-.012.422-1.492 0-1.688.238-2.121 1.12-2.02l.481.055.094 3.476.457-.05.461-.055.047-1.727c.031-1.11-.016-1.726-.129-1.726-.094 0-.172-.11-.172-.242 0-.133-.238-.36-.531-.504-.602-.301-1.324-.352-1.324-.098 0 .094-.114.168-.254.168-.192 0-.25-.215-.25-.926 0-.902-.305-1.242-.73-.816m-30.68.496c-1.766.957-1.903 5.125-.168 5.125.12 0 .222.074.222.168 0 .3 2.309.207 2.426-.098.254-.656.133-.746-.984-.746-1.535 0-2.004-.434-1.993-1.84.016-1.523.754-2.082 2.54-1.91.777.074.878.047.875-.23 0-.684-1.946-.996-2.918-.47m4.098 1.08c0 .094-.152.168-.34.168-.246 0-.336.113-.336.422 0 .414.02.422.926.316.871-.101.93-.086.93.25 0 .301-.102.36-.59.36-.324 0-.59.07-.59.152s-.207.203-.465.266c-.797.199-1.105 1.87-.379 2.062.184.05.336.156.336.238s.305.149.676.149.676-.074.676-.168.113-.168.25-.168c.14 0 .254.074.254.168s.152.168.336.168c.363 0 .527-3.317.191-3.848-.332-.523-1.875-.965-1.875-.535m5.266.137c-.301.144-.547.328-.547.41s-.113.266-.254.402c-.16.164-.25.574-.25 1.13.004 1.237.137 1.589.691 1.835.266.117.489.27.489.34 0 .27 1.812.14 1.918-.137.27-.699-.493-1.097-1.043-.543-.157.156-.203.156-.203 0 0-.113-.102-.203-.227-.203-.71 0-1.059-1.531-.492-2.187.476-.559 2.066-.496 2.066.082 0 .23.063.422.14.422.079 0 .231.5.345 1.113.289 1.558 1.086 2.215 1.312 1.078.055-.281.168-.508.25-.508.078 0 .149-.094.149-.21.003-1.212.625-1.688.66-.509.035 1.16 1.36 2.524 1.36 1.403 0-.18.065-.368.144-.414.078-.051.242-.66.363-1.36.117-.699.281-1.27.36-1.27.081 0 .144-.19.144-.421 0-.926-.961-.563-1.094.414-.16 1.148-.52 1.43-.672.52-.066-.376-.187-.68-.27-.68-.085 0-.156-.153-.156-.34 0-.246-.113-.336-.422-.336-.261 0-.417.094-.417.254 0 .137-.07.254-.16.254-.087 0-.25.414-.364.926-.258 1.148-.414 1.171-.559.085-.062-.464-.183-.843-.273-.843s-.164-.149-.164-.328c0-.356-.473-.582-.887-.426-.14.058-.308.02-.37-.078-.153-.25-.907-.188-1.567.125m8.43 0c-.301.144-.547.355-.547.468s-.098.243-.211.282c-.688.226-.075 3.16.656 3.16.125 0 .226.074.226.168s.344.168.762.168c.414 0 .758-.059.758-.13 0-.07.168-.202.379-.292 1.113-.492.82-3.774-.34-3.79-.113-.003-.207-.077-.207-.171 0-.246-.84-.168-1.477.137m4.508-.149c0 .098-.265.18-.59.18h-.59v2.105c0 1.997.02 2.11.34 2.11.309 0 .336-.113.336-1.348 0-.742.07-1.347.157-1.347.086 0 .18-.172.21-.383.044-.305.18-.387.696-.43.59-.05.64-.094.59-.508-.051-.46-1.149-.82-1.149-.379m13.657 0c0 .082-.223.203-.497.262-.37.082-.52.23-.601.605-.059.27-.18.493-.266.493-.566 0 .102 2.496.711 2.656.172.043.317.148.317.23s.378.149.84.149c.464 0 .843-.074.843-.168s.11-.168.246-.168c.692 0 1.067-2.227.528-3.137-.461-.777-2.121-1.504-2.121-.922m4.214.012c0 .094-.265.168-.59.168h-.59v2.95c0 2.839.012 2.948.337 2.948.37 0 .39-.054.363-1.261-.012-.465.023-.75.074-.633.117.254 1.754.293 1.754.043 0-.094.113-.168.25-.168.766 0 1.09-2.172.48-3.211-.433-.727-2.078-1.39-2.078-.836m5.438.148c-.297.149-.543.364-.547.47 0 .109-.094.226-.203.265-.735.242-.152 3.164.633 3.164.132 0 .242.074.242.168s.41.168.906.168c.918 0 1.117-.137 1.117-.774 0-.3-.949-.324-1.07-.027q-.084.206-.227.043c-.074-.094-.289-.254-.472-.355-.25-.137-.352-.395-.39-.965-.079-1.203.14-1.461 1.237-1.461.782 0 .922-.047.922-.313 0-.648-1.187-.863-2.148-.383m3.664-.148c0 .094-.082.168-.188.168-.293 0-.984.73-.988 1.043-.004.156-.078.332-.172.39-.21.13-.222.876-.02 1 .083.051.2.356.259.676.07.368.23.618.441.688.184.055.332.176.332.262 0 .085.379.156.844.156.46 0 .84-.074.84-.168s.105-.168.226-.168c.856 0 1.27-2.555.531-3.29-.793-.784-2.105-1.257-2.105-.757m4.215 0c0 .094-.266.168-.59.168h-.59v4.215h.422c.418 0 .422 0 .422-1.676 0-1.828.129-2.039 1.105-1.793.399.102.41.145.41 1.785 0 1.684 0 1.684.422 1.684s.422 0 .422-1.676c0-1.828.13-2.039 1.106-1.793.398.102.41.145.41 1.785 0 1.57.023 1.684.336 1.684.32 0 .34-.113.34-1.98l-.004-1.981-.52-.297c-.543-.309-1.332-.395-1.332-.145 0 .282-.75.344-1.129.098-.43-.281-1.23-.332-1.23-.078m-34.305.973c.79.578.645 2.398-.187 2.398-.13 0-.239.094-.247.211-.011.168-.03.168-.097 0-.047-.117-.168-.21-.27-.21-.73 0-1.086-1.52-.511-2.188.289-.34.988-.45 1.312-.211m7.84.25c.008.625.418.96 1.812 1.48 1 .371.196.875-1.054.656-.406-.07-.719-.05-.781.055-.063.094-.247-.047-.422-.316a8 8 0 0 0-.602-.805c-.309-.344-.277-.473.277-1.07.446-.48.77-.485.77 0m9.89-.278c.704.188.669 2.27-.042 2.403-.18.035-.38.148-.45.254-.086.136-.125.132-.125-.02-.004-.117-.113-.21-.25-.21-.351 0-.597-.544-.597-1.325 0-1.008.476-1.367 1.465-1.102m4.648.563c.195.75.016 1.683-.348 1.816-.156.059-.336.18-.394.274-.07.101-.219.062-.38-.098-.144-.148-.347-.293-.448-.328-.27-.09-.235-2.008.039-2.188.554-.363 1.379-.082 1.531.524m9.168.066c.258.746-.047 1.797-.52 1.797-.144 0-.261.074-.261.16 0 .426-1.02-.449-1.114-.96-.32-1.676 1.356-2.56 1.895-.997m-45.453 1.274c0 .347-.715.675-1.223.562-.34-.074-.402-.644-.086-.77.567-.226 1.309-.109 1.309.208m37.8.468c-.515.207-.015 1.067.622 1.067.285 0 .347-.106.347-.59 0-.598-.304-.746-.968-.477"/></g></svg>