<svg xmlns="http://www.w3.org/2000/svg" xmlns:xlink="http://www.w3.org/1999/xlink" width="400" zoomAndPan="magnify" viewBox="0 0 300 168.749997" height="225" preserveAspectRatio="xMidYMid meet" version="1.0"><defs><clipPath id="48bf4c0ce3"><path d="M 0.222656 0 L 299.777344 0 L 299.777344 168.5 L 0.222656 168.5 Z M 0.222656 0 " clip-rule="nonzero"/></clipPath><clipPath id="af4f384ee9"><path d="M 17 66 L 299 66 L 299 149.777344 L 17 149.777344 Z M 17 66 " clip-rule="nonzero"/></clipPath></defs><g clip-path="url(#48bf4c0ce3)"><path fill="#ffffff" d="M 0.222656 0 L 299.777344 0 L 299.777344 168.5 L 0.222656 168.5 Z M 0.222656 0 " fill-opacity="1" fill-rule="nonzero"/><path fill="#ffffff" d="M 0.222656 0 L 299.777344 0 L 299.777344 168.5 L 0.222656 168.5 Z M 0.222656 0 " fill-opacity="1" fill-rule="nonzero"/></g><g clip-path="url(#af4f384ee9)"><path fill="#101010" d="M 28.375 67.265625 C 28.375 67.46875 28.535156 67.667969 28.777344 67.761719 C 29.257812 67.941406 29.457031 68.207031 29.222656 68.351562 C 29.132812 68.410156 29.007812 68.832031 28.945312 69.292969 L 28.835938 70.125 L 25.828125 70.125 L 25.011719 70.945312 C 23.671875 72.285156 23.253906 73.375 23.355469 75.28125 C 23.46875 77.460938 23.96875 78.046875 25.726562 78.046875 C 26.175781 78.050781 26.34375 77.960938 27.015625 77.355469 C 27.300781 77.097656 27.34375 77.101562 27.613281 77.417969 C 27.921875 77.777344 29.75 77.753906 30.121094 77.382812 C 30.308594 77.191406 29.960938 76.703125 29.636719 76.703125 C 29.285156 76.703125 29.027344 76.285156 29.246094 76.066406 C 29.351562 75.960938 29.5 75.546875 29.574219 75.152344 C 29.96875 73.058594 30.324219 71.5 30.902344 69.300781 C 31.011719 68.894531 31.15625 68.191406 31.226562 67.742188 L 31.359375 66.925781 L 29.867188 66.925781 C 28.480469 66.925781 28.375 66.949219 28.375 67.265625 M 28.074219 71.898438 C 28.542969 73.515625 26.992188 76.503906 25.78125 76.332031 C 25.308594 76.261719 25.140625 73.535156 25.585938 73.167969 C 25.726562 73.046875 25.84375 72.851562 25.84375 72.726562 C 25.84375 71.707031 27.808594 70.976562 28.074219 71.898438 M 40.847656 84.898438 L 40.847656 92.589844 L 42.703125 92.515625 C 44.707031 92.433594 44.90625 92.367188 44.492188 91.953125 C 44.34375 91.804688 44.21875 91.609375 44.21875 91.523438 C 44.21875 91.4375 43.878906 91.367188 43.460938 91.367188 L 42.703125 91.367188 L 42.703125 78.554688 L 44.726562 78.554688 L 44.726562 77.207031 L 40.847656 77.207031 L 40.847656 84.898438 M 107.265625 77.609375 C 107.265625 78.097656 107.539062 78.21875 108.628906 78.21875 L 109.457031 78.21875 L 109.457031 91.199219 L 107.265625 91.199219 L 107.265625 92.546875 L 110.976562 92.546875 L 110.976562 77.207031 L 109.121094 77.207031 C 107.277344 77.207031 107.265625 77.210938 107.265625 77.609375 M 207.0625 81.335938 L 207.0625 83.445312 L 204.972656 83.445312 C 202.539062 83.445312 202.574219 83.410156 202.832031 85.339844 C 202.839844 85.410156 203.796875 85.46875 204.957031 85.46875 L 207.0625 85.46875 L 207.0625 89.679688 L 208.917969 89.679688 L 208.917969 85.46875 L 213.128906 85.46875 L 213.128906 83.445312 L 208.917969 83.445312 L 208.917969 79.230469 L 207.0625 79.230469 L 207.0625 81.335938 M 116.941406 82.363281 C 116.996094 82.507812 117.042969 82.886719 117.042969 83.207031 L 117.042969 83.78125 L 127.496094 83.78125 L 127.496094 83.207031 C 127.496094 82.886719 127.542969 82.507812 127.597656 82.363281 C 127.691406 82.121094 127.152344 82.09375 122.269531 82.09375 C 117.386719 82.09375 116.851562 82.121094 116.941406 82.363281 M 18.011719 83.992188 C 17.957031 84.167969 17.976562 84.605469 18.074219 85.339844 C 18.082031 85.410156 22.261719 85.46875 27.363281 85.46875 L 36.632812 85.46875 L 36.632812 83.78125 L 27.355469 83.78125 C 20.082031 83.78125 18.066406 83.828125 18.011719 83.992188 M 117.15625 85.242188 C 117.09375 85.304688 117.042969 85.722656 117.042969 86.167969 L 117.042969 86.984375 L 118.855469 86.984375 C 119.851562 86.984375 122.203125 87.035156 124.082031 87.097656 L 127.496094 87.207031 L 127.496094 85.128906 L 122.382812 85.128906 C 119.570312 85.128906 117.21875 85.179688 117.15625 85.242188 M 25.171875 89.261719 C 25.171875 89.515625 25.265625 89.679688 25.414062 89.679688 C 25.8125 89.679688 25.886719 89.988281 25.769531 91.109375 L 25.652344 92.171875 L 24.089844 92.238281 C 21.488281 92.351562 19.933594 94.289062 19.949219 97.40625 C 19.957031 99.609375 21.96875 100.730469 23.664062 99.476562 C 24.027344 99.207031 24.160156 99.175781 24.160156 99.347656 C 24.160156 99.710938 25.898438 99.957031 26.589844 99.695312 C 26.871094 99.585938 26.964844 98.953125 26.699219 98.953125 C 26.179688 98.953125 25.78125 97.753906 26.164062 97.34375 C 26.308594 97.1875 26.664062 95.675781 27.117188 93.261719 C 27.242188 92.585938 27.390625 91.964844 27.445312 91.875 C 27.703125 91.460938 28.003906 89.257812 27.835938 89.050781 C 27.457031 88.59375 25.171875 88.773438 25.171875 89.261719 M 28.207031 92.671875 C 28.210938 92.835938 28.394531 93.144531 28.621094 93.355469 C 30.089844 94.75 30.183594 95.863281 28.925781 96.992188 C 26.398438 99.257812 26.367188 99.628906 28.714844 99.628906 C 29.953125 99.628906 30.253906 99.449219 29.824219 98.972656 C 29.453125 98.5625 29.480469 98.410156 30.035156 97.878906 L 30.515625 97.421875 L 30.792969 97.84375 C 30.945312 98.078125 31.070312 98.328125 31.070312 98.398438 C 31.082031 99.664062 31.492188 99.917969 33.167969 99.6875 C 34.230469 99.542969 34.257812 99.339844 33.351562 98.394531 C 32.933594 97.957031 32.589844 97.453125 32.589844 97.277344 C 32.589844 97.097656 32.472656 96.839844 32.335938 96.703125 C 31.910156 96.277344 32.035156 96.042969 33.359375 94.734375 C 35.355469 92.761719 35.386719 92.375 33.535156 92.382812 C 32.199219 92.382812 31.929688 92.539062 32.246094 93.128906 C 32.453125 93.519531 32.445312 93.613281 32.144531 94.015625 C 31.695312 94.617188 31.460938 94.667969 31.324219 94.199219 C 31.261719 93.988281 31.09375 93.488281 30.949219 93.09375 L 30.6875 92.378906 L 29.445312 92.378906 C 28.375 92.378906 28.207031 92.417969 28.207031 92.671875 M 24.832031 93.640625 C 25.625 94.597656 23.492188 98.632812 22.3125 98.410156 C 21.878906 98.328125 21.691406 96.738281 22.03125 96.027344 C 22.179688 95.707031 22.304688 95.34375 22.304688 95.21875 C 22.3125 94.171875 24.261719 92.953125 24.832031 93.640625 M 248.066406 160.597656 C 247.933594 160.925781 247.90625 163.746094 248.019531 165.503906 C 248.078125 166.464844 248.121094 166.5625 248.4375 166.515625 C 248.9375 166.445312 248.988281 160.445312 248.488281 160.347656 C 248.320312 160.3125 248.136719 160.421875 248.066406 160.597656 M 264.996094 160.425781 C 264.765625 160.65625 264.871094 165.964844 265.109375 166.292969 C 265.390625 166.675781 265.726562 166.496094 265.726562 165.960938 C 265.726562 165.742188 265.808594 165.347656 265.90625 165.085938 L 266.089844 164.613281 L 266.492188 165.117188 C 267.355469 166.207031 267.621094 166.402344 268.121094 166.292969 C 268.410156 166.226562 268.59375 166.257812 268.59375 166.367188 C 268.59375 166.800781 270.496094 166.433594 270.882812 165.925781 C 271.328125 165.332031 270.945312 164.023438 270.320312 164.023438 C 269.917969 164.023438 268.914062 163.339844 269.035156 163.144531 C 269.105469 163.035156 269.515625 163.007812 270.132812 163.070312 C 271.074219 163.167969 271.121094 163.15625 271.121094 162.796875 C 271.117188 161.960938 269.6875 161.59375 268.707031 162.171875 C 268.203125 162.46875 268.113281 162.480469 268.027344 162.257812 C 267.863281 161.832031 267.507812 161.957031 266.640625 162.746094 C 266.183594 163.15625 265.796875 163.476562 265.777344 163.457031 C 265.757812 163.4375 265.726562 162.71875 265.710938 161.867188 C 265.683594 160.335938 265.484375 159.9375 264.996094 160.425781 M 271.625 163.433594 L 271.625 166.574219 L 272.003906 166.519531 C 272.359375 166.46875 272.390625 166.367188 272.46875 164.894531 C 272.570312 162.984375 273.011719 162.425781 273.90625 163.074219 C 274.1875 163.28125 274.21875 163.503906 274.175781 164.941406 L 274.128906 166.574219 L 274.605469 166.523438 L 275.082031 166.46875 L 275.128906 164.714844 L 275.179688 162.960938 L 274.5625 162.398438 C 273.964844 161.851562 272.972656 161.601562 272.972656 162 C 272.972656 162.695312 272.480469 162.039062 272.4375 161.285156 C 272.390625 160.511719 272.335938 160.390625 272.003906 160.34375 L 271.625 160.289062 L 271.625 163.433594 M 241.058594 160.980469 C 239.628906 161.898438 239.199219 164.078125 240.164062 165.535156 C 240.460938 165.984375 240.71875 166.207031 240.871094 166.148438 C 241.015625 166.09375 241.113281 166.15625 241.113281 166.300781 C 241.113281 166.484375 241.308594 166.542969 241.832031 166.53125 C 243.667969 166.488281 244.171875 165.496094 242.40625 165.40625 C 240.765625 165.320312 240.054688 164.074219 240.792969 162.589844 C 241.171875 161.839844 242.222656 161.390625 242.792969 161.742188 C 243.15625 161.96875 243.980469 161.65625 243.980469 161.292969 C 243.980469 161.070312 243.898438 160.984375 243.742188 161.042969 C 243.609375 161.09375 243.460938 161.027344 243.410156 160.894531 C 243.269531 160.535156 241.660156 160.59375 241.058594 160.980469 M 245.160156 161.988281 C 245.160156 162.070312 244.933594 162.191406 244.65625 162.253906 C 244.375 162.3125 244.148438 162.46875 244.148438 162.59375 C 244.148438 162.96875 244.652344 163.144531 245.304688 162.996094 C 245.679688 162.914062 245.988281 162.929688 246.121094 163.039062 C 246.414062 163.28125 246.234375 163.515625 245.761719 163.515625 C 245.546875 163.515625 245.273438 163.628906 245.160156 163.769531 C 245.042969 163.910156 244.859375 164.023438 244.746094 164.023438 C 244.398438 164.023438 243.980469 164.613281 243.980469 165.101562 C 243.980469 165.695312 244.261719 166.214844 244.578125 166.214844 C 244.714844 166.214844 244.972656 166.304688 245.148438 166.414062 C 245.402344 166.570312 245.574219 166.570312 245.925781 166.410156 C 246.28125 166.25 246.429688 166.25 246.625 166.410156 C 247.058594 166.769531 247.1875 166.238281 247.140625 164.289062 L 247.097656 162.449219 L 246.59375 162.152344 C 246.050781 161.835938 245.160156 161.730469 245.160156 161.988281 M 250.296875 162.375 C 249.34375 163.148438 249.347656 163.136719 249.4375 164.5 C 249.535156 165.957031 249.644531 166.078125 251.128906 166.359375 C 252.085938 166.539062 252.175781 166.527344 252.441406 166.207031 C 252.992188 165.546875 252.226562 165.0625 251.421875 165.5625 C 250.871094 165.90625 250.21875 165.152344 250.21875 164.167969 C 250.21875 163.199219 250.460938 163.011719 251.722656 163.011719 C 252.523438 163.011719 252.578125 163.039062 252.578125 163.433594 C 252.578125 163.664062 252.648438 163.855469 252.730469 163.855469 C 252.816406 163.855469 252.9375 164.167969 253.003906 164.554688 C 253.277344 166.1875 253.757812 166.800781 254.210938 166.09375 C 254.375 165.835938 254.554688 165.585938 254.613281 165.539062 C 254.675781 165.492188 254.773438 165.09375 254.839844 164.65625 C 255 163.582031 255.191406 163.644531 255.425781 164.84375 C 255.808594 166.796875 256.910156 166.808594 257.195312 164.867188 C 257.367188 163.695312 257.507812 163.179688 257.652344 163.179688 C 257.835938 163.179688 257.855469 162.21875 257.675781 162.113281 C 257.457031 161.984375 256.773438 162.324219 256.8125 162.546875 C 256.859375 162.835938 256.613281 163.722656 256.410156 163.980469 C 256.214844 164.230469 255.613281 163.160156 255.613281 162.554688 C 255.613281 161.417969 254.5 162.449219 254.164062 163.898438 C 253.996094 164.625 253.808594 164.589844 253.707031 163.8125 C 253.652344 163.421875 253.53125 163.074219 253.429688 163.042969 C 253.332031 163.011719 253.25 162.878906 253.25 162.757812 C 253.25 162.390625 252.738281 161.980469 252.40625 162.085938 C 252.238281 162.136719 252.050781 162.101562 251.992188 162.007812 C 251.777344 161.660156 250.964844 161.835938 250.296875 162.375 M 259.046875 162.027344 C 258.941406 162.128906 258.617188 162.433594 258.328125 162.707031 C 257.011719 163.957031 258.238281 166.851562 259.886719 166.390625 C 260.269531 166.28125 260.632812 166.21875 260.695312 166.246094 C 260.90625 166.347656 261.503906 165.65625 261.507812 165.304688 C 261.511719 165.109375 261.558594 164.625 261.613281 164.226562 C 261.726562 163.441406 261.226562 162.433594 260.625 162.242188 C 260.464844 162.1875 260.332031 162.074219 260.332031 161.988281 C 260.332031 161.773438 259.28125 161.804688 259.046875 162.027344 M 263.324219 162.042969 C 263.285156 162.15625 263.03125 162.253906 262.761719 162.253906 C 262.167969 162.253906 261.980469 163.042969 262.136719 164.867188 C 262.3125 166.894531 262.859375 167.214844 262.859375 165.285156 C 262.859375 164.558594 262.929688 164.023438 263.027344 164.023438 C 263.121094 164.023438 263.199219 163.839844 263.199219 163.617188 C 263.199219 163.191406 263.476562 163.011719 264.136719 163.011719 C 264.492188 163.011719 264.546875 162.933594 264.546875 162.421875 C 264.546875 161.808594 263.511719 161.484375 263.324219 162.042969 M 276.488281 162.472656 C 274.738281 164.25 275.3125 166.257812 277.640625 166.5 C 278.078125 166.542969 278.367188 166.503906 278.367188 166.398438 C 278.367188 166.304688 278.632812 165.960938 278.957031 165.636719 C 279.90625 164.691406 279.652344 162.988281 278.453125 162.210938 C 277.644531 161.6875 277.207031 161.746094 276.488281 162.472656 M 281.234375 162 C 281.234375 162.09375 280.96875 162.167969 280.644531 162.167969 C 280.082031 162.167969 280.054688 162.195312 280.027344 162.800781 C 279.980469 163.824219 280.070312 168.140625 280.136719 168.207031 C 280.367188 168.4375 280.898438 167.992188 280.898438 167.566406 C 280.898438 166.753906 281.054688 166.550781 281.683594 166.550781 C 283.734375 166.550781 284.460938 163.25 282.644531 162.175781 C 282.027344 161.8125 281.234375 161.714844 281.234375 162 M 286.96875 162.082031 C 286.851562 162.222656 286.660156 162.335938 286.539062 162.335938 C 285.753906 162.335938 285.355469 164.484375 285.957031 165.460938 C 286.6875 166.640625 288.6875 166.964844 288.789062 165.917969 C 288.84375 165.347656 287.945312 165.046875 287.765625 165.582031 C 287.71875 165.734375 287.621094 165.710938 287.414062 165.507812 C 287.261719 165.351562 286.992188 165.179688 286.820312 165.125 C 286.503906 165.023438 286.5 164.992188 286.714844 163.644531 L 286.8125 163.011719 L 287.734375 163.011719 C 288.558594 163.011719 288.652344 162.976562 288.652344 162.652344 C 288.652344 161.945312 287.425781 161.53125 286.96875 162.082031 M 290.398438 161.945312 C 290.460938 162.007812 290.277344 162.160156 289.988281 162.28125 C 289.671875 162.414062 289.390625 162.699219 289.277344 163.007812 C 289.171875 163.289062 289.023438 163.515625 288.953125 163.515625 C 288.785156 163.515625 288.777344 164.820312 288.945312 164.894531 C 289.015625 164.925781 289.214844 165.226562 289.390625 165.570312 C 289.804688 166.386719 290.476562 166.675781 291.222656 166.363281 C 291.523438 166.238281 291.851562 166.152344 291.953125 166.175781 C 293.164062 166.445312 293.007812 163.207031 291.765625 162.261719 C 291.285156 161.894531 290.0625 161.613281 290.398438 161.945312 M 294.507812 162.042969 C 294.472656 162.15625 294.222656 162.253906 293.960938 162.253906 C 293.332031 162.253906 293.125 162.972656 293.277344 164.613281 C 293.335938 165.261719 293.382812 165.964844 293.382812 166.171875 C 293.378906 166.464844 293.472656 166.550781 293.796875 166.550781 C 294.210938 166.550781 294.214844 166.539062 294.214844 165.042969 C 294.214844 163.679688 294.253906 163.492188 294.632812 163.0625 C 294.859375 162.804688 295.050781 162.683594 295.050781 162.800781 C 295.054688 162.917969 295.171875 163.011719 295.3125 163.011719 C 295.484375 163.011719 295.570312 163.199219 295.585938 163.601562 C 295.597656 163.925781 295.625 164.265625 295.648438 164.359375 C 295.671875 164.453125 295.699219 164.988281 295.710938 165.550781 C 295.730469 166.511719 295.753906 166.570312 296.113281 166.519531 C 296.46875 166.46875 296.496094 166.371094 296.574219 164.816406 C 296.664062 163.070312 296.78125 162.832031 297.492188 162.96875 C 297.898438 163.046875 298.09375 163.957031 298.09375 165.816406 C 298.09375 166.445312 298.140625 166.550781 298.441406 166.550781 C 298.671875 166.550781 298.773438 166.453125 298.75 166.257812 C 298.726562 166.09375 298.765625 165.542969 298.835938 165.035156 C 299.066406 163.304688 298.402344 161.839844 297.375 161.832031 C 297.121094 161.832031 296.910156 161.886719 296.910156 161.957031 C 296.910156 162.375 296.191406 162.523438 295.828125 162.179688 C 295.417969 161.796875 294.621094 161.710938 294.507812 162.042969 M 260.078125 163.085938 C 260.789062 163.382812 260.957031 163.917969 260.605469 164.757812 C 260.101562 165.957031 258.542969 165.410156 258.691406 164.085938 C 258.824219 162.882812 259.109375 162.679688 260.078125 163.085938 M 268.085938 163.390625 C 268.085938 163.875 268.175781 163.984375 268.886719 164.335938 C 269.328125 164.550781 269.796875 164.785156 269.929688 164.851562 C 270.625 165.199219 270.289062 165.394531 269.074219 165.351562 C 267.578125 165.300781 267.410156 165.253906 267.410156 164.867188 C 267.410156 164.703125 267.296875 164.476562 267.160156 164.359375 C 266.816406 164.078125 266.839844 163.90625 267.285156 163.34375 C 267.796875 162.695312 268.085938 162.710938 268.085938 163.390625 M 282.316406 162.945312 C 282.792969 163.128906 282.683594 164.886719 282.164062 165.335938 C 281.457031 165.953125 280.898438 165.453125 280.898438 164.203125 C 280.898438 163.199219 281.527344 162.640625 282.316406 162.945312 M 278.203125 163.316406 C 278.894531 163.878906 278.210938 165.882812 277.421875 165.601562 C 276.632812 165.320312 276.101562 163.652344 276.625 163.125 C 276.851562 162.898438 277.835938 163.019531 278.203125 163.316406 M 291.546875 163.289062 C 292.046875 163.746094 291.84375 165.371094 291.285156 165.371094 C 291.148438 165.371094 291.011719 165.457031 290.976562 165.566406 C 290.875 165.875 290.050781 165.25 289.929688 164.773438 C 289.609375 163.503906 290.691406 162.515625 291.546875 163.289062 M 246.304688 165.011719 C 246.222656 165.457031 244.992188 165.496094 244.992188 165.058594 C 244.992188 164.699219 245.347656 164.558594 245.96875 164.667969 C 246.214844 164.714844 246.339844 164.839844 246.304688 165.011719 M 284.132812 165.40625 C 283.707031 165.832031 284.027344 166.550781 284.644531 166.550781 C 285.023438 166.550781 285.183594 166.183594 285.042969 165.625 C 284.929688 165.171875 284.476562 165.0625 284.132812 165.40625 " fill-opacity="1" fill-rule="evenodd"/></g><path fill="#001eff" d="M 227.5 76.699219 C 227.265625 77.074219 226.738281 80.25 226.714844 81.421875 C 226.699219 82.222656 227.3125 82.558594 227.640625 81.925781 C 228.578125 80.121094 229.652344 77.390625 229.652344 76.808594 C 229.652344 76.210938 227.863281 76.117188 227.5 76.699219 M 57.410156 77.863281 C 53.222656 81.175781 53.691406 89.375 58.179688 91.390625 C 59.394531 91.9375 59.730469 91.855469 59.730469 91.011719 C 59.730469 90.625 59.605469 90.46875 59.074219 90.195312 C 57.351562 89.316406 56.8125 87.996094 56.738281 84.457031 C 56.660156 80.941406 57.078125 79.914062 59.097656 78.621094 C 59.59375 78.300781 59.730469 78.109375 59.730469 77.710938 C 59.730469 76.894531 58.535156 76.976562 57.410156 77.863281 M 69.296875 77.304688 C 69.015625 77.589844 69.167969 78.363281 69.523438 78.476562 C 72.757812 79.503906 73.320312 87.066406 70.359375 89.707031 C 69.851562 90.15625 69.378906 90.523438 69.304688 90.523438 C 69.058594 90.523438 69.15625 91.710938 69.40625 91.808594 C 69.917969 92 72.714844 90.066406 73.054688 89.285156 C 73.144531 89.085938 73.285156 88.808594 73.367188 88.671875 C 74.519531 86.789062 74.503906 82.339844 73.335938 80.085938 C 72.371094 78.222656 70 76.589844 69.296875 77.304688 M 146.441406 77.324219 C 143.859375 77.832031 142.09375 83.203125 143.164062 87.3125 C 143.4375 88.363281 144.320312 89.964844 144.871094 90.40625 C 145.863281 91.203125 146.113281 91.367188 146.332031 91.367188 C 146.453125 91.367188 146.726562 91.480469 146.9375 91.617188 C 147.277344 91.839844 147.363281 91.839844 147.691406 91.609375 C 148.304688 91.175781 148.148438 90.757812 147.128906 90.109375 C 146.617188 89.78125 146.113281 89.324219 146.007812 89.089844 C 145.902344 88.859375 145.757812 88.671875 145.683594 88.671875 C 145.429688 88.671875 144.839844 86.386719 144.742188 85.027344 C 144.53125 82.050781 145.597656 79.480469 147.4375 78.53125 C 148.847656 77.808594 148.171875 76.984375 146.441406 77.324219 M 157.363281 77.730469 C 157.40625 78.203125 157.539062 78.367188 158.148438 78.699219 C 161.359375 80.464844 161.355469 87.753906 158.144531 90.042969 C 157.476562 90.515625 157.347656 90.699219 157.339844 91.160156 C 157.308594 93.34375 161.546875 89.925781 162.050781 87.363281 C 162.15625 86.828125 162.324219 85.992188 162.429688 85.5 C 162.566406 84.839844 162.566406 84.332031 162.425781 83.5625 C 162.324219 82.988281 162.191406 82.148438 162.132812 81.695312 C 161.859375 79.566406 159.9375 77.457031 158.085938 77.25 L 157.308594 77.160156 L 157.363281 77.730469 M 234.035156 77.644531 C 230.46875 79.671875 229.753906 86.75 232.785156 90 C 233.738281 91.019531 235.339844 91.992188 235.785156 91.820312 C 236.261719 91.636719 236.136719 90.644531 235.59375 90.316406 C 231.988281 88.132812 231.78125 80.8125 235.265625 78.742188 C 237.121094 77.640625 235.921875 76.566406 234.035156 77.644531 M 245.40625 77.386719 C 245.195312 77.730469 245.496094 78.347656 245.980469 78.546875 C 247.769531 79.289062 248.949219 82.375 248.582031 85.34375 C 248.386719 86.898438 247.980469 88.488281 247.734375 88.648438 C 247.644531 88.707031 247.480469 88.929688 247.367188 89.144531 C 247.253906 89.355469 246.75 89.792969 246.246094 90.117188 C 245.242188 90.757812 245.085938 91.179688 245.699219 91.609375 C 246.027344 91.839844 246.113281 91.839844 246.453125 91.617188 C 246.664062 91.480469 246.945312 91.367188 247.082031 91.367188 C 247.214844 91.367188 247.425781 91.273438 247.550781 91.15625 C 247.671875 91.039062 248.058594 90.734375 248.40625 90.472656 C 248.753906 90.214844 249.035156 89.925781 249.035156 89.832031 C 249.035156 89.734375 249.238281 89.398438 249.480469 89.074219 C 250.761719 87.398438 250.84375 82.167969 249.625 79.957031 C 248.554688 78.019531 245.984375 76.453125 245.40625 77.386719 M 50.035156 78.441406 C 49.492188 78.738281 49.242188 79.050781 48.753906 80.046875 C 48.421875 80.726562 47.945312 81.46875 47.699219 81.695312 C 47.164062 82.191406 47.152344 82.289062 47.589844 82.6875 C 47.992188 83.050781 48.003906 83.238281 47.6875 84.265625 C 47.363281 85.3125 47.089844 86.484375 46.824219 87.9375 C 46.703125 88.601562 46.53125 89.285156 46.441406 89.453125 C 46.351562 89.625 46.195312 89.976562 46.089844 90.238281 C 45.964844 90.554688 45.652344 90.824219 45.152344 91.042969 C 44.328125 91.410156 44.183594 91.546875 44.355469 91.8125 C 45.042969 92.867188 47.335938 92.089844 47.957031 90.59375 C 48.320312 89.714844 48.769531 88.195312 48.769531 87.84375 C 48.769531 87.6875 48.890625 87.109375 49.035156 86.554688 C 49.183594 86.003906 49.367188 85.210938 49.449219 84.792969 C 49.832031 82.804688 49.792969 82.863281 50.714844 82.769531 C 51.898438 82.652344 52.148438 81.589844 50.992188 81.589844 C 50.296875 81.589844 49.929688 81.207031 50.28125 80.855469 C 50.378906 80.757812 50.457031 80.539062 50.457031 80.367188 C 50.457031 80.195312 50.640625 79.871094 50.867188 79.648438 L 51.277344 79.238281 L 52.058594 79.585938 C 53.050781 80.023438 53.492188 79.75 53.492188 78.699219 L 53.492188 78.050781 L 52.101562 78.0625 C 51.011719 78.074219 50.5625 78.15625 50.035156 78.441406 M 138.875 78.21875 C 138.816406 78.3125 138.640625 78.390625 138.484375 78.390625 C 137.902344 78.40625 136.597656 80.101562 136.597656 80.851562 C 136.597656 80.972656 136.320312 81.351562 135.980469 81.695312 L 135.359375 82.3125 L 135.742188 82.621094 C 136.160156 82.960938 136.148438 83.433594 135.671875 85.214844 C 135.324219 86.523438 135.058594 87.648438 134.839844 88.769531 C 134.597656 89.996094 134.105469 90.742188 133.355469 91.023438 C 132.117188 91.480469 131.863281 91.914062 132.660156 92.21875 C 134.566406 92.941406 136.246094 91.421875 136.859375 88.417969 C 136.992188 87.769531 137.179688 86.894531 137.28125 86.480469 C 137.382812 86.0625 137.546875 85.378906 137.644531 84.960938 C 137.746094 84.542969 137.871094 83.898438 137.929688 83.527344 C 138.03125 82.859375 138.039062 82.851562 138.875 82.769531 C 140.074219 82.648438 140.316406 81.589844 139.140625 81.589844 C 138.464844 81.589844 138.460938 81.585938 138.558594 81.042969 C 138.828125 79.546875 139.558594 78.972656 140.3125 79.65625 C 140.949219 80.230469 141.65625 79.734375 141.65625 78.710938 L 141.65625 78.050781 L 140.316406 78.050781 C 139.582031 78.050781 138.929688 78.125 138.875 78.21875 M 222.488281 78.34375 C 221.578125 78.804688 220.546875 80.21875 220.546875 81 C 220.546875 81.125 220.375 81.367188 220.160156 81.535156 C 219.597656 81.980469 219.492188 82.382812 219.867188 82.644531 C 220.136719 82.832031 220.160156 82.964844 220.03125 83.535156 C 219.710938 84.941406 219.34375 86.589844 219.210938 87.238281 C 218.605469 90.183594 218.300781 90.769531 217.21875 91.085938 C 215.917969 91.464844 216.042969 92.109375 217.429688 92.167969 C 219.140625 92.242188 220.339844 91.210938 220.625 89.429688 C 220.683594 89.058594 220.835938 88.375 220.964844 87.910156 C 221.339844 86.542969 221.722656 84.773438 221.859375 83.78125 L 221.984375 82.855469 L 222.824219 82.769531 C 223.867188 82.664062 224.289062 81.589844 223.289062 81.589844 C 222.339844 81.589844 222.289062 80.730469 223.167969 79.625 L 223.550781 79.144531 L 224.066406 79.523438 C 224.941406 80.171875 225.773438 79.738281 225.773438 78.632812 L 225.773438 78.050781 L 224.382812 78.066406 C 223.503906 78.078125 222.808594 78.179688 222.488281 78.34375 M 61.527344 81.871094 C 61.277344 82.121094 61.425781 82.75 61.757812 82.855469 C 62.148438 82.980469 62.84375 84.007812 63.148438 84.90625 L 63.351562 85.507812 L 61.785156 87.109375 C 60.117188 88.816406 59.980469 89.152344 60.867188 89.402344 C 62.265625 89.804688 63.421875 89.234375 63.039062 88.332031 C 62.976562 88.1875 63.101562 87.867188 63.332031 87.578125 C 63.832031 86.957031 64.152344 87.148438 64.425781 88.230469 C 64.640625 89.082031 64.824219 89.261719 65.640625 89.410156 C 67.101562 89.671875 67.734375 89.125 66.890625 88.332031 C 66.390625 87.863281 65.628906 86.324219 65.628906 85.792969 C 65.628906 85.558594 66.101562 84.921875 66.894531 84.097656 C 67.894531 83.050781 68.15625 82.667969 68.15625 82.265625 L 68.15625 81.757812 L 66.914062 81.757812 C 65.457031 81.757812 65.089844 81.992188 65.460938 82.683594 C 65.644531 83.03125 65.632812 83.15625 65.390625 83.53125 C 65.007812 84.113281 64.753906 83.996094 64.496094 83.109375 C 64.164062 81.964844 63.890625 81.757812 62.679688 81.757812 C 62.109375 81.757812 61.589844 81.808594 61.527344 81.871094 M 149.78125 81.960938 C 149.464844 82.277344 149.539062 82.507812 150.089844 82.917969 C 151.207031 83.742188 151.746094 85.800781 150.957031 86.210938 C 150.335938 86.53125 148.566406 88.605469 148.566406 89.011719 C 148.566406 89.402344 149.832031 89.632812 150.742188 89.410156 C 151.332031 89.265625 151.347656 89.238281 151.347656 88.464844 C 151.347656 87.871094 151.441406 87.574219 151.71875 87.296875 L 152.089844 86.925781 L 152.285156 87.417969 C 153.101562 89.453125 153.320312 89.644531 154.667969 89.460938 C 155.691406 89.324219 155.804688 89.105469 155.191406 88.460938 C 154.667969 87.90625 153.789062 86.226562 153.796875 85.789062 C 153.796875 85.65625 154.402344 84.90625 155.140625 84.117188 C 157.023438 82.105469 156.933594 81.757812 154.53125 81.757812 C 153.664062 81.757812 153.089844 82.5625 153.792969 82.796875 C 153.882812 82.828125 153.804688 83.105469 153.617188 83.414062 C 153.082031 84.292969 152.941406 84.132812 152.34375 81.96875 C 152.265625 81.6875 150.0625 81.679688 149.78125 81.960938 M 237.910156 82.253906 C 237.910156 82.582031 238.011719 82.78125 238.21875 82.84375 C 238.507812 82.9375 239.261719 84.195312 239.261719 84.585938 C 239.261719 84.683594 239.34375 84.792969 239.453125 84.828125 C 239.832031 84.953125 239.382812 85.664062 237.984375 87.167969 C 236.210938 89.066406 236.210938 89.511719 237.984375 89.511719 C 239.4375 89.511719 239.839844 89.222656 239.390625 88.503906 C 239.21875 88.230469 239.246094 88.097656 239.535156 87.707031 C 239.988281 87.101562 240.371094 87.027344 240.492188 87.523438 C 240.542969 87.738281 240.714844 88.28125 240.878906 88.734375 L 241.167969 89.558594 L 242.347656 89.457031 C 243.902344 89.328125 244.011719 89.1875 243.230469 88.320312 C 242.882812 87.9375 242.484375 87.34375 242.34375 87.007812 C 242.203125 86.671875 242.007812 86.34375 241.90625 86.28125 C 241.625 86.105469 241.925781 85.621094 243.109375 84.34375 C 244.746094 82.574219 244.824219 82.484375 244.824219 82.277344 C 244.824219 81.859375 242.683594 81.554688 241.886719 81.859375 C 241.589844 81.972656 241.527344 82.523438 241.789062 82.6875 C 242.0625 82.855469 241.980469 83.371094 241.628906 83.6875 C 241.183594 84.09375 241.03125 83.945312 240.679688 82.769531 L 240.375 81.757812 L 237.910156 81.757812 L 237.910156 82.253906 " fill-opacity="1" fill-rule="evenodd"/><path fill="#f20505" d="M 174.628906 76.632812 C 174.574219 76.777344 174.527344 77.160156 174.527344 77.484375 C 174.527344 77.808594 174.445312 78.226562 174.34375 78.417969 C 174.195312 78.691406 173.6875 81.296875 173.683594 81.792969 C 173.683594 82.226562 174.421875 82.277344 174.796875 81.871094 C 175.167969 81.472656 175.300781 81.191406 175.882812 79.566406 C 176.195312 78.695312 176.207031 78.675781 176.46875 78.21875 C 176.605469 77.988281 176.714844 77.472656 176.714844 77.082031 L 176.71875 76.363281 L 175.726562 76.363281 C 174.976562 76.363281 174.707031 76.429688 174.628906 76.632812 M 90.316406 77.277344 C 88.84375 77.949219 87.738281 79.140625 86.949219 80.910156 C 86.65625 81.570312 86.617188 82.035156 86.617188 84.707031 L 86.617188 87.753906 L 87.28125 89.066406 C 88.101562 90.683594 89.601562 92.105469 90.695312 92.3125 C 92.078125 92.570312 92.328125 91.660156 91.09375 90.867188 C 89.066406 89.566406 88.640625 88.464844 88.640625 84.542969 C 88.640625 80.875 89.152344 79.628906 91.070312 78.597656 C 92.714844 77.714844 92.023438 76.5 90.316406 77.277344 M 100.382812 77.300781 C 100.140625 77.828125 100.355469 78.3125 100.902344 78.476562 C 101.519531 78.664062 102.539062 79.753906 103.023438 80.746094 C 103.679688 82.09375 103.710938 87.238281 103.070312 88.570312 C 102.636719 89.476562 101.195312 91.03125 100.789062 91.03125 C 100.398438 91.03125 100.136719 91.636719 100.355469 92.042969 C 100.984375 93.214844 103.890625 91.28125 104.914062 89.007812 C 105.667969 87.332031 105.917969 81.792969 105.277344 80.925781 C 105.074219 80.648438 104.90625 80.359375 104.90625 80.277344 C 104.90625 79.617188 102.839844 77.644531 101.609375 77.128906 C 100.765625 76.777344 100.609375 76.800781 100.382812 77.300781 M 182.660156 77.136719 C 181.320312 77.722656 179.417969 79.597656 179.417969 80.328125 C 179.417969 80.40625 179.28125 80.613281 179.121094 80.792969 C 178.308594 81.691406 178.898438 89.679688 179.773438 89.679688 C 179.855469 89.679688 179.921875 89.777344 179.921875 89.898438 C 179.921875 90.480469 182.394531 92.378906 183.152344 92.378906 C 183.984375 92.378906 184.320312 91.324219 183.578125 91.042969 C 182.210938 90.523438 181.027344 88.757812 180.765625 86.84375 C 180.660156 86.070312 180.503906 85.246094 180.417969 85.015625 C 180.328125 84.785156 180.308594 84.511719 180.371094 84.410156 C 180.4375 84.304688 180.621094 83.433594 180.78125 82.46875 C 181.105469 80.511719 181.597656 79.714844 183.140625 78.628906 C 184.507812 77.667969 184.128906 76.496094 182.660156 77.136719 M 192.597656 77.070312 C 192.226562 77.445312 192.371094 78.011719 192.945312 78.402344 C 195.25 79.980469 195.683594 80.984375 195.679688 84.707031 C 195.671875 88.351562 194.695312 90.492188 192.761719 91.105469 C 192.328125 91.242188 192.230469 92.277344 192.640625 92.4375 C 193.015625 92.582031 194.191406 92.179688 194.832031 91.691406 C 195.910156 90.863281 196.457031 90.210938 197.039062 89.066406 L 197.707031 87.75 L 197.703125 84.714844 L 197.703125 81.675781 L 197.144531 80.535156 C 196.097656 78.398438 193.359375 76.3125 192.597656 77.070312 M 266.59375 77.253906 C 265.324219 77.738281 264.199219 78.894531 263.414062 80.519531 L 262.777344 81.84375 L 262.777344 87.574219 L 263.398438 88.863281 C 264.09375 90.300781 265.65625 92.042969 266.257812 92.042969 C 266.390625 92.042969 266.652344 92.152344 266.832031 92.289062 C 267.257812 92.609375 267.496094 92.609375 267.820312 92.28125 C 268.328125 91.777344 268.144531 91.316406 267.238281 90.816406 C 263.699219 88.867188 263.792969 80.144531 267.363281 78.636719 C 267.953125 78.390625 268.257812 77.683594 267.972656 77.234375 C 267.742188 76.867188 267.605469 76.867188 266.59375 77.253906 M 276.71875 77.070312 C 276.269531 77.519531 276.484375 78.117188 277.214844 78.46875 C 280.84375 80.207031 280.945312 88.578125 277.367188 90.785156 C 276.292969 91.445312 276.242188 91.527344 276.519531 92.054688 C 277.082031 93.101562 280.101562 91.253906 281.058594 89.277344 C 282.402344 86.496094 282.167969 81.367188 280.601562 79.410156 C 279.632812 78.199219 279.125 77.726562 278.5 77.46875 C 278.105469 77.304688 277.648438 77.105469 277.488281 77.019531 C 277.097656 76.820312 276.960938 76.832031 276.71875 77.070312 M 79.347656 81.585938 C 77.34375 82.394531 76.085938 87.054688 77.425781 88.707031 C 77.878906 89.265625 79.695312 89.265625 80.449219 88.707031 C 81.039062 88.269531 81.078125 88.359375 80.699219 89.28125 C 80.316406 90.214844 79.855469 90.644531 78.90625 90.960938 C 77.550781 91.410156 76.800781 90.75 77.460938 89.691406 C 77.851562 89.070312 76.816406 88.539062 76.097656 88.992188 C 74.804688 89.8125 75.390625 91.835938 77.03125 92.222656 C 79.785156 92.875 82.269531 91.390625 82.59375 88.894531 C 82.652344 88.445312 82.773438 87.9375 82.863281 87.761719 C 82.953125 87.589844 83.089844 87.058594 83.167969 86.582031 C 83.242188 86.109375 83.472656 85 83.671875 84.117188 C 84.195312 81.835938 84.191406 81.703125 83.582031 81.570312 C 82.835938 81.40625 79.761719 81.421875 79.347656 81.585938 M 167.667969 81.589844 C 165.789062 82.347656 164.433594 86.277344 165.371094 88.246094 C 165.824219 89.191406 167.316406 89.410156 168.667969 88.726562 C 169.222656 88.445312 169.25 88.605469 168.792969 89.480469 C 167.945312 91.105469 166.207031 91.695312 165.484375 90.597656 C 165.246094 90.230469 165.246094 90.171875 165.5 89.917969 C 165.976562 89.441406 165.769531 88.929688 165.078125 88.871094 C 163.5625 88.746094 163.160156 91.117188 164.558594 91.933594 C 166.589844 93.113281 170.210938 91.769531 170.585938 89.695312 C 170.644531 89.363281 170.765625 89 170.855469 88.890625 C 170.941406 88.777344 171.074219 88.285156 171.152344 87.792969 C 171.226562 87.300781 171.492188 85.988281 171.742188 84.878906 C 171.992188 83.765625 172.253906 82.53125 172.324219 82.136719 L 172.449219 81.421875 L 170.242188 81.433594 C 169.03125 81.4375 167.871094 81.511719 167.667969 81.589844 M 255.613281 81.671875 C 255.378906 81.804688 255.019531 82.003906 254.808594 82.117188 C 253.59375 82.761719 252.65625 86.652344 253.34375 88.179688 C 253.800781 89.191406 255.269531 89.433594 256.664062 88.726562 C 257.21875 88.445312 257.246094 88.605469 256.789062 89.480469 C 255.941406 91.105469 254.199219 91.695312 253.484375 90.597656 C 253.242188 90.230469 253.242188 90.171875 253.496094 89.917969 C 253.976562 89.4375 253.765625 88.929688 253.058594 88.871094 C 251.21875 88.71875 251.214844 91.613281 253.054688 92.148438 C 256.167969 93.054688 259.140625 90.871094 259.152344 87.671875 C 259.152344 87.449219 259.265625 86.882812 259.402344 86.410156 C 259.636719 85.59375 260.046875 83.695312 260.320312 82.136719 L 260.445312 81.421875 L 258.238281 81.425781 C 256.625 81.425781 255.921875 81.492188 255.613281 81.671875 M 92.703125 81.851562 C 92.613281 82.09375 93.136719 82.789062 93.539062 82.957031 C 93.628906 82.992188 93.90625 83.425781 94.160156 83.921875 C 94.734375 85.042969 94.636719 85.28125 92.820312 87.1875 C 91.15625 88.9375 91.316406 89.503906 93.484375 89.511719 L 94.453125 89.511719 L 94.453125 88.933594 C 94.453125 88.613281 94.375 88.304688 94.28125 88.246094 C 94.179688 88.183594 94.324219 87.867188 94.636719 87.472656 C 95.171875 86.796875 95.609375 86.867188 95.628906 87.625 C 95.65625 88.699219 96.457031 89.511719 97.488281 89.511719 C 98.644531 89.511719 99.28125 88.550781 98.328125 88.246094 C 97.964844 88.132812 97.300781 86.960938 97.019531 85.941406 C 96.847656 85.320312 96.847656 85.316406 98.175781 83.917969 C 99.171875 82.871094 99.507812 82.402344 99.511719 82.054688 L 99.511719 81.589844 L 96.800781 81.589844 L 96.839844 82.34375 C 96.863281 82.832031 96.785156 83.203125 96.617188 83.394531 C 96.472656 83.5625 96.316406 83.8125 96.273438 83.949219 C 96.230469 84.089844 96.058594 83.746094 95.898438 83.191406 C 95.476562 81.734375 95.296875 81.589844 93.941406 81.589844 C 93.070312 81.589844 92.78125 81.652344 92.703125 81.851562 M 184.980469 82.074219 C 184.980469 82.410156 185.113281 82.648438 185.40625 82.84375 C 185.78125 83.089844 186.664062 84.722656 186.664062 85.171875 C 186.664062 85.265625 186.054688 85.964844 185.3125 86.726562 C 184.058594 88.007812 183.484375 88.96875 183.730469 89.367188 C 183.777344 89.449219 184.460938 89.511719 185.242188 89.511719 L 186.664062 89.511719 L 186.664062 88.933594 C 186.664062 88.613281 186.589844 88.304688 186.496094 88.25 C 186.230469 88.082031 186.292969 87.929688 186.863281 87.34375 L 187.394531 86.796875 L 187.59375 87.269531 C 187.703125 87.53125 187.84375 88.023438 187.910156 88.371094 C 188.101562 89.402344 189.050781 89.777344 190.335938 89.332031 C 191.152344 89.046875 191.183594 88.589844 190.417969 88.183594 C 190.210938 88.078125 189.847656 87.554688 189.605469 87.023438 C 189.367188 86.492188 189.109375 85.9375 189.03125 85.789062 C 188.921875 85.589844 189.234375 85.15625 190.304688 84.03125 C 192.207031 82.027344 192.191406 81.59375 190.203125 81.59375 C 188.898438 81.59375 188.171875 82.09375 188.855469 82.515625 C 189.148438 82.699219 189.039062 83.203125 188.625 83.59375 L 188.222656 83.96875 L 188.109375 83.496094 C 188.046875 83.234375 187.875 82.699219 187.730469 82.304688 L 187.460938 81.589844 L 184.980469 81.589844 L 184.980469 82.074219 M 269.132812 81.792969 C 268.8125 82.113281 268.894531 82.421875 269.347656 82.632812 C 269.804688 82.839844 270.320312 83.601562 270.507812 84.335938 C 270.570312 84.585938 270.695312 84.792969 270.785156 84.792969 C 271.195312 84.792969 270.855469 85.3125 269.609375 86.601562 C 267.261719 89.027344 267.25 89.332031 269.484375 89.472656 L 270.738281 89.554688 L 270.65625 88.710938 C 270.570312 87.824219 271.3125 86.234375 271.535156 86.828125 C 271.585938 86.960938 271.800781 87.597656 272.019531 88.25 L 272.414062 89.429688 L 273.621094 89.476562 L 274.828125 89.527344 L 274.828125 89.035156 C 274.828125 88.707031 274.632812 88.328125 274.238281 87.898438 C 273.914062 87.546875 273.648438 87.132812 273.648438 86.984375 C 273.648438 86.832031 273.539062 86.5625 273.402344 86.382812 C 272.898438 85.71875 273.082031 85.3125 274.585938 83.75 C 276.429688 81.839844 276.421875 81.691406 274.449219 81.625 L 272.972656 81.578125 L 272.972656 82.078125 C 272.972656 82.355469 273.046875 82.625 273.136719 82.679688 C 273.304688 82.785156 272.699219 83.949219 272.476562 83.949219 C 272.40625 83.949219 272.214844 83.515625 272.058594 82.980469 C 271.898438 82.449219 271.738281 81.917969 271.703125 81.800781 C 271.617188 81.519531 269.410156 81.511719 269.132812 81.792969 M 81.503906 82.761719 C 82.503906 83.691406 80.230469 88.515625 79.199219 87.65625 C 78.328125 86.9375 79.480469 82.769531 80.546875 82.769531 C 80.6875 82.769531 80.800781 82.695312 80.800781 82.601562 C 80.800781 82.332031 81.121094 82.40625 81.503906 82.761719 M 169.558594 82.542969 C 170.046875 82.730469 170.308594 83.582031 170.039062 84.101562 C 169.914062 84.339844 169.808594 84.671875 169.808594 84.835938 C 169.804688 85.914062 167.777344 88.167969 167.34375 87.574219 C 166.527344 86.457031 167.710938 82.769531 168.886719 82.769531 C 169.023438 82.769531 169.132812 82.695312 169.132812 82.601562 C 169.132812 82.402344 169.179688 82.398438 169.558594 82.542969 M 257.757812 82.8125 C 258.199219 83.285156 258.246094 83.566406 258 84.171875 C 257.890625 84.433594 257.804688 84.757812 257.804688 84.898438 C 257.804688 86.03125 255.683594 88.261719 255.300781 87.535156 C 254.59375 86.1875 255.726562 82.769531 256.882812 82.769531 C 257.019531 82.769531 257.128906 82.695312 257.128906 82.601562 C 257.128906 82.324219 257.386719 82.410156 257.757812 82.8125 " fill-opacity="1" fill-rule="evenodd"/></svg>