<svg xmlns="http://www.w3.org/2000/svg" width="400" height="225" version="1.0" viewBox="0 0 300 168.75"><defs><clipPath id="a"><path d="M.223 0h299.554v168.5H.223Zm0 0"/></clipPath><clipPath id="b"><path d="M35 75h264.777v93.5H35Zm0 0"/></clipPath></defs><g fill="#fff" clip-path="url(#a)"><path d="M.223 0h299.554v168.5H.223Zm0 0"/><path d="M.223 0h299.554v168.5H.223Zm0 0"/></g><path fill="#0404fc" fill-rule="evenodd" d="M77.902 76.543c-.5.543-.906 1.144-.906 1.336 0 .191-.11.348-.242.348-.137 0-.399.601-.586 1.34-.191.734-.434 1.335-.54 1.335-.108 0-.273.813-.362 1.805-.094.996-.286 2.016-.422 2.27-.317.578-.34 3.683-.028 3.683.125 0 .301.86.391 1.914.086 1.055.266 1.989.39 2.074.13.086.391.73.583 1.426.195.7.453 1.274.582 1.274s.234.129.234.289c0 .582 1.484 2.37 1.973 2.379.644.007.437-1.305-.367-2.325-.293-.379-.536-.898-.536-1.16 0-.265-.12-.52-.27-.566-.87-.293-.925-13.535-.054-14.106.133-.09.324-.5.426-.918.105-.418.422-1.011.71-1.32.563-.605.724-2.066.227-2.066-.164 0-.707.441-1.203.988m11.047-.813c-.351.352-.172 1.036.356 1.368.297.183.535.511.535.73 0 .223.113.399.25.399s.398.691.578 1.539c.184.847.45 1.691.594 1.882.394.512.36 10.153-.035 10.547-.172.176-.317.563-.317.864-.004 1.101-.55 2.441-1.336 3.277-.992 1.055-1.047 1.684-.14 1.684.43 0 .828-.254 1.129-.735.257-.406.624-.832.808-.95.188-.116.344-.386.344-.6 0-.215.105-.387.238-.387s.39-.633.574-1.407c.184-.773.47-1.488.63-1.593.425-.274.41-10.86-.012-11.121-.172-.106-.399-.645-.5-1.196-.102-.554-.418-1.293-.692-1.648-.281-.352-.508-.711-.508-.793 0-.258-1.812-2.035-2.074-2.035a.7.7 0 0 0-.422.175m79.145.704c-.453.472-.903 1.07-.996 1.328-.094.254-.282.465-.418.465-.137 0-.403.632-.586 1.406-.18.77-.465 1.488-.63 1.594-.198.128-.292 1.933-.292 5.562 0 3.625.094 5.43.293 5.559.164.105.45.82.629 1.593.183.774.445 1.407.574 1.407.133 0 .242.156.242.347 0 .61 1.88 2.325 2.547 2.325.563 0 .492-.723-.137-1.399-.297-.316-.535-.73-.535-.926 0-.191-.113-.347-.246-.347-.137 0-.332-.391-.437-.871-.102-.477-.297-.938-.434-1.028-.785-.5-.77-12.832.02-13.336.125-.082.312-.539.414-1.015.105-.477.3-.871.437-.871.133 0 .246-.172.246-.383 0-.215.25-.563.559-.781.617-.43.601-1.336-.028-1.426-.218-.035-.77.328-1.222.797m10.941-.442c-.094.238-.027.63.145.867.172.239.394.614.496.832.101.223.328.551.508.73.18.184.41.845.515 1.474.106.628.328 1.226.496 1.332.45.285.418 11.035-.035 11.484-.183.184-.336.578-.336.879 0 .652-1.328 3.363-1.648 3.363-.121 0-.223.238-.223.531 0 .907 1.106.649 1.942-.453.402-.531.734-1.129.734-1.328 0-.195.098-.355.215-.355.246 0 .855-1.57.855-2.203 0-.239.121-.47.266-.52.144-.047.336-.871.422-1.828.086-.953.281-1.992.433-2.305.149-.316.207-1.156.13-1.875-.329-2.898-.774-5.586-.954-5.715-.105-.074-.344-.66-.531-1.304-.36-1.227-.39-1.278-1.942-2.977-1.085-1.191-1.246-1.258-1.488-.629m33.688.395c-.473.46-.856 1-.856 1.203s-.113.37-.254.37c-.37 0-1.355 2.353-1.535 3.677-.086.625-.262 1.136-.387 1.136-.129 0-.23 1.809-.23 4.016 0 2.203.101 4.008.23 4.008.125 0 .305.547.399 1.21.09.665.406 1.743.703 2.391.297.653.539 1.254.539 1.332 0 .336 2.172 2.29 2.543 2.29.574 0 .496-.973-.125-1.598-.293-.29-.605-.832-.7-1.203-.093-.371-.26-.676-.37-.676-.309 0-.813-2.84-.813-4.59 0-.863-.117-1.562-.265-1.562-.153 0-.27-.758-.27-1.739 0-.98.117-1.738.27-1.738.144 0 .265-.562.265-1.25 0-1.594.528-4.633.801-4.633.117 0 .293-.328.394-.722.102-.399.415-.887.7-1.086.578-.407.703-1.668.164-1.668-.192 0-.735.375-1.203.832m10.922-.024c0 .477.164.875.398.965.223.086.402.313.402.508s.164.52.368.723c.44.437.968 2.754.968 4.23 0 .582.121 1.055.27 1.055.164 0 .27 1.25.27 3.21 0 1.962-.106 3.212-.27 3.212-.149 0-.27.402-.27.898 0 1.336-.504 3.766-.804 3.871-.145.047-.262.238-.262.426 0 .187-.242.617-.535.953-.633.727-.707 1.606-.137 1.606.52 0 1.738-1.063 1.738-1.52 0-.191.114-.352.25-.352.133 0 .324-.363.422-.8.098-.442.277-.805.402-.805s.38-.691.567-1.54c.183-.843.457-1.616.605-1.718.38-.254.38-8.32.004-8.805-.156-.207-.433-1.066-.617-1.914-.184-.843-.43-1.535-.55-1.535-.122 0-.29-.273-.38-.601-.18-.68-2.136-2.875-2.562-2.875-.152 0-.277.363-.277.808M70.156 80.73c-.304.317-.84 1.055-1.191 1.645-.75 1.262-1 1.46-1.805 1.465-.488.004-.601.156-.601.808 0 .641.117.801.57.801.59 0 .57 2.031-.02 2.399-.125.078-.316.715-.421 1.414-.102.699-.286 1.27-.403 1.27s-.289.452-.383 1.007c-.246 1.445-.609 1.941-.968 1.332-.54-.918-1.852-.61-1.852.438 0 2.367 3.805 1.152 4.586-1.465.172-.574.406-1.047.516-1.047.113 0 .28-.477.382-1.067.098-.585.29-1.136.426-1.218.133-.082.242-.356.246-.606 0-1.168.57-2.457 1.078-2.457.29 0 .524-.18.524-.402 0-.219.12-.399.27-.399.144 0 .265-.183.265-.402s-.223-.402-.496-.402c-.695 0-.438-1.27.418-2.07.758-.712.883-.739.883-.204 0 .414.699.528 1.449.239.527-.2.547-.82.039-1.329-.606-.605-2.844-.449-3.512.25m87.121-.39c0 .129-.308.316-.687.41-.438.11-.785.457-.961.965-.152.437-.367.793-.477.793s-.332.293-.492.648c-.191.422-.562.68-1.047.739-.945.105-1.12 1.37-.207 1.5.543.078.371 2.996-.176 2.996-.101 0-.335.843-.52 1.875-.187 1.027-.429 1.87-.542 1.87s-.285.239-.375.536c-.203.633-.672.715-.672.117 0-.566-1.316-.41-1.7.2-.374.6.458 1.554 1.36 1.554 1.43 0 3.285-1.734 3.285-3.078 0-.238.18-.617.403-.836.219-.223.398-.695.398-1.055 0-.355.098-.648.219-.648s.375-.781.566-1.739c.262-1.316.453-1.738.797-1.738.25 0 .598-.144.774-.32.453-.453.402-1.285-.078-1.285-.223 0-.403-.235-.403-.535 0-.293.09-.536.203-.536.11 0 .36-.359.555-.8.379-.852.848-1.075.848-.403 0 .282.28.403.937.403 1.031 0 1.309-.739.555-1.493-.418-.41-2.563-.53-2.563-.14m4.125.418c-.308 1.23.235 4.543.758 4.64.348.067.469-.085.469-.597 0-.38.105-.688.23-.688.559 0 .606-3.004.055-3.52-.73-.679-1.312-.616-1.512.165m44.043-.39c0 .148-.18.269-.398.269s-.73.508-1.137 1.133c-1.086 1.664-1.476 2.074-1.969 2.074-.593 0-1.144.699-.949 1.203.086.219.446.402.797.402.535 0 .617.106.512.668-.07.371-.219.672-.332.672-.11 0-.281.598-.38 1.336-.097.734-.28 1.336-.41 1.336-.128 0-.316.598-.413 1.324-.18 1.313-1.207 3.05-1.207 2.043 0-.734-1.715-.473-1.82.277-.4 2.774 3.988 1.11 4.773-1.812.152-.555.375-1.07.5-1.148.129-.079.379-.926.558-1.883.184-.957.438-1.742.567-1.742.133 0 .238-.243.238-.536 0-.355.18-.535.531-.535.64 0 1.07-1.277.54-1.605-.45-.278-.122-1.582.558-2.215.434-.406.512-.414.512-.067 0 .29.273.41.937.41.965 0 1.176-.398.774-1.449-.184-.48-2.782-.625-2.782-.156M81.73 84.031c-.714.188-.48 1.262.297 1.371.668.094 1.125.961 1.125 2.137-.004.727-1.12 2.32-1.422 2.02-.468-.47-1.523.207-1.523.976 0 .75.066.797 1.027.797 1.004 0 1.918-.602 1.918-1.27 0-.68.688-.449.934.313.328 1.004 1.394 1.242 2.285.508 1.453-1.2 1.645-1.582.934-1.856-.215-.086-.594.047-.84.293-.543.543-.895.153-.903-.996-.003-.402-.124-.734-.269-.734-.148 0-.27-.18-.27-.403 0-.218.106-.398.235-.398.133 0 .3-.242.379-.535.113-.426.363-.54 1.234-.54 1.074 0 1.098-.015 1.098-.933 0-1.144-1.621-1.406-2.48-.402-.255.297-.63.535-.833.535s-.437-.238-.511-.535c-.141-.535-1.141-.676-2.415-.348m89.915 0c-.747.196-.477 1.262.351 1.38 1.703.237 1.316 4.05-.41 4.05-1.39 0-1.887.684-1.082 1.492.625.625 1.516.438 2.441-.516l.868-.894.238.828c.375 1.317 2.113 1.344 2.988.047.86-1.277.316-2.074-.715-1.043-.422.422-.465.375-.695-.734-.137-.653-.356-1.258-.492-1.348-.48-.324 1.035-1.578 1.906-1.578.781 0 .84-.063.84-.934 0-1.5-2.406-1.18-3.016.403-.094.238-.164.265-.176.07-.07-1.086-1.445-1.637-3.046-1.223m44.707 0c-.704.184-.63 1.418.085 1.418 1.184 0 1.977 2.633.918 3.04-.222.085-.402.34-.402.562 0 .289-.273.41-.922.41-1.062 0-1.336.305-1.105 1.219.297 1.187 3.097.363 3.097-.914 0-.711.528-.227.688.632.262 1.415 3.059 1.114 3.059-.328 0-.187.12-.34.265-.34.422 0 .317-.535-.14-.71-.227-.086-.649.054-.938.316-.508.457-.527.457-.527-.102 0-.316-.106-.574-.235-.574-.132 0-.3-.39-.375-.87-.18-1.165.633-2.075 1.864-2.075.836 0 .886-.05.886-.934 0-.879-.05-.937-.875-.937-.988 0-2.066.636-2.066 1.219 0 .66-.402.425-.723-.415-.304-.812-1.09-1-2.554-.617"/><path fill="#fc0404" fill-rule="evenodd" d="M132.188 76c-.329.23-.602.574-.602.762 0 .187-.168.406-.375.484s-.457.512-.559.965c-.097.45-.28.82-.402.82-.125 0-.309.39-.41.867-.106.48-.293 1-.422 1.16-.828 1.036-.832 11.067-.004 11.598.129.082.316.54.422 1.02.101.476.289.867.414.867.121 0 .305.371.402.82.102.453.352.887.559.965.207.082.375.285.375.457 0 .418.976 1.235 1.476 1.235.22 0 .399-.239.399-.536 0-.293-.098-.53-.215-.53s-.367-.423-.55-.938c-.188-.516-.446-.938-.575-.938s-.316-.57-.422-1.27c-.101-.699-.32-1.355-.484-1.46-.414-.266-.414-10.856 0-11.121.16-.106.379-.645.48-1.2.207-1.129 1.14-2.87 1.543-2.87.336 0 .172-1.407-.18-1.5-.148-.04-.538.113-.87.343m10.453-.004c-.114.29.07.652.523 1.04.379.327.848 1.124 1.035 1.765.188.64.446 1.238.574 1.328.13.086.301 1.32.387 2.742.086 1.418.254 2.578.383 2.578.125 0 .227.723.227 1.606 0 .882-.102 1.605-.227 1.605s-.305 1.164-.398 2.59c-.094 1.422-.274 2.656-.399 2.742-.129.082-.309.473-.406.867-.098.391-.535 1.075-.98 1.516-1.051 1.05-1.051 1.645 0 1.645.44 0 .804-.102.804-.223 0-.125.3-.578.668-1.004.773-.898 1.473-2.273 1.473-2.89 0-.239.11-.43.242-.43.422 0 .828-3.285.828-6.684 0-3.305-.406-6.687-.8-6.687-.114 0-.29-.43-.387-.95-.098-.523-.352-1.02-.567-1.101-.21-.082-.387-.266-.387-.41 0-1.008-2.285-2.454-2.593-1.645m104.609.469c-.473.504-.86 1.031-.86 1.176 0 .144-.175.328-.386.41-.215.082-.469.578-.566 1.101-.098.52-.282.95-.407.95-.129 0-.308.601-.406 1.335-.098.735-.281 1.336-.41 1.336-.13 0-.235 1.809-.235 4.016 0 2.203.106 4.008.235 4.008s.312.605.41 1.34c.098.734.27 1.336.379 1.336.113 0 .344.511.512 1.136.332 1.215 2.187 3.41 2.879 3.41.55 0 .507-.96-.067-1.542-.922-.934-1.77-3.559-1.89-5.872-.063-1.218-.223-2.214-.348-2.214-.133 0-.235-.782-.235-1.739 0-.953.102-1.738.227-1.738s.3-1.035.39-2.297c.09-1.265.274-2.441.407-2.61.133-.171.398-.788.586-1.378s.566-1.227.84-1.418c.558-.398.672-1.656.152-1.656-.191 0-.734.41-1.207.91m10.914-.11c0 .442.125.801.281.801.153 0 .407.364.563.805.152.441.375.8.496.8s.305.512.406 1.137c.106.625.328 1.223.492 1.329.418.261.426 11.117.012 11.386-.164.106-.367.664-.46 1.242-.09.575-.267 1.118-.392 1.204s-.382.546-.578 1.023c-.191.477-.457.871-.586.871s-.234.238-.234.531c0 1.368 2.453-.507 2.813-2.152.093-.434.273-.789.398-.789s.379-.691.566-1.54c.184-.843.457-1.616.61-1.718.375-.254.379-8.32.004-8.805-.16-.207-.438-1.066-.621-1.914-.18-.843-.43-1.535-.547-1.535-.125 0-.293-.273-.38-.601-.179-.68-2.14-2.875-2.566-2.875-.152 0-.277.36-.277.8m-17.55 4.403c-.302 1.203.23 4.543.741 4.64.372.07.489-.21.637-1.535.102-.894.29-1.625.418-1.625.434 0 .235-1.066-.305-1.601-.718-.723-1.289-.676-1.492.12m-119.797 3.665c-.406.355-.734.789-.734.969s-.121.324-.27.324c-.425 0-.312 1.87.141 2.32.414.414.297 2.266-.156 2.445-3.535 1.399-.867 4.551 3.32 3.922 2.903-.437 3.676-3.504 1.02-4.035-.465-.094-.844-.277-.844-.402 0-.13-.297-.235-.664-.235-1.149 0-.48-.722.84-.902 1.543-.21 2.488-1.062 2.492-2.242.004-.684.117-.871.531-.871.602 0 1.258-1 .89-1.363-.648-.649-5.804-.594-6.566.07m14.852-.399c-.594.239-.406 1.426.227 1.426.332 0 .617.215.699.535.078.293.246.536.375.536.133 0 .238.355.238.793 0 .996-1.207 2.28-2.14 2.28-.56 0-.684.145-.755.872-.152 1.582 2.274 1.082 3.028-.621.215-.485.234-.48.336.086.054.332.215.601.351.601.137 0 .25.18.25.403 0 .757 1.528.48 2.407-.442.914-.957.988-1.246.37-1.48-.261-.102-.534.008-.683.273-.418.75-.7.5-.996-.887-.437-2.03-.09-2.683 1.438-2.683 1.207 0 1.21 0 1.21-.934 0-1.152-2.105-1.469-2.675-.402-.328.61-1.07.723-1.07.164 0-.606-1.606-.926-2.61-.52m96.617.422c-1.191.844-1.605 2.918-.75 3.774.461.457.531.976.137.976-.149 0-.27.313-.27.692 0 .472-.172.742-.539.836-.293.078-.61.425-.695.777-.09.352-.27.637-.398.637-.461 0-.23.832.421 1.539 1.004 1.082 5.079 1.086 6.157.008 1.156-1.153.902-2.93-.461-3.266-.551-.137-1.004-.348-1.004-.469 0-.12-.371-.219-.824-.219-1.2 0-.434-.68 1.054-.93 1.39-.234 2.176-1.023 2.176-2.179 0-.75.102-.879.738-.953.567-.066.754-.246.817-.781.136-1.164-5.043-1.512-6.559-.442m18.586-.414c-.86.223-.601 1.418.305 1.418.887 0 1.101.371 1.101 1.903 0 .691-.14 1.109-.402 1.21-.219.086-.402.32-.402.528 0 .246-.313.37-.922.37-1.063 0-1.336.306-1.106 1.22.301 1.191 3.098.41 3.098-.864 0-.75.52-.308.687.582.266 1.415 3.06 1.114 3.06-.328 0-.187.12-.34.269-.34.421 0 .312-.535-.145-.71-.226-.086-.648.054-.937.316-.504.457-.524.457-.524-.102 0-.316-.11-.574-.238-.574-.13 0-.293-.39-.363-.87-.168-1.15.656-2.063 1.87-2.067.817-.004.872-.063.872-.942s-.055-.937-.88-.937c-1.026 0-2.062.644-2.07 1.285-.003.297-.199.152-.562-.414-.555-.871-1.289-1.055-2.71-.684M123.98 85.566c.36 1.438-.777 2.621-1.93 2.004-.585-.316-.886-1.05-.429-1.05.11 0 .363-.36.555-.805.46-1.035 1.558-1.13 1.804-.149m111.383-.332c.516.52.371 1.309-.36 1.989-1.57 1.457-2.694-.168-1.233-1.778.523-.574 1.148-.656 1.593-.21m-112.117 6.66c.05.132.262.242.469.242.926 0 .21.953-.89 1.191-1.845.399-3.067-.355-2.454-1.504.305-.57 2.664-.511 2.875.07m111.59.012c.05.125.262.23.469.23 1.129 0-.184 1.048-1.547 1.235-1.653.227-2.762-.61-1.969-1.484.527-.582 2.82-.57 3.047.02m-157.79 8.413c-.452.528-.898 1.309-.991 1.739-.094.425-.274.777-.399.777-.12 0-.308.39-.414.867-.101.48-.293.938-.418 1.02-.82.523-.82 11.215 0 11.738.125.082.317.539.418 1.02.106.476.29.867.406.867.122 0 .301.328.403.73.191.758 2.023 2.746 2.531 2.746.43 0 .348-1.222-.113-1.601-.223-.184-.403-.493-.403-.68 0-.191-.113-.387-.254-.438-.136-.046-.406-.69-.597-1.425-.188-.735-.465-1.422-.617-1.528-.41-.289-.36-11.14.05-11.398.176-.11.407-.711.504-1.344.102-.629.348-1.308.551-1.508.2-.203.363-.48.363-.62s.18-.403.403-.587c.219-.183.398-.558.398-.836 0-.82-.926-.586-1.82.461m10.922-.523c0 .238.289.707.648 1.035.356.332.801 1.129.988 1.77.192.644.438 1.234.555 1.316.758.531.766 12.812.008 13.34-.121.086-.371.68-.563 1.324-.187.64-.632 1.438-.988 1.77-.765.707-.851 1.472-.168 1.472.54 0 2.196-1.578 2.196-2.094 0-.18.175-.398.394-.48.215-.082.469-.559.563-1.062.093-.5.265-.91.382-.91.395 0 .801-3.383.801-6.684 0-3.305-.406-6.688-.8-6.688-.118 0-.29-.422-.387-.937s-.29-.938-.43-.938-.258-.133-.258-.3c0-.493-1.96-2.372-2.472-2.372-.258 0-.47.196-.47.438m98.407 5.504c-.555.597-1.078 1.37-1.168 1.715-.086.347-.254.632-.371.632-.113 0-.36.633-.543 1.407-.184.77-.465 1.488-.629 1.593-.398.258-.41 9.516-.012 9.782.157.105.438.882.621 1.73.188.848.45 1.54.582 1.54.133 0 .313.284.399.632.172.672 2.02 2.574 2.504 2.574s.332-1.05-.242-1.664c-.293-.316-.536-.734-.536-.926 0-.195-.105-.351-.238-.351-.129 0-.32-.45-.426-1-.101-.555-.328-1.09-.496-1.195-.43-.266-.441-11.918-.011-12.192.168-.105.39-.598.496-1.094.23-1.043 1.152-2.707 1.504-2.707.132 0 .242-.359.242-.8 0-1.079-.453-.993-1.676.324m11.043-.375c0 .414.223.992.5 1.289.273.293.664 1.008.867 1.586s.492 1.14.637 1.242c.52.371.336 12.516-.2 13.45-.257.445-.464 1.007-.464 1.253s-.153.613-.336.813c-.992 1.078-1.297 2.347-.567 2.347.465 0 1.704-1.183 1.704-1.625 0-.144.171-.328.382-.41.211-.078.532-.738.72-1.46.187-.727.425-1.317.538-1.317.11 0 .274-.57.363-1.27.09-.699.278-1.48.418-1.734.317-.582.336-6.543.024-6.735-.125-.078-.3-.742-.387-1.476-.086-.734-.328-1.61-.543-1.945a5.3 5.3 0 0 1-.55-1.352c-.098-.402-.29-.734-.434-.734s-.266-.13-.266-.29c0-.288-1.988-2.386-2.262-2.386-.078 0-.144.34-.144.754m-131.195 3.246c-.403.324-.735.758-.735.969s-.12.382-.27.382c-.41 0-.312 1.86.118 2.293.434.434.277 2.254-.223 2.575-1.242.8-1.496 1.144-1.496 1.996 0 .62.149.965.469 1.082.254.094.55.3.656.457.235.351 4.465.347 4.719 0 .098-.137.418-.38.71-.543 1.09-.602.755-2.86-.468-3.16-.55-.137-1.004-.348-1.004-.47 0-.12-.297-.218-.66-.218-1.223 0-.45-.73.973-.918 1.18-.156 1.386-.277 1.648-.969.164-.433.39-.789.508-.789.113 0 .207-.3.207-.668 0-.476.145-.668.508-.668.453 0 1.055-1.203.754-1.503-.508-.508-5.739-.383-6.414.152m14.851-.344c-.554.223-.398 1.16.2 1.16.34 0 .59.235.695.668.094.367.277.668.406.668.582 0 .207 1.598-.55 2.356-.434.433-.852.73-.927.656-.445-.445-1.523.258-1.445.945.149 1.266 2.016 1.188 2.895-.12.601-.895.68-.938.754-.411.046.324.199.586.335.586.137 0 .25.18.25.402q0 .399.797.399c.84 0 2.414-1.332 2.414-2.043 0-.492-.976-.461-1.168.039-.28.734-.699.414-.87-.668-.094-.59-.278-1.07-.407-1.07-.125 0-.234-.18-.234-.403 0-.219.11-.398.238-.398.129 0 .3-.242.375-.54.117-.437.367-.53 1.387-.53 1.246 0 1.246-.004 1.164-.872-.11-1.125-1.785-1.43-2.668-.484-.594.637-1.028.715-1.028.18 0-.606-1.605-.926-2.613-.52m-11.625 1.703c.121 1.04-1.031 2.25-1.926 2.028-.89-.223-.933-1.184-.093-2.153.797-.918 1.906-.847 2.02.125m106.894 3.106c-.332.074-.602.23-.602.351 0 .117-.242.278-.535.356-.297.078-.535.332-.535.566 0 .235-.121.426-.27.426-.41 0-.32 2.297.11 2.652.383.32.277 1.36-.14 1.36-.13 0-.235.215-.235.472 0 .258-.301.696-.668.973-.707.531-.926 2.02-.418 2.82.574.91 5.097.719 6.238-.261 1.68-1.442 1.152-3.028-1.125-3.364-2.012-.297-1.867-1.148.262-1.539 1.137-.207 1.855-.98 2.054-2.203.106-.656.286-.91.649-.91.379 0 .5-.195.5-.8 0-.708-.094-.806-.762-.806-.422 0-1.476-.05-2.344-.109-.867-.066-1.847-.055-2.18.016m14.118.062c-1.07.192-1.363 1.149-.402 1.328.761.141 1.203.563 1.203 1.145 0 .277.12.5.27.5.148 0 .265.305.265.672s-.121.668-.274.668c-.152 0-.39.3-.527.668-.207.543-.437.668-1.215.668-1.258 0-1.355 1.672-.11 1.82.688.078 2.126-.961 2.126-1.54 0-.151.121-.28.27-.28.144 0 .265.242.265.535s.121.535.27.535c.144 0 .265.195.265.437 0 .348.188.407.918.286 1.13-.18 2.028-1.036 2.028-1.926 0-.778-.461-.875-.958-.2-.484.653-.875.184-1.07-1.28-.168-1.239.617-2.641 1.254-2.247.149.094.563.094.922 0 .773-.191.95-1.586.23-1.863-.976-.371-1.3-.246-2.988 1.18-.246.21-.336.175-.336-.125 0-.227-.12-.414-.265-.414-.149 0-.27-.18-.27-.399 0-.418-.297-.445-1.871-.168m-12.266 1.278c.93.84-.004 2.5-1.402 2.5-1.094 0-1.121-1.332-.047-2.278.883-.781.84-.773 1.45-.222M68.41 115.559c.813.156 1.383.918.684.918-.219 0-.395.109-.395.246 0 .355-1.414.613-2.23.41-1.457-.367-1.074-2.156.402-1.871.414.078 1.11.21 1.54.297m108.98 5.113c1.261.558 1.316 1.074.14 1.297-1.46.273-2.71.054-2.812-.492-.25-1.305.816-1.622 2.672-.805"/><g clip-path="url(#b)"><path fill="#242424" fill-rule="evenodd" d="M54.516 98.691v23.668h6.156v-1.605h-4.55V76.91l2.21-.074 2.207-.078.082-.871.086-.867h-6.191zm41.48-22.738v.938h4.281v43.863h-4.28v1.605h5.886V75.02h-5.887zm-49.055 6.215c-.925.137-1.246.828-.597 1.3 1.105.81.215 2.329-1.399 2.384-.87.03-1.586.218-1.89.492-.27.242-.598.445-.735.449-.351.008-1.718 2.004-1.718 2.512 0 .234-.122.425-.27.425-.469 0-.309 2.618.195 3.207.614.715 2.192.715 3.016 0 .793-.683 1.074-.675 1.074.036 0 .504.11.554.961.414 1.477-.239 2.754-2.055 1.442-2.055-.536 0-.528-1.223.007-1.602.102-.074.34-.945.524-1.94.183-.993.43-1.806.543-1.806s.289-.539.386-1.195c.098-.66.293-1.27.434-1.355.137-.086.25-.45.25-.809 0-.687-.3-.746-2.223-.457m138.817 4.469c-.29 1.156-.047 1.218 4.582 1.218h4.402v-1.87h-8.82zm-140.2.968c.25.786-1.738 3.997-2.472 3.997-.191 0-.344.128-.344.285 0 .16-.18.105-.402-.114-.531-.53-.508-.855.164-2.234 1.094-2.262 2.637-3.238 3.055-1.934m59.535 10.016v.668h8.297v-1.336h-8.297zm-69.309 1.07v.668H53.18v-1.34H35.785zm25.957 0v.668h32.914v-1.34H61.742zm55.395 0v.668H263.78v-1.34H117.137zm-12.043 1.47v.804h8.297v-1.606h-8.297zm103.496 1.79c-.258.066-.469.355-.469.636 0 .285-.121.516-.266.516-.148 0-.27.183-.27.402 0 .25.255.402.68.402.372 0 .747-.183.829-.402.086-.219.398-.402.695-.402 1.035 0 .477 1.851-.996 3.3-1.719 1.692-1.54 2.051 1.031 2.051 2.082 0 2.313-.137 2.313-1.371 0-.457-.125-.504-.942-.352-1.09.207-1.07-.335.055-1.378 1.914-1.774.078-4.118-2.66-3.403m-163.574 1.422c-.09.149-.641.266-1.22.266-.874 0-1.054.09-1.054.535 0 .363.18.535.547.535.488 0 .527.11.363.996-.246 1.29-.66 1.68-1.789 1.68-1.93 0-3.27.8-3.965 2.367-.203.46-.46.844-.574.844-.488 0-.207 3.12.328 3.601.66.598 2.895.442 3.27-.23.328-.582.75-.543.75.07 0 .453.215.496 2.207.465 2.191-.035 2.879-.21 2.879-.734 0-.774.75-1.008.93-.293.43 1.718 3.617 1.011 3.617-.801 0-.649-.766-.598-1.36.086-.484.555-.488.547-.668-.801-.101-.75-.304-1.363-.457-1.363-.152 0-.093-.211.13-.469.222-.258.472-.672.562-.922.125-.355.367-.422 1.11-.3.921.148.952.128.952-.684 0-1.02-1.629-1.239-2.562-.344-.5.48-.528.48-.98-.035-.38-.434-.7-.504-1.805-.399-1.016.098-1.344.043-1.344-.23 0-.2.11-.363.242-.363.188 0 .828-2.754.828-3.567 0-.281-.754-.21-.937.09m125.293.89c-.559.614-1.157 1.626-1.325 2.25-.172.626-.402 1.137-.511 1.137-.11 0-.282.454-.38 1.004-.1.551-.316 1.172-.484 1.38-.41.519-.414 10.937 0 11.202.164.106.383.762.485 1.461s.293 1.27.418 1.27.308.351.402.781.375 1.02.621 1.317c.25.292.68.843.957 1.226.598.813 1.504.926 1.504.188 0-.274-.242-.801-.535-1.176-.297-.375-.535-.781-.54-.906 0-.125-.19-.586-.421-1.028-.234-.441-.492-1.433-.57-2.207-.082-.773-.254-1.406-.38-1.406-.128 0-.23-2.285-.23-5.082 0-2.793.102-5.078.23-5.078.126 0 .302-.696.391-1.54.168-1.605 1.055-3.792 1.688-4.16.46-.269.492-1.8.031-1.769-.183.012-.793.523-1.351 1.137m32.195-.371c0 .433.156.886.348 1.004.664.406 1.523 2.156 1.699 3.457.097.714.293 1.382.441 1.48.375.242.36 11.719-.015 11.953-.153.094-.368.778-.473 1.512-.191 1.344-1.004 3.027-1.652 3.422-.536.328-.434 1.258.136 1.258.578 0 1.657-.942 1.657-1.454 0-.199.167-.425.375-.503.207-.082.457-.516.554-.965.102-.453.281-.82.403-.82.125 0 .312-.512.414-1.137.105-.625.328-1.223.492-1.328.433-.274.422-11.926-.008-12.192-.172-.105-.395-.64-.5-1.195-.102-.551-.277-1-.39-1-.11 0-.352-.535-.536-1.188-.183-.652-.5-1.25-.703-1.328s-.371-.265-.371-.418c0-.418-1.016-1.347-1.473-1.347q-.398.002-.398.789M42.516 109.47c-.09.676-.352 1.09-1.18 1.87-.254.243-.469.599-.469.794 0 .191-.21.426-.469.52-.253.097-.554.304-.668.46-.296.426-.726-.36-.73-1.343-.004-.457.238-1.106.531-1.446s.535-.765.535-.945.36-.477.801-.66c.446-.184.805-.446.805-.586s.207-.047.465.21c.258.259.425.755.379 1.126m3.23-.88c1.281.325 1.43 3.255.2 4.013-1.622 1-2.704-.586-1.708-2.497.207-.394.375-1.078.38-1.52.003-.456.093-.667.206-.487.11.172.524.394.922.492m259.785 118.332v4.836h1.348l-.074-4.75c-.07-4.696-.078-4.75-.672-4.832l-.602-.086zm26.938-4.617c-.223.222-.239 8.449-.016 9.027.371.969 1.176.48 1.18-.71.004-1.243.453-2.231.715-1.575.082.2.375.555.652.793.273.238.5.558.5.71 0 .79 1.695 1.54 1.965.872.11-.266.14-.266.156 0 .024.39 3.5.488 3.5.098 0-.13.238-.297.535-.375 1.406-.368.34-3.399-1.195-3.399-.227 0-.41-.11-.41-.242 0-.129-.301-.313-.668-.406-1.563-.391-.766-1.043 1.07-.871 1.711.156 1.738.148 1.738-.5 0-.473-.144-.657-.52-.657-.284 0-.593-.12-.683-.27-.5-.804-3.234.184-3.515 1.274-.364 1.399.238 2.051 2.777 3.012 1.629.613.559 1.25-1.676 1-.73-.082-1.215-.024-1.277.16-.05.164-.324-.062-.606-.5-.28-.441-.57-.86-.648-.934-.902-.859-.879-1.042.254-2.128 1.058-1.02 1.32-1.848.648-2.07-.16-.052-.941.527-1.738 1.284l-1.445 1.38-.078-2.575c-.075-2.55-.407-3.207-1.215-2.398m10.527 4.636v4.817h.668c.66 0 .668-.024.668-2.367 0-2.68.379-3.364 1.785-3.203l.758.085.074 2.758.078 2.758.727-.082.726-.086.079-2.535c.086-2.848-.145-3.543-1.372-4.152-.91-.457-2.054-.528-2.054-.133 0 .148-.18.27-.399.27-.308 0-.402-.344-.402-1.473 0-1.391-.035-1.47-.668-1.47h-.668zm-48.523-3.847c-2.809 1.52-3.024 8.129-.27 8.129.195 0 .356.117.356.265 0 .48 3.664.332 3.851-.156.399-1.039.211-1.18-1.562-1.18-3.063 0-4.555-3.218-2.414-5.203.757-.699.918-.738 3.195-.789.953-.02 1.351-.14 1.406-.43.188-.972-3.098-1.433-4.562-.636m6.507 1.707c0 .148-.226.27-.503.27-.274 0-.637.163-.805.367-.527.632.25.976 1.797.789 1.289-.149 1.386-.122 1.386.41 0 .457-.164.574-.789.574-.433 0-.851.105-.933.238-.082.13-.477.32-.883.422-1.27.316-1.762 2.973-.605 3.274.293.078.53.246.53.375 0 .355 2.259.285 2.626-.086.25-.246.32-.246.32 0 0 .18.242.324.535.324.574 0 .836-5.266.305-6.106-.527-.828-2.98-1.53-2.98-.851m8.363.219c-.48.226-.871.52-.871.652 0 .133-.18.418-.403.64-.254.254-.398.907-.394 1.786.004 1.964.21 2.523 1.094 2.914.425.187.773.43.773.543 0 .425 2.879.218 3.05-.223.427-1.11-.78-1.734-1.66-.86-.245.25-.32.25-.32 0 0-.175-.16-.32-.36-.32-1.128 0-1.679-2.43-.784-3.476.758-.883 3.285-.781 3.285.133 0 .367.101.668.223.668.12 0 .367.796.546 1.77.457 2.472 1.72 3.51 2.082 1.706.086-.441.266-.8.395-.8s.234-.153.234-.337c.008-1.921.993-2.675 1.051-.804.059 1.836 2.16 4.004 2.16 2.226 0-.285.102-.582.227-.66.129-.078.383-1.05.574-2.156.188-1.11.45-2.016.574-2.016.13 0 .23-.375.23-.832 0-.734-.07-.816-.6-.672-.333.086-.68.16-.774.164-.094 0-.254.563-.356 1.243-.343 2.277-.785 2.648-1.078.902-.101-.59-.293-1.07-.426-1.07-.132 0-.246-.243-.246-.536 0-.394-.175-.535-.668-.535-.418 0-.668.149-.668.399 0 .222-.113.402-.25.402-.136 0-.394.664-.578 1.473-.406 1.824-.656 1.86-.886.133-.098-.735-.293-1.336-.438-1.336-.14 0-.258-.243-.258-.536 0-.507-.129-.566-1.379-.644-.246-.012-.535-.117-.648-.227-.313-.308-1.492-.172-2.453.286m13.847-.247c0 .133-.3.313-.668.407-.367.093-.668.336-.668.543a.55.55 0 0 1-.335.484c-1.086.363-.118 5.016 1.043 5.016.199 0 .359.117.359.265s.543.27 1.207.27c.66 0 1.203-.094 1.203-.207 0-.11.27-.32.602-.465 1.812-.797 1.351-5.984-.536-6.012-.183-.004-.332-.125-.332-.273 0-.145-.425-.266-.937-.266-.516 0-.938.106-.938.238m6.692.012c0 .156-.422.285-.938.285h-.937v3.344c0 3.164.027 3.344.535 3.344.484 0 .535-.18.535-1.82 0-1 .11-1.934.246-2.075.133-.14.285-.554.336-.922.074-.562.25-.683 1.106-.754.933-.074 1.015-.144.937-.8-.082-.73-1.82-1.305-1.82-.602m21.676-.004c0 .137-.356.324-.786.418-.59.13-.832.367-.96.957-.094.434-.282.785-.418.785-.903 0 .16 3.961 1.128 4.211.274.075.5.239.5.368 0 .128.602.238 1.336.238.739 0 1.34-.113 1.34-.25s.211-.317.469-.399c1.262-.402 1.664-3.324.687-4.976-.675-1.14-3.296-2.215-3.296-1.352m6.687.02c0 .148-.418.27-.937.27h-.934v9.398l.602-.086c.511-.074.613-.274.683-1.356l.082-1.27h1.324c.727 0 1.32-.12 1.32-.269 0-.148.173-.265.384-.265 1.003 0 1.71-2.918 1.085-4.48-.605-1.513-3.609-3.126-3.609-1.942m8.652.238c-2.16 1.102-2.328 6.184-.203 6.184.211 0 .383.117.383.265s.649.27 1.442.27c1.453 0 1.77-.219 1.77-1.227 0-.48-1.505-.52-1.696-.047-.09.22-.215.243-.36.067-.12-.145-.46-.399-.754-.559-.394-.219-.558-.625-.617-1.531-.125-1.91.223-2.32 1.965-2.32 1.215 0 1.461-.078 1.461-.47-.008-1.023-1.922-1.378-3.39-.632m5.8-.238c0 .148-.137.27-.297.27-.468 0-1.566 1.156-1.574 1.656 0 .246-.125.527-.27.617-.335.207-.355 1.656-.023 1.86.137.081.328.507.422.937.098.441.398.859.691.953.282.09.516.277.516.414s.602.25 1.336.25c.738 0 1.34-.11 1.34-.238 0-.13.219-.293.484-.364 1.332-.347 1.824-4.05.692-5.176-1.239-1.222-3.317-1.964-3.317-1.18m6.688 0c0 .15-.422.27-.934.27h-.937v6.688h.668c.668 0 .668-.004.668-2.66 0-2.903.207-3.235 1.761-2.844.633.16.649.23.649 2.832 0 2.672 0 2.672.668 2.672s.668-.004.668-2.66c0-2.903.207-3.235 1.761-2.844.633.16.649.23.649 2.832 0 2.492.035 2.672.535 2.672.504 0 .535-.18.535-3.059v-3.058l-.777-.555c-.781-.555-2.168-.758-2.168-.316 0 .445-1.188.55-1.79.156-.679-.446-1.956-.528-1.956-.125m-54.457 1.543c1.5 1.101.945 3.875-.77 3.875-1.586 0-2.418-2.246-1.308-3.543.453-.531 1.566-.711 2.078-.332m28.148-.04c1.117.298 1.059 3.598-.066 3.81-.285.054-.606.238-.715.402-.14.218-.195.21-.2-.032-.003-.183-.179-.332-.398-.332-.558 0-.945-.863-.945-2.105 0-1.598.754-2.164 2.324-1.742m7.383.886c.309 1.192.02 2.676-.555 2.887-.25.094-.535.285-.629.43-.109.164-.343.097-.601-.156-.23-.23-.555-.465-.719-.52-.43-.144-.36-3.187.078-3.473.875-.57 2.18-.125 2.426.832m14.547.11c.41 1.183-.074 2.851-.824 2.851-.227 0-.414.114-.414.254 0 .676-1.618-.715-1.77-1.523-.504-2.66 2.152-4.059 3.008-1.582m-72.153 2.023c0 .547-1.132 1.067-1.94.89-.536-.116-.638-1.023-.138-1.222.899-.363 2.078-.176 2.078.332m59.997.883c-.618.613-.016 1.55.996 1.55.457 0 .554-.167.554-.937 0-1.004-.832-1.332-1.55-.613"/></g></svg>