<svg xmlns="http://www.w3.org/2000/svg" xmlns:xlink="http://www.w3.org/1999/xlink" width="400" zoomAndPan="magnify" viewBox="0 0 300 168.749997" height="225" preserveAspectRatio="xMidYMid meet" version="1.0"><defs><clipPath id="80a81d8f2f"><path d="M 0.222656 0 L 299.777344 0 L 299.777344 168.5 L 0.222656 168.5 Z M 0.222656 0 " clip-rule="nonzero"/></clipPath><clipPath id="a62ba50e4b"><path d="M 35 75 L 299.777344 75 L 299.777344 168.5 L 35 168.5 Z M 35 75 " clip-rule="nonzero"/></clipPath></defs><g clip-path="url(#80a81d8f2f)"><path fill="#ffffff" d="M 0.222656 0 L 299.777344 0 L 299.777344 168.5 L 0.222656 168.5 Z M 0.222656 0 " fill-opacity="1" fill-rule="nonzero"/><path fill="#ffffff" d="M 0.222656 0 L 299.777344 0 L 299.777344 168.5 L 0.222656 168.5 Z M 0.222656 0 " fill-opacity="1" fill-rule="nonzero"/></g><path fill="#0404fc" d="M 77.902344 76.542969 C 77.402344 77.085938 76.996094 77.6875 76.996094 77.878906 C 76.996094 78.070312 76.886719 78.226562 76.753906 78.226562 C 76.617188 78.226562 76.355469 78.828125 76.167969 79.566406 C 75.976562 80.300781 75.734375 80.902344 75.628906 80.902344 C 75.519531 80.902344 75.355469 81.714844 75.265625 82.707031 C 75.171875 83.703125 74.980469 84.722656 74.84375 84.976562 C 74.527344 85.554688 74.503906 88.660156 74.816406 88.660156 C 74.941406 88.660156 75.117188 89.519531 75.207031 90.574219 C 75.292969 91.628906 75.472656 92.5625 75.597656 92.648438 C 75.726562 92.734375 75.988281 93.378906 76.179688 94.074219 C 76.375 94.773438 76.632812 95.347656 76.761719 95.347656 C 76.890625 95.347656 76.996094 95.476562 76.996094 95.636719 C 76.996094 96.21875 78.480469 98.007812 78.96875 98.015625 C 79.613281 98.023438 79.40625 96.710938 78.601562 95.691406 C 78.308594 95.3125 78.066406 94.792969 78.066406 94.53125 C 78.066406 94.265625 77.945312 94.011719 77.796875 93.964844 C 76.925781 93.671875 76.871094 80.429688 77.742188 79.859375 C 77.875 79.769531 78.066406 79.359375 78.167969 78.941406 C 78.273438 78.523438 78.589844 77.929688 78.878906 77.621094 C 79.441406 77.015625 79.601562 75.554688 79.105469 75.554688 C 78.941406 75.554688 78.398438 75.996094 77.902344 76.542969 M 88.949219 75.730469 C 88.597656 76.082031 88.777344 76.765625 89.304688 77.097656 C 89.601562 77.28125 89.839844 77.609375 89.839844 77.828125 C 89.839844 78.050781 89.953125 78.226562 90.089844 78.226562 C 90.226562 78.226562 90.488281 78.917969 90.667969 79.765625 C 90.851562 80.613281 91.117188 81.457031 91.261719 81.648438 C 91.65625 82.160156 91.621094 91.800781 91.226562 92.195312 C 91.054688 92.371094 90.910156 92.757812 90.910156 93.058594 C 90.90625 94.160156 90.359375 95.5 89.574219 96.335938 C 88.582031 97.390625 88.527344 98.019531 89.433594 98.019531 C 89.863281 98.019531 90.261719 97.765625 90.5625 97.285156 C 90.820312 96.878906 91.1875 96.453125 91.371094 96.335938 C 91.558594 96.21875 91.714844 95.949219 91.714844 95.734375 C 91.714844 95.519531 91.820312 95.347656 91.953125 95.347656 C 92.085938 95.347656 92.34375 94.714844 92.527344 93.941406 C 92.710938 93.167969 92.996094 92.453125 93.15625 92.347656 C 93.582031 92.074219 93.566406 81.488281 93.144531 81.226562 C 92.972656 81.121094 92.746094 80.582031 92.644531 80.03125 C 92.542969 79.476562 92.226562 78.738281 91.953125 78.382812 C 91.671875 78.03125 91.445312 77.671875 91.445312 77.589844 C 91.445312 77.332031 89.632812 75.554688 89.371094 75.554688 C 89.238281 75.554688 89.046875 75.632812 88.949219 75.730469 M 168.09375 76.433594 C 167.640625 76.90625 167.191406 77.503906 167.097656 77.761719 C 167.003906 78.015625 166.816406 78.226562 166.679688 78.226562 C 166.542969 78.226562 166.277344 78.859375 166.09375 79.632812 C 165.914062 80.402344 165.628906 81.121094 165.464844 81.226562 C 165.265625 81.355469 165.171875 83.160156 165.171875 86.789062 C 165.171875 90.414062 165.265625 92.21875 165.464844 92.347656 C 165.628906 92.453125 165.914062 93.167969 166.09375 93.941406 C 166.277344 94.714844 166.539062 95.347656 166.667969 95.347656 C 166.800781 95.347656 166.910156 95.503906 166.910156 95.695312 C 166.910156 96.304688 168.789062 98.019531 169.457031 98.019531 C 170.019531 98.019531 169.949219 97.296875 169.320312 96.621094 C 169.023438 96.304688 168.785156 95.890625 168.785156 95.695312 C 168.785156 95.503906 168.671875 95.347656 168.539062 95.347656 C 168.402344 95.347656 168.207031 94.957031 168.101562 94.476562 C 168 94 167.804688 93.539062 167.667969 93.449219 C 166.882812 92.949219 166.898438 80.617188 167.6875 80.113281 C 167.8125 80.03125 168 79.574219 168.101562 79.097656 C 168.207031 78.621094 168.402344 78.226562 168.539062 78.226562 C 168.671875 78.226562 168.785156 78.054688 168.785156 77.84375 C 168.785156 77.628906 169.035156 77.28125 169.34375 77.0625 C 169.960938 76.632812 169.945312 75.726562 169.316406 75.636719 C 169.097656 75.601562 168.546875 75.964844 168.09375 76.433594 M 179.035156 75.992188 C 178.941406 76.230469 179.007812 76.621094 179.179688 76.859375 C 179.351562 77.097656 179.574219 77.472656 179.675781 77.691406 C 179.777344 77.914062 180.003906 78.242188 180.183594 78.421875 C 180.363281 78.605469 180.59375 79.265625 180.699219 79.894531 C 180.804688 80.523438 181.027344 81.121094 181.195312 81.226562 C 181.644531 81.511719 181.613281 92.261719 181.160156 92.710938 C 180.976562 92.894531 180.824219 93.289062 180.824219 93.589844 C 180.824219 94.242188 179.496094 96.953125 179.175781 96.953125 C 179.054688 96.953125 178.953125 97.191406 178.953125 97.484375 C 178.953125 98.390625 180.058594 98.132812 180.894531 97.03125 C 181.296875 96.5 181.628906 95.902344 181.628906 95.703125 C 181.628906 95.507812 181.726562 95.347656 181.84375 95.347656 C 182.089844 95.347656 182.699219 93.777344 182.699219 93.144531 C 182.699219 92.90625 182.820312 92.675781 182.964844 92.625 C 183.109375 92.578125 183.300781 91.753906 183.386719 90.796875 C 183.472656 89.84375 183.667969 88.804688 183.820312 88.492188 C 183.96875 88.175781 184.027344 87.335938 183.949219 86.617188 C 183.621094 83.71875 183.175781 81.03125 182.996094 80.902344 C 182.890625 80.828125 182.652344 80.242188 182.464844 79.597656 C 182.105469 78.371094 182.074219 78.320312 180.523438 76.621094 C 179.4375 75.429688 179.277344 75.363281 179.035156 75.992188 M 212.722656 76.386719 C 212.25 76.847656 211.867188 77.386719 211.867188 77.589844 C 211.867188 77.792969 211.753906 77.960938 211.613281 77.960938 C 211.242188 77.960938 210.257812 80.3125 210.078125 81.636719 C 209.992188 82.261719 209.816406 82.773438 209.691406 82.773438 C 209.5625 82.773438 209.460938 84.582031 209.460938 86.789062 C 209.460938 88.992188 209.5625 90.796875 209.691406 90.796875 C 209.816406 90.796875 209.996094 91.34375 210.089844 92.007812 C 210.179688 92.671875 210.496094 93.75 210.792969 94.398438 C 211.089844 95.050781 211.332031 95.652344 211.332031 95.730469 C 211.332031 96.066406 213.503906 98.019531 213.875 98.019531 C 214.449219 98.019531 214.371094 97.046875 213.75 96.421875 C 213.457031 96.132812 213.144531 95.589844 213.050781 95.21875 C 212.957031 94.847656 212.789062 94.542969 212.679688 94.542969 C 212.371094 94.542969 211.867188 91.703125 211.867188 89.953125 C 211.867188 89.089844 211.75 88.390625 211.601562 88.390625 C 211.449219 88.390625 211.332031 87.632812 211.332031 86.652344 C 211.332031 85.671875 211.449219 84.914062 211.601562 84.914062 C 211.746094 84.914062 211.867188 84.351562 211.867188 83.664062 C 211.867188 82.070312 212.394531 79.03125 212.667969 79.03125 C 212.785156 79.03125 212.960938 78.703125 213.0625 78.308594 C 213.164062 77.910156 213.476562 77.421875 213.761719 77.222656 C 214.339844 76.816406 214.464844 75.554688 213.925781 75.554688 C 213.734375 75.554688 213.191406 75.929688 212.722656 76.386719 M 223.644531 76.363281 C 223.644531 76.839844 223.808594 77.238281 224.042969 77.328125 C 224.265625 77.414062 224.445312 77.640625 224.445312 77.835938 C 224.445312 78.03125 224.609375 78.355469 224.8125 78.558594 C 225.253906 78.996094 225.78125 81.3125 225.78125 82.789062 C 225.78125 83.371094 225.902344 83.84375 226.050781 83.84375 C 226.214844 83.84375 226.320312 85.09375 226.320312 87.054688 C 226.320312 89.015625 226.214844 90.265625 226.050781 90.265625 C 225.902344 90.265625 225.78125 90.667969 225.78125 91.164062 C 225.78125 92.5 225.277344 94.929688 224.976562 95.035156 C 224.832031 95.082031 224.714844 95.273438 224.714844 95.460938 C 224.714844 95.648438 224.472656 96.078125 224.179688 96.414062 C 223.546875 97.140625 223.472656 98.019531 224.042969 98.019531 C 224.5625 98.019531 225.78125 96.957031 225.78125 96.5 C 225.78125 96.308594 225.894531 96.148438 226.03125 96.148438 C 226.164062 96.148438 226.355469 95.785156 226.453125 95.347656 C 226.550781 94.90625 226.730469 94.542969 226.855469 94.542969 C 226.980469 94.542969 227.234375 93.851562 227.421875 93.003906 C 227.605469 92.160156 227.878906 91.386719 228.027344 91.285156 C 228.40625 91.03125 228.40625 82.964844 228.03125 82.480469 C 227.875 82.273438 227.597656 81.414062 227.414062 80.566406 C 227.230469 79.722656 226.984375 79.03125 226.863281 79.03125 C 226.742188 79.03125 226.574219 78.757812 226.484375 78.429688 C 226.304688 77.75 224.347656 75.554688 223.921875 75.554688 C 223.769531 75.554688 223.644531 75.917969 223.644531 76.363281 M 70.15625 80.730469 C 69.851562 81.046875 69.316406 81.785156 68.964844 82.375 C 68.214844 83.636719 67.964844 83.835938 67.160156 83.839844 C 66.671875 83.84375 66.558594 83.996094 66.558594 84.648438 C 66.558594 85.289062 66.675781 85.449219 67.128906 85.449219 C 67.71875 85.449219 67.699219 87.480469 67.109375 87.847656 C 66.984375 87.925781 66.792969 88.5625 66.6875 89.261719 C 66.585938 89.960938 66.402344 90.53125 66.285156 90.53125 C 66.167969 90.53125 65.996094 90.984375 65.902344 91.539062 C 65.65625 92.984375 65.292969 93.480469 64.933594 92.871094 C 64.394531 91.953125 63.082031 92.261719 63.082031 93.308594 C 63.082031 95.675781 66.886719 94.460938 67.667969 91.84375 C 67.839844 91.269531 68.074219 90.796875 68.183594 90.796875 C 68.296875 90.796875 68.464844 90.320312 68.566406 89.730469 C 68.664062 89.144531 68.855469 88.59375 68.992188 88.511719 C 69.125 88.429688 69.234375 88.15625 69.238281 87.90625 C 69.238281 86.738281 69.808594 85.449219 70.316406 85.449219 C 70.605469 85.449219 70.839844 85.269531 70.839844 85.046875 C 70.839844 84.828125 70.960938 84.648438 71.109375 84.648438 C 71.253906 84.648438 71.375 84.464844 71.375 84.246094 C 71.375 84.027344 71.152344 83.84375 70.878906 83.84375 C 70.183594 83.84375 70.441406 82.574219 71.296875 81.773438 C 72.054688 81.0625 72.179688 81.035156 72.179688 81.570312 C 72.179688 81.984375 72.878906 82.097656 73.628906 81.808594 C 74.15625 81.609375 74.175781 80.988281 73.667969 80.480469 C 73.0625 79.875 70.824219 80.03125 70.15625 80.730469 M 157.277344 80.339844 C 157.277344 80.46875 156.96875 80.65625 156.589844 80.75 C 156.152344 80.859375 155.804688 81.207031 155.628906 81.714844 C 155.476562 82.152344 155.261719 82.507812 155.152344 82.507812 C 155.042969 82.507812 154.820312 82.800781 154.660156 83.15625 C 154.46875 83.578125 154.097656 83.835938 153.613281 83.894531 C 152.667969 84 152.492188 85.265625 153.40625 85.394531 C 153.949219 85.472656 153.777344 88.390625 153.230469 88.390625 C 153.128906 88.390625 152.894531 89.234375 152.710938 90.265625 C 152.523438 91.292969 152.28125 92.136719 152.167969 92.136719 C 152.054688 92.136719 151.882812 92.375 151.792969 92.671875 C 151.589844 93.304688 151.121094 93.386719 151.121094 92.789062 C 151.121094 92.222656 149.804688 92.378906 149.421875 92.988281 C 149.046875 93.589844 149.878906 94.542969 150.78125 94.542969 C 152.210938 94.542969 154.066406 92.808594 154.066406 91.464844 C 154.066406 91.226562 154.246094 90.847656 154.46875 90.628906 C 154.6875 90.40625 154.867188 89.933594 154.867188 89.574219 C 154.867188 89.21875 154.964844 88.925781 155.085938 88.925781 C 155.207031 88.925781 155.460938 88.144531 155.652344 87.1875 C 155.914062 85.871094 156.105469 85.449219 156.449219 85.449219 C 156.699219 85.449219 157.046875 85.304688 157.222656 85.128906 C 157.675781 84.675781 157.625 83.84375 157.144531 83.84375 C 156.921875 83.84375 156.742188 83.609375 156.742188 83.308594 C 156.742188 83.015625 156.832031 82.773438 156.945312 82.773438 C 157.054688 82.773438 157.304688 82.414062 157.5 81.972656 C 157.878906 81.121094 158.347656 80.898438 158.347656 81.570312 C 158.347656 81.851562 158.628906 81.972656 159.285156 81.972656 C 160.316406 81.972656 160.59375 81.234375 159.839844 80.480469 C 159.421875 80.070312 157.277344 79.949219 157.277344 80.339844 M 161.402344 80.757812 C 161.09375 81.988281 161.636719 85.300781 162.160156 85.398438 C 162.507812 85.464844 162.628906 85.3125 162.628906 84.800781 C 162.628906 84.421875 162.734375 84.113281 162.859375 84.113281 C 163.417969 84.113281 163.464844 81.109375 162.914062 80.59375 C 162.183594 79.914062 161.601562 79.976562 161.402344 80.757812 M 205.445312 80.367188 C 205.445312 80.515625 205.265625 80.636719 205.046875 80.636719 C 204.828125 80.636719 204.316406 81.144531 203.910156 81.769531 C 202.824219 83.433594 202.433594 83.84375 201.941406 83.84375 C 201.347656 83.84375 200.796875 84.542969 200.992188 85.046875 C 201.078125 85.265625 201.4375 85.449219 201.789062 85.449219 C 202.324219 85.449219 202.40625 85.554688 202.300781 86.117188 C 202.230469 86.488281 202.082031 86.789062 201.96875 86.789062 C 201.859375 86.789062 201.6875 87.386719 201.589844 88.125 C 201.492188 88.859375 201.308594 89.460938 201.179688 89.460938 C 201.050781 89.460938 200.863281 90.058594 200.765625 90.785156 C 200.585938 92.097656 199.558594 93.835938 199.558594 92.828125 C 199.558594 92.09375 197.84375 92.355469 197.738281 93.105469 C 197.339844 95.878906 201.726562 94.214844 202.511719 91.292969 C 202.664062 90.738281 202.886719 90.222656 203.011719 90.144531 C 203.140625 90.066406 203.390625 89.21875 203.570312 88.261719 C 203.753906 87.304688 204.007812 86.519531 204.136719 86.519531 C 204.269531 86.519531 204.375 86.277344 204.375 85.984375 C 204.375 85.628906 204.554688 85.449219 204.90625 85.449219 C 205.546875 85.449219 205.976562 84.171875 205.445312 83.84375 C 204.996094 83.566406 205.324219 82.261719 206.003906 81.628906 C 206.4375 81.222656 206.515625 81.214844 206.515625 81.5625 C 206.515625 81.851562 206.789062 81.972656 207.453125 81.972656 C 208.417969 81.972656 208.628906 81.574219 208.226562 80.523438 C 208.042969 80.042969 205.445312 79.898438 205.445312 80.367188 M 81.730469 84.03125 C 81.015625 84.21875 81.25 85.292969 82.027344 85.402344 C 82.695312 85.496094 83.152344 86.363281 83.152344 87.539062 C 83.148438 88.265625 82.03125 89.859375 81.730469 89.558594 C 81.261719 89.089844 80.207031 89.765625 80.207031 90.535156 C 80.207031 91.285156 80.273438 91.332031 81.234375 91.332031 C 82.238281 91.332031 83.152344 90.730469 83.152344 90.0625 C 83.152344 89.382812 83.839844 89.613281 84.085938 90.375 C 84.414062 91.378906 85.480469 91.617188 86.371094 90.882812 C 87.824219 89.683594 88.015625 89.300781 87.304688 89.027344 C 87.089844 88.941406 86.710938 89.074219 86.464844 89.320312 C 85.921875 89.863281 85.570312 89.472656 85.5625 88.324219 C 85.558594 87.921875 85.4375 87.589844 85.292969 87.589844 C 85.144531 87.589844 85.023438 87.410156 85.023438 87.1875 C 85.023438 86.96875 85.128906 86.789062 85.257812 86.789062 C 85.390625 86.789062 85.558594 86.546875 85.636719 86.253906 C 85.75 85.828125 86 85.714844 86.871094 85.714844 C 87.945312 85.714844 87.96875 85.699219 87.96875 84.78125 C 87.96875 83.636719 86.347656 83.375 85.488281 84.378906 C 85.234375 84.675781 84.859375 84.914062 84.65625 84.914062 C 84.453125 84.914062 84.21875 84.675781 84.144531 84.378906 C 84.003906 83.84375 83.003906 83.703125 81.730469 84.03125 M 171.644531 84.03125 C 170.898438 84.226562 171.167969 85.292969 171.996094 85.410156 C 173.699219 85.648438 173.3125 89.460938 171.585938 89.460938 C 170.195312 89.460938 169.699219 90.144531 170.503906 90.953125 C 171.128906 91.578125 172.019531 91.390625 172.945312 90.4375 L 173.8125 89.542969 L 174.050781 90.371094 C 174.425781 91.6875 176.164062 91.714844 177.039062 90.417969 C 177.898438 89.140625 177.355469 88.34375 176.324219 89.375 C 175.902344 89.796875 175.859375 89.75 175.628906 88.640625 C 175.492188 87.988281 175.273438 87.382812 175.136719 87.292969 C 174.65625 86.96875 176.171875 85.714844 177.042969 85.714844 C 177.824219 85.714844 177.882812 85.652344 177.882812 84.78125 C 177.882812 83.28125 175.476562 83.601562 174.867188 85.183594 C 174.773438 85.421875 174.703125 85.449219 174.691406 85.253906 C 174.621094 84.167969 173.246094 83.617188 171.644531 84.03125 M 216.351562 84.03125 C 215.648438 84.214844 215.722656 85.449219 216.4375 85.449219 C 217.621094 85.449219 218.414062 88.082031 217.355469 88.488281 C 217.132812 88.574219 216.953125 88.828125 216.953125 89.050781 C 216.953125 89.339844 216.679688 89.460938 216.03125 89.460938 C 214.96875 89.460938 214.695312 89.765625 214.925781 90.679688 C 215.222656 91.867188 218.023438 91.042969 218.023438 89.765625 C 218.023438 89.054688 218.550781 89.539062 218.710938 90.398438 C 218.972656 91.8125 221.769531 91.511719 221.769531 90.070312 C 221.769531 89.882812 221.890625 89.730469 222.035156 89.730469 C 222.457031 89.730469 222.351562 89.195312 221.894531 89.019531 C 221.667969 88.933594 221.246094 89.074219 220.957031 89.335938 C 220.449219 89.792969 220.429688 89.792969 220.429688 89.234375 C 220.429688 88.917969 220.324219 88.660156 220.195312 88.660156 C 220.0625 88.660156 219.894531 88.269531 219.820312 87.789062 C 219.640625 86.625 220.453125 85.714844 221.683594 85.714844 C 222.519531 85.714844 222.570312 85.664062 222.570312 84.78125 C 222.570312 83.902344 222.519531 83.84375 221.695312 83.84375 C 220.707031 83.84375 219.628906 84.480469 219.628906 85.0625 C 219.628906 85.722656 219.226562 85.488281 218.90625 84.648438 C 218.601562 83.835938 217.816406 83.648438 216.351562 84.03125 " fill-opacity="1" fill-rule="evenodd"/><path fill="#fc0404" d="M 132.1875 76 C 131.859375 76.230469 131.585938 76.574219 131.585938 76.761719 C 131.585938 76.949219 131.417969 77.167969 131.210938 77.246094 C 131.003906 77.324219 130.753906 77.757812 130.652344 78.210938 C 130.554688 78.660156 130.371094 79.03125 130.25 79.03125 C 130.125 79.03125 129.941406 79.421875 129.839844 79.898438 C 129.734375 80.378906 129.546875 80.898438 129.417969 81.058594 C 128.589844 82.09375 128.585938 92.125 129.414062 92.65625 C 129.542969 92.738281 129.730469 93.195312 129.835938 93.675781 C 129.9375 94.152344 130.125 94.542969 130.25 94.542969 C 130.371094 94.542969 130.554688 94.914062 130.652344 95.363281 C 130.753906 95.816406 131.003906 96.25 131.210938 96.328125 C 131.417969 96.410156 131.585938 96.613281 131.585938 96.785156 C 131.585938 97.203125 132.5625 98.019531 133.0625 98.019531 C 133.28125 98.019531 133.460938 97.78125 133.460938 97.484375 C 133.460938 97.191406 133.363281 96.953125 133.246094 96.953125 C 133.128906 96.953125 132.878906 96.53125 132.695312 96.015625 C 132.507812 95.5 132.25 95.078125 132.121094 95.078125 C 131.992188 95.078125 131.804688 94.507812 131.699219 93.808594 C 131.597656 93.109375 131.378906 92.453125 131.214844 92.347656 C 130.800781 92.082031 130.800781 81.492188 131.214844 81.226562 C 131.375 81.121094 131.59375 80.582031 131.695312 80.027344 C 131.902344 78.898438 132.835938 77.15625 133.238281 77.15625 C 133.574219 77.15625 133.410156 75.75 133.058594 75.65625 C 132.910156 75.617188 132.519531 75.769531 132.1875 76 M 142.640625 75.996094 C 142.527344 76.285156 142.710938 76.648438 143.164062 77.035156 C 143.542969 77.363281 144.011719 78.160156 144.199219 78.800781 C 144.386719 79.441406 144.644531 80.039062 144.773438 80.128906 C 144.902344 80.214844 145.074219 81.449219 145.160156 82.871094 C 145.246094 84.289062 145.414062 85.449219 145.542969 85.449219 C 145.667969 85.449219 145.769531 86.171875 145.769531 87.054688 C 145.769531 87.9375 145.667969 88.660156 145.542969 88.660156 C 145.417969 88.660156 145.238281 89.824219 145.144531 91.25 C 145.050781 92.671875 144.871094 93.90625 144.746094 93.992188 C 144.617188 94.074219 144.4375 94.464844 144.339844 94.859375 C 144.242188 95.25 143.804688 95.933594 143.359375 96.375 C 142.308594 97.425781 142.308594 98.019531 143.359375 98.019531 C 143.800781 98.019531 144.164062 97.917969 144.164062 97.796875 C 144.164062 97.671875 144.464844 97.21875 144.832031 96.792969 C 145.605469 95.894531 146.304688 94.519531 146.304688 93.902344 C 146.304688 93.664062 146.414062 93.472656 146.546875 93.472656 C 146.96875 93.472656 147.375 90.1875 147.375 86.789062 C 147.375 83.484375 146.96875 80.101562 146.574219 80.101562 C 146.460938 80.101562 146.285156 79.671875 146.1875 79.152344 C 146.089844 78.628906 145.835938 78.132812 145.621094 78.050781 C 145.410156 77.96875 145.234375 77.785156 145.234375 77.640625 C 145.234375 76.632812 142.949219 75.1875 142.640625 75.996094 M 247.25 76.464844 C 246.777344 76.96875 246.390625 77.496094 246.390625 77.640625 C 246.390625 77.785156 246.214844 77.96875 246.003906 78.050781 C 245.789062 78.132812 245.535156 78.628906 245.4375 79.152344 C 245.339844 79.671875 245.15625 80.101562 245.03125 80.101562 C 244.902344 80.101562 244.722656 80.703125 244.625 81.4375 C 244.527344 82.171875 244.34375 82.773438 244.214844 82.773438 C 244.085938 82.773438 243.980469 84.582031 243.980469 86.789062 C 243.980469 88.992188 244.085938 90.796875 244.214844 90.796875 C 244.34375 90.796875 244.527344 91.402344 244.625 92.136719 C 244.722656 92.871094 244.894531 93.472656 245.003906 93.472656 C 245.117188 93.472656 245.347656 93.984375 245.515625 94.609375 C 245.847656 95.824219 247.703125 98.019531 248.394531 98.019531 C 248.945312 98.019531 248.902344 97.058594 248.328125 96.476562 C 247.40625 95.542969 246.558594 92.917969 246.4375 90.605469 C 246.375 89.386719 246.214844 88.390625 246.089844 88.390625 C 245.957031 88.390625 245.855469 87.609375 245.855469 86.652344 C 245.855469 85.699219 245.957031 84.914062 246.082031 84.914062 C 246.207031 84.914062 246.382812 83.878906 246.472656 82.617188 C 246.5625 81.351562 246.746094 80.175781 246.878906 80.007812 C 247.011719 79.835938 247.277344 79.21875 247.464844 78.628906 C 247.652344 78.039062 248.03125 77.402344 248.304688 77.210938 C 248.863281 76.8125 248.976562 75.554688 248.457031 75.554688 C 248.265625 75.554688 247.722656 75.964844 247.25 76.464844 M 258.164062 76.355469 C 258.164062 76.796875 258.289062 77.15625 258.445312 77.15625 C 258.597656 77.15625 258.851562 77.519531 259.007812 77.960938 C 259.160156 78.402344 259.382812 78.761719 259.503906 78.761719 C 259.625 78.761719 259.808594 79.273438 259.910156 79.898438 C 260.015625 80.523438 260.238281 81.121094 260.402344 81.226562 C 260.820312 81.488281 260.828125 92.34375 260.414062 92.613281 C 260.25 92.71875 260.046875 93.277344 259.953125 93.855469 C 259.863281 94.429688 259.6875 94.972656 259.5625 95.058594 C 259.4375 95.144531 259.179688 95.605469 258.984375 96.082031 C 258.792969 96.558594 258.527344 96.953125 258.398438 96.953125 C 258.269531 96.953125 258.164062 97.191406 258.164062 97.484375 C 258.164062 98.851562 260.617188 96.976562 260.976562 95.332031 C 261.070312 94.898438 261.25 94.542969 261.375 94.542969 C 261.5 94.542969 261.753906 93.851562 261.941406 93.003906 C 262.125 92.160156 262.398438 91.386719 262.550781 91.285156 C 262.925781 91.03125 262.929688 82.964844 262.554688 82.480469 C 262.394531 82.273438 262.117188 81.414062 261.933594 80.566406 C 261.753906 79.722656 261.503906 79.03125 261.386719 79.03125 C 261.261719 79.03125 261.09375 78.757812 261.007812 78.429688 C 260.828125 77.75 258.867188 75.554688 258.441406 75.554688 C 258.289062 75.554688 258.164062 75.914062 258.164062 76.355469 M 240.613281 80.757812 C 240.3125 81.960938 240.84375 85.300781 241.355469 85.398438 C 241.726562 85.46875 241.84375 85.1875 241.992188 83.863281 C 242.09375 82.96875 242.28125 82.238281 242.410156 82.238281 C 242.84375 82.238281 242.644531 81.171875 242.105469 80.636719 C 241.386719 79.914062 240.816406 79.960938 240.613281 80.757812 M 120.816406 84.421875 C 120.410156 84.777344 120.082031 85.210938 120.082031 85.390625 C 120.082031 85.570312 119.960938 85.714844 119.8125 85.714844 C 119.386719 85.714844 119.5 87.585938 119.953125 88.035156 C 120.367188 88.449219 120.25 90.300781 119.796875 90.480469 C 116.261719 91.878906 118.929688 95.03125 123.117188 94.402344 C 126.019531 93.964844 126.792969 90.898438 124.136719 90.367188 C 123.671875 90.273438 123.292969 90.089844 123.292969 89.964844 C 123.292969 89.835938 122.996094 89.730469 122.628906 89.730469 C 121.480469 89.730469 122.148438 89.007812 123.46875 88.828125 C 125.011719 88.617188 125.957031 87.765625 125.960938 86.585938 C 125.964844 85.902344 126.078125 85.714844 126.492188 85.714844 C 127.09375 85.714844 127.75 84.714844 127.382812 84.351562 C 126.734375 83.703125 121.578125 83.757812 120.816406 84.421875 M 135.667969 84.023438 C 135.074219 84.261719 135.261719 85.449219 135.894531 85.449219 C 136.226562 85.449219 136.511719 85.664062 136.59375 85.984375 C 136.671875 86.277344 136.839844 86.519531 136.96875 86.519531 C 137.101562 86.519531 137.207031 86.875 137.207031 87.3125 C 137.207031 88.308594 136 89.59375 135.066406 89.59375 C 134.507812 89.59375 134.382812 89.738281 134.3125 90.464844 C 134.160156 92.046875 136.585938 91.546875 137.339844 89.84375 C 137.554688 89.359375 137.574219 89.363281 137.675781 89.929688 C 137.730469 90.261719 137.890625 90.53125 138.027344 90.53125 C 138.164062 90.53125 138.277344 90.710938 138.277344 90.933594 C 138.277344 91.691406 139.804688 91.414062 140.683594 90.492188 C 141.597656 89.535156 141.671875 89.246094 141.054688 89.011719 C 140.792969 88.910156 140.519531 89.019531 140.371094 89.285156 C 139.953125 90.035156 139.671875 89.785156 139.375 88.398438 C 138.9375 86.367188 139.285156 85.714844 140.8125 85.714844 C 142.019531 85.714844 142.023438 85.714844 142.023438 84.78125 C 142.023438 83.628906 139.917969 83.3125 139.347656 84.378906 C 139.019531 84.988281 138.277344 85.101562 138.277344 84.542969 C 138.277344 83.9375 136.671875 83.617188 135.667969 84.023438 M 232.285156 84.445312 C 231.09375 85.289062 230.679688 87.363281 231.535156 88.21875 C 231.996094 88.675781 232.066406 89.195312 231.671875 89.195312 C 231.523438 89.195312 231.402344 89.507812 231.402344 89.886719 C 231.402344 90.359375 231.230469 90.628906 230.863281 90.722656 C 230.570312 90.800781 230.253906 91.148438 230.167969 91.5 C 230.078125 91.851562 229.898438 92.136719 229.769531 92.136719 C 229.308594 92.136719 229.539062 92.96875 230.191406 93.675781 C 231.195312 94.757812 235.269531 94.761719 236.347656 93.683594 C 237.503906 92.53125 237.25 90.753906 235.886719 90.417969 C 235.335938 90.28125 234.882812 90.070312 234.882812 89.949219 C 234.882812 89.828125 234.511719 89.730469 234.058594 89.730469 C 232.859375 89.730469 233.625 89.050781 235.113281 88.800781 C 236.503906 88.566406 237.289062 87.777344 237.289062 86.621094 C 237.289062 85.871094 237.390625 85.742188 238.027344 85.667969 C 238.59375 85.601562 238.78125 85.421875 238.84375 84.886719 C 238.980469 83.722656 233.800781 83.375 232.285156 84.445312 M 250.871094 84.03125 C 250.011719 84.253906 250.269531 85.449219 251.175781 85.449219 C 252.0625 85.449219 252.277344 85.820312 252.277344 87.351562 C 252.277344 88.042969 252.136719 88.460938 251.875 88.5625 C 251.65625 88.648438 251.472656 88.882812 251.472656 89.089844 C 251.472656 89.335938 251.160156 89.460938 250.550781 89.460938 C 249.488281 89.460938 249.214844 89.765625 249.445312 90.679688 C 249.746094 91.871094 252.542969 91.089844 252.542969 89.816406 C 252.542969 89.066406 253.0625 89.507812 253.230469 90.398438 C 253.496094 91.8125 256.289062 91.511719 256.289062 90.070312 C 256.289062 89.882812 256.410156 89.730469 256.558594 89.730469 C 256.980469 89.730469 256.871094 89.195312 256.414062 89.019531 C 256.1875 88.933594 255.765625 89.074219 255.476562 89.335938 C 254.972656 89.792969 254.953125 89.792969 254.953125 89.234375 C 254.953125 88.917969 254.84375 88.660156 254.714844 88.660156 C 254.585938 88.660156 254.421875 88.269531 254.351562 87.789062 C 254.183594 86.640625 255.007812 85.726562 256.222656 85.722656 C 257.039062 85.71875 257.09375 85.660156 257.09375 84.78125 C 257.09375 83.902344 257.039062 83.84375 256.214844 83.84375 C 255.1875 83.84375 254.152344 84.488281 254.144531 85.128906 C 254.140625 85.425781 253.945312 85.28125 253.582031 84.714844 C 253.027344 83.84375 252.292969 83.660156 250.871094 84.03125 M 123.980469 85.566406 C 124.339844 87.003906 123.203125 88.1875 122.050781 87.570312 C 121.464844 87.253906 121.164062 86.519531 121.621094 86.519531 C 121.730469 86.519531 121.984375 86.160156 122.175781 85.714844 C 122.636719 84.679688 123.734375 84.585938 123.980469 85.566406 M 235.363281 85.234375 C 235.878906 85.753906 235.734375 86.542969 235.003906 87.222656 C 233.433594 88.679688 232.308594 87.054688 233.769531 85.445312 C 234.292969 84.871094 234.917969 84.789062 235.363281 85.234375 M 123.246094 91.894531 C 123.296875 92.027344 123.507812 92.136719 123.714844 92.136719 C 124.640625 92.136719 123.925781 93.089844 122.824219 93.328125 C 120.980469 93.726562 119.757812 92.972656 120.371094 91.824219 C 120.675781 91.253906 123.035156 91.3125 123.246094 91.894531 M 234.835938 91.90625 C 234.886719 92.03125 235.097656 92.136719 235.304688 92.136719 C 236.433594 92.136719 235.121094 93.183594 233.757812 93.371094 C 232.105469 93.597656 230.996094 92.761719 231.789062 91.886719 C 232.316406 91.304688 234.609375 91.316406 234.835938 91.90625 M 77.046875 100.320312 C 76.59375 100.847656 76.148438 101.628906 76.054688 102.058594 C 75.960938 102.484375 75.78125 102.835938 75.65625 102.835938 C 75.535156 102.835938 75.347656 103.226562 75.242188 103.703125 C 75.140625 104.183594 74.949219 104.640625 74.824219 104.722656 C 74.003906 105.246094 74.003906 115.9375 74.824219 116.460938 C 74.949219 116.542969 75.140625 117 75.242188 117.480469 C 75.347656 117.957031 75.53125 118.347656 75.648438 118.347656 C 75.769531 118.347656 75.949219 118.675781 76.050781 119.078125 C 76.242188 119.835938 78.074219 121.824219 78.582031 121.824219 C 79.011719 121.824219 78.929688 120.601562 78.46875 120.222656 C 78.246094 120.039062 78.066406 119.730469 78.066406 119.542969 C 78.066406 119.351562 77.953125 119.15625 77.8125 119.105469 C 77.675781 119.058594 77.40625 118.414062 77.214844 117.679688 C 77.027344 116.945312 76.75 116.257812 76.597656 116.152344 C 76.1875 115.863281 76.238281 105.011719 76.648438 104.753906 C 76.824219 104.644531 77.054688 104.042969 77.152344 103.410156 C 77.253906 102.78125 77.5 102.101562 77.703125 101.902344 C 77.902344 101.699219 78.066406 101.421875 78.066406 101.28125 C 78.066406 101.140625 78.246094 100.878906 78.46875 100.695312 C 78.6875 100.511719 78.867188 100.136719 78.867188 99.859375 C 78.867188 99.039062 77.941406 99.273438 77.046875 100.320312 M 87.96875 99.796875 C 87.96875 100.035156 88.257812 100.503906 88.617188 100.832031 C 88.972656 101.164062 89.417969 101.960938 89.605469 102.601562 C 89.796875 103.246094 90.042969 103.835938 90.160156 103.917969 C 90.917969 104.449219 90.925781 116.730469 90.167969 117.257812 C 90.046875 117.34375 89.796875 117.9375 89.605469 118.582031 C 89.417969 119.222656 88.972656 120.019531 88.617188 120.351562 C 87.851562 121.058594 87.765625 121.824219 88.449219 121.824219 C 88.988281 121.824219 90.644531 120.246094 90.644531 119.730469 C 90.644531 119.550781 90.820312 119.332031 91.039062 119.25 C 91.253906 119.167969 91.507812 118.691406 91.601562 118.1875 C 91.695312 117.6875 91.867188 117.277344 91.984375 117.277344 C 92.378906 117.277344 92.785156 113.894531 92.785156 110.59375 C 92.785156 107.289062 92.378906 103.90625 91.984375 103.90625 C 91.867188 103.90625 91.695312 103.484375 91.597656 102.96875 C 91.5 102.453125 91.308594 102.03125 91.167969 102.03125 C 91.027344 102.03125 90.910156 101.898438 90.910156 101.730469 C 90.910156 101.238281 88.949219 99.359375 88.4375 99.359375 C 88.179688 99.359375 87.96875 99.554688 87.96875 99.796875 M 186.375 105.300781 C 185.820312 105.898438 185.296875 106.671875 185.207031 107.015625 C 185.121094 107.363281 184.953125 107.648438 184.835938 107.648438 C 184.722656 107.648438 184.476562 108.28125 184.292969 109.054688 C 184.109375 109.824219 183.828125 110.542969 183.664062 110.648438 C 183.265625 110.90625 183.253906 120.164062 183.652344 120.429688 C 183.808594 120.535156 184.089844 121.3125 184.273438 122.160156 C 184.460938 123.007812 184.722656 123.699219 184.855469 123.699219 C 184.988281 123.699219 185.167969 123.984375 185.253906 124.332031 C 185.425781 125.003906 187.273438 126.90625 187.757812 126.90625 C 188.242188 126.90625 188.089844 125.855469 187.515625 125.242188 C 187.222656 124.925781 186.980469 124.507812 186.980469 124.316406 C 186.980469 124.121094 186.875 123.964844 186.742188 123.964844 C 186.613281 123.964844 186.421875 123.515625 186.316406 122.964844 C 186.214844 122.410156 185.988281 121.875 185.820312 121.769531 C 185.390625 121.503906 185.378906 109.851562 185.808594 109.578125 C 185.976562 109.472656 186.199219 108.980469 186.304688 108.484375 C 186.535156 107.441406 187.457031 105.777344 187.808594 105.777344 C 187.941406 105.777344 188.050781 105.417969 188.050781 104.976562 C 188.050781 103.898438 187.597656 103.984375 186.375 105.300781 M 197.417969 104.925781 C 197.417969 105.339844 197.640625 105.917969 197.917969 106.214844 C 198.191406 106.507812 198.582031 107.222656 198.785156 107.800781 C 198.988281 108.378906 199.277344 108.941406 199.421875 109.042969 C 199.941406 109.414062 199.757812 121.558594 199.222656 122.492188 C 198.964844 122.9375 198.757812 123.5 198.757812 123.746094 C 198.757812 123.992188 198.605469 124.359375 198.421875 124.558594 C 197.429688 125.636719 197.125 126.90625 197.855469 126.90625 C 198.320312 126.90625 199.558594 125.722656 199.558594 125.28125 C 199.558594 125.136719 199.730469 124.953125 199.941406 124.871094 C 200.152344 124.792969 200.472656 124.132812 200.660156 123.410156 C 200.847656 122.683594 201.085938 122.09375 201.199219 122.09375 C 201.308594 122.09375 201.472656 121.523438 201.5625 120.824219 C 201.652344 120.125 201.839844 119.34375 201.980469 119.089844 C 202.296875 118.507812 202.316406 112.546875 202.003906 112.355469 C 201.878906 112.277344 201.703125 111.613281 201.617188 110.878906 C 201.53125 110.144531 201.289062 109.269531 201.074219 108.933594 C 200.863281 108.59375 200.617188 107.988281 200.523438 107.582031 C 200.425781 107.179688 200.234375 106.847656 200.089844 106.847656 C 199.945312 106.847656 199.824219 106.71875 199.824219 106.558594 C 199.824219 106.269531 197.835938 104.171875 197.5625 104.171875 C 197.484375 104.171875 197.417969 104.511719 197.417969 104.925781 M 66.222656 108.171875 C 65.820312 108.496094 65.488281 108.929688 65.488281 109.140625 C 65.488281 109.351562 65.367188 109.523438 65.21875 109.523438 C 64.808594 109.523438 64.90625 111.382812 65.335938 111.816406 C 65.769531 112.25 65.613281 114.070312 65.113281 114.390625 C 63.871094 115.191406 63.617188 115.535156 63.617188 116.386719 C 63.617188 117.007812 63.765625 117.351562 64.085938 117.46875 C 64.339844 117.5625 64.636719 117.769531 64.742188 117.925781 C 64.976562 118.277344 69.207031 118.273438 69.460938 117.925781 C 69.558594 117.789062 69.878906 117.546875 70.171875 117.382812 C 71.261719 116.78125 70.925781 114.523438 69.703125 114.222656 C 69.152344 114.085938 68.699219 113.875 68.699219 113.753906 C 68.699219 113.632812 68.402344 113.535156 68.039062 113.535156 C 66.816406 113.535156 67.589844 112.804688 69.011719 112.617188 C 70.191406 112.460938 70.398438 112.339844 70.660156 111.648438 C 70.824219 111.214844 71.050781 110.859375 71.167969 110.859375 C 71.28125 110.859375 71.375 110.558594 71.375 110.191406 C 71.375 109.714844 71.519531 109.523438 71.882812 109.523438 C 72.335938 109.523438 72.9375 108.320312 72.636719 108.019531 C 72.128906 107.511719 66.898438 107.636719 66.222656 108.171875 M 81.074219 107.828125 C 80.519531 108.050781 80.675781 108.988281 81.273438 108.988281 C 81.613281 108.988281 81.863281 109.222656 81.96875 109.65625 C 82.0625 110.023438 82.246094 110.324219 82.375 110.324219 C 82.957031 110.324219 82.582031 111.921875 81.824219 112.679688 C 81.390625 113.113281 80.972656 113.410156 80.898438 113.335938 C 80.453125 112.890625 79.375 113.59375 79.453125 114.28125 C 79.601562 115.546875 81.46875 115.46875 82.347656 114.160156 C 82.949219 113.265625 83.027344 113.222656 83.101562 113.75 C 83.148438 114.074219 83.300781 114.335938 83.4375 114.335938 C 83.574219 114.335938 83.6875 114.515625 83.6875 114.738281 C 83.6875 115.003906 83.953125 115.136719 84.484375 115.136719 C 85.324219 115.136719 86.898438 113.804688 86.898438 113.09375 C 86.898438 112.601562 85.921875 112.632812 85.730469 113.132812 C 85.449219 113.867188 85.03125 113.546875 84.859375 112.464844 C 84.765625 111.875 84.582031 111.394531 84.453125 111.394531 C 84.328125 111.394531 84.21875 111.214844 84.21875 110.992188 C 84.21875 110.773438 84.328125 110.59375 84.457031 110.59375 C 84.585938 110.59375 84.757812 110.351562 84.832031 110.054688 C 84.949219 109.617188 85.199219 109.523438 86.21875 109.523438 C 87.464844 109.523438 87.464844 109.519531 87.382812 108.652344 C 87.273438 107.527344 85.597656 107.222656 84.714844 108.167969 C 84.121094 108.804688 83.6875 108.882812 83.6875 108.347656 C 83.6875 107.742188 82.082031 107.421875 81.074219 107.828125 M 69.449219 109.53125 C 69.570312 110.570312 68.417969 111.78125 67.523438 111.558594 C 66.632812 111.335938 66.589844 110.375 67.429688 109.40625 C 68.226562 108.488281 69.335938 108.558594 69.449219 109.53125 M 176.34375 112.636719 C 176.011719 112.710938 175.742188 112.867188 175.742188 112.988281 C 175.742188 113.105469 175.5 113.265625 175.207031 113.34375 C 174.910156 113.421875 174.671875 113.675781 174.671875 113.910156 C 174.671875 114.144531 174.550781 114.335938 174.402344 114.335938 C 173.992188 114.335938 174.082031 116.632812 174.511719 116.988281 C 174.894531 117.308594 174.789062 118.347656 174.371094 118.347656 C 174.242188 118.347656 174.136719 118.5625 174.136719 118.820312 C 174.136719 119.078125 173.835938 119.515625 173.46875 119.792969 C 172.761719 120.324219 172.542969 121.8125 173.050781 122.613281 C 173.625 123.523438 178.148438 123.332031 179.289062 122.351562 C 180.96875 120.910156 180.441406 119.324219 178.164062 118.988281 C 176.152344 118.691406 176.296875 117.839844 178.425781 117.449219 C 179.5625 117.242188 180.28125 116.46875 180.480469 115.246094 C 180.585938 114.589844 180.765625 114.335938 181.128906 114.335938 C 181.507812 114.335938 181.628906 114.140625 181.628906 113.535156 C 181.628906 112.828125 181.535156 112.730469 180.867188 112.730469 C 180.445312 112.730469 179.390625 112.679688 178.523438 112.621094 C 177.65625 112.554688 176.675781 112.566406 176.34375 112.636719 M 190.460938 112.699219 C 189.390625 112.890625 189.097656 113.847656 190.058594 114.027344 C 190.820312 114.167969 191.261719 114.589844 191.261719 115.171875 C 191.261719 115.449219 191.382812 115.671875 191.53125 115.671875 C 191.679688 115.671875 191.796875 115.976562 191.796875 116.34375 C 191.796875 116.710938 191.675781 117.011719 191.523438 117.011719 C 191.371094 117.011719 191.132812 117.3125 190.996094 117.679688 C 190.789062 118.222656 190.558594 118.347656 189.78125 118.347656 C 188.523438 118.347656 188.425781 120.019531 189.671875 120.167969 C 190.359375 120.246094 191.796875 119.207031 191.796875 118.628906 C 191.796875 118.476562 191.917969 118.347656 192.066406 118.347656 C 192.210938 118.347656 192.332031 118.589844 192.332031 118.882812 C 192.332031 119.175781 192.453125 119.417969 192.601562 119.417969 C 192.746094 119.417969 192.867188 119.613281 192.867188 119.855469 C 192.867188 120.203125 193.054688 120.261719 193.785156 120.140625 C 194.914062 119.960938 195.8125 119.105469 195.8125 118.214844 C 195.8125 117.4375 195.351562 117.339844 194.855469 118.015625 C 194.371094 118.667969 193.980469 118.199219 193.785156 116.734375 C 193.617188 115.496094 194.402344 114.09375 195.039062 114.488281 C 195.1875 114.582031 195.601562 114.582031 195.960938 114.488281 C 196.734375 114.296875 196.910156 112.902344 196.191406 112.625 C 195.214844 112.253906 194.890625 112.378906 193.203125 113.804688 C 192.957031 114.015625 192.867188 113.980469 192.867188 113.679688 C 192.867188 113.453125 192.746094 113.265625 192.601562 113.265625 C 192.453125 113.265625 192.332031 113.085938 192.332031 112.867188 C 192.332031 112.449219 192.035156 112.421875 190.460938 112.699219 M 178.195312 113.976562 C 179.125 114.816406 178.191406 116.476562 176.792969 116.476562 C 175.699219 116.476562 175.671875 115.144531 176.746094 114.199219 C 177.628906 113.417969 177.585938 113.425781 178.195312 113.976562 M 68.410156 115.558594 C 69.222656 115.714844 69.792969 116.476562 69.09375 116.476562 C 68.875 116.476562 68.699219 116.585938 68.699219 116.722656 C 68.699219 117.078125 67.285156 117.335938 66.46875 117.132812 C 65.011719 116.765625 65.394531 114.976562 66.871094 115.261719 C 67.285156 115.339844 67.980469 115.472656 68.410156 115.558594 M 177.390625 120.671875 C 178.652344 121.230469 178.707031 121.746094 177.53125 121.96875 C 176.070312 122.242188 174.820312 122.023438 174.71875 121.476562 C 174.46875 120.171875 175.535156 119.855469 177.390625 120.671875 " fill-opacity="1" fill-rule="evenodd"/><g clip-path="url(#a62ba50e4b)"><path fill="#242424" d="M 54.515625 98.691406 L 54.515625 122.359375 L 60.671875 122.359375 L 60.671875 120.753906 L 56.121094 120.753906 L 56.121094 76.910156 L 58.332031 76.835938 L 60.539062 76.757812 L 60.621094 75.886719 L 60.707031 75.019531 L 54.515625 75.019531 L 54.515625 98.691406 M 95.996094 75.953125 L 95.996094 76.890625 L 100.277344 76.890625 L 100.277344 120.753906 L 95.996094 120.753906 L 95.996094 122.359375 L 101.882812 122.359375 L 101.882812 75.019531 L 95.996094 75.019531 L 95.996094 75.953125 M 46.941406 82.167969 C 46.015625 82.304688 45.695312 82.996094 46.34375 83.46875 C 47.449219 84.277344 46.558594 85.796875 44.945312 85.851562 C 44.074219 85.882812 43.359375 86.070312 43.054688 86.34375 C 42.785156 86.585938 42.457031 86.789062 42.320312 86.792969 C 41.96875 86.800781 40.601562 88.796875 40.601562 89.304688 C 40.601562 89.539062 40.480469 89.730469 40.332031 89.730469 C 39.863281 89.730469 40.023438 92.347656 40.527344 92.9375 C 41.140625 93.652344 42.71875 93.652344 43.542969 92.9375 C 44.335938 92.253906 44.617188 92.261719 44.617188 92.972656 C 44.617188 93.476562 44.726562 93.527344 45.578125 93.386719 C 47.054688 93.148438 48.332031 91.332031 47.019531 91.332031 C 46.484375 91.332031 46.492188 90.109375 47.027344 89.730469 C 47.128906 89.65625 47.367188 88.785156 47.550781 87.789062 C 47.734375 86.796875 47.980469 85.984375 48.09375 85.984375 C 48.207031 85.984375 48.382812 85.445312 48.480469 84.789062 C 48.578125 84.128906 48.773438 83.519531 48.914062 83.433594 C 49.050781 83.347656 49.164062 82.984375 49.164062 82.625 C 49.164062 81.9375 48.863281 81.878906 46.941406 82.167969 M 185.757812 86.636719 C 185.46875 87.792969 185.710938 87.855469 190.339844 87.855469 L 194.742188 87.855469 L 194.742188 85.984375 L 185.921875 85.984375 L 185.757812 86.636719 M 45.558594 87.605469 C 45.808594 88.390625 43.820312 91.601562 43.085938 91.601562 C 42.894531 91.601562 42.742188 91.730469 42.742188 91.886719 C 42.742188 92.046875 42.5625 91.992188 42.339844 91.773438 C 41.808594 91.242188 41.832031 90.917969 42.503906 89.539062 C 43.597656 87.277344 45.140625 86.300781 45.558594 87.605469 M 105.09375 97.621094 L 105.09375 98.289062 L 113.390625 98.289062 L 113.390625 96.953125 L 105.09375 96.953125 L 105.09375 97.621094 M 35.785156 98.691406 L 35.785156 99.359375 L 53.179688 99.359375 L 53.179688 98.019531 L 35.785156 98.019531 L 35.785156 98.691406 M 61.742188 98.691406 L 61.742188 99.359375 L 94.65625 99.359375 L 94.65625 98.019531 L 61.742188 98.019531 L 61.742188 98.691406 M 117.136719 98.691406 L 117.136719 99.359375 L 263.78125 99.359375 L 263.78125 98.019531 L 117.136719 98.019531 L 117.136719 98.691406 M 105.09375 100.160156 L 105.09375 100.964844 L 113.390625 100.964844 L 113.390625 99.359375 L 105.09375 99.359375 L 105.09375 100.160156 M 208.589844 101.949219 C 208.332031 102.015625 208.121094 102.304688 208.121094 102.585938 C 208.121094 102.871094 208 103.101562 207.855469 103.101562 C 207.707031 103.101562 207.585938 103.285156 207.585938 103.503906 C 207.585938 103.753906 207.839844 103.90625 208.265625 103.90625 C 208.636719 103.90625 209.011719 103.722656 209.09375 103.503906 C 209.179688 103.285156 209.492188 103.101562 209.789062 103.101562 C 210.824219 103.101562 210.265625 104.953125 208.792969 106.402344 C 207.074219 108.09375 207.253906 108.453125 209.824219 108.453125 C 211.90625 108.453125 212.136719 108.316406 212.136719 107.082031 C 212.136719 106.625 212.011719 106.578125 211.195312 106.730469 C 210.105469 106.9375 210.125 106.394531 211.25 105.351562 C 213.164062 103.578125 211.328125 101.234375 208.589844 101.949219 M 45.015625 103.371094 C 44.925781 103.519531 44.375 103.636719 43.796875 103.636719 C 42.921875 103.636719 42.742188 103.726562 42.742188 104.171875 C 42.742188 104.535156 42.921875 104.707031 43.289062 104.707031 C 43.777344 104.707031 43.816406 104.816406 43.652344 105.703125 C 43.40625 106.992188 42.992188 107.382812 41.863281 107.382812 C 39.933594 107.382812 38.59375 108.183594 37.898438 109.75 C 37.695312 110.210938 37.4375 110.59375 37.324219 110.59375 C 36.835938 110.59375 37.117188 113.714844 37.652344 114.195312 C 38.3125 114.792969 40.546875 114.636719 40.921875 113.964844 C 41.25 113.382812 41.671875 113.421875 41.671875 114.035156 C 41.671875 114.488281 41.886719 114.53125 43.878906 114.5 C 46.070312 114.464844 46.757812 114.289062 46.757812 113.765625 C 46.757812 112.992188 47.507812 112.757812 47.6875 113.472656 C 48.117188 115.191406 51.304688 114.484375 51.304688 112.671875 C 51.304688 112.023438 50.539062 112.074219 49.945312 112.757812 C 49.460938 113.3125 49.457031 113.304688 49.277344 111.957031 C 49.175781 111.207031 48.972656 110.59375 48.820312 110.59375 C 48.667969 110.59375 48.726562 110.382812 48.949219 110.125 C 49.171875 109.867188 49.421875 109.453125 49.511719 109.203125 C 49.636719 108.847656 49.878906 108.78125 50.621094 108.902344 C 51.542969 109.050781 51.574219 109.03125 51.574219 108.21875 C 51.574219 107.199219 49.945312 106.980469 49.011719 107.875 C 48.511719 108.355469 48.484375 108.355469 48.03125 107.839844 C 47.652344 107.40625 47.332031 107.335938 46.226562 107.441406 C 45.210938 107.539062 44.882812 107.484375 44.882812 107.210938 C 44.882812 107.011719 44.992188 106.847656 45.125 106.847656 C 45.3125 106.847656 45.953125 104.09375 45.953125 103.28125 C 45.953125 103 45.199219 103.070312 45.015625 103.371094 M 170.308594 104.261719 C 169.75 104.875 169.152344 105.886719 168.984375 106.511719 C 168.8125 107.136719 168.582031 107.648438 168.472656 107.648438 C 168.363281 107.648438 168.191406 108.101562 168.09375 108.652344 C 167.992188 109.203125 167.777344 109.824219 167.609375 110.03125 C 167.199219 110.550781 167.195312 120.96875 167.609375 121.234375 C 167.773438 121.339844 167.992188 121.996094 168.09375 122.695312 C 168.195312 123.394531 168.386719 123.964844 168.511719 123.964844 C 168.636719 123.964844 168.820312 124.316406 168.914062 124.746094 C 169.007812 125.175781 169.289062 125.765625 169.535156 126.0625 C 169.785156 126.355469 170.214844 126.90625 170.492188 127.289062 C 171.089844 128.101562 171.996094 128.214844 171.996094 127.476562 C 171.996094 127.203125 171.753906 126.675781 171.460938 126.300781 C 171.164062 125.925781 170.925781 125.519531 170.921875 125.394531 C 170.921875 125.269531 170.730469 124.808594 170.5 124.367188 C 170.265625 123.925781 170.007812 122.933594 169.929688 122.160156 C 169.847656 121.386719 169.675781 120.753906 169.550781 120.753906 C 169.421875 120.753906 169.320312 118.46875 169.320312 115.671875 C 169.320312 112.878906 169.421875 110.59375 169.550781 110.59375 C 169.675781 110.59375 169.851562 109.898438 169.941406 109.054688 C 170.109375 107.449219 170.996094 105.261719 171.628906 104.894531 C 172.089844 104.625 172.121094 103.09375 171.660156 103.125 C 171.476562 103.136719 170.867188 103.648438 170.308594 104.261719 M 202.503906 103.890625 C 202.503906 104.324219 202.660156 104.777344 202.851562 104.894531 C 203.515625 105.300781 204.375 107.050781 204.550781 108.351562 C 204.648438 109.066406 204.84375 109.734375 204.992188 109.832031 C 205.367188 110.074219 205.351562 121.550781 204.976562 121.785156 C 204.824219 121.878906 204.609375 122.5625 204.503906 123.296875 C 204.3125 124.640625 203.5 126.324219 202.851562 126.71875 C 202.316406 127.046875 202.417969 127.976562 202.988281 127.976562 C 203.566406 127.976562 204.644531 127.035156 204.644531 126.523438 C 204.644531 126.324219 204.8125 126.097656 205.019531 126.019531 C 205.226562 125.9375 205.476562 125.503906 205.574219 125.054688 C 205.675781 124.601562 205.855469 124.234375 205.976562 124.234375 C 206.101562 124.234375 206.289062 123.722656 206.390625 123.097656 C 206.496094 122.472656 206.71875 121.875 206.882812 121.769531 C 207.316406 121.496094 207.304688 109.84375 206.875 109.578125 C 206.703125 109.472656 206.480469 108.9375 206.375 108.382812 C 206.273438 107.832031 206.097656 107.382812 205.984375 107.382812 C 205.875 107.382812 205.632812 106.847656 205.449219 106.195312 C 205.265625 105.542969 204.949219 104.945312 204.746094 104.867188 C 204.542969 104.789062 204.375 104.601562 204.375 104.449219 C 204.375 104.03125 203.359375 103.101562 202.902344 103.101562 C 202.636719 103.101562 202.503906 103.367188 202.503906 103.890625 M 42.515625 109.46875 C 42.425781 110.144531 42.164062 110.558594 41.335938 111.339844 C 41.082031 111.582031 40.867188 111.9375 40.867188 112.132812 C 40.867188 112.324219 40.65625 112.558594 40.398438 112.652344 C 40.144531 112.75 39.84375 112.957031 39.730469 113.113281 C 39.433594 113.539062 39.003906 112.753906 39 111.769531 C 38.996094 111.3125 39.238281 110.664062 39.53125 110.324219 C 39.824219 109.984375 40.066406 109.558594 40.066406 109.378906 C 40.066406 109.199219 40.425781 108.902344 40.867188 108.71875 C 41.3125 108.535156 41.671875 108.273438 41.671875 108.132812 C 41.671875 107.992188 41.878906 108.085938 42.136719 108.34375 C 42.394531 108.601562 42.5625 109.097656 42.515625 109.46875 M 45.746094 108.589844 C 47.027344 108.914062 47.175781 111.84375 45.945312 112.601562 C 44.324219 113.601562 43.242188 112.015625 44.238281 110.105469 C 44.445312 109.710938 44.613281 109.027344 44.617188 108.585938 C 44.621094 108.128906 44.710938 107.917969 44.824219 108.097656 C 44.933594 108.269531 45.347656 108.492188 45.746094 108.589844 M 305.53125 226.921875 L 305.53125 231.757812 L 306.878906 231.757812 L 306.804688 227.007812 C 306.734375 222.3125 306.726562 222.257812 306.132812 222.175781 L 305.53125 222.089844 L 305.53125 226.921875 M 332.46875 222.304688 C 332.246094 222.527344 332.230469 230.753906 332.453125 231.332031 C 332.824219 232.300781 333.628906 231.8125 333.632812 230.621094 C 333.636719 229.378906 334.085938 228.390625 334.347656 229.046875 C 334.429688 229.246094 334.722656 229.601562 335 229.839844 C 335.273438 230.078125 335.5 230.398438 335.5 230.550781 C 335.5 231.339844 337.195312 232.089844 337.464844 231.421875 C 337.574219 231.15625 337.605469 231.15625 337.621094 231.421875 C 337.644531 231.8125 341.121094 231.910156 341.121094 231.519531 C 341.121094 231.390625 341.359375 231.222656 341.65625 231.144531 C 343.0625 230.777344 341.996094 227.746094 340.460938 227.746094 C 340.234375 227.746094 340.050781 227.636719 340.050781 227.503906 C 340.050781 227.375 339.75 227.191406 339.382812 227.097656 C 337.820312 226.707031 338.617188 226.054688 340.453125 226.226562 C 342.164062 226.382812 342.191406 226.375 342.191406 225.726562 C 342.191406 225.253906 342.046875 225.070312 341.671875 225.070312 C 341.386719 225.070312 341.078125 224.949219 340.988281 224.800781 C 340.488281 223.996094 337.753906 224.984375 337.472656 226.074219 C 337.109375 227.472656 337.710938 228.125 340.25 229.085938 C 341.878906 229.699219 340.808594 230.335938 338.574219 230.085938 C 337.84375 230.003906 337.359375 230.0625 337.296875 230.246094 C 337.246094 230.410156 336.972656 230.183594 336.691406 229.746094 C 336.410156 229.304688 336.121094 228.886719 336.042969 228.8125 C 335.140625 227.953125 335.164062 227.769531 336.296875 226.683594 C 337.355469 225.664062 337.617188 224.835938 336.945312 224.613281 C 336.785156 224.5625 336.003906 225.140625 335.207031 225.898438 L 333.761719 227.277344 L 333.683594 224.703125 C 333.609375 222.152344 333.277344 221.496094 332.46875 222.304688 M 342.996094 226.941406 L 342.996094 231.757812 L 343.664062 231.757812 C 344.324219 231.757812 344.332031 231.734375 344.332031 229.390625 C 344.332031 226.710938 344.710938 226.027344 346.117188 226.1875 L 346.875 226.273438 L 346.949219 229.03125 L 347.027344 231.789062 L 347.753906 231.707031 L 348.480469 231.621094 L 348.558594 229.085938 C 348.644531 226.238281 348.414062 225.542969 347.1875 224.933594 C 346.277344 224.476562 345.132812 224.40625 345.132812 224.800781 C 345.132812 224.949219 344.953125 225.070312 344.734375 225.070312 C 344.425781 225.070312 344.332031 224.726562 344.332031 223.597656 C 344.332031 222.207031 344.296875 222.128906 343.664062 222.128906 L 342.996094 222.128906 L 342.996094 226.941406 M 294.472656 223.09375 C 291.664062 224.613281 291.449219 231.222656 294.203125 231.222656 C 294.398438 231.222656 294.558594 231.339844 294.558594 231.488281 C 294.558594 231.96875 298.222656 231.820312 298.410156 231.332031 C 298.808594 230.292969 298.621094 230.152344 296.847656 230.152344 C 293.785156 230.152344 292.292969 226.933594 294.433594 224.949219 C 295.191406 224.25 295.351562 224.210938 297.628906 224.160156 C 298.582031 224.140625 298.980469 224.019531 299.035156 223.730469 C 299.222656 222.757812 295.9375 222.296875 294.472656 223.09375 M 300.980469 224.800781 C 300.980469 224.949219 300.753906 225.070312 300.476562 225.070312 C 300.203125 225.070312 299.839844 225.234375 299.671875 225.4375 C 299.144531 226.070312 299.921875 226.414062 301.46875 226.226562 C 302.757812 226.078125 302.855469 226.105469 302.855469 226.636719 C 302.855469 227.09375 302.691406 227.210938 302.066406 227.210938 C 301.632812 227.210938 301.214844 227.316406 301.132812 227.449219 C 301.050781 227.578125 300.65625 227.769531 300.25 227.871094 C 298.980469 228.1875 298.488281 230.84375 299.644531 231.144531 C 299.9375 231.222656 300.175781 231.390625 300.175781 231.519531 C 300.175781 231.875 302.433594 231.804688 302.800781 231.433594 C 303.050781 231.1875 303.121094 231.1875 303.121094 231.433594 C 303.121094 231.613281 303.363281 231.757812 303.65625 231.757812 C 304.230469 231.757812 304.492188 226.492188 303.960938 225.652344 C 303.433594 224.824219 300.980469 224.121094 300.980469 224.800781 M 309.34375 225.019531 C 308.863281 225.246094 308.472656 225.539062 308.472656 225.671875 C 308.472656 225.804688 308.292969 226.089844 308.070312 226.3125 C 307.816406 226.566406 307.671875 227.21875 307.675781 228.097656 C 307.679688 230.0625 307.886719 230.621094 308.769531 231.011719 C 309.195312 231.199219 309.542969 231.441406 309.542969 231.554688 C 309.542969 231.980469 312.421875 231.773438 312.59375 231.332031 C 313.019531 230.222656 311.8125 229.597656 310.933594 230.472656 C 310.6875 230.722656 310.613281 230.722656 310.613281 230.472656 C 310.613281 230.296875 310.453125 230.152344 310.253906 230.152344 C 309.125 230.152344 308.574219 227.722656 309.46875 226.675781 C 310.226562 225.792969 312.753906 225.894531 312.753906 226.808594 C 312.753906 227.175781 312.855469 227.476562 312.976562 227.476562 C 313.097656 227.476562 313.34375 228.273438 313.523438 229.246094 C 313.980469 231.71875 315.242188 232.757812 315.605469 230.953125 C 315.691406 230.511719 315.871094 230.152344 316 230.152344 C 316.128906 230.152344 316.234375 230 316.234375 229.816406 C 316.242188 227.894531 317.226562 227.140625 317.285156 229.011719 C 317.34375 230.847656 319.445312 233.015625 319.445312 231.238281 C 319.445312 230.953125 319.546875 230.65625 319.671875 230.578125 C 319.800781 230.5 320.054688 229.527344 320.246094 228.421875 C 320.433594 227.3125 320.695312 226.40625 320.820312 226.40625 C 320.949219 226.40625 321.050781 226.03125 321.050781 225.574219 C 321.050781 224.839844 320.980469 224.757812 320.449219 224.902344 C 320.117188 224.988281 319.769531 225.0625 319.675781 225.066406 C 319.582031 225.066406 319.421875 225.628906 319.320312 226.308594 C 318.976562 228.585938 318.535156 228.957031 318.242188 227.210938 C 318.140625 226.621094 317.949219 226.140625 317.816406 226.140625 C 317.683594 226.140625 317.570312 225.898438 317.570312 225.605469 C 317.570312 225.210938 317.394531 225.070312 316.902344 225.070312 C 316.484375 225.070312 316.234375 225.21875 316.234375 225.46875 C 316.234375 225.691406 316.121094 225.871094 315.984375 225.871094 C 315.847656 225.871094 315.589844 226.535156 315.40625 227.34375 C 315 229.167969 314.75 229.203125 314.519531 227.476562 C 314.421875 226.742188 314.226562 226.140625 314.082031 226.140625 C 313.941406 226.140625 313.824219 225.898438 313.824219 225.605469 C 313.824219 225.097656 313.695312 225.039062 312.445312 224.960938 C 312.199219 224.949219 311.910156 224.84375 311.796875 224.734375 C 311.484375 224.425781 310.304688 224.5625 309.34375 225.019531 M 323.191406 224.773438 C 323.191406 224.90625 322.890625 225.085938 322.523438 225.179688 C 322.15625 225.273438 321.855469 225.515625 321.855469 225.722656 C 321.855469 225.925781 321.703125 226.144531 321.519531 226.207031 C 320.433594 226.570312 321.402344 231.222656 322.5625 231.222656 C 322.761719 231.222656 322.921875 231.339844 322.921875 231.488281 C 322.921875 231.636719 323.464844 231.757812 324.128906 231.757812 C 324.789062 231.757812 325.332031 231.664062 325.332031 231.550781 C 325.332031 231.441406 325.601562 231.230469 325.933594 231.085938 C 327.746094 230.289062 327.285156 225.101562 325.398438 225.074219 C 325.214844 225.070312 325.066406 224.949219 325.066406 224.800781 C 325.066406 224.65625 324.640625 224.535156 324.128906 224.535156 C 323.613281 224.535156 323.191406 224.640625 323.191406 224.773438 M 329.882812 224.785156 C 329.882812 224.941406 329.460938 225.070312 328.945312 225.070312 L 328.007812 225.070312 L 328.007812 228.414062 C 328.007812 231.578125 328.035156 231.757812 328.542969 231.757812 C 329.027344 231.757812 329.078125 231.578125 329.078125 229.9375 C 329.078125 228.9375 329.1875 228.003906 329.324219 227.863281 C 329.457031 227.722656 329.609375 227.308594 329.660156 226.941406 C 329.734375 226.378906 329.910156 226.257812 330.765625 226.1875 C 331.699219 226.113281 331.78125 226.042969 331.703125 225.386719 C 331.621094 224.65625 329.882812 224.082031 329.882812 224.785156 M 351.558594 224.78125 C 351.558594 224.917969 351.203125 225.105469 350.773438 225.199219 C 350.183594 225.328125 349.941406 225.566406 349.8125 226.15625 C 349.71875 226.589844 349.53125 226.941406 349.394531 226.941406 C 348.492188 226.941406 349.554688 230.902344 350.523438 231.152344 C 350.796875 231.226562 351.023438 231.390625 351.023438 231.519531 C 351.023438 231.648438 351.625 231.757812 352.359375 231.757812 C 353.097656 231.757812 353.699219 231.644531 353.699219 231.507812 C 353.699219 231.371094 353.910156 231.191406 354.167969 231.109375 C 355.429688 230.707031 355.832031 227.785156 354.855469 226.132812 C 354.179688 224.992188 351.558594 223.917969 351.558594 224.78125 M 358.246094 224.800781 C 358.246094 224.949219 357.828125 225.070312 357.308594 225.070312 L 356.375 225.070312 L 356.375 234.46875 L 356.976562 234.382812 C 357.488281 234.308594 357.589844 234.109375 357.660156 233.027344 L 357.742188 231.757812 L 359.066406 231.757812 C 359.792969 231.757812 360.386719 231.636719 360.386719 231.488281 C 360.386719 231.339844 360.558594 231.222656 360.769531 231.222656 C 361.773438 231.222656 362.480469 228.304688 361.855469 226.742188 C 361.25 225.230469 358.246094 223.617188 358.246094 224.800781 M 366.898438 225.039062 C 364.738281 226.140625 364.570312 231.222656 366.695312 231.222656 C 366.90625 231.222656 367.078125 231.339844 367.078125 231.488281 C 367.078125 231.636719 367.726562 231.757812 368.519531 231.757812 C 369.972656 231.757812 370.289062 231.539062 370.289062 230.53125 C 370.289062 230.050781 368.785156 230.011719 368.59375 230.484375 C 368.503906 230.703125 368.378906 230.726562 368.234375 230.550781 C 368.113281 230.40625 367.773438 230.152344 367.480469 229.992188 C 367.085938 229.773438 366.921875 229.367188 366.863281 228.460938 C 366.738281 226.550781 367.085938 226.140625 368.828125 226.140625 C 370.042969 226.140625 370.289062 226.0625 370.289062 225.671875 C 370.28125 224.648438 368.367188 224.292969 366.898438 225.039062 M 372.699219 224.800781 C 372.699219 224.949219 372.5625 225.070312 372.402344 225.070312 C 371.933594 225.070312 370.835938 226.226562 370.828125 226.726562 C 370.828125 226.972656 370.703125 227.253906 370.558594 227.34375 C 370.222656 227.550781 370.203125 229 370.535156 229.203125 C 370.671875 229.285156 370.863281 229.710938 370.957031 230.140625 C 371.054688 230.582031 371.355469 231 371.648438 231.09375 C 371.929688 231.183594 372.164062 231.371094 372.164062 231.507812 C 372.164062 231.644531 372.765625 231.757812 373.5 231.757812 C 374.238281 231.757812 374.839844 231.648438 374.839844 231.519531 C 374.839844 231.390625 375.058594 231.226562 375.324219 231.15625 C 376.65625 230.808594 377.148438 227.105469 376.015625 225.980469 C 374.777344 224.757812 372.699219 224.015625 372.699219 224.800781 M 379.386719 224.800781 C 379.386719 224.949219 378.964844 225.070312 378.453125 225.070312 L 377.515625 225.070312 L 377.515625 231.757812 L 378.183594 231.757812 C 378.851562 231.757812 378.851562 231.753906 378.851562 229.097656 C 378.851562 226.195312 379.058594 225.863281 380.613281 226.253906 C 381.246094 226.414062 381.261719 226.484375 381.261719 229.085938 C 381.261719 231.757812 381.261719 231.757812 381.929688 231.757812 C 382.597656 231.757812 382.597656 231.753906 382.597656 229.097656 C 382.597656 226.195312 382.804688 225.863281 384.359375 226.253906 C 384.992188 226.414062 385.007812 226.484375 385.007812 229.085938 C 385.007812 231.578125 385.042969 231.757812 385.542969 231.757812 C 386.046875 231.757812 386.078125 231.578125 386.078125 228.699219 L 386.078125 225.640625 L 385.300781 225.085938 C 384.519531 224.53125 383.132812 224.328125 383.132812 224.769531 C 383.132812 225.214844 381.945312 225.320312 381.34375 224.925781 C 380.664062 224.480469 379.386719 224.398438 379.386719 224.800781 M 324.929688 226.34375 C 326.429688 227.445312 325.875 230.21875 324.160156 230.21875 C 322.574219 230.21875 321.742188 227.972656 322.851562 226.675781 C 323.304688 226.144531 324.417969 225.964844 324.929688 226.34375 M 353.078125 226.304688 C 354.195312 226.601562 354.136719 229.902344 353.011719 230.113281 C 352.726562 230.167969 352.40625 230.351562 352.296875 230.515625 C 352.15625 230.734375 352.101562 230.726562 352.097656 230.484375 C 352.09375 230.300781 351.917969 230.152344 351.699219 230.152344 C 351.140625 230.152344 350.753906 229.289062 350.753906 228.046875 C 350.753906 226.449219 351.507812 225.882812 353.078125 226.304688 M 360.460938 227.191406 C 360.769531 228.382812 360.480469 229.867188 359.90625 230.078125 C 359.65625 230.171875 359.371094 230.363281 359.277344 230.507812 C 359.167969 230.671875 358.933594 230.605469 358.675781 230.351562 C 358.445312 230.121094 358.121094 229.886719 357.957031 229.832031 C 357.527344 229.6875 357.597656 226.644531 358.035156 226.359375 C 358.910156 225.789062 360.214844 226.234375 360.460938 227.191406 M 375.007812 227.300781 C 375.417969 228.484375 374.933594 230.152344 374.183594 230.152344 C 373.957031 230.152344 373.769531 230.265625 373.769531 230.40625 C 373.769531 231.082031 372.152344 229.691406 372 228.882812 C 371.496094 226.222656 374.152344 224.824219 375.007812 227.300781 M 302.855469 229.324219 C 302.855469 229.871094 301.722656 230.390625 300.914062 230.214844 C 300.378906 230.097656 300.277344 229.191406 300.777344 228.992188 C 301.675781 228.628906 302.855469 228.816406 302.855469 229.324219 M 362.851562 230.207031 C 362.234375 230.820312 362.835938 231.757812 363.847656 231.757812 C 364.304688 231.757812 364.402344 231.589844 364.402344 230.820312 C 364.402344 229.816406 363.570312 229.488281 362.851562 230.207031 " fill-opacity="1" fill-rule="evenodd"/></g></svg>