<svg xmlns="http://www.w3.org/2000/svg" width="400" height="225" version="1.0" viewBox="0 0 300 168.75"><defs><clipPath id="a"><path d="M.223 0h299.554v168.5H.223Zm0 0"/></clipPath><clipPath id="b"><path d="M57 17h242v141.766H57Zm0 0"/></clipPath></defs><g fill="#fff" clip-path="url(#a)"><path d="M.223 0h299.554v168.5H.223Zm0 0"/><path d="M.223 0h299.554v168.5H.223Zm0 0"/></g><path fill="#0404fc" fill-rule="evenodd" d="M156.027 60.46c-.242.099-.289.563-.058.563.082 0 .113.153.062.336-.058.243-.226.34-.574.34-.875 0-1.863 1.18-1.8 2.156l.05.793 2.172.047 2.168.047-.102-.41c-.222-.887.047-1.453.696-1.453.64 0 .722.836.12 1.281-.491.367-.265.574.637.574h.883V63.61q0-1.125.211-1.195c.117-.039.211-.219.211-.402 0-.828.578-1.285.715-.567.062.325.012.422-.219.422-.234 0-.297.125-.285.547.012.3-.039.945-.117 1.434-.133.859-.125.886.266.882.656-.003.878-.257.91-1.039.02-.398.093-1.23.164-1.84l.129-1.113-.653-.11c-1.195-.194-2.09-.136-2.09.142 0 .14.133.261.297.265.176.012.211.05.082.102-.113.047-.21.304-.21.574 0 .465-.04.492-.692.492-.562 0-.672-.05-.59-.266.059-.148.102-.37.102-.496 0-.125.152-.273.34-.332.73-.234.37-.59-.59-.59-.715 0-.93.06-.93.25 0 .141.078.254.168.254.094 0 .172.153.172.336 0 .188-.074.34-.164.34s-.215.38-.274.844c-.062.46-.18.84-.261.84-.078 0-.145.152-.145.34 0 .293-.043.312-.332.132-.18-.113-.262-.25-.18-.3.082-.051.239-.602.348-1.227.11-.625.266-1.137.348-1.137.086 0 .152-.187.152-.421 0-.418-.516-.56-1.137-.31m28.848.915c0 .469-.078.902-.176.969-.097.062-.234.48-.3.933-.09.606-.204.84-.446.903-.73.191-.336.554.606.554.71 0 .925-.062.925-.254 0-.14-.074-.253-.168-.253-.093 0-.168-.153-.168-.336 0-.188.075-.34.168-.34s.168-.149.168-.336c0-.274.114-.336.59-.336.696 0 .781.34.254 1.012-.543.691-.437.843.59.843.71 0 .926-.062.926-.254 0-.14-.074-.253-.168-.253s-.168-.266-.168-.59c0-.325.074-.59.168-.59s.168-.152.168-.336q0-.34.34-.34c.402 0 .418.145.082.781-.45.871-.34 1.582.246 1.582.554 0 1.02-.574.715-.879-.106-.105-.114-.363-.016-.699a4.4 4.4 0 0 0 .152-.992c0-.258.075-.465.168-.465.672 0 .117-.972-.613-1.074-1.36-.187-2.086-.137-2.086.145 0 .14.102.253.219.253.152 0 .199.184.152.59-.066.578-1.55.98-1.55.422a.17.17 0 0 1 .167-.168c.094 0 .172-.16.172-.351 0-.215.133-.391.336-.442.727-.191.363-.554-.558-.554h-.895zm4.043.363c.105.067-.055.125-.356.125-.617.004-.687-.168-.253-.605.28-.281.296-.278.355.031.035.18.149.379.254.45m-33.102.804c0 .09-.07.168-.156.168s-.207.156-.27.352c-.062.195-.269.511-.46.703l-.348.343.113-.562c.164-.817 1.121-1.676 1.121-1.004m-59.507.336c0 .094.113.168.254.168.136 0 .253.074.253.168s-.07.168-.152.168-.246.512-.363 1.137c-.207 1.109-.45 1.562-.836 1.562-.106 0-.168.172-.137.379.047.336.152.379.899.379.742 0 .847-.043.894-.38.031-.206-.02-.378-.11-.378-.1 0-.097-.25.012-.676.239-.949 1.422-1.074 1.22-.125-.153.703-.216.801-.524.801-.164 0-.235.129-.2.379.047.336.153.379.899.379h.84l.012-.676c.011-.91.242-2.105.406-2.105.07 0 .176-.227.234-.508.125-.637.613-.692.613-.067q.002.438-.335.524c-.333.09-.485.555-.18.555.094 0 .094.21 0 .546-.25.871-.203 1.817.094 1.817.59 0 1.195-1.047.718-1.239-.164-.066-.168-.12-.011-.23.226-.16.62-2.34.468-2.586-.215-.351-2.64-.195-2.527.16.219.692-.074 1.196-.687 1.196-.348 0-.575-.082-.57-.211.003-.493.222-.97.437-.97.129 0 .234-.073.234-.167s-.418-.168-.93-.168c-.507 0-.925.074-.925.168m-8.899 6.277.047 1.899h1.012l.101-2.782h19.356l.05 1.391c.047 1.379.051 1.39.512 1.441l.465.055v-3.898h-21.59zm69.754 3.078c0 .137-.059.254-.133.254s-.238.282-.363.63c-.125.35-.29.675-.367.726-.582.379-.328 1.094.472 1.324.836.238 1.739.918 1.739 1.312 0 .122.078.223.172.223.09 0 .168.149.168.336 0 .184-.079.336-.168.336-.094 0-.172.098-.172.215 0 .496-1.07 1.039-1.211.617-.145-.434-1.485-.398-1.485.043 0 1.258 1.98 1.39 3.16.21 1.227-1.226.805-3.835-.683-4.21-.25-.062-.453-.184-.453-.266s-.125-.148-.274-.148c-.226 0-.238-.047-.066-.254.14-.168.516-.254 1.11-.254.98 0 .992-.004 1.16-.797l.117-.55h-1.36c-1.097 0-1.363.05-1.363.253m19.89 0c0 .137-.058.254-.132.254s-.238.282-.36.63c-.125.35-.292.675-.37.726-.583.379-.329 1.094.472 1.324.836.238 1.742.918 1.742 1.312 0 .122.074.223.168.223s.168.149.168.336c0 .184-.074.336-.168.336s-.168.098-.168.215c0 .496-1.074 1.039-1.215.617-.144-.434-1.484-.398-1.484.043 0 1.258 1.98 1.39 3.16.21 1.227-1.226.805-3.835-.683-4.21-.25-.062-.454-.184-.454-.266s-.125-.148-.273-.148c-.223 0-.234-.047-.062-.254.136-.168.511-.254 1.105-.254.98 0 .992-.004 1.164-.797l.117-.55h-1.363c-1.098 0-1.363.05-1.363.253m18.336-.136c-.164.043-.297.14-.297.218 0 .079-.227.196-.504.254-.535.118-.68.489-.254.653.137.05.367.05.504 0 .219-.086.254.261.254 2.523 0 2.469-.02 2.625-.336 2.727-.875.277-.344.59 1.012.59 1.328 0 1.91-.32 1.011-.555-.324-.086-.34-.23-.34-3.309v-3.22l-.379.02a4 4 0 0 0-.671.098M88.758 73.53c-.113.114-.203.297-.203.41 0 .114-.102.309-.223.43-.652.656-.785 1.992-.2 1.992.231 0 .423.078.423.168 0 .094.14.172.312.172 1.117 0 1.79 1.727 1 2.574-.426.461-1.312.528-1.312.102 0-.082-.266-.149-.59-.149-.54 0-.59.043-.59.485 0 1.418 2.79 1.027 3.758-.52.316-.504.406-2.324.117-2.324-.09 0-.168-.098-.168-.21 0-.376-.934-1.11-1.559-1.227-1.003-.188-.554-.922.563-.922 1.105 0 1.336-.121 1.336-.696v-.488h-1.23c-.735 0-1.313.082-1.434.203m18.34-.05c0 .082-.207.203-.461.265-.762.192-.985.766-.297.766h.422v2.597c0 2.457-.02 2.61-.34 2.711-.899.285-.332.59 1.098.59 1.546 0 1.875-.226.925-.648l-.504-.223v-6.21h-.421c-.23 0-.422.07-.422.151m81.925 1.368v1.18h-1.18c-1.144 0-1.179.011-1.179.421s.035.422 1.18.422h1.18v1.094c0 1.058.015 1.097.421 1.097.407 0 .422-.039.422-1.097V76.87h1.18c1.148 0 1.18-.012 1.18-.422s-.032-.422-1.18-.422h-1.18v-1.18c0-1.148-.012-1.179-.422-1.179s-.422.031-.422 1.18m-8.046-.391c-.52.106-.547.895-.032.895.524 0 .871.453.89 1.152.02.793-.585 1.46-1.323 1.46-.465 0-.504.048-.504.59 0 .575.015.59.633.571.609-.016 1.304-.527 1.304-.953 0-.309.485.238.535.605.141.965 1.993.2 1.993-.82 0-.457-.403-.566-.625-.168-.27.48-.57-.008-.606-.98-.039-1.102.117-1.282 1.117-1.286.621-.003.641-.02.59-.55-.082-.856-1.37-.887-1.82-.047-.297.55-.473.539-.54-.035-.058-.485-.62-.637-1.612-.434m-80.286 1.738v1.18h-1.18c-1.066 0-1.179.031-1.179.336 0 .309.113.34 1.18.34h1.18v2.36h1.011v-2.36h1.012c.898 0 1.012-.04 1.012-.34 0-.297-.114-.336-1.012-.336h-1.012v-2.36h-1.012zm-7.921-.336c0 .09-.114.168-.254.168s-.254.149-.254.336c0 .262.113.34.488.34.809 0 .96 1.309.273 2.32-.234.344-.421.528-.421.415 0-.282-.477-.262-.774.035-.516.515-.203 1.105.578 1.105.317 0 1.274-.808 1.41-1.191.051-.133.145.039.215.386.188.97 1.086 1.055 1.899.184.664-.71.164-1.332-.52-.648-.219.218-.262.132-.363-.739-.137-1.183.101-1.699.785-1.699.938 0 1.266-.418.742-.941-.41-.407-1.097-.29-1.629.285-.363.387-.492.45-.492.238 0-.156-.105-.39-.238-.523-.274-.274-1.445-.328-1.445-.07"/><path fill="#fc0404" fill-rule="evenodd" d="M204.746 60.469c-.43.082-.527.554-.117.554.582 0 .144.579-.566.75-1.083.266-1.75 1.102-1.688 2.106l.05.77 2.321.038c2.113.04 2.664-.058 2.149-.374-.278-.172-.204-1.22.097-1.333.754-.289 1.113-.128.992.446-.152.703-.214.8-.511.8a.25.25 0 0 0-.243.254c0 .196.22.254.946.254.902 0 .945-.02.847-.382-.117-.454.23-2.485.43-2.485.074 0 .137-.16.137-.351 0-.215.137-.391.34-.442.75-.199.355-.554-.61-.554-.925 0-.945.007-.84.421.204.805-.042 1.262-.68 1.262-.675 0-.792-.484-.234-.965.594-.508.422-.718-.59-.718-.71 0-.925.058-.925.25 0 .14.133.253.297.257.168 0 .218.055.12.125-.097.07-.273.618-.394 1.22-.12.605-.289 1.12-.375 1.151-.086.032-.152.176-.152.317 0 .21-.047.222-.254.05-.273-.226-.348-.843-.106-.843.083 0 .204-.34.266-.754s.184-.8.27-.855c.09-.051.16-.32.16-.594 0-.516-.149-.567-1.137-.375m-70.844.3c0 .141.075.254.168.254s.168.153.168.336c0 .188-.07.34-.152.34-.086 0-.242.52-.348 1.156-.168.977-.265 1.192-.617 1.352-.637.29-.32.527.707.527.703 0 .918-.062.918-.254 0-.14-.078-.253-.172-.253-.09 0-.168-.153-.168-.336 0-.188.078-.34.168-.34.094 0 .172-.149.172-.336 0-.274.11-.336.586-.336.48 0 .594.062.594.336 0 .187-.078.336-.172.336-.09 0-.168.117-.168.261a.41.41 0 0 1-.254.352c-.613.238-.246.57.633.57h.887V63.61q0-1.125.21-1.195c.114-.039.211-.254.211-.48 0-.223.153-.54.336-.696.594-.508.422-.718-.59-.718-.878 0-1.464.48-.632.515.175.012.21.05.086.102-.118.047-.211.304-.211.574 0 .465-.04.492-.692.492-.562 0-.675-.05-.59-.266.055-.148.102-.37.102-.496 0-.125.152-.273.336-.332.73-.234.371-.59-.59-.59-.71 0-.926.06-.926.25m4.403 1.04c-.762.328-1.805 2.25-1.22 2.25.083 0 .188.152.235.336.137.52 1.43.472 2.067-.075.468-.402.734-2.02.394-2.363-.16-.156-1.21-.262-1.476-.148m72.238.007c-.418.11-.953.582-.953.848 0 .117-.074.215-.168.215-.238 0-.211 1.406.035 1.652.832.832 2.664-.246 2.664-1.57 0-1.082-.476-1.426-1.578-1.145m-71.555 1.16c-.031.27-.113.528-.18.575-.07.047-.18.226-.242.394-.18.492-.539.223-.492-.367.047-.57.516-1.246.797-1.148.094.035.149.28.117.547m65.301-.141c-.168.691-1.105 1.371-1.105.8 0-.14.058-.253.129-.253.07 0 .226-.227.351-.504.293-.664.785-.7.625-.043m6.988.043c0 .277-.07.504-.156.504-.09 0-.207.152-.266.34-.058.183-.214.336-.347.336-.332 0-.324-.993.012-1.121.136-.051.25-.204.25-.333 0-.128.117-.234.253-.234q.253.002.254.508M125.5 72.37c-.2.215-.363.48-.363.59s-.078.2-.168.2c-.094 0-.172.151-.172.339q0 .335.34.336c.183 0 .336-.106.336-.234 0-.528 1.3-.602 1.734-.102.156.188.29.41.29.5 0 .258-1.169 1.352-1.438 1.352-.137 0-.25.078-.25.168 0 .093.113.171.254.171.14 0 .253.075.253.168 0 .09.133.172.293.172 1.246.024 1.309 2.356.067 2.356-.188 0-.387-.075-.446-.168-.28-.453-1.433-.188-1.433.332 0 .687 2.422 1.027 2.84.398.062-.09.25-.219.422-.281a.72.72 0 0 0 .398-.45c.05-.187.156-.335.238-.335s.149-.496.149-1.098c0-.601-.07-1.094-.156-1.094s-.208-.152-.266-.34c-.059-.183-.219-.335-.36-.335-.222 0-.218-.036.012-.266.594-.594.528-2.059-.117-2.512-.594-.418-2.012-.34-2.457.133m20.285-.055c-.058.188-.168.34-.242.34s-.23.227-.348.504c-.113.278-.277.508-.355.508-.082 0-.149.086-.149.195 0 .106-.191.442-.421.746-.235.305-.422.606-.422.672s-.121.207-.27.317c-.152.109-.308.543-.36.988l-.09.789h2.575v1.688h1.348v-.844c0-.73.043-.844.336-.844.273 0 .336-.113.336-.59 0-.476-.063-.59-.336-.59-.32 0-.336-.113-.336-2.105v-2.11h-.578c-.434 0-.606.086-.688.336m60.055.207c-.508.594-.621 1.313-.203 1.313.14 0 .3-.121.36-.266.237-.625 1.694-.59 1.765.04.015.124.031.3.043.39.027.266-.602 1.016-.852 1.016-.125 0-.226.074-.226.168 0 .093-.114.168-.254.168s-.254.078-.254.168c0 .093.113.171.254.171.14 0 .254.067.254.145 0 .082.226.195.507.25.852.172 1.09 1.523.364 2.074-.336.258-1.04.297-1.04.059 0-.274-1.347-.203-1.453.074-.359.934 2.239 1.305 3.153.453.21-.2.441-.36.508-.36.574 0 .582-2.511.007-3.046-.324-.3-.34-.828-.027-.828.191 0 .367-1.094.25-1.563-.266-1.062-2.363-1.344-3.156-.426m-60.137 2.66v1.012l-.8-.004c-.442 0-.727-.058-.633-.125.195-.144.476-.578.875-1.347.41-.797.558-.676.558.465m-15.816-.723c-.578.113-.442.789.175.86 1.333.156.743 2.644-.625 2.644-.453 0-.515.062-.562.55-.094.965 1.43.993 1.824.036.266-.637.485-.637.613 0 .157.785 1.594.914 1.833.16.058-.18.175-.324.261-.324s.156-.188.156-.422c0-.48-.566-.606-.738-.156-.14.367-.441.132-.441-.348 0-.223-.074-.45-.168-.508-.207-.129-.223-.758-.02-.758.082 0 .188-.152.239-.336.07-.27.23-.34.789-.34.687 0 .699-.007.648-.546-.078-.797-.988-.887-1.648-.16l-.457.496-.18-.485c-.188-.496-.57-.578-1.7-.363m5.7 1.82v.59h5.562v-1.18h-5.562zM87.25 87.761c-.629.692-.723 1.247-.21 1.247.183 0 .335-.074.335-.164 0-.324.797-.7 1.246-.586.875.222.781 1.36-.156 1.91-.766.453-.754.816.027.96.395.075.64.227.695.43.043.172.149.317.231.317.289 0 .144 1.012-.188 1.348-.363.359-1.113.457-1.214.152-.164-.496-1.23-.25-1.282.297-.05.516-.023.543.672.64 1.352.196 3.004-.382 3.004-1.042 0-.122.074-.22.168-.22.399 0 .188-2.09-.262-2.573-.39-.418-.406-.489-.168-.727.422-.426.34-1.621-.152-2.152-.672-.723-2.012-.641-2.746.164m20.523-.356c0 .14-.152.387-.34.543-.183.16-.335.387-.335.504 0 .121-.078.219-.172.219s-.246.187-.332.418c-.09.234-.239.422-.336.422-.094 0-.172.074-.172.16 0 .156-.656 1.226-1.008 1.644-.094.114-.172.438-.172.72v.51h2.867v1.688h1.18v-.843c0-.79.027-.844.422-.844.367 0 .422-.074.422-.59s-.055-.59-.422-.59h-.422v-4.215h-.59c-.414 0-.59.078-.59.254m33.004.2c-.156.039-.382.335-.496.652-.117.32-.27.582-.344.582s-.136.113-.136.25c0 .36.453.316.883-.082.199-.188.46-.336.582-.336a.22.22 0 0 0 .222-.215c.004-.14.043-.148.13-.027.066.097.253.23.417.289.695.258.242 1.687-.601 1.898-.579.145-.586.512-.012.656.246.059.547.215.672.34s.312.258.418.293c.101.035.195.344.203.688.027.933-.36 1.156-1.778 1.027l-1.136-.105v.441c0 .281.094.445.254.445.136 0 .254.075.254.168s.414.168.925.168.926-.074.926-.168c0-.093.149-.168.332-.168 1.297 0 2.004-2.644.965-3.609-.43-.398-.45-.465-.21-.703.398-.399.35-1.77-.079-2.23-.336-.36-1.512-.485-2.39-.255m20.097.305c-.09.235-.23.422-.312.422-.086 0-.25.227-.364.508-.117.277-.277.504-.36.504-.081 0-.148.11-.148.246a.5.5 0 0 1-.21.379c-.114.074-.325.363-.461.64-.141.278-.348.567-.465.641s-.211.469-.211.883v.75h2.531v.762c0 .753 0 .757.59.757.586 0 .59-.007.59-.75 0-.687.035-.75.46-.8.747-.086.798-1.149.055-1.149h-.515v-4.215h-.512c-.387 0-.547.102-.668.422m11.082-.305c-.164.043-.297.145-.297.223s-.11.254-.242.387c-.727.73-.352 1.515.398.836.73-.66.895-.762 1-.602.063.09.243.211.407.27.722.265.004 1.972-.828 1.972-.403 0-.243.496.195.606.23.058.422.164.422.238 0 .07.152.168.336.219a.45.45 0 0 1 .336.426c0 .187.097.379.21.425.137.055.153.133.043.223-.093.078-.253.293-.359.477-.168.297-.336.332-1.39.28-1.192-.054-1.2-.05-1.2.384 0 .273.094.433.25.433.14 0 .254.075.254.168s.418.168.93.168c.508 0 .926-.074.926-.168 0-.093.14-.168.312-.168.403 0 1.203-.797 1.203-1.195 0-.164.078-.352.168-.406.094-.059.172-.328.172-.602s-.078-.496-.172-.496c-.09 0-.168-.152-.168-.336 0-.183-.152-.492-.34-.68-.308-.308-.32-.37-.085-.601.41-.41.34-1.703-.122-2.191-.37-.391-1.453-.524-2.359-.29m20.07.207a4.6 4.6 0 0 0-.484.708 4.7 4.7 0 0 1-.586.796 4.6 4.6 0 0 0-.61.852c-.124.242-.265.477-.312.523-.418.422-.844 1.262-.844 1.68v.512h2.868v.762c0 .753.004.757.59.757.59 0 .59-.004.59-.757 0-.7.034-.762.421-.762.371 0 .422-.07.422-.59 0-.516-.05-.59-.422-.59h-.422v-4.215h-.468c-.254 0-.59.149-.743.325m-84.254 2.374v1.18h-.855c-.762 0-.828-.027-.602-.254.141-.14.301-.406.36-.59s.16-.335.226-.335c.067 0 .262-.266.438-.59.422-.785.433-.774.433.59m-15.847-.508c0 .093-.114.172-.254.172s-.25.148-.25.335c0 .235.113.336.379.34.586.004.773.203.89.93.145.898-.488 1.707-1.27 1.625-.476-.05-.507-.02-.507.54 0 1.03 1.11 1.034 1.719.003.37-.629.64-.613.64.031 0 .586.653.867 1.344.578.281-.117.512-.308.512-.43 0-.12.121-.343.273-.495.368-.368.157-.532-.414-.317-.582.219-.777.031-.925-.89-.145-.91.253-1.41 1.128-1.41.586 0 .614-.024.614-.59 0-.575-.02-.59-.676-.59-.371 0-.676.058-.68.129-.02.476-.844.718-1.031.3-.203-.437-1.492-.664-1.492-.261m68.949.93v1.093h-.676c-.37 0-.676-.031-.676-.074 0-.215.41-.938.536-.938.074 0 .14-.113.14-.257 0-.141.113-.301.254-.356.137-.05.25-.203.25-.332s.04-.234.086-.234c.047 0 .086.496.086 1.097m31.184 0v1.094h-.758c-.633 0-1.246-.492-.633-.508.07 0 .355-.379.633-.84.66-1.093.758-1.058.758.254m-46.989-.64c-.507.097-.511.68-.007.754.218.03.476.265.617.558.136.281.304.633.379.79.086.183.05.312-.114.37-.132.051-.242.172-.242.266 0 .363-.566.844-.777.668-.551-.457-1.184.61-.668 1.121.273.277.937.328.937.074 0-.093.11-.168.243-.168.132 0 .289-.152.347-.34.059-.183.172-.335.254-.335.078 0 .18-.133.219-.293.05-.196.086-.145.097.14.024.528.54 1.164.942 1.164.367 0 1.437-1.054 1.437-1.414 0-.351-.453-.347-.808.008-.262.262-.29.234-.403-.422-.066-.387-.168-.781-.226-.879-.215-.344.41-1 .95-1 .815 0 1.374-.832.73-1.078-.598-.23-1.2-.094-1.59.356-.297.343-.418.394-.477.21-.207-.613-.715-.765-1.84-.55m31.184 0c-.477.094-.527.722-.059.722.801 0 1.157 1.368.563 2.176-.246.332-.465.637-.492.672-.024.04-.16-.027-.301-.144-.496-.415-.95.324-.66 1.078.25.648 1.918-.235 1.918-1.016 0-.129.078-.234.172-.234.09 0 .167.148.167.328 0 .629.372 1.187.79 1.187.484 0 1.402-.886 1.402-1.355 0-.414-.473-.438-.777-.035-.204.27-.223.254-.23-.16 0-.247-.079-.5-.173-.555-.668-.414.047-1.59.965-1.598.434-.004.566-.09.649-.418.234-.937-.907-1.105-1.739-.254l-.504.516-.105-.516c-.106-.531-.438-.617-1.586-.394m-78.766 1.484v.422h5.563v-.844h-5.563zm53.27.336v.59h5.73v-1.18h-5.73zm31.187 0v.59h5.563v-1.18h-5.563zM86.7 96.668v1.95h23.098v-3.9l-.55.052-.548.054-.05 1.305-.047 1.308H87.727l-.051-1.308c-.047-1.285-.055-1.305-.512-1.36l-.465-.054zm9.106 3.719c0 .136.074.254.168.254.093 0 .168.148.168.336 0 .183-.07.335-.157.335-.09 0-.21.344-.273.762s-.184.801-.266.852-.148.246-.148.437c0 .2-.14.38-.336.43-.75.195-.356.555.61.555.913 0 .94-.016.843-.407-.219-.867.05-1.449.676-1.449.43 0 .566.074.566.297-.004.566-.207 1.055-.441 1.055-.125 0-.23.113-.23.25 0 .195.214.254.925.254s.93-.059.93-.254c0-.137-.125-.25-.278-.25-.195 0-.222-.063-.105-.215.094-.113.219-.488.281-.832s.223-.84.356-1.098c.136-.258.25-.554.25-.66s.113-.285.254-.398c.449-.375.27-.508-.672-.508H98l.105.758.102.757h-.672c-.75 0-.875-.656-.195-1.02.57-.304.336-.495-.61-.495-.71 0-.925.058-.925.254m3.882 1.39c-.398.325-.628 1.414-.445 2.141.25 1.004 2.266.344 2.563-.844.351-1.406-.977-2.219-2.118-1.297m1.344.633c0 .23-.062.422-.133.422-.074 0-.218.227-.324.504-.304.805-.613.64-.511-.273.113-1.024.968-1.598.968-.653m60.012 2.098c0 .086.074.203.168.262.207.128.223.925.016.925-.082 0-.23.473-.332 1.047-.106.598-.293 1.106-.442 1.188-.594.332-.273.632.672.632.71 0 .93-.058.93-.253a.253.253 0 0 0-.254-.254.253.253 0 0 1-.254-.25c0-.14.078-.254.168-.254.094 0 .168-.192.168-.422 0-.375.07-.422.652-.422.602 0 .645.031.57.422-.042.23-.148.422-.23.422s-.148.113-.148.254c0 .136-.114.25-.254.25a.253.253 0 0 0-.25.254c0 .191.21.254.886.254h.887v-1.02c0-.563.082-1.074.184-1.137.097-.066.23-.379.293-.695s.261-.68.449-.809c.566-.398.379-.554-.676-.554-1.023 0-1.258.164-.719.507.211.133.235.211.086.274-.117.05-.21.234-.21.414 0 .254-.122.32-.59.32-.723 0-.797-.379-.168-.87.64-.509.511-.645-.59-.645-.559 0-1.012.07-1.012.16m6.91-.028c0 .075.07.207.152.297.18.188-.113 2.098-.32 2.098-.07 0-.183.266-.242.59-.066.355-.211.59-.356.59a.25.25 0 0 0-.246.254c0 .195.215.254.934.254h.938l-.11-.579c-.176-.93.02-1.277.715-1.277.648 0 .746.883.133 1.227-.586.328-.266.629.68.629.71 0 .925-.06.925-.254a.253.253 0 0 0-.254-.254.25.25 0 0 1-.25-.25c0-.14.067-.254.153-.254.082 0 .203-.38.265-.844.067-.465.188-.844.27-.844.086 0 .152-.136.152-.308s.153-.45.34-.618c.523-.472.41-.59-.582-.59h-.918l.035.716c.031.714.031.718-.617.769-.687.059-.781-.434-.18-.914.48-.379.246-.57-.691-.57-.508 0-.926.058-.926.132m-3.023 1.543c-.41.356-.63 1.387-.45 2.106.149.598 1.418.633 1.997.055.691-.688 1.105-1.98.632-1.98-.09 0-.168-.118-.168-.255 0-.398-1.53-.344-2.011.074m6.93.063c-.204.215-.368.48-.368.59s-.074.199-.168.199-.168.266-.168.59.074.59.168.59.168.113.168.254c0 .39 1.551.347 1.914-.055.153-.172.278-.399.278-.508 0-.105.078-.195.168-.195.242 0 .21-1.41-.032-1.653-.363-.363-1.55-.246-1.96.188m-5.641.687c-.18 1.102-.965 1.665-.965.692 0-.324.07-.59.152-.59s.188-.152.235-.336c.164-.629.683-.418.578.234m6.719.524c-.06.308-.22.601-.36.656-.547.211-.508-.957.055-1.516.363-.367.476-.05.304.86"/><g clip-path="url(#b)"><path fill="#242424" fill-rule="evenodd" d="M139.125 31.016v13.32h3.71v-1.18h-2.866V18.88h2.867V17.7h-3.711zm29.672-12.727v.59h2.863v24.277h-2.863v1.18h4.047V17.699h-4.047zm-35.36 2.191c-.292.336-.265.422.145.422.32 0 .344.067.246.633-.203 1.145-.2 1.137-1.137 1.152-.511.008-.906.094-.945.211-.035.11-.164.196-.285.196-.29 0-1.438 1.148-1.438 1.437 0 .121-.093.25-.207.29-.32.105-.285 2.284.04 2.491.398.25 1.632.196 1.914-.09.14-.136.328-.25.414-.25.09 0 .207.114.261.25.157.407 1.297.34 1.407-.081.05-.188.156-.336.238-.336s.148-.153.148-.34c0-.195-.113-.336-.265-.336-.282 0-.192-.992.109-1.184.078-.05.195-.43.258-.843.066-.415.18-.793.254-.844s.23-.598.351-1.223c.118-.62.274-1.133.344-1.133s.129-.152.129-.336c0-.421-1.621-.492-1.98-.086m31.648-.109c0 .078-.3.242-.672.363-.797.262-.969.844-.25.844h.426l-.047 2.57c-.043 2.52-.05 2.57-.426 2.625-.242.036-.379.168-.379.38 0 .296.133.324 1.516.324 1.625 0 2.285-.477 1.012-.73l-.504-.102v-3.207c0-3.098-.012-3.208-.336-3.208-.188 0-.34.063-.34.141m-18.809.617c-.058.23-.168.422-.238.422-.074 0-.184.2-.242.442-.063.242-.223.55-.356.687-.488.484-.312 1.063.32 1.063.91 0 1.59.316 1.829.855.117.27.273.492.344.492.222 0 .136.856-.11 1.106a1.4 1.4 0 0 0-.3.43c-.098.285-.922.23-1.235-.083-.637-.632-1.36-.265-1.172.59l.113.52 1.29-.063c1.44-.066 2.128-.512 2.328-1.504.054-.27.164-.492.246-.492s.148-.265.148-.59-.066-.59-.152-.59c-.082 0-.195-.183-.254-.414-.176-.699-.86-1.293-1.61-1.39-.585-.078-.996-.387-.511-.387.09 0 .168-.113.168-.25 0-.2.222-.254 1.012-.254.898 0 1.011-.039 1.011-.34 0-.183.074-.336.168-.336a.17.17 0 0 0 .168-.168c0-.437-2.855-.191-2.965.254m12.067 2.192v1.093h-1.094c-1.059 0-1.098.016-1.098.422 0 .407.04.422 1.098.422h1.094v1.18c0 1.148.011 1.18.422 1.18.41 0 .422-.032.422-1.18v-1.18h1.18c1.144 0 1.179-.012 1.179-.422s-.035-.422-1.18-.422h-1.18V23.18c0-1.059-.015-1.098-.421-1.098-.407 0-.422.04-.422 1.098m-7.586-.442c-.79.14-.895.688-.192.996 1.207.532.75 2.563-.578 2.563-.547 0-.578.031-.578.59 0 .636 1.074.906 1.512.379.094-.114.316-.395.488-.621l.313-.407.113.621c.101.532.18.618.574.618.719-.004 1.215-.188 1.215-.446 0-.133.113-.281.254-.336.344-.133.324-.734-.024-.734-.152 0-.417.164-.59.363-.3.348-.316.348-.316.031 0-.18-.078-.406-.172-.5-.675-.675.036-2.113.97-1.964l.573.093-.05-.656c-.067-.808-.88-.914-1.547-.195-.391.426-.594.363-.828-.25-.118-.309-.176-.317-1.137-.145m-17.7 1.219c0 1.09-2.011 3.211-2.234 2.36-.11-.422.04-1.2.23-1.2.083 0 .15-.125.15-.277 0-.477 1.335-1.63 1.616-1.395.133.106.239.34.239.512m-6.407 7.059v.507h11.293v-1.011h-11.293zm16.86 0v.507h24.61v-1.011h-24.61zm-11.938 3.238c-.3.3-.246.473.156.473.29 0 .336.07.254.378-.058.208-.152.66-.21 1.008-.094.563-.137.61-.446.446-.379-.207-1.348-.098-1.68.183-1.59 1.367-1.984 1.996-1.984 3.176 0 1.332 1.492 2.008 2.316 1.047.157-.188.348-.34.418-.34s.133.152.133.34c0 .45 1.074.484 1.332.039.164-.277.176-.277.18 0 .012.797 1.879.176 2.25-.746.059-.145.094-.117.102.074.007.16.09.293.18.293.093 0 .171.152.171.34 0 .273.11.336.625.336.719 0 1.395-.625 1.395-1.29 0-.515-.227-.503-.653.036l-.34.433-.164-.644c-.367-1.41-.148-2.074.68-2.074.984 0 1.238-.375.691-1.012-.414-.484-.84-.418-1.496.234-.437.438-.57.504-.57.282 0-.735-1.633-1.09-2.062-.45-.075.106-.125.024-.13-.195 0-.207.067-.379.15-.379.081 0 .198-.34.26-.758.063-.418.188-.757.274-.757s.156-.153.156-.336c0-.399-1.617-.508-1.988-.137m13.79.156a17 17 0 0 0-.63.39c-.023.02-.09.274-.148.571-.129.652.344.758.84.18.285-.332 1.125-.367 1.433-.059.168.164.055 1.332-.132 1.395-.106.031-.286.156-.403.277-.12.117-.387.27-.597.336-.473.152-.387.484.156.598 1.398.289 1.855 2.058.633 2.453-.352.113-1.153-.078-1.153-.281 0-.387-.84-.133-.945.285-.242.968 2.484 1.117 3.352.183.699-.754.843-3.008.21-3.254-.386-.148-.417-.52-.078-.918 1.215-1.398-.863-3.168-2.539-2.156m20.23-.125c0 .13-.113.281-.253.332-.14.055-.254.176-.254.27 0 .093-.3.61-.672 1.144-.371.535-.676 1.067-.676 1.18 0 .117-.078.21-.172.21s-.246.192-.332.423c-.09.234-.238.422-.332.422-.097 0-.175.265-.175.59v.59h2.527V41.3h1.52v-.926c0-.816.038-.93.335-.93.262 0 .34-.113.34-.504 0-.394-.078-.507-.34-.507-.32 0-.336-.114-.336-2.192V34.05h-.59c-.39 0-.59.078-.59.234M150 36.535c-.91.137-1.02.727-.191 1.028.636.23 1.007 1.44.554 1.8-.117.09-.265.301-.328.461-.074.2-.289.297-.664.297-.668 0-1.125.543-.793.941.469.563 2.012-.035 2.012-.773 0-.355.48.145.539.559.137.98 1.98.265 1.988-.77 0-.516-.187-.594-.504-.21-.394.472-.64.28-.761-.602-.137-1.012.175-1.446 1.12-1.536.856-.082.876-1.203.02-1.289-.379-.035-.582.032-.652.215-.055.145-.2.262-.317.262s-.257.16-.308.355c-.117.461-.395.278-.535-.359-.114-.516-.153-.527-1.18-.379m15.254.887v1.012h-.672c-.762 0-.816-.114-.34-.692.184-.219.395-.48.473-.57.074-.094.187-.3.25-.465.203-.531.289-.312.289.715M131 37.289c.223.223.281.977.078.977-.07 0-.234.234-.36.523-.468 1.055-1.573 1.922-1.777 1.395-.132-.352.059-1.41.258-1.41.082 0 .149-.106.149-.235 0-.223 1.148-1.453 1.355-1.453.05 0 .188.09.297.203m2.863 1.063c.282 1.312-.375 1.992-1.605 1.664-.38-.102-.403-1.336-.031-1.582.07-.047.175-.356.238-.688l.113-.605.57.27c.454.21.602.405.715.94m21.446.169v.421h5.566v-.843h-5.566zm-34.051 28.574v1.851h1.012v-2.863h28.152v1.434c0 1.414.004 1.43.422 1.43h.422v-3.708h-30.008zm31.187 0v1.851h1.012v-2.863h8.766v2.863h1.011v-3.707h-10.789zm19.89 0v1.851h1.013v-2.863h26.464v1.434c0 1.414.008 1.43.422 1.43h.422v-3.708h-28.32zm29.5 0v1.851h1.012v-2.863h8.765v2.863h1.012v-3.707h-10.79zm-78.753 2.539c-.34.367-.707.933-.812 1.254-.106.324-.258.59-.336.59s-.196.32-.258.714c-.067.395-.207.77-.313.836-.27.172-.261 6.23.008 6.555.106.133.246.523.313.871.066.348.18.629.254.629s.187.234.25.52c.062.285.218.558.351.609.129.047.238.18.238.285 0 .11.168.348.38.531l.378.332-1.562.051-1.559.047v1h18.266l-.34.379c-.188.207-.39.512-.445.672-.06.164-.18.297-.266.297-.09 0-.211.226-.274.504-.058.28-.167.507-.242.507-.07 0-.23.473-.347 1.055-.118.578-.282 1.125-.36 1.211-.183.203-.191 5.152-.011 5.152.074 0 .222.508.328 1.133.109.625.277 1.164.375 1.195.093.032.175.157.175.27 0 .121.153.39.336.606.188.21.336.46.336.55 0 .246.825.965 1.106.965.433 0 .207-.902-.371-1.484a.88.88 0 0 1-.227-.535c0-.172-.078-.34-.172-.371-.21-.07-.5-1.774-.5-2.954-.004-.48-.078-.921-.172-.976-.093-.059-.168-.555-.168-1.106 0-.554.075-1.004.168-1.004s.168-.398.172-.882c0-1.168.313-3.063.512-3.133a.25.25 0 0 0 .16-.223c0-.09.188-.414.422-.719.23-.304.422-.68.422-.832 0-.257.945-.277 12.05-.277 12.024 0 12.055 0 12.055.344 0 .187.16.511.356.715.418.433.824 1.316.824 1.785 0 .18.094.363.211.398.16.055.21 1.024.21 4.09 0 3.063-.05 4.035-.21 4.086-.117.04-.211.195-.211.352 0 .359-.855 2.05-1.039 2.05-.078 0-.14.153-.14.34 0 .742 1.28-.035 1.69-1.027.114-.27.266-.492.34-.492.07 0 .184-.246.25-.547.063-.301.176-.625.25-.715.637-.8.626-8.348-.011-8.348-.074 0-.184-.226-.246-.504-.059-.277-.172-.504-.246-.504s-.184-.187-.243-.418c-.054-.226-.378-.683-.718-1.011l-.614-.594h5.965l-.343.367c-.188.203-.344.469-.344.59s-.067.223-.153.223c-.207 0-.789 1.144-.94 1.86-.071.32-.216.636-.317.702-.286.18-.266 6.617.02 6.903.116.117.21.363.21.554 0 .41.84 2.117 1.04 2.117.077 0 .14.102.14.223 0 .285.77.957 1.097.957.356 0 .313-.55-.082-1.027a55 55 0 0 1-.468-.574c-.203-.254-.547-1.5-.547-1.989 0-.234-.086-.457-.196-.492-.277-.094-.28-6.406-.003-6.5.109-.035.199-.27.199-.516.004-.69.347-1.78.61-1.933.128-.074.234-.234.234-.36 0-.124.113-.269.253-.324.137-.054.25-.25.25-.441 0-.34.051-.34 12.055-.34h12.055v.422c0 .234.148.555.336.71.183.161.336.38.336.493 0 .11.082.227.183.262.102.031.27.61.375 1.277.106.668.25 1.219.32 1.219.075 0 .133 1.328.133 2.95 0 1.855-.062 2.948-.168 2.948-.093 0-.167.196-.167.43 0 .633-.356 1.93-.528 1.93-.082 0-.148.101-.148.226s-.153.403-.336.617c-.395.454-.446 1.012-.094 1.012.297 0 1.106-.723 1.106-.988 0-.106.07-.192.156-.192s.254-.265.37-.59c.118-.324.266-.59.329-.59.066 0 .172-.284.234-.632.067-.348.207-.738.317-.867.265-.324.273-6.555.008-6.727-.102-.066-.239-.402-.301-.75-.067-.347-.184-.633-.266-.633s-.2-.226-.258-.507c-.062-.278-.402-.829-.761-1.22l-.645-.718 18.18-.086v-1.008l-1.477-.015c-.812-.008-1.379-.051-1.265-.098.117-.047.21-.168.21-.27 0-.097.114-.304.25-.457.461-.507 1.098-1.867 1.208-2.582.062-.39.191-.761.285-.824.234-.148.234-5.43.004-5.73-.094-.121-.266-.66-.38-1.192-.116-.535-.273-.968-.35-.968-.083 0-.196-.235-.259-.52-.062-.285-.218-.559-.351-.61-.13-.046-.235-.163-.235-.257 0-.293-.746-.969-1.078-.973-.367-.004-.281.906.117 1.242.395.332.762 1.047.887 1.723.067.363.203.711.309.777.258.168.258 7.008 0 7.176-.106.067-.242.48-.309.922-.062.441-.187.8-.273.8-.09 0-.16.106-.16.235 0 .13-.188.414-.418.633s-.422.531-.422.691c-.004.27-.235.297-2.45.297-2.285 0-2.44-.023-2.44-.32 0-.176-.114-.363-.255-.418a.41.41 0 0 1-.254-.352c0-.144-.066-.261-.144-.261-.082 0-.246-.36-.367-.797-.121-.442-.301-.856-.403-.922-.242-.16-.25-8.02-.008-8.187.094-.067.266-.493.383-.946.13-.492.38-.953.63-1.148.421-.332.581-1.149.23-1.149-.293 0-1.438 1.215-1.582 1.68a1.9 1.9 0 0 1-.36.645.84.84 0 0 0-.23.52c0 .16-.074.362-.16.452-.641.645-.66 7.754-.02 8.164.074.047.188.336.254.637.066.3.172.547.234.547s.223.242.352.543c.133.297.43.715.656.926l.418.386-2.848-.015c-1.566-.008-2.753-.051-2.64-.098.117-.047.21-.176.21-.285 0-.113.153-.332.34-.492.184-.157.337-.39.337-.52 0-.129.109-.324.242-.437.133-.11.293-.442.355-.735.063-.297.184-.62.266-.722.515-.645.496-7.454-.02-7.625-.093-.032-.168-.168-.168-.305 0-.371-.843-2.086-1.023-2.086-.086 0-.16-.098-.16-.223 0-.308-.719-.957-1.063-.957a.287.287 0 0 0-.285.285c0 .305.684 1.399.875 1.403.063 0 .207.437.324.969.118.53.293 1.023.395 1.09.238.163.246 7.007.004 7.175-.094.067-.262.563-.371 1.102-.149.73-.328 1.09-.711 1.426-.285.246-.516.585-.516.75 0 .285-.578.3-11.21.3-11.099 0-11.208-.004-11.208-.34 0-.183-.07-.335-.156-.335-.184 0-1.024-1.715-1.024-2.082 0-.137-.097-.282-.21-.32-.286-.095-.31-8-.028-8.18.106-.067.238-.407.305-.754.062-.348.187-.633.277-.633.086 0 .16-.102.16-.227s.153-.363.336-.531c.36-.324.465-1.098.153-1.098-.293 0-1.438 1.215-1.582 1.68a1.9 1.9 0 0 1-.36.645.84.84 0 0 0-.23.52c0 .16-.074.366-.164.452-.57.57-.672 6.715-.13 7.805.145.293.313.758.376 1.035.062.281.164.508.226.508.063 0 .207.207.32.465.114.254.4.672.637.925l.434.465h-13.516l.43-.465a3.4 3.4 0 0 0 .61-1.011c.101-.301.245-.547.324-.547.078 0 .195-.246.257-.547.067-.3.184-.633.262-.73.664-.829.598-6.602-.094-7.926-.14-.27-.257-.625-.257-.785 0-.164-.067-.297-.149-.297-.086 0-.2-.18-.254-.407-.117-.468-1.289-1.785-1.59-1.785-.109 0-.199.227-.199.508 0 .277.07.504.156.504s.207.152.266.336c.059.187.219.45.36.59.136.137.296.539.351.887.055.347.184.687.285.753.281.184.254 7.582-.027 7.676-.117.04-.211.219-.211.403 0 .433-.82 2.168-1.024 2.168-.085 0-.156.152-.156.335 0 .325-.113.34-2.527.34-2.418 0-2.531-.015-2.531-.34 0-.183-.07-.335-.157-.335-.18 0-1.023-1.715-1.023-2.082 0-.137-.094-.282-.211-.32-.281-.095-.305-8-.023-8.18.101-.067.238-.407.304-.754.063-.348.188-.633.278-.633.085 0 .16-.102.16-.227s.152-.363.336-.531c.359-.324.464-1.098.148-1.098-.289 0-1.434 1.215-1.578 1.68-.074.227-.234.516-.363.645a.86.86 0 0 0-.23.52c0 .16-.071.366-.16.452-.571.57-.673 6.715-.13 7.805.145.293.313.758.375 1.035.059.281.16.508.223.508.062 0 .207.207.32.465.117.254.402.672.64.925l.43.465h-2.699c-2.91 0-3.039-.054-2.176-.894.172-.164.313-.41.313-.547 0-.133.07-.246.16-.246s.254-.32.367-.715c.114-.395.274-.809.356-.918.082-.11.195-.777.25-1.48.05-.704.16-1.32.238-1.368.188-.117.188-1.925 0-1.925-.078 0-.187-.618-.238-1.372-.051-.753-.164-1.418-.246-1.476-.086-.055-.254-.461-.375-.902-.121-.442-.286-.801-.368-.801-.078 0-.144-.117-.144-.258a.42.42 0 0 0-.254-.356c-.14-.054-.254-.187-.254-.3 0-.297-.73-.942-1.062-.942-.489 0 .007 1.407.582 1.657.07.027.218.484.336 1.011.113.528.289 1.012.386 1.078.258.172.243 6.696-.015 7.23-.11.224-.282.77-.387 1.216-.117.504-.375.996-.688 1.3-.277.27-.5.606-.5.75 0 .227-1.335.258-12.054.258-12 0-12.051-.004-12.051-.343 0-.188-.117-.387-.254-.438-.14-.055-.254-.187-.254-.297s-.156-.5-.344-.867c-.191-.367-.39-1.027-.445-1.469-.055-.441-.164-.8-.246-.8-.078 0-.144-1.329-.144-2.95 0-1.625.066-2.953.148-2.953.078 0 .195-.453.262-1.012.062-.554.18-1.007.257-1.007.082 0 .2-.23.262-.508.059-.281.254-.586.434-.68.367-.2.46-1.18.113-1.164-.117.004-.492.309-.832.676m41.836 6.648v.59h5.562v-1.18h-5.562zm-52.227 6.953.055.461h5.227l.05-.46.055-.465h-5.441zm-26.941.461c-.305.79-.734.766 12.45.72l12.355-.044v-.844l-12.356-.043c-10.875-.035-12.363-.011-12.449.211m26.91 1.266c0 .324.113.336 2.7.336 2.581 0 2.695-.012 2.695-.336s-.114-.336-2.696-.336c-2.586 0-2.699.012-2.699.336m23.602 16.016v1.855h61.36v-3.71h-1.18v2.866h-59v-2.867h-1.18zm-20.598 18.253c-.227.211-.523.63-.656.926-.13.301-.285.543-.348.543-.058 0-.156.266-.219.59-.058.324-.168.59-.242.59-.629 0-.66 8.023-.031 8.426.074.047.191.336.254.636.066.301.183.547.258.547.074 0 .183.184.238.407.055.226.336.644.621.93l.52.519h-1.614c-1.59 0-1.617.004-1.617.402 0 .629-1.601.606 42.16.606h41.621v-1.008h-2.734l.246-.383c.137-.207.352-.566.484-.8.13-.231.278-.458.329-.505.336-.304.879-2.082.957-3.14.05-.684.16-1.243.238-1.243s.144-.53.144-1.18c0-.675-.07-1.179-.168-1.179-.093 0-.167-.293-.167-.648 0-.871-.348-2.555-.532-2.555-.078 0-.144-.18-.144-.395 0-.218-.153-.57-.336-.785-.188-.215-.336-.465-.336-.558 0-.274-1.047-1.13-1.383-1.13-.191 0-.305.126-.305.34 0 .184.067.337.153.337.195 0 1.027 1.41 1.027 1.742 0 .14.07.277.156.308.598.215.614 8.86.02 9.243-.074.046-.188.332-.254.632-.063.301-.188.547-.277.547-.086 0-.23.192-.32.422-.087.23-.239.422-.333.422s-.172.113-.172.254c0 .222-1.656.254-13.89.254h-13.887l-.11-.574c-.058-.317-.218-.618-.355-.672a.41.41 0 0 1-.246-.352c0-.14-.07-.258-.156-.258-.184 0-.52-1.468-.52-2.285 0-.32-.074-.582-.168-.582-.105 0-.168-.953-.168-2.527s.063-2.528.168-2.528c.094 0 .168-.261.168-.578 0-.761.356-2.289.535-2.289.079 0 .141-.097.141-.215s.152-.347.336-.504c.441-.378.457-1.136.023-1.136-.171 0-.457.199-.632.441a8 8 0 0 1-.504.637c-.102.11-.29.48-.414.824-.125.348-.282.629-.352.629-.066 0-.176.36-.242.8-.063.438-.2.852-.305.919-.262.168-.258 6 .004 6.168.102.066.242.441.309.836.066.394.191.714.273.714.086 0 .153.098.153.22 0 .312.398 1.128.55 1.128.07 0 .125.098.125.219 0 .117.172.363.38.547l.378.332-3.316.047c-1.825.023-4.848.023-6.72 0l-3.398-.047.442-.504c.715-.816.734-.852.96-1.625.118-.406.278-.781.356-.832.078-.055.184-.492.243-.973.054-.476.167-.87.25-.87.187 0 .187-4.337-.004-4.454-.079-.05-.196-.547-.262-1.105-.063-.56-.184-1.016-.266-1.016-.086 0-.203-.27-.265-.606-.063-.328-.22-.64-.344-.691-.129-.047-.234-.172-.234-.27 0-.39-.899-1.468-1.223-1.468-.39 0-.309.953.105 1.265.125.094.285.36.36.59.07.23.195.461.273.512.438.285.66 6.367.313 8.59-.18 1.144-.547 2.039-1.051 2.562-.16.168-.293.457-.293.64 0 .337-.113.34-16.86.34-15.074 0-16.855-.027-16.855-.261a.85.85 0 0 0-.172-.465c-.683-.808-.816-1.043-.922-1.597-.066-.344-.207-.68-.312-.747-.266-.164-.278-8.183-.016-8.359.102-.066.281-.48.403-.922.12-.437.285-.8.367-.8s.144-.114.144-.254c0-.145.117-.305.254-.36.14-.05.254-.238.254-.414 0-.441-.527-.41-1.043.066m-46.328 14.618v13.316h3.71v-1.012h-2.698v-24.777h1.351c1.324 0 1.348-.008 1.348-.422v-.422h-3.711zm29.84-12.895c0 .414.023.422 1.347.422h1.348v24.777h-2.695v1.012h3.875v-26.633h-3.875zm19.176 1.043c-.165.043-.297.137-.297.215 0 .074-.153.176-.336.223-.496.129-.43.625.082.625h.422v2.492c0 2.297-.024 2.511-.336 2.734-.696.5-.41.672 1.097.672 1.16 0 1.43-.047 1.43-.25 0-.14-.074-.254-.168-.254-.707 0-.844-.586-.844-3.625v-2.95l-.379.02a4 4 0 0 0-.671.098m4.21.871c-.253.54-.46 1.07-.46 1.176 0 .11-.079.195-.168.195-.645 0-.09.64.625.723.437.047.824.172.855.273a.3.3 0 0 0 .27.184c.336 0 .945.957.945 1.484 0 .582-.512 1.102-1.047 1.055-1.894-.164-2.34.04-1.824.832.605.941 3.715-.293 3.715-1.473 0-.21.074-.379.168-.379.093 0 .168-.23.168-.507 0-.278-.075-.504-.168-.504s-.168-.149-.168-.332c0-.535-.364-1.172-.735-1.29a1.8 1.8 0 0 1-.578-.34.9.9 0 0 0-.566-.23c-.965 0-.203-.593.828-.64.781-.04 1.05-.114 1.05-.297 0-.133.075-.242.169-.242.093 0 .168-.153.168-.34 0-.309-.11-.336-1.391-.332l-1.39.004zm18.208-.457c-.563.672-.633 1.492-.125 1.492.183 0 .335-.07.335-.156 0-.668 1.41-.926 1.903-.348.3.352.406 1.516.14 1.516-.082 0-.199.188-.257.414-.055.23-.672.977-1.364 1.656-1.882 1.848-1.824 1.973.907 1.973h2.168l.105-.629a8 8 0 0 0 .106-.844c.003-.296-.665-.261-.782.043-.066.18-.351.254-1.004.254-1.02 0-1.105-.125-.472-.699.441-.402.754-.73 1.289-1.36.16-.19.34-.6.394-.913.059-.313.176-.57.258-.57s.149-.227.149-.505c0-.277-.075-.507-.168-.507s-.168-.133-.172-.293c-.024-1.141-2.563-1.532-3.41-.524m5.515-.137c-.937 1.079-1.004 1.286-1.004 3.196 0 1.207.067 1.86.196 1.937.109.07.246.313.308.543.492 1.91 3.445 1.2 3.73-.894.06-.438.176-.793.255-.793.082 0 .144-.418.144-.926 0-.512-.066-.93-.148-.93s-.2-.34-.262-.754c-.238-1.59-2.27-2.457-3.219-1.379m20.11-.007c-.766.453-.82.793-.13.793h.508v2.527c0 2.344-.023 2.543-.335 2.738-.708.442-.395.633 1.011.633 1.086 0 1.348-.047 1.348-.25 0-.14-.106-.254-.234-.254-.391 0-.442-.406-.442-3.555v-3.02l-.547.009c-.3.004-.832.175-1.18.379m5.149-.051c-.05.187-.148.34-.219.34-.074 0-.18.199-.242.441s-.223.55-.355.684c-.559.558-.313 1.18.515 1.293.793.109 1.77.87 1.77 1.379 0 .136.074.246.168.246.23 0 .21.3-.043.609-.668.82-.84.938-1.196.82-1.402-.457-2.027-.129-1.464.762.203.32 2.218.352 2.324.04.039-.114.148-.208.246-.208 1.176 0 1.512-2.992.453-4.074-.371-.379-.836-.664-1.203-.73-1.117-.212-.66-.758.633-.758 1.101 0 1.261-.11 1.261-.856 0-.504-2.52-.492-2.648.012m17.988-.227c-.312.086-.844.98-.844 1.422 0 .363.418.438.625.11.508-.813 1.735-.813 1.735 0 0 .117.094.214.21.214.15.004.157.04.024.13-.101.066-.242.288-.304.495-.067.215-.36.457-.696.582-.586.211-.804.645-.328.645.438 0 1.41.742 1.516 1.152.25 1-.414 1.496-1.594 1.196-.914-.235-1.355-.133-1.355.304.015 1.344 3.101 1.07 3.746-.332.117-.254.27-.465.34-.465s.128-.34.128-.757c0-.418-.07-.758-.156-.758s-.207-.227-.266-.508c-.062-.277-.21-.504-.328-.504-.16 0-.129-.184.114-.676.843-1.703-.446-2.832-2.567-2.25m-41.691.696c.644.414.734 4.761.11 5.222-.509.371-.9.254-1.009-.3-.058-.278-.168-.547-.25-.598-.207-.13-.187-3.106.024-3.106.09 0 .168-.156.168-.347 0-.762.465-1.184.957-.871m-84.024.488c-.34.137-.242.562.125.562q.34-.002.34.336c0 .188-.07.336-.152.336s-.195.25-.25.551c-.102.531-.133.547-.961.559-.473.007-.906.082-.969.168s-.304.254-.535.375c-.508.261-1.152 1.207-1.289 1.894-.055.277-.168.5-.25.5-.25 0-.16.79.148 1.336.372.652 1.457.734 2.25.172l.489-.352v.352c0 .453 1 .492 1.386.05.47-.53.54-1.054.145-1.054-.191 0-.352-.074-.352-.168 0-.09.07-.168.157-.168.082 0 .242-.531.351-1.18.11-.648.258-1.18.328-1.18.075 0 .184-.32.246-.706.063-.39.18-.79.258-.887.078-.098.196-.5.258-.89l.121-.72-.816.016c-.45.004-.91.051-1.028.098m31.262.133c-.137.132-.445.293-.687.355-.657.164-.606.746.062.746h.508v2.414c0 2.489-.082 2.813-.707 2.813-.192 0-.305.125-.305.336 0 .312.114.34 1.516.34 1.406 0 1.52-.028 1.52-.34 0-.211-.114-.336-.305-.336-.649 0-.707-.297-.707-3.488 0-3.29-.106-3.63-.895-2.84m128.844.09c-.234.203-.524.425-.649.492-.421.242-.468 1.531-.05 1.531.199 0 .359-.094.359-.215 0-.738 1.324-1.066 1.887-.465.734.79.3 1.848-1.508 3.676-1.781 1.8-1.734 1.895.96 1.895h2.184l.114-.59c.058-.324.176-.59.261-.59.083 0 .149-.117.149-.254 0-.34-.832-.332-1.082.012-.145.195-.43.25-1.113.21l-.922-.054.937-.941c1.078-1.079 1.672-2.172 1.672-3.082 0-1.434-2.164-2.532-3.2-1.625m5.31-.223c-.41.11-1.434 1.187-1.434 1.512 0 .34.566.28 1.012-.106.539-.469 1.14-.437 1.375.07.265.586.043 1.254-.496 1.489-.739.324-.961.8-.375.8.187 0 .34.075.34.168s.1.168.226.168c.598 0 1.176 1.641.64 1.817a1.5 1.5 0 0 0-.437.305c-.27.27-.598.316-.598.085 0-.214-.93-.402-1.347-.27-.38.122-.45.583-.137.895.617.618 3.504.004 3.504-.742a.32.32 0 0 1 .207-.277c.285-.094.289-2.18.004-2.277a.34.34 0 0 1-.211-.293c0-.125-.086-.254-.191-.29-.145-.05-.145-.156 0-.425.832-1.551-.383-3.082-2.083-2.63m-152.644.286c0 .125-.191.582-.422 1.02-.23.433-.422.937-.422 1.12 0 .18-.074.329-.168.329a.167.167 0 0 0-.168.168c0 .094.309.168.688.168.375 0 .789.093.922.21.129.118.464.4.746.626 1.191.965.398 2.656-.977 2.082-.765-.32-1.379-.168-1.379.34 0 1.363 2.656 1.023 3.68-.473.781-1.137.02-3.625-1.11-3.629-.117 0-.21-.074-.21-.168s-.2-.168-.442-.168c-.328 0-.414-.066-.336-.266.059-.148.102-.3.102-.34 0-.038.488-.07 1.078-.07.973 0 1.086-.035 1.176-.379.21-.78.18-.8-1.324-.8-1.09 0-1.434.054-1.434.23m107.043.95v1.179h-2.36v1.012h2.36v1.183c0 1.145.012 1.176.422 1.176s.422-.031.422-1.176v-1.183h2.191v-1.012h-2.191v-1.18c0-1.144-.012-1.18-.422-1.18s-.422.036-.422 1.18m-56.766-.054c-.347.14-.238.52.184.625.7.175.965 1.191.582 2.242-.215.594-.246.613-1.102.562-.523-.027-.55 0-.55.57 0 1.008 1.543.946 1.808-.07.11-.422.555-.578.555-.195 0 .457.488 1.043.867 1.043.406 0 1.492-1.031 1.492-1.418 0-.352-.457-.344-.812.016-.266.265-.293.234-.453-.493-.094-.43-.22-.828-.282-.89-.25-.246.598-.926 1.157-.926.527 0 .558-.031.558-.59 0-.77-1.074-.89-1.605-.183-.305.406-.754.273-.754-.223 0-.184-1.238-.234-1.645-.07m48.633 0c-.434.12-.355.507.129.628.23.06.418.22.418.36 0 .137.078.246.172.246.226 0 .215 1.3-.012 1.441-.101.063-.242.274-.316.473-.102.273-.278.363-.703.363-.782 0-.899 1.14-.13 1.23.438.052 1.497-.777 1.497-1.171 0-.324.476.312.531.715.129.902 1.996.093 1.996-.867 0-.41-.476-.434-.77-.032-.292.403-.382.262-.507-.82-.13-1.11.137-1.5 1.035-1.5.586 0 .953-.547.672-1-.254-.406-1.707-.137-1.832.344-.113.441-.414.402-.48-.059-.055-.387-.919-.566-1.7-.351m-86.773 1.488v1.097H86.53v1.012h2.192v1.18c0 1.144.011 1.18.422 1.18.41 0 .421-.036.421-1.172v-1.172l1.137-.05c1.09-.048 1.14-.071 1.14-.474s-.05-.421-1.14-.472l-1.137-.047v-1.09c0-1.047-.015-1.086-.421-1.086-.407 0-.422.04-.422 1.094m-7.668-.297c-.778.113-1.067.719-.348.719.336 0 .45.12.59.633.398 1.433 0 2.226-1.129 2.23-.512.004-.547.04-.547.594 0 .847 1.344.918 1.711.086.27-.61.648-.805.648-.336 0 .183.075.332.168.332s.168.117.168.254c0 .175.176.254.567.254.617 0 1.457-.797 1.457-1.383 0-.422-.61-.395-.723.031-.148.566-.422.379-.547-.379-.066-.39-.207-.773-.308-.844-.133-.09-.102-.183.105-.304.16-.094.293-.282.293-.418 0-.258.14-.297.895-.246.453.027.472 0 .422-.618-.063-.77-.817-.89-1.473-.238-.367.371-.688.344-.688-.062 0-.211-.398-.457-.644-.403-.063.012-.34.059-.617.098m51.496.55v.505h5.566v-1.012h-5.566zm22.254 0v.504h5.562v-1.012h-5.562zm-91.57.695c.035.402-.06.707-.301.984-.192.223-.391.57-.442.774-.101.398-.824.82-1.11.644-.26-.16-.05-1.609.27-1.843.145-.106.27-.262.27-.34 0-.227.883-.93 1.082-.863.098.03.203.32.23.644m154.11.652v.508h5.566v-1.011h-5.566zm-112.102 5.563c0 .324.113.34 2.7.34 2.581 0 2.695-.016 2.695-.34 0-.32-.114-.336-2.696-.336-2.586 0-2.699.016-2.699.336m93.727 0c0 .324.113.34 2.699.34s2.695-.016 2.695-.34c0-.32-.11-.336-2.695-.336s-2.7.016-2.7.336m-141.937.844v.504h11.125v-1.008H57.031zm16.86 0v.504h24.441v-1.008h-24.44zm132.867-.043.05.465 35.485.085v-1.011h-35.59zm-101.516 1.055c0 .325.113.336 2.7.336 2.581 0 2.695-.011 2.695-.336 0-.324-.114-.336-2.696-.336-2.586 0-2.699.012-2.699.336m93.727 0c0 .325.113.336 2.699.336s2.695-.011 2.695-.336c0-.324-.11-.336-2.695-.336s-2.7.012-2.7.336m-30.023.946c-.382.113-.71.804-.578 1.226.117.367.43.496.43.176 0-.59.922-.863 1.094-.324.172.535-.059.992-.946 1.87-1.191 1.188-1.129 1.333.59 1.333 1.324 0 1.418-.024 1.516-.379.168-.633.12-.8-.23-.8-.188 0-.34.073-.34.167s-.149.168-.336.168c-.391 0-.454-.304-.09-.441.136-.055.34-.356.457-.672.113-.313.265-.574.34-.574.285 0 .12-1.024-.215-1.36-.348-.347-1.176-.539-1.692-.39m69.387.336c-.45.449-.516 1.078-.129 1.207.117.035.297-.13.406-.368.239-.52.383-.539.844-.113.469.442.305.871-.715 1.856-1.21 1.164-1.136 1.363.524 1.363 1.234 0 1.347-.027 1.347-.336 0-.187.075-.34.168-.34s.168-.113.168-.254c0-.14-.148-.25-.336-.25-.187 0-.34.074-.34.168s-.187.168-.417.168c-.579 0-.543-.125.273-.976 1.336-1.395-.43-3.489-1.793-2.125m-98.383.968c-.328.297-.699.786-.832 1.086-.133.297-.293.543-.355.543-.063 0-.168.246-.235.547-.062.3-.18.586-.254.637-.628.402-.605 8.422.028 8.422.062 0 .164.265.226.594.059.324.18.585.27.585s.16.106.16.23c0 .321 1.328 1.794 1.617 1.794.297 0 .313-.613.028-.934-.52-.578-.618-.754-.82-1.445-.122-.406-.298-.793-.395-.86-.258-.175-.242-8.195.02-8.355.109-.066.25-.41.316-.762.066-.351.21-.73.32-.843.11-.11.25-.332.312-.496.06-.16.188-.297.286-.297.203 0 .234-.782.035-.907-.074-.043-.403.16-.727.461m24.969-.101c0 .254.191.683.422.953.234.27.422.586.422.703s.074.238.164.27c.207.07.512 1.625.512 2.609 0 .402.074.734.167.734.102 0 .168.758.168 1.938s-.066 1.937-.168 1.937c-.093 0-.167.282-.167.621 0 .915-.352 2.75-.524 2.75-.086 0-.152.086-.152.192 0 .105-.192.367-.422.582-.563.523-.594 1.328-.043 1.156.21-.066.496-.27.633-.453a10 10 0 0 1 .543-.648c.16-.172.34-.504.398-.739.059-.234.164-.425.234-.425s.227-.473.344-1.055c.121-.578.301-1.156.403-1.285.238-.305.238-5.391 0-5.551-.094-.063-.27-.559-.387-1.098-.281-1.277-.606-1.87-1.563-2.851-.918-.934-.984-.957-.984-.34m44.629.191c-.344.348-.629.723-.629.832 0 .11-.078.2-.168.2-.094 0-.172.097-.172.214 0 .118-.156.504-.348.86-.187.355-.39 1.02-.44 1.472-.056.453-.165.825-.247.825-.078 0-.145 1.136-.145 2.527 0 1.39.067 2.531.149 2.531s.2.387.262.856c.062.472.261 1.136.441 1.476.18.336.328.672.328.75 0 .274 1.426 1.805 1.68 1.805.398 0 .101-1.11-.442-1.652-.125-.125-.226-.329-.226-.454s-.07-.25-.156-.28c-.204-.071-.516-1.966-.516-3.122 0-.484-.078-.922-.168-.98-.094-.059-.172-.555-.172-1.106 0-.555.078-1 .172-1 .09 0 .168-.433.168-.957 0-1.195.32-3.09.52-3.09.085 0 .152-.101.152-.226s.191-.45.422-.72c.386-.448.593-1.429.297-1.405-.07.007-.414.297-.762.644m25.105-.539c-.21.207-.113.86.141.957.14.055.254.18.254.285 0 .102.113.297.25.438.14.137.305.453.363.703.063.25.172.492.25.543.477.316.496 8.582.02 8.914-.078.055-.239.43-.356.836-.12.402-.402.906-.625 1.113-.457.426-.55 1.098-.152 1.098.348 0 1.406-1.113 1.531-1.617.055-.223.16-.407.234-.407s.184-.207.25-.46c.063-.254.18-.5.258-.551.645-.399.63-8.762-.011-8.762-.075 0-.184-.23-.243-.508-.062-.277-.171-.504-.25-.504-.074 0-.187-.199-.246-.445-.152-.602-1.441-1.863-1.668-1.633m-172.394.371c-.73.13-.946.696-.266.696.238 0 .434.074.434.168 0 .09-.067.167-.149.167-.078 0-.195.305-.254.676-.105.672-.109.672-.886.672-1.219 0-2.371.824-2.766 1.98-.101.301-.254.551-.34.551s-.156.38-.156.84c0 .465.074.844.168.844s.168.113.168.25c0 .527 1.883.527 2.086 0 .137-.355.387-.309.492.086.113.441 1.035.469 1.293.043.168-.281.184-.281.352 0 .28.469 1.507.348 1.507-.145 0-.129.079-.234.176-.234.094 0 .235-.164.309-.363.12-.328.16-.293.414.336.418 1.043 2.137.62 2.137-.52 0-.34-.504-.398-.805-.098-.285.286-.348.16-.473-.89-.129-1.11.137-1.5 1.028-1.5.656 0 .828-.192.683-.766-.156-.633-1.105-.578-1.672.094-.527.629-.562.625-.703-.023l-.117-.528-.906.11-.903.105.102-.55c.059-.302.164-.626.234-.716.07-.093.184-.453.25-.8.13-.7.012-.743-1.437-.485m13.023.602c-.941.976-.66 1.68.336.84.281-.235.621-.387.754-.336s.3.093.371.093c.617 0 .457 1.575-.183 1.778-.168.054-.309.172-.309.258s-.117.156-.254.156c-.14 0-.254.074-.254.168s.113.168.254.168c.137 0 .254.078.254.168 0 .094.152.172.34.172.2 0 .418.172.531.422.106.23.258.421.336.421.297 0 .121.707-.273 1.102-.407.406-1.274.574-1.274.246 0-.094-.3-.168-.672-.168-.554 0-.675.055-.675.324 0 1.485 2.898 1.094 3.925-.53.313-.493.399-1.817.121-1.817-.093 0-.168-.102-.168-.223s-.156-.387-.343-.59c-.192-.203-.27-.367-.176-.367.578 0 .574-2.336-.004-2.484-.176-.047-.32-.153-.32-.235 0-.457-1.782-.125-2.317.434m20.438-.246c-.059.187-.168.34-.246.34s-.223.226-.32.503c-.094.278-.255.508-.352.508-.098 0-.176.11-.176.242a.5.5 0 0 1-.215.38c-.113.074-.324.363-.46.64-.141.277-.348.566-.466.64a.52.52 0 0 0-.21.38c0 .136-.075.246-.169.246-.093 0-.168.265-.168.59v.59h2.7v1.683h1.347v-.84c0-.73.043-.844.336-.844.274 0 .336-.113.336-.59 0-.476-.062-.59-.336-.59-.32 0-.336-.113-.336-2.109v-2.105h-.578c-.433 0-.605.086-.687.336m-.082 2.867v1.012l-.801-.004c-.441 0-.727-.059-.633-.125.27-.2.867-1.11 1-1.52.219-.695.434-.383.434.637m-15.805-.723c-.559.106-.539.89.02.89.546 0 .793.349.824 1.169.035.867-.473 1.445-1.27 1.445-.828 0-.84 1.153-.015 1.23.52.051 1.41-.57 1.41-.984 0-.394.355-.11.449.36.18.906 1.43.89 1.953-.032.395-.691.371-.828-.129-.828-.23 0-.418.082-.418.18s-.078.133-.172.074c-.09-.058-.168-.285-.168-.504 0-.222-.074-.449-.168-.508-.207-.128-.222-.757-.02-.757.083 0 .188-.153.24-.34.07-.266.23-.336.788-.336.688 0 .7-.008.649-.547-.078-.809-.989-.887-1.668-.14-.582.64-.598.64-.723.015-.102-.527-.441-.61-1.582-.387m-16.73.637c0 .14.14.254.316.254.598 0 1.18 1.344.762 1.762-.13.129-.239.308-.239.398 0 .387-.437.52-1.144.34-.61-.156-.992-.477-.563-.477.078 0 .243-.57.36-1.265.187-1.102.508-1.735.508-1.012m78.816.18c-.27.265-.43.617-.43.925 0 .582.395.68.672.16.102-.183.293-.335.43-.335.133 0 .246-.078.246-.172 0-.274.312-.192.695.191.668.668.285 1.668-.738 1.922-.566.145-.617.586-.066.586.87 0 1.695 1.262 1.304 1.996-.254.469-.754.594-1.46.36-1.067-.352-1.821.132-1.188.765 1.12 1.125 3.75.004 3.937-1.68.102-.894-.23-2.113-.574-2.113-.305 0-.285-.258.043-.586.477-.472.496-1.457.04-1.988-.579-.664-2.263-.684-2.911-.031m20.316.058c-.191.27-.351.54-.351.598 0 .059-.192.312-.422.562-.234.25-.52.664-.633.922-.113.254-.266.465-.344.465-.074 0-.214.227-.312.504-.094.277-.242.504-.328.504-.082 0-.153.305-.153.676v.675h2.512l.05.801.052.797h1.351l.051-.797c.043-.664.106-.8.379-.8.262 0 .328-.122.328-.59 0-.48-.066-.594-.34-.594-.316 0-.336-.11-.336-2.106v-2.105h-.578c-.445 0-.656.11-.926.488m49.457-.074c-.257.258-.414.606-.414.926 0 .594.22.656.63.176.155-.184.386-.336.503-.336s.215-.078.215-.172c0-.352.438-.14.773.379.446.687.055 1.547-.78 1.734-.645.14-.641.516.003.645 1.102.218 1.691 1.464 1 2.109-.441.414-.574.43-1.309.176-1.105-.387-1.785.207-1.011.883.691.597 2.23.359 3.125-.485.742-.699 1.015-2.258.492-2.785-.148-.148-.27-.344-.27-.437 0-.09-.078-.192-.168-.223-.195-.063.16-1.152.375-1.152.383 0-.109-1.352-.625-1.723-.449-.324-2.12-.137-2.539.285m20.29.004c-.106.234-.25.422-.317.422-.07 0-.203.23-.3.508-.098.277-.259.504-.356.504-.098 0-.176.117-.176.261a.42.42 0 0 1-.246.352c-.137.05-.29.23-.344.394-.05.168-.246.473-.426.684q-.333.383-.332 1.117v.734h2.528v1.684h1.18v-.844c0-.824.011-.84.503-.84.47 0 .508-.046.508-.59 0-.542-.039-.593-.508-.593h-.504v-4.211h-.507c-.383 0-.559.105-.704.418m-170.609.535c-.055.469-.2.844-.36.934-.148.082-.273.25-.273.367 0 .433-.797.996-1.254.879-.394-.098-.629-.606-.28-.606.081 0 .202-.27.26-.597.063-.332.224-.641.36-.696.133-.05.242-.187.242-.304 0-.278.664-.743 1.075-.754.277-.008.308.086.23.777m24.149.477v.593h5.562v-1.183H85.52zm76.703 1.687v1.094h-.676c-.7 0-.824-.149-.465-.54.398-.425.973-1.3.973-1.476 0-.093.035-.172.082-.172s.086.493.086 1.094m69.789 0v1.094h-.676c-.785 0-.828-.156-.254-.91.234-.305.422-.606.422-.672 0-.106.371-.586.465-.602.023-.004.043.489.043 1.09m-85.594-.652c-.36.152-.23.554.21.668.231.058.423.21.423.34 0 .129.066.234.148.234.078 0 .192.227.246.504.14.71-.484 1.672-1.097 1.68-.989.015-1.239.382-.696 1.015.422.492.84.422 1.473-.25.652-.695.938-.746.938-.172 0 .383.406.762.816.762.094 0 .402-.234.687-.52.602-.601.688-1.164.18-1.164-.184 0-.336.075-.336.168 0 .68-.484.024-.586-.793-.14-1.128.074-1.398 1.125-1.398.621 0 .64-.02.64-.59 0-.793-.995-.87-1.784-.14l-.48.445-.098-.406c-.094-.407-1.2-.637-1.809-.383m69.707.008c-.469.125-.344.523.203.644.75.164.957 1.25.41 2.192-.21.37-.48.652-.593.62-.485-.12-.993.15-.993.528 0 .98.852 1.035 1.715.105l.637-.68.113.473c.25 1.043.762 1.157 1.66.368.618-.543.793-1.16.332-1.16-.144 0-.39.128-.547.285-.265.265-.292.218-.433-.758-.176-1.211-.004-1.551.773-1.551.801 0 1.352-.832.711-1.078-.633-.242-1.586-.05-1.586.32 0 .117-.117.258-.254.313q-.255.098-.253-.219c0-.469-.903-.66-1.895-.402m-63.848 1.738v.508h5.563v-1.012h-5.563zm69.621 0v.508h5.73v-1.012h-5.73zm26.13 19.207v3.047h.847l-.043-2.992c-.047-2.957-.05-2.993-.426-3.047l-.379-.055zm16.97-2.91c-.142.14-.15 5.324-.013 5.691.235.61.743.301.746-.449 0-.781.286-1.406.45-.992.05.125.234.351.41.5.172.148.316.351.316.449 0 .496 1.067.969 1.239.547.066-.168.085-.168.097 0 .016.246 2.203.308 2.203.062 0-.082.153-.187.34-.238.883-.23.211-2.14-.754-2.14-.144 0-.258-.07-.258-.153s-.191-.195-.421-.254c-.985-.25-.48-.66.671-.554 1.082.101 1.098.097 1.098-.313 0-.297-.094-.414-.328-.414-.18 0-.375-.074-.43-.168-.316-.508-2.039.113-2.215.8-.23.884.149 1.294 1.75 1.9 1.024.386.352.788-1.058.628-.457-.05-.762-.012-.8.102-.036.105-.208-.04-.384-.317-.176-.273-.36-.539-.41-.586-.566-.543-.55-.656.16-1.343.668-.641.832-1.16.41-1.301-.101-.035-.593.328-1.093.808l-.91.868-.051-1.621c-.047-1.61-.258-2.02-.766-1.512m6.629 2.922v3.035h.422c.418 0 .422-.012.422-1.492 0-1.688.238-2.121 1.125-2.02l.476.055.047 1.738.051 1.738.457-.05.457-.055.047-1.64c.05-1.7-.184-2.489-.742-2.489-.13 0-.23-.074-.23-.168s-.266-.168-.59-.168c-.325 0-.594.074-.594.168s-.114.168-.25.168c-.196 0-.254-.215-.254-.926 0-.879-.024-.93-.422-.93h-.422zm-30.676-2.391c-1.144.781-1.554 1.93-1.219 3.395.2.863.77 1.695 1.16 1.695.126 0 .223.074.223.168 0 .3 2.309.207 2.426-.098.254-.656.137-.746-.984-.746-1.926 0-2.868-2.027-1.52-3.277.477-.442.578-.469 2.016-.5.597-.012.851-.086.887-.27.12-.633-2.184-.922-2.989-.367M245.16 162c0 .094-.14.168-.316.168a.75.75 0 0 0-.508.23c-.332.399.156.618 1.133.5.808-.093.87-.078.87.258 0 .285-.1.36-.495.36-.274 0-.535.07-.586.152-.055.082-.305.203-.559.266-.8.199-1.11 1.87-.383 2.062.188.05.34.156.34.238 0 .223 1.418.18 1.649-.054.16-.157.203-.157.203 0 0 .113.152.203.34.203.359 0 .523-3.317.191-3.848-.332-.523-1.879-.965-1.879-.535m5.266.137c-.301.144-.547.328-.547.41s-.113.266-.25.402c-.16.164-.254.574-.25 1.13 0 1.237.133 1.589.687 1.835.27.117.489.27.489.34 0 .27 1.812.14 1.922-.137.265-.699-.493-1.097-1.047-.543-.157.156-.2.156-.2 0 0-.113-.105-.203-.226-.203-.715 0-1.059-1.531-.496-2.187.476-.559 2.07-.496 2.07.082 0 .23.063.422.14.422.075 0 .231.5.345 1.113.285 1.558 1.082 2.215 1.308 1.078.059-.281.168-.508.25-.508s.149-.094.149-.21c.003-1.212.625-1.688.66-.509.039 1.16 1.363 2.524 1.363 1.403 0-.18.062-.368.144-.414.079-.051.239-.66.36-1.36.117-.699.281-1.27.363-1.27.078 0 .145-.238.145-.527 0-.46-.047-.511-.38-.422-.21.055-.429.102-.491.106-.059 0-.16.375-.227.836-.156 1.148-.52 1.43-.672.52-.062-.376-.183-.68-.27-.68-.085 0-.152-.153-.152-.34 0-.246-.113-.336-.422-.336-.261 0-.421.094-.421.254 0 .137-.07.254-.157.254-.086 0-.25.414-.363.926-.258 1.148-.418 1.171-.562.085-.06-.464-.184-.843-.274-.843s-.164-.153-.164-.34c0-.316-.078-.356-.867-.402-.156-.008-.34-.075-.41-.145-.196-.195-.942-.11-1.547.18m8.43 0c-.301.144-.547.355-.547.468a.32.32 0 0 1-.211.282c-.684.226-.075 3.16.66 3.16.125 0 .226.074.226.168s.34.168.758.168.758-.059.758-.13c0-.07.172-.202.379-.292 1.14-.504.851-3.774-.336-3.79-.117-.003-.211-.077-.211-.171 0-.246-.84-.168-1.477.137m4.512-.149c0 .098-.265.18-.59.18h-.59v2.105c0 1.997.016 2.11.336 2.11.305 0 .336-.113.336-1.145 0-.633.07-1.218.157-1.308.086-.09.18-.348.21-.582.047-.356.157-.43.7-.473.586-.05.637-.094.59-.508-.055-.46-1.149-.82-1.149-.379m13.653 0c0 .082-.223.203-.493.262-.37.082-.523.23-.605.605-.059.27-.18.493-.262.493-.57 0 .098 2.496.711 2.656.172.043.313.148.313.23s.378.149.843.149c.461 0 .84-.07.84-.156s.137-.2.301-.254c.793-.25 1.047-2.094.43-3.137-.426-.719-2.078-1.395-2.078-.848m4.214.012c0 .094-.265.168-.59.168h-.59v5.922l.38-.05c.324-.048.386-.173.43-.856l.054-.801h.832c.457 0 .832-.074.832-.168s.11-.168.242-.168c.633 0 1.078-1.84.684-2.824-.383-.953-2.274-1.973-2.274-1.223m5.45.148c-1.36.696-1.465 3.899-.125 3.899.132 0 .238.074.238.168s.41.168.91.168c.914 0 1.113-.137 1.113-.774 0-.3-.949-.324-1.07-.027-.055.137-.133.152-.223.043a2 2 0 0 0-.476-.355c-.246-.137-.352-.395-.387-.965-.082-1.203.137-1.461 1.234-1.461.766 0 .922-.051.922-.297-.004-.645-1.21-.867-2.136-.399m3.652-.148c0 .094-.082.168-.184.168-.297 0-.988.73-.992 1.043 0 .156-.078.332-.172.39-.21.13-.222 1.044-.011 1.172.086.055.203.32.265.594.059.278.25.54.434.598.18.058.324.176.324.262 0 .085.379.156.844.156s.844-.067.844-.149.136-.187.304-.23c.84-.219 1.149-2.55.438-3.262-.782-.77-2.094-1.238-2.094-.742m4.215 0c0 .094-.266.168-.59.168h-.59v4.215h.422c.422 0 .422 0 .422-1.676 0-1.828.129-2.039 1.11-1.793.398.102.41.145.41 1.785 0 1.684 0 1.684.417 1.684.422 0 .422 0 .422-1.676 0-1.828.13-2.039 1.11-1.793.398.102.41.145.41 1.785 0 1.57.02 1.684.336 1.684s.336-.113.336-1.926v-1.93l-.489-.347c-.492-.352-1.367-.477-1.367-.2 0 .282-.746.344-1.125.098-.43-.281-1.234-.332-1.234-.078m-34.305.973c.945.691.598 2.441-.484 2.441-1 0-1.524-1.418-.825-2.23.286-.34.985-.45 1.31-.211m17.73-.028c.707.188.668 2.27-.04 2.403-.18.035-.382.148-.449.254-.09.136-.125.132-.129-.02 0-.117-.113-.21-.25-.21-.351 0-.593-.544-.593-1.325 0-1.008.472-1.367 1.46-1.102m4.653.563c.195.75.016 1.683-.348 1.816-.16.059-.34.18-.398.274-.067.101-.215.062-.375-.098-.149-.148-.352-.297-.457-.332-.27-.09-.223-2.008.05-2.188.551-.359 1.372-.078 1.528.528m9.164.066c.258.746-.047 1.797-.52 1.797-.144 0-.261.074-.261.16 0 .426-1.016-.449-1.114-.96-.316-1.676 1.356-2.56 1.895-.997m-45.453 1.274c0 .347-.711.675-1.223.562-.336-.074-.398-.644-.082-.77.563-.226 1.305-.109 1.305.208m37.793.558c-.387.387-.008.977.629.977.289 0 .351-.106.351-.59 0-.633-.527-.84-.98-.387"/></g></svg>