<?xml version="1.0" encoding="UTF-8"?>
<svg version="1.1" xmlns="http://www.w3.org/2000/svg" width="611" height="433">
<path d="M0 0 C201.63 0 403.26 0 611 0 C611 142.89 611 285.78 611 433 C409.37 433 207.74 433 0 433 C0 290.11 0 147.22 0 0 Z " fill="#668D84" transform="translate(0,0)"/>
<path d="M0 0 C57.75 0 115.5 0 175 0 C175 112.86 175 225.72 175 342 C181.58854236 336.25218987 181.58854236 336.25218987 187.87310791 330.24993992 C188.7564018 329.36863708 189.63969568 328.48733424 190.54975605 327.57932526 C191.50489569 326.62133382 192.45998838 325.66329557 193.41503906 324.70521545 C194.44880574 323.67188558 195.48279244 322.63877579 196.51697826 321.60586542 C199.34014037 318.78492687 202.1601959 315.96090091 204.97972941 313.13633621 C208.02756074 310.08416969 211.0782988 307.03491091 214.12867737 303.98529053 C219.40729591 298.70719528 224.68408647 293.42727826 229.95962524 288.14610481 C237.58708813 280.51050056 245.21732443 272.8776727 252.84823143 265.24551063 C265.23004338 252.86151231 277.60962243 240.47528441 289.98779297 228.08764648 C302.00907937 216.05717524 314.03141995 204.02775907 326.05517578 191.99975586 C326.79683589 191.25783302 327.538496 190.51591019 328.30263066 189.75150485 C332.02348211 186.02934833 335.74435424 182.30721249 339.46523666 178.58508694 C370.31336633 147.72659756 401.15787053 116.86448632 432 86 C432.33 86.99 432.66 87.98 433 89 C431.83204365 90.77278233 431.83204365 90.77278233 430.03474426 92.70716858 C429.38287958 93.41430056 428.7310149 94.12143253 428.05939674 94.84999275 C424.88649382 98.16249886 421.69257795 101.44672501 418.4440918 104.68530273 C417.72451797 105.40662888 417.00494415 106.12795502 416.26356506 106.87113953 C413.91127273 109.22779336 411.55538935 111.58081789 409.19921875 113.93359375 C407.55477027 115.57871647 405.9104702 117.22398755 404.26631165 118.86940002 C400.83435524 122.30282528 397.40060999 125.73444861 393.96557617 129.16479492 C389.5558493 133.56879793 385.15066321 137.97731146 380.74678326 142.3871603 C377.35922903 145.7783191 373.96930784 149.16710369 370.57865334 152.55516243 C368.95235539 154.18079221 367.32680293 155.80716814 365.70200157 157.43429375 C363.44005125 159.69877176 361.17494096 161.9600398 358.90893555 164.22045898 C358.23516876 164.89625 357.56140198 165.57204102 356.86721802 166.26831055 C356.25193741 166.88077133 355.6366568 167.49323212 355.00273132 168.12425232 C354.20058213 168.92583598 354.20058213 168.92583598 353.3822279 169.74361324 C352 171 352 171 350 172 C377.39 172.33 404.78 172.66 433 173 C433 201.38 433 229.76 433 259 C404.95 259 376.9 259 348 259 C348 231.28 348 203.56 348 175 C347.34 175 346.68 175 346 175 C345.73760088 175.58743862 345.47520176 176.17487724 345.20485115 176.78011703 C343.93707886 179.11592932 342.60038113 180.64601505 340.72238159 182.51812744 C340.04649994 183.19675842 339.37061829 183.8753894 338.67425537 184.57458496 C337.93338684 185.30826294 337.19251831 186.04194092 336.42919922 186.79785156 C335.64862152 187.57872131 334.86804382 188.35959106 334.06381226 189.16412354 C331.48214955 191.74439273 328.89347442 194.31750522 326.3046875 196.890625 C324.51349081 198.67809165 322.72273512 200.46600032 320.93240356 202.2543335 C316.70039428 206.47948631 312.46396242 210.7001546 308.22535431 214.91868377 C302.0787205 221.03683155 295.94108689 227.16399719 289.80235291 233.29006958 C281.20725291 241.86577358 272.60275736 250.43194673 264 259 C291.39 259.33 318.78 259.66 347 260 C347 287.72 347 315.44 347 344 C318.62 344 290.24 344 261 344 C260.67 317.27 260.34 290.54 260 263 C254.17601562 268.8471875 248.35203125 274.694375 242.3515625 280.71875 C238.20194795 284.87987598 234.05170753 289.04037014 229.90055084 293.19995689 C224.51678482 298.59482464 219.13454083 303.99118361 213.7578125 309.39306641 C209.04856978 314.12433036 204.33416333 318.85039034 199.61649704 323.57325745 C197.81334195 325.38012103 196.01195418 327.18875001 194.21232986 328.99913025 C191.70034408 331.52553696 189.18226804 334.04571384 186.66259766 336.56445312 C185.91237839 337.32186295 185.16215912 338.07927277 184.38920593 338.8596344 C183.70491013 339.54118088 183.02061432 340.22272736 182.31558228 340.92492676 C181.72010401 341.52224861 181.12462574 342.11957047 180.51110268 342.73499298 C179 344 179 344 177 344 C167.61620783 372.15137652 175.34502501 403.32784953 175 433 C117.25 433 59.5 433 0 433 C0 290.11 0 147.22 0 0 Z " fill="#AFD1B5" transform="translate(0,0)"/>
<path d="M0 0 C29.37 0 58.74 0 89 0 C89 113.85 89 227.7 89 345 C59.63 345 30.26 345 0 345 C0 287.91 0 230.82 0 172 C-28.38 172 -56.76 172 -86 172 C-86.103125 157.913125 -86.20625 143.82625 -86.3125 129.3125 C-86.35802002 124.86821533 -86.40354004 120.42393066 -86.45043945 115.8449707 C-86.47302246 110.40856934 -86.47302246 110.40856934 -86.47721863 107.86174011 C-86.48488546 106.08689607 -86.5024484 104.31207772 -86.52787781 102.53739929 C-86.56451859 99.84519373 -86.56952913 97.15457602 -86.56762695 94.4621582 C-86.58561749 93.67446958 -86.60360804 92.88678095 -86.62214375 92.07522297 C-86.58707571 88.36353164 -86.30031332 86.3724026 -83.9445343 83.4511261 C-82.48698982 82.23781868 -82.48698982 82.23781868 -81 81 C-79.80846482 79.83012327 -78.62866636 78.64823014 -77.45773315 77.45773315 C-51.63848877 51.63848877 -25.81924438 25.81924438 0 0 Z " fill="#FFFFFF" transform="translate(522,0)"/>
<path d="M0 0 C56.76 0 113.52 0 172 0 C170.02 2.31 168.04 4.62 166 7 C164.93380597 8.287842 163.87252686 9.57979984 162.82006836 10.87889099 C152.59662671 23.41309408 141.97722662 35.55790341 131 47.4375 C130.13177612 48.37795166 129.26355225 49.31840332 128.36901855 50.28735352 C107.03799907 73.17965981 88.33877637 90.65415912 56.12036133 92.67979431 C37.20527375 93.04355004 18.75882269 89.46826614 0 87 C0 58.29 0 29.58 0 0 Z " fill="#FEFEFE" transform="translate(0,346)"/>
<path d="M0 0 C28.38 0 56.76 0 86 0 C86 28.38 86 56.76 86 86 C57.62 86 29.24 86 0 86 C0 57.62 0 29.24 0 0 Z " fill="#FFFFFF" transform="translate(1,173)"/>
<path d="M0 0 C28.38 0 56.76 0 86 0 C86 28.38 86 56.76 86 86 C57.62 86 29.24 86 0 86 C0 57.62 0 29.24 0 0 Z " fill="#FEFEFE" transform="translate(261,86)"/>
<path d="M0 0 C28.38 0 56.76 0 86 0 C86 28.38 86 56.76 86 86 C57.62 86 29.24 86 0 86 C0 57.62 0 29.24 0 0 Z " fill="#FFFFFF" transform="translate(1,86)"/>
<path d="M0 0 C28.38 0 56.76 0 86 0 C86 28.05 86 56.1 86 85 C57.62 85 29.24 85 0 85 C0 56.95 0 28.9 0 0 Z " fill="#FEFEFE" transform="translate(261,347)"/>
<path d="M0 0 C28.38 0 56.76 0 86 0 C86 28.05 86 56.1 86 85 C57.62 85 29.24 85 0 85 C0 56.95 0 28.9 0 0 Z " fill="#FFFFFF" transform="translate(1,260)"/>
<path d="M0 0 C28.05 0 56.1 0 85 0 C85 28.38 85 56.76 85 86 C56.95 86 28.9 86 0 86 C0 57.62 0 29.24 0 0 Z " fill="#FFFFFF" transform="translate(436,173)"/>
<path d="M0 0 C28.05 0 56.1 0 85 0 C85 28.38 85 56.76 85 86 C56.95 86 28.9 86 0 86 C0 57.62 0 29.24 0 0 Z " fill="#FEFEFE" transform="translate(88,173)"/>
<path d="M0 0 C28.05 0 56.1 0 85 0 C85 28.38 85 56.76 85 86 C56.95 86 28.9 86 0 86 C0 57.62 0 29.24 0 0 Z " fill="#FEFEFE" transform="translate(88,86)"/>
<path d="M0 0 C28.38 0 56.76 0 86 0 C86 28.05 86 56.1 86 85 C57.62 85 29.24 85 0 85 C0 56.95 0 28.9 0 0 Z " fill="#FFFFFF" transform="translate(261,0)"/>
<path d="M0 0 C28.38 0 56.76 0 86 0 C86 28.05 86 56.1 86 85 C57.62 85 29.24 85 0 85 C0 56.95 0 28.9 0 0 Z " fill="#FFFFFF" transform="translate(1,0)"/>
<path d="M0 0 C28.05 0 56.1 0 85 0 C85 28.05 85 56.1 85 85 C56.95 85 28.9 85 0 85 C0 56.95 0 28.9 0 0 Z " fill="#FEFEFE" transform="translate(348,347)"/>
<path d="M0 0 C28.05 0 56.1 0 85 0 C85 28.05 85 56.1 85 85 C56.95 85 28.9 85 0 85 C0 56.95 0 28.9 0 0 Z " fill="#FFFFFF" transform="translate(522,347)"/>
<path d="M0 0 C28.05 0 56.1 0 85 0 C85 28.05 85 56.1 85 85 C56.95 85 28.9 85 0 85 C0 56.95 0 28.9 0 0 Z " fill="#FFFFFF" transform="translate(436,347)"/>
<path d="M0 0 C28.05 0 56.1 0 85 0 C85 28.05 85 56.1 85 85 C56.95 85 28.9 85 0 85 C0 56.95 0 28.9 0 0 Z " fill="#FFFFFF" transform="translate(522,260)"/>
<path d="M0 0 C28.05 0 56.1 0 85 0 C85 28.05 85 56.1 85 85 C56.95 85 28.9 85 0 85 C0 56.95 0 28.9 0 0 Z " fill="#FFFFFF" transform="translate(436,260)"/>
<path d="M0 0 C28.05 0 56.1 0 85 0 C85 28.05 85 56.1 85 85 C56.95 85 28.9 85 0 85 C0 56.95 0 28.9 0 0 Z " fill="#AED0B4" transform="translate(348,260)"/>
<path d="M0 0 C28.05 0 56.1 0 85 0 C85 28.05 85 56.1 85 85 C56.95 85 28.9 85 0 85 C0 56.95 0 28.9 0 0 Z " fill="#FEFEFE" transform="translate(88,260)"/>
<path d="M0 0 C28.05 0 56.1 0 85 0 C85 28.05 85 56.1 85 85 C56.95 85 28.9 85 0 85 C0 56.95 0 28.9 0 0 Z " fill="#FFFFFF" transform="translate(348,0)"/>
<path d="M0 0 C28.05 0 56.1 0 85 0 C85 28.05 85 56.1 85 85 C56.95 85 28.9 85 0 85 C0 56.95 0 28.9 0 0 Z " fill="#FEFEFE" transform="translate(88,0)"/>
<path d="M0 0 C27.72 0 55.44 0 84 0 C84 28.38 84 56.76 84 86 C56.28 86 28.56 86 0 86 C0 57.62 0 29.24 0 0 Z " fill="#FEFEFE" transform="translate(176,173)"/>
<path d="M0 0 C27.72 0 55.44 0 84 0 C84 28.38 84 56.76 84 86 C56.28 86 28.56 86 0 86 C0 57.62 0 29.24 0 0 Z " fill="#FFFFFF" transform="translate(176,86)"/>
<path d="M0 0 C1.18682625 0.00539291 1.18682625 0.00539291 2.39762878 0.01089478 C3.22682831 0.01074875 4.05602783 0.01060272 4.91035461 0.01045227 C7.664521 0.01115166 10.41862063 0.01894523 13.17277527 0.02676392 C15.07706668 0.028628 16.98135857 0.03005195 18.88565063 0.03105164 C23.90804865 0.03487754 28.93041794 0.04470843 33.95280457 0.05575562 C39.97332414 0.06776242 45.9938533 0.07237163 52.01438141 0.07820892 C61.17006395 0.08792016 70.32568341 0.1070762 79.48136902 0.12442017 C79.48136902 27.84442017 79.48136902 55.56442017 79.48136902 84.12442017 C51.10136902 84.12442017 22.72136902 84.12442017 -6.51863098 84.12442017 C-6.53925598 70.45004517 -6.55988098 56.77567017 -6.58113098 42.68692017 C-6.59023499 38.36284058 -6.59933899 34.03876099 -6.60871887 29.58364868 C-6.61323547 24.3196106 -6.61323547 24.3196106 -6.61407471 21.8584137 C-6.61561431 20.13262169 -6.61913958 18.40683079 -6.62420654 16.68104553 C-6.63148358 14.07303995 -6.63253841 11.46510033 -6.63215637 8.85708618 C-6.63755353 7.69612222 -6.63755353 7.69612222 -6.64305973 6.51170444 C-6.63055636 0.17341523 -6.32386579 0.01213154 0 0 Z " fill="#AFD1B5" transform="translate(267.5186309814453,259.8755798339844)"/>
<path d="M0 0 C27.72 0 55.44 0 84 0 C84 28.05 84 56.1 84 85 C56.28 85 28.56 85 0 85 C0 56.95 0 28.9 0 0 Z " fill="#FFFFFF" transform="translate(176,0)"/>
<path d="M0 0 C0.33 0 0.66 0 1 0 C1 28.05 1 56.1 1 85 C29.38 85 57.76 85 87 85 C87 56.95 87 28.9 87 0 C87.33 0 87.66 0 88 0 C88 28.05 88 56.1 88 85 C116.05 85 144.1 85 173 85 C173 56.95 173 28.9 173 0 C173.66 0 174.32 0 175 0 C175 112.86 175 225.72 175 342 C181.58854236 336.25218987 181.58854236 336.25218987 187.87310791 330.24993992 C188.7564018 329.36863708 189.63969568 328.48733424 190.54975605 327.57932526 C191.50489569 326.62133382 192.45998838 325.66329557 193.41503906 324.70521545 C194.44880574 323.67188558 195.48279244 322.63877579 196.51697826 321.60586542 C199.34014037 318.78492687 202.1601959 315.96090091 204.97972941 313.13633621 C208.02756074 310.08416969 211.0782988 307.03491091 214.12867737 303.98529053 C219.40729591 298.70719528 224.68408647 293.42727826 229.95962524 288.14610481 C237.58708813 280.51050056 245.21732443 272.8776727 252.84823143 265.24551063 C265.23004338 252.86151231 277.60962243 240.47528441 289.98779297 228.08764648 C302.00907937 216.05717524 314.03141995 204.02775907 326.05517578 191.99975586 C326.79683589 191.25783302 327.538496 190.51591019 328.30263066 189.75150485 C332.02348211 186.02934833 335.74435424 182.30721249 339.46523666 178.58508694 C370.31336633 147.72659756 401.15787053 116.86448632 432 86 C432.33 86.99 432.66 87.98 433 89 C431.83092785 90.77445602 431.83092785 90.77445602 430.03276062 92.71014404 C429.38090475 93.4172628 428.72904888 94.12438156 428.0574398 94.85292816 C424.89752013 98.15050923 421.71418858 101.41696396 418.47583008 104.63769531 C417.40128822 105.71245621 417.40128822 105.71245621 416.30503845 106.80892944 C413.96223475 109.15104266 411.61591961 111.48960347 409.26953125 113.828125 C407.62980086 115.46598737 405.9902933 117.10407284 404.35099792 118.74237061 C400.05251582 123.03705137 395.75104013 127.3287214 391.44891357 131.61975098 C387.06894664 135.98947652 382.69181677 140.36204189 378.31445312 144.734375 C371.25021773 151.78983466 364.18423179 158.84353549 357.11605835 165.89505005 C356.18901344 166.81992722 356.18901344 166.81992722 355.24324036 167.76348877 C354.67568842 168.32718422 354.10813648 168.89087967 353.523386 169.4716568 C352.22237129 170.7769051 350.94779804 172.10841984 349.67900085 173.44500732 C348 175 348 175 346 175 C345.72810836 175.59670069 345.45621673 176.19340138 345.17608595 176.80818391 C344.02231501 178.95841256 342.89787902 180.35268799 341.18262482 182.06905746 C340.60511585 182.65178193 340.02760688 183.23450639 339.43259764 183.83488917 C338.79778109 184.46524428 338.16296454 185.09559938 337.50891113 185.74505615 C336.83482728 186.42225999 336.16074342 187.09946383 335.46623278 187.797189 C333.20163483 190.06977735 330.92993925 192.33513472 328.65820312 194.60058594 C327.03514232 196.22635609 325.41250745 197.85255156 323.79026794 199.47914124 C319.37978813 203.89875259 314.96298856 208.31199755 310.54477501 212.723876 C305.92891908 217.33467765 301.31793431 221.9503464 296.70617676 226.56524658 C288.46583331 234.80946395 280.22045177 243.04862186 271.97308856 251.2858161 C264.4894838 258.76047936 257.01114679 266.24037933 249.53662109 273.72412109 C240.86071913 282.41071536 232.18148253 291.09395289 223.49727392 299.77224374 C218.89865634 304.36773611 214.30141775 308.96458607 209.70765686 313.56493378 C205.3915587 317.88678793 201.07063835 322.203761 196.74586678 326.51693535 C195.15497545 328.10517104 193.56580419 329.69513171 191.97843742 331.28689003 C189.82055779 333.45019079 187.65668457 335.60730613 185.49108887 337.76287842 C184.85627232 338.40215641 184.22145577 339.0414344 183.56740236 339.70008445 C179.2283003 344 179.2283003 344 177 344 C175.74413125 347.76760625 175.82318359 351.3082657 175.79467773 355.23510742 C175.77962865 356.51432178 175.77962865 356.51432178 175.76427555 357.81937885 C175.7328799 360.58138114 175.70811496 363.34339777 175.68359375 366.10546875 C175.66519129 367.81010406 175.64635467 369.51473474 175.6270752 371.21936035 C175.55861717 377.54201874 175.49857102 383.86476594 175.4375 390.1875 C175.293125 404.315625 175.14875 418.44375 175 433 C145.63 433 116.26 433 86 433 C92.75 425.125 92.75 425.125 95.72067261 422.15907288 C96.39226347 421.48610452 97.06385433 420.81313616 97.75579643 420.11977482 C98.47430841 419.40486094 99.1928204 418.68994707 99.93310547 417.95336914 C101.10878428 416.77750952 101.10878428 416.77750952 102.30821419 415.57789516 C104.82554443 413.06130649 107.34628177 410.54816275 109.8671875 408.03515625 C111.42999604 406.47381947 112.99257846 404.91225631 114.55493164 403.35046387 C120.32555177 397.58506947 126.10053702 391.82404549 131.875 386.0625 C151.241875 366.7265625 151.241875 366.7265625 171 347 C86.355 346.505 86.355 346.505 0 346 C0 231.82 0 117.64 0 0 Z M1 86 C1 114.38 1 142.76 1 172 C29.38 172 57.76 172 87 172 C87 143.62 87 115.24 87 86 C58.62 86 30.24 86 1 86 Z M88 86 C88 114.38 88 142.76 88 172 C116.05 172 144.1 172 173 172 C173 143.62 173 115.24 173 86 C144.95 86 116.9 86 88 86 Z M1 173 C1 201.38 1 229.76 1 259 C29.38 259 57.76 259 87 259 C87 230.62 87 202.24 87 173 C58.62 173 30.24 173 1 173 Z M88 173 C88 201.38 88 229.76 88 259 C116.05 259 144.1 259 173 259 C173 230.62 173 202.24 173 173 C144.95 173 116.9 173 88 173 Z M1 260 C1 288.05 1 316.1 1 345 C29.38 345 57.76 345 87 345 C87 316.95 87 288.9 87 260 C58.62 260 30.24 260 1 260 Z M88 260 C88 288.05 88 316.1 88 345 C116.05 345 144.1 345 173 345 C173 316.95 173 288.9 173 260 C144.95 260 116.9 260 88 260 Z " fill="#C24B47" transform="translate(0,0)"/>
<path d="M0 0 C27.72 0 55.44 0 84 0 C84 27.72 84 55.44 84 84 C56.28 84 28.56 84 0 84 C0 56.28 0 28.56 0 0 Z " fill="#FFFFFF" transform="translate(176,348)"/>
<path d="M0 0 C56.76 0 113.52 0 172 0 C165.24974275 7.87530013 165.24974275 7.87530013 162.32402039 10.80296326 C161.66091354 11.46888992 160.9978067 12.13481659 160.31460571 12.82092285 C159.60839081 13.52511353 158.9021759 14.2293042 158.17456055 14.95483398 C157.41451218 15.71663467 156.65446381 16.47843536 155.87138367 17.26332092 C153.37899114 19.76008618 150.88299309 22.25320999 148.38671875 24.74609375 C146.64876426 26.48472217 144.91095821 28.223499 143.17329407 29.9624176 C139.54285225 33.59432982 135.91061719 37.22443647 132.27709961 40.85327148 C127.60829475 45.51635389 122.9440275 50.18394531 118.28106976 54.8528738 C114.69968173 58.43786347 111.11593014 62.02048272 107.53144264 65.60237312 C105.80942078 67.32372593 104.08814687 69.0458273 102.36762047 70.76867485 C99.97363891 73.16517916 97.57650457 75.5584832 95.1784668 77.95092773 C94.46213074 78.66928802 93.74579468 79.38764832 93.00775146 80.1277771 C92.35874374 80.773965 91.70973602 81.42015289 91.0410614 82.08592224 C90.47457728 82.65202933 89.90809317 83.21813643 89.32444286 83.80139828 C88 85 88 85 87 85 C87 57.28 87 29.56 87 1 C58.62 1 30.24 1 1 1 C1 29.05 1 57.1 1 86 C29.05 86 57.1 86 86 86 C86 86.33 86 86.66 86 87 C57.62 87 29.24 87 0 87 C0 58.29 0 29.58 0 0 Z " fill="#F1F1F1" transform="translate(0,346)"/>
<path d="M0 0 C27.39 0 54.78 0 83 0 C81.32065002 3.35869996 80.30673104 4.94393258 77.77380371 7.48016357 C77.10922653 8.1503804 76.44464935 8.82059723 75.75993347 9.51112366 C74.66736992 10.59761452 74.66736992 10.59761452 73.55273438 11.70605469 C72.78512283 12.47717087 72.01751129 13.24828705 71.22663879 14.04277039 C68.68735271 16.59086128 66.14081805 19.13156465 63.59375 21.671875 C61.82990703 23.43706469 60.06636109 25.20255123 58.30310059 26.96832275 C54.13404479 31.14070574 49.95984966 35.30789883 45.78382063 39.47330117 C41.97522086 43.27331258 38.17398888 47.08062479 34.37457609 50.88981891 C30.26566858 55.00888143 26.15117387 59.12232046 22.03425598 63.23337555 C20.28161081 64.98468254 18.53046114 66.73748744 16.7808075 68.49178314 C14.34108647 70.93655606 11.89509359 73.37487137 9.44726562 75.81152344 C8.71888992 76.5439476 7.99051422 77.27637177 7.24006653 78.0309906 C6.24320076 79.0193969 6.24320076 79.0193969 5.22619629 80.027771 C4.64806435 80.60514889 4.0699324 81.18252678 3.47428131 81.77740097 C2 83 2 83 0 83 C0 55.61 0 28.22 0 0 Z " fill="#FCFCFC" transform="translate(261,173)"/>
<path d="M0 0 C27.39 0 54.78 0 83 0 C81.32065002 3.35869996 80.30673104 4.94393258 77.77380371 7.48016357 C77.10922653 8.1503804 76.44464935 8.82059723 75.75993347 9.51112366 C74.66736992 10.59761452 74.66736992 10.59761452 73.55273438 11.70605469 C72.78512283 12.47717087 72.01751129 13.24828705 71.22663879 14.04277039 C68.68735271 16.59086128 66.14081805 19.13156465 63.59375 21.671875 C61.82990703 23.43706469 60.06636109 25.20255123 58.30310059 26.96832275 C54.13404479 31.14070574 49.95984966 35.30789883 45.78382063 39.47330117 C41.97522086 43.27331258 38.17398888 47.08062479 34.37457609 50.88981891 C30.26566858 55.00888143 26.15117387 59.12232046 22.03425598 63.23337555 C20.28161081 64.98468254 18.53046114 66.73748744 16.7808075 68.49178314 C14.34108647 70.93655606 11.89509359 73.37487137 9.44726562 75.81152344 C8.71888992 76.5439476 7.99051422 77.27637177 7.24006653 78.0309906 C6.24320076 79.0193969 6.24320076 79.0193969 5.22619629 80.027771 C4.64806435 80.60514889 4.0699324 81.18252678 3.47428131 81.77740097 C2 83 2 83 0 83 C0 55.61 0 28.22 0 0 Z " fill="#FCFCFC" transform="translate(348,86)"/>
<path d="M0 0 C0 27.39 0 54.78 0 83 C-27.39 83 -54.78 83 -83 83 C-76.24974271 75.12469983 -76.24974271 75.12469983 -73.39994812 72.27296448 C-72.75366959 71.62386612 -72.10739105 70.97476776 -71.44152832 70.30599976 C-70.75401489 69.62051056 -70.06650146 68.93502136 -69.3581543 68.22875977 C-68.61761307 67.48646622 -67.87707184 66.74417267 -67.11408997 65.97938538 C-64.6866278 63.5475519 -62.2555623 61.11935866 -59.82421875 58.69140625 C-58.13110477 56.9976183 -56.43813923 55.30368197 -54.74531555 53.60960388 C-51.20903047 50.0718486 -47.67095283 46.53589855 -44.1315918 43.0012207 C-39.58385479 38.45920682 -35.04065672 33.91268336 -30.4987669 29.36482334 C-27.01002511 25.87247994 -23.51891989 22.382507 -20.02707863 18.89326286 C-18.34971417 17.21656743 -16.67309758 15.5391235 -14.99722862 13.8609333 C-12.66551288 11.52669479 -10.33064497 9.1956572 -7.99487305 6.86547852 C-7.29723846 6.1658197 -6.59960388 5.46616089 -5.88082886 4.74530029 C-5.24864944 4.1159407 -4.61647003 3.48658112 -3.96513367 2.83815002 C-3.13753052 2.01111242 -3.13753052 2.01111242 -2.29320812 1.16736698 C-1 0 -1 0 0 0 Z " fill="#AFD1B5" transform="translate(347,176)"/>
<path d="M0 0 C0 27.39 0 54.78 0 83 C-27.39 83 -54.78 83 -83 83 C-76.24974271 75.12469983 -76.24974271 75.12469983 -73.39994812 72.27296448 C-72.75366959 71.62386612 -72.10739105 70.97476776 -71.44152832 70.30599976 C-70.75401489 69.62051056 -70.06650146 68.93502136 -69.3581543 68.22875977 C-68.61761307 67.48646622 -67.87707184 66.74417267 -67.11408997 65.97938538 C-64.6866278 63.5475519 -62.2555623 61.11935866 -59.82421875 58.69140625 C-58.13110477 56.9976183 -56.43813923 55.30368197 -54.74531555 53.60960388 C-51.20903047 50.0718486 -47.67095283 46.53589855 -44.1315918 43.0012207 C-39.58385479 38.45920682 -35.04065672 33.91268336 -30.4987669 29.36482334 C-27.01002511 25.87247994 -23.51891989 22.382507 -20.02707863 18.89326286 C-18.34971417 17.21656743 -16.67309758 15.5391235 -14.99722862 13.8609333 C-12.66551288 11.52669479 -10.33064497 9.1956572 -7.99487305 6.86547852 C-7.29723846 6.1658197 -6.59960388 5.46616089 -5.88082886 4.74530029 C-5.24864944 4.1159407 -4.61647003 3.48658112 -3.96513367 2.83815002 C-3.13753052 2.01111242 -3.13753052 2.01111242 -2.29320812 1.16736698 C-1 -0 -1 -0 0 0 Z " fill="#FFFFFF" transform="translate(521,2)"/>
<path d="M0 0 C0.66 0 1.32 0 2 0 C2 27.06 2 54.12 2 82 C-25.06 82 -52.12 82 -80 82 C-73.25025084 74.12529265 -73.25025084 74.12529265 -70.51383972 71.40031433 C-69.89280365 70.77934875 -69.27176758 70.15838318 -68.63191223 69.51860046 C-67.97245102 68.86430557 -67.31298981 68.21001068 -66.63354492 67.53588867 C-65.9222644 66.82606842 -65.21098389 66.11624817 -64.47814941 65.38491821 C-62.94551132 63.85606362 -61.41171982 62.32836456 -59.87688255 60.80171776 C-57.449979 58.38764013 -55.026268 55.97039751 -52.60334778 53.55232239 C-47.46753574 48.42789857 -42.32779403 43.30742741 -37.1875 38.1875 C-31.21270898 32.23629404 -25.23953119 26.28348751 -19.27053261 20.32647133 C-16.87884918 17.94128566 -14.48418298 15.55912203 -12.08940125 13.17704773 C-10.63261496 11.72389173 -9.17596764 10.27059642 -7.71948242 8.81713867 C-7.04990005 8.15272263 -6.38031769 7.48830658 -5.69044495 6.80375671 C-5.083508 6.19689026 -4.47657104 5.5900238 -3.85124207 4.96476746 C-3.32162967 4.43737567 -2.79201727 3.90998388 -2.24635601 3.36661053 C-0.88673179 2.00036279 -0.88673179 2.00036279 0 0 Z " fill="#FEFEFE" transform="translate(171,350)"/>
<path d="M0 0 C0 27.06 0 54.12 0 82 C-27.06 82 -54.12 82 -82 82 C-75.2497427 74.12469981 -75.2497427 74.12469981 -72.43791199 71.31092834 C-71.48111542 70.34990204 -71.48111542 70.34990204 -70.50498962 69.36946106 C-69.82682693 68.6933226 -69.14866425 68.01718414 -68.44995117 67.32055664 C-67.71916351 66.58801666 -66.98837585 65.85547668 -66.23544312 65.10073853 C-63.84044611 62.70137095 -61.44184691 60.30564298 -59.04296875 57.91015625 C-57.37227502 56.23878854 -55.70172974 54.56727245 -54.03132629 52.89561462 C-50.54211958 49.40493782 -47.05112066 45.91606606 -43.55883789 42.4284668 C-39.0716348 37.94698718 -34.58897133 33.46099769 -30.10761547 28.97367191 C-26.6651968 25.52765164 -23.22041477 22.08400186 -19.77489662 18.64108086 C-18.11986086 16.98671411 -16.46557293 15.33159891 -14.8120327 13.67573738 C-12.51144986 11.37263176 -10.20771517 9.0727274 -7.90307617 6.77368164 C-6.87065041 5.73821953 -6.87065041 5.73821953 -5.81736755 4.68183899 C-4.88171967 3.75042084 -4.88171967 3.75042084 -3.9271698 2.80018616 C-3.38280871 2.2562021 -2.83844763 1.71221804 -2.27759075 1.15174961 C-1 0 -1 0 0 0 Z " fill="#AED0B4" transform="translate(260,263)"/>
<path d="M0 0 C0 27.06 0 54.12 0 82 C-27.06 82 -54.12 82 -82 82 C-75.2497427 74.12469981 -75.2497427 74.12469981 -72.43791199 71.31092834 C-71.48111542 70.34990204 -71.48111542 70.34990204 -70.50498962 69.36946106 C-69.82682693 68.6933226 -69.14866425 68.01718414 -68.44995117 67.32055664 C-67.71916351 66.58801666 -66.98837585 65.85547668 -66.23544312 65.10073853 C-63.84044611 62.70137095 -61.44184691 60.30564298 -59.04296875 57.91015625 C-57.37227502 56.23878854 -55.70172974 54.56727245 -54.03132629 52.89561462 C-50.54211958 49.40493782 -47.05112066 45.91606606 -43.55883789 42.4284668 C-39.0716348 37.94698718 -34.58897133 33.46099769 -30.10761547 28.97367191 C-26.6651968 25.52765164 -23.22041477 22.08400186 -19.77489662 18.64108086 C-18.11986086 16.98671411 -16.46557293 15.33159891 -14.8120327 13.67573738 C-12.51144986 11.37263176 -10.20771517 9.0727274 -7.90307617 6.77368164 C-6.87065041 5.73821953 -6.87065041 5.73821953 -5.81736755 4.68183899 C-4.88171967 3.75042084 -4.88171967 3.75042084 -3.9271698 2.80018616 C-3.38280871 2.2562021 -2.83844763 1.71221804 -2.27759075 1.15174961 C-1 0 -1 0 0 0 Z " fill="#AFD1B5" transform="translate(433,90)"/>
<path d="M0 0 C27.06 0 54.12 0 82 0 C75.24947649 7.87561076 75.24947649 7.87561076 72.48260498 10.65110779 C71.85459991 11.28337784 71.22659485 11.91564789 70.57955933 12.56707764 C69.91231842 13.23386536 69.24507751 13.90065308 68.55761719 14.58764648 C67.83818939 15.31043289 67.1187616 16.0332193 66.37753296 16.77790833 C64.01993714 19.14493591 61.65865155 21.50823809 59.296875 23.87109375 C57.65106985 25.52011398 56.00533936 27.16920873 54.35968018 28.81837463 C50.92190047 32.26212398 47.48207831 35.70381834 44.04101562 39.14428711 C39.6216794 43.56352116 35.2092931 47.9896258 30.79859543 52.41747952 C27.40836319 55.81879281 24.0136338 59.21558944 20.61759186 62.61110115 C18.98761845 64.24225802 17.35927413 65.87504445 15.73256683 67.50945854 C13.46800095 69.78375714 11.19726583 72.0517094 8.92480469 74.31811523 C8.24946686 74.99907257 7.57412903 75.68002991 6.87832642 76.38162231 C6.26160065 76.99415359 5.64487488 77.60668488 5.00946045 78.23777771 C4.4733955 78.77438743 3.93733055 79.31099714 3.38502121 79.86386776 C2 81 2 81 0 81 C0 54.27 0 27.54 0 0 Z " fill="#FCFCFC" transform="translate(436,0)"/>
<path d="M0 0 C26.73 0 53.46 0 81 0 C79.33504602 3.32990795 78.35426329 4.89635185 75.84973145 7.40423584 C74.87810814 8.38431862 74.87810814 8.38431862 73.88685608 9.38420105 C73.17718185 10.08982681 72.46750763 10.79545258 71.73632812 11.52246094 C70.98822372 12.27406998 70.24011932 13.02567902 69.46934509 13.80006409 C66.99498901 16.28322373 64.51338768 18.7589955 62.03125 21.234375 C60.31224754 22.95472422 58.5935421 24.67537027 56.87512207 26.39630127 C53.27367198 30.00070052 49.66862707 33.60145537 46.06103516 37.19970703 C41.42687304 41.82245772 36.80176878 46.45415051 32.1792984 51.08858871 C28.63313913 54.6419575 25.08225176 58.1905705 21.52989197 61.73773956 C19.82190421 63.44438919 18.11541178 65.15253663 16.41041565 66.86217499 C14.03295989 69.24468285 11.64923436 71.62073033 9.26367188 73.99511719 C8.55399765 74.70883987 7.84432343 75.42256256 7.11314392 76.15791321 C6.46539505 76.80002243 5.81764618 77.44213165 5.15026855 78.10369873 C4.5868853 78.66632793 4.02350204 79.22895714 3.44304657 79.80863571 C2 81 2 81 0 81 C0 54.27 0 27.54 0 0 Z " fill="#FCFCFC" transform="translate(176,260)"/>
<path d="M0 0 C1.32 0 2.64 0 4 0 C4 113.85 4 227.7 4 345 C2.68 345 1.36 345 0 345 C0 259.53 0 174.06 0 86 C-56.1 86 -112.2 86 -170 86 C-169.505 85.01 -169.505 85.01 -169 84 C-127.915 84.495 -127.915 84.495 -86 85 C-86.33 57.28 -86.66 29.56 -87 1 C-86.34 1 -85.68 1 -85 1 C-85 28.72 -85 56.44 -85 85 C-56.95 85 -28.9 85 0 85 C0 56.95 0 28.9 0 0 Z " fill="#989898" transform="translate(607,0)"/>
<path d="M0 0 C0.33 0 0.66 0 1 0 C1 28.05 1 56.1 1 85 C28.72 85 56.44 85 85 85 C85 56.95 85 28.9 85 0 C85.33 0 85.66 0 86 0 C86 28.05 86 56.1 86 85 C114.38 85 142.76 85 172 85 C172 56.95 172 28.9 172 0 C172.33 0 172.66 0 173 0 C173 28.05 173 56.1 173 85 C200.72 85 228.44 85 257 85 C256.67 85.66 256.34 86.32 256 87 C228.61 86.67 201.22 86.34 173 86 C173.33 113.72 173.66 141.44 174 170 C173.34 170.33 172.68 170.66 172 171 C172 142.95 172 114.9 172 86 C143.62 86 115.24 86 86 86 C86 114.38 86 142.76 86 172 C114.05 172 142.1 172 171 172 C169 174 169 174 165.60848999 174.20254517 C164.12347506 174.19057123 162.63852862 174.16717819 161.15380859 174.13525391 C159.91937987 174.12074723 159.91937987 174.12074723 158.6600132 174.10594749 C155.98926265 174.07225587 153.31896358 174.0246547 150.6484375 173.9765625 C149.00237246 173.95375539 147.35629456 173.93185757 145.71020508 173.91088867 C139.59830795 173.82662773 133.48666421 173.72473476 127.375 173.625 C113.72125 173.41875 100.0675 173.2125 86 173 C86.33 200.72 86.66 228.44 87 257 C86.34 257.33 85.68 257.66 85 258 C85 229.95 85 201.9 85 173 C57.28 173 29.56 173 1 173 C1 201.38 1 229.76 1 259 C28.39 259 55.78 259 84 259 C82 261 82 261 78.68441772 261.20254517 C77.23528845 261.19057324 75.78622929 261.16718298 74.33740234 261.13525391 C73.53427423 261.12558279 72.73114613 261.11591167 71.9036808 261.10594749 C69.29753535 261.07225863 66.69185284 261.02465688 64.0859375 260.9765625 C62.47958631 260.95375509 60.87322194 260.9318573 59.2668457 260.91088867 C53.30273097 260.82663133 47.33887596 260.72473647 41.375 260.625 C28.05125 260.41875 14.7275 260.2125 1 260 C1.33 287.06 1.66 314.12 2 342 C1.34 342 0.68 342 0 342 C0 229.14 0 116.28 0 0 Z M1 86 C1 114.38 1 142.76 1 172 C28.72 172 56.44 172 85 172 C85 143.62 85 115.24 85 86 C57.28 86 29.56 86 1 86 Z " fill="#B49F9F" transform="translate(175,0)"/>
<path d="M0 0 C0.33 0 0.66 0 1 0 C1 28.05 1 56.1 1 85 C29.38 85 57.76 85 87 85 C87 56.95 87 28.9 87 0 C87.33 0 87.66 0 88 0 C88 28.05 88 56.1 88 85 C116.05 85 144.1 85 173 85 C173 85.33 173 85.66 173 86 C144.95 86 116.9 86 88 86 C88 114.38 88 142.76 88 172 C116.05 172 144.1 172 173 172 C173 172.33 173 172.66 173 173 C144.95 173 116.9 173 88 173 C88 201.38 88 229.76 88 259 C116.05 259 144.1 259 173 259 C173 259.33 173 259.66 173 260 C144.95 260 116.9 260 88 260 C88 288.05 88 316.1 88 345 C87.67 345 87.34 345 87 345 C87 316.95 87 288.9 87 260 C58.62 260 30.24 260 1 260 C1 288.05 1 316.1 1 345 C0.67 345 0.34 345 0 345 C0 231.15 0 117.3 0 0 Z M1 86 C1 114.38 1 142.76 1 172 C29.38 172 57.76 172 87 172 C87 143.62 87 115.24 87 86 C58.62 86 30.24 86 1 86 Z M1 173 C1 201.38 1 229.76 1 259 C29.38 259 57.76 259 87 259 C87 230.62 87 202.24 87 173 C58.62 173 30.24 173 1 173 Z " fill="#989898" transform="translate(0,0)"/>
<path d="M0 0 C0.99 0 1.98 0 3 0 C3 26.73 3 53.46 3 81 C8.42538175 76.25279096 13.60213027 71.51982383 18.63769531 66.39648438 C19.35420258 65.67209167 20.07070984 64.94769897 20.80892944 64.20135498 C22.34967739 62.64353188 23.88936437 61.08465884 25.4280777 59.52482605 C28.69934443 56.21126711 31.98013323 52.90720456 35.2603569 49.60251617 C41.35548189 43.46172073 47.44657282 37.31704891 53.52148438 31.15625 C57.76043429 26.85810175 62.01133051 22.57210012 66.2705307 18.29402161 C67.89063089 16.66214839 69.50617706 15.0257412 71.11710358 13.3848114 C73.36005591 11.10110113 75.6178685 8.83316705 77.87988281 6.56835938 C78.544888 5.88380676 79.20989319 5.19925415 79.89505005 4.49395752 C80.51163483 3.8828009 81.1282196 3.27164429 81.76348877 2.64196777 C82.2951125 2.10443626 82.82673622 1.56690475 83.37446976 1.01308441 C85 0 85 0 87.20228195 0.33487701 C87.79552891 0.5543676 88.38877586 0.77385818 89 1 C88.34 1 87.68 1 87 1 C86.7365403 1.58822163 86.4730806 2.17644325 86.20163727 2.78248978 C84.94661616 5.09851493 83.63066956 6.62087584 81.77380371 8.48016357 C81.10922653 9.1503804 80.44464935 9.82059723 79.75993347 10.51112366 C78.66736992 11.59761452 78.66736992 11.59761452 77.55273438 12.70605469 C76.78512283 13.47717087 76.01751129 14.24828705 75.22663879 15.04277039 C72.68735271 17.59086128 70.14081805 20.13156465 67.59375 22.671875 C65.82990703 24.43706469 64.06636109 26.20255123 62.30310059 27.96832275 C58.13404479 32.14070574 53.95984966 36.30789883 49.78382063 40.47330117 C45.97522086 44.27331258 42.17398888 48.08062479 38.37457609 51.88981891 C34.26566858 56.00888143 30.15117387 60.12232046 26.03425598 64.23337555 C24.28161081 65.98468254 22.53046114 67.73748744 20.7808075 69.49178314 C18.34108647 71.93655606 15.89509359 74.37487137 13.44726562 76.81152344 C12.71888992 77.5439476 11.99051422 78.27637177 11.24006653 79.0309906 C10.57548935 79.68992813 9.91091217 80.34886566 9.22619629 81.027771 C8.64806435 81.60514889 8.0699324 82.18252678 7.47428131 82.77740097 C6 84 6 84 4 84 C3.34 141.75 2.68 199.5 2 259 C1.34 259 0.68 259 0 259 C0 230.62 0 202.24 0 173 C-27.72 173 -55.44 173 -84 173 C-82 171 -82 171 -78.64645386 170.79745483 C-77.17938197 170.80945222 -75.71237864 170.83280392 -74.24560547 170.86474609 C-73.04547821 170.87893837 -73.04547821 170.87893837 -71.82110596 170.89341736 C-69.16957086 170.92716648 -66.51849654 170.97526173 -63.8671875 171.0234375 C-62.03159804 171.04959728 -60.19599566 171.07486487 -58.36038208 171.09927368 C-53.52361743 171.16599668 -48.68712359 171.24487376 -43.85058594 171.32623291 C-38.91742364 171.40708286 -33.98410223 171.47650657 -29.05078125 171.546875 C-19.36699674 171.68669659 -9.68345981 171.83935107 0 172 C-0.01474869 171.09880936 -0.02949738 170.19761871 -0.04469299 169.26911926 C-0.23520663 157.45048758 -0.40597529 145.63163048 -0.5625 133.8125 C-0.5815999 132.37166109 -0.5815999 132.37166109 -0.60108566 130.90171432 C-1.0092574 99.61450997 -0.98853648 68.34933048 -0.5625 37.0625 C-0.54327925 35.64958868 -0.54327925 35.64958868 -0.5236702 34.2081337 C-0.36694663 22.8051266 -0.19292475 11.40245184 0 0 Z " fill="#5A8EC2" transform="translate(433,0)"/>
<path d="M0 0 C0.33 0.99 0.66 1.98 1 3 C-0.16907215 4.77445602 -0.16907215 4.77445602 -1.96723938 6.71014404 C-2.61909525 7.4172628 -3.27095112 8.12438156 -3.9425602 8.85292816 C-7.10247987 12.15050923 -10.28581142 15.41696396 -13.52416992 18.63769531 C-14.24053116 19.35420258 -14.9568924 20.07070984 -15.69496155 20.80892944 C-18.03776525 23.15104266 -20.38408039 25.48960347 -22.73046875 27.828125 C-24.37019914 29.46598737 -26.0097067 31.10407284 -27.64900208 32.74237061 C-31.94748418 37.03705137 -36.24895987 41.3287214 -40.55108643 45.61975098 C-44.93105336 49.98947652 -49.30818323 54.36204189 -53.68554688 58.734375 C-60.74978227 65.78983466 -67.81576821 72.84353549 -74.88394165 79.89505005 C-75.50197159 80.51163483 -76.12000153 81.1282196 -76.75675964 81.76348877 C-77.32431158 82.32718422 -77.89186352 82.89087967 -78.476614 83.4716568 C-79.77762871 84.7769051 -81.05220196 86.10841984 -82.32099915 87.44500732 C-84 89 -84 89 -86 89 C-86.27189164 89.59670069 -86.54378327 90.19340138 -86.82391405 90.80818391 C-87.97768499 92.95841256 -89.10212098 94.35268799 -90.81737518 96.06905746 C-91.39488415 96.65178193 -91.97239312 97.23450639 -92.56740236 97.83488917 C-93.20221891 98.46524428 -93.83703546 99.09559938 -94.49108887 99.74505615 C-95.16517272 100.42225999 -95.83925658 101.09946383 -96.53376722 101.797189 C-98.79836517 104.06977735 -101.07006075 106.33513472 -103.34179688 108.60058594 C-104.96485768 110.22635609 -106.58749255 111.85255156 -108.20973206 113.47914124 C-112.62021187 117.89875259 -117.03701144 122.31199755 -121.45522499 126.723876 C-126.07108092 131.33467765 -130.68206569 135.9503464 -135.29382324 140.56524658 C-143.53416669 148.80946395 -151.77954823 157.04862186 -160.02691144 165.2858161 C-167.5105162 172.76047936 -174.98885321 180.24037933 -182.46337891 187.72412109 C-191.13928087 196.41071536 -199.81851747 205.09395289 -208.50272608 213.77224374 C-213.10134366 218.36773611 -217.69858225 222.96458607 -222.29234314 227.56493378 C-226.6084413 231.88678793 -230.92936165 236.203761 -235.25413322 240.51693535 C-236.84502455 242.10517104 -238.43419581 243.69513171 -240.02156258 245.28689003 C-242.17944221 247.45019079 -244.34331543 249.60730613 -246.50891113 251.76287842 C-247.14372768 252.40215641 -247.77854423 253.0414344 -248.43259764 253.70008445 C-252.7716997 258 -252.7716997 258 -255 258 C-255.33 258.99 -255.66 259.98 -256 261 C-256.74316353 259.28161597 -256.74316353 259.28161597 -257 257 C-255.47630697 254.85531449 -255.47630697 254.85531449 -253.10938358 252.49414444 C-252.21614197 251.59094758 -251.32290035 250.68775073 -250.40259081 249.75718427 C-249.38979465 248.75865511 -248.37676959 247.76035807 -247.36354065 246.76226807 C-246.30326001 245.69980888 -245.24407801 244.63625236 -244.18590873 243.57169032 C-241.26462068 240.63917687 -238.32789337 237.72255666 -235.38851726 234.80818915 C-232.22540179 231.66659472 -229.0766757 228.5106381 -225.9262085 225.35636902 C-220.46241192 219.88994616 -214.98950926 214.43277822 -209.51037788 208.9817276 C-201.58842447 201.10034823 -193.68025572 193.20525641 -185.77542161 185.30671129 C-172.95110091 172.49334334 -160.11564585 159.69118913 -147.27319336 146.89599609 C-134.79534493 134.46401785 -122.32274018 122.02681745 -109.85717773 109.58251953 C-109.08925715 108.81591256 -108.32133656 108.04930559 -107.53014565 107.25946811 C-103.67788285 103.41373033 -99.82572319 99.56788925 -95.97361481 95.72199678 C-63.99838693 63.79863247 -32.00508812 31.89342567 0 0 Z " fill="#0E150F" transform="translate(432,86)"/>
<path d="M0 0 C57.75 0 115.5 0 175 0 C175 28.71 175 57.42 175 87 C117.25 87 59.5 87 0 87 C0 86.67 0 86.34 0 86 C28.05 86 56.1 86 85 86 C85 57.95 85 29.9 85 1 C56.95 1 28.9 1 0 1 C0 0.67 0 0.34 0 0 Z M86 1 C86 29.05 86 57.1 86 86 C114.05 86 142.1 86 171 86 C171 57.95 171 29.9 171 1 C142.95 1 114.9 1 86 1 Z " fill="#949494" transform="translate(436,346)"/>
<path d="M0 0 C0.33 0 0.66 0 1 0 C1 28.38 1 56.76 1 86 C29.05 86 57.1 86 86 86 C86 86.33 86 86.66 86 87 C57.95 87 29.9 87 1 87 C1 115.38 1 143.76 1 173 C29.05 173 57.1 173 86 173 C86 173.33 86 173.66 86 174 C57.95 174 29.9 174 1 174 C1 202.05 1 230.1 1 259 C0.67 259 0.34 259 0 259 C0 230.95 0 202.9 0 174 C-28.05 174 -56.1 174 -85 174 C-85 173.67 -85 173.34 -85 173 C-56.95 173 -28.9 173 0 173 C0 144.62 0 116.24 0 87 C-28.05 87 -56.1 87 -85 87 C-85 86.67 -85 86.34 -85 86 C-56.95 86 -28.9 86 0 86 C0 57.62 0 29.24 0 0 Z " fill="#989898" transform="translate(521,86)"/>
<path d="M0 0 C57.09 0 114.18 0 173 0 C171.8734255 5.6328725 171.8734255 5.6328725 168.90400696 8.83691406 C168.27023447 9.52595825 167.63646198 10.21500244 166.98348427 10.92492676 C163.86593689 14.18642938 160.72740994 17.42006428 157.53588867 20.609375 C156.82606842 21.32255386 156.11624817 22.03573273 155.38491821 22.77052307 C153.06521469 25.09963748 150.741842 27.42504642 148.41796875 29.75 C146.79601356 31.37517122 145.17413259 33.00041651 143.55232239 34.62573242 C140.16759465 38.01642416 136.78083045 41.40506673 133.39282227 44.79248047 C129.04189569 49.14330479 124.69792532 53.50100488 120.35563183 57.86044312 C117.01601324 61.21114141 113.67189904 64.55732426 110.32647133 67.90222168 C108.72161756 69.50825868 107.11839235 71.1159247 105.51680565 72.72521973 C103.28827064 74.9634867 101.05356886 77.19540693 98.81713867 79.42578125 C98.15272263 80.0958168 97.48830658 80.76585236 96.80375671 81.45619202 C96.19689026 82.05886398 95.5900238 82.66153595 94.96476746 83.2824707 C94.43737567 83.81040726 93.90998388 84.33834381 93.36661053 84.88227844 C92 86 92 86 90 86 C90 86.66 90 87.32 90 88 C88.02 87.505 88.02 87.505 86 87 C114.05 58.95 142.1 30.9 171 2 C86.355 1.505 86.355 1.505 0 1 C0 0.67 0 0.34 0 0 Z " fill="#101010" transform="translate(0,345)"/>
<path d="M0 0 C0.33 0 0.66 0 1 0 C1.20902646 12.20802995 1.39443682 24.41633863 1.5625 36.625 C1.5815999 38.01110725 1.5815999 38.01110725 1.60108566 39.42521667 C2.02060576 70.37421527 1.97752221 101.30120126 1.5625 132.25 C1.54327925 133.68470013 1.54327925 133.68470013 1.5236702 135.14838409 C1.36646695 146.76587125 1.19232027 158.38304142 1 170 C0.34 170 -0.32 170 -1 170 C-1 141.62 -1 113.24 -1 84 C-28.72 84 -56.44 84 -85 84 C-83 82 -83 82 -79.64645386 81.79745483 C-78.17938197 81.80945222 -76.71237864 81.83280392 -75.24560547 81.86474609 C-74.44552063 81.87420761 -73.64543579 81.88366913 -72.82110596 81.89341736 C-70.16957086 81.92716648 -67.51849654 81.97526173 -64.8671875 82.0234375 C-63.03159804 82.04959728 -61.19599566 82.07486487 -59.36038208 82.09927368 C-54.52361743 82.16599668 -49.68712359 82.24487376 -44.85058594 82.32623291 C-39.91742364 82.40708286 -34.98410223 82.47650657 -30.05078125 82.546875 C-20.36699674 82.68669659 -10.68345981 82.83935107 -1 83 C-1.00222061 81.97491837 -1.00444122 80.94983673 -1.00672913 79.89369202 C-1.02696041 70.2549304 -1.04197207 60.61617306 -1.05181217 50.97739506 C-1.05704103 46.02146078 -1.06413874 41.06554358 -1.07543945 36.10961914 C-1.08626822 31.33101164 -1.09227681 26.55242062 -1.09487724 21.7738018 C-1.09673151 19.94646381 -1.10035216 18.11912676 -1.10573006 16.29179573 C-1.11294036 13.74146671 -1.11399095 11.19120663 -1.11352539 8.64086914 C-1.11712067 7.87770386 -1.12071594 7.11453857 -1.12442017 6.32824707 C-1.11405216 1.11405216 -1.11405216 1.11405216 0 0 Z " fill="#3F7AA6" transform="translate(434,89)"/>
<path d="M0 0 C0.33 0 0.66 0 1 0 C1 28.05 1 56.1 1 85 C28.72 85 56.44 85 85 85 C84.67 85.66 84.34 86.32 84 87 C56.61 86.67 29.22 86.34 1 86 C1.33 113.72 1.66 141.44 2 170 C1.34 170.33 0.68 170.66 0 171 C0 142.95 0 114.9 0 86 C-28.38 86 -56.76 86 -86 86 C-86 85.67 -86 85.34 -86 85 C-57.62 85 -29.24 85 0 85 C0 56.95 0 28.9 0 0 Z " fill="#989898" transform="translate(347,0)"/>
<path d="M0 0 C0.5860114 0.22617099 1.1720228 0.45234198 1.77579212 0.68536663 C1.11579212 0.68536663 0.45579212 0.68536663 -0.22420788 0.68536663 C-0.48766758 1.27358826 -0.75112728 1.86180988 -1.02257061 2.46785641 C-2.27759172 4.78388156 -3.59353832 6.30624247 -5.45040417 8.1655302 C-6.11498135 8.83574703 -6.77955853 9.50596386 -7.46427441 10.19649029 C-8.55683796 11.28298115 -8.55683796 11.28298115 -9.6714735 12.39142132 C-10.43908504 13.1625375 -11.20669659 13.93365368 -11.99756908 14.72813702 C-14.53685517 17.27622791 -17.08338983 19.81693128 -19.63045788 22.35724163 C-21.39430085 24.12243132 -23.15784679 25.88791786 -24.92110729 27.65368938 C-29.09016309 31.82607237 -33.26435821 35.99326546 -37.44038725 40.1586678 C-41.24898702 43.95867922 -45.050219 47.76599142 -48.84963179 51.57518554 C-52.9585393 55.69424806 -57.073034 59.8076871 -61.1899519 63.91874218 C-62.94259707 65.67004917 -64.69374674 67.42285407 -66.44340038 69.17714977 C-68.88312141 71.62192269 -71.32911429 74.060238 -73.77694225 76.49689007 C-74.50531796 77.22931423 -75.23369366 77.9617384 -75.98414135 78.71635723 C-76.98100712 79.70476353 -76.98100712 79.70476353 -77.99801159 80.71313763 C-78.57614353 81.29051552 -79.15427547 81.86789341 -79.74992657 82.4627676 C-81.22420788 83.68536663 -81.22420788 83.68536663 -83.22420788 83.68536663 C-83.22420788 84.34536663 -83.22420788 85.00536663 -83.22420788 85.68536663 C-83.88420788 85.68536663 -84.54420788 85.68536663 -85.22420788 85.68536663 C-84.63907398 82.2188159 -83.47816199 80.56023763 -81.01783276 78.08458233 C-80.3322781 77.38767788 -79.64672344 76.69077343 -78.9403944 75.97275066 C-78.1835133 75.21880016 -77.42663219 74.46484966 -76.6468153 73.68805218 C-75.85330166 72.88606899 -75.05978802 72.08408581 -74.24222851 71.2578001 C-71.61252679 68.60466562 -68.97173273 65.96291355 -66.32967663 63.32208538 C-64.5019305 61.48724283 -62.67448583 59.65209994 -60.84733105 57.81666851 C-57.01484443 53.97072352 -53.17655012 50.13070021 -49.3343153 46.29449749 C-44.88968615 41.85651766 -40.46004354 37.40396566 -36.03730792 32.94417638 C-31.78376776 28.65629544 -27.51651665 24.38234644 -23.24370289 20.11365986 C-21.42599718 18.29425532 -19.61229703 16.47084013 -17.80262852 14.6434412 C-15.27670415 12.09550032 -12.7355569 9.56379595 -10.18978405 7.03570843 C-9.43897564 6.27163677 -8.68816723 5.50756512 -7.91460705 4.72033978 C-6.87358585 3.69613178 -6.87358585 3.69613178 -5.81153393 2.65123272 C-5.21182372 2.05081 -4.61211351 1.45038729 -3.99423027 0.83176994 C-2.22420788 -0.31463337 -2.22420788 -0.31463337 0 0 Z " fill="#1F1F20" transform="translate(520.2242078781128,0.3146333694458008)"/>
<path d="M0 0 C0.99 0 1.98 0 3 0 C3 28.38 3 56.76 3 86 C2.01 86 1.02 86 0 86 C0 57.62 0 29.24 0 0 Z " fill="#FFFFFF" transform="translate(608,173)"/>
<path d="M0 0 C0.99 0 1.98 0 3 0 C3 28.38 3 56.76 3 86 C2.01 86 1.02 86 0 86 C0 57.62 0 29.24 0 0 Z " fill="#FFFFFF" transform="translate(608,86)"/>
<path d="M0 0 C0.99 0 1.98 0 3 0 C3 28.05 3 56.1 3 85 C2.01 85 1.02 85 0 85 C0 56.95 0 28.9 0 0 Z " fill="#FFFFFF" transform="translate(608,347)"/>
<path d="M0 0 C0.99 0 1.98 0 3 0 C3 28.05 3 56.1 3 85 C2.01 85 1.02 85 0 85 C0 56.95 0 28.9 0 0 Z " fill="#FFFFFF" transform="translate(608,260)"/>
<path d="M0 0 C0.99 0 1.98 0 3 0 C3 28.05 3 56.1 3 85 C2.01 85 1.02 85 0 85 C0 56.95 0 28.9 0 0 Z " fill="#FFFFFF" transform="translate(608,0)"/>
<path d="M0 0 C0.495 0.99 0.495 0.99 1 2 C-3.6299954 7.40957878 -8.42828423 12.57703588 -13.46411133 17.609375 C-14.17393158 18.32255386 -14.88375183 19.03573273 -15.61508179 19.77052307 C-17.93478531 22.09963748 -20.258158 24.42504642 -22.58203125 26.75 C-24.20398644 28.37517122 -25.82586741 30.00041651 -27.44767761 31.62573242 C-30.83240535 35.01642416 -34.21916955 38.40506673 -37.60717773 41.79248047 C-41.95810431 46.14330479 -46.30207468 50.50100488 -50.64436817 54.86044312 C-53.98398676 58.21114141 -57.32810096 61.55732426 -60.67352867 64.90222168 C-62.27838244 66.50825868 -63.88160765 68.1159247 -65.48319435 69.72521973 C-67.71172936 71.9634867 -69.94643114 74.19540693 -72.18286133 76.42578125 C-73.1794854 77.43083458 -73.1794854 77.43083458 -74.19624329 78.45619202 C-75.10654297 79.36019997 -75.10654297 79.36019997 -76.03523254 80.2824707 C-76.56262433 80.81040726 -77.09001612 81.33834381 -77.63338947 81.88227844 C-79 83 -79 83 -81 83 C-81 83.66 -81 84.32 -81 85 C-81.99 84.67 -82.98 84.34 -84 84 C-56.28 56.28 -28.56 28.56 0 0 Z " fill="#282828" transform="translate(171,348)"/>
</svg>
